<svg xmlns="http://www.w3.org/2000/svg" viewBox="0 0 221 257" width="256" height="298"><style>tspan { white-space:pre }.shp0 { fill: #ffffff } .shp1 { fill: #000000 } .shp2 { fill: #42210b } .shp3 { fill: #f15a24 } .shp4 { fill: #603813 } .shp5 { fill: #c1272d } </style><g ></g><g ><g ><path class="shp0" d="M191.88 157.29C180.16 179.81 136.02 264.6 77.86 256.24C31.73 249.6 1.61 187.93 0.54 138.29C-0.63 84.4 32.02 26.62 87.04 7.89C126.73 -5.62 186.07 -1.53 210.23 36.07C234.95 74.54 208.37 125.61 191.88 157.29Z" /><g ><path fill-rule="evenodd" class="shp1" d="M91.19 41.98C95.6 38.37 100.19 34.97 104.91 31.78C107.26 30.17 109.69 28.66 112.16 27.22C114.66 25.83 117.21 24.52 119.84 23.39C122.49 22.3 125.22 21.37 128.03 20.71C130.85 20.1 133.73 19.72 136.63 19.65C142.43 19.6 148.24 20.75 153.63 22.91C156.33 23.98 158.95 25.25 161.46 26.72C163.96 28.2 166.34 29.87 168.62 31.67C173.15 35.3 177.23 39.48 180.78 44.07C187.89 53.19 193.26 63.82 195.64 75.3C196.78 81.03 197.09 86.97 196.44 92.78C195.84 98.6 194.37 104.3 192.31 109.73C190.24 115.16 187.59 120.34 184.55 125.26C181.49 130.16 178.05 134.8 174.4 139.23C167.09 148.11 158.95 156.14 151.01 164.29C143.06 172.45 134.97 180.54 126.39 188.09C117.82 195.65 108.63 202.57 98.69 208.25C93.7 211.05 88.42 213.44 82.84 214.85C77.27 216.26 71.39 216.67 65.7 215.58C62.87 215.02 60.08 214.14 57.5 212.8C56.84 212.49 56.23 212.09 55.6 211.74L53.82 210.49L52.93 209.86C52.64 209.64 52.38 209.39 52.1 209.15L50.46 207.72C46.26 203.69 43.16 198.68 40.76 193.44C38.41 188.17 36.73 182.63 35.41 177.05C34.76 174.25 34.19 171.44 33.7 168.62C33.19 165.8 32.75 162.98 32.41 160.11C31.08 148.65 31.8 136.96 34.37 125.73C36.9 114.48 41.25 103.7 46.81 93.68C52.37 83.65 59.08 74.3 66.6 65.71C74.09 57.09 82.32 49.15 91.19 41.98ZM91.38 42.21C73.7 56.53 58.79 74.39 48.44 94.53C43.3 104.61 39.33 115.27 36.91 126.27C34.51 137.27 33.73 148.61 34.85 159.81C36.11 171.01 37.97 182.33 42.25 192.75C44.46 197.9 47.34 202.82 51.28 206.81L52.83 208.22C53.09 208.45 53.34 208.7 53.61 208.91L54.46 209.52L56.16 210.75C56.76 211.1 57.34 211.49 57.97 211.8C60.43 213.12 63.11 214.04 65.86 214.59C71.38 215.66 77.14 215.35 82.59 213.91C88.06 212.48 93.24 210.09 98.15 207.29C108 201.65 116.9 194.48 125.27 186.83C133.64 179.15 141.42 170.85 149.28 162.61C157.1 154.32 165.08 146.19 172.2 137.42C175.75 133.03 179.07 128.46 182 123.67C184.91 118.87 187.43 113.84 189.36 108.6C191.28 103.36 192.68 97.93 193.24 92.42C193.86 86.91 193.53 81.34 192.48 75.89C190.34 64.98 185.19 54.73 178.47 45.8C171.72 36.92 163.17 29.17 152.87 24.71C147.75 22.46 142.23 21.14 136.63 21.01C133.83 20.98 131.03 21.26 128.26 21.77C125.5 22.33 122.8 23.15 120.15 24.14C117.51 25.17 114.95 26.38 112.45 27.73C109.97 29.11 107.53 30.56 105.15 32.13C100.4 35.26 95.82 38.65 91.38 42.21Z" /></g><path class="shp2" d="M75.71 205.91C76.62 211.98 75.27 221.01 70.86 222.57C65.79 224.37 58.26 215.72 57.99 216.03C57.71 216.37 68.48 223.65 67.22 227.1C66.06 230.28 54.51 230.69 45.7 225.83C44.16 224.98 31.23 217.6 32.55 205.98C33.77 195.22 46.43 187.64 51.66 189.87C53.73 190.75 55.12 193.37 55.98 192.93C57.11 192.35 54.91 187.83 56.51 186.5C58.04 185.22 62.07 187.7 63.89 188.82C65.71 189.94 69.93 192.61 72.96 198.1C73.66 199.35 75.14 202.09 75.71 205.91Z" /><path class="shp3" d="M31.2 165.03C21.79 165.03 14.18 157.18 14.18 147.47C14.18 137.76 21.79 129.91 31.2 129.91C40.61 129.91 48.22 137.76 48.22 147.47C48.22 157.18 40.61 165.03 31.2 165.03Z" /><path class="shp3" d="M107.62 217.61C98.21 217.61 90.6 209.76 90.6 200.05C90.6 190.34 98.21 182.49 107.62 182.49C117.03 182.49 124.64 190.34 124.64 200.05C124.64 209.76 117.03 217.61 107.62 217.61Z" /><path class="shp4" d="M70.5 77.11C65.12 78.82 59.35 75.71 57.6 70.16C55.84 64.62 58.77 58.76 64.15 57.05C69.52 55.35 75.29 58.46 77.05 64.01C78.8 69.55 75.87 75.41 70.5 77.11Z" /><path class="shp4" d="M174.35 147.01C168.97 148.71 163.2 145.61 161.45 140.06C159.69 134.51 162.62 128.65 168 126.95C173.38 125.25 179.14 128.36 180.9 133.9C182.65 139.45 179.73 145.31 174.35 147.01Z" /><path class="shp5" d="M54.54 103.2C52.07 112.59 44.57 118.73 37.77 116.95C30.97 115.16 27.47 106.12 29.94 96.73C32.4 87.34 39.9 81.19 46.7 82.98C53.51 84.77 57.01 93.81 54.54 103.2Z" /><path class="shp5" d="M154.54 174.03C148.77 181.84 139.53 184.77 133.87 180.59C128.21 176.41 128.31 166.72 134.08 158.91C139.85 151.1 149.08 148.17 154.74 152.35C160.4 156.53 160.31 166.22 154.54 174.03Z" /><g ><path class="shp1" d="M126.82 68.81C125.87 68.83 124.87 68.66 123.96 68.2C123.05 67.75 122.21 67.03 121.68 66.03C121.13 65.04 121.04 63.75 121.37 62.65C121.68 61.53 122.36 60.61 123.11 59.85C123.87 59.08 124.78 58.5 125.8 58.08C126.84 57.67 127.99 57.48 129.1 57.6C131.34 57.81 133.31 59.14 134.51 60.84L134.8 61.25L134.75 61.56C134.36 64.01 133.7 66.28 133.09 68.59C132.49 70.89 131.83 73.17 131.1 75.44C130.71 76.57 130.37 77.72 129.9 78.83L129.23 80.51L128.43 82.14C127.36 84.33 125.89 86.31 124.31 88.2C121.11 91.95 116.79 94.86 112.05 96.26C107.33 97.71 102.28 97.86 97.64 96.71L97.67 96.41C102.4 96.12 106.94 95.29 111.1 93.57C115.24 91.83 119.01 89.4 122.18 86.21C123.75 84.6 125.18 82.85 126.48 80.96L127.47 79.55L128.36 78.07C128.99 77.09 129.48 76.04 129.99 75C130.93 72.88 131.71 70.65 132.12 68.36C132.55 66.08 132.68 63.69 132.62 61.45L132.86 62.18C131.72 61.06 130.27 60.4 128.83 60.27C128.11 60.21 127.4 60.27 126.71 60.51C126.02 60.76 125.33 61.15 124.74 61.63C123.54 62.61 122.82 63.94 123.24 65.33C123.67 66.74 125.13 67.94 126.85 68.5L126.82 68.81Z" /></g><g ><path class="shp1" d="M152.53 87.1C153.61 88.48 155.19 89.23 156.71 89.25C158.23 89.28 159.65 88.56 160.44 87.44C160.85 86.89 161.11 86.22 161.23 85.53C161.37 84.85 161.35 84.12 161.18 83.52C161.01 82.93 160.67 82.41 160.18 81.92C159.7 81.45 159.06 80.98 158.44 80.7C157.24 80.15 155.53 80.12 153.9 80.42C152.24 80.72 150.6 81.34 149.06 82.14C145.99 83.79 143.34 86.18 141.15 88.88C138.97 91.59 137.1 94.49 135.55 97.52C134.02 100.56 132.95 103.78 132.31 107.06C131.69 110.34 131.55 113.73 131.9 117.13C132.24 120.54 133.08 123.92 134.15 127.31L133.88 127.44C129.89 121.52 127.96 113.9 129.16 106.49C129.81 102.82 131.18 99.31 133.06 96.16C133.99 94.58 135.01 93.06 136.18 91.65C137.34 90.24 138.63 88.96 139.97 87.74C142.67 85.33 145.52 83.17 148.58 81.29C150.11 80.35 151.71 79.48 153.45 78.81C154.33 78.49 155.24 78.21 156.23 78.1C157.21 77.99 158.27 77.99 159.34 78.35C160.36 78.72 161.24 79.22 162.04 79.96C162.83 80.69 163.49 81.71 163.75 82.84C164.24 85.04 163.67 87.26 162.24 88.9C160.81 90.55 158.5 91.26 156.52 90.82C154.52 90.44 152.86 88.98 152.27 87.23L152.53 87.1Z" /></g><path class="shp5" d="M105.73 101.03C104.14 107.1 97.93 110.71 91.84 109.11C85.76 107.51 82.13 101.31 83.72 95.25C85.32 89.18 91.52 85.57 97.61 87.17C103.7 88.77 107.33 94.97 105.73 101.03Z" /><path class="shp5" d="M142.28 125.45C140.68 131.51 134.47 135.12 128.39 133.52C122.3 131.92 118.67 125.72 120.26 119.66C121.86 113.59 128.07 109.99 134.15 111.59C140.24 113.19 143.87 119.38 142.28 125.45Z" /></g></g></svg>