<?xml version="1.0" encoding="utf-8"?>
<!-- Generator: Adobe Illustrator 23.0.2, SVG Export Plug-In . SVG Version: 6.00 Build 0)  -->
<svg version="1.1" xmlns="http://www.w3.org/2000/svg" xmlns:xlink="http://www.w3.org/1999/xlink" x="0px" y="0px"
	 viewBox="0 0 275.74 352.34" style="enable-background:new 0 0 275.74 352.34;" xml:space="preserve">
<style type="text/css">
	.st0{display:none;}
	.st1{display:inline;}
	.st2{fill:#FFFFFF;}
	.st3{fill:none;stroke:#1D1D1B;stroke-width:0.25;stroke-miterlimit:10;}
	.st4{fill:#CABA9F;stroke:#1D1D1B;stroke-width:0.25;stroke-miterlimit:10;}
	.st5{fill:#1D1D1B;stroke:#1D1D1B;stroke-width:0.25;stroke-miterlimit:10;}
	.st6{fill:#E20613;stroke:#1D1D1B;stroke-width:0.25;stroke-miterlimit:10;}
	.st7{fill:#35A8E0;stroke:#1D1D1B;stroke-width:0.25;stroke-miterlimit:10;}
	.st8{fill:#C6C6C5;stroke:#1D1D1B;stroke-width:0.25;stroke-miterlimit:10;}
	.st9{fill:#1D1D1B;}
	.st10{fill:#E5007E;}
	.st11{fill:#E84E1B;}
	.st12{display:inline;opacity:0.77;fill:#E1BF80;}
	.st13{display:inline;opacity:0.81;fill:#BBD5DE;}
	.st14{display:inline;opacity:0.85;fill:#E3F3C1;}
	.st15{display:inline;opacity:0.83;fill:#DDBDEE;}
	.st16{display:inline;opacity:0.73;fill:#A2CAA3;}
	.st17{display:inline;opacity:0.44;fill:#39B54A;stroke:#39B54A;stroke-width:8;stroke-miterlimit:10;}
	.st18{display:inline;fill:none;stroke:#0000FF;stroke-width:3;stroke-miterlimit:10;}
	.st19{display:inline;fill:none;}
	.st20{display:inline;fill:#CCCCCC;stroke:#CCCCCC;stroke-width:3;stroke-miterlimit:10;}
	.st21{display:inline;opacity:0.94;fill:#FFFF00;}
	.st22{display:inline;fill:#8CC63F;}
	.st23{fill:#63D0F7;}
	.st24{fill:#D9E021;}
	.st25{fill:#39B54A;}
	.st26{fill:#FFFF00;}
	.st27{fill:#8CC63F;}
	.st28{fill:#F4BE78;}
	.st29{display:inline;opacity:0.53;fill:#8CC63F;}
	.st30{display:inline;fill:#16905C;stroke:#009245;stroke-miterlimit:10;}
	.st31{display:inline;fill:#009245;stroke:#009245;stroke-miterlimit:10;}
	.st32{display:inline;fill:#168F54;stroke:#009245;stroke-miterlimit:10;}
	.st33{display:inline;opacity:0.99;fill:#FFFF00;}
	.st34{display:inline;fill:#A67C52;stroke:#A67C52;stroke-miterlimit:10;}
	.st35{fill:#A67C52;stroke:#A67C52;stroke-miterlimit:10;}
	.st36{fill:none;stroke:#FFFFFF;stroke-miterlimit:10;}
	.st37{fill:none;stroke:#FFFFFF;stroke-width:0.5;stroke-miterlimit:10;}
	.st38{fill:#80AD28;}
	.st39{fill:#67A32E;}
	.st40{display:inline;opacity:0.65;fill:#8CC63F;stroke:#8CC63F;stroke-miterlimit:10;}
	.st41{display:inline;opacity:0.69;}
	.st42{fill:#6FA62D;}
	.st43{fill:none;stroke:#DBDBDB;stroke-width:7;stroke-miterlimit:10;}
	.st44{display:inline;fill:none;stroke:#999999;stroke-width:7;stroke-miterlimit:10;}
	.st45{display:inline;fill:#F2F20A;stroke:#999999;stroke-width:7;stroke-miterlimit:10;}
	.st46{fill:none;stroke:#999999;stroke-width:7;stroke-miterlimit:10;}
	.st47{fill:none;stroke:#1A1A1A;stroke-width:7;stroke-miterlimit:10;}
	.st48{fill:none;stroke:#000000;stroke-width:7;stroke-miterlimit:10;}
	.st49{display:inline;fill:none;stroke:#FBB03B;stroke-width:3;stroke-miterlimit:10;}
	.st50{fill:none;stroke:#0000FF;stroke-width:7;stroke-miterlimit:10;}
	.st51{fill:#603813;}
	.st52{display:inline;fill:none;stroke:#0000FF;stroke-width:5;stroke-miterlimit:10;}
	.st53{fill:none;stroke:#0000FF;stroke-width:5;stroke-miterlimit:10;}
	.st54{display:inline;opacity:0.94;fill:#603813;}
	.st55{display:inline;fill:none;stroke:#F15A24;stroke-width:3;stroke-miterlimit:10;}
	.st56{fill:none;stroke:#FBB03B;stroke-width:3;stroke-miterlimit:10;}
	.st57{display:inline;fill:none;stroke:#D85C4C;stroke-width:6;stroke-miterlimit:10;}
	.st58{display:inline;fill:none;stroke:#40CCC8;stroke-width:6;stroke-miterlimit:10;}
	.st59{display:inline;fill:none;stroke:#1FC11F;stroke-width:6;stroke-miterlimit:10;}
	.st60{display:inline;fill:none;stroke:#1FC11F;stroke-width:4;stroke-miterlimit:10;}
	.st61{display:inline;fill:none;stroke:#9B5F10;stroke-width:6;stroke-miterlimit:10;}
	.st62{display:inline;opacity:0.47;}
	.st63{display:inline;opacity:0.45;}
	.st64{fill:#20FFFF;}
	.st65{fill:#52BE61;}
	.st66{fill:#5A3D2A;}
	.st67{fill:#928772;}
	.st68{fill:#C79924;}
	.st69{display:inline;fill:none;stroke:#000000;stroke-miterlimit:10;}
	.st70{display:inline;opacity:0.45;fill:none;stroke:#67200A;stroke-width:3;stroke-miterlimit:10;}
	.st71{display:inline;opacity:0.64;fill:none;stroke:#67200A;stroke-width:4;stroke-miterlimit:10;}
	.st72{display:inline;opacity:0.64;fill:none;stroke:#67200A;stroke-width:7;stroke-miterlimit:10;}
	.st73{display:inline;opacity:0.64;fill:none;stroke:#67200A;stroke-width:2;stroke-miterlimit:10;}
	.st74{display:inline;opacity:0.4;fill:#F2F2F2;}
	.st75{display:inline;opacity:0.39;fill:#F2F2F2;}
	.st76{display:inline;opacity:0.45;fill:#F2F2F2;stroke:#FFFFFF;stroke-width:3;stroke-miterlimit:10;}
	.st77{display:inline;opacity:0.45;fill:#F2F2F2;}
	.st78{display:inline;opacity:0.31;fill:#F2F2F2;}
	.st79{display:inline;opacity:0.48;fill:#F2F2F2;}
	.st80{display:inline;opacity:0.43;}
	.st81{fill:#F2F2F2;}
	.st82{fill:#217D47;}
	.st83{fill:#20A05D;}
	.st84{fill:#79CFD6;}
	.st85{fill:#C94248;}
	.st86{fill:#F8A13B;}
	.st87{display:inline;fill:none;stroke:#FFFF00;stroke-width:2;stroke-miterlimit:10;}
	.st88{display:inline;fill:none;stroke:#009245;stroke-width:3;stroke-miterlimit:10;}
	.st89{display:inline;fill:none;stroke:#000000;stroke-width:2;stroke-miterlimit:10;}
	.st90{display:inline;fill:none;stroke:#F4E12F;stroke-width:5;stroke-miterlimit:10;}
	.st91{fill:#F4E12F;stroke:#000000;stroke-width:2;stroke-miterlimit:10;}
	.st92{fill:#F4E12F;stroke:#000000;stroke-miterlimit:10;}
	.st93{display:inline;fill:none;stroke:#736357;stroke-width:0.75;stroke-miterlimit:10;}
	.st94{display:inline;fill:none;stroke:#736357;stroke-width:0.5;stroke-miterlimit:10;}
	.st95{fill:none;stroke:#F94B4B;stroke-width:9;stroke-miterlimit:10;}
	.st96{fill:none;stroke:#F94B4B;stroke-width:9;stroke-miterlimit:10;stroke-dasharray:1.017,1.017,1.017,1.017;}
	.st97{fill:none;stroke:#F94B4B;stroke-width:9;stroke-miterlimit:10;stroke-dasharray:5.0679,5.0679,5.0679,5.0679;}
	.st98{fill:none;stroke:#F94B4B;stroke-width:9;stroke-miterlimit:10;stroke-dasharray:5.0679,5.0679,5.0679,5.0679,5.0679,5.0679;}
	.st99{display:inline;fill:none;stroke:#FF0000;stroke-width:6;stroke-miterlimit:10;stroke-dasharray:5,5,5,5,5,5;}
	.st100{display:inline;fill:none;stroke:#F94B4B;stroke-width:9;stroke-miterlimit:10;stroke-dasharray:5,5,5,5,5,5;}
	.st101{display:inline;fill:none;stroke:#0000FF;stroke-miterlimit:10;}
	.st102{fill:#0000FF;}
	.st103{fill:#2121C1;}
	.st104{display:inline;fill:none;stroke:#0000FF;stroke-width:2;stroke-miterlimit:10;}
	.st105{display:inline;opacity:0.54;}
	.st106{display:inline;fill:none;stroke:#000000;stroke-width:0.25;stroke-miterlimit:10;}
	.st107{display:inline;fill:#EDB03B;stroke:#FBB03B;stroke-width:0.25;stroke-miterlimit:10;}
	.st108{display:inline;fill:#F0B03B;stroke:#FBB03B;stroke-width:0.25;stroke-miterlimit:10;}
	.st109{display:inline;fill:#EEB03B;stroke:#FBB03B;stroke-width:0.25;stroke-miterlimit:10;}
	.st110{display:inline;fill:#E8B03B;stroke:#FBB03B;stroke-width:0.25;stroke-miterlimit:10;}
	.st111{display:inline;fill:#E9B03B;stroke:#FBB03B;stroke-width:0.25;stroke-miterlimit:10;}
	.st112{display:inline;fill:#FBB03B;stroke:#FBB03B;stroke-width:0.25;stroke-miterlimit:10;}
	.st113{display:inline;fill:#EBB03B;stroke:#FBB03B;stroke-width:0.25;stroke-miterlimit:10;}
	.st114{display:inline;fill:#EAB03B;stroke:#FBB03B;stroke-width:0.25;stroke-miterlimit:10;}
	.st115{display:inline;fill:#F6B03B;stroke:#FBB03B;stroke-width:0.25;stroke-miterlimit:10;}
	.st116{display:inline;fill:#F2B03B;stroke:#FBB03B;stroke-width:0.25;stroke-miterlimit:10;}
	.st117{display:inline;fill:#F4B03B;stroke:#FBB03B;stroke-width:0.25;stroke-miterlimit:10;}
	.st118{display:inline;fill:none;stroke:#FCEE21;stroke-width:10;stroke-miterlimit:10;}
	.st119{display:inline;fill:none;stroke:#000000;stroke-width:8;stroke-miterlimit:10;}
	.st120{display:inline;fill:none;stroke:#736357;stroke-width:4;stroke-miterlimit:10;}
	.st121{display:inline;fill:none;stroke:#0000FF;stroke-width:8;stroke-miterlimit:10;}
	.st122{display:inline;fill:none;stroke:#0071BC;stroke-width:5;stroke-miterlimit:10;}
	.st123{display:inline;fill:none;stroke:#0071BC;stroke-width:5;stroke-miterlimit:10;stroke-dasharray:8,8;}
	.st124{display:inline;fill:none;stroke:#C1272D;stroke-width:2;stroke-miterlimit:10;}
	.st125{display:inline;fill:none;stroke:#FF0000;stroke-width:3;stroke-miterlimit:10;}
	.st126{display:inline;fill:none;stroke:#F92010;stroke-width:2;stroke-miterlimit:10;}
	.st127{display:inline;fill:none;stroke:#ED2207;stroke-width:5;stroke-miterlimit:10;}
	.st128{display:inline;fill:#EF220C;}
	.st129{fill:#26120B;}
	.st130{fill:#12491D;}
	.st131{fill:none;stroke:#FFFFFF;stroke-width:0.5;stroke-linecap:round;stroke-linejoin:round;stroke-miterlimit:10;}
	.st132{fill:#2E3192;}
	.st133{fill:url(#XMLID_2396_);}
	.st134{opacity:0.26;}
	.st135{fill:none;stroke:#FFFFFF;stroke-width:9;stroke-miterlimit:10;}
	.st136{fill:#FFFFFF;stroke:#FFFFFF;stroke-width:9;stroke-miterlimit:10;}
	.st137{fill:none;stroke:#000000;stroke-width:0.25;stroke-miterlimit:10;}
	.st138{fill:#FF8000;}
	.st139{fill:#80C41C;stroke:#000000;stroke-width:0.1;stroke-miterlimit:10;}
	.st140{fill:none;stroke:#FF8000;stroke-miterlimit:10;}
	.st141{fill:#8C6239;stroke:#42210B;stroke-width:0.25;stroke-miterlimit:10;}
	.st142{fill:#603813;stroke:#42210B;stroke-width:0.25;stroke-miterlimit:10;}
	.st143{fill:#C69C6D;}
	.st144{fill:#42210B;stroke:#42210B;stroke-width:0.25;stroke-miterlimit:10;}
	.st145{fill:#F7931E;}
	.st146{fill:#F15A24;}
	.st147{fill:#D4145A;}
	.st148{fill:#006837;}
	.st149{fill:#662D91;}
	.st150{fill:#ED1C24;}
	.st151{fill:#C1272D;}
	.st152{fill:#1B1464;}
	.st153{fill:#BEAC83;}
	.st154{fill:#C2000B;}
	.st155{fill:#C7B299;}
	.st156{opacity:0.32;}
	.st157{fill:#F5F5F5;}
	.st158{fill:#006837;stroke:#FFFFFF;stroke-width:0.5;stroke-miterlimit:10;}
	.st159{fill:none;stroke:#000000;stroke-width:6;stroke-miterlimit:10;}
	.st160{fill:none;stroke:#FFFFFF;stroke-width:8;stroke-linecap:round;stroke-linejoin:round;stroke-miterlimit:10;}
	.st161{opacity:0.72;}
	.st162{fill:#FFFF00;stroke:#000000;stroke-miterlimit:10;}
	.st163{fill:none;stroke:#4D4D4D;stroke-width:4;stroke-miterlimit:10;}
	.st164{fill:none;stroke:#110B79;stroke-width:5;stroke-miterlimit:10;}
	.st165{fill:none;stroke:#110B79;stroke-width:3;stroke-miterlimit:10;}
	.st166{fill:none;stroke:#2E58A6;stroke-width:2;stroke-miterlimit:10;}
	.st167{fill:#FEA812;stroke:#63300F;stroke-width:0.7087;stroke-linecap:round;stroke-linejoin:round;stroke-miterlimit:10;}
	.st168{fill:#FCEE21;}
	.st169{fill:none;stroke:#000000;stroke-width:0.05;stroke-miterlimit:10;}
	.st170{fill:#F62700;}
	.st171{fill:none;stroke:#000000;stroke-width:0.5;stroke-miterlimit:10;}
	.st172{fill:#4D1F03;stroke:#000000;stroke-width:0.5;stroke-miterlimit:10;}
	.st173{fill:none;stroke:#FFFFFF;stroke-width:0.25;stroke-miterlimit:10;}
	.st174{fill:url(#XMLID_2397_);stroke:#000000;stroke-width:0.5;stroke-miterlimit:10;}
	.st175{fill:#8E2E0B;}
	.st176{fill:#2E58A6;}
	.st177{fill:#93583A;}
	.st178{fill:#C6B491;}
	.st179{fill:#534741;}
	.st180{fill:#FD1A16;}
	.st181{fill:#F2F91C;}
	.st182{fill:#6B1687;}
	.st183{fill:none;stroke:#000000;stroke-width:0.1;stroke-linecap:round;stroke-linejoin:round;}
	.st184{fill:#42210B;}
	.st185{fill:#237D26;}
	.st186{fill:#80C41C;}
	.st187{fill:#40A629;}
	.st188{fill:#009245;}
	.st189{fill:#BE894A;}
	.st190{fill:#4FA0CA;}
	.st191{fill:#F0047F;}
	.st192{fill:#F487BC;}
	.st193{fill:#FEA621;}
	.st194{fill:#63300F;}
	.st195{fill:#0B0146;}
	.st196{fill:none;stroke:#000000;stroke-width:0.25;stroke-linecap:round;stroke-linejoin:round;}
	.st197{fill:#4D1F03;stroke:#000000;stroke-width:0.25;stroke-linecap:round;stroke-linejoin:round;}
	.st198{fill:#333333;}
	.st199{fill:#1A1A1A;stroke:#000000;stroke-width:0.25;stroke-linecap:round;stroke-linejoin:round;}
	.st200{fill:#333333;stroke:#000000;stroke-width:0.25;stroke-linecap:round;stroke-linejoin:round;}
	.st201{fill:#C1272D;stroke:#000000;stroke-width:0.1;stroke-linecap:round;stroke-linejoin:round;}
	.st202{fill:#DD7808;}
	.st203{fill:none;stroke:#63300F;stroke-width:0.25;stroke-miterlimit:10;}
	.st204{fill:#40A629;stroke:#12491D;stroke-width:0.25;stroke-miterlimit:10;}
	.st205{fill:#12491D;stroke:#000000;stroke-width:0.25;stroke-miterlimit:10;}
	.st206{fill:#237D26;stroke:#000000;stroke-width:0.25;stroke-miterlimit:10;}
	.st207{fill:#40A629;stroke:#000000;stroke-width:0.25;stroke-miterlimit:10;}
	.st208{fill:#CCE70B;stroke:#000000;stroke-width:0.25;stroke-miterlimit:10;}
	.st209{fill-rule:evenodd;clip-rule:evenodd;fill:none;stroke:#FFFFFF;stroke-miterlimit:2.4142;}
	
		.st210{fill-rule:evenodd;clip-rule:evenodd;fill:#111183;stroke:#FFFFFF;stroke-width:0.6;stroke-linecap:round;stroke-linejoin:round;stroke-miterlimit:10;}
	.st211{fill:#111183;}
	.st212{fill:#FFFFFF;stroke:#FFFFFF;stroke-miterlimit:10;}
	.st213{fill:#452F27;}
	.st214{fill:#F36F40;}
	.st215{fill:#207B50;}
	.st216{fill:#FFFFFF;stroke:#000000;stroke-width:2;stroke-miterlimit:10;}
	.st217{fill:none;}
	.st218{clip-path:url(#SVGID_10_);fill:#2E3192;}
	.st219{clip-path:url(#SVGID_10_);fill:#39B54A;}
	.st220{fill:none;stroke:#C1272D;stroke-width:3;stroke-miterlimit:10;}
	.st221{fill:url(#SVGID_11_);}
	.st222{clip-path:url(#SVGID_13_);}
	.st223{fill:none;stroke:#FFFF00;stroke-miterlimit:10;}
	.st224{fill:#FFFFFF;stroke:#FFFFFF;stroke-width:0.75;stroke-miterlimit:10;}
	.st225{fill:none;stroke:#FFFFFF;stroke-width:0.75;stroke-miterlimit:10;}
	.st226{fill:#4D1F03;}
	.st227{fill:url(#SVGID_20_);}
	.st228{fill:#D1D117;}
	.st229{fill:#7E4E24;stroke:#1D1D1B;stroke-width:0.25;stroke-miterlimit:10;}
	.st230{fill:#FFEC00;}
	.st231{fill:#7C411E;}
	.st232{fill:none;stroke:#000000;stroke-miterlimit:10;}
	.st233{fill:#2C5B20;}
	.st234{fill:none;stroke:#A0642F;stroke-width:0.25;stroke-miterlimit:10;}
	.st235{fill:#999999;}
	.st236{fill:#008D36;}
	.st237{fill:#93C01F;}
	.st238{fill:#683B11;}
	.st239{fill:#FCEA0D;}
	.st240{fill:#ECECEC;}
	.st241{fill:#F29100;}
	.st242{fill:#81358A;}
	.st243{fill:#BD1622;}
	.st244{fill:#006633;}
	.st245{fill:#925F36;}
	.st246{fill:#422918;}
	.st247{fill:#FE330A;}
	.st248{stroke:#000000;stroke-width:0.25;stroke-linecap:round;stroke-linejoin:round;}
	.st249{fill:none;stroke:#000000;stroke-width:0.27;stroke-linecap:round;stroke-linejoin:round;}
	.st250{fill:#63300F;stroke:#000000;stroke-width:0.25;stroke-linecap:round;stroke-linejoin:round;}
	.st251{fill:#4A007D;}
	.st252{stroke:#000000;stroke-width:0.25;stroke-miterlimit:10;}
	.st253{fill:#63300F;stroke:#000000;stroke-width:0.25;stroke-miterlimit:10;}
	.st254{fill:#BE894A;stroke:#000000;stroke-width:0.25;stroke-miterlimit:10;}
	.st255{fill:#FFFF00;stroke:#000000;stroke-width:0.25;stroke-miterlimit:10;}
	.st256{fill:#26120B;stroke:#000000;stroke-width:0.25;stroke-miterlimit:10;}
	.st257{fill:#F0047F;stroke:#000000;stroke-width:0.25;stroke-miterlimit:10;}
	.st258{fill:#A0642F;stroke:#000000;stroke-width:0.1;stroke-miterlimit:10;}
	.st259{stroke:#000000;stroke-width:0.1;stroke-miterlimit:10;}
	.st260{fill:#BEAC83;stroke:#000000;stroke-width:0.1;stroke-miterlimit:10;}
	.st261{fill:#63300F;stroke:#000000;stroke-width:0.1;stroke-miterlimit:10;}
	.st262{fill:none;stroke:#000000;stroke-width:0.1;stroke-miterlimit:10;}
	.st263{fill:#237D26;stroke:#000000;stroke-width:0.1;stroke-miterlimit:10;}
	.st264{fill:#F8B133;}
	.st265{fill:#CABA9F;}
	.st266{fill:#E20613;}
	.st267{fill:none;stroke:#1D1D1B;stroke-width:0.5;stroke-miterlimit:10;}
	.st268{fill:#BEAC83;stroke:#000000;stroke-width:0.25;stroke-miterlimit:10;}
	.st269{fill:#808080;}
	.st270{fill:#7C411E;stroke:#000000;stroke-width:0.25;stroke-miterlimit:10;}
	.st271{fill:#FF8000;stroke:#000000;stroke-width:0.25;stroke-miterlimit:10;}
	.st272{fill:none;stroke:#237D26;stroke-width:0.25;stroke-miterlimit:10;}
	.st273{fill:#00FFFF;}
	.st274{fill:#F0047F;stroke:#FFFFFF;stroke-width:0.25;stroke-miterlimit:10;}
	.st275{fill:#82027E;stroke:#FFFFFF;stroke-width:0.25;stroke-miterlimit:10;}
	.st276{fill:#808080;stroke:#000000;stroke-width:0.25;stroke-miterlimit:10;}
	.st277{fill:#ED1E79;}
	.st278{fill:#93278F;}
	.st279{fill:#42210B;stroke:#000000;stroke-width:0.25;stroke-miterlimit:10;}
	.st280{fill:#603813;stroke:#42210B;stroke-miterlimit:10;}
	.st281{opacity:0.48;fill:#F2F2F2;}
	.st282{fill:#FBB03B;}
	.st283{fill:#F4136B;}
	.st284{fill:#80C41C;stroke:#000000;stroke-width:0.5;stroke-miterlimit:10;}
	.st285{fill:#4D1F03;stroke:#000000;stroke-miterlimit:10;}
	.st286{fill:url(#XMLID_2453_);stroke:#000000;stroke-width:0.5;stroke-miterlimit:10;}
	.st287{fill:none;stroke:#A0642F;stroke-miterlimit:10;}
	.st288{fill:none;stroke:#FFFFFF;stroke-width:2;stroke-miterlimit:10;}
	.st289{fill:#BE894A;stroke:#26120B;stroke-width:0.25;stroke-miterlimit:10;}
	.st290{fill:none;stroke:#26120B;stroke-width:0.5;stroke-miterlimit:10;}
	.st291{fill:#4D1F03;stroke:#000000;stroke-width:0.5;stroke-linecap:round;stroke-linejoin:round;}
	.st292{fill:none;stroke:#000000;stroke-width:0.5;stroke-linecap:round;stroke-linejoin:round;}
	.st293{stroke:#000000;stroke-width:0.5;stroke-linecap:round;stroke-linejoin:round;}
	.st294{fill:#63300F;stroke:#000000;stroke-width:0.5;stroke-linecap:round;stroke-linejoin:round;}
	.st295{stroke:#000000;stroke-width:0.75;stroke-miterlimit:10;}
	.st296{fill:#63300F;stroke:#000000;stroke-width:0.75;stroke-miterlimit:10;}
	.st297{fill:#BE894A;stroke:#000000;stroke-width:0.75;stroke-miterlimit:10;}
	.st298{fill:#FFFF00;stroke:#000000;stroke-width:0.75;stroke-miterlimit:10;}
	.st299{fill:#26120B;stroke:#000000;stroke-width:0.75;stroke-miterlimit:10;}
	.st300{fill:none;stroke:#000000;stroke-width:0.75;stroke-miterlimit:10;}
	.st301{fill:#F0047F;stroke:#000000;stroke-width:0.75;stroke-miterlimit:10;}
	.st302{fill:#A0642F;stroke:#000000;stroke-width:0.75;stroke-miterlimit:10;}
	.st303{fill:#BEAC83;stroke:#000000;stroke-width:0.75;stroke-miterlimit:10;}
	.st304{fill:#237D26;stroke:#000000;stroke-width:0.75;stroke-miterlimit:10;}
	.st305{fill:none;stroke:#000000;stroke-linecap:round;stroke-linejoin:round;}
	.st306{fill:#4D1F03;stroke:#000000;stroke-linecap:round;stroke-linejoin:round;}
	.st307{fill:#1A1A1A;stroke:#000000;stroke-linecap:round;stroke-linejoin:round;}
	.st308{fill:#333333;stroke:#000000;stroke-linecap:round;stroke-linejoin:round;}
	.st309{fill:#C1272D;stroke:#000000;stroke-linecap:round;stroke-linejoin:round;}
	.st310{fill:#7E4E24;stroke:#1D1D1B;stroke-width:0.75;stroke-miterlimit:10;}
	.st311{fill:none;stroke:#1D1D1B;stroke-width:0.75;stroke-miterlimit:10;}
	.st312{fill:none;stroke:#1D1D1B;stroke-width:4;stroke-miterlimit:10;}
	.st313{fill:#CABA9F;stroke:#1D1D1B;stroke-miterlimit:10;}
	.st314{fill:#1D1D1B;stroke:#1D1D1B;stroke-miterlimit:10;}
	.st315{fill:#E20613;stroke:#1D1D1B;stroke-miterlimit:10;}
	.st316{fill:#35A8E0;stroke:#1D1D1B;stroke-miterlimit:10;}
	.st317{fill:#C6C6C5;stroke:#1D1D1B;stroke-miterlimit:10;}
	.st318{fill:none;stroke:#1D1D1B;stroke-miterlimit:10;}
	.st319{fill:none;stroke:#000000;stroke-width:2;stroke-miterlimit:10;}
	.st320{fill:#808080;stroke:#000000;stroke-width:2;stroke-miterlimit:10;}
	.st321{fill:#42210B;stroke:#000000;stroke-miterlimit:10;}
	.st322{fill:#BE894A;stroke:#26120B;stroke-miterlimit:10;}
	.st323{fill:none;stroke:#26120B;stroke-width:3;stroke-miterlimit:10;}
	.st324{fill:url(#SVGID_23_);}
	.st325{filter:url(#Adobe_OpacityMaskFilter);}
	.st326{mask:url(#SVGID_24_);}
	.st327{fill:#390D81;}
	.st328{fill:#1D0134;}
	.st329{fill:#006837;stroke:#000000;stroke-width:0.25;stroke-miterlimit:10;}
	.st330{fill:#754C24;}
	.st331{fill:none;stroke:#000000;stroke-width:0.08;stroke-miterlimit:10;}
	.st332{fill:#80C41C;stroke:#000000;stroke-width:0.05;stroke-miterlimit:10;}
	.st333{fill:#916F5D;}
	.st334{fill:#40A629;stroke:#000000;stroke-width:0.05;stroke-miterlimit:10;}
	.st335{fill:#E0013F;stroke:#000000;stroke-width:0.05;stroke-miterlimit:10;}
	.st336{fill:#93014A;stroke:#000000;stroke-width:0.05;stroke-miterlimit:10;}
	.st337{fill:#237D26;stroke:#000000;stroke-width:0.05;stroke-miterlimit:10;}
	.st338{fill:#298333;}
	.st339{fill:#154D22;}
	.st340{fill:#250F09;}
	.st341{fill:#615153;}
	.st342{fill:url(#SVGID_25_);}
	.st343{fill:url(#XMLID_2458_);stroke:#000000;stroke-width:0.25;stroke-miterlimit:10;}
	.st344{fill:none;stroke:#26120B;stroke-width:0.25;stroke-miterlimit:10;}
	.st345{fill:url(#SVGID_26_);}
	.st346{fill:url(#XMLID_2463_);stroke:#000000;stroke-width:0.25;stroke-miterlimit:10;}
	.st347{fill:url(#SVGID_27_);}
	.st348{fill:url(#XMLID_2519_);stroke:#000000;stroke-width:0.25;stroke-miterlimit:10;}
	.st349{fill:url(#SVGID_28_);}
	.st350{fill:url(#XMLID_21018_);stroke:#000000;stroke-width:0.25;stroke-miterlimit:10;}
	.st351{fill:url(#SVGID_29_);}
	.st352{fill:url(#XMLID_21019_);stroke:#000000;stroke-width:0.25;stroke-miterlimit:10;}
	.st353{fill:url(#SVGID_30_);}
	.st354{fill:url(#XMLID_21020_);stroke:#000000;stroke-width:0.25;stroke-miterlimit:10;}
	.st355{fill:url(#SVGID_31_);}
	.st356{fill:url(#XMLID_21021_);stroke:#000000;stroke-width:0.25;stroke-miterlimit:10;}
	.st357{fill:#5F9931;}
	.st358{fill:#13007C;}
	.st359{fill:url(#SVGID_32_);}
	.st360{fill:url(#SVGID_33_);}
	.st361{fill:#1A1A1A;}
	.st362{fill:url(#SVGID_34_);}
	.st363{fill:#C4C4C4;}
	.st364{fill:#BE894A;stroke:#C4C4C4;stroke-width:0.1;stroke-miterlimit:10;}
	.st365{fill:none;stroke:#C4C4C4;stroke-width:0.1;stroke-miterlimit:10;}
	.st366{fill:#A0642F;}
	.st367{fill:#40A629;stroke:#000000;stroke-width:0.1;stroke-miterlimit:10;}
	.st368{fill:#604B3B;}
	.st369{fill:#FFFFFF;stroke:#000000;stroke-width:0.25;stroke-miterlimit:10;}
	.st370{fill:#BEAC83;stroke:#000000;stroke-width:0.01;stroke-miterlimit:10;}
	.st371{fill:#1B3F26;}
	.st372{fill:#12491D;stroke:#000000;stroke-width:0.1;stroke-miterlimit:10;}
	.st373{fill:#008837;stroke:#000000;stroke-width:0.1;stroke-miterlimit:10;}
	.st374{fill:#41AA54;}
	.st375{fill:#F2F91C;stroke:#000000;stroke-width:0.1;stroke-miterlimit:10;}
	.st376{fill:#BEAC83;stroke:#000000;stroke-width:0.09;stroke-miterlimit:10;}
	.st377{fill:#CCE70B;}
	.st378{fill:none;stroke:#000000;stroke-width:0.09;stroke-miterlimit:10;}
	.st379{fill:url(#SVGID_35_);}
	.st380{fill:#110B79;}
	.st381{fill:url(#SVGID_36_);}
	.st382{fill:url(#SVGID_37_);}
	.st383{fill:#110B79;stroke:#000000;stroke-width:0.25;stroke-miterlimit:10;}
	.st384{fill:#ED1C24;stroke:#000000;stroke-width:0.25;stroke-miterlimit:10;}
	.st385{fill:url(#XMLID_21022_);stroke:#000000;stroke-width:0.25;stroke-linecap:round;stroke-linejoin:round;}
	.st386{opacity:0.59;}
	.st387{fill:#4D4D4D;stroke:#26120B;stroke-width:0.25;stroke-linecap:round;stroke-linejoin:round;}
	.st388{fill:#F34C31;}
	.st389{fill:none;stroke:#26120B;stroke-width:0.25;stroke-linecap:round;stroke-linejoin:round;}
	.st390{fill:#BE894A;stroke:#000000;stroke-width:0.1;stroke-miterlimit:10;}
	.st391{fill:#FEA621;stroke:#000000;stroke-width:0.1;stroke-miterlimit:10;}
	.st392{fill:#FF8000;stroke:#000000;stroke-width:0.1;stroke-miterlimit:10;}
	.st393{fill:url(#XMLID_21023_);stroke:#000000;stroke-width:0.1;stroke-miterlimit:10;}
	.st394{fill:url(#XMLID_21024_);stroke:#000000;stroke-width:0.1;stroke-miterlimit:10;}
	.st395{fill:url(#XMLID_21025_);stroke:#000000;stroke-width:0.1;stroke-miterlimit:10;}
	.st396{fill:url(#XMLID_21026_);stroke:#000000;stroke-width:0.1;stroke-miterlimit:10;}
	.st397{fill:url(#XMLID_21027_);stroke:#000000;stroke-width:0.1;stroke-miterlimit:10;}
	.st398{fill:url(#XMLID_21028_);stroke:#000000;stroke-width:0.1;stroke-miterlimit:10;}
	.st399{fill:#12491D;stroke:#000000;stroke-width:0.15;stroke-miterlimit:10;}
	.st400{fill:#E9E923;stroke:#000000;stroke-width:0.15;stroke-miterlimit:10;}
	.st401{fill:#F2F91C;stroke:#000000;stroke-width:0.15;stroke-miterlimit:10;}
	.st402{fill:#FFFF00;stroke:#000000;stroke-width:0.15;stroke-miterlimit:10;}
	.st403{fill:#26120B;stroke:#000000;stroke-width:0.15;stroke-miterlimit:10;}
	.st404{fill:#40A629;stroke:#000000;stroke-width:0.15;stroke-miterlimit:10;}
	.st405{fill:#237D26;stroke:#000000;stroke-width:0.15;stroke-miterlimit:10;}
	.st406{fill:#E0013F;stroke:#000000;stroke-width:0.1;stroke-miterlimit:10;}
	.st407{fill:#93014A;}
	.st408{fill:none;stroke:#FFFFFF;stroke-width:0.1;stroke-miterlimit:10;}
	.st409{fill:#603813;stroke:#000000;stroke-width:0.1;stroke-miterlimit:10;}
	.st410{fill:#63300F;stroke:#26120B;stroke-width:0.25;stroke-miterlimit:10;}
	.st411{fill:#4D4D4D;stroke:#4D4D4D;stroke-width:0.25;stroke-miterlimit:10;}
	.st412{fill:#010102;}
	.st413{fill:#734421;}
	.st414{fill:#431D08;}
	.st415{fill:#926036;}
	.st416{fill:#7C411E;stroke:#000000;stroke-width:0.1;stroke-miterlimit:10;}
	.st417{fill:#531B1E;}
	.st418{fill:#916F5D;stroke:#000000;stroke-width:0.1;stroke-miterlimit:10;}
	.st419{fill:#4D4D4D;stroke:#000000;stroke-width:0.1;stroke-miterlimit:10;}
	.st420{fill:#0F3212;}
	.st421{fill:#597816;}
	.st422{fill:none;stroke:#364B11;stroke-width:0.25;stroke-miterlimit:10;}
	.st423{fill:#4E6C16;}
	.st424{fill:#45731A;}
	.st425{fill:#547417;}
	.st426{fill:#486B17;}
	.st427{fill:#30651B;}
	.st428{fill:#3C5814;}
	.st429{fill:#26360D;}
	.st430{fill:#486B17;stroke:#80C41C;stroke-miterlimit:10;}
	.st431{fill:url(#XMLID_21029_);stroke:#000000;stroke-width:0.2;stroke-miterlimit:10;}
	.st432{fill:#808080;stroke:#000000;stroke-width:0.2;stroke-miterlimit:10;}
	.st433{fill:#666666;stroke:#000000;stroke-width:0.2;stroke-miterlimit:10;}
	.st434{fill:#4D4D4D;stroke:#000000;stroke-width:0.2;stroke-miterlimit:10;}
	.st435{fill:#999999;stroke:#000000;stroke-width:0.2;stroke-miterlimit:10;}
	.st436{opacity:0.48;}
	.st437{fill:#17208B;}
	.st438{fill:#333333;stroke:#000000;stroke-width:0.1;stroke-miterlimit:10;}
	.st439{fill:#6B1687;stroke:#000000;stroke-width:0.1;stroke-miterlimit:10;}
	.st440{fill:url(#XMLID_21030_);stroke:#000000;stroke-width:0.25;stroke-miterlimit:10;}
	.st441{fill:#452F27;stroke:#000000;stroke-width:0.25;stroke-miterlimit:10;}
	.st442{opacity:0.42;}
	.st443{opacity:0.42;fill:none;stroke:#FFFFFF;stroke-width:0.25;stroke-miterlimit:10;}
	.st444{fill:#1A5A1E;}
	.st445{fill:url(#SVGID_38_);}
	.st446{fill:#B9854F;}
	.st447{fill:url(#SVGID_39_);}
	.st448{fill:url(#SVGID_40_);}
	.st449{fill:#FEA621;stroke:#000000;stroke-width:0.25;stroke-miterlimit:10;}
	.st450{fill:#666666;stroke:#000000;stroke-width:0.25;stroke-miterlimit:10;}
	.st451{opacity:0.8;fill:#4FA0CA;stroke:#000000;stroke-width:0.25;stroke-miterlimit:10;}
	.st452{fill:#4D1F03;stroke:#4D1F03;stroke-width:0.1;stroke-miterlimit:10;}
	.st453{fill:#666666;}
	.st454{opacity:0.5;fill:#4FA0CA;stroke:#000000;stroke-width:0.25;stroke-miterlimit:10;}
	.st455{opacity:0.39;fill:#4FA0CA;stroke:#000000;stroke-width:0.25;stroke-miterlimit:10;}
	.st456{opacity:0.5;fill:none;stroke:#000000;stroke-width:0.25;stroke-miterlimit:10;}
	.st457{fill:#FFFFFF;stroke:#000000;stroke-width:0.1;stroke-miterlimit:10;}
	.st458{fill:#666666;stroke:#000000;stroke-width:0.1;stroke-miterlimit:10;}
	.st459{fill:#FF0000;}
	.st460{fill:none;stroke:#000000;stroke-width:0.2;stroke-miterlimit:10;}
	.st461{fill:#FFFFFF;stroke:#000000;stroke-width:0.2;stroke-miterlimit:10;}
	.st462{fill:#63300F;stroke:#000000;stroke-width:0.2;stroke-miterlimit:10;}
	.st463{fill:#686461;}
	.st464{fill:#343031;}
	.st465{fill:#4D4D4D;}
	.st466{fill:#412312;}
	.st467{fill:#0971B7;}
	.st468{fill:#009145;}
	.st469{fill:#47AD4C;}
	.st470{fill:#F29222;}
	.st471{fill:#DDDB00;}
	.st472{fill:#E97BAB;}
	.st473{fill:#008D36;stroke:#006633;stroke-width:0.25;stroke-miterlimit:10;}
	.st474{fill:#422918;stroke:#1D1D1B;stroke-width:0.25;stroke-miterlimit:10;}
	.st475{fill:#925F36;stroke:#1D1D1B;stroke-width:0.25;stroke-miterlimit:10;}
	.st476{fill:#FFFFFF;stroke:#1D1D1B;stroke-width:0.25;stroke-miterlimit:10;}
	.st477{fill:#B17F49;}
	.st478{fill:#7F8080;}
	.st479{fill:#4E4D4D;}
	.st480{fill:#6F6F6E;}
	.st481{fill:url(#SVGID_41_);}
	.st482{fill:url(#SVGID_42_);}
	.st483{fill:#C99D66;}
	.st484{fill:#7E4E24;}
	.st485{fill:url(#SVGID_43_);}
	.st486{fill:url(#SVGID_44_);}
	.st487{fill:url(#SVGID_45_);}
	.st488{fill:url(#SVGID_46_);}
	.st489{fill:#634E42;}
	.st490{fill:#B3B3B3;}
	.st491{fill:none;stroke:#422918;stroke-width:0.25;stroke-miterlimit:10;}
	.st492{fill:none;stroke:#1D1D1B;stroke-width:0.1;stroke-miterlimit:10;}
	.st493{fill:#1D1D1B;stroke:#1D1D1B;stroke-width:0.1;stroke-miterlimit:10;}
	.st494{fill:#C1272D;stroke:#FFFFFF;stroke-width:0.25;stroke-miterlimit:10;}
	.st495{fill:#ED1C24;stroke:#FFFFFF;stroke-width:0.25;stroke-miterlimit:10;}
	.st496{fill:#F7931E;stroke:#FFFFFF;stroke-width:0.25;stroke-miterlimit:10;}
	.st497{fill:#D17C10;}
	.st498{fill:#E5332A;}
	.st499{fill:#014C26;}
	.st500{fill:#81171E;}
	.st501{fill:#231F20;}
	.st502{fill:#58595B;}
	.st503{fill:#C1B49A;}
	.st504{fill:url(#SVGID_47_);}
	.st505{fill:url(#SVGID_48_);}
	.st506{fill:url(#SVGID_49_);}
	.st507{fill:url(#SVGID_50_);}
	.st508{fill:#8C6239;}
	.st509{fill:#9C9B9B;stroke:#1D1D1B;stroke-width:0.1;stroke-miterlimit:10;}
	.st510{fill:#39A935;stroke:#1D1D1B;stroke-width:0.1;stroke-miterlimit:10;}
	.st511{fill:#FFEC00;stroke:#1D1D1B;stroke-width:0.1;stroke-miterlimit:10;}
	.st512{fill:none;stroke:#DDDB00;stroke-width:0.1;stroke-miterlimit:10;}
	.st513{fill:none;stroke:#E20613;stroke-width:0.1;stroke-miterlimit:10;}
	.st514{fill:#39A935;stroke:#1D1D1B;stroke-width:0.25;stroke-miterlimit:10;}
	.st515{fill:#FFEC00;stroke:#1D1D1B;stroke-width:0.25;stroke-miterlimit:10;}
	.st516{fill:#006633;stroke:#1D1D1B;stroke-width:0.25;stroke-miterlimit:10;}
	.st517{fill:#B17F49;stroke:#1D1D1B;stroke-width:0.25;stroke-miterlimit:10;}
	.st518{fill:#FCEA0D;stroke:#1D1D1B;stroke-width:0.25;stroke-miterlimit:10;}
	.st519{fill:#93C01F;stroke:#1D1D1B;stroke-width:0.25;stroke-miterlimit:10;}
	.st520{fill:url(#XMLID_21031_);stroke:#1D1D1B;stroke-width:0.5;stroke-miterlimit:10;}
	.st521{fill:#3D3D3D;}
	.st522{fill:#F84F10;}
	.st523{fill:#575756;}
	.st524{fill:#F29100;stroke:#1D1D1B;stroke-width:0.25;stroke-miterlimit:10;}
	.st525{fill:#E84E1B;stroke:#1D1D1B;stroke-width:0.25;stroke-miterlimit:10;}
	.st526{fill:#E34846;stroke:#1D1D1B;stroke-width:0.25;stroke-miterlimit:10;}
	.st527{fill:#575756;stroke:#1D1D1B;stroke-width:0.25;stroke-miterlimit:10;}
	.st528{fill:#6F6F6E;stroke:#1D1D1B;stroke-width:0.25;stroke-miterlimit:10;}
	.st529{fill:#634E42;stroke:#1D1D1B;stroke-width:0.25;stroke-miterlimit:10;}
	.st530{fill:#C99D66;stroke:#1D1D1B;stroke-width:0.25;stroke-miterlimit:10;}
	.st531{fill:#E5332A;stroke:#1D1D1B;stroke-width:0.25;stroke-miterlimit:10;}
	.st532{fill:#A3897A;stroke:#1D1D1B;stroke-width:0.25;stroke-miterlimit:10;}
	.st533{fill:#868686;stroke:#1D1D1B;stroke-width:0.25;stroke-miterlimit:10;}
	.st534{fill:#868686;}
	.st535{fill:#7A6A58;}
	.st536{fill:#37B34A;}
	.st537{fill:#006838;}
	.st538{fill:#009345;}
	.st539{fill:#006838;stroke:#009345;stroke-miterlimit:10;}
	.st540{fill:url(#SVGID_51_);}
	.st541{fill:url(#XMLID_21032_);stroke:#000000;stroke-width:0.25;stroke-miterlimit:10;}
	.st542{fill:#FEA327;}
	.st543{fill:#FE4113;}
	.st544{fill:#FE8012;}
	.st545{fill:#7AC235;}
	.st546{fill:#791385;}
	.st547{fill:#EEF72B;}
	.st548{fill:#4D1F03;stroke:#000000;stroke-width:0.25;stroke-miterlimit:10;}
	.st549{fill:url(#XMLID_21033_);stroke:#000000;stroke-width:0.25;stroke-miterlimit:10;}
	.st550{fill:url(#XMLID_21034_);stroke:#000000;stroke-width:0.25;stroke-miterlimit:10;}
	.st551{fill:url(#XMLID_21035_);stroke:#000000;stroke-width:0.25;stroke-miterlimit:10;}
	.st552{opacity:0.76;fill:#FFFFFF;}
	.st553{fill:#12491D;stroke:#000000;stroke-width:0.09;stroke-miterlimit:10;}
	.st554{fill:#237D26;stroke:#000000;stroke-width:0.09;stroke-miterlimit:10;}
	.st555{fill:#40A629;stroke:#000000;stroke-width:0.09;stroke-miterlimit:10;}
	.st556{fill:#CCE70B;stroke:#000000;stroke-width:0.2;stroke-miterlimit:10;}
	.st557{opacity:0.71;fill:#FFFFFF;}
	.st558{fill:#63300F;stroke:#000000;stroke-width:0.09;stroke-miterlimit:10;}
	.st559{fill:#F0047F;stroke:#000000;stroke-width:0.09;stroke-miterlimit:10;}
	.st560{fill:#7C411E;stroke:#000000;stroke-width:0.09;stroke-miterlimit:10;}
	.st561{fill:#FF8000;stroke:#000000;stroke-width:0.09;stroke-miterlimit:10;}
	.st562{fill:none;stroke:#237D26;stroke-width:0.09;stroke-miterlimit:10;}
	.st563{fill:#FFFF00;stroke:#000000;stroke-width:0.09;stroke-miterlimit:10;}
	.st564{fill:#F0047F;stroke:#FFFFFF;stroke-width:0.09;stroke-miterlimit:10;}
	.st565{fill:#82027E;stroke:#FFFFFF;stroke-width:0.09;stroke-miterlimit:10;}
	.st566{fill:#999999;stroke:#FFFFFF;stroke-width:0.9;stroke-linecap:round;stroke-linejoin:round;stroke-miterlimit:10;}
	.st567{fill:#F7931E;stroke:#FFFFFF;stroke-width:0.5;stroke-miterlimit:10;}
	.st568{fill:none;stroke:#000000;stroke-width:0.15;stroke-miterlimit:10;}
	.st569{fill:none;stroke:#999999;stroke-width:0.15;stroke-miterlimit:10;}
	.st570{display:inline;fill:url(#SVGID_52_);}
	.st571{display:inline;fill:url(#SVGID_53_);}
	.st572{display:inline;fill:url(#SVGID_54_);}
	.st573{display:inline;stroke:#FFFFFF;stroke-width:0.5;stroke-miterlimit:10;}
	.st574{display:inline;fill:none;stroke:#FBB03B;stroke-width:0.25;stroke-miterlimit:10;}
	.st575{display:inline;fill:#ECB03B;stroke:#FBB03B;stroke-width:0.25;stroke-miterlimit:10;}
	.st576{fill-rule:evenodd;clip-rule:evenodd;fill:none;stroke:#FFFFFF;stroke-width:0.5;stroke-miterlimit:2.4142;}
	
		.st577{fill-rule:evenodd;clip-rule:evenodd;fill:#111183;stroke:#FFFFFF;stroke-width:0.5;stroke-linecap:round;stroke-linejoin:round;stroke-miterlimit:10;}
	.st578{fill:#FFFFFF;stroke:#FFFFFF;stroke-width:0.5;stroke-miterlimit:10;}
	.st579{fill:#006837;stroke:#FFFFFF;stroke-miterlimit:10;}
</style>
<g id="Layer_1" class="st0">
	<g id="Layer_2" class="st1">
	</g>
</g>
<g id="FONDO">
</g>
<g id="Capa_48" class="st0">
</g>
<g id="Layer_7" class="st0">
</g>
<g id="Layer_11" class="st0">
</g>
<g id="Layer_17" class="st0">
</g>
<g id="CUENCAS" class="st0">
</g>
<g id="CORREDOR_VERDE" class="st0">
</g>
<g id="CORREDOR_PASTO" class="st0">
</g>
<g id="LIMITE_copia" class="st0">
</g>
<g id="Microregiones_colores" class="st0">
</g>
<g id="LIMITE" class="st0">
</g>
<g id="BOSQUE" class="st0">
</g>
<g id="casco" class="st0">
</g>
<g id="CAFE" class="st0">
</g>
<g id="NODOS_ECOLOGICOS" class="st0">
</g>
<g id="limite_afuera" class="st0">
</g>
<g id="Layer_5" class="st0">
</g>
<g id="MICROREGIONES" class="st0">
</g>
<g id="CALLES" class="st0">
</g>
<g id="RUTAS_TURIMO" class="st0">
</g>
<g id="EJES" class="st0">
</g>
<g id="nombres_ejes" class="st0">
</g>
<g id="Layer_9" class="st0">
</g>
<g id="zonas" class="st0">
</g>
<g id="NODOS_BIOCULTURALES" class="st0">
</g>
<g id="EJES_TURIST" class="st0">
</g>
<g id="sistema_vial" class="st0">
</g>
<g id="limites_municipales" class="st0">
</g>
<g id="rios" class="st0">
</g>
<g id="topografia" class="st0">
</g>
<g id="turismo_plan" class="st0">
</g>
<g id="_x31_2_zonas" class="st0">
</g>
<g id="CUADRICULA" class="st0">
</g>
<g id="MUNICIPIOS_VECINOS" class="st0">
</g>
<g id="nucleos__urbanos" class="st0">
</g>
<g id="LEYENDA" class="st0">
</g>
<g id="calle" class="st0">
</g>
<g id="Puntos" class="st0">
</g>
<g id="Sitios_Arqueológicos" class="st0">
</g>
<g id="Sitios_Naturales" class="st0">
</g>
<g id="CAJA_DE_LEYENDAS">
	<g id="XMLID_20775_">
		<path class="st2" d="M58.24,327.18c9.23,0.41,12.76,1.94,23.27,1.33c8.5-0.49,12.8-0.79,15.26-3.62
			c5.3-6.12-0.82-17.25,4.96-21.74c0.31-0.24,2.7-2.26,4.58-1.53c2.95,1.16,1.05,7.72,4.39,16.59c1.61,4.26,2.96,7.87,6.29,9.53
			c4.83,2.42,8.12-2.1,16.97-1.91c4.49,0.1,4.09,1.27,14.68,4c9.86,2.54,14.87,3.77,18.88,1.72c3.59-1.84,6.66-5.81,6.87-10.11
			c0.31-6.47-6-11.15-8.2-12.78c-8.67-6.43-16.38-3.8-18.31-8.39c-1.56-3.71,3.14-6.21,4.58-13.54c1.51-7.74-2.36-11.96-5.91-22.69
			c-2.52-7.63-3.15-14.49-4.39-28.22c-0.78-8.67-0.72-16.58-0.57-32.04c0.29-29.01,1.62-30.97,2.86-31.27
			c3.66-0.91,9.62,11.9,12.78,18.69c3.53,7.58,5.27,11.47,4,15.83c-1.75,6.05-7.12,6.02-8.77,12.2c-1.3,4.86,0.33,11.2,4.96,15.07
			c4.96,4.15,12.18,4.47,16.78,1.72c5.17-3.1,3.22-7.83,8.96-14.11c5.71-6.26,9.35-3.44,15.83-9.53c2.51-2.36,2.19-3,11.06-18.5
			c5.12-8.95,6.69-11.3,9.34-11.63c4.24-0.54,5.49,4.8,11.25,5.91c7.36,1.41,17.01-5.06,18.12-12.01c0.29-1.8-0.16-2.58-4.96-13.54
			c-5.04-11.51-4.73-11.07-5.72-12.97c-2.97-5.7-5.51-9.23-10.11-15.64c-7.29-10.15-9.2-11.11-11.06-11.25
			c-3.49-0.27-6.46,2.35-8.77,4.39c-3.93,3.47-5.5,7.57-6.1,9.53c-0.74,2.41-1.85,6.06-0.57,9.92c2.05,6.17,8.28,7.03,8.01,11.06
			c-0.08,1.15-0.63,1.7-3.81,5.34c-2.37,2.71-4.7,5.47-7.06,8.2c-6.94,8.03-7.01,13.53-9.15,13.35c-2.55-0.22-2.61-8.04-7.44-22.69
			c-1.33-4.05-2.7-8.2-5.15-13.35c-0.94-1.98-3-6.11-14.49-22.31c-7.73-10.89-8.53-11.47-9.53-12.01
			c-8.43-4.59-16.17,1.04-22.12-4.39c-2.53-2.3-4.51-6.39-3.24-8.77c2.26-4.25,12.53,1.34,20.98-4.39
			c5.95-4.03,7.65-11.42,8.01-12.97c2.12-9.19-3.26-13.35-0.19-18.5c3.5-5.86,12.46-3.9,13.54-8.2c1.2-4.78-8.88-11.18-9.92-11.82
			c-9.64-6.01-15.06-2.5-20.4-8.77c-1.84-2.17-4.4-6.25-6.29-9.92c-2.51-4.84-2.49-6.27-4.39-7.63c-2.7-1.93-5.81-1.25-13.35,0
			c-5.64,0.94-11.61,1.93-16.4,2.48c-12.19,1.4-14.22-0.37-18.5,2.29c-4.03,2.5-6.16,6.78-8.58,11.44
			c-2.96,5.7-2.49,7.75-5.53,10.97c-2.11,2.24-3,1.95-9.15,5.63c-7.31,4.36-10.97,6.61-11.44,9.73c-0.51,3.33,2,7.01,4.7,8.84
			c4.65,3.14,9.03,0.22,11.89,3.37c1.86,2.05,0.54,3.77,2.29,8.01c1.72,4.17,4.87,6.55,6.29,7.63c6.04,4.56,9.53,1.8,14.87,5.91
			c3.57,2.75,6.91,7.75,5.53,11.25c-0.33,0.84-1.31,2.56-6.67,4.2c-7.86,2.39-12.29,0.67-17.93,1.14c-9.47,0.8-16.17,7.3-18.88,9.92
			c-8.73,8.45-10.46,19.23-11.76,27.27c-1,6.19-0.67,14.38,0,30.77c0.51,12.48,1.14,16-0.51,22.63c-0.92,3.71-3.15,10.76-4.58,15.26
			c-2.49,7.88-3.78,11.35-2.03,14.75c1.58,3.08,4.74,4.34,6.61,5.09c8.03,3.2,16.19-0.77,19.83-2.54c4.77-2.32,8.53-4.15,10.17-8.14
			c1.91-4.64-1.01-7.45-2.29-16.53c-0.96-6.78-0.28-11.9,0.51-17.8c1.07-8,3.98-20.73,6.61-20.6c1.03,0.05,2.01,2.09,4.58,16.53
			c2.4,13.54,3.6,20.32,3.81,24.92c0.65,14.29-2.48,36.08-13.73,54.67c-3.68,6.08-8.26,11.87-7.37,19.83
			c0.88,7.84,6.31,11.16,4.58,14.75c-2.6,5.38-15.54-0.57-25.17,6.87c-6.25,4.82-9.67,14.17-6.87,18.05
			C33.2,331.33,40.19,326.39,58.24,327.18z"/>
		<g id="XMLID_20776_">
			<g id="XMLID_20777_">
				<g id="XMLID_20822_">
					<path d="M244.99,173.23c0.05,0.78-0.24,1.37-0.94,2.42c-1.42,2.2-2.82,3.71-4.89,5.86c-0.99,1.02-1.56,1.56-1.93,1.91
						c-0.4,0.38-0.62,0.48-0.86,0.51c-1.05,0.24-2.9,0.11-6.77-4.08c-2.1-2.2-3.9-4.65-5.4-7.23l-0.03-0.03
						c0.19-0.13,0.32-0.3,0.38-0.56c0.05-0.08,0.05-0.16,0.05-0.27c0.11,0.16,0.19,0.3,0.24,0.46c1.5,2.53,3.31,4.92,5.32,7.09
						c4.03,4.3,5.51,3.95,6.02,3.84c0.27-0.05,0.51-0.27,2.39-2.2c2.07-2.12,3.44-3.57,4.78-5.72c0.7-0.99,0.86-1.5,0.83-1.96
						c-0.05-0.97-0.81-1.59-1.83-2.39l-0.38-0.38c-1.21-1.05-2.55-2.55-5.16-5.59l-0.11-0.11c-1.77-2.02-2.63-3.01-3.44-4.43
						c-0.99-1.8-1.5-3.39-2.26-5.97c-0.32-1.16-0.48-1.83-0.62-2.47c-0.05-0.16-0.11-0.32-0.16-0.48c-0.16-0.51-0.32-1.1-0.54-1.99
						c-0.54-1.75-1.21-3.73-1.69-4.84c-0.38-0.91-1.29-3.04-8.89-10.32c-4.38-4.25-5.54-4.89-6.53-4.68
						c-0.16,0.08-0.32,0.13-0.46,0.27c-0.21,0.21-0.4,0.54-0.73,1.07c-0.38,0.7-0.89,1.61-1.85,2.88c-0.86,1.24-1.67,2.12-2.36,2.88
						c-1.18,1.34-2.1,2.31-3.01,4.27c-0.46,0.97-0.67,1.72-0.59,2.63c0.21,1.64,1.5,2.79,2.04,3.22c1.88,1.56,3.14,3.55,4.35,5.48
						c0.78,1.21,1.59,2.42,2.47,3.52c1.37,1.67,2.61,3.17,3.71,4.54l-0.83,0.24c-1.07-1.32-2.23-2.74-3.52-4.3
						c-0.91-1.13-1.69-2.34-2.47-3.55c-1.21-1.91-2.47-3.82-4.14-5.27c-0.7-0.59-2.18-1.85-2.39-3.79c-0.16-1.1,0.16-2.02,0.64-3.06
						c0.97-2.07,1.96-3.2,3.14-4.49c0.67-0.78,1.48-1.61,2.34-2.82c0.89-1.24,1.4-2.15,1.8-2.77c0.54-0.94,0.81-1.48,1.67-1.69
						c1.45-0.4,2.82,0.51,7.31,4.84c7.71,7.39,8.63,9.54,9.06,10.56c0.48,1.18,1.16,3.14,1.69,4.94c0.38,1.18,0.54,1.85,0.67,2.5
						c0.16,0.64,0.32,1.32,0.67,2.42c0.81,2.63,1.21,4.08,2.18,5.8c0.75,1.37,1.61,2.34,3.36,4.33l-0.27,0.38l0.32-0.3
						c2.63,3.04,3.95,4.51,5.11,5.51l0.38,0.35C243.95,171.16,244.94,171.91,244.99,173.23z"/>
					<path class="st198" d="M244.19,173.25c0.03,0.46-0.13,0.97-0.83,1.96c-1.34,2.15-2.71,3.6-4.78,5.72
						c-1.88,1.93-2.12,2.15-2.39,2.2c-0.51,0.11-1.99,0.46-6.02-3.84c-2.02-2.18-3.82-4.57-5.32-7.09c-0.05-0.16-0.13-0.3-0.24-0.46
						c0.19-1.02-0.73-2.2-2.98-4.97c-2.96-3.57-3.73-4.49-4.08-4.7c-0.43-0.54-0.89-1.1-1.37-1.69l3.28-1.02l1.16,1.13
						c2.34-2.34,4.7-4.68,7.09-7.07l1.99-1.96l0.56-0.03c0.05,0.16,0.11,0.32,0.16,0.48c0.13,0.64,0.3,1.32,0.62,2.47
						c0.75,2.58,1.26,4.16,2.26,5.97c0.81,1.42,1.67,2.42,3.44,4.43l0.11,0.11c2.61,3.04,3.95,4.54,5.16,5.59l0.38,0.38
						C243.38,171.67,244.13,172.29,244.19,173.25z"/>
					<path class="st198" d="M228.58,150.36l-1.96,1.93c-2.42,2.36-4.78,4.7-7.17,7.07l-3.28,1.02c-1.1-1.37-2.34-2.88-3.71-4.54
						c-0.89-1.1-1.69-2.31-2.47-3.52c-1.21-1.93-2.47-3.92-4.35-5.48c-0.54-0.43-1.83-1.59-2.04-3.22
						c-0.08-0.91,0.13-1.67,0.59-2.63c0.91-1.96,1.83-2.93,3.01-4.27c0.7-0.75,1.5-1.64,2.36-2.88c0.97-1.26,1.48-2.18,1.85-2.88
						c0.32-0.54,0.51-0.86,0.73-1.07c0.13-0.13,0.3-0.19,0.46-0.27c0.99-0.21,2.15,0.43,6.53,4.68c7.6,7.28,8.52,9.4,8.89,10.32
						c0.48,1.1,1.16,3.09,1.69,4.84c0.21,0.89,0.38,1.48,0.54,1.99l-0.56,0.03L228.58,150.36z"/>
					<path d="M228.58,150.36l1.1,1.1l-1.99,1.96c-2.39,2.39-4.76,4.73-7.09,7.07l-1.16-1.13c2.39-2.36,4.76-4.7,7.17-7.07
						L228.58,150.36z"/>
					<path d="M221.62,166.78c2.26,2.77,3.17,3.95,2.98,4.97c-1.59-2.63-3.71-5.45-7.07-9.67
						C217.88,162.29,218.66,163.2,221.62,166.78z"/>
					<path d="M224.6,171.75c0,0.11,0,0.19-0.05,0.27c-0.05,0.27-0.19,0.43-0.38,0.56c-0.13-0.3-0.27-0.51-0.43-0.75
						c0.03,0,0.05-0.03,0.08-0.08c0.21-0.67-0.54-1.69-2.82-4.46c-2.12-2.55-3.52-4.3-3.82-4.43c-0.03-0.03-0.05-0.05-0.11-0.05
						c-0.24-0.32-0.48-0.56-0.73-0.91c0.4-0.03,0.81,0.03,1.18,0.19C220.89,166.29,223.02,169.12,224.6,171.75z"/>
					<path d="M224.17,172.58l0.03,0.03c-0.7,0.75-2.02,1.02-2.79,1.16l-0.24,0.05c-3.95,0.81-6.53,5.56-8.44,9.03
						c-0.7,1.29-1.29,2.39-1.85,3.12c-6.8,8.68-14.03,15.07-20.34,20.69c-0.03,0.03-0.08,0.05-0.11,0.08
						c-0.05-0.27-0.13-0.56-0.24-0.86c6.26-5.54,13.35-11.85,20.02-20.42c0.54-0.67,1.16-1.77,1.85-2.98
						c1.96-3.6,4.68-8.54,8.95-9.4l0.3-0.08c0.75-0.13,2.1-0.38,2.45-1.16C223.9,172.07,224.04,172.29,224.17,172.58z"/>
					<path d="M221,167.29c2.28,2.77,3.04,3.79,2.82,4.46c-0.03,0.05-0.05,0.08-0.08,0.08c-1.56-2.5-3.55-5.16-6.66-9.03
						c0.05,0,0.08,0.03,0.11,0.05C217.48,162.99,218.88,164.74,221,167.29z"/>
					<path class="st231" d="M223.74,171.83c-0.35,0.78-1.69,1.02-2.45,1.16l-0.3,0.08c-4.27,0.86-6.99,5.8-8.95,9.4
						c-0.7,1.21-1.32,2.31-1.85,2.98c-6.66,8.57-13.76,14.89-20.02,20.42c-0.62-2.18-1.64-4.78-2.82-7.82
						c-0.54-1.37-1.1-2.85-1.69-4.41c1.16-1.26,2.1-2.23,2.93-3.12c2.28-2.42,3.76-4,7.12-7.79c1.18-1.37,2.34-2.71,3.47-4
						c8.89-10.24,14.86-17.09,17.9-15.93C220.19,166.67,222.18,169.33,223.74,171.83z"/>
					<path d="M217.53,162.08c-0.38-0.16-0.78-0.21-1.18-0.19c-0.32-0.4-0.67-0.83-1.02-1.26l0.83-0.24
						C216.65,160.97,217.1,161.54,217.53,162.08z"/>
					<path d="M216.35,161.89c0.24,0.35,0.48,0.59,0.73,0.91c-3.04-1.16-9,5.7-17.9,15.93c-1.13,1.29-2.28,2.63-3.47,4
						c-3.36,3.79-4.84,5.37-7.12,7.79c-0.83,0.89-1.77,1.85-2.93,3.12c-0.11-0.3-0.24-0.56-0.32-0.86c1.05-1.13,1.91-2.04,2.66-2.85
						c2.26-2.34,3.76-3.95,7.12-7.74c1.18-1.37,2.34-2.71,3.44-3.98C207.16,168.31,212.7,161.99,216.35,161.89z"/>
					<path d="M190.42,206.73c0.73,2.79,0.7,4.81-0.62,5.99c-0.86,0.75-2.69,1.53-4.41,1.88c-1.16,0.24-1.77,0.19-2.55,0.11
						c-0.3-0.03-0.62-0.08-0.99-0.08c0.19-0.21,0.4-0.43,0.62-0.62c0.16,0,0.3,0,0.43,0.03c0.78,0.08,1.32,0.13,2.36-0.08
						c1.8-0.38,3.44-1.18,4.08-1.75c1.05-0.91,1.07-2.63,0.51-4.97C190.05,207.08,190.23,206.92,190.42,206.73z"/>
					<path d="M190.42,206.73c-0.19,0.19-0.38,0.35-0.56,0.51c-0.05-0.3-0.13-0.59-0.21-0.89c0.11-0.11,0.24-0.21,0.35-0.32
						c0.05-0.05,0.13-0.11,0.19-0.16C190.29,206.17,190.37,206.46,190.42,206.73z"/>
					<path class="st231" d="M190.18,205.87c-0.05,0.05-0.13,0.11-0.19,0.16c-0.11,0.11-0.24,0.21-0.35,0.32
						c-0.64-2.23-1.72-4.94-2.93-8.06c-0.51-1.26-1.02-2.63-1.59-4.08c0.19-0.19,0.35-0.38,0.54-0.56c0.59,1.56,1.16,3.04,1.69,4.41
						C188.54,201.09,189.56,203.7,190.18,205.87z"/>
					<path class="st155" d="M189.86,207.24c0.56,2.34,0.54,4.06-0.51,4.97c-0.64,0.56-2.28,1.37-4.08,1.75
						c-1.05,0.21-1.59,0.16-2.36,0.08c-0.13-0.03-0.27-0.03-0.43-0.03C184.78,211.76,187.25,209.55,189.86,207.24z"/>
					<path d="M189.64,206.36c0.08,0.3,0.16,0.59,0.21,0.89c-2.61,2.31-5.08,4.51-7.39,6.77c-0.32-0.05-0.67-0.08-1.07-0.08
						C183.97,211.41,186.71,208.94,189.64,206.36z"/>
					<path class="st231" d="M186.71,198.3c1.21,3.12,2.28,5.83,2.93,8.06c-2.93,2.58-5.67,5.05-8.25,7.58
						c-0.54,0-1.21,0.03-2.07,0.08c-0.32,0.03-0.59,0.05-0.86,0.08c-1.21,0.13-1.96,0.19-2.88-0.21c-0.91-0.38-1.5-1.02-1.85-1.48
						c-0.89-1.1-1.64-2.26-2.26-3.36c1.61-1.72,3.09-3.36,4.57-5l0.59-0.59c3.84-4.25,6.5-7.12,8.49-9.24
						C185.69,195.66,186.2,197.03,186.71,198.3z"/>
					<path d="M185.34,192.79c0.08,0.3,0.21,0.56,0.32,0.86c-0.19,0.19-0.35,0.38-0.54,0.56c-0.11-0.27-0.21-0.56-0.32-0.86
						C184.99,193.16,185.16,192.98,185.34,192.79z"/>
					<path d="M184.81,193.35c0.11,0.3,0.21,0.59,0.32,0.86c-1.99,2.12-4.65,5-8.49,9.24l-0.59,0.59c-1.48,1.64-2.96,3.28-4.57,5
						c-0.13-0.24-0.27-0.51-0.4-0.75c1.56-1.64,2.96-3.2,4.35-4.76l0.62-0.62C180.05,198.48,182.79,195.53,184.81,193.35z"/>
					<path d="M185.34,192.79c-0.19,0.19-0.35,0.38-0.54,0.56c-1.29-3.47-2.63-7.39-3.76-11.58c-1.67-6.23-1.96-10.08-2.23-13.14
						c-0.21-2.58-0.4-4.78-1.32-7.71c0.19-0.19,0.35-0.38,0.51-0.59c1.05,3.17,1.24,5.51,1.48,8.25c0.27,3.2,0.56,6.82,2.2,13.03
						C182.76,185.64,184.05,189.4,185.34,192.79z"/>
					<path class="st155" d="M184.81,193.35c-2.02,2.18-4.76,5.13-8.76,9.57l-0.62,0.62c-1.4,1.56-2.79,3.12-4.35,4.76
						c-1.26-2.42-1.83-4.38-1.85-4.41c-0.05-0.19-0.05-0.19-0.16-0.4c-1.29-2.47-5.02-10.67-7.93-17.09
						c-1.67-3.76-2.53-5.64-3.01-6.77c-1.18-2.66-2.04-4.68-2.74-6.31c4.11-0.67,8.01-2.63,11.34-4.49c3.76-2.1,7.9-4.62,10.77-7.9
						c0.91,2.93,1.1,5.13,1.32,7.71c0.27,3.06,0.56,6.91,2.23,13.14C182.17,185.96,183.52,189.89,184.81,193.35z"/>
					<path d="M182.47,214.01c-0.21,0.19-0.43,0.4-0.62,0.62c-0.32-0.03-0.67-0.03-1.1-0.03c0.21-0.21,0.43-0.46,0.64-0.67
						C181.8,213.93,182.15,213.96,182.47,214.01z"/>
					<path d="M181.85,214.63c-4.06,3.98-7.55,8.14-10.32,13.17l-0.08,0.16c-0.59,1.1-1.83,3.33-3.52,4.86
						c-0.99,0.89-2.18,1.53-3.52,1.59c-2.77,0.03-6.1-2.61-7.2-4.54l-0.19-0.3c-0.3-0.51-0.78-1.32-1.5-2.36
						c-0.38-0.51-0.62-0.83-0.78-0.99c-0.21-0.27-0.35-0.4-0.43-0.7c-0.19-0.94,0.4-1.77,1.45-2.71c0.62-0.54,1.32-1.1,2.2-1.75
						c0.67-0.51,1.32-0.99,2.02-1.59c1.26-1.02,2.45-2.28,3.57-3.44c0.62-0.62,1.21-1.24,1.83-1.88c1.93-1.88,3.65-3.65,5.21-5.32
						c0.11,0.24,0.24,0.48,0.4,0.73c-1.53,1.64-3.2,3.33-5.05,5.19c-0.59,0.59-1.21,1.21-1.8,1.85c-1.16,1.18-2.34,2.45-3.65,3.52
						c-0.7,0.54-1.37,1.07-2.04,1.59c-1.88,1.42-3.52,2.66-3.33,3.63c0.03,0.11,0.05,0.13,0.21,0.35c0.19,0.21,0.46,0.54,0.83,1.07
						c0.81,1.05,1.26,1.91,1.53,2.45l0.16,0.27c1.02,1.72,4.06,4.19,6.53,4.14c3.12-0.08,5.48-4.41,6.37-5.99l0.05-0.16
						c2.69-4.89,6.05-8.95,9.89-12.82c0-0.03,0.03-0.03,0.05-0.03C181.18,214.61,181.53,214.61,181.85,214.63z"/>
					<path class="st231" d="M181.39,213.93c-0.21,0.21-0.43,0.46-0.64,0.67c-0.03,0-0.05,0-0.05,0.03c-0.38,0-0.81,0.03-1.32,0.05
						c-0.32,0.03-0.59,0.05-0.86,0.08c-0.51,0.05-0.97,0.11-1.4,0.11c-0.62,0-1.18-0.08-1.8-0.38c-1.05-0.46-1.69-1.16-2.12-1.67
						c-0.86-1.07-1.61-2.2-2.2-3.28c0.16-0.16,0.32-0.35,0.48-0.51c0.62,1.1,1.37,2.26,2.26,3.36c0.35,0.46,0.94,1.1,1.85,1.48
						c0.91,0.4,1.67,0.35,2.88,0.21c0.27-0.03,0.54-0.05,0.86-0.08C180.18,213.96,180.86,213.93,181.39,213.93z"/>
					<path class="st231" d="M180.69,214.63c-3.84,3.87-7.2,7.93-9.89,12.82l-0.05,0.16c-0.89,1.59-3.25,5.91-6.37,5.99
						c-2.47,0.05-5.51-2.42-6.53-4.14l-0.16-0.27c-0.27-0.54-0.73-1.4-1.53-2.45c-0.38-0.54-0.64-0.86-0.83-1.07
						c-0.16-0.21-0.19-0.24-0.21-0.35c-0.19-0.97,1.45-2.2,3.33-3.63c0.67-0.51,1.34-1.05,2.04-1.59c1.32-1.07,2.5-2.34,3.65-3.52
						c0.59-0.64,1.21-1.26,1.8-1.85c1.85-1.85,3.52-3.55,5.05-5.19c0.59,1.07,1.34,2.2,2.2,3.28c0.43,0.51,1.07,1.21,2.12,1.67
						c0.62,0.3,1.18,0.38,1.8,0.38c0.43,0,0.89-0.05,1.4-0.11c0.27-0.03,0.54-0.05,0.86-0.08
						C179.89,214.66,180.32,214.63,180.69,214.63z"/>
					<path d="M178.3,159.98c-0.08,0.11-0.19,0.24-0.3,0.35c-0.08-0.24-0.16-0.48-0.24-0.73v-0.03L178.3,159.98z"/>
					<path d="M178.01,160.33c-0.16,0.21-0.32,0.4-0.51,0.59c-0.08-0.24-0.16-0.48-0.24-0.73c0.16-0.19,0.32-0.38,0.51-0.59
						C177.85,159.84,177.93,160.09,178.01,160.33z"/>
					<path d="M177.77,159.6c-0.19,0.21-0.35,0.4-0.51,0.59c-0.38-1.07-0.86-2.26-1.45-3.6c-0.48-1.07-0.94-1.96-1.37-2.74
						c0.11-0.11,0.21-0.21,0.32-0.32l-0.48-0.46c-0.05,0.05-0.13,0.13-0.19,0.19c-0.59-1.07-1.18-1.99-1.83-2.96
						c-1.42-2.12-3.17-4.78-5.99-10.51c-0.62-1.29-1.18-2.45-1.72-3.57c-1.69-3.57-3.14-6.69-5.8-10.59
						c-0.99-1.48-2.79-3.87-5.45-6.26c-1.21-1.13-2.61-2.26-4.19-3.28c-0.32-0.19-0.59-0.35-0.91-0.51
						c-3.73-2.02-7.07-2.45-12.12-3.09c-5.29-0.64-7.95-0.91-10.77,0.56c-0.51,0.3-1.48,0.81-5.51,6.1
						c-4.14,5.48-6.23,8.22-7.31,11.15c-1.26,3.47-1.45,6.53-1.56,8.33c-0.08,1.42-0.11,2.07-0.64,2.1
						c-0.62,0.03-0.81-0.89-1.34-3.57c-0.46-2.23-1.07-5.29-2.18-8.92c-1.88-6.1-2.79-8.89-5.27-10.86
						c-3.6-2.88-8.52-2.66-12.01-1.99l-0.11-0.46c0.73-0.13,1.37-0.3,1.93-0.48c0.05-0.03,0.08-0.03,0.13-0.03
						c3.33-0.38,7.34-0.08,10.45,2.42c2.74,2.18,3.73,5.4,5.51,11.2c1.1,3.65,1.72,6.72,2.18,8.97c0.21,1.07,0.43,2.1,0.62,2.66
						c0.03-0.3,0.05-0.7,0.08-1.07c0.11-1.85,0.27-4.97,1.59-8.52c1.1-3.04,3.2-5.8,7.39-11.34c4.11-5.43,5.13-5.97,5.75-6.29
						c0.11-0.05,0.19-0.11,0.3-0.13c3.01-1.48,5.99-1.1,10.86-0.48c5.13,0.64,8.52,1.07,12.36,3.14c0.32,0.16,0.64,0.32,0.94,0.54
						c5.13,3.36,8.38,7.52,9.86,9.73c2.66,3.95,4.14,7.07,5.86,10.67c0.54,1.13,1.07,2.31,1.69,3.57c2.79,5.67,4.49,8.2,5.97,10.43
						c1.21,1.85,2.26,3.44,3.6,6.4C176.96,157.53,177.42,158.61,177.77,159.6z"/>
					<path d="M177.26,160.19c0.08,0.24,0.16,0.48,0.24,0.73c-2.88,3.28-7.01,5.8-10.77,7.9c-3.33,1.85-7.23,3.82-11.34,4.49
						c-0.05-0.21-0.16-0.43-0.24-0.62c4.06-0.64,7.95-2.61,11.26-4.46C170.19,166.13,174.41,163.53,177.26,160.19z"/>
					<path class="st180" d="M175.8,156.59c0.59,1.34,1.07,2.53,1.45,3.6c-2.85,3.33-7.07,5.94-10.86,8.03
						c-3.31,1.85-7.2,3.82-11.26,4.46c0-0.03-0.03-0.05-0.03-0.08c-1.02-2.42-1.67-3.92-2.53-5.56c2.07-0.83,4.14-1.77,6.21-2.77
						c3.95-1.88,6.8-3.22,9.97-5.51c2.02-1.45,3.92-3.09,5.67-4.92C174.86,154.63,175.32,155.52,175.8,156.59z"/>
					<path d="M174.76,153.53c-0.11,0.11-0.21,0.21-0.32,0.32c-0.11-0.21-0.21-0.4-0.35-0.59c0.05-0.05,0.13-0.13,0.19-0.19
						L174.76,153.53z"/>
					<path d="M174.08,153.26c0.13,0.19,0.24,0.38,0.35,0.59c-1.75,1.83-3.65,3.47-5.67,4.92c-3.17,2.28-6.02,3.63-9.97,5.51
						c-2.07,0.99-4.14,1.93-6.21,2.77c-0.08-0.19-0.19-0.4-0.3-0.62c2.07-0.83,4.16-1.75,6.21-2.74c4.06-1.93,6.74-3.22,9.86-5.45
						C170.4,156.78,172.34,155.09,174.08,153.26z"/>
					<path class="st154" d="M172.26,150.31c0.64,0.97,1.24,1.88,1.83,2.96c-1.75,1.83-3.68,3.52-5.72,4.97
						c-3.12,2.23-5.8,3.52-9.86,5.45c-2.04,0.99-4.14,1.91-6.21,2.74c-0.13-0.27-0.3-0.54-0.46-0.83c-2.31-4.25-4.08-7.44-5.72-8.81
						c-0.81-3.82-1.16-7.66-1.02-11.47c0.27-7.66,2.39-13.38,3.68-16.82c1.05-2.82,2.28-5.59,3.73-8.22l0.78-0.89
						c2.66,2.39,4.46,4.78,5.45,6.26c2.66,3.9,4.11,7.01,5.8,10.59c0.54,1.13,1.1,2.28,1.72,3.57
						C169.09,145.52,170.83,148.18,172.26,150.31z"/>
					<path d="M171.08,208.29c0.13,0.24,0.27,0.51,0.4,0.75c-0.16,0.16-0.32,0.35-0.48,0.51c-0.16-0.24-0.3-0.48-0.4-0.73
						C170.75,208.64,170.94,208.48,171.08,208.29z"/>
					<path d="M169.22,203.88c0.03,0.03,0.59,1.99,1.85,4.41c-0.13,0.19-0.32,0.35-0.48,0.54c-1.34-2.55-1.99-4.62-2.02-4.76
						c-0.03-0.13-0.03-0.13-0.11-0.3c-1.29-2.47-5.02-10.67-7.93-17.12c-1.69-3.76-2.55-5.64-3.04-6.77
						c-1.24-2.77-2.1-4.81-2.79-6.48c0.24-0.03,0.46-0.05,0.67-0.11c0.7,1.64,1.56,3.65,2.74,6.31c0.48,1.13,1.34,3.01,3.01,6.77
						c2.9,6.42,6.64,14.62,7.93,17.09C169.17,203.7,169.17,203.7,169.22,203.88z"/>
					<path d="M170.22,321.17c0.48,0.73,0.7,1.45,0.48,2.12c-0.56,1.67-3.47,1.93-5.8,2.18c-1.07,0.11-2.1,0.13-3.06,0.13
						c-4,0-7.09-0.73-8.6-1.1c-5.78-1.4-8.25-2.28-9.89-2.85c-1.53-0.56-2.31-0.83-4.43-1.05c-4.19-0.43-10.02-0.19-13.86-0.03
						l-0.99,0.03c-3.36,0.16-5.05,0.21-6.56-1.07c-1.21-1.05-1.37-2.18-1.67-4.49c-0.16-1.18-0.35-2.66-0.75-4.59
						c-0.11-0.46-0.19-0.89-0.27-1.26c0.27,0.27,0.54,0.51,0.83,0.7c0.03,0.13,0.05,0.27,0.08,0.43c0.4,1.96,0.62,3.44,0.78,4.65
						c0.27,2.18,0.4,3.2,1.42,4.06c1.29,1.13,2.9,1.05,6.1,0.91l0.99-0.05c3.87-0.13,9.73-0.38,13.97,0.05
						c2.2,0.21,3.04,0.51,4.59,1.07c1.61,0.59,4.06,1.45,9.81,2.85c1.83,0.43,6.07,1.45,11.42,0.94c1.93-0.19,4.84-0.46,5.24-1.72
						c0.13-0.4,0-0.86-0.3-1.37c0.05,0,0.08,0.03,0.13,0.05l0.3-0.59H170.22z"/>
					<path d="M170.22,321.17h-0.03c-0.43-0.21-0.89-0.43-1.32-0.64c-0.86-0.94-2.02-1.91-2.96-2.71c-1.37-1.16-3.09-2.36-6.91-4.43
						c-3.65-1.96-5.48-2.96-7.28-3.6c-1.07-0.4-2.23-0.75-3.36-1.1c0-0.21,0-0.43-0.03-0.59l-0.67,0.08
						c0.03,0.11,0.03,0.21,0.03,0.32c-3.17-0.91-6.15-1.77-7.9-3.39c-0.59-0.56-0.94-1.13-1.07-1.77c-0.21-1.05,0.21-1.96,1.21-3.52
						c0.94-1.42,1.59-2.23,2.04-2.82c0.54-0.7,0.83-1.05,1.1-1.77c0.21-0.59,0.35-1.21,0.35-1.88c0.24-0.03,0.48-0.11,0.7-0.19
						c0,0.83-0.13,1.59-0.4,2.31c-0.32,0.81-0.67,1.26-1.21,1.93c-0.46,0.59-1.1,1.4-2.02,2.79c-0.91,1.4-1.29,2.18-1.13,3.01
						c0.11,0.51,0.4,0.94,0.89,1.4c1.64,1.53,4.54,2.36,7.63,3.25c1.34,0.4,2.77,0.81,4.08,1.29c1.83,0.67,3.68,1.67,7.36,3.65
						c3.87,2.1,5.59,3.33,7.01,4.51C167.82,318.54,169.41,319.88,170.22,321.17z"/>
					<path d="M170.19,321.17l-0.3,0.59c-0.05-0.03-0.08-0.05-0.13-0.05c-0.21-0.38-0.54-0.78-0.89-1.18
						C169.3,320.74,169.76,320.96,170.19,321.17z"/>
					<path class="st153" d="M169.76,321.71c0.3,0.51,0.43,0.97,0.3,1.37c-0.4,1.26-3.31,1.53-5.24,1.72
						c-5.35,0.51-9.59-0.51-11.42-0.94c-5.75-1.4-8.2-2.26-9.81-2.85c-1.56-0.56-2.39-0.86-4.59-1.07
						c-4.25-0.43-10.1-0.19-13.97-0.05l-0.99,0.05c-3.2,0.13-4.81,0.21-6.1-0.91c-1.02-0.86-1.16-1.88-1.42-4.06
						c-0.16-1.21-0.38-2.69-0.78-4.65c-0.03-0.16-0.05-0.3-0.08-0.43c2.61,2.1,5.37,3.47,8.33,4.14c4.7,1.07,9.24,0.16,12.25-0.43
						c2.45-0.48,4.08-1.02,5.37-1.45c1.99-0.64,2.98-0.97,4.57-0.35c1.21,0.48,1.88,1.18,2.66,1.99c0.89,0.94,1.91,1.99,3.98,2.93
						c1.67,0.75,2.88,0.91,4.38,1.1c0.4,0.05,0.83,0.13,1.29,0.19C162.18,318.59,166,319.83,169.76,321.71z"/>
					<path d="M168.87,320.53c0.35,0.4,0.67,0.81,0.89,1.18c-3.76-1.88-7.58-3.12-11.29-3.71c-0.46-0.05-0.89-0.13-1.29-0.19
						c-1.5-0.19-2.71-0.35-4.38-1.1c-2.07-0.94-3.09-1.99-3.98-2.93c-0.78-0.81-1.45-1.5-2.66-1.99c-1.59-0.62-2.58-0.3-4.57,0.35
						c-1.29,0.43-2.93,0.97-5.37,1.45c-3.01,0.59-7.55,1.5-12.25,0.43c-2.96-0.67-5.72-2.04-8.33-4.14
						c-0.08-0.38-0.16-0.73-0.24-1.05c2.71,2.34,5.62,3.84,8.71,4.54c4.57,1.02,9.03,0.13,11.98-0.43c2.39-0.48,4-1.02,5.32-1.45
						c1.99-0.64,3.2-1.05,5-0.35c0.13,0.05,0.24,0.11,0.35,0.16l0.35,0.35c0.03-0.03,0.08-0.05,0.11-0.11
						c0.86,0.48,1.48,1.13,2.1,1.77c0.89,0.91,1.83,1.88,3.76,2.77c1.59,0.73,2.74,0.89,4.22,1.07c0.38,0.05,0.81,0.11,1.26,0.16
						C161.97,317.87,165.41,318.92,168.87,320.53z"/>
					<path class="st153" d="M165.92,317.81c0.94,0.81,2.1,1.77,2.96,2.71c-3.47-1.61-6.91-2.66-10.32-3.2
						c-0.46-0.05-0.89-0.11-1.26-0.16c-1.48-0.19-2.63-0.35-4.22-1.07c-1.93-0.89-2.88-1.85-3.76-2.77
						c-0.62-0.64-1.24-1.29-2.1-1.77c0.38-0.38,0.67-0.86,0.86-1.34c0.21-0.56,0.3-1.1,0.3-1.53c1.13,0.35,2.28,0.7,3.36,1.1
						c1.8,0.64,3.63,1.64,7.28,3.6C162.83,315.45,164.55,316.66,165.92,317.81z"/>
					<path d="M164.44,51.42c1.21,1.64,0.38,3.9-0.91,5.32c-2.71,2.96-6.85,3.73-11.26,4.3c-1.26,0.16-2.5,0.35-3.76,0.51
						c-0.03-0.13-0.05-0.27-0.08-0.4l-0.64,0.16c0.03,0.11,0.05,0.24,0.08,0.35c-1.75,0.21-3.52,0.48-5.29,0.73
						c-10.24,1.42-20.82,2.88-31.33,3.71c-5.62,0.43-12.33,0.86-19.37,0.81c-5.94-0.05-12.04-0.08-18.06,0.91
						c0.05-0.13,0.08-0.3,0.13-0.43l-0.56-0.19c6.15-1.05,12.44-1.02,18.49-0.97c7.01,0.08,13.7-0.38,19.35-0.81
						c10.45-0.83,21.04-2.28,31.28-3.71c3.22-0.46,6.48-0.89,9.7-1.32c4.27-0.56,8.3-1.32,10.83-4.11c1.16-1.26,1.83-3.2,0.89-4.46
						c-0.67-0.94-1.99-1.24-3.28-1.42c-1.61-0.21-3.28-0.35-4.89-0.51c-4.81-0.43-9.78-0.89-14.16-3.09
						c-2.53-1.29-4.84-3.17-6.85-5.62c-2.82-3.33-5.13-7.68-6.96-13.09c-0.73-2.15-1.64-4.81-3.82-5.62
						c-0.48-0.19-0.99-0.27-1.5-0.27c-1.13,0-2.34,0.38-3.52,0.75c-8.41,2.61-17.14,4.03-25.96,4.22h-0.3
						c-2.45,0.05-4.97,0.11-6.96,1.4c-1.91,1.29-2.96,3.52-3.95,5.7l-0.21,0.46c-1.85,4-4.51,8.63-8.17,12.58
						c-0.13-0.08-0.27-0.19-0.4-0.27l-0.38,0.56c0.11,0.08,0.21,0.13,0.32,0.21c-3.22,3.36-7.12,6.18-11.88,7.71
						c-0.67,0.21-1.34,0.4-2.02,0.59c-1.37,0.38-2.79,0.78-4.08,1.42c-2.15,1.07-3.52,2.77-3.73,4.57c-0.3,2.61,1.93,4.86,4.11,5.88
						c1.75,0.83,3.73,1.21,6.1,1.16c2.66-0.05,5.45-0.64,8.17-1.21c0.99-0.21,2.02-0.43,3.01-0.62c0.21-0.05,0.46-0.08,0.67-0.11
						c-0.05,0.24-0.13,0.48-0.19,0.73c-0.13,0-0.24,0.03-0.38,0.05c-0.97,0.16-1.99,0.38-2.98,0.59c-2.74,0.59-5.56,1.18-8.3,1.24
						c-0.13,0-0.27,0-0.38,0c-2.28,0-4.25-0.4-6.02-1.21c-2.47-1.16-4.81-3.63-4.49-6.58c0.24-2.02,1.77-3.92,4.11-5.11
						c1.34-0.67,2.79-1.07,4.22-1.45c0.64-0.19,1.32-0.38,1.96-0.56c10.34-3.33,16.63-12.98,20.13-20.47l0.19-0.43
						c1.05-2.26,2.12-4.59,4.22-5.99c2.12-1.4,4.76-1.45,7.28-1.5h0.32c8.73-0.19,17.38-1.61,25.74-4.19
						c1.75-0.54,3.68-1.13,5.48-0.48c2.47,0.94,3.47,3.9,4.22,6.05c3.09,9.19,7.63,15.34,13.49,18.3c4.25,2.15,9.14,2.61,13.89,3.04
						c1.61,0.16,3.28,0.3,4.92,0.54C162.15,49.95,163.61,50.27,164.44,51.42z"/>
					<path class="st181" d="M163.9,51.83c0.94,1.26,0.27,3.2-0.89,4.46c-2.53,2.79-6.56,3.55-10.83,4.11
						c-3.22,0.43-6.48,0.86-9.7,1.32c-10.24,1.42-20.82,2.88-31.28,3.71c-5.64,0.43-12.33,0.89-19.35,0.81
						c-6.05-0.05-12.33-0.08-18.49,0.97l-0.08-0.03c0,0.03,0,0.03-0.03,0.05c-0.21,0.03-0.46,0.05-0.67,0.11
						c-0.99,0.19-2.02,0.4-3.01,0.62c-2.71,0.56-5.51,1.16-8.17,1.21c-2.36,0.05-4.35-0.32-6.1-1.16c-2.18-1.02-4.41-3.28-4.11-5.88
						c0.21-1.8,1.59-3.49,3.73-4.57c1.29-0.64,2.71-1.05,4.08-1.42c0.67-0.19,1.34-0.38,2.02-0.59c4.76-1.53,8.65-4.35,11.88-7.71
						c3.39,2.28,6.58,3.55,10.26,4.03c2.1,0.3,4.22,0.38,6.31,0.38c1.4,0,2.74-0.03,4.11-0.05l0.91-0.03
						c0.99-0.03,2.02-0.05,3.01-0.05c5.75-0.13,11.66-0.24,17.41-1.29c8.14-1.5,14.78-4.65,19.16-9.11l0.62-0.51
						c2.02,2.45,4.33,4.33,6.85,5.62c4.38,2.2,9.35,2.66,14.16,3.09c1.61,0.16,3.28,0.3,4.89,0.51
						C161.91,50.59,163.23,50.89,163.9,51.83z"/>
					<path d="M155.14,172.69c0.08,0.19,0.19,0.4,0.24,0.62c-0.21,0.05-0.43,0.08-0.67,0.11c-0.08-0.19-0.13-0.38-0.21-0.54
						c0-0.03-0.03-0.05-0.03-0.08C154.68,172.77,154.93,172.74,155.14,172.69z"/>
					<path d="M155.11,172.61c0,0.03,0.03,0.05,0.03,0.08c-0.21,0.05-0.46,0.08-0.67,0.11c-1.29-3.04-1.96-4.59-3.22-6.88
						c-2.98-5.45-5.13-9.4-6.96-9.14c-3.33,0.46-5.08,13.97-5.21,20.77c-0.11,4.16-0.35,7.87-0.54,10.26
						c-0.13,1.42-0.27,2.9-0.48,4.46c-0.73,5.62-1.13,8.71-2.55,10.13c-0.13,0.13-0.27,0.24-0.4,0.35c0-0.05-0.03-0.13-0.03-0.19
						l-0.64,0.11c0.03,0.16,0.05,0.35,0.08,0.51c-1.96,1.18-4.35,0.7-7.93,0c-3.25-0.64-7.68-1.53-13.76-1.53c-0.05,0-0.11,0-0.16,0
						c-11.88,0.03-17.84,0.05-21.31,0.99l-0.11,0.03c-1.24,0.32-4.43,1.18-6.85-0.27c0-0.05,0.03-0.13,0.03-0.19l-0.43-0.05h-0.03
						c-1.64-1.21-2.12-3.09-2.31-3.9c-1.29-5.08-2.9-10.13-4.46-15.02c-1.18-3.65-2.39-7.42-3.44-11.15
						c-0.78-2.79-1.42-4.78-2.04-6.72c-0.99-3.14-1.88-5.88-3.09-11.07c-0.48-2.1-0.94-4.19-1.34-6.29c0.08-0.3,0.16-0.56,0.27-0.83
						l0.24-0.03c0.46,2.31,0.94,4.68,1.48,6.99c1.21,5.16,2.1,7.87,3.09,11.04c0.62,1.93,1.24,3.92,2.04,6.72
						c1.05,3.73,2.26,7.5,3.41,11.12c1.59,4.89,3.22,9.97,4.49,15.05c0.19,0.75,0.62,2.47,2.07,3.55c2.2,1.61,5.48,0.73,6.72,0.4
						l0.11-0.03c3.55-0.97,9.51-0.99,21.42-1.02c0.05,0,0.11,0,0.16,0c6.21,0,10.67,0.89,13.95,1.53c4.14,0.83,6.42,1.29,8.3-0.59
						c1.29-1.26,1.67-4.27,2.36-9.73c0.21-1.56,0.35-3.01,0.48-4.43c0.19-2.39,0.43-6.07,0.54-10.16c0.08-4.16,1.4-20.88,5.8-21.5
						c0.38-0.05,0.75,0,1.13,0.19c0.05,0.21,0.08,0.43,0.13,0.64l0.64-0.13v-0.03c1.64,1.37,3.41,4.57,5.72,8.81
						c0.16,0.3,0.32,0.56,0.46,0.83c-0.08,0.05-0.16,0.08-0.24,0.11l0.27,0.62c0.08-0.03,0.19-0.08,0.27-0.11
						C153.45,168.69,154.09,170.19,155.11,172.61z"/>
					<path d="M154.5,172.88c0.08,0.16,0.13,0.35,0.21,0.54c-0.11,0.03-0.24,0.05-0.35,0.05l-0.08-0.64c0.05,0,0.13-0.03,0.19-0.03
						C154.47,172.82,154.5,172.85,154.5,172.88z"/>
					<path class="st154" d="M153.29,119.38l-0.78,0.89l-0.59-0.32c-1.45,2.66-2.71,5.45-3.79,8.3c-1.29,3.47-3.44,9.27-3.71,17.06
						c-0.13,3.63,0.19,7.34,0.91,10.99c-0.38-0.19-0.75-0.24-1.13-0.19c-4.41,0.62-5.72,17.33-5.8,21.5
						c-0.11,4.08-0.35,7.77-0.54,10.16c-0.13,1.42-0.27,2.88-0.48,4.43c-0.7,5.45-1.07,8.46-2.36,9.73
						c-1.88,1.88-4.16,1.42-8.3,0.59c-3.28-0.64-7.74-1.53-13.95-1.53c-0.05,0-0.11,0-0.16,0c-11.9,0.03-17.87,0.05-21.42,1.02
						l-0.11,0.03c-1.24,0.32-4.51,1.21-6.72-0.4c-1.45-1.07-1.88-2.79-2.07-3.55c-1.26-5.08-2.9-10.16-4.49-15.05
						c-1.16-3.63-2.36-7.39-3.41-11.12c-0.81-2.79-1.42-4.78-2.04-6.72c-0.99-3.17-1.88-5.88-3.09-11.04
						c-0.54-2.31-1.02-4.68-1.48-6.99l-0.24,0.03c0.51-1.42,1.07-2.45,1.64-3.44c0.99-1.75,1.99-3.52,2.66-7.23
						c0.59-3.28,2.07-14.24-3.9-17.9c-1.77-1.1-4.11-1.4-6.82-0.91c2.69-0.73,6.34-1.26,6.8-1.32c2.15-0.3,3.76-0.43,8.6-0.62
						l2.23-0.08c4.62-0.19,8.06-0.32,10.61-0.75l0.11,0.46c3.49-0.67,8.41-0.89,12.01,1.99c2.47,1.96,3.39,4.76,5.27,10.86
						c1.1,3.63,1.72,6.69,2.18,8.92c0.54,2.69,0.73,3.6,1.34,3.57c0.54-0.03,0.56-0.67,0.64-2.1c0.11-1.8,0.3-4.86,1.56-8.33
						c1.07-2.93,3.17-5.67,7.31-11.15c4.03-5.29,5-5.8,5.51-6.1c2.82-1.48,5.48-1.21,10.77-0.56c5.05,0.64,8.38,1.07,12.12,3.09
						c0.32,0.16,0.59,0.32,0.91,0.51C150.68,117.12,152.08,118.25,153.29,119.38z M114.59,185.86c0.21-1.24-0.13-2.66-0.89-3.55
						c-0.24-0.27-0.99-1.07-1.85-1.07c-0.11,0-0.21,0-0.32,0.03c-1.53,0.32-1.72,2.9-1.72,3.2c-0.05,0.73-0.11,1.91,0.78,2.71
						c0.48,0.46,1.18,0.7,1.83,0.7c0.38,0,0.75-0.08,1.07-0.27C114.06,187.28,114.43,186.66,114.59,185.86z M112.07,159.84
						c0.08-1.21-0.67-2.26-1.4-2.85c-0.48-0.4-1.02-0.59-1.48-0.59c-0.13,0-0.27,0.03-0.38,0.05c-1.05,0.35-1.24,2.2-1.1,3.31
						c0.08,0.56,0.38,2.45,1.59,2.71c0.11,0.03,0.19,0.03,0.3,0.03c0.38,0,0.78-0.13,1.16-0.43
						C111.48,161.54,111.99,160.68,112.07,159.84z"/>
					<path d="M153.07,72.19c0.27,2.98,0.19,4.19-0.73,5.13c-0.48,0.51-1.13,0.83-1.91,0.97l-0.05-0.27c0.03-0.13,0.03-0.27,0.03-0.4
						c0.59-0.13,1.07-0.4,1.45-0.75c0.67-0.7,0.81-1.67,0.54-4.62c-0.35-4.33-0.94-6.77-1.75-7.25c-0.4-0.24-0.89-0.38-1.48-0.38
						c-0.03-0.24-0.08-0.46-0.13-0.67c0.75-0.03,1.42,0.13,1.96,0.48C151.49,64.72,152.51,65.32,153.07,72.19z"/>
					<path d="M152.29,166.43c0.11,0.21,0.21,0.43,0.3,0.62c-0.08,0.03-0.19,0.08-0.27,0.11l-0.27-0.62
						C152.13,166.51,152.21,166.48,152.29,166.43z"/>
					<path d="M151.92,119.94l0.59,0.32c-1.45,2.63-2.69,5.4-3.73,8.22c-1.29,3.44-3.41,9.16-3.68,16.82
						c-0.13,3.82,0.21,7.66,1.02,11.47c-0.27-0.21-0.54-0.38-0.78-0.48c-0.73-3.65-1.05-7.36-0.91-10.99
						c0.27-7.79,2.42-13.6,3.71-17.06C149.2,125.4,150.47,122.6,151.92,119.94z"/>
					<path class="st153" d="M152.4,72.25c0.27,2.96,0.13,3.92-0.54,4.62c-0.38,0.35-0.86,0.62-1.45,0.75
						c0.03-1.77-0.13-3.76-0.32-6.29c-0.19-2.26-0.48-4.51-0.91-6.72c0.59,0,1.07,0.13,1.48,0.38
						C151.46,65.48,152.05,67.92,152.4,72.25z"/>
					<path d="M150.09,71.33c0.19,2.53,0.35,4.51,0.32,6.29c-0.03,0-0.05,0.03-0.11,0.03l0.08,0.38c-0.05,1.93-0.35,3.63-1.07,5.48
						c-1.88,4.73-5.32,7.31-6.45,8.17c-2.63,1.96-5.48,3.06-10.86,4.19c-3.12,0.64-5.32,0.81-8.71,1.07
						c-0.48,0.03-0.97,0.08-1.5,0.13h-0.05l-0.24-0.05c0,0.03,0,0.05,0,0.08c-2.04,0.13-4.54,0.35-7.77,0.73l-0.94,0.11
						c-4.59,0.51-8.03,0.91-11.07,0.91c-1.96,0-3.76-0.16-5.56-0.56c0-0.08,0-0.13,0-0.21l-0.67-0.05c0,0.03,0,0.05,0,0.08
						c-0.67-0.16-1.34-0.35-2.02-0.59c-2.42-0.81-4.22-1.8-6.5-3.04c-5.83-3.2-9.38-5.11-11.85-9.03c-0.08-0.08-0.11-0.13-0.16-0.21
						c-2.04-3.36-2.98-7.42-2.74-12.09c0.03-0.56,0.08-1.13,0.13-1.67c0.16,0,0.32,0.03,0.43,0.05l0.08-0.67
						c-0.11-0.03-0.27-0.03-0.4-0.05c0.13-0.97,0.32-1.91,0.62-2.85c0.24-0.05,0.48-0.11,0.73-0.13c-0.54,1.75-0.83,3.55-0.91,5.35
						c-0.24,4.54,0.67,8.49,2.66,11.72c2.39,3.9,5.7,5.72,11.74,9c2.26,1.24,4.03,2.2,6.4,3.01c5.56,1.88,10.08,1.4,19.02,0.38
						l0.94-0.11c4.25-0.48,7.2-0.7,9.59-0.89c3.36-0.27,5.56-0.43,8.63-1.07c5.27-1.1,8.03-2.18,10.59-4.06
						c1.07-0.83,4.41-3.33,6.23-7.87c1.4-3.52,1.16-6.48,0.73-11.88c-0.27-3.31-0.78-6.56-1.56-9.73c0.21-0.05,0.43-0.08,0.64-0.11
						c0.21,0.78,0.38,1.59,0.54,2.39c-0.13,0-0.3,0-0.43,0.03l0.05,0.67c0.19-0.03,0.35-0.03,0.51-0.03
						C149.61,66.82,149.9,69.08,150.09,71.33z"/>
					<path d="M150.41,77.62c0,0.13,0,0.27-0.03,0.4l-0.08-0.38C150.36,77.65,150.39,77.62,150.41,77.62z"/>
					<path class="st153" d="M149.42,71.39c0.43,5.4,0.67,8.36-0.73,11.88c-1.83,4.54-5.16,7.04-6.23,7.87
						c-2.55,1.88-5.32,2.96-10.59,4.06c-3.06,0.64-5.27,0.81-8.63,1.07c-2.39,0.19-5.35,0.4-9.59,0.89l-0.94,0.11
						c-8.95,1.02-13.46,1.5-19.02-0.38c-2.36-0.81-4.14-1.77-6.4-3.01c-6.05-3.28-9.35-5.11-11.74-9c-1.99-3.22-2.9-7.17-2.66-11.72
						c0.08-1.8,0.38-3.6,0.91-5.35c6.02-0.99,12.12-0.97,18.06-0.91c7.04,0.05,13.76-0.38,19.37-0.81
						c10.51-0.83,21.09-2.28,31.33-3.71c1.77-0.24,3.55-0.51,5.29-0.73C148.64,64.83,149.15,68.08,149.42,71.39z M129.96,74.48
						c2.23-0.73,3.41-4.51,1.91-6.07c-1.16-1.21-3.82-1.05-5.13,0.4c-0.81,0.91-0.89,2.07-0.89,2.45c0,0.35,0,1.59,0.94,2.47
						C127.65,74.59,129,74.83,129.96,74.48z M119.32,91.22c2.18-2.04,2.2-4.89,2.15-5.72l-0.67,0.05c0.05,0.75,0.03,3.33-1.96,5.16
						c-1.4,1.34-3.09,1.56-3.71,1.64c-1.72,0.24-3.44-0.16-5.11-1.13c-2.15-1.29-3.17-3.22-3.57-4.27l-0.62,0.24
						c0.43,1.13,1.5,3.22,3.87,4.59c1.42,0.86,2.93,1.29,4.43,1.29c0.38,0,0.73,0,1.07-0.05C115.91,92.91,117.74,92.67,119.32,91.22
						z M116.13,80.87c0.38-1.37,0.38-2.79,0-4.27l-0.64,0.19c0.35,1.34,0.35,2.63,0,3.9c-0.13,0.51-0.54,2.07-1.26,2.15
						c-0.08-0.03-0.35-0.03-1.05-0.64c-0.08-0.05-0.13-0.11-0.19-0.16c-0.19-0.19-0.38-0.38-0.7-0.32
						c-0.35,0.03-0.48,0.35-0.59,0.54c-0.05,0.11-0.11,0.24-0.16,0.3c-0.32,0.19-1.4-0.21-1.85-0.83c-0.83-1.1-0.89-3.12-0.11-5
						l-0.62-0.27c-0.86,2.1-0.78,4.38,0.19,5.67c0.54,0.75,2.02,1.48,2.74,0.97c0.24-0.13,0.35-0.38,0.43-0.54
						c0.03-0.05,0.05-0.13,0.05-0.16c0.03,0,0.11,0.08,0.16,0.13c0.08,0.05,0.13,0.11,0.24,0.21c0.43,0.35,0.97,0.78,1.42,0.78
						c0.03,0,0.05,0,0.08,0C115.45,83.4,115.94,81.63,116.13,80.87z M92.88,77.22c2.2-0.75,3.39-4.54,1.88-6.1
						c-1.16-1.21-3.82-1.05-5.13,0.4c-0.81,0.91-0.86,2.07-0.86,2.45c0,0.35,0,1.59,0.91,2.5C90.55,77.3,91.89,77.54,92.88,77.22z"
						/>
					<path d="M149.04,63.95c0.05,0.21,0.11,0.43,0.13,0.67c-0.16,0-0.32,0-0.51,0.03l-0.05-0.67
						C148.75,63.95,148.91,63.95,149.04,63.95z"/>
					<path d="M148.42,61.15c0.03,0.13,0.05,0.27,0.08,0.4c-0.21,0.03-0.43,0.05-0.64,0.11c-0.03-0.11-0.05-0.24-0.08-0.35
						L148.42,61.15z"/>
					<path d="M148.34,308.09c0.03,0.16,0.03,0.38,0.03,0.59c-0.21-0.05-0.46-0.13-0.67-0.19c0-0.11,0-0.21-0.03-0.32L148.34,308.09z
						"/>
					<path d="M147.7,308.49c0.21,0.05,0.46,0.13,0.67,0.19c0,0.43-0.08,0.97-0.3,1.53c-0.19,0.48-0.48,0.97-0.86,1.34
						c-0.13-0.11-0.3-0.19-0.46-0.24l-0.11-0.11c0.35-0.35,0.62-0.78,0.81-1.24C147.67,309.4,147.73,308.89,147.7,308.49z"/>
					<path class="st153" d="M147.7,308.49c0.03,0.4-0.03,0.91-0.24,1.48c-0.19,0.46-0.46,0.89-0.81,1.24l0.11,0.11
						c-0.11-0.05-0.21-0.11-0.35-0.16c-1.8-0.7-3.01-0.3-5,0.35c-1.32,0.43-2.93,0.97-5.32,1.45c-2.96,0.56-7.42,1.45-11.98,0.43
						c-3.09-0.7-5.99-2.2-8.71-4.54c-0.46-1.88-0.86-3.06-1.21-4c-0.43-1.26-0.78-2.26-1.02-4.16c-0.38-3.14-0.13-6.48,0.73-9.86
						c6.91,0.91,13.84,1.69,20.72,2.31c2.96,0.27,5.02,0.43,6.56,0.43c0.91,0,1.67-0.05,2.26-0.21c0,0.67-0.13,1.29-0.35,1.88
						c-0.27,0.73-0.56,1.07-1.1,1.77c-0.46,0.59-1.1,1.4-2.04,2.82c-0.99,1.56-1.42,2.47-1.21,3.52c0.13,0.64,0.48,1.21,1.07,1.77
						C141.55,306.72,144.53,307.58,147.7,308.49z"/>
					<path d="M147.21,311.55c-0.03,0.05-0.08,0.08-0.11,0.11l-0.35-0.35C146.92,311.37,147.08,311.45,147.21,311.55z"/>
					<path d="M146.11,156.78v0.03l-0.64,0.13c-0.05-0.21-0.08-0.43-0.13-0.64C145.58,156.41,145.84,156.57,146.11,156.78z"/>
					<path d="M145.04,276.3c2.2,8.97,3.31,13.46,0.43,16.04c-0.4,0.35-0.83,0.62-1.34,0.81c0-0.21,0-0.46-0.03-0.7
						c0.35-0.16,0.64-0.38,0.91-0.62c2.58-2.28,1.5-6.66-0.62-15.37c-1.13-4.57-2.53-10.24-3.87-17.47
						c-1.99-10.69-3.31-17.73-3.6-27.19l-0.05-1.56c-0.08-3.79-0.24-8.95-0.97-16.18c-0.35-3.65-0.83-7.31-1.4-10.88
						c0.19-0.11,0.4-0.27,0.59-0.43c0.62,3.71,1.07,7.47,1.48,11.26c0.73,7.23,0.89,12.41,0.97,16.2l0.05,1.56
						c0.3,9.4,1.61,16.44,3.57,27.09C142.51,266.09,143.91,271.76,145.04,276.3z"/>
					<path class="st226" d="M144.39,276.46c2.12,8.71,3.2,13.09,0.62,15.37c-0.27,0.24-0.56,0.46-0.91,0.62
						c-0.03-0.4-0.08-0.83-0.16-1.26l-0.67,0.13c0.11,0.46,0.16,0.94,0.16,1.37c-1.48,0.38-3.87,0.21-8.76-0.24
						c-8.71-0.81-17.52-1.83-26.23-3.06c0.43-1.88,0.19-3.82,0-5.48l-0.05-0.43c-0.35-2.9-0.24-3.6,0.19-6.26
						c0.62-3.79,1.88-11.72,3.36-35.76c0.27-4.14,0.48-7.95,0.48-13.14c0-4.08-0.13-8.14-0.4-12.12l-0.64,0.05
						c0.24,3.95,0.38,8.01,0.38,12.06c0,5.16-0.21,8.97-0.48,13.09c-1.48,24.02-2.74,31.92-3.36,35.71
						c-0.43,2.74-0.54,3.47-0.19,6.45l0.05,0.43c0.3,2.39,0.64,5.4-1.1,7.79c-2.1,2.9-5.8,3.25-13.97,3.79
						c-6.56,0.43-12.79-0.11-19.1-1.61c-3.76-0.91-8.44-2.42-9.27-4.38c-1.24-3.01,1.64-6.96,3.2-9.06l0.3-0.4
						c6.8-9.35,8.6-19.21,11.88-37.11c0.81-4.43,0.99-7.12,1.26-10.83c0.32-4.49,0.78-10.61,2.53-23.27c0.3-2.18,0.59-4.33,0.91-6.5
						c2.42,1.45,5.62,0.59,6.85,0.27l0.11-0.03c3.47-0.94,9.43-0.97,21.31-0.99c0.05,0,0.11,0,0.16,0c6.07,0,10.51,0.89,13.76,1.53
						c3.57,0.7,5.97,1.18,7.93,0c0.56,3.57,1.05,7.23,1.4,10.88c0.73,7.23,0.89,12.39,0.97,16.18l0.05,1.56
						c0.3,9.46,1.61,16.5,3.6,27.19C141.87,266.22,143.26,271.89,144.39,276.46z"/>
					<path d="M144.1,292.45c0.03,0.24,0.03,0.48,0.03,0.7c-0.21,0.08-0.46,0.16-0.7,0.19c0.03-0.21,0.03-0.43,0-0.64
						C143.69,292.61,143.91,292.53,144.1,292.45z"/>
					<path d="M143.94,291.19c0.08,0.43,0.13,0.86,0.16,1.26c-0.19,0.08-0.4,0.16-0.67,0.24c0-0.43-0.05-0.91-0.16-1.37
						L143.94,291.19z"/>
					<path d="M143.43,292.69c0.03,0.21,0.03,0.43,0,0.64c-0.59,0.16-1.34,0.21-2.26,0.21c-1.53,0-3.6-0.16-6.56-0.43
						c-6.88-0.62-13.81-1.4-20.72-2.31c0.03-0.05,0.03-0.11,0.05-0.16l-0.67-0.16c-0.03,0.08-0.05,0.16-0.05,0.24
						c-1.67-0.21-3.31-0.46-4.97-0.7c0.08-0.21,0.13-0.43,0.19-0.64c8.71,1.24,17.52,2.26,26.23,3.06
						C139.56,292.91,141.95,293.07,143.43,292.69z"/>
					<path d="M135.07,202.57c0,0.05,0.03,0.13,0.03,0.19c-0.19,0.16-0.4,0.32-0.59,0.43c-0.03-0.16-0.05-0.35-0.08-0.51
						L135.07,202.57z"/>
					<path class="st181" d="M134.72,41.19l-0.62,0.51l-0.48-0.46c-4.27,4.35-10.77,7.44-18.78,8.89c-5.7,1.05-11.61,1.16-17.3,1.29
						c-1.02,0-2.02,0.03-3.04,0.05l-0.91,0.03c-3.41,0.08-6.91,0.16-10.32-0.3c-3.55-0.51-6.61-1.69-9.89-3.9
						c3.65-3.95,6.31-8.57,8.17-12.58l0.21-0.46c0.99-2.18,2.04-4.41,3.95-5.7c1.99-1.29,4.51-1.34,6.96-1.4h0.3
						c8.81-0.19,17.55-1.61,25.96-4.22c1.18-0.38,2.39-0.75,3.52-0.75c0.51,0,1.02,0.08,1.5,0.27c2.18,0.81,3.09,3.47,3.82,5.62
						C129.59,33.5,131.9,37.85,134.72,41.19z"/>
					<path d="M133.62,41.24l0.48,0.46c-4.38,4.46-11.02,7.6-19.16,9.11c-5.75,1.05-11.66,1.16-17.41,1.29
						c-0.99,0-2.02,0.03-3.01,0.05l-0.91,0.03c-1.37,0.03-2.71,0.05-4.11,0.05c-2.1,0-4.22-0.08-6.31-0.38
						c-3.68-0.48-6.88-1.75-10.26-4.03c0.16-0.16,0.32-0.32,0.46-0.51c3.28,2.2,6.34,3.39,9.89,3.9c3.41,0.46,6.91,0.38,10.32,0.3
						l0.91-0.03c1.02-0.03,2.02-0.05,3.04-0.05c5.7-0.13,11.61-0.24,17.3-1.29C122.84,48.68,129.35,45.59,133.62,41.24z"/>
					<path d="M131.87,68.41c1.5,1.56,0.32,5.35-1.91,6.07c-0.97,0.35-2.31,0.11-3.17-0.75c-0.94-0.89-0.94-2.12-0.94-2.47
						c0-0.38,0.08-1.53,0.89-2.45C128.06,67.36,130.72,67.2,131.87,68.41z"/>
					<path d="M125.83,111.96l-0.56,0.32c-0.62-1.05-1.16-2.15-1.67-3.25c-0.64-1.48-1.4-3.14-1.85-5.13
						c-0.51-2.15-0.59-4.43-0.24-6.8c0.08-0.03,0.16-0.03,0.24-0.03h0.05l0.38,0.05c-0.35,2.28-0.27,4.51,0.21,6.64
						c0.46,1.91,1.18,3.55,1.83,5C124.7,109.84,125.26,110.91,125.83,111.96z"/>
					<path class="st153" d="M125.26,112.28l0.03,0.05c-0.11,0.03-0.19,0.08-0.3,0.13c-0.62,0.32-1.64,0.86-5.75,6.29
						c-4.19,5.54-6.29,8.3-7.39,11.34c-1.32,3.55-1.48,6.66-1.59,8.52c-0.03,0.38-0.05,0.78-0.08,1.07
						c-0.19-0.56-0.4-1.59-0.62-2.66c-0.46-2.26-1.07-5.32-2.18-8.97c-1.77-5.8-2.77-9.03-5.51-11.2c-3.12-2.5-7.12-2.79-10.45-2.42
						c1.29-0.43,2.28-0.99,3.04-1.83c0.89-0.97,1.42-2.1,1.56-2.47c0.62-1.85,0.46-3.41,0.27-5.05v-0.16
						c-0.24-2.12-0.3-4.35-0.13-6.64c1.8,0.4,3.6,0.56,5.56,0.56c3.04,0,6.48-0.4,11.07-0.91l0.94-0.11
						c3.22-0.38,5.72-0.59,7.77-0.73c-0.35,2.36-0.27,4.65,0.24,6.8c0.46,1.99,1.21,3.65,1.85,5.13
						C124.11,110.14,124.64,111.24,125.26,112.28z"/>
					<path d="M121.5,97.02l0.24,0.05c-0.08,0-0.16,0-0.24,0.03C121.5,97.08,121.5,97.05,121.5,97.02z"/>
					<path d="M121.47,85.5c0.05,0.83,0.03,3.68-2.15,5.72c-1.59,1.45-3.41,1.69-4.11,1.8c-0.35,0.05-0.7,0.05-1.07,0.05
						c-1.5,0-3.01-0.43-4.43-1.29c-2.36-1.37-3.44-3.47-3.87-4.59l0.62-0.24c0.4,1.05,1.42,2.98,3.57,4.27
						c1.67,0.97,3.39,1.37,5.11,1.13c0.62-0.08,2.31-0.3,3.71-1.64c1.99-1.83,2.02-4.41,1.96-5.16L121.47,85.5z"/>
					<path d="M112.36,82.38c0,0.03-0.03,0.11-0.05,0.16c-0.08,0.16-0.19,0.4-0.43,0.54c-0.73,0.51-2.2-0.21-2.74-0.97
						c-0.97-1.29-1.05-3.57-0.19-5.67l0.62,0.27c-0.78,1.88-0.73,3.9,0.11,5c0.46,0.62,1.53,1.02,1.85,0.83
						c0.05-0.05,0.11-0.19,0.16-0.3c0.11-0.19,0.24-0.51,0.59-0.54c0.32-0.05,0.51,0.13,0.7,0.32c0.05,0.05,0.11,0.11,0.19,0.16
						c0.7,0.62,0.97,0.62,1.05,0.64c0.73-0.08,1.13-1.64,1.26-2.15c0.35-1.26,0.35-2.55,0-3.9l0.64-0.19c0.38,1.48,0.38,2.9,0,4.27
						c-0.19,0.75-0.67,2.53-1.85,2.63c-0.03,0-0.05,0-0.08,0c-0.46,0-0.99-0.43-1.42-0.78c-0.11-0.11-0.16-0.16-0.24-0.21
						C112.47,82.46,112.39,82.38,112.36,82.38z"/>
					<path d="M115.4,308.84c0.08,0.32,0.16,0.67,0.24,1.05c-0.3-0.19-0.56-0.43-0.83-0.7c-0.11-0.4-0.19-0.78-0.3-1.13
						C114.81,308.33,115.1,308.6,115.4,308.84z"/>
					<path d="M115.4,308.84c-0.3-0.24-0.59-0.51-0.89-0.78c-0.35-1.29-0.64-2.2-0.94-3.01c-0.46-1.29-0.81-2.31-1.05-4.3
						c-0.4-3.22-0.16-6.58,0.7-10.02c0.24,0.03,0.46,0.05,0.67,0.08c-0.86,3.39-1.1,6.72-0.73,9.86c0.24,1.91,0.59,2.9,1.02,4.16
						C114.54,305.78,114.94,306.96,115.4,308.84z"/>
					<path d="M114.81,309.19c-0.27-0.19-0.51-0.4-0.75-0.64l0.46-0.48C114.62,308.41,114.7,308.79,114.81,309.19z"/>
					<path d="M113.71,182.31c0.75,0.89,1.1,2.31,0.89,3.55c-0.16,0.81-0.54,1.42-1.1,1.75c-0.32,0.19-0.7,0.27-1.07,0.27
						c-0.64,0-1.34-0.24-1.83-0.7c-0.89-0.81-0.83-1.99-0.78-2.71c0-0.3,0.19-2.88,1.72-3.2c0.11-0.03,0.21-0.03,0.32-0.03
						C112.71,181.23,113.47,182.04,113.71,182.31z M113.92,185.72c0.19-1.02-0.11-2.23-0.73-2.98c-0.13-0.13-0.75-0.83-1.37-0.83
						c-0.05,0-0.11,0-0.16,0c-0.78,0.16-1.13,1.64-1.18,2.61c-0.05,0.64-0.11,1.56,0.56,2.18c0.56,0.51,1.5,0.67,2.12,0.32
						C113.55,186.8,113.82,186.34,113.92,185.72z"/>
					<path class="st129" d="M113.2,182.74c0.62,0.75,0.91,1.96,0.73,2.98c-0.11,0.62-0.38,1.07-0.75,1.29
						c-0.62,0.35-1.56,0.19-2.12-0.32c-0.67-0.62-0.62-1.53-0.56-2.18c0.05-0.97,0.4-2.45,1.18-2.61c0.05,0,0.11,0,0.16,0
						C112.44,181.91,113.06,182.6,113.2,182.74z"/>
					<path d="M113.95,290.65c-0.03,0.05-0.03,0.11-0.05,0.16c-0.21-0.03-0.43-0.05-0.67-0.08c0-0.08,0.03-0.16,0.05-0.24
						L113.95,290.65z"/>
					<path d="M112.01,216.19c0.27,3.98,0.4,8.03,0.4,12.12c0,5.19-0.21,9-0.48,13.14c-1.48,24.05-2.74,31.98-3.36,35.76
						c-0.43,2.66-0.54,3.36-0.19,6.26l0.05,0.43c0.19,1.67,0.43,3.6,0,5.48c-0.11-0.03-0.24-0.03-0.35-0.05l-0.11,0.67
						c0.08,0,0.19,0.03,0.27,0.03c-0.21,0.75-0.56,1.45-1.05,2.15c-1.83,2.53-4.97,3.25-9.81,3.73c-1.4,0.11-2.96,0.21-4.65,0.32
						c-1.48,0.08-2.96,0.13-4.41,0.13c-5.05,0-9.97-0.59-14.91-1.77c-2.74-0.64-4.7-1.32-6.1-1.93c-2.98-1.29-3.44-2.39-3.63-2.85
						c-1.4-3.36,1.64-7.47,3.28-9.7l0.27-0.38c6.74-9.27,8.52-19.05,11.77-36.87c0.81-4.38,0.99-7.04,1.26-10.75
						c0.32-4.49,0.78-10.61,2.53-23.3c0.32-2.26,0.62-4.49,0.97-6.69l0.19,0.03h0.03c0.13,0.11,0.27,0.19,0.4,0.24
						c-0.32,2.18-0.62,4.33-0.91,6.5c-1.75,12.66-2.2,18.78-2.53,23.27c-0.27,3.71-0.46,6.4-1.26,10.83
						c-3.28,17.9-5.08,27.76-11.88,37.11l-0.3,0.4c-1.56,2.1-4.43,6.05-3.2,9.06c0.83,1.96,5.51,3.47,9.27,4.38
						c6.31,1.5,12.55,2.04,19.1,1.61c8.17-0.54,11.88-0.89,13.97-3.79c1.75-2.39,1.4-5.4,1.1-7.79l-0.05-0.43
						c-0.35-2.98-0.24-3.71,0.19-6.45c0.62-3.79,1.88-11.69,3.36-35.71c0.27-4.11,0.48-7.93,0.48-13.09c0-4.06-0.13-8.11-0.38-12.06
						L112.01,216.19z"/>
					<path d="M110.67,157c0.73,0.59,1.48,1.64,1.4,2.85c-0.08,0.83-0.59,1.69-1.32,2.23c-0.38,0.3-0.78,0.43-1.16,0.43
						c-0.11,0-0.19,0-0.3-0.03c-1.21-0.27-1.5-2.15-1.59-2.71c-0.13-1.1,0.05-2.96,1.1-3.31c0.11-0.03,0.24-0.05,0.38-0.05
						C109.65,156.41,110.19,156.59,110.67,157z M111.4,159.79c0.08-0.94-0.56-1.8-1.13-2.26c-0.46-0.35-0.94-0.54-1.24-0.43
						c-0.54,0.16-0.78,1.5-0.64,2.58c0.08,0.73,0.4,1.99,1.07,2.12c0.24,0.05,0.56-0.03,0.89-0.27
						C110.91,161.13,111.34,160.41,111.4,159.79z"/>
					<path class="st129" d="M110.27,157.53c0.56,0.46,1.21,1.32,1.13,2.26c-0.05,0.62-0.48,1.34-1.05,1.75
						c-0.32,0.24-0.64,0.32-0.89,0.27c-0.67-0.13-0.99-1.4-1.07-2.12c-0.13-1.07,0.11-2.42,0.64-2.58
						C109.33,157,109.81,157.18,110.27,157.53z"/>
					<path d="M108.09,289.33c0.11,0.03,0.24,0.03,0.35,0.05c-0.05,0.21-0.11,0.43-0.19,0.64c-0.08,0-0.19-0.03-0.27-0.03
						L108.09,289.33z"/>
					<path d="M97.45,296.4c0.21,3.44-0.11,6.72-0.94,9.78c-0.54,1.99-1.05,3.01-1.67,4.22c-0.59,1.16-1.24,2.47-2.15,5.05
						c-0.67,1.88-1.05,3.31-1.37,4.46c-0.62,2.23-0.91,3.36-2.26,4.25c-1.64,1.07-3.31,0.75-6.64,0.16l-0.99-0.16
						c-3.79-0.67-9.51-1.69-13.73-1.83c-1.85-0.05-2.45,0.03-5.78,0.56c-1.83,0.3-4.62,0.75-8.95,1.4c-5.83,0.83-10,1.34-12.92,1.34
						c-2.9,0-4.54-0.51-5.21-1.69c-1.02-1.77-0.46-3.25-0.43-3.31c0.3-0.75,0.86-1.16,1.32-1.48l0.11-0.05
						c1.18-0.89,1.75-1.69,2.31-2.47c0.3-0.43,0.62-0.86,1.02-1.29c1.34-1.45,2.77-1.8,5.59-2.5c1.07-0.27,2.28-0.56,3.79-0.99
						c2.98-0.86,4.06-1.34,4.86-1.69c0.75-0.35,1.32-0.59,2.9-0.94c1.37-0.3,2.82-0.51,4.22-0.73c3.17-0.48,6.18-0.91,7.98-2.2
						c0.35-0.24,0.83-0.64,1.05-1.26c0.3-0.81,0.03-1.64-0.7-3.14c-0.7-1.5-1.24-2.39-1.61-3.04c-0.46-0.75-0.75-1.24-0.94-2.07
						c-0.3-1.32-0.19-2.74,0.38-4.27l0.62,0.21c-0.48,1.4-0.62,2.71-0.35,3.9c0.19,0.73,0.43,1.16,0.86,1.88
						c0.4,0.67,0.94,1.56,1.67,3.09c0.78,1.67,1.07,2.63,0.73,3.65c-0.3,0.81-0.89,1.29-1.32,1.61c-1.93,1.37-5,1.83-8.25,2.31
						c-0.75,0.11-1.5,0.24-2.26,0.35c-0.64,0.11-1.32,0.21-1.93,0.35c-1.5,0.35-2.04,0.56-2.77,0.89c-0.81,0.38-1.91,0.89-4.94,1.75
						c-1.53,0.43-2.79,0.75-3.82,0.99c-2.77,0.7-4.06,1.02-5.27,2.31c-0.38,0.4-0.64,0.81-0.94,1.24c-0.59,0.78-1.21,1.67-2.5,2.61
						l-0.11,0.08c-0.4,0.27-0.83,0.59-1.07,1.18c-0.03,0.03-0.08,0.19-0.11,0.48c-0.05,0.51-0.03,1.29,0.48,2.2
						c1.18,2.04,6.58,1.61,17.49,0.03c4.3-0.64,7.09-1.1,8.92-1.4c3.39-0.54,3.98-0.62,5.88-0.56c4.27,0.13,10.05,1.16,13.86,1.83
						l0.99,0.19c3.14,0.56,4.7,0.83,6.13-0.08c1.13-0.75,1.4-1.72,1.99-3.84c0.32-1.18,0.73-2.61,1.37-4.51
						c0.21-0.64,0.43-1.24,0.64-1.75c0.62-1.53,1.13-2.5,1.56-3.41c0.62-1.18,1.1-2.15,1.61-4.06c0.83-3.01,1.13-6.21,0.91-9.57
						L97.45,296.4z"/>
					<path class="st153" d="M97.4,295.91l0.05,0.48l-0.67,0.05c0.21,3.36-0.08,6.56-0.91,9.57c-0.51,1.91-0.99,2.88-1.61,4.06
						c-0.43,0.91-0.94,1.88-1.56,3.41l-0.56-0.27l-0.4-0.54c-3.14,2.53-6.5,4.06-10,4.54c-4.62,0.67-9-0.54-11.9-1.37
						c-2.34-0.64-3.92-1.32-5.19-1.83c-1.93-0.81-3.12-1.32-4.92-0.75l0.19-0.19c-0.21-0.24-0.51-0.67-0.7-1.26
						c-0.24-0.75-0.19-1.4-0.08-1.8l-0.67-0.13l-0.08-0.38c0.75-0.11,1.5-0.24,2.26-0.35c3.25-0.48,6.31-0.94,8.25-2.31
						c0.43-0.32,1.02-0.81,1.32-1.61c0.35-1.02,0.05-1.99-0.73-3.65c-0.73-1.53-1.26-2.42-1.67-3.09c-0.43-0.73-0.67-1.16-0.86-1.88
						c-0.27-1.18-0.13-2.5,0.35-3.9l0.03-0.05c1.4,0.62,3.36,1.29,6.1,1.93c4.94,1.18,9.86,1.77,14.91,1.77
						c1.45,0,2.93-0.05,4.41-0.13C94.44,296.13,96,296.02,97.4,295.91z"/>
					<path d="M96.3,105.08c0.19,1.64,0.35,3.2-0.27,5.05c-0.13,0.38-0.67,1.5-1.56,2.47c-0.75,0.83-1.75,1.4-3.04,1.83
						c-0.05,0-0.08,0-0.13,0.03c-0.7,0.05-1.34,0.16-1.96,0.3l0.03,0.19c-2.55,0.43-5.99,0.56-10.61,0.75l-2.23,0.08
						c-4.84,0.19-6.45,0.32-8.6,0.62c-0.46,0.05-4.11,0.59-6.8,1.32c2.71-0.48,5.05-0.19,6.82,0.91c5.97,3.65,4.49,14.62,3.9,17.9
						c-0.67,3.71-1.67,5.48-2.66,7.23c-0.56,0.99-1.13,2.02-1.64,3.44l-0.43,0.08c0.05,0.24,0.11,0.51,0.16,0.75
						c-0.24,0.73-0.46,1.56-0.64,2.5c-0.83,4.25-0.38,6.64,0.05,8.97c0.46,2.31,0.86,4.49,0.03,8.22c-0.73,3.09-2.55,5.64-4.3,8.11
						l-0.43,0.59c-1.72,2.45-2.82,5.48-3.28,9c-0.4,3.2-0.27,6.5-0.13,9.67l0.08,2.18c0.21,5.32,0.4,10.83,1.59,16.1
						c0.21,0.91,0.56,1.96,0.94,3.06c1.16,3.41,2.47,7.25,0.46,10.02c-0.67,0.94-1.8,1.85-3.31,2.66c-2.02,1.07-3.76,1.24-5.43,1.4
						l-0.7,0.08c-1.91,0.19-2.66,0.46-3.76,0.86c-0.35,0.13-0.78,0.27-1.29,0.43c-1.59,0.51-2.71,0.83-4.41,1.16
						c-2.18,0.43-3.63,0.73-4.92,0.73c-0.62,0-1.21-0.05-1.83-0.21c-2.39-0.62-3.98-1.69-4.68-3.2c-0.62-1.26-0.35-2.26,0.43-5.19
						c0.13-0.46,0.27-0.97,0.4-1.53c0.86-3.25,1.13-4.92,1.29-6.02c0.21-1.18,0.27-1.67,0.89-2.61c0.78-1.21,1.56-1.85,2.31-2.5
						c0.89-0.73,1.72-1.42,2.55-3.04c0.59-1.13,0.94-2.31,1.21-4.06c0.54-3.39,0.27-5.59-0.13-8.95c-0.24-1.96-0.51-4.38-0.73-7.63
						c-0.11-1.69-0.16-2.93-0.21-4.03c-0.05-1.5-0.11-2.79-0.27-4.68c-0.05-0.81-0.13-1.48-0.19-2.07c-0.16-1.8-0.24-2.9-0.21-5.56
						c0.05-4.62,0.43-8.22,1.07-12.87c0.19,0.21,0.38,0.43,0.59,0.62c-0.59,4.38-0.97,7.87-0.99,12.25
						c-0.03,2.63,0.05,3.71,0.21,5.51c0.05,0.59,0.11,1.26,0.19,2.07c0.16,1.88,0.21,3.2,0.27,4.7c0.05,1.1,0.11,2.34,0.21,4
						c0.19,3.25,0.48,5.67,0.73,7.6c0.4,3.41,0.67,5.64,0.13,9.14c-0.3,1.8-0.67,3.04-1.29,4.27c-0.89,1.72-1.8,2.5-2.71,3.22
						c-0.7,0.62-1.45,1.24-2.18,2.36c-0.54,0.81-0.59,1.16-0.78,2.34c-0.19,1.13-0.46,2.79-1.32,6.07c-0.13,0.56-0.27,1.07-0.4,1.53
						c-0.75,2.82-0.97,3.68-0.48,4.73c0.64,1.32,2.07,2.28,4.25,2.85c1.72,0.43,3.31,0.11,6.45-0.51c1.67-0.35,2.79-0.64,4.35-1.16
						c0.48-0.16,0.89-0.3,1.26-0.43c1.1-0.38,1.91-0.67,3.9-0.89c0.24-0.03,0.48-0.05,0.73-0.08c1.61-0.13,3.25-0.3,5.16-1.32
						c1.42-0.78,2.47-1.59,3.09-2.47c1.8-2.47,0.54-6.15-0.56-9.4c-0.38-1.13-0.75-2.18-0.94-3.12c-1.18-5.35-1.4-10.86-1.61-16.23
						l-0.08-2.18c-0.13-3.2-0.27-6.53,0.13-9.78c0.46-3.63,1.61-6.77,3.41-9.3l0.4-0.59c1.75-2.42,3.52-4.94,4.19-7.9
						c0.32-1.45,0.46-2.63,0.48-3.71c0.05-0.03,0.13-0.03,0.19-0.05l-0.16-0.64c-0.03,0-0.03,0-0.05,0
						c-0.03-1.29-0.24-2.42-0.46-3.55c-0.08-0.48-0.19-0.94-0.27-1.45c0.16-0.03,0.3-0.08,0.43-0.13l-0.21-0.64
						c-0.11,0.03-0.21,0.08-0.32,0.08c-0.24-1.83-0.32-3.95,0.3-7.04c0.7-3.55,1.69-5.29,2.66-7.01c0.99-1.75,1.93-3.41,2.55-6.96
						c0.43-2.31,2.15-13.7-3.57-17.25c-1.72-1.05-4.08-1.32-6.8-0.73l-0.13-0.62c-0.16,0.05-0.32,0.11-0.48,0.13
						c-5.78,1.91-10.75,7.28-14.72,15.99c-1.85,4.03-2.61,9.11-4.08,19.21l-0.16,1.07c-0.03,0-0.03,0-0.05-0.03l-0.46,0.51
						c0.13,0.11,0.24,0.21,0.38,0.3c-0.21,1.59-0.43,3.04-0.62,4.38c-0.11-0.08-0.16-0.16-0.24-0.24l-0.46,0.4
						c0.19-1.42,0.43-2.96,0.67-4.65l0.27-1.85c1.5-10.16,2.26-15.26,4.14-19.37c4.06-8.89,9.16-14.4,15.15-16.34
						c2.69-0.89,6.99-1.5,7.85-1.64c2.18-0.3,3.79-0.43,8.65-0.62l2.23-0.08c8.71-0.35,13.06-0.51,15.26-2.88
						c0.94-1.02,1.37-2.15,1.4-2.23c0.59-1.72,0.43-3.14,0.27-4.78l-0.03-0.16c-0.24-2.18-0.3-4.49-0.13-6.88
						c0.21,0.08,0.43,0.13,0.67,0.19c-0.16,2.28-0.11,4.51,0.13,6.64V105.08z"/>
					<path d="M96.16,98.07c0,0.08,0,0.13,0,0.21c-0.24-0.05-0.46-0.11-0.67-0.19c0-0.03,0-0.05,0-0.08L96.16,98.07z"/>
					<path d="M94.76,71.12c1.5,1.56,0.32,5.35-1.88,6.1c-0.99,0.32-2.34,0.08-3.2-0.75c-0.91-0.91-0.91-2.15-0.91-2.5
						c0-0.38,0.05-1.53,0.86-2.45C90.95,70.07,93.61,69.91,94.76,71.12z"/>
					<path class="st153" d="M92.13,313.22l0.56,0.27c-0.21,0.51-0.43,1.1-0.64,1.75c-0.64,1.91-1.05,3.33-1.37,4.51
						c-0.59,2.12-0.86,3.09-1.99,3.84c-1.42,0.91-2.98,0.64-6.13,0.08l-0.99-0.19c-3.82-0.67-9.59-1.69-13.86-1.83
						c-1.91-0.05-2.5,0.03-5.88,0.56c-1.83,0.3-4.62,0.75-8.92,1.4c-10.91,1.59-16.31,2.02-17.49-0.03
						c-0.51-0.91-0.54-1.69-0.48-2.2h0.27l0.27,0.64c3.95-1.61,7.87-2.58,11.69-2.88c0.46-0.03,0.89-0.05,1.29-0.08
						c1.5-0.08,2.71-0.13,4.43-0.75c2.12-0.78,3.22-1.75,4.19-2.63c0.83-0.73,1.56-1.37,2.82-1.77c1.61-0.48,2.58-0.08,4.51,0.73
						c1.26,0.54,2.85,1.21,5.24,1.85c2.96,0.83,7.42,2.1,12.2,1.4C85.44,317.38,88.91,315.8,92.13,313.22z"/>
					<path d="M91.73,312.68l0.4,0.54c-3.22,2.58-6.69,4.16-10.29,4.68c-4.78,0.7-9.24-0.56-12.2-1.4c-2.39-0.64-3.98-1.32-5.24-1.85
						c-1.93-0.81-2.9-1.21-4.51-0.73c-1.26,0.4-1.99,1.05-2.82,1.77c-0.97,0.89-2.07,1.85-4.19,2.63c-1.72,0.62-2.93,0.67-4.43,0.75
						c-0.4,0.03-0.83,0.05-1.29,0.08c-3.82,0.3-7.74,1.26-11.69,2.88l-0.27-0.64c4.03-1.61,8.03-2.61,11.9-2.9
						c0.46-0.03,0.89-0.05,1.29-0.08c1.48-0.08,2.63-0.13,4.27-0.73c1.99-0.73,3.01-1.61,3.98-2.47c0.78-0.7,1.5-1.37,2.66-1.8
						c0.03,0.05,0.08,0.11,0.11,0.13l0.3-0.27h0.03c1.8-0.56,2.98-0.05,4.92,0.75c1.26,0.51,2.85,1.18,5.19,1.83
						c2.9,0.83,7.28,2.04,11.9,1.37C85.23,316.74,88.58,315.21,91.73,312.68z"/>
					<path d="M89.34,114.76c0.62-0.13,1.26-0.24,1.96-0.3c-0.56,0.19-1.21,0.35-1.93,0.48L89.34,114.76z"/>
					<path d="M84.42,202.22c0,0.05-0.03,0.13-0.03,0.19c-0.13-0.05-0.27-0.13-0.4-0.24L84.42,202.22z"/>
					<path class="st153" d="M75.12,85.44l-0.21,0.16c-2.15,0.16-3.36-0.54-3.9-0.99c-1.37-1.13-1.59-2.98-1.96-6.02
						c-0.05-0.62-0.16-1.88,0-3.44c0.13-1.67,0.24-2.42,0.81-2.98c0.7-0.7,1.77-0.75,2.5-0.7c-0.05,0.54-0.11,1.1-0.13,1.67
						c-0.24,4.68,0.7,8.73,2.74,12.09C75.01,85.31,75.04,85.36,75.12,85.44z"/>
					<path d="M74.91,85.6l0.05,0.67c-0.27,0-0.51,0.03-0.73,0.03c-1.96,0-3.12-0.73-3.65-1.16c-1.59-1.32-1.8-3.25-2.18-6.48
						c-0.08-0.64-0.19-1.96-0.03-3.57c0.13-1.64,0.24-2.63,0.99-3.39c0.89-0.89,2.18-0.99,3.06-0.91c-0.03,0.21-0.05,0.43-0.08,0.67
						c-0.73-0.05-1.8,0-2.5,0.7c-0.56,0.56-0.67,1.32-0.81,2.98c-0.16,1.56-0.05,2.82,0,3.44c0.38,3.04,0.59,4.89,1.96,6.02
						C71.55,85.07,72.76,85.76,74.91,85.6z"/>
					<path d="M73.94,67.39c-0.05,0.13-0.08,0.3-0.13,0.43c-0.24,0.03-0.48,0.08-0.73,0.13c0.05-0.24,0.13-0.48,0.19-0.73
						c0.03-0.03,0.08-0.03,0.11-0.03L73.94,67.39z"/>
					<path d="M72.97,47.04c0.13,0.08,0.27,0.19,0.4,0.27c-0.13,0.19-0.3,0.35-0.46,0.51c-0.11-0.08-0.21-0.13-0.32-0.21L72.97,47.04
						z"/>
					<path d="M73.38,67.2c-0.03,0-0.08,0-0.11,0.03c0.03-0.03,0.03-0.03,0.03-0.05L73.38,67.2z"/>
					<path d="M72.87,70.85l-0.08,0.67c-0.11-0.03-0.27-0.05-0.43-0.05c0.03-0.24,0.05-0.46,0.08-0.67c0,0,0,0,0.03,0
						C72.6,70.82,72.76,70.82,72.87,70.85z"/>
					<path class="st154" d="M67.6,119.19c5.72,3.55,4,14.94,3.57,17.25c-0.62,3.55-1.56,5.21-2.55,6.96
						c-0.97,1.72-1.96,3.47-2.66,7.01c-0.62,3.09-0.54,5.21-0.3,7.04c-3.76,1.29-8.49,1.5-14,0.67c-3.87-0.59-7.82-1.45-10.45-3.87
						l0.16-1.07c1.48-10.1,2.23-15.18,4.08-19.21c3.98-8.71,8.95-14.08,14.72-15.99c0.16-0.03,0.32-0.08,0.48-0.13l0.13,0.62
						C63.51,117.87,65.88,118.14,67.6,119.19z"/>
					<path d="M67.11,147.27l0.43-0.08c-0.11,0.27-0.19,0.54-0.27,0.83C67.22,147.78,67.17,147.51,67.11,147.27z"/>
					<path d="M66.55,163.15l0.16,0.64c-0.05,0.03-0.13,0.03-0.19,0.05c0-0.24,0-0.48-0.03-0.7
						C66.52,163.15,66.52,163.15,66.55,163.15z"/>
					<path d="M66.5,163.15c0.03,0.21,0.03,0.46,0.03,0.7c-2.58,0.64-5.16,0.89-7.71,0.89c-2.82,0-5.64-0.3-8.33-0.67
						c-2.02-0.27-3.98-0.56-5.8-1.21c-1.8-0.62-3.25-1.5-4.35-2.61c0.05-0.27,0.08-0.54,0.13-0.83c1.07,1.21,2.55,2.15,4.43,2.79
						c1.8,0.62,3.71,0.91,5.67,1.18C55.64,164.12,61.12,164.57,66.5,163.15z"/>
					<path class="st153" d="M66.52,163.85c-0.03,1.07-0.16,2.26-0.48,3.71c-0.67,2.96-2.45,5.48-4.19,7.9l-0.4,0.59
						c-1.8,2.53-2.96,5.67-3.41,9.3c-0.4,3.25-0.27,6.58-0.13,9.78l0.08,2.18c0.21,5.37,0.43,10.88,1.61,16.23
						c0.19,0.94,0.56,1.99,0.94,3.12c1.1,3.25,2.36,6.93,0.56,9.4c-0.62,0.89-1.67,1.69-3.09,2.47c-1.91,1.02-3.55,1.18-5.16,1.32
						c-0.24,0.03-0.48,0.05-0.73,0.08c-1.99,0.21-2.79,0.51-3.9,0.89c-0.38,0.13-0.78,0.27-1.26,0.43
						c-1.56,0.51-2.69,0.81-4.35,1.16c-3.14,0.62-4.73,0.94-6.45,0.51c-2.18-0.56-3.6-1.53-4.25-2.85
						c-0.48-1.05-0.27-1.91,0.48-4.73c0.13-0.46,0.27-0.97,0.4-1.53c0.86-3.28,1.13-4.94,1.32-6.07c0.19-1.18,0.24-1.53,0.78-2.34
						c0.73-1.13,1.48-1.75,2.18-2.36c0.91-0.73,1.83-1.5,2.71-3.22c0.62-1.24,0.99-2.47,1.29-4.27c0.54-3.49,0.27-5.72-0.13-9.14
						c-0.24-1.93-0.54-4.35-0.73-7.6c-0.11-1.67-0.16-2.9-0.21-4c-0.05-1.5-0.11-2.82-0.27-4.7c-0.08-0.81-0.13-1.48-0.19-2.07
						c-0.16-1.8-0.24-2.88-0.21-5.51c0.03-4.38,0.4-7.87,0.99-12.25c1.1,1.1,2.55,1.99,4.35,2.61c1.83,0.64,3.79,0.94,5.8,1.21
						c2.69,0.38,5.51,0.67,8.33,0.67C61.36,164.74,63.94,164.49,66.52,163.85z"/>
					<path class="st180" d="M66.04,159.6c0.21,1.13,0.43,2.26,0.46,3.55c-5.37,1.42-10.86,0.97-15.93,0.24
						c-1.96-0.27-3.87-0.56-5.67-1.18c-1.88-0.64-3.36-1.59-4.43-2.79c0.19-1.34,0.4-2.79,0.62-4.38c2.74,2.31,6.66,3.17,10.51,3.76
						c2.23,0.32,4.33,0.51,6.29,0.51c2.96,0,5.59-0.38,7.9-1.16C65.85,158.66,65.96,159.12,66.04,159.6z"/>
					<path d="M65.99,157.37l0.21,0.64c-0.13,0.05-0.27,0.11-0.43,0.13c-0.03-0.21-0.08-0.46-0.11-0.7
						C65.77,157.45,65.88,157.4,65.99,157.37z"/>
					<path d="M65.66,157.45c0.03,0.24,0.08,0.48,0.11,0.7c-2.31,0.78-4.94,1.16-7.9,1.16c-1.96,0-4.06-0.19-6.29-0.51
						c-3.84-0.59-7.77-1.45-10.51-3.76l0.13-0.78c2.63,2.42,6.58,3.28,10.45,3.87C57.17,158.96,61.9,158.74,65.66,157.45z"/>
					<path d="M59.91,313.08l-0.19,0.19H59.7c-0.13,0.05-0.27,0.08-0.4,0.13c-0.32-0.4-0.59-0.89-0.73-1.4
						c-0.27-0.89-0.21-1.64-0.11-2.12l0.67,0.13c-0.11,0.4-0.16,1.05,0.08,1.8C59.4,312.41,59.7,312.84,59.91,313.08z"/>
					<path d="M59.7,313.27l-0.3,0.27c-0.03-0.03-0.08-0.08-0.11-0.13C59.43,313.35,59.56,313.33,59.7,313.27z"/>
					<path class="st153" d="M58.57,312.01c0.13,0.51,0.4,0.99,0.73,1.4c-1.16,0.43-1.88,1.1-2.66,1.8
						c-0.97,0.86-1.99,1.75-3.98,2.47c-1.64,0.59-2.79,0.64-4.27,0.73c-0.4,0.03-0.83,0.05-1.29,0.08c-3.87,0.3-7.87,1.29-11.9,2.9
						h-0.27c0.03-0.3,0.08-0.46,0.11-0.48c0.24-0.59,0.67-0.91,1.07-1.18l0.11-0.08c1.29-0.94,1.91-1.83,2.5-2.61
						c0.3-0.43,0.56-0.83,0.94-1.24c1.21-1.29,2.5-1.61,5.27-2.31c1.02-0.24,2.28-0.56,3.82-0.99c3.04-0.86,4.14-1.37,4.94-1.75
						c0.73-0.32,1.26-0.54,2.77-0.89c0.62-0.13,1.29-0.24,1.93-0.35l0.08,0.38C58.36,310.37,58.3,311.12,58.57,312.01z"/>
					<path d="M41.21,154.26l-0.13,0.78c-0.13-0.08-0.24-0.19-0.38-0.3l0.46-0.51C41.19,154.26,41.19,154.26,41.21,154.26z"/>
					<path d="M40.22,159.17c0.08,0.08,0.13,0.16,0.24,0.24c-0.05,0.3-0.08,0.56-0.13,0.83c-0.21-0.19-0.4-0.4-0.59-0.62
						c0-0.03,0.03-0.05,0.03-0.05L40.22,159.17z"/>
					<path d="M39.76,159.58c0,0-0.03,0.03-0.03,0.05l-0.03-0.03L39.76,159.58z"/>
				</g>
			</g>
		</g>
	</g>
</g>
<g id="NATURALEZA" class="st0">
</g>
<g id="Oficios" class="st0">
</g>
<g id="comunidades" class="st0">
</g>
<g id="zona" class="st0">
</g>
<g id="EQUIPAMIENTO" class="st0">
</g>
<g id="texto_mapa" class="st0">
</g>
<g id="nombre_reserva" class="st0">
</g>
</svg>
