<svg xmlns="http://www.w3.org/2000/svg" viewBox="0 0 221 316" width="256" height="366"><style>tspan { white-space:pre }.shp0 { fill: #ffffff } .shp1 { fill: #000000 } .shp2 { fill: #333333 } .shp3 { fill: #7c411e } .shp4 { fill: #c7b299 } .shp5 { fill: #fd1a16 } .shp6 { fill: #c2000b } .shp7 { fill: #beac83 } .shp8 { fill: #f2f91c } .shp9 { fill: #4d1f03 } .shp10 { fill: #26120b } </style><g ></g><g ><g ><path class="shp0" d="M30.24 310.18C39.47 310.59 43 312.12 53.51 311.51C62.01 311.02 66.31 310.72 68.77 307.89C74.07 301.77 67.95 290.64 73.73 286.15C74.04 285.91 76.43 283.89 78.31 284.62C81.26 285.78 79.36 292.34 82.7 301.21C84.31 305.47 85.66 309.08 88.99 310.74C93.82 313.16 97.11 308.64 105.96 308.83C110.45 308.93 110.05 310.1 120.64 312.83C130.5 315.37 135.51 316.6 139.52 314.55C143.11 312.71 146.18 308.74 146.39 304.44C146.7 297.97 140.39 293.29 138.19 291.66C129.52 285.23 121.81 287.86 119.88 283.27C118.32 279.56 123.02 277.06 124.46 269.73C125.97 261.99 122.1 257.77 118.55 247.04C116.03 239.41 115.4 232.55 114.16 218.82C113.38 210.15 113.44 202.24 113.59 186.78C113.88 157.77 115.21 155.81 116.45 155.51C120.11 154.6 126.07 167.41 129.23 174.2C132.76 181.78 134.5 185.67 133.23 190.03C131.48 196.08 126.11 196.05 124.46 202.23C123.16 207.09 124.79 213.43 129.42 217.3C134.38 221.45 141.6 221.77 146.2 219.02C151.37 215.92 149.42 211.19 155.16 204.91C160.87 198.65 164.51 201.47 170.99 195.38C173.5 193.02 173.18 192.38 182.05 176.88C187.17 167.93 188.74 165.58 191.39 165.25C195.63 164.71 196.88 170.05 202.64 171.16C210 172.57 219.65 166.1 220.76 159.15C221.05 157.35 220.6 156.57 215.8 145.61C210.76 134.1 211.07 134.54 210.08 132.64C207.11 126.94 204.57 123.41 199.97 117C192.68 106.85 190.77 105.89 188.91 105.75C185.42 105.48 182.45 108.1 180.14 110.14C176.21 113.61 174.64 117.71 174.04 119.67C173.3 122.08 172.19 125.73 173.47 129.59C175.52 135.76 181.75 136.62 181.48 140.65C181.4 141.8 180.85 142.35 177.67 145.99C175.3 148.7 172.97 151.46 170.61 154.19C163.67 162.22 163.6 167.72 161.46 167.54C158.91 167.32 158.85 159.5 154.02 144.85C152.69 140.8 151.32 136.65 148.87 131.5C147.93 129.52 145.87 125.39 134.38 109.19C126.65 98.3 125.85 97.72 124.85 97.18C116.42 92.59 108.68 98.22 102.73 92.79C100.2 90.49 98.22 86.4 99.49 84.02C101.75 79.77 112.02 85.36 120.47 79.63C126.42 75.6 128.12 68.21 128.48 66.66C130.6 57.47 125.22 53.31 128.29 48.16C131.79 42.3 140.75 44.26 141.83 39.96C143.03 35.18 132.95 28.78 131.91 28.14C122.27 22.13 116.85 25.64 111.51 19.37C109.67 17.2 107.11 13.12 105.22 9.45C102.71 4.61 102.73 3.18 100.83 1.82C98.13 -0.11 95.02 0.57 87.48 1.82C81.84 2.76 75.87 3.75 71.08 4.3C58.89 5.7 56.86 3.93 52.58 6.59C48.55 9.09 46.42 13.37 44 18.03C41.04 23.73 41.51 25.78 38.47 29C36.36 31.24 35.47 30.95 29.32 34.63C22.01 38.99 18.35 41.24 17.88 44.36C17.37 47.69 19.88 51.37 22.58 53.2C27.23 56.34 31.61 53.42 34.47 56.57C36.33 58.62 35.01 60.34 36.76 64.58C38.48 68.75 41.63 71.13 43.05 72.21C49.09 76.77 52.58 74.01 57.92 78.12C61.49 80.87 64.83 85.87 63.45 89.37C63.12 90.21 62.14 91.93 56.78 93.57C48.92 95.96 44.49 94.24 38.85 94.71C29.38 95.51 22.68 102.01 19.97 104.63C11.24 113.08 9.51 123.86 8.21 131.9C7.21 138.09 7.54 146.28 8.21 162.67C8.72 175.15 9.35 178.67 7.7 185.3C6.78 189.01 4.55 196.06 3.12 200.56C0.63 208.44 -0.66 211.91 1.09 215.31C2.67 218.39 5.83 219.65 7.7 220.4C15.73 223.6 23.89 219.63 27.53 217.86C32.3 215.54 36.06 213.71 37.7 209.72C39.61 205.08 36.69 202.27 35.41 193.19C34.45 186.41 35.13 181.29 35.92 175.39C36.99 167.39 39.9 154.66 42.53 154.79C43.56 154.84 44.54 156.88 47.11 171.32C49.51 184.86 50.71 191.64 50.92 196.24C51.57 210.53 48.44 232.32 37.19 250.91C33.51 256.99 28.93 262.78 29.82 270.74C30.7 278.58 36.13 281.9 34.4 285.49C31.8 290.87 18.86 284.92 9.23 292.36C2.98 297.18 -0.44 306.53 2.36 310.41C5.2 314.33 12.19 309.39 30.24 310.18Z" /><g ><g ><g ><path class="shp1" d="M216.99 156.23C217.04 157.01 216.75 157.6 216.05 158.65C214.63 160.85 213.23 162.36 211.16 164.51C210.17 165.53 209.6 166.07 209.23 166.42C208.83 166.8 208.61 166.9 208.37 166.93C207.32 167.17 205.47 167.04 201.6 162.85C199.5 160.65 197.7 158.2 196.2 155.62L196.17 155.59C196.36 155.46 196.49 155.29 196.55 155.03C196.6 154.95 196.6 154.87 196.6 154.76C196.71 154.92 196.79 155.06 196.84 155.22C198.34 157.75 200.15 160.14 202.16 162.31C206.19 166.61 207.67 166.26 208.18 166.15C208.45 166.1 208.69 165.88 210.57 163.95C212.64 161.83 214.01 160.38 215.35 158.23C216.05 157.24 216.21 156.73 216.18 156.27C216.13 155.3 215.37 154.68 214.35 153.88L213.97 153.5C212.76 152.45 211.42 150.95 208.81 147.91L208.7 147.8C206.93 145.78 206.07 144.79 205.26 143.37C204.27 141.57 203.76 139.98 203 137.4C202.68 136.24 202.52 135.57 202.38 134.93C202.33 134.77 202.27 134.61 202.22 134.45C202.06 133.94 201.9 133.35 201.68 132.46C201.14 130.71 200.47 128.73 199.99 127.62C199.61 126.71 198.7 124.58 191.1 117.3C186.72 113.05 185.56 112.41 184.57 112.62C184.41 112.7 184.25 112.75 184.11 112.89C183.9 113.1 183.71 113.43 183.38 113.96C183 114.66 182.49 115.57 181.53 116.84C180.67 118.08 179.86 118.96 179.17 119.72C177.99 121.06 177.07 122.03 176.16 123.99C175.7 124.96 175.49 125.71 175.57 126.62C175.78 128.26 177.07 129.41 177.61 129.84C179.49 131.4 180.75 133.39 181.96 135.32C182.74 136.53 183.55 137.74 184.43 138.84C185.8 140.51 187.04 142.01 188.14 143.38L187.31 143.62C186.24 142.3 185.08 140.88 183.79 139.32C182.88 138.19 182.1 136.98 181.32 135.77C180.11 133.86 178.85 131.95 177.18 130.5C176.48 129.91 175 128.65 174.79 126.71C174.63 125.61 174.95 124.69 175.43 123.65C176.4 121.58 177.39 120.45 178.57 119.16C179.24 118.38 180.05 117.55 180.91 116.34C181.8 115.1 182.31 114.19 182.71 113.57C183.25 112.63 183.52 112.09 184.38 111.88C185.83 111.48 187.2 112.39 191.69 116.72C199.4 124.11 200.32 126.26 200.75 127.28C201.23 128.46 201.91 130.42 202.44 132.22C202.82 133.4 202.98 134.07 203.11 134.72C203.27 135.36 203.43 136.04 203.78 137.14C204.59 139.77 204.99 141.22 205.96 142.94C206.71 144.31 207.57 145.28 209.32 147.27L209.05 147.65L209.37 147.35C212 150.39 213.32 151.86 214.48 152.86L214.86 153.21C215.95 154.16 216.94 154.91 216.99 156.23Z" /><path class="shp2" d="M216.19 156.25C216.22 156.71 216.06 157.22 215.36 158.21C214.02 160.36 212.65 161.81 210.58 163.93C208.7 165.86 208.46 166.08 208.19 166.13C207.68 166.24 206.2 166.59 202.17 162.29C200.15 160.11 198.35 157.72 196.85 155.2C196.8 155.04 196.72 154.9 196.61 154.74C196.8 153.72 195.88 152.54 193.63 149.77C190.67 146.2 189.9 145.28 189.55 145.07C189.12 144.53 188.66 143.97 188.18 143.38L191.46 142.36L192.62 143.49C194.96 141.15 197.32 138.81 199.71 136.42L201.7 134.46L202.26 134.43C202.31 134.59 202.37 134.75 202.42 134.91C202.55 135.55 202.72 136.23 203.04 137.38C203.79 139.96 204.3 141.54 205.3 143.35C206.11 144.77 206.97 145.77 208.74 147.78L208.85 147.89C211.46 150.93 212.8 152.43 214.01 153.48L214.39 153.86C215.38 154.67 216.13 155.29 216.19 156.25Z" /><path class="shp2" d="M200.58 133.36L198.62 135.29C196.2 137.65 193.84 139.99 191.45 142.36L188.17 143.38C187.07 142.01 185.83 140.5 184.46 138.84C183.57 137.74 182.77 136.53 181.99 135.32C180.78 133.39 179.52 131.4 177.64 129.84C177.1 129.41 175.81 128.25 175.6 126.62C175.52 125.71 175.73 124.95 176.19 123.99C177.1 122.03 178.02 121.06 179.2 119.72C179.9 118.97 180.7 118.08 181.56 116.84C182.53 115.58 183.04 114.66 183.41 113.96C183.73 113.42 183.92 113.1 184.14 112.89C184.27 112.76 184.44 112.7 184.6 112.62C185.59 112.41 186.75 113.05 191.13 117.3C198.73 124.58 199.65 126.7 200.02 127.62C200.5 128.72 201.18 130.71 201.71 132.46C201.92 133.35 202.09 133.94 202.25 134.45L201.69 134.48L200.58 133.36Z" /><path class="shp1" d="M200.58 133.36L201.68 134.46L199.69 136.42C197.3 138.81 194.93 141.15 192.6 143.49L191.44 142.36C193.83 140 196.2 137.66 198.61 135.29L200.58 133.36Z" /><path class="shp1" d="M193.62 149.78C195.88 152.55 196.79 153.73 196.6 154.75C195.01 152.12 192.89 149.3 189.53 145.08C189.88 145.29 190.66 146.2 193.62 149.78Z" /><path class="shp1" d="M196.6 154.75C196.6 154.86 196.6 154.94 196.55 155.02C196.5 155.29 196.36 155.45 196.17 155.58C196.04 155.28 195.9 155.07 195.74 154.83C195.77 154.83 195.79 154.8 195.82 154.75C196.03 154.08 195.28 153.06 193 150.29C190.88 147.74 189.48 145.99 189.18 145.86C189.15 145.83 189.13 145.81 189.07 145.81C188.83 145.49 188.59 145.25 188.34 144.9C188.74 144.87 189.15 144.93 189.52 145.09C192.89 149.29 195.02 152.12 196.6 154.75Z" /><path class="shp1" d="M196.17 155.58L196.2 155.61C195.5 156.36 194.18 156.63 193.41 156.77L193.17 156.82C189.22 157.63 186.64 162.38 184.73 165.85C184.03 167.14 183.44 168.24 182.88 168.97C176.08 177.65 168.85 184.04 162.54 189.66C162.51 189.69 162.46 189.71 162.43 189.74C162.38 189.47 162.3 189.18 162.19 188.88C168.45 183.34 175.54 177.03 182.21 168.46C182.75 167.79 183.37 166.69 184.06 165.48C186.02 161.88 188.74 156.94 193.01 156.08L193.31 156C194.06 155.87 195.41 155.62 195.76 154.84C195.9 155.07 196.04 155.29 196.17 155.58Z" /><path class="shp1" d="M193 150.29C195.28 153.06 196.04 154.08 195.82 154.75C195.79 154.8 195.77 154.83 195.74 154.83C194.18 152.33 192.19 149.67 189.08 145.8C189.13 145.8 189.16 145.83 189.19 145.85C189.48 145.99 190.88 147.74 193 150.29Z" /><path class="shp3" d="M195.74 154.83C195.39 155.61 194.05 155.85 193.29 155.99L192.99 156.07C188.72 156.93 186 161.87 184.04 165.47C183.34 166.68 182.72 167.78 182.19 168.45C175.53 177.02 168.43 183.34 162.17 188.87C161.55 186.69 160.53 184.09 159.35 181.05C158.81 179.68 158.25 178.2 157.66 176.64C158.82 175.38 159.76 174.41 160.59 173.52C162.87 171.1 164.35 169.52 167.71 165.73C168.89 164.36 170.05 163.02 171.18 161.73C180.07 151.49 186.04 144.64 189.08 145.8C192.19 149.67 194.18 152.33 195.74 154.83Z" /><path class="shp1" d="M189.53 145.08C189.15 144.92 188.75 144.87 188.35 144.89C188.03 144.49 187.68 144.06 187.33 143.63L188.16 143.39C188.65 143.97 189.1 144.54 189.53 145.08Z" /><path class="shp1" d="M188.35 144.89C188.59 145.24 188.83 145.48 189.08 145.8C186.04 144.64 180.08 151.5 171.18 161.73C170.05 163.02 168.9 164.36 167.71 165.73C164.35 169.52 162.87 171.1 160.59 173.52C159.76 174.41 158.82 175.37 157.66 176.64C157.55 176.34 157.42 176.08 157.34 175.78C158.39 174.65 159.25 173.74 160 172.93C162.26 170.59 163.76 168.98 167.12 165.19C168.3 163.82 169.46 162.48 170.56 161.21C179.16 151.31 184.7 144.99 188.35 144.89Z" /><path class="shp1" d="M162.42 189.73C163.15 192.52 163.12 194.54 161.8 195.72C160.94 196.47 159.11 197.25 157.39 197.6C156.23 197.84 155.62 197.79 154.84 197.71C154.54 197.68 154.22 197.63 153.85 197.63C154.04 197.42 154.25 197.2 154.47 197.01C154.63 197.01 154.77 197.01 154.9 197.04C155.68 197.12 156.22 197.17 157.26 196.96C159.06 196.58 160.7 195.78 161.34 195.21C162.39 194.3 162.41 192.58 161.85 190.24C162.05 190.08 162.23 189.92 162.42 189.73Z" /><path class="shp1" d="M162.42 189.73C162.23 189.92 162.04 190.08 161.86 190.24C161.81 189.94 161.73 189.65 161.65 189.35C161.76 189.24 161.89 189.14 162 189.03C162.05 188.98 162.13 188.92 162.19 188.87C162.29 189.17 162.37 189.46 162.42 189.73Z" /><path class="shp3" d="M162.18 188.87C162.13 188.92 162.05 188.98 161.99 189.03C161.88 189.14 161.75 189.24 161.64 189.35C161 187.12 159.92 184.41 158.71 181.29C158.2 180.03 157.69 178.66 157.12 177.21C157.31 177.02 157.47 176.83 157.66 176.65C158.25 178.21 158.82 179.69 159.35 181.06C160.54 184.09 161.56 186.7 162.18 188.87Z" /><path class="shp4" d="M161.86 190.24C162.42 192.58 162.4 194.3 161.35 195.21C160.71 195.77 159.07 196.58 157.27 196.96C156.22 197.17 155.68 197.12 154.91 197.04C154.78 197.01 154.64 197.01 154.48 197.01C156.78 194.76 159.25 192.55 161.86 190.24Z" /><path class="shp1" d="M161.64 189.36C161.72 189.66 161.8 189.95 161.85 190.25C159.24 192.56 156.77 194.76 154.46 197.02C154.14 196.97 153.79 196.94 153.39 196.94C155.97 194.41 158.71 191.94 161.64 189.36Z" /><path class="shp3" d="M158.71 181.3C159.92 184.42 160.99 187.13 161.64 189.36C158.71 191.94 155.97 194.41 153.39 196.94C152.85 196.94 152.18 196.97 151.32 197.02C151 197.05 150.73 197.07 150.46 197.1C149.25 197.23 148.5 197.29 147.58 196.89C146.67 196.51 146.08 195.87 145.73 195.41C144.84 194.31 144.09 193.15 143.47 192.05C145.08 190.33 146.56 188.69 148.04 187.05L148.63 186.46C152.47 182.21 155.13 179.34 157.12 177.22C157.69 178.66 158.2 180.03 158.71 181.3Z" /><path class="shp1" d="M157.34 175.79C157.42 176.09 157.55 176.35 157.66 176.65C157.47 176.84 157.31 177.03 157.12 177.21C157.01 176.94 156.91 176.65 156.8 176.35C156.99 176.16 157.16 175.98 157.34 175.79Z" /><path class="shp1" d="M156.81 176.35C156.92 176.65 157.02 176.94 157.13 177.21C155.14 179.33 152.48 182.21 148.64 186.45L148.05 187.04C146.57 188.68 145.09 190.32 143.48 192.04C143.35 191.8 143.21 191.53 143.08 191.29C144.64 189.65 146.04 188.09 147.43 186.53L148.05 185.91C152.05 181.48 154.79 178.53 156.81 176.35Z" /><path class="shp1" d="M157.34 175.79C157.15 175.98 156.99 176.17 156.8 176.35C155.51 172.88 154.17 168.96 153.04 164.77C151.37 158.54 151.08 154.69 150.81 151.63C150.6 149.05 150.41 146.85 149.49 143.92C149.68 143.73 149.84 143.54 150 143.33C151.05 146.5 151.24 148.84 151.48 151.58C151.75 154.78 152.04 158.4 153.68 164.61C154.76 168.64 156.05 172.4 157.34 175.79Z" /><path class="shp4" d="M156.81 176.35C154.79 178.53 152.05 181.48 148.05 185.92L147.43 186.54C146.03 188.1 144.64 189.66 143.08 191.3C141.82 188.88 141.25 186.92 141.23 186.89C141.18 186.7 141.18 186.7 141.07 186.49C139.78 184.02 136.05 175.82 133.14 169.4C131.47 165.64 130.61 163.76 130.13 162.63C128.95 159.97 128.09 157.95 127.39 156.32C131.5 155.65 135.4 153.69 138.73 151.83C142.49 149.73 146.63 147.21 149.5 143.93C150.41 146.86 150.6 149.06 150.82 151.64C151.09 154.7 151.38 158.55 153.05 164.78C154.17 168.96 155.52 172.89 156.81 176.35Z" /><path class="shp1" d="M154.47 197.01C154.26 197.2 154.04 197.41 153.85 197.63C153.53 197.6 153.18 197.6 152.75 197.6C152.96 197.39 153.18 197.14 153.39 196.93C153.8 196.93 154.15 196.96 154.47 197.01Z" /><path class="shp1" d="M153.85 197.63C149.79 201.61 146.3 205.77 143.53 210.8L143.45 210.96C142.86 212.06 141.62 214.29 139.93 215.82C138.94 216.71 137.75 217.35 136.41 217.41C133.64 217.44 130.31 214.8 129.21 212.87L129.02 212.57C128.72 212.06 128.24 211.25 127.52 210.21C127.14 209.7 126.9 209.38 126.74 209.22C126.53 208.95 126.39 208.82 126.31 208.52C126.12 207.58 126.71 206.75 127.76 205.81C128.38 205.27 129.08 204.71 129.96 204.06C130.63 203.55 131.28 203.07 131.98 202.47C133.24 201.45 134.43 200.19 135.55 199.03C136.17 198.41 136.76 197.79 137.38 197.15C139.31 195.27 141.03 193.5 142.59 191.83C142.7 192.07 142.83 192.31 142.99 192.56C141.46 194.2 139.79 195.89 137.94 197.75C137.35 198.34 136.73 198.96 136.14 199.6C134.98 200.78 133.8 202.05 132.49 203.12C131.79 203.66 131.12 204.19 130.45 204.71C128.57 206.13 126.93 207.37 127.12 208.34C127.15 208.45 127.17 208.47 127.33 208.69C127.52 208.9 127.79 209.23 128.16 209.76C128.97 210.81 129.42 211.67 129.69 212.21L129.85 212.48C130.87 214.2 133.91 216.67 136.38 216.62C139.5 216.54 141.86 212.21 142.75 210.63L142.8 210.47C145.49 205.58 148.85 201.52 152.69 197.65C152.69 197.62 152.72 197.62 152.74 197.62C153.18 197.61 153.53 197.61 153.85 197.63Z" /><path class="shp3" d="M153.39 196.93C153.18 197.14 152.96 197.39 152.75 197.6C152.72 197.6 152.7 197.6 152.7 197.63C152.32 197.63 151.89 197.66 151.38 197.68C151.06 197.71 150.79 197.73 150.52 197.76C150.01 197.81 149.55 197.87 149.12 197.87C148.5 197.87 147.94 197.79 147.32 197.49C146.27 197.03 145.63 196.33 145.2 195.82C144.34 194.75 143.59 193.62 143 192.54C143.16 192.38 143.32 192.19 143.48 192.03C144.1 193.13 144.85 194.29 145.74 195.39C146.09 195.85 146.68 196.49 147.59 196.87C148.5 197.27 149.26 197.22 150.47 197.08C150.74 197.05 151.01 197.03 151.33 197C152.18 196.96 152.86 196.93 153.39 196.93Z" /><path class="shp3" d="M152.69 197.63C148.85 201.5 145.49 205.56 142.8 210.45L142.75 210.61C141.86 212.2 139.5 216.52 136.38 216.6C133.91 216.65 130.87 214.18 129.85 212.46L129.69 212.19C129.42 211.65 128.96 210.79 128.16 209.74C127.78 209.2 127.52 208.88 127.33 208.67C127.17 208.46 127.14 208.43 127.12 208.32C126.93 207.35 128.57 206.12 130.45 204.69C131.12 204.18 131.79 203.64 132.49 203.1C133.81 202.03 134.99 200.76 136.14 199.58C136.73 198.94 137.35 198.32 137.94 197.73C139.79 195.88 141.46 194.18 142.99 192.54C143.58 193.61 144.33 194.74 145.19 195.82C145.62 196.33 146.26 197.03 147.31 197.49C147.93 197.79 148.49 197.87 149.11 197.87C149.54 197.87 150 197.82 150.51 197.76C150.78 197.73 151.05 197.71 151.37 197.68C151.89 197.66 152.32 197.63 152.69 197.63Z" /><path class="shp1" d="M150.3 142.98C150.22 143.09 150.11 143.22 150 143.33C149.92 143.09 149.84 142.85 149.76 142.6L149.76 142.57L150.3 142.98Z" /><path class="shp1" d="M150.01 143.33C149.85 143.54 149.69 143.73 149.5 143.92C149.42 143.68 149.34 143.44 149.26 143.19C149.42 143 149.58 142.81 149.77 142.6C149.85 142.84 149.93 143.09 150.01 143.33Z" /><path class="shp1" d="M149.77 142.6C149.58 142.81 149.42 143 149.26 143.19C148.88 142.12 148.4 140.93 147.81 139.59C147.33 138.52 146.87 137.63 146.44 136.85C146.55 136.74 146.65 136.64 146.76 136.53L146.28 136.07C146.23 136.12 146.15 136.2 146.09 136.26C145.5 135.19 144.91 134.27 144.26 133.3C142.84 131.18 141.09 128.52 138.27 122.79C137.65 121.5 137.09 120.34 136.55 119.22C134.86 115.65 133.41 112.53 130.75 108.63C129.76 107.15 127.96 104.76 125.3 102.37C124.09 101.24 122.69 100.11 121.11 99.09C120.79 98.9 120.52 98.74 120.2 98.58C116.47 96.56 113.13 96.13 108.08 95.49C102.79 94.85 100.13 94.58 97.31 96.05C96.8 96.35 95.83 96.86 91.8 102.15C87.66 107.63 85.57 110.37 84.49 113.3C83.23 116.77 83.04 119.83 82.93 121.63C82.85 123.05 82.82 123.7 82.29 123.73C81.67 123.76 81.48 122.84 80.95 120.16C80.49 117.93 79.88 114.87 78.77 111.24C76.89 105.14 75.98 102.35 73.5 100.38C69.9 97.5 64.98 97.72 61.49 98.39L61.38 97.93C62.11 97.8 62.75 97.63 63.31 97.45C63.36 97.42 63.39 97.42 63.44 97.42C66.77 97.04 70.78 97.34 73.89 99.84C76.63 102.02 77.62 105.24 79.4 111.04C80.5 114.69 81.12 117.76 81.58 120.01C81.79 121.08 82.01 122.11 82.2 122.67C82.23 122.37 82.25 121.97 82.28 121.6C82.39 119.75 82.55 116.63 83.87 113.08C84.97 110.04 87.07 107.28 91.26 101.74C95.37 96.31 96.39 95.77 97.01 95.45C97.12 95.4 97.2 95.34 97.31 95.32C100.32 93.84 103.3 94.22 108.17 94.84C113.3 95.48 116.69 95.91 120.53 97.98C120.85 98.14 121.17 98.3 121.47 98.52C126.6 101.88 129.85 106.04 131.33 108.25C133.99 112.2 135.47 115.32 137.19 118.92C137.73 120.05 138.26 121.23 138.88 122.49C141.67 128.16 143.37 130.69 144.85 132.92C146.06 134.77 147.11 136.36 148.45 139.32C148.96 140.53 149.42 141.61 149.77 142.6Z" /><path class="shp1" d="M149.26 143.19C149.34 143.43 149.42 143.67 149.5 143.92C146.62 147.2 142.49 149.72 138.73 151.82C135.4 153.67 131.5 155.64 127.39 156.31C127.34 156.1 127.23 155.88 127.15 155.69C131.21 155.05 135.1 153.08 138.41 151.23C142.19 149.13 146.41 146.53 149.26 143.19Z" /><path class="shp5" d="M147.8 139.59C148.39 140.93 148.87 142.12 149.25 143.19C146.4 146.52 142.18 149.13 138.39 151.22C135.08 153.07 131.19 155.04 127.13 155.68C127.13 155.65 127.1 155.63 127.1 155.6C126.08 153.18 125.43 151.68 124.57 150.04C126.64 149.21 128.71 148.27 130.78 147.27C134.73 145.39 137.58 144.05 140.75 141.76C142.77 140.31 144.67 138.67 146.42 136.84C146.86 137.63 147.32 138.52 147.8 139.59Z" /><path class="shp1" d="M146.76 136.53C146.65 136.64 146.55 136.74 146.44 136.85C146.33 136.64 146.23 136.45 146.09 136.26C146.14 136.21 146.22 136.13 146.28 136.07L146.76 136.53Z" /><path class="shp1" d="M146.08 136.26C146.21 136.45 146.32 136.64 146.43 136.85C144.68 138.68 142.78 140.32 140.76 141.77C137.59 144.05 134.74 145.4 130.79 147.28C128.72 148.27 126.65 149.21 124.58 150.05C124.5 149.86 124.39 149.65 124.28 149.43C126.35 148.6 128.44 147.68 130.49 146.69C134.55 144.76 137.23 143.47 140.35 141.24C142.4 139.78 144.34 138.09 146.08 136.26Z" /><path class="shp6" d="M144.26 133.31C144.9 134.28 145.5 135.19 146.09 136.27C144.34 138.1 142.41 139.79 140.37 141.24C137.25 143.47 134.57 144.76 130.51 146.69C128.47 147.68 126.37 148.6 124.3 149.43C124.17 149.16 124 148.89 123.84 148.6C121.53 144.35 119.76 141.16 118.12 139.79C117.31 135.97 116.96 132.13 117.1 128.32C117.37 120.66 119.49 114.94 120.78 111.5C121.83 108.68 123.06 105.91 124.51 103.28L125.29 102.39C127.95 104.78 129.75 107.17 130.74 108.65C133.4 112.55 134.85 115.66 136.54 119.24C137.08 120.37 137.64 121.52 138.26 122.81C141.09 128.52 142.83 131.18 144.26 133.31Z" /><path class="shp1" d="M143.08 191.29C143.21 191.53 143.35 191.8 143.48 192.04C143.32 192.2 143.16 192.39 143 192.55C142.84 192.31 142.7 192.07 142.6 191.82C142.75 191.64 142.94 191.48 143.08 191.29Z" /><path class="shp1" d="M141.22 186.88C141.25 186.91 141.81 188.87 143.07 191.29C142.94 191.48 142.75 191.64 142.59 191.83C141.25 189.28 140.6 187.21 140.57 187.07C140.54 186.94 140.54 186.94 140.46 186.77C139.17 184.3 135.44 176.1 132.53 169.65C130.84 165.89 129.98 164.01 129.49 162.88C128.25 160.11 127.39 158.07 126.7 156.4C126.94 156.37 127.16 156.35 127.37 156.29C128.07 157.93 128.93 159.94 130.11 162.6C130.59 163.73 131.45 165.61 133.12 169.37C136.02 175.79 139.76 183.99 141.05 186.46C141.17 186.7 141.17 186.7 141.22 186.88Z" /><path class="shp1" d="M142.22 304.17C142.7 304.9 142.92 305.62 142.7 306.29C142.14 307.96 139.23 308.22 136.9 308.47C135.83 308.58 134.8 308.6 133.84 308.6C129.84 308.6 126.75 307.87 125.24 307.5C119.46 306.1 116.99 305.22 115.35 304.65C113.82 304.09 113.04 303.82 110.92 303.6C106.73 303.17 100.9 303.41 97.06 303.57L96.07 303.6C92.71 303.76 91.02 303.81 89.51 302.53C88.3 301.48 88.14 300.35 87.84 298.04C87.68 296.86 87.49 295.38 87.09 293.45C86.98 292.99 86.9 292.56 86.82 292.19C87.09 292.46 87.36 292.7 87.65 292.89C87.68 293.02 87.7 293.16 87.73 293.32C88.13 295.28 88.35 296.76 88.51 297.97C88.78 300.15 88.91 301.17 89.93 302.03C91.22 303.16 92.83 303.08 96.03 302.94L97.02 302.89C100.89 302.76 106.75 302.51 110.99 302.94C113.19 303.15 114.03 303.45 115.58 304.01C117.19 304.6 119.64 305.46 125.39 306.86C127.22 307.29 131.46 308.31 136.81 307.8C138.74 307.61 141.65 307.34 142.05 306.08C142.18 305.68 142.05 305.22 141.75 304.71C141.8 304.71 141.83 304.74 141.88 304.76L142.18 304.17L142.22 304.17Z" /><path class="shp1" d="M142.22 304.17L142.19 304.17C141.76 303.96 141.3 303.74 140.87 303.53C140.01 302.59 138.85 301.62 137.91 300.82C136.54 299.66 134.82 298.46 131 296.39C127.35 294.43 125.52 293.43 123.72 292.79C122.65 292.39 121.49 292.04 120.36 291.69C120.36 291.48 120.36 291.26 120.33 291.1L119.66 291.18C119.69 291.29 119.69 291.39 119.69 291.5C116.52 290.59 113.54 289.73 111.79 288.11C111.2 287.55 110.85 286.98 110.72 286.34C110.51 285.29 110.93 284.38 111.93 282.82C112.87 281.4 113.52 280.59 113.97 280C114.51 279.3 114.8 278.95 115.07 278.23C115.28 277.64 115.42 277.02 115.42 276.35C115.66 276.32 115.9 276.24 116.12 276.16C116.12 276.99 115.99 277.75 115.72 278.47C115.4 279.28 115.05 279.73 114.51 280.4C114.05 280.99 113.41 281.8 112.49 283.19C111.58 284.59 111.2 285.37 111.36 286.2C111.47 286.71 111.76 287.14 112.25 287.6C113.89 289.13 116.79 289.96 119.88 290.85C121.22 291.25 122.65 291.66 123.96 292.14C125.79 292.81 127.64 293.81 131.32 295.79C135.19 297.89 136.91 299.12 138.33 300.3C139.82 301.54 141.41 302.88 142.22 304.17Z" /><path class="shp1" d="M142.19 304.17L141.89 304.76C141.84 304.73 141.81 304.71 141.76 304.71C141.55 304.33 141.22 303.93 140.87 303.53C141.3 303.74 141.76 303.96 142.19 304.17Z" /><path class="shp7" d="M141.76 304.71C142.06 305.22 142.19 305.68 142.06 306.08C141.66 307.34 138.75 307.61 136.82 307.8C131.47 308.31 127.23 307.29 125.4 306.86C119.65 305.46 117.2 304.6 115.59 304.01C114.03 303.45 113.2 303.15 111 302.94C106.75 302.51 100.9 302.75 97.03 302.89L96.04 302.94C92.84 303.07 91.23 303.15 89.94 302.03C88.92 301.17 88.78 300.15 88.52 297.97C88.36 296.76 88.14 295.28 87.74 293.32C87.71 293.16 87.69 293.02 87.66 292.89C90.27 294.99 93.03 296.36 95.99 297.03C100.69 298.1 105.23 297.19 108.24 296.6C110.69 296.12 112.32 295.58 113.61 295.15C115.6 294.51 116.59 294.18 118.18 294.8C119.39 295.28 120.06 295.98 120.84 296.79C121.73 297.73 122.75 298.78 124.82 299.72C126.49 300.47 127.7 300.63 129.2 300.82C129.6 300.87 130.03 300.95 130.49 301.01C134.18 301.59 138 302.83 141.76 304.71Z" /><path class="shp1" d="M140.87 303.53C141.22 303.93 141.54 304.34 141.76 304.71C138 302.83 134.18 301.59 130.47 301C130.01 300.95 129.58 300.87 129.18 300.81C127.68 300.62 126.47 300.46 124.8 299.71C122.73 298.77 121.71 297.72 120.82 296.78C120.04 295.97 119.37 295.28 118.16 294.79C116.57 294.17 115.58 294.49 113.59 295.14C112.3 295.57 110.66 296.11 108.22 296.59C105.21 297.18 100.67 298.09 95.97 297.02C93.01 296.35 90.25 294.98 87.64 292.88C87.56 292.5 87.48 292.15 87.4 291.83C90.11 294.17 93.02 295.67 96.11 296.37C100.68 297.39 105.14 296.5 108.09 295.94C110.48 295.46 112.09 294.92 113.41 294.49C115.4 293.85 116.61 293.44 118.41 294.14C118.54 294.19 118.65 294.25 118.76 294.3L119.11 294.65C119.14 294.62 119.19 294.6 119.22 294.54C120.08 295.02 120.7 295.67 121.32 296.31C122.21 297.22 123.15 298.19 125.08 299.08C126.67 299.81 127.82 299.97 129.3 300.15C129.68 300.2 130.11 300.26 130.56 300.31C133.97 300.87 137.41 301.92 140.87 303.53Z" /><path class="shp7" d="M137.92 300.81C138.86 301.62 140.02 302.58 140.88 303.52C137.41 301.91 133.97 300.86 130.56 300.32C130.1 300.27 129.67 300.21 129.3 300.16C127.82 299.97 126.67 299.81 125.08 299.09C123.15 298.2 122.2 297.24 121.32 296.32C120.7 295.68 120.08 295.03 119.22 294.55C119.6 294.17 119.89 293.69 120.08 293.21C120.29 292.65 120.38 292.11 120.38 291.68C121.51 292.03 122.66 292.38 123.74 292.78C125.54 293.42 127.37 294.42 131.02 296.38C134.83 298.45 136.55 299.66 137.92 300.81Z" /><path class="shp1" d="M136.44 34.42C137.65 36.06 136.82 38.32 135.53 39.74C132.82 42.7 128.68 43.47 124.27 44.04C123.01 44.2 121.77 44.39 120.51 44.55C120.48 44.42 120.46 44.28 120.43 44.15L119.79 44.31C119.82 44.42 119.84 44.55 119.87 44.66C118.12 44.87 116.35 45.14 114.58 45.39C104.34 46.81 93.76 48.27 83.25 49.1C77.63 49.53 70.92 49.96 63.88 49.91C57.94 49.86 51.84 49.83 45.82 50.82C45.87 50.69 45.9 50.52 45.95 50.39L45.39 50.2C51.54 49.15 57.83 49.18 63.88 49.23C70.89 49.31 77.58 48.85 83.23 48.42C93.68 47.59 104.27 46.14 114.51 44.71C117.73 44.25 120.99 43.82 124.21 43.39C128.48 42.83 132.51 42.07 135.04 39.28C136.2 38.02 136.87 36.08 135.93 34.82C135.26 33.88 133.94 33.58 132.65 33.4C131.04 33.19 129.37 33.05 127.76 32.89C122.95 32.46 117.98 32 113.6 29.8C111.07 28.51 108.76 26.63 106.75 24.18C103.93 20.85 101.62 16.5 99.79 11.09C99.06 8.94 98.15 6.28 95.97 5.47C95.49 5.28 94.98 5.2 94.47 5.2C93.34 5.2 92.13 5.58 90.95 5.95C82.54 8.56 73.81 9.98 64.99 10.17L64.69 10.17C62.24 10.22 59.72 10.28 57.73 11.57C55.82 12.86 54.77 15.09 53.78 17.27L53.57 17.73C51.72 21.73 49.06 26.36 45.4 30.31C45.27 30.23 45.13 30.12 45 30.04L44.62 30.6C44.73 30.68 44.83 30.73 44.94 30.81C41.72 34.17 37.82 36.99 33.06 38.52C32.39 38.73 31.72 38.92 31.04 39.11C29.67 39.49 28.25 39.89 26.96 40.53C24.81 41.6 23.44 43.3 23.23 45.1C22.93 47.71 25.16 49.96 27.34 50.98C29.09 51.81 31.07 52.19 33.44 52.14C36.1 52.09 38.89 51.5 41.61 50.93C42.6 50.72 43.63 50.5 44.62 50.31C44.83 50.26 45.08 50.23 45.29 50.2C45.24 50.44 45.16 50.68 45.1 50.93C44.97 50.93 44.86 50.96 44.72 50.98C43.75 51.14 42.73 51.36 41.74 51.57C39 52.16 36.18 52.75 33.44 52.81C33.31 52.81 33.17 52.81 33.06 52.81C30.78 52.81 28.81 52.41 27.04 51.6C24.57 50.44 22.23 47.97 22.55 45.02C22.79 43 24.32 41.1 26.66 39.91C28 39.24 29.45 38.84 30.88 38.46C31.52 38.27 32.2 38.08 32.84 37.9C43.18 34.57 49.47 24.92 52.97 17.43L53.16 17C54.21 14.74 55.28 12.41 57.38 11.01C59.5 9.61 62.14 9.56 64.66 9.51L64.98 9.51C73.71 9.32 82.36 7.9 90.72 5.32C92.47 4.78 94.4 4.19 96.2 4.84C98.67 5.78 99.67 8.74 100.42 10.89C103.51 20.08 108.05 26.23 113.91 29.19C118.16 31.34 123.05 31.8 127.8 32.23C129.41 32.39 131.08 32.53 132.72 32.77C134.15 32.95 135.61 33.27 136.44 34.42Z" /><path class="shp8" d="M135.9 34.83C136.84 36.09 136.17 38.03 135.01 39.29C132.48 42.08 128.45 42.84 124.18 43.4C120.96 43.83 117.7 44.26 114.48 44.72C104.24 46.14 93.66 47.6 83.2 48.43C77.56 48.86 70.87 49.32 63.85 49.24C57.8 49.19 51.52 49.16 45.36 50.21L45.28 50.18C45.28 50.21 45.28 50.21 45.25 50.23C45.04 50.26 44.79 50.28 44.58 50.34C43.59 50.53 42.56 50.74 41.57 50.96C38.86 51.52 36.06 52.12 33.4 52.17C31.04 52.22 29.05 51.85 27.3 51.01C25.12 49.99 22.89 47.73 23.19 45.13C23.4 43.33 24.78 41.64 26.92 40.56C28.21 39.92 29.63 39.51 31 39.14C31.67 38.95 32.34 38.76 33.02 38.55C37.78 37.02 41.67 34.2 44.9 30.84C48.29 33.12 51.48 34.39 55.16 34.87C57.26 35.17 59.38 35.25 61.47 35.25C62.87 35.25 64.21 35.22 65.58 35.2L66.49 35.17C67.48 35.14 68.51 35.12 69.5 35.12C75.25 34.99 81.16 34.88 86.91 33.83C95.05 32.33 101.69 29.18 106.07 24.72L106.69 24.21C108.71 26.66 111.02 28.54 113.54 29.83C117.92 32.03 122.89 32.49 127.7 32.92C129.31 33.08 130.98 33.22 132.59 33.43C133.91 33.59 135.23 33.89 135.9 34.83Z" /><path class="shp1" d="M127.14 155.69C127.22 155.88 127.33 156.09 127.38 156.31C127.17 156.36 126.95 156.39 126.71 156.42C126.63 156.23 126.58 156.04 126.5 155.88C126.5 155.85 126.47 155.83 126.47 155.8C126.68 155.77 126.93 155.74 127.14 155.69Z" /><path class="shp1" d="M127.11 155.61C127.11 155.64 127.14 155.66 127.14 155.69C126.93 155.74 126.68 155.77 126.47 155.8C125.18 152.76 124.51 151.21 123.25 148.92C120.27 143.47 118.12 139.52 116.29 139.78C112.96 140.24 111.21 153.75 111.08 160.55C110.97 164.71 110.73 168.42 110.54 170.81C110.41 172.23 110.27 173.71 110.06 175.27C109.33 180.89 108.93 183.98 107.51 185.4C107.38 185.53 107.24 185.64 107.11 185.75C107.11 185.7 107.08 185.62 107.08 185.56L106.44 185.67C106.47 185.83 106.49 186.02 106.52 186.18C104.56 187.36 102.17 186.88 98.59 186.18C95.34 185.54 90.91 184.65 84.83 184.65C84.78 184.65 84.72 184.65 84.67 184.65C72.79 184.68 66.83 184.7 63.36 185.64L63.25 185.67C62.01 185.99 58.82 186.85 56.4 185.4C56.4 185.35 56.43 185.27 56.43 185.21L56 185.16L55.97 185.16C54.33 183.95 53.85 182.07 53.66 181.26C52.37 176.18 50.76 171.13 49.2 166.24C48.02 162.59 46.81 158.82 45.76 155.09C44.98 152.3 44.34 150.31 43.72 148.37C42.73 145.23 41.84 142.49 40.63 137.3C40.15 135.2 39.69 133.11 39.29 131.01C39.37 130.71 39.45 130.45 39.56 130.18L39.8 130.15C40.26 132.46 40.74 134.83 41.28 137.14C42.49 142.3 43.38 145.01 44.37 148.18C44.99 150.11 45.61 152.1 46.41 154.9C47.46 158.63 48.67 162.4 49.82 166.02C51.41 170.91 53.04 175.99 54.31 181.07C54.5 181.82 54.93 183.54 56.38 184.62C58.58 186.23 61.86 185.35 63.1 185.02L63.21 184.99C66.76 184.02 72.72 184 84.63 183.97C84.68 183.97 84.74 183.97 84.79 183.97C91 183.97 95.46 184.86 98.74 185.5C102.88 186.33 105.16 186.79 107.04 184.91C108.33 183.65 108.71 180.64 109.4 175.18C109.61 173.62 109.75 172.17 109.88 170.75C110.07 168.36 110.31 164.68 110.42 160.59C110.5 156.43 111.82 139.71 116.22 139.09C116.6 139.04 116.97 139.09 117.35 139.28C117.4 139.49 117.43 139.71 117.48 139.92L118.12 139.79L118.12 139.76C119.76 141.13 121.53 144.33 123.84 148.57C124 148.87 124.16 149.13 124.3 149.4C124.22 149.45 124.14 149.48 124.06 149.51L124.33 150.13C124.41 150.1 124.52 150.05 124.6 150.02C125.45 151.69 126.09 153.19 127.11 155.61Z" /><path class="shp1" d="M126.5 155.88C126.58 156.04 126.63 156.23 126.71 156.42C126.6 156.45 126.47 156.47 126.36 156.47L126.28 155.83C126.33 155.83 126.41 155.8 126.47 155.8C126.47 155.82 126.5 155.85 126.5 155.88Z" /><path fill-rule="evenodd" class="shp6" d="M125.29 102.38L124.51 103.27L123.92 102.95C122.47 105.61 121.21 108.4 120.13 111.25C118.84 114.72 116.69 120.52 116.42 128.31C116.29 131.94 116.61 135.65 117.33 139.3C116.95 139.11 116.58 139.06 116.2 139.11C111.79 139.73 110.48 156.44 110.4 160.61C110.29 164.69 110.05 168.38 109.86 170.77C109.73 172.19 109.59 173.65 109.38 175.2C108.68 180.65 108.31 183.66 107.02 184.93C105.14 186.81 102.86 186.35 98.72 185.52C95.44 184.88 90.98 183.99 84.77 183.99C84.72 183.99 84.66 183.99 84.61 183.99C72.71 184.02 66.74 184.04 63.19 185.01L63.08 185.04C61.84 185.36 58.57 186.25 56.36 184.64C54.91 183.57 54.48 181.85 54.29 181.09C53.03 176.01 51.39 170.93 49.8 166.04C48.64 162.41 47.44 158.65 46.39 154.92C45.58 152.13 44.97 150.14 44.35 148.2C43.36 145.03 42.47 142.32 41.26 137.16C40.72 134.85 40.24 132.48 39.78 130.17L39.54 130.2C40.05 128.78 40.61 127.75 41.18 126.76C42.17 125.01 43.17 123.24 43.84 119.53C44.43 116.25 45.91 105.29 39.94 101.63C38.17 100.53 35.83 100.23 33.12 100.72C35.81 99.99 39.46 99.46 39.92 99.4C42.07 99.1 43.68 98.97 48.52 98.78L50.75 98.7C55.37 98.51 58.81 98.38 61.36 97.95L61.47 98.41C64.96 97.74 69.88 97.52 73.48 100.4C75.95 102.36 76.87 105.16 78.75 111.26C79.85 114.89 80.47 117.95 80.93 120.18C81.47 122.87 81.66 123.78 82.27 123.75C82.81 123.72 82.83 123.08 82.91 121.65C83.02 119.85 83.21 116.79 84.47 113.32C85.54 110.39 87.64 107.65 91.78 102.17C95.81 96.88 96.78 96.37 97.29 96.07C100.11 94.59 102.77 94.86 108.06 95.51C113.11 96.15 116.44 96.58 120.18 98.6C120.5 98.76 120.77 98.92 121.09 99.11C122.68 100.12 124.08 101.25 125.29 102.38ZM86.59 168.86C86.8 167.62 86.46 166.2 85.7 165.31C85.46 165.04 84.71 164.24 83.85 164.24C83.74 164.24 83.64 164.24 83.53 164.27C82 164.59 81.81 167.17 81.81 167.47C81.76 168.2 81.7 169.38 82.59 170.18C83.07 170.64 83.77 170.88 84.42 170.88C84.8 170.88 85.17 170.8 85.49 170.61C86.06 170.28 86.43 169.66 86.59 168.86ZM84.07 142.84C84.15 141.63 83.4 140.58 82.67 139.99C82.19 139.59 81.65 139.4 81.19 139.4C81.06 139.4 80.92 139.43 80.81 139.45C79.76 139.8 79.57 141.65 79.71 142.76C79.79 143.32 80.09 145.21 81.3 145.47C81.41 145.5 81.49 145.5 81.6 145.5C81.98 145.5 82.38 145.37 82.76 145.07C83.48 144.54 83.99 143.68 84.07 142.84Z" /><path class="shp1" d="M125.07 55.19C125.34 58.17 125.26 59.38 124.34 60.32C123.86 60.83 123.21 61.15 122.43 61.29L122.38 61.02C122.41 60.89 122.41 60.75 122.41 60.62C123 60.49 123.48 60.22 123.86 59.87C124.53 59.17 124.67 58.2 124.4 55.25C124.05 50.92 123.46 48.48 122.65 48C122.25 47.76 121.76 47.62 121.17 47.62C121.14 47.38 121.09 47.16 121.04 46.95C121.79 46.92 122.46 47.08 123 47.43C123.49 47.72 124.51 48.32 125.07 55.19Z" /><path class="shp1" d="M124.29 149.43C124.4 149.64 124.5 149.86 124.59 150.05C124.51 150.08 124.4 150.13 124.32 150.16L124.05 149.54C124.13 149.51 124.21 149.48 124.29 149.43Z" /><path class="shp1" d="M123.92 102.94L124.51 103.26C123.06 105.89 121.82 108.66 120.78 111.48C119.49 114.92 117.37 120.64 117.1 128.3C116.97 132.12 117.31 135.96 118.12 139.77C117.85 139.56 117.58 139.39 117.34 139.29C116.61 135.64 116.29 131.93 116.43 128.3C116.7 120.51 118.85 114.7 120.14 111.24C121.2 108.4 122.47 105.6 123.92 102.94Z" /><path class="shp7" d="M124.4 55.25C124.67 58.21 124.53 59.17 123.86 59.87C123.48 60.22 123 60.49 122.41 60.62C122.44 58.85 122.28 56.86 122.09 54.33C121.9 52.07 121.61 49.82 121.18 47.61C121.77 47.61 122.25 47.74 122.66 47.99C123.46 48.48 124.05 50.92 124.4 55.25Z" /><path class="shp1" d="M122.09 54.33C122.28 56.86 122.44 58.84 122.41 60.62C122.38 60.62 122.36 60.65 122.3 60.65L122.38 61.03C122.33 62.96 122.03 64.66 121.31 66.51C119.43 71.24 115.99 73.82 114.86 74.68C112.23 76.64 109.38 77.74 104 78.87C100.88 79.51 98.68 79.68 95.29 79.94C94.81 79.97 94.32 80.02 93.79 80.07L93.74 80.07L93.5 80.02C93.5 80.05 93.5 80.07 93.5 80.1C91.46 80.23 88.96 80.45 85.73 80.83L84.79 80.94C80.2 81.45 76.76 81.85 73.72 81.85C71.76 81.85 69.96 81.69 68.16 81.29C68.16 81.21 68.16 81.16 68.16 81.08L67.49 81.03C67.49 81.06 67.49 81.08 67.49 81.11C66.82 80.95 66.15 80.76 65.47 80.52C63.05 79.71 61.25 78.72 58.97 77.48C53.14 74.28 49.59 72.37 47.12 68.45C47.04 68.37 47.01 68.32 46.96 68.24C44.92 64.88 43.98 60.82 44.22 56.15C44.25 55.59 44.3 55.02 44.35 54.48C44.51 54.48 44.67 54.51 44.78 54.53L44.86 53.86C44.75 53.83 44.59 53.83 44.46 53.81C44.59 52.84 44.78 51.9 45.08 50.96C45.32 50.91 45.56 50.85 45.81 50.83C45.27 52.58 44.98 54.38 44.9 56.18C44.66 60.72 45.57 64.67 47.56 67.9C49.95 71.8 53.26 73.62 59.3 76.9C61.56 78.14 63.33 79.1 65.7 79.91C71.26 81.79 75.78 81.31 84.72 80.29L85.66 80.18C89.91 79.7 92.86 79.48 95.25 79.29C98.61 79.02 100.81 78.86 103.88 78.22C109.15 77.12 111.91 76.04 114.47 74.16C115.54 73.33 118.88 70.83 120.7 66.29C122.1 62.77 121.86 59.81 121.43 54.41C121.16 51.1 120.65 47.85 119.87 44.68C120.08 44.63 120.3 44.6 120.51 44.57C120.72 45.35 120.89 46.16 121.05 46.96C120.92 46.96 120.75 46.96 120.62 46.99L120.67 47.66C120.86 47.63 121.02 47.63 121.18 47.63C121.61 49.82 121.9 52.08 122.09 54.33Z" /><path class="shp1" d="M122.41 60.62C122.41 60.75 122.41 60.89 122.38 61.02L122.3 60.64C122.36 60.65 122.39 60.62 122.41 60.62Z" /><path fill-rule="evenodd" class="shp7" d="M121.42 54.39C121.85 59.79 122.09 62.75 120.69 66.27C118.86 70.81 115.53 73.31 114.46 74.14C111.91 76.02 109.14 77.1 103.87 78.2C100.81 78.84 98.6 79.01 95.24 79.27C92.85 79.46 89.89 79.67 85.65 80.16L84.71 80.27C75.76 81.29 71.25 81.77 65.69 79.89C63.33 79.08 61.55 78.12 59.29 76.88C53.24 73.6 49.94 71.77 47.55 67.88C45.56 64.66 44.65 60.71 44.89 56.16C44.97 54.36 45.27 52.56 45.8 50.81C51.82 49.82 57.92 49.84 63.86 49.9C70.9 49.95 77.62 49.52 83.23 49.09C93.74 48.26 104.32 46.81 114.56 45.38C116.33 45.14 118.11 44.87 119.85 44.65C120.64 47.83 121.15 51.08 121.42 54.39ZM101.96 57.48C104.19 56.75 105.37 52.97 103.87 51.41C102.71 50.2 100.05 50.36 98.74 51.81C97.93 52.72 97.85 53.88 97.85 54.26C97.85 54.61 97.85 55.85 98.79 56.73C99.65 57.59 101 57.83 101.96 57.48ZM91.32 74.22C93.5 72.18 93.52 69.33 93.47 68.5L92.8 68.55C92.85 69.3 92.83 71.88 90.84 73.71C89.44 75.05 87.75 75.27 87.13 75.35C85.41 75.59 83.69 75.19 82.02 74.22C79.87 72.93 78.85 71 78.45 69.95L77.83 70.19C78.26 71.32 79.33 73.41 81.7 74.78C83.12 75.64 84.63 76.07 86.13 76.07C86.51 76.07 86.86 76.07 87.2 76.02C87.91 75.91 89.74 75.67 91.32 74.22ZM88.13 63.87C88.51 62.5 88.51 61.08 88.13 59.6L87.49 59.79C87.84 61.13 87.84 62.42 87.49 63.69C87.36 64.2 86.95 65.76 86.23 65.84C86.15 65.81 85.88 65.81 85.18 65.2C85.1 65.15 85.05 65.09 84.99 65.04C84.8 64.85 84.61 64.66 84.29 64.72C83.94 64.75 83.81 65.07 83.7 65.26C83.65 65.37 83.59 65.5 83.54 65.56C83.22 65.75 82.14 65.35 81.69 64.73C80.86 63.63 80.8 61.61 81.58 59.73L80.96 59.46C80.1 61.56 80.18 63.84 81.15 65.13C81.69 65.88 83.17 66.61 83.89 66.1C84.13 65.97 84.24 65.72 84.32 65.56C84.35 65.51 84.37 65.43 84.37 65.4C84.4 65.4 84.48 65.48 84.53 65.53C84.61 65.58 84.66 65.64 84.77 65.74C85.2 66.09 85.74 66.52 86.19 66.52C86.22 66.52 86.24 66.52 86.27 66.52C87.45 66.4 87.94 64.63 88.13 63.87ZM64.88 60.22C67.08 59.47 68.27 55.68 66.76 54.12C65.6 52.91 62.94 53.07 61.63 54.52C60.82 55.43 60.77 56.59 60.77 56.97C60.77 57.32 60.77 58.56 61.68 59.47C62.55 60.3 63.89 60.54 64.88 60.22Z" /><path class="shp1" d="M121.04 46.95C121.09 47.16 121.15 47.38 121.17 47.62C121.01 47.62 120.85 47.62 120.66 47.65L120.61 46.98C120.75 46.95 120.91 46.95 121.04 46.95Z" /><path class="shp1" d="M120.42 44.15C120.45 44.28 120.47 44.42 120.5 44.55C120.29 44.58 120.07 44.6 119.86 44.66C119.83 44.55 119.81 44.42 119.78 44.31L120.42 44.15Z" /><path class="shp1" d="M120.34 291.09C120.37 291.25 120.37 291.47 120.37 291.68C120.16 291.63 119.91 291.55 119.7 291.49C119.7 291.38 119.7 291.28 119.67 291.17L120.34 291.09Z" /><path class="shp1" d="M119.7 291.49C119.91 291.54 120.16 291.62 120.37 291.68C120.37 292.11 120.29 292.65 120.07 293.21C119.88 293.69 119.59 294.18 119.21 294.55C119.08 294.44 118.91 294.36 118.75 294.31L118.64 294.2C118.99 293.85 119.26 293.42 119.45 292.96C119.67 292.4 119.73 291.89 119.7 291.49Z" /><path class="shp7" d="M119.7 291.49C119.73 291.89 119.67 292.4 119.46 292.97C119.27 293.43 119 293.86 118.65 294.21L118.76 294.32C118.65 294.27 118.55 294.21 118.41 294.16C116.61 293.46 115.4 293.86 113.41 294.51C112.09 294.94 110.48 295.48 108.09 295.96C105.13 296.52 100.67 297.41 96.11 296.39C93.02 295.69 90.12 294.19 87.4 291.85C86.94 289.97 86.54 288.79 86.19 287.85C85.76 286.59 85.41 285.59 85.17 283.69C84.79 280.55 85.04 277.21 85.9 273.83C92.81 274.74 99.74 275.52 106.62 276.14C109.58 276.41 111.64 276.57 113.18 276.57C114.09 276.57 114.85 276.52 115.44 276.36C115.44 277.03 115.31 277.65 115.09 278.24C114.82 278.97 114.53 279.31 113.99 280.01C113.53 280.6 112.89 281.41 111.95 282.83C110.96 284.39 110.53 285.3 110.74 286.35C110.87 286.99 111.22 287.56 111.81 288.12C113.55 289.72 116.53 290.58 119.7 291.49Z" /><path class="shp1" d="M119.21 294.55C119.18 294.6 119.13 294.63 119.1 294.66L118.75 294.31C118.92 294.37 119.08 294.45 119.21 294.55Z" /><path class="shp1" d="M118.11 139.78L118.11 139.81L117.47 139.94C117.42 139.73 117.39 139.51 117.34 139.3C117.58 139.41 117.84 139.57 118.11 139.78Z" /><path class="shp1" d="M117.04 259.3C119.24 268.27 120.35 272.76 117.47 275.34C117.07 275.69 116.64 275.96 116.13 276.15C116.13 275.94 116.13 275.69 116.1 275.45C116.45 275.29 116.74 275.07 117.01 274.83C119.59 272.55 118.51 268.17 116.39 259.46C115.26 254.89 113.86 249.22 112.52 241.99C110.53 231.3 109.21 224.26 108.92 214.8L108.87 213.24C108.79 209.45 108.63 204.29 107.9 197.06C107.55 193.41 107.07 189.75 106.5 186.18C106.69 186.07 106.9 185.91 107.09 185.75C107.71 189.46 108.16 193.22 108.57 197.01C109.3 204.24 109.46 209.42 109.54 213.21L109.59 214.77C109.89 224.17 111.2 231.21 113.16 241.86C114.51 249.09 115.91 254.76 117.04 259.3Z" /><path class="shp9" d="M116.39 259.46C118.51 268.17 119.59 272.55 117.01 274.83C116.74 275.07 116.45 275.29 116.1 275.45C116.07 275.05 116.02 274.62 115.94 274.19L115.27 274.32C115.38 274.78 115.43 275.26 115.43 275.69C113.95 276.07 111.56 275.9 106.67 275.45C97.96 274.64 89.15 273.62 80.44 272.39C80.87 270.51 80.63 268.57 80.44 266.91L80.39 266.48C80.04 263.58 80.15 262.88 80.58 260.22C81.2 256.43 82.46 248.5 83.94 224.46C84.21 220.32 84.42 216.51 84.42 211.32C84.42 207.24 84.29 203.18 84.02 199.2L83.38 199.25C83.62 203.2 83.76 207.26 83.76 211.31C83.76 216.47 83.55 220.28 83.28 224.4C81.8 248.42 80.54 256.32 79.92 260.11C79.49 262.85 79.38 263.58 79.73 266.56L79.78 266.99C80.08 269.38 80.42 272.39 78.68 274.78C76.58 277.68 72.88 278.03 64.71 278.57C58.15 279 51.92 278.46 45.61 276.96C41.85 276.05 37.17 274.54 36.34 272.58C35.1 269.57 37.98 265.62 39.54 263.52L39.84 263.12C46.64 253.77 48.44 243.91 51.72 226.01C52.53 221.58 52.71 218.89 52.98 215.18C53.3 210.69 53.76 204.57 55.51 191.91C55.81 189.73 56.1 187.58 56.42 185.41C58.84 186.86 62.04 186 63.27 185.68L63.38 185.65C66.85 184.71 72.81 184.68 84.69 184.66C84.74 184.66 84.8 184.66 84.85 184.66C90.92 184.66 95.36 185.55 98.61 186.19C102.18 186.89 104.58 187.37 106.54 186.19C107.1 189.76 107.59 193.42 107.94 197.07C108.67 204.3 108.83 209.46 108.91 213.25L108.96 214.81C109.26 224.27 110.57 231.31 112.56 242C113.87 249.22 115.26 254.89 116.39 259.46Z" /><path class="shp1" d="M116.1 275.45C116.13 275.69 116.13 275.93 116.13 276.15C115.92 276.23 115.67 276.31 115.43 276.34C115.46 276.13 115.46 275.91 115.43 275.7C115.69 275.61 115.91 275.53 116.1 275.45Z" /><path class="shp1" d="M115.94 274.19C116.02 274.62 116.07 275.05 116.1 275.45C115.91 275.53 115.7 275.61 115.43 275.69C115.43 275.26 115.38 274.78 115.27 274.32L115.94 274.19Z" /><path class="shp1" d="M115.43 275.69C115.46 275.9 115.46 276.12 115.43 276.33C114.84 276.49 114.09 276.54 113.17 276.54C111.64 276.54 109.57 276.38 106.61 276.11C99.73 275.49 92.8 274.71 85.89 273.8C85.92 273.75 85.92 273.69 85.94 273.64L85.27 273.48C85.24 273.56 85.22 273.64 85.22 273.72C83.55 273.51 81.91 273.26 80.25 273.02C80.33 272.81 80.38 272.59 80.44 272.38C89.15 273.62 97.96 274.64 106.67 275.44C111.56 275.91 113.95 276.07 115.43 275.69Z" /><path class="shp1" d="M107.07 185.57C107.07 185.62 107.1 185.7 107.1 185.76C106.91 185.92 106.7 186.08 106.51 186.19C106.48 186.03 106.46 185.84 106.43 185.68L107.07 185.57Z" /><path class="shp8" d="M106.72 24.19L106.1 24.7L105.62 24.24C101.35 28.59 94.85 31.68 86.84 33.13C81.14 34.18 75.23 34.29 69.54 34.42C68.52 34.42 67.52 34.45 66.5 34.47L65.59 34.5C62.18 34.58 58.68 34.66 55.27 34.2C51.72 33.69 48.66 32.51 45.38 30.3C49.03 26.35 51.69 21.73 53.55 17.72L53.76 17.26C54.75 15.08 55.8 12.85 57.71 11.56C59.7 10.27 62.22 10.22 64.67 10.16L64.97 10.16C73.78 9.97 82.52 8.55 90.93 5.94C92.11 5.56 93.32 5.19 94.45 5.19C94.96 5.19 95.47 5.27 95.95 5.46C98.13 6.27 99.04 8.93 99.77 11.08C101.59 16.5 103.9 20.85 106.72 24.19Z" /><path class="shp1" d="M105.62 24.24L106.1 24.7C101.72 29.16 95.08 32.3 86.94 33.81C81.19 34.86 75.28 34.97 69.53 35.1C68.54 35.1 67.51 35.13 66.52 35.15L65.61 35.18C64.24 35.21 62.9 35.23 61.5 35.23C59.4 35.23 57.28 35.15 55.19 34.85C51.51 34.37 48.31 33.1 44.93 30.82C45.09 30.66 45.25 30.5 45.39 30.31C48.67 32.51 51.73 33.7 55.28 34.21C58.69 34.67 62.19 34.59 65.6 34.51L66.51 34.48C67.53 34.45 68.53 34.43 69.55 34.43C75.25 34.3 81.16 34.19 86.85 33.14C94.84 31.68 101.35 28.59 105.62 24.24Z" /><path class="shp1" d="M103.87 51.41C105.37 52.97 104.19 56.76 101.96 57.48C100.99 57.83 99.65 57.59 98.79 56.73C97.85 55.84 97.85 54.61 97.85 54.26C97.85 53.88 97.93 52.73 98.74 51.81C100.06 50.36 102.72 50.2 103.87 51.41Z" /><path class="shp1" d="M97.83 94.96L97.27 95.28C96.65 94.23 96.11 93.13 95.6 92.03C94.96 90.55 94.2 88.89 93.75 86.9C93.24 84.75 93.16 82.47 93.51 80.1C93.59 80.07 93.67 80.07 93.75 80.07L93.8 80.07L94.18 80.12C93.83 82.4 93.91 84.63 94.39 86.76C94.85 88.67 95.57 90.31 96.22 91.76C96.7 92.84 97.26 93.91 97.83 94.96Z" /><path class="shp7" d="M97.26 95.28L97.29 95.33C97.18 95.36 97.1 95.41 96.99 95.46C96.37 95.78 95.35 96.32 91.24 101.75C87.05 107.29 84.95 110.05 83.85 113.09C82.53 116.64 82.37 119.75 82.26 121.61C82.23 121.99 82.21 122.39 82.18 122.68C81.99 122.12 81.78 121.09 81.56 120.02C81.1 117.76 80.49 114.7 79.38 111.05C77.61 105.25 76.61 102.02 73.87 99.85C70.75 97.35 66.75 97.06 63.42 97.43C64.71 97 65.7 96.44 66.46 95.6C67.35 94.63 67.88 93.5 68.02 93.13C68.64 91.28 68.48 89.72 68.29 88.08L68.29 87.92C68.05 85.8 67.99 83.57 68.16 81.28C69.96 81.68 71.76 81.84 73.72 81.84C76.76 81.84 80.2 81.44 84.79 80.93L85.73 80.82C88.95 80.44 91.45 80.23 93.5 80.09C93.15 82.45 93.23 84.74 93.74 86.89C94.2 88.88 94.95 90.54 95.59 92.02C96.11 93.14 96.64 94.24 97.26 95.28Z" /><path class="shp1" d="M93.5 80.02L93.74 80.07C93.66 80.07 93.58 80.07 93.5 80.1C93.5 80.08 93.5 80.05 93.5 80.02Z" /><path class="shp1" d="M93.47 68.5C93.52 69.33 93.5 72.18 91.32 74.22C89.73 75.67 87.91 75.91 87.21 76.02C86.86 76.07 86.51 76.07 86.14 76.07C84.64 76.07 83.13 75.64 81.71 74.78C79.35 73.41 78.27 71.31 77.84 70.19L78.46 69.95C78.86 71 79.88 72.93 82.03 74.22C83.7 75.19 85.42 75.59 87.14 75.35C87.76 75.27 89.45 75.05 90.85 73.71C92.84 71.88 92.87 69.3 92.81 68.55L93.47 68.5Z" /><path class="shp1" d="M84.36 65.38C84.36 65.41 84.33 65.49 84.31 65.54C84.23 65.7 84.12 65.94 83.88 66.08C83.15 66.59 81.68 65.87 81.14 65.11C80.17 63.82 80.09 61.54 80.95 59.44L81.57 59.71C80.79 61.59 80.84 63.61 81.68 64.71C82.14 65.33 83.21 65.73 83.53 65.54C83.58 65.49 83.64 65.35 83.69 65.24C83.8 65.05 83.93 64.73 84.28 64.7C84.6 64.65 84.79 64.83 84.98 65.02C85.03 65.07 85.09 65.13 85.17 65.18C85.87 65.8 86.14 65.8 86.22 65.82C86.95 65.74 87.35 64.18 87.48 63.67C87.83 62.41 87.83 61.12 87.48 59.77L88.12 59.58C88.5 61.06 88.5 62.48 88.12 63.85C87.93 64.6 87.45 66.38 86.27 66.48C86.24 66.48 86.22 66.48 86.19 66.48C85.73 66.48 85.2 66.05 84.77 65.7C84.66 65.59 84.61 65.54 84.53 65.49C84.47 65.46 84.39 65.38 84.36 65.38Z" /><path class="shp1" d="M87.4 291.84C87.48 292.16 87.56 292.51 87.64 292.89C87.34 292.7 87.08 292.46 86.81 292.19C86.7 291.79 86.62 291.41 86.51 291.06C86.81 291.33 87.1 291.6 87.4 291.84Z" /><path class="shp1" d="M87.4 291.84C87.1 291.6 86.81 291.33 86.51 291.06C86.16 289.77 85.87 288.86 85.57 288.05C85.11 286.76 84.76 285.74 84.52 283.75C84.12 280.53 84.36 277.17 85.22 273.73C85.46 273.76 85.68 273.78 85.89 273.81C85.03 277.2 84.79 280.53 85.16 283.67C85.4 285.58 85.75 286.57 86.18 287.83C86.54 288.78 86.94 289.96 87.4 291.84Z" /><path class="shp1" d="M86.81 292.19C86.54 292 86.3 291.79 86.06 291.55L86.52 291.07C86.62 291.41 86.7 291.79 86.81 292.19Z" /><path fill-rule="evenodd" class="shp1" d="M85.71 165.31C86.46 166.2 86.81 167.62 86.6 168.86C86.44 169.67 86.06 170.28 85.5 170.61C85.18 170.8 84.8 170.88 84.43 170.88C83.79 170.88 83.09 170.64 82.6 170.18C81.71 169.37 81.77 168.19 81.82 167.47C81.82 167.17 82.01 164.59 83.54 164.27C83.65 164.24 83.75 164.24 83.86 164.24C84.71 164.23 85.47 165.04 85.71 165.31ZM85.92 168.72C86.11 167.7 85.81 166.49 85.19 165.74C85.06 165.61 84.44 164.91 83.82 164.91C83.77 164.91 83.71 164.91 83.66 164.91C82.88 165.07 82.53 166.55 82.48 167.52C82.43 168.16 82.37 169.08 83.04 169.7C83.6 170.21 84.54 170.37 85.16 170.02C85.55 169.8 85.82 169.34 85.92 168.72Z" /><path class="shp10" d="M85.2 165.74C85.82 166.49 86.11 167.7 85.93 168.72C85.82 169.34 85.55 169.79 85.18 170.01C84.56 170.36 83.62 170.2 83.06 169.69C82.39 169.07 82.44 168.16 82.5 167.51C82.55 166.54 82.9 165.06 83.68 164.9C83.73 164.9 83.79 164.9 83.84 164.9C84.44 164.91 85.06 165.6 85.2 165.74Z" /><path class="shp1" d="M85.95 273.65C85.92 273.7 85.92 273.76 85.9 273.81C85.69 273.78 85.47 273.76 85.23 273.73C85.23 273.65 85.26 273.57 85.28 273.49L85.95 273.65Z" /><path class="shp1" d="M84.01 199.19C84.28 203.17 84.41 207.22 84.41 211.31C84.41 216.5 84.2 220.31 83.93 224.45C82.45 248.5 81.19 256.43 80.57 260.21C80.14 262.87 80.03 263.57 80.38 266.47L80.43 266.9C80.62 268.57 80.86 270.5 80.43 272.38C80.32 272.35 80.19 272.35 80.08 272.33L79.97 273C80.05 273 80.16 273.03 80.24 273.03C80.03 273.78 79.68 274.48 79.19 275.18C77.36 277.71 74.22 278.43 69.38 278.91C67.98 279.02 66.42 279.12 64.73 279.23C63.25 279.31 61.77 279.36 60.32 279.36C55.27 279.36 50.35 278.77 45.41 277.59C42.67 276.95 40.71 276.27 39.31 275.66C36.33 274.37 35.87 273.27 35.68 272.81C34.28 269.45 37.32 265.34 38.96 263.11L39.23 262.73C45.97 253.46 47.75 243.68 51 225.86C51.81 221.48 51.99 218.82 52.26 215.11C52.58 210.62 53.04 204.5 54.79 191.81C55.11 189.55 55.41 187.32 55.76 185.12L55.95 185.15L55.98 185.15C56.11 185.26 56.25 185.34 56.38 185.39C56.06 187.57 55.76 189.72 55.47 191.89C53.72 204.55 53.27 210.67 52.94 215.16C52.67 218.87 52.48 221.56 51.68 225.99C48.4 243.89 46.6 253.75 39.8 263.1L39.5 263.5C37.94 265.6 35.07 269.55 36.3 272.56C37.13 274.52 41.81 276.03 45.57 276.94C51.88 278.44 58.12 278.98 64.67 278.55C72.84 278.01 76.55 277.66 78.64 274.76C80.39 272.37 80.04 269.36 79.74 266.97L79.69 266.54C79.34 263.56 79.45 262.83 79.88 260.09C80.5 256.3 81.76 248.4 83.24 224.38C83.51 220.27 83.72 216.45 83.72 211.29C83.72 207.23 83.59 203.18 83.34 199.23L84.01 199.19Z" /><path fill-rule="evenodd" class="shp1" d="M82.67 140C83.4 140.59 84.15 141.64 84.07 142.85C83.99 143.68 83.48 144.54 82.75 145.08C82.37 145.38 81.97 145.51 81.59 145.51C81.48 145.51 81.4 145.51 81.29 145.48C80.08 145.21 79.79 143.33 79.7 142.77C79.57 141.67 79.75 139.81 80.8 139.46C80.91 139.43 81.04 139.41 81.18 139.41C81.65 139.41 82.19 139.59 82.67 140ZM83.4 142.79C83.48 141.85 82.84 140.99 82.27 140.53C81.81 140.18 81.33 139.99 81.03 140.1C80.49 140.26 80.25 141.6 80.39 142.68C80.47 143.41 80.79 144.67 81.46 144.8C81.7 144.85 82.02 144.77 82.35 144.53C82.91 144.13 83.34 143.41 83.4 142.79Z" /><path class="shp10" d="M82.27 140.53C82.83 140.99 83.48 141.85 83.4 142.79C83.35 143.41 82.92 144.13 82.35 144.54C82.03 144.78 81.71 144.86 81.46 144.81C80.79 144.68 80.47 143.41 80.39 142.69C80.26 141.62 80.5 140.27 81.03 140.11C81.33 140 81.81 140.18 82.27 140.53Z" /><path class="shp1" d="M80.09 272.33C80.2 272.36 80.33 272.36 80.44 272.38C80.39 272.59 80.33 272.81 80.25 273.02C80.17 273.02 80.06 272.99 79.98 272.99L80.09 272.33Z" /><path class="shp1" d="M69.45 279.4C69.66 282.84 69.34 286.12 68.51 289.18C67.97 291.17 67.46 292.19 66.84 293.4C66.25 294.56 65.6 295.87 64.69 298.45C64.02 300.33 63.64 301.76 63.32 302.91C62.7 305.14 62.41 306.27 61.06 307.16C59.42 308.23 57.75 307.91 54.42 307.32L53.43 307.16C49.64 306.49 43.92 305.47 39.7 305.33C37.85 305.28 37.25 305.36 33.92 305.89C32.09 306.19 29.3 306.64 24.97 307.29C19.14 308.12 14.97 308.63 12.05 308.63C9.15 308.63 7.51 308.12 6.84 306.94C5.82 305.17 6.38 303.69 6.41 303.63C6.71 302.88 7.27 302.47 7.73 302.15L7.84 302.1C9.02 301.21 9.59 300.41 10.15 299.63C10.45 299.2 10.77 298.77 11.17 298.34C12.51 296.89 13.94 296.54 16.76 295.84C17.83 295.57 19.04 295.28 20.55 294.85C23.53 293.99 24.61 293.51 25.41 293.16C26.16 292.81 26.73 292.57 28.31 292.22C29.68 291.92 31.13 291.71 32.53 291.49C35.7 291.01 38.71 290.58 40.51 289.29C40.86 289.05 41.34 288.65 41.56 288.03C41.86 287.22 41.59 286.39 40.86 284.89C40.16 283.39 39.62 282.5 39.25 281.85C38.79 281.1 38.5 280.61 38.31 279.78C38.01 278.46 38.12 277.04 38.69 275.51L39.31 275.72C38.83 277.12 38.69 278.43 38.96 279.62C39.15 280.35 39.39 280.78 39.82 281.5C40.22 282.17 40.76 283.06 41.49 284.59C42.27 286.26 42.56 287.22 42.22 288.24C41.92 289.05 41.33 289.53 40.9 289.85C38.97 291.22 35.9 291.68 32.65 292.16C31.9 292.27 31.15 292.4 30.39 292.51C29.75 292.62 29.07 292.72 28.46 292.86C26.96 293.21 26.42 293.42 25.69 293.75C24.88 294.13 23.78 294.64 20.75 295.5C19.22 295.93 17.96 296.25 16.93 296.49C14.16 297.19 12.87 297.51 11.66 298.8C11.28 299.2 11.02 299.61 10.72 300.04C10.13 300.82 9.51 301.71 8.22 302.65L8.11 302.73C7.71 303 7.28 303.32 7.04 303.91C7.01 303.94 6.96 304.1 6.93 304.39C6.88 304.9 6.9 305.68 7.41 306.59C8.59 308.63 13.99 308.2 24.9 306.62C29.2 305.98 31.99 305.52 33.82 305.22C37.21 304.68 37.8 304.6 39.7 304.66C43.97 304.79 49.75 305.82 53.56 306.49L54.55 306.68C57.69 307.24 59.25 307.51 60.68 306.6C61.81 305.85 62.08 304.88 62.67 302.76C62.99 301.58 63.4 300.15 64.04 298.25C64.25 297.61 64.47 297.01 64.68 296.5C65.3 294.97 65.81 294 66.24 293.09C66.86 291.91 67.34 290.94 67.85 289.03C68.68 286.02 68.98 282.82 68.76 279.46L69.45 279.4Z" /><path class="shp7" d="M69.4 278.91L69.45 279.39L68.78 279.44C68.99 282.8 68.7 286 67.87 289.01C67.36 290.92 66.88 291.89 66.26 293.07C65.83 293.98 65.32 294.95 64.7 296.48L64.14 296.21L63.74 295.67C60.6 298.2 57.24 299.73 53.74 300.21C49.12 300.88 44.74 299.67 41.84 298.84C39.5 298.2 37.92 297.52 36.65 297.01C34.72 296.2 33.53 295.69 31.73 296.26L31.92 296.07C31.71 295.83 31.41 295.4 31.22 294.81C30.98 294.06 31.03 293.41 31.14 293.01L30.47 292.88L30.39 292.5C31.14 292.39 31.89 292.26 32.65 292.15C35.9 291.67 38.96 291.21 40.9 289.84C41.33 289.52 41.92 289.03 42.22 288.23C42.57 287.21 42.27 286.24 41.49 284.58C40.76 283.05 40.23 282.16 39.82 281.49C39.39 280.76 39.15 280.33 38.96 279.61C38.69 278.43 38.83 277.11 39.31 275.71L39.34 275.66C40.74 276.28 42.7 276.95 45.44 277.59C50.38 278.77 55.3 279.36 60.35 279.36C61.8 279.36 63.28 279.31 64.76 279.23C66.44 279.13 68 279.02 69.4 278.91Z" /><path class="shp1" d="M68.3 88.08C68.49 89.72 68.65 91.28 68.03 93.13C67.9 93.51 67.36 94.63 66.47 95.6C65.72 96.43 64.72 97 63.43 97.43C63.38 97.43 63.35 97.43 63.3 97.46C62.6 97.51 61.96 97.62 61.34 97.76L61.37 97.95C58.82 98.38 55.38 98.51 50.76 98.7L48.53 98.78C43.69 98.97 42.08 99.1 39.93 99.4C39.47 99.45 35.82 99.99 33.13 100.72C35.84 100.24 38.18 100.53 39.95 101.63C45.92 105.28 44.44 116.25 43.85 119.53C43.18 123.24 42.18 125.01 41.19 126.76C40.63 127.75 40.06 128.78 39.55 130.2L39.12 130.28C39.17 130.52 39.23 130.79 39.28 131.03C39.04 131.76 38.82 132.59 38.64 133.53C37.81 137.78 38.26 140.17 38.69 142.5C39.15 144.81 39.55 146.99 38.72 150.72C37.99 153.81 36.17 156.36 34.42 158.83L33.99 159.42C32.27 161.87 31.17 164.9 30.71 168.42C30.31 171.62 30.44 174.92 30.58 178.09L30.66 180.27C30.87 185.59 31.06 191.1 32.25 196.37C32.46 197.28 32.81 198.33 33.19 199.43C34.35 202.84 35.66 206.68 33.65 209.45C32.98 210.39 31.85 211.3 30.34 212.11C28.32 213.18 26.58 213.35 24.91 213.51L24.21 213.59C22.3 213.78 21.55 214.05 20.45 214.45C20.1 214.58 19.67 214.72 19.16 214.88C17.57 215.39 16.45 215.71 14.75 216.04C12.57 216.47 11.12 216.77 9.83 216.77C9.21 216.77 8.62 216.72 8 216.56C5.61 215.94 4.02 214.87 3.32 213.36C2.7 212.1 2.97 211.1 3.75 208.17C3.88 207.71 4.02 207.2 4.15 206.64C5.01 203.39 5.28 201.72 5.44 200.62C5.65 199.44 5.71 198.95 6.33 198.01C7.11 196.8 7.89 196.16 8.64 195.51C9.53 194.78 10.36 194.09 11.19 192.47C11.78 191.34 12.13 190.16 12.4 188.41C12.94 185.02 12.67 182.82 12.27 179.46C12.03 177.5 11.76 175.08 11.54 171.83C11.43 170.14 11.38 168.9 11.33 167.8C11.28 166.3 11.22 165.01 11.06 163.12C11.01 162.31 10.93 161.64 10.87 161.05C10.71 159.25 10.63 158.15 10.66 155.49C10.71 150.87 11.09 147.27 11.73 142.62C11.92 142.83 12.11 143.05 12.32 143.24C11.73 147.62 11.35 151.11 11.33 155.49C11.3 158.12 11.38 159.2 11.54 161C11.59 161.59 11.65 162.26 11.73 163.07C11.89 164.95 11.94 166.27 12 167.77C12.05 168.87 12.11 170.11 12.21 171.77C12.4 175.02 12.69 177.44 12.94 179.37C13.34 182.78 13.61 185.01 13.07 188.51C12.77 190.31 12.4 191.55 11.78 192.78C10.89 194.5 9.98 195.28 9.07 196C8.37 196.62 7.62 197.24 6.89 198.36C6.35 199.17 6.3 199.52 6.11 200.7C5.92 201.83 5.65 203.49 4.79 206.77C4.66 207.33 4.52 207.84 4.39 208.3C3.64 211.12 3.42 211.98 3.91 213.03C4.55 214.35 5.98 215.31 8.16 215.88C9.88 216.31 11.47 215.99 14.61 215.37C16.28 215.02 17.4 214.73 18.96 214.21C19.44 214.05 19.85 213.91 20.22 213.78C21.32 213.4 22.13 213.11 24.12 212.89C24.36 212.86 24.6 212.84 24.85 212.81C26.46 212.68 28.1 212.51 30.01 211.49C31.43 210.71 32.48 209.9 33.1 209.02C34.9 206.55 33.64 202.87 32.54 199.62C32.16 198.49 31.79 197.44 31.6 196.5C30.42 191.15 30.2 185.64 29.99 180.27L29.91 178.09C29.78 174.89 29.64 171.56 30.04 168.31C30.5 164.68 31.65 161.54 33.45 159.01L33.85 158.42C35.6 156 37.37 153.48 38.04 150.52C38.36 149.07 38.5 147.89 38.52 146.81C38.57 146.78 38.65 146.78 38.71 146.76L38.55 146.12C38.52 146.12 38.52 146.12 38.5 146.12C38.47 144.83 38.26 143.7 38.04 142.57C37.96 142.09 37.85 141.63 37.77 141.12C37.93 141.09 38.07 141.04 38.2 140.99L37.99 140.35C37.88 140.38 37.78 140.43 37.67 140.43C37.43 138.6 37.35 136.48 37.97 133.39C38.67 129.84 39.66 128.1 40.63 126.38C41.62 124.63 42.56 122.97 43.18 119.42C43.61 117.11 45.33 105.72 39.61 102.17C37.89 101.12 35.53 100.85 32.81 101.44L32.68 100.82C32.52 100.87 32.36 100.93 32.2 100.95C26.42 102.86 21.45 108.23 17.48 116.94C15.63 120.97 14.87 126.05 13.4 136.15L13.24 137.22C13.21 137.22 13.21 137.22 13.19 137.19L12.73 137.7C12.86 137.81 12.97 137.91 13.11 138C12.9 139.59 12.68 141.04 12.49 142.38C12.38 142.3 12.33 142.22 12.25 142.14L11.79 142.54C11.98 141.12 12.22 139.58 12.46 137.89L12.73 136.04C14.23 125.88 14.99 120.78 16.87 116.67C20.93 107.78 26.03 102.27 32.02 100.33C34.71 99.44 39.01 98.83 39.87 98.69C42.05 98.39 43.66 98.26 48.52 98.07L50.75 97.99C59.46 97.64 63.81 97.48 66.01 95.11C66.95 94.09 67.38 92.96 67.41 92.88C68 91.16 67.84 89.74 67.68 88.1L67.65 87.94C67.41 85.76 67.35 83.45 67.52 81.06C67.73 81.14 67.95 81.19 68.19 81.25C68.03 83.53 68.08 85.76 68.32 87.89L68.32 88.08L68.3 88.08Z" /><path class="shp1" d="M68.16 81.07C68.16 81.15 68.16 81.2 68.16 81.28C67.92 81.23 67.7 81.17 67.49 81.09C67.49 81.06 67.49 81.04 67.49 81.01L68.16 81.07Z" /><path class="shp1" d="M66.76 54.12C68.26 55.68 67.08 59.47 64.88 60.22C63.89 60.54 62.54 60.3 61.68 59.47C60.77 58.56 60.77 57.32 60.77 56.97C60.77 56.59 60.82 55.44 61.63 54.52C62.95 53.07 65.61 52.91 66.76 54.12Z" /><path class="shp7" d="M64.13 296.22L64.69 296.49C64.48 297 64.26 297.59 64.05 298.24C63.41 300.15 63 301.57 62.68 302.75C62.09 304.87 61.82 305.84 60.69 306.59C59.27 307.5 57.71 307.23 54.56 306.67L53.57 306.48C49.75 305.81 43.98 304.79 39.71 304.65C37.8 304.6 37.21 304.68 33.83 305.21C32 305.51 29.21 305.96 24.91 306.61C14 308.2 8.6 308.63 7.42 306.58C6.91 305.67 6.88 304.89 6.94 304.38L7.21 304.38L7.48 305.02C11.43 303.41 15.35 302.44 19.17 302.14C19.63 302.11 20.06 302.09 20.46 302.06C21.96 301.98 23.17 301.93 24.89 301.31C27.01 300.53 28.11 299.56 29.08 298.68C29.91 297.95 30.64 297.31 31.9 296.91C33.51 296.43 34.48 296.83 36.41 297.64C37.67 298.18 39.26 298.85 41.65 299.49C44.61 300.32 49.07 301.59 53.85 300.89C57.44 300.38 60.91 298.8 64.13 296.22Z" /><path class="shp1" d="M63.73 295.68L64.13 296.22C60.91 298.8 57.44 300.38 53.84 300.9C49.06 301.6 44.6 300.34 41.64 299.5C39.25 298.86 37.66 298.18 36.4 297.65C34.47 296.84 33.5 296.44 31.89 296.92C30.63 297.32 29.9 297.97 29.07 298.69C28.1 299.58 27 300.54 24.88 301.32C23.16 301.94 21.95 301.99 20.45 302.07C20.05 302.1 19.62 302.12 19.16 302.15C15.34 302.45 11.42 303.41 7.47 305.03L7.2 304.39C11.23 302.78 15.23 301.78 19.1 301.49C19.56 301.46 19.99 301.44 20.39 301.41C21.87 301.33 23.02 301.28 24.66 300.68C26.65 299.95 27.67 299.07 28.64 298.21C29.42 297.51 30.14 296.84 31.3 296.41C31.33 296.46 31.38 296.52 31.41 296.54L31.71 296.27L31.74 296.27C33.54 295.71 34.72 296.22 36.66 297.02C37.92 297.53 39.51 298.2 41.85 298.85C44.75 299.68 49.13 300.89 53.75 300.22C57.23 299.74 60.58 298.21 63.73 295.68Z" /><path class="shp1" d="M61.34 97.76C61.96 97.63 62.6 97.52 63.3 97.46C62.74 97.65 62.09 97.81 61.37 97.94L61.34 97.76Z" /><path class="shp1" d="M56.42 185.22C56.42 185.27 56.39 185.35 56.39 185.41C56.26 185.36 56.12 185.28 55.99 185.17L56.42 185.22Z" /><path class="shp7" d="M47.12 68.44L46.91 68.6C44.76 68.76 43.55 68.06 43.01 67.61C41.64 66.48 41.42 64.63 41.05 61.59C41 60.97 40.89 59.71 41.05 58.15C41.18 56.48 41.29 55.73 41.86 55.17C42.56 54.47 43.63 54.42 44.36 54.47C44.31 55.01 44.25 55.57 44.23 56.14C43.99 60.82 44.93 64.87 46.97 68.23C47.01 68.31 47.04 68.36 47.12 68.44Z" /><path class="shp1" d="M46.91 68.6L46.96 69.27C46.69 69.27 46.45 69.3 46.23 69.3C44.27 69.3 43.11 68.57 42.58 68.14C40.99 66.82 40.78 64.89 40.4 61.66C40.32 61.02 40.21 59.7 40.37 58.09C40.5 56.45 40.61 55.46 41.36 54.7C42.25 53.81 43.54 53.71 44.42 53.79C44.39 54 44.37 54.22 44.34 54.46C43.61 54.41 42.54 54.46 41.84 55.16C41.28 55.72 41.17 56.48 41.03 58.14C40.87 59.7 40.98 60.96 41.03 61.58C41.41 64.62 41.62 66.47 42.99 67.6C43.55 68.07 44.76 68.76 46.91 68.6Z" /><path class="shp1" d="M45.94 50.39C45.89 50.52 45.86 50.69 45.81 50.82C45.57 50.85 45.33 50.9 45.08 50.95C45.13 50.71 45.21 50.47 45.27 50.22C45.3 50.19 45.35 50.19 45.38 50.19L45.94 50.39Z" /><path class="shp1" d="M44.97 30.04C45.1 30.12 45.24 30.23 45.37 30.31C45.24 30.5 45.07 30.66 44.91 30.82C44.8 30.74 44.7 30.69 44.59 30.61L44.97 30.04Z" /><path class="shp1" d="M45.38 50.2C45.35 50.2 45.3 50.2 45.27 50.23C45.3 50.2 45.3 50.2 45.3 50.18L45.38 50.2Z" /><path class="shp1" d="M44.87 53.85L44.79 54.52C44.68 54.49 44.52 54.47 44.36 54.47C44.39 54.23 44.41 54.01 44.44 53.8C44.44 53.8 44.44 53.8 44.47 53.8C44.6 53.82 44.76 53.82 44.87 53.85Z" /><path class="shp6" d="M39.6 102.19C45.32 105.74 43.6 117.13 43.17 119.44C42.55 122.99 41.61 124.65 40.62 126.4C39.65 128.12 38.66 129.87 37.96 133.41C37.34 136.5 37.42 138.62 37.66 140.45C33.9 141.74 29.17 141.95 23.66 141.12C19.79 140.53 15.84 139.67 13.21 137.25L13.37 136.18C14.85 126.08 15.6 121 17.45 116.97C21.43 108.26 26.4 102.89 32.17 100.98C32.33 100.95 32.49 100.9 32.65 100.85L32.78 101.47C35.51 100.87 37.88 101.14 39.6 102.19Z" /><path class="shp1" d="M39.11 130.27L39.54 130.19C39.43 130.46 39.35 130.73 39.27 131.02C39.22 130.78 39.17 130.51 39.11 130.27Z" /><path class="shp1" d="M38.55 146.15L38.71 146.79C38.66 146.82 38.58 146.82 38.52 146.84C38.52 146.6 38.52 146.36 38.49 146.14C38.52 146.15 38.52 146.15 38.55 146.15Z" /><path class="shp1" d="M38.5 146.15C38.53 146.36 38.53 146.61 38.53 146.85C35.95 147.49 33.37 147.74 30.82 147.74C28 147.74 25.18 147.44 22.49 147.07C20.47 146.8 18.51 146.51 16.69 145.86C14.89 145.24 13.44 144.36 12.34 143.25C12.39 142.98 12.42 142.71 12.47 142.42C13.54 143.63 15.02 144.57 16.9 145.21C18.7 145.83 20.61 146.12 22.57 146.39C27.64 147.12 33.12 147.57 38.5 146.15Z" /><path class="shp7" d="M38.52 146.85C38.49 147.92 38.36 149.11 38.04 150.56C37.37 153.52 35.59 156.04 33.85 158.46L33.45 159.05C31.65 161.58 30.49 164.72 30.04 168.35C29.64 171.6 29.77 174.93 29.91 178.13L29.99 180.31C30.2 185.68 30.42 191.19 31.6 196.54C31.79 197.48 32.16 198.53 32.54 199.66C33.64 202.91 34.9 206.59 33.1 209.06C32.48 209.95 31.43 210.75 30.01 211.53C28.1 212.55 26.46 212.71 24.85 212.85C24.61 212.88 24.37 212.9 24.12 212.93C22.13 213.14 21.33 213.44 20.22 213.82C19.84 213.95 19.44 214.09 18.96 214.25C17.4 214.76 16.27 215.06 14.61 215.41C11.47 216.03 9.88 216.35 8.16 215.92C5.98 215.36 4.56 214.39 3.91 213.07C3.43 212.02 3.64 211.16 4.39 208.34C4.52 207.88 4.66 207.37 4.79 206.81C5.65 203.53 5.92 201.87 6.11 200.74C6.3 199.56 6.35 199.21 6.89 198.4C7.62 197.27 8.37 196.65 9.07 196.04C9.98 195.31 10.9 194.54 11.78 192.82C12.4 191.58 12.77 190.35 13.07 188.55C13.61 185.06 13.34 182.83 12.94 179.41C12.7 177.48 12.4 175.06 12.21 171.81C12.1 170.14 12.05 168.91 12 167.81C11.95 166.31 11.89 164.99 11.73 163.11C11.65 162.3 11.6 161.63 11.54 161.04C11.38 159.24 11.3 158.16 11.33 155.53C11.36 151.15 11.73 147.66 12.32 143.28C13.42 144.38 14.87 145.27 16.67 145.89C18.5 146.53 20.46 146.83 22.47 147.1C25.16 147.48 27.98 147.77 30.8 147.77C33.36 147.74 35.94 147.49 38.52 146.85Z" /><path class="shp5" d="M38.04 142.6C38.25 143.73 38.47 144.86 38.5 146.15C33.13 147.57 27.64 147.12 22.57 146.39C20.61 146.12 18.7 145.83 16.9 145.21C15.02 144.57 13.54 143.62 12.47 142.42C12.66 141.08 12.87 139.63 13.09 138.04C15.83 140.35 19.75 141.21 23.6 141.8C25.83 142.12 27.93 142.31 29.89 142.31C32.85 142.31 35.48 141.93 37.79 141.15C37.85 141.66 37.96 142.12 38.04 142.6Z" /><path class="shp1" d="M37.99 140.37L38.2 141.01C38.07 141.06 37.93 141.12 37.77 141.14C37.74 140.93 37.69 140.68 37.66 140.44C37.77 140.45 37.88 140.4 37.99 140.37Z" /><path class="shp1" d="M37.66 140.45C37.69 140.69 37.74 140.93 37.77 141.15C35.46 141.93 32.83 142.31 29.87 142.31C27.91 142.31 25.81 142.12 23.58 141.8C19.74 141.21 15.81 140.35 13.07 138.04L13.2 137.26C15.83 139.68 19.78 140.54 23.65 141.13C29.17 141.96 33.9 141.74 37.66 140.45Z" /><path class="shp1" d="M31.91 296.08L31.72 296.27L31.7 296.27C31.57 296.32 31.43 296.35 31.3 296.4C30.98 296 30.71 295.51 30.57 295C30.3 294.11 30.36 293.36 30.46 292.88L31.13 293.01C31.02 293.41 30.97 294.06 31.21 294.81C31.4 295.41 31.7 295.84 31.91 296.08Z" /><path class="shp1" d="M31.7 296.27L31.4 296.54C31.37 296.51 31.32 296.46 31.29 296.41C31.43 296.35 31.56 296.33 31.7 296.27Z" /><path class="shp7" d="M30.57 295.01C30.7 295.52 30.97 296 31.3 296.41C30.14 296.84 29.42 297.51 28.64 298.21C27.67 299.07 26.65 299.96 24.66 300.68C23.02 301.27 21.87 301.32 20.39 301.41C19.99 301.44 19.56 301.46 19.1 301.49C15.23 301.79 11.23 302.78 7.2 304.39L6.93 304.39C6.96 304.09 7.01 303.93 7.04 303.91C7.28 303.32 7.71 303 8.11 302.73L8.22 302.65C9.51 301.71 10.13 300.82 10.72 300.04C11.02 299.61 11.28 299.21 11.66 298.8C12.87 297.51 14.16 297.19 16.93 296.49C17.95 296.25 19.21 295.93 20.75 295.5C23.79 294.64 24.89 294.13 25.69 293.75C26.42 293.43 26.95 293.21 28.46 292.86C29.08 292.73 29.75 292.62 30.39 292.51L30.47 292.89C30.36 293.37 30.3 294.12 30.57 295.01Z" /><path class="shp1" d="M13.21 137.26L13.08 138.04C12.95 137.96 12.84 137.85 12.7 137.74L13.16 137.23C13.19 137.26 13.19 137.26 13.21 137.26Z" /><path class="shp1" d="M12.22 142.17C12.3 142.25 12.35 142.33 12.46 142.41C12.41 142.71 12.38 142.97 12.33 143.24C12.12 143.05 11.93 142.84 11.74 142.62C11.74 142.59 11.77 142.57 11.77 142.57L12.22 142.17Z" /><path class="shp1" d="M11.76 142.58C11.76 142.58 11.73 142.61 11.73 142.63L11.7 142.6L11.76 142.58Z" /></g></g></g></g></g></svg>