<svg xmlns="http://www.w3.org/2000/svg" viewBox="0 0 195 327" width="256" height="429"><style>tspan { white-space:pre }.shp0 { fill: #ffffff } .shp1 { fill: #63300f;stroke: #000000;stroke-width: 0.25 } .shp2 { fill: #beac83;stroke: #000000;stroke-width: 0.25 } .shp3 { fill: #808080 } .shp4 { fill: #beac83 } .shp5 { fill: none;stroke: #000000;stroke-width: 0.25 } .shp6 { fill: #f0047f;stroke: #000000;stroke-width: 0.25 } .shp7 { fill: #7c411e;stroke: #000000;stroke-width: 0.25 } .shp8 { fill: #ff8000;stroke: #000000;stroke-width: 0.25 } .shp9 { fill: #000000 } .shp10 { fill: #ff8000 } .shp11 { fill: #ffff00;stroke: #000000;stroke-width: 0.25 } .shp12 { fill: #00ffff } .shp13 { fill: #f0047f;stroke: #ffffff;stroke-width: 0.25 } .shp14 { fill: #82027e;stroke: #ffffff;stroke-width: 0.25 } </style><g ></g><g ><g ><path class="shp0" d="M5.09 258.37C11.35 242.88 22.83 229.51 33.8 217.18C41.26 208.8 54.73 199.37 55.85 187.24C56.79 177.05 52.04 164.18 43.05 158.57C34.85 153.46 27.83 157.32 23.08 151.4C16.66 143.4 20.77 130.89 24.86 122.73C28.04 116.4 32.56 110.73 38.1 106.31C43.91 101.67 50.74 98.76 56.01 93.35C59.5 89.77 62.23 85.12 62.27 80.12C62.31 75.67 60.26 71.52 58.74 67.33C53.82 53.79 54.51 38.72 59.94 25.45C61.52 21.59 69.13 2.98 81.44 1.39C83.8 1.08 85.36 1.53 95.52 1.13C102.63 0.85 103.08 0.59 105.25 0.62C112.83 0.73 122.85 4.2 128.29 11.12C132.44 16.39 132.59 23.77 132.9 38.51C133.18 51.87 131.44 55.95 134.44 64.37C135.47 67.26 137.41 72.54 142.12 77.43C147.75 83.27 151.86 82.89 156.71 87.67C162.22 93.1 163.37 100.19 164.39 105.33C166.31 114.98 163.45 115.95 165.41 126.07C166.04 129.29 167.79 134.02 171.3 143.48C172.86 147.7 174.12 153.32 176.72 157.01C180.29 162.09 186.55 165.07 190.37 170.09C194.46 175.47 195.84 184.09 190.66 188.43C187.04 191.47 181.36 191.43 178.19 194.95C175.89 197.5 175.58 201.21 175.37 204.64C174.89 212.79 174.41 221.05 176.07 229.04C177.95 238.05 182.44 246.25 186.08 254.7C189.81 263.36 195.13 277.85 188.97 286.58C180.73 298.25 152.87 296.69 136.11 292.72C132.13 291.78 123.84 287.7 119.79 289.88C114.18 292.9 119.62 302.54 121.23 306.66C123.1 311.46 124.14 317.43 120.78 321.34C119.17 323.22 116.79 324.27 114.42 325.01C97.91 330.18 80.1 323.09 62.85 324.31C57.33 324.7 51.64 325.92 46.39 324.18C41.14 322.44 36.89 316.11 39.73 311.36C41.22 308.87 44.13 307.63 46.17 305.57C48.34 303.37 49.48 300.12 48.87 297.08C48.27 294.05 45.83 291.39 42.81 290.77C40.47 290.29 38.08 290.97 35.75 291.51C30.38 292.76 24.85 293.29 19.34 293.09C12.87 292.85 5.64 291.05 2.39 285.44C0.21 281.68 0.35 277.03 1.03 272.74C1.84 267.74 3.24 262.97 5.09 258.37Z" /><path class="shp1" d="M104.42 20.33C101.08 18.55 97.73 18.9 96.06 19.09C93.16 19.43 90.31 20.45 88.05 21.99C88.05 21.99 87.03 22.56 85.67 23.6C85.67 23.6 83.11 25.57 81.22 28.04C75.48 35.57 87.39 64.18 87.39 64.18C92.57 76.65 95.53 80.3 93.55 84.98C90.8 91.47 80.67 94.89 77.63 92.17C73.47 88.44 85.59 75.8 80.2 63.93C77.52 58.03 73.16 58.15 69.42 52.12C64.25 43.78 66.19 33.2 68.73 25.41C71.1 22.12 73.24 19.42 75.04 17.48C78.51 13.73 80.22 11.96 83.03 10.14C85.85 8.3 87.16 8.13 87.55 8.08C90.86 7.69 92.02 10.28 95.28 10.4C99.98 10.58 100.82 7.62 105.59 7.05C110.74 6.43 116.67 9.05 119.64 13.49C121.82 16.76 122.02 20.17 122.09 21.61C122.63 34.36 123.63 51.9 124.12 57.26C125.89 76.65 134.42 84.4 130.02 88.84C126.86 92.03 119.19 91.32 115.9 87.56C112.27 83.4 116.14 77.96 117.7 64.97C117.7 64.97 120.8 39.05 108.22 23.53C106.51 21.45 104.42 20.33 104.42 20.33Z" /><path class="shp2" d="M77.87 27.16C76.35 25.9 75.18 25.8 74.52 25.87C71.29 26.17 69.23 31.33 69.11 35.15C69.07 36.46 68.95 40.16 71.81 42.88C74.19 45.14 77.15 45.31 78 45.33" /><path class="shp2" d="M114.47 30.12C115.17 30.34 118.68 31.54 120.4 35.15C121.93 38.38 121.64 42.66 118.98 45.46C116.85 47.71 114.06 48.08 113.18 48.16" /><g ><g ><path class="shp3" d="M108.62 73.34C109.11 73.34 109.77 73.18 110.26 73.01C110.26 73.01 112.72 72.68 115.52 73.01C120.29 73.67 127.84 80.9 127.84 80.9C128.83 81.06 139.34 82.21 142.14 89.12C143.29 91.91 142.96 95.86 142.96 97.66C142.63 100.95 141.97 103.41 141.65 104.4C138.04 116.39 137.21 131.68 131.79 135.78C130.15 136.93 127.85 138.41 122.92 139.07C114.05 140.22 105.01 141.04 96.14 141.53C93.68 141.69 91.37 141.69 89.07 140.87C82.66 138.73 80.53 131.01 78.72 124.44C78.06 122.47 77.57 120.66 76.91 118.69C75.6 114.58 74.12 110.15 71.82 105.71C67.55 97.66 64.1 95.85 65.08 93.22C65.9 91.25 68.2 91.91 72.64 89.28C78.39 85.67 77.24 83.2 82.99 78.27C84.14 77.28 85.62 76.3 87.1 75.31C90.88 76.3 93.84 76.79 95.32 76.95C97.13 77.11 97.95 77.11 99.1 77.11C103.21 76.62 104.69 74.65 108.3 73.5C108.46 73.5 108.46 73.5 108.62 73.34Z" /><path class="shp4" d="M101.23 56.91C98.11 58.06 94.66 58.39 91.54 57.9C89.9 57.57 88.42 57.24 86.94 56.59C80.04 53.3 77.74 45.91 77.25 44.27C73.47 32.44 81.36 22.58 81.85 22.09C84.97 21.1 89.57 19.95 95.49 19.3C103.05 18.48 106.83 17.99 110.11 20.29C115.2 23.74 115.86 30.97 116.19 34.26C116.35 36.07 116.85 40.5 114.88 44.94C112.56 50.34 107.31 54.77 101.23 56.91Z" /><path class="shp4" d="M108.62 73.34C108.46 73.5 108.46 73.5 108.29 73.5C104.68 74.65 103.2 76.62 99.09 77.11C97.94 77.11 97.12 77.11 95.31 76.95C93.83 76.79 90.87 76.29 87.09 75.31C88.73 74.32 90.38 73.34 91.53 71.86C92.68 70.38 92.84 68.74 93.01 66.93C93.01 64.96 93.01 61.84 91.53 58.06L91.53 57.9C94.65 58.39 98.1 58.06 101.22 56.91C100.89 58.72 100.4 63.81 103.52 68.74C105.33 71.04 107.14 72.52 108.62 73.34Z" /></g><g ><path class="shp5" d="M91.53 58.06C93.01 61.84 93.01 64.96 93.01 66.93C92.85 68.74 92.68 70.38 91.53 71.86C90.38 73.34 88.74 74.32 87.09 75.31C85.61 76.3 84.13 77.28 82.98 78.27C77.23 83.2 78.38 85.66 72.63 89.28C68.19 91.91 65.89 91.25 65.07 93.22C64.08 95.85 67.53 97.66 71.81 105.71C74.11 110.15 75.59 114.58 76.9 118.69C77.56 120.66 78.05 122.47 78.71 124.44C80.52 131.01 82.65 138.74 89.06 140.87C91.36 141.69 93.66 141.69 96.13 141.53C105 141.04 114.04 140.22 122.91 139.07C127.84 138.41 130.14 136.93 131.78 135.78C137.2 131.67 138.02 116.39 141.64 104.4C141.97 103.41 142.63 100.95 142.95 97.66C142.95 95.85 143.28 91.91 142.13 89.12C139.34 82.22 128.82 81.07 127.83 80.9C127.83 80.9 120.27 73.67 115.51 73.01C112.72 72.68 110.25 73.01 110.25 73.01C109.76 73.17 109.1 73.34 108.61 73.34C108.45 73.5 108.45 73.5 108.28 73.5C104.67 74.65 103.19 76.62 99.08 77.11C97.93 77.11 97.11 77.11 95.3 76.95C93.82 76.79 90.86 76.29 87.08 75.31" /><path class="shp5" d="M101.23 56.91C100.9 58.72 100.41 63.81 103.53 68.74C105.34 71.04 107.14 72.52 108.62 73.34C108.62 73.5 108.78 73.5 108.78 73.5" /><path class="shp5" d="M101.23 56.91C107.31 54.77 112.57 50.34 114.87 44.92C116.84 40.48 116.35 36.05 116.18 34.24C115.85 30.95 115.19 23.72 110.1 20.27C106.81 17.97 103.03 18.46 95.48 19.28C89.56 19.94 84.96 21.09 81.84 22.07C81.35 22.56 73.46 32.42 77.24 44.25C77.73 45.89 80.03 53.29 86.93 56.57C88.41 57.23 89.89 57.56 91.53 57.88C94.65 58.39 98.1 58.06 101.23 56.91Z" /></g></g><path class="shp5" d="M72.32 38.63C71 41.19 69.4 45.17 68.97 50.22C68.77 52.61 68.87 54.74 69.1 56.53" /><path class="shp5" d="M118.07 41.21C118.75 44.82 119.35 48.56 119.88 52.42C120.02 53.46 120.15 54.49 120.27 55.52" /><path class="shp6" d="M69.1 61.95C67.32 61.95 65.88 60.51 65.88 58.73C65.88 56.95 67.32 55.51 69.1 55.51C70.88 55.51 72.32 56.95 72.32 58.73C72.32 60.51 70.88 61.95 69.1 61.95Z" /><path class="shp6" d="M68.87 68.39C67.09 68.39 65.65 66.95 65.65 65.17C65.65 63.39 67.09 61.95 68.87 61.95C70.65 61.95 72.09 63.39 72.09 65.17C72.09 66.95 70.65 68.39 68.87 68.39Z" /><path class="shp6" d="M68.69 75.82C66.91 75.82 65.47 74.38 65.47 72.6C65.47 70.82 66.91 69.38 68.69 69.38C70.47 69.38 71.91 70.82 71.91 72.6C71.91 74.38 70.47 75.82 68.69 75.82Z" /><path class="shp6" d="M121.32 59.33C119.54 59.33 118.1 57.89 118.1 56.11C118.1 54.33 119.54 52.89 121.32 52.89C123.1 52.89 124.54 54.33 124.54 56.11C124.54 57.89 123.1 59.33 121.32 59.33Z" /><path class="shp6" d="M122.24 65.71C120.46 65.71 119.02 64.27 119.02 62.49C119.02 60.71 120.46 59.27 122.24 59.27C124.02 59.27 125.46 60.71 125.46 62.49C125.46 64.27 124.02 65.71 122.24 65.71Z" /><path class="shp6" d="M123.38 73.05C121.6 73.05 120.16 71.61 120.16 69.83C120.16 68.05 121.6 66.61 123.38 66.61C125.16 66.61 126.6 68.05 126.6 69.83C126.6 71.61 125.16 73.05 123.38 73.05Z" /><path class="shp2" d="M163.13 168.43C161.23 171.69 159.94 175.47 158.74 179.04C158.44 179.94 157.79 181.14 158.23 182.45C158.75 184 160.38 184.75 161.19 185.06C161.54 184.92 162.03 184.65 162.29 184.15C162.84 183.07 161.7 182.19 161.95 180.5C162.17 178.88 163.47 177.94 163.56 177.88C164.12 177.48 164.69 177.33 165.06 177.26C165.88 182.12 165.82 185.01 165.58 186.78C165.52 187.21 165.33 188.46 165.75 188.64C166.18 188.83 167.13 187.87 167.71 186.96C169.44 184.23 167.94 181.77 169.75 178.25C169.95 177.86 170.14 177.57 170.25 177.39C170.58 177.52 171.06 177.74 171.49 178.18C172.28 178.99 172.36 179.98 172.65 182.83C172.92 185.55 172.95 185.74 173.06 186.08C173.55 187.71 174.69 189.67 175.43 189.52C176.51 189.31 176.42 184.75 176.4 184.27C176.34 182.1 175.93 179.3 174.56 176.13C174.65 175.96 174.82 175.7 175.04 175.7C175.39 175.69 175.66 176.3 175.76 176.52C177.01 179.22 179.37 182.02 179.92 182.65C180.06 182.81 180.55 183.36 181.37 183.75C181.51 183.81 182.77 184.42 183.15 184.01C183.48 183.66 183 182.69 182.77 182.26C180.9 178.64 177.13 172.49 177.6 172.74C179.54 173.82 181.57 174.72 183.67 175.46C184.3 175.68 185.17 175.79 185.47 175.2C185.6 174.94 185.57 174.64 185.49 174.37C185.1 172.88 183.77 171.84 182.53 170.93C179.15 168.43 175.77 165.94 172.4 163.44C167.82 160.07 165.28 164.76 163.13 168.43Z" /><path class="shp7" d="M62.66 278.2C56.34 284.19 66.79 303.81 61.25 307.07C60.16 307.71 59.48 307.12 55.32 308.36C51.82 309.41 50.03 309.97 49.26 311.58C48.31 313.56 49.29 316.32 50.81 317.9C53.85 321.08 59.53 320.04 60.6 319.83C64.42 319.04 66.84 316.86 68.33 318.03C69.2 318.71 69.04 319.96 70.26 320.48C70.99 320.78 71.76 320.64 72.58 320.48C73.16 320.37 74.29 320.15 74.9 319.57C76.18 318.37 75.2 315.58 74.77 313.64C74.38 311.87 74.77 308.9 75.55 302.95C77.61 287.15 80.45 283.81 78.13 280.4C75.22 276.13 66.31 274.74 62.66 278.2Z" /><path class="shp7" d="M96.32 281.74C90.78 287.99 103.29 305.31 97.45 310.62C94 313.76 90.88 314.93 90.88 314.93C89.56 315.43 88.14 315.76 86.76 317.12C86.5 317.37 84.49 319.4 85.08 320.86C85.43 321.73 86.55 322.02 88 322.33C93.1 323.4 95.69 324.05 97.92 323.39C101.65 322.27 103.87 319.88 105.46 320.92C106.38 321.52 106.33 322.79 107.6 323.19C108.35 323.43 109.11 323.21 109.91 322.98C110.48 322.82 111.59 322.51 112.14 321.88C113.3 320.56 112.08 317.88 111.49 315.98C110.95 314.26 111.07 311.25 111.33 305.25C112 289.33 114.53 285.75 111.92 282.56C108.66 278.58 99.66 277.97 96.32 281.74Z" /><path class="shp8" d="M91.07 136.22C89.42 136.45 87.87 137.03 86.48 138.17C78.95 144.34 76.57 157.8 73.51 166.48C60.19 204.2 31.19 234.06 11.87 269.09C10.11 272.29 8.39 276.11 9.88 279.44C11.42 282.9 15.63 284.13 19.35 284.78C42.67 288.82 66.54 285.27 90.2 284.61C115.15 283.91 140.07 286.46 165.03 287.19C169.62 287.32 174.8 287.16 177.94 283.82C181.62 279.9 180.68 273.67 179.35 268.45C176.1 255.68 171.98 243.16 167.87 230.64C163.36 216.9 158.8 203.07 151.7 190.48C144.8 178.25 135.29 166.51 134.56 152.48C134.34 148.29 134.93 143.94 133.48 140.01C129.52 129.21 114.72 137.92 106.74 137.98C101.94 138 96.06 135.51 91.07 136.22Z" /><path class="shp9" d="M85.33 38.54C83.82 38.54 82.6 37.32 82.6 35.81C82.6 34.3 83.82 33.08 85.33 33.08C86.84 33.08 88.06 34.3 88.06 35.81C88.06 37.32 86.84 38.54 85.33 38.54Z" /><path class="shp9" d="M107.86 37.47C106.28 37.47 105 36.2 105 34.64C105 33.08 106.28 31.81 107.86 31.81C109.44 31.81 110.72 33.08 110.72 34.64C110.72 36.2 109.44 37.47 107.86 37.47Z" /><path class="shp2" d="M96.67 36.69C96.21 36.8 96.59 38.23 95.6 41.03C95.18 42.21 94.79 42.87 95.07 43.34C95.38 43.88 96.33 43.77 97.05 43.69C97.83 43.61 98.4 43.54 98.73 43.16C99.93 41.75 97.58 36.47 96.67 36.69Z" /><g ><path class="shp4" d="M80.27 29.14C80.6 28.89 83.15 27.1 86.34 27.97C88.8 28.64 90.07 30.47 90.39 30.95" /><path class="shp9" d="M80.26 29.13C81 28.51 81.88 28.04 82.83 27.78C83.77 27.5 84.79 27.47 85.77 27.62C86.74 27.81 87.68 28.19 88.48 28.78C89.28 29.36 89.94 30.11 90.4 30.96L90.38 30.97C89.32 29.37 87.63 28.19 85.73 27.87C84.79 27.71 83.81 27.74 82.88 27.98C81.95 28.21 81.06 28.61 80.28 29.16L80.26 29.13Z" /></g><g ><path class="shp4" d="M100.41 31.27C100.94 30.63 103.15 28.08 106.99 27.53C109.99 27.1 112.32 28.12 113.18 28.56" /><path class="shp9" d="M100.4 31.26C101.09 30.3 101.97 29.47 102.97 28.82C103.97 28.16 105.1 27.71 106.27 27.43C107.45 27.2 108.67 27.15 109.85 27.35C111.03 27.54 112.17 27.95 113.19 28.55L113.18 28.57C111.08 27.52 108.63 27.17 106.33 27.68C104.03 28.17 101.93 29.48 100.43 31.28L100.4 31.26Z" /></g><path class="shp2" d="M90.53 50.27C90.46 50.7 93.66 52.5 97.29 52.2C98.58 52.09 100.55 51.9 101.83 50.04C102.19 49.52 102.86 48.33 102.57 47.88C102.09 47.11 99.57 49.76 95.44 50.38C92.47 50.83 90.59 49.94 90.53 50.27Z" /><g ><g ><path class="shp10" d="M170.75 161.83C171.07 162.47 171.23 163.43 170.59 163.75C170.11 163.91 169.47 163.59 168.82 163.59C167.86 163.59 167.05 164.87 166.09 164.71C165.45 164.71 164.97 164.07 164.64 163.59C162.87 160.86 161.91 157.66 160.79 154.45C158.22 147.07 155.17 139.69 151.16 132.96C149.23 129.75 146.99 126.7 145.7 123.02C144.09 118.53 145.54 117.73 144.25 112.43C142.48 105.53 140.08 105.05 140.24 100.24C140.24 96.55 141.69 95.59 140.88 92.7C140.08 89.65 137.67 87.09 138.47 86.12C138.63 85.96 138.79 85.8 138.95 85.8C139.75 85.48 140.72 85.96 141.36 86.44C147.14 89.81 151.96 94.78 155.17 100.55C157.42 104.72 158.22 113.54 158.06 119.96C158.06 120.92 157.9 123.33 158.7 126.38C159.66 129.91 161.27 132.15 161.91 133.28C163.2 135.21 164.65 149.64 170.75 161.83Z" /></g><g ><path class="shp5" d="M144.26 112.43C145.54 117.72 144.1 118.52 145.71 123.02C146.99 126.71 149.24 129.76 151.17 132.96C155.18 139.7 158.24 147.07 160.8 154.45C161.92 157.66 162.89 160.87 164.65 163.59C164.97 164.07 165.45 164.71 166.1 164.71C167.06 164.87 167.87 163.59 168.83 163.59C169.47 163.59 170.11 163.91 170.6 163.75C171.24 163.43 171.08 162.47 170.76 161.83C164.66 149.64 163.21 135.21 161.93 133.28C161.29 132.16 159.68 129.91 158.72 126.38C157.92 123.33 158.08 120.93 158.08 119.96C158.24 113.54 157.44 104.72 155.19 100.55C151.98 94.78 147.16 89.8 141.38 86.44C140.74 85.96 139.77 85.48 138.97 85.8C138.81 85.8 138.65 85.96 138.49 86.12C137.69 87.08 140.1 89.65 140.9 92.7C141.7 95.59 140.26 96.55 140.26 100.24C140.08 105.05 142.49 105.53 144.26 112.43Z" /></g></g><g ><g ><path class="shp4" d="M84.96 150.9C85.29 152.87 83.81 154.84 83.81 155.01C82 157.31 78.88 157.47 78.72 157.47C73.95 157.63 73.46 151.72 68.2 149.58C68.04 149.58 68.04 149.58 67.87 149.58L67.87 149.42C69.18 147.61 70.17 145.48 71.16 143.67C81.34 147.12 84.47 148.43 84.96 150.9Z" /><path class="shp10" d="M71.16 143.67C70.17 145.48 69.19 147.61 67.87 149.42C60.48 146.46 55.88 154.35 46.02 151.72C43.39 150.9 41.09 149.75 36.49 149.42C33.04 149.09 32.05 149.58 30.74 148.76C27.13 146.3 28.93 138.08 29.43 135.78C31.24 126.74 36 120.5 37.65 118.36C47.02 106.69 64.27 89.93 68.87 93.22C71.66 95.52 68.38 105.38 65.58 110.64C62.62 116.06 58.19 120.33 56.05 122.47C53.26 125.1 50.63 128.06 47.67 130.52C45.21 132.82 43.89 133.64 44.06 134.63C44.22 136.44 48.17 137.09 56.71 139.23C58.68 139.89 62.79 141.2 71.01 143.67L71.16 143.67L71.16 143.67Z" /></g><g ><path class="shp5" d="M67.87 149.58C68.03 149.58 68.03 149.58 68.2 149.58C73.46 151.72 73.95 157.63 78.72 157.47C78.88 157.47 82.01 157.31 83.81 155.01C83.81 154.85 85.29 152.87 84.96 150.9C84.47 148.44 81.35 147.12 71.16 143.67L71 143.67C62.78 141.21 58.68 139.89 56.7 139.23C48.16 137.09 44.21 136.44 44.05 134.63C43.89 133.64 45.2 132.82 47.66 130.52C50.62 128.06 53.25 125.1 56.04 122.47C58.18 120.33 62.61 116.06 65.57 110.64C68.36 105.38 71.65 95.52 68.86 93.22C64.26 89.93 47.01 106.69 37.64 118.36C36 120.5 31.23 126.74 29.42 135.78C28.93 138.08 27.12 146.3 30.73 148.76C32.04 149.58 33.03 149.09 36.48 149.42C41.08 149.75 43.38 150.9 46.01 151.72C55.87 154.35 60.47 146.46 67.86 149.42" /><path class="shp5" d="M71.32 143.34C71.32 143.5 71.16 143.5 71.16 143.67C70.17 145.48 69.19 147.61 67.87 149.42L67.87 149.58C67.87 149.74 67.71 149.74 67.71 149.91" /></g></g><path class="shp11" d="M172.26 229.97C160.23 230.05 148.88 224.83 137.9 219.91C126.92 214.99 115.29 210.16 103.3 211.11C96.18 211.67 89.18 214.25 82.09 213.5C80.32 213.31 78.37 212.77 77.51 211.21C76.68 209.72 77.16 207.88 77.62 206.24C79.19 200.64 81.02 194.59 80.42 188.71C79.92 183.79 77.69 179.19 77.04 174.28C76.48 170 77.13 165.66 77.79 161.4C78.47 156.96 79.27 152.71 84.24 151.47C96.15 162.2 109.77 166.17 125.66 166.33C134.77 166.42 143.92 165.63 152.98 166.62C157.14 167.08 161.25 167.91 165.36 168.74C167.43 169.16 169.58 169.61 171.3 170.84C174.59 173.19 175.42 178.15 173.56 181.74C172.34 184.08 170.21 185.88 169.2 188.31C167.86 191.53 168.73 195.18 169.04 198.66C169.38 202.5 169.01 206.4 167.93 210.11C167.11 212.93 165.88 215.71 165.95 218.64C166.06 223.06 169.1 226.86 172.26 229.97Z" /><g ><path class="shp12" d="M163.26 224.05C159.29 222.83 155.4 221.35 151.61 219.65C147.81 217.96 144.15 215.98 140.56 213.89C136.98 211.79 133.09 210.26 129.04 209.38C125 208.44 120.84 208.14 116.69 208.24L116.69 208.22C120.84 207.98 125.02 208.28 129.1 209.14C133.17 210.04 137.09 211.59 140.67 213.72C144.25 215.83 147.89 217.83 151.67 219.54C155.44 221.27 159.32 222.77 163.28 224.03L163.26 224.05Z" /></g><g ><path class="shp12" d="M162.59 218.2C163.95 215.59 164.87 212.76 165.25 209.84C165.44 208.38 165.49 206.91 165.38 205.45C165.28 203.99 165.03 202.54 164.8 201.08C164.56 199.63 164.38 198.16 164.38 196.67C164.39 195.19 164.55 193.71 164.89 192.27C165.59 189.39 166.9 186.69 168.62 184.3L168.64 184.31C167.05 186.78 165.75 189.46 165.13 192.33C164.45 195.19 164.52 198.16 165 201.05C165.22 202.5 165.45 203.96 165.54 205.44C165.63 206.91 165.57 208.4 165.37 209.86C164.96 212.78 164 215.62 162.61 218.21L162.59 218.2Z" /></g><g ><path class="shp12" d="M130.62 204.48C133.32 204.55 136.03 204.88 138.65 205.58C141.27 206.27 143.79 207.37 146.08 208.82L152.89 213.24C155.15 214.73 157.47 216.11 159.74 217.58L159.73 217.6C157.39 216.25 155.06 214.87 152.76 213.44C150.47 212 148.24 210.46 145.98 208.98C143.72 207.52 141.23 206.41 138.62 205.69C136.02 204.96 133.32 204.6 130.62 204.49L130.62 204.48Z" /></g><g ><path class="shp12" d="M155.97 208.44C154.9 206.14 154.21 203.65 154.07 201.1C153.99 199.83 154.06 198.55 154.27 197.29C154.49 196.03 154.84 194.81 155.2 193.59C155.93 191.16 156.59 188.71 157.05 186.22C157.55 183.74 157.84 181.22 158.04 178.69L158.06 178.69C158 181.23 157.71 183.76 157.29 186.27C156.84 188.77 156.16 191.23 155.39 193.65C155.02 194.86 154.65 196.07 154.42 197.32C154.2 198.56 154.12 199.83 154.18 201.09C154.29 203.62 154.93 206.11 155.97 208.42L155.97 208.44Z" /></g><path class="shp13" d="M154.58 213.95C152.66 213.95 151.1 212.39 151.1 210.47C151.1 208.55 152.66 206.99 154.58 206.99C156.5 206.99 158.06 208.55 158.06 210.47C158.06 212.39 156.5 213.95 154.58 213.95Z" /><path class="shp13" d="M160.87 225.38C158.51 225.38 156.61 223.48 156.61 221.12C156.61 218.76 158.51 216.86 160.87 216.86C163.23 216.86 165.13 218.76 165.13 221.12C165.13 223.48 163.23 225.38 160.87 225.38Z" /><g ><path class="shp12" d="M83.59 158.08C83.32 162.22 83.3 166.38 83.53 170.53C83.74 174.68 84.27 178.79 84.93 182.9C85.6 187.01 85.62 191.22 84.97 195.34C84.29 199.45 83.04 203.46 81.3 207.23L81.28 207.22C82.88 203.39 84.12 199.4 84.72 195.3C85.38 191.21 85.38 187.02 84.73 182.93C84.1 178.83 83.59 174.69 83.4 170.54C83.2 166.39 83.25 162.23 83.56 158.09L83.59 158.08Z" /></g><g ><path class="shp12" d="M88.29 161.99C91.21 161.64 94.2 161.78 97.07 162.47C98.5 162.81 99.91 163.3 101.24 163.92C102.58 164.54 103.85 165.29 105.13 166.02C107.65 167.52 110.39 168.67 113.3 169.08C116.2 169.55 119.17 169.32 122.04 168.74L122.05 168.76C119.2 169.49 116.2 169.72 113.26 169.33C111.8 169.11 110.36 168.73 108.98 168.2C107.6 167.66 106.3 166.95 105.03 166.2C103.76 165.46 102.5 164.7 101.17 164.07C99.85 163.44 98.46 162.95 97.03 162.59C94.18 161.87 91.2 161.7 88.28 162.01L88.29 161.99Z" /></g><g ><path class="shp12" d="M89.85 195.61C90.74 193.06 91.38 190.41 91.65 187.73C91.94 185.05 91.81 182.32 91.28 179.68C90.72 177.04 90.1 174.4 89.6 171.74C89.11 169.08 88.68 166.41 88.28 163.73L88.3 163.73C88.85 166.38 89.28 169.05 89.84 171.69L91.47 179.64C91.98 182.3 92.08 185.05 91.77 187.74C91.46 190.43 90.79 193.07 89.87 195.62L89.85 195.61Z" /></g><g ><path class="shp12" d="M95.45 170.54C97.22 172.35 99.31 173.86 101.62 174.89C102.77 175.41 103.98 175.8 105.22 176.05C106.46 176.29 107.72 176.4 108.99 176.49C111.52 176.65 114.06 176.92 116.55 177.41C119.04 177.93 121.5 178.58 123.89 179.46L123.88 179.48C121.45 178.75 119 178.1 116.51 177.66C114.02 177.18 111.51 176.89 108.98 176.69C107.72 176.58 106.45 176.47 105.2 176.21C103.95 175.94 102.74 175.54 101.58 175.01C99.26 173.95 97.19 172.4 95.44 170.57L95.45 170.54Z" /></g><path class="shp14" d="M93.04 174.6C91.12 174.6 89.56 173.04 89.56 171.12C89.56 169.2 91.12 167.64 93.04 167.64C94.96 167.64 96.52 169.2 96.52 171.12C96.52 173.04 94.96 174.6 93.04 174.6Z" /><path class="shp14" d="M85.42 165.63C83.06 165.63 81.16 163.73 81.16 161.37C81.16 159.01 83.06 157.11 85.42 157.11C87.78 157.11 89.68 159.01 89.68 161.37C89.68 163.73 87.78 165.63 85.42 165.63Z" /></g></g></svg>