<svg xmlns="http://www.w3.org/2000/svg" viewBox="0 0 171 326" width="256" height="488"><style>tspan { white-space:pre }.shp0 { fill: #ffffff } .shp1 { fill: none;stroke: #1d1d1b;stroke-width: 4 } .shp2 { fill: #caba9f;stroke: #1d1d1b } .shp3 { fill: #1d1d1b;stroke: #1d1d1b } .shp4 { fill: #e20613;stroke: #1d1d1b } .shp5 { fill: #35a8e0;stroke: #1d1d1b } .shp6 { fill: #c6c6c5;stroke: #1d1d1b } .shp7 { fill: #1d1d1b } .shp8 { fill: none;stroke: #1d1d1b } .shp9 { fill: #e5007e } .shp10 { fill: #e84e1b } </style><g ></g><g ><g ><path class="shp0" d="M21.29 166.35C20.39 167.16 17.47 169.81 13.62 169.67C9.82 169.53 7.21 166.76 3.52 162.83C1.86 161.07 1.14 159.89 0.88 158.43C0.79 157.9 0.42 155.42 2.05 153.29C3.38 151.56 5.24 151.09 5.87 150.94C9.17 150.16 10.96 152.13 12.92 152.11C18.1 152.07 19.73 138.19 26.57 124.8C34.25 109.79 42.91 106.32 40.81 100.43C38.87 94.98 31 96.68 24.04 87.91C21.16 84.28 20.13 81 18.2 74.89C15.54 66.43 13.07 58.59 14.97 50.22C15.54 47.71 16.68 44.37 29.95 29.08C39.74 17.79 44.64 12.15 47.86 9.99C50.2 8.43 67.86 -3.38 84.28 2.33C88.12 3.67 94.27 7.93 106.58 16.45C110.92 19.45 113.09 20.96 113.92 21.74C123.15 30.42 124.64 42.63 125.96 53.45C126.78 60.19 127.87 67.18 126.6 73.93C125.81 78.12 123.81 81.91 121.66 85.54C119.56 89.09 117.94 93 115.64 96.41C114.1 98.7 112.03 100.71 109.47 101.75C108.26 102.24 106.81 102.62 106.23 103.79C105.62 105.02 106.76 106.42 107.85 108.3C109.25 110.71 110.01 113.43 111.13 115.99C113.23 120.77 112.96 121.1 114.97 125.97C117.86 133 119.3 136.57 120.97 136.8C125.04 137.37 125.99 128.12 133.85 124.25C139.99 121.23 146.83 123.21 154.22 125.35C161.86 127.56 166.75 128.98 169.2 132.84C176.33 144.07 161.04 173.21 142.66 175.78C136.87 176.59 124.12 175.7 114.64 168.36C111.44 165.88 107.68 162.08 103.75 162.97C101.07 163.57 99.14 166.07 98.41 168.72C97.68 171.37 97.91 174.18 98.14 176.92C100.38 203.63 101.53 230.43 101.58 257.23C101.59 261.92 101.05 267.53 96.91 269.75C93.52 271.57 88.85 270.29 85.92 272.77C83.88 274.49 83.45 277.41 83.15 280.06C82.03 289.98 80.92 299.9 79.8 309.82C79.66 311.03 79.53 312.3 79.97 313.45C81.08 316.38 84.92 316.82 88.01 317.34C91.1 317.86 94.81 320.24 93.77 323.19C92.79 325.97 88.86 325.81 86 325.11C83.66 324.54 81.31 323.97 78.97 323.4C77.23 322.98 75.44 322.53 74.01 321.45C69.5 318.05 71.02 311.11 72.38 305.63C74.69 296.35 75.21 286.62 73.89 277.15C73.7 275.79 73.43 274.35 72.46 273.38C71.26 272.18 69.37 272.08 67.66 272.06C62.6 272 57.54 271.93 52.47 271.87C51.5 271.86 50.47 271.86 49.63 272.35C47.63 273.52 47.94 276.46 48.46 278.72C50.9 289.29 52.09 300.15 51.98 311C51.96 312.98 51.88 315.03 51.01 316.81C49.35 320.21 45.38 321.68 41.77 322.84C38.75 323.81 35.4 324.77 32.5 323.49C22.54 319.1 36.72 314.11 38.74 311.82C40.11 310.26 40.9 308.4 41.53 304.48C42.2 300.27 42.32 295.95 41.24 286.42C40.06 276.02 39.12 274.21 37.86 272.77C35.02 269.51 32.67 270.91 30.26 267.93C26.81 263.67 27.86 258.58 28.61 246.49C28.86 242.43 29.17 236.15 29.2 228.28C30.39 212.44 30.5 200.24 30.38 191.87C30.17 178.28 29.35 176.56 30.82 170.88C32.34 165 35.05 159.75 32.88 153.56C32.11 151.35 30.49 148.4 29.06 148.57C26.37 148.91 28.33 159.97 21.29 166.35Z" /><g ><path class="shp1" d="M44.46 254.66C44.11 280.31 45.43 294.65 47.12 303.23C47.45 304.92 49.29 311.66 46.17 314.42C45.13 315.34 44.05 315.38 39.91 316.51C36.92 317.32 34.51 318.11 32.94 318.64" /><path class="shp1" d="M78.5 258.36C78.85 284.01 77.53 298.35 75.84 306.93C75.51 308.62 73.67 315.36 76.79 318.12C77.83 319.04 78.91 319.08 83.05 320.21C86.04 321.02 88.45 321.81 90.02 322.34" /><path class="shp2" d="M95.17 109.38C93.27 113.07 99.7 116.4 105.15 129.06C107.89 135.43 108.26 139.28 112.17 141.4C114.37 142.59 116.35 142.51 118.86 144.81C121.49 147.2 121.62 149.39 123.26 149.53C125.38 149.73 128.22 146.34 127.59 144.22C126.96 142.1 123.45 143.05 119.32 140.35C115.41 137.8 113.72 133.81 111.97 129.59C110.24 125.43 110.87 124.78 108.82 118.57C106.51 111.57 105.27 107.97 102.26 107.03C99.87 106.26 96.32 107.16 95.17 109.38Z" /><path class="shp3" d="M51.35 100.72C49.75 99.83 46.48 97.24 39.94 92.06C28.8 83.25 27.43 81.07 26.75 79.86C24.49 75.81 24.19 71.26 23.6 62.15C23.08 54.07 22.81 50.03 24.6 46.71C25.75 44.57 26.37 44.68 33.84 36.17C36.27 33.4 37.49 32.01 38.37 30.86C42.68 25.2 43.01 22.59 45.65 19.15C48.8 15.04 52.59 13.19 56.76 11.15C60.7 9.23 71.69 3.85 84.03 7.64C85.56 8.11 92.52 10.38 98.25 16.48C101.35 19.78 101.45 21.39 105.96 26.41C110.41 31.37 111.99 31.66 114.74 34.99C119.06 40.22 120.32 45.78 121.23 49.75C124.23 62.87 122.65 84.56 108.24 95.21C104.93 97.66 101.77 98.68 95.45 100.72C87.83 103.18 67.5 109.75 51.35 100.72Z" /><path class="shp4" d="M41.51 150.11C34.07 155.02 34.57 167.02 34.62 180.02C34.85 235.51 26.87 261.67 38.36 266.61C38.99 266.88 38.69 266.67 48.4 267.2C63.35 268.03 66.08 268.66 72.61 268.77C85.61 268.99 92.11 269.1 95.44 266.61C104.97 259.46 94.28 243.6 96.23 203.83C96.83 191.51 95.52 179.14 96.23 166.83C96.69 158.88 97.26 154.18 94.07 150.89C89.73 146.42 83.47 149.73 65.53 149.71C49.46 149.7 46.17 147.04 41.51 150.11Z" /><path class="shp2" d="M45.06 45.35C44.16 43.82 41.15 39.06 37.71 39.32C33.07 39.67 30.75 48.88 30.37 54.01C30.19 56.42 29.51 65.38 35.62 70.02C37.6 71.53 39.69 72.12 41.13 72.38" /><path class="shp2" d="M100.16 45.61C104 42.48 108.17 41.4 110.66 42.98C112.71 44.29 112.97 47.01 113.28 51.12C113.72 56.88 114.41 65.79 109.34 68.44C108.59 68.83 105.87 70.06 100.95 67.92" /><path class="shp5" d="M54.5 96.58C49.64 98.04 51.66 106.04 45.84 119.8C39.99 133.64 32.33 138.79 34.82 146.96C35.75 150.02 37.62 151.92 38.36 152.67C44.42 158.72 53.81 157.13 68.27 155.82C96.86 153.23 99.57 155.89 102.71 151.88C107.08 146.3 101.25 141.92 97.4 111.34C96.52 104.38 96.2 99.66 92.87 97.96C87.16 95.04 80.73 105.14 70.04 103.67C61.51 102.49 59.19 95.18 54.5 96.58Z" /><path class="shp2" d="M48.25 106.86C47.06 105.98 38.82 113.61 32.69 122.99C28.46 129.46 25.29 136.69 24.15 139.31C19.86 149.17 18.85 154.79 14.61 155.83C11.03 156.71 7.8 153.68 6.21 155.31C5.03 156.52 5.83 159.26 6.74 160.82C8.98 164.66 14.85 166.38 18.28 164.49C20.58 163.23 20.69 160.96 22.74 154.78C22.74 154.78 25.29 147.1 29.04 139.82C31.87 134.32 33.52 133.31 36.09 129.89C37.26 128.33 38 127.12 38.75 125.91C39.57 124.6 49.83 108.02 48.25 106.86Z" /><path class="shp6" d="M131.01 130.54C129.66 131.47 129.57 131.87 124.73 138.08C112.33 153.97 110 155.07 110.29 158.49C110.92 165.84 122.54 170.89 129.75 172.3C131.65 172.67 142.39 174.57 151.73 168.22C156.64 164.88 159.29 159.93 164.6 150.01C167.07 145.4 168.3 143.05 168.05 141.22C166.7 131.32 142.76 122.45 131.01 130.54Z" /><path class="shp2" d="M52.93 28.69C49.89 31.92 31.6 52.27 40.33 74.74C40.92 76.27 48.42 94.59 67.49 97.96C77.99 99.81 90.7 96.9 98.58 87.73C106.01 79.08 105.82 68.76 105.66 60.18C105.59 56.16 104.89 41.45 94.64 27.9C90.3 22.16 86.53 17.17 80.08 15.7C67.79 12.88 56.22 25.19 52.93 28.69Z" /><path class="shp7" d="M53.2 45.65C53.22 46.28 56.95 46.6 60.12 45.93C63.49 45.21 67.13 43.17 67.05 42.53C66.89 41.33 53.15 44.43 53.2 45.65Z" /><path class="shp7" d="M81.11 42.99C80.89 43.64 83.76 45.07 86.55 45.37C89.52 45.67 93.2 44.74 93.38 44.08C93.7 42.83 81.54 41.76 81.11 42.99Z" /><path class="shp8" d="M52.55 39.2C52.71 38.8 53.67 36.52 56.11 35.65C58.45 34.81 61.2 35.58 63.02 37.62" /><path class="shp8" d="M81.26 39.2C81.42 38.8 82.38 36.52 84.82 35.65C87.16 34.81 89.91 35.58 91.73 37.62" /><path class="shp8" d="M72.51 46.41C73.58 50.49 72.89 52.82 72.02 54.21C71.07 55.72 69.42 56.89 69.65 58.56C69.76 59.41 70.31 60.05 70.74 60.44" /><path class="shp8" d="M61.64 68.49C62.27 69.22 65.78 73.1 71.57 73.38C78.83 73.73 83.21 68.09 83.57 67.6" /><path class="shp9" d="M135.9 135.91C134.38 135.91 133.16 135.21 133.16 134.35C133.16 133.49 134.38 132.79 135.9 132.79C137.42 132.79 138.64 133.49 138.64 134.35C138.64 135.21 137.42 135.91 135.9 135.91Z" /><path class="shp9" d="M133.15 139.77C131.63 139.77 130.41 139.07 130.41 138.21C130.41 137.35 131.63 136.65 133.15 136.65C134.67 136.65 135.89 137.35 135.89 138.21C135.89 139.07 134.67 139.77 133.15 139.77Z" /><path class="shp9" d="M134.81 152.05C133.29 152.05 132.07 151.35 132.07 150.49C132.07 149.63 133.29 148.93 134.81 148.93C136.33 148.93 137.55 149.63 137.55 150.49C137.55 151.35 136.33 152.05 134.81 152.05Z" /><path class="shp9" d="M142.46 166.29C140.94 166.29 139.72 165.59 139.72 164.73C139.72 163.87 140.94 163.17 142.46 163.17C143.98 163.17 145.2 163.87 145.2 164.73C145.2 165.59 143.98 166.29 142.46 166.29Z" /><path class="shp9" d="M146.67 160.9C145.15 160.9 143.93 160.2 143.93 159.34C143.93 158.48 145.15 157.78 146.67 157.78C148.19 157.78 149.41 158.48 149.41 159.34C149.41 160.2 148.19 160.9 146.67 160.9Z" /><path class="shp9" d="M151.2 155.54C149.68 155.54 148.46 154.84 148.46 153.98C148.46 153.12 149.68 152.42 151.2 152.42C152.72 152.42 153.94 153.12 153.94 153.98C153.94 154.84 152.72 155.54 151.2 155.54Z" /><path class="shp9" d="M153.94 150.49C152.42 150.49 151.2 149.79 151.2 148.93C151.2 148.07 152.42 147.37 153.94 147.37C155.46 147.37 156.68 148.07 156.68 148.93C156.68 149.79 155.46 150.49 153.94 150.49Z" /><path class="shp9" d="M127.67 163.05C126.15 163.05 124.93 162.35 124.93 161.49C124.93 160.63 126.15 159.93 127.67 159.93C129.19 159.93 130.41 160.63 130.41 161.49C130.41 162.35 129.19 163.05 127.67 163.05Z" /><path class="shp0" d="M145.2 135.36C143.19 135.36 141.57 134.05 141.57 132.43C141.57 130.81 143.19 129.5 145.2 129.5C147.21 129.5 148.83 130.81 148.83 132.43C148.83 134.05 147.21 135.36 145.2 135.36Z" /><path class="shp0" d="M142.46 141.06C140.29 141.06 138.53 139.79 138.53 138.21C138.53 136.63 140.29 135.36 142.46 135.36C144.63 135.36 146.39 136.63 146.39 138.21C146.39 139.79 144.63 141.06 142.46 141.06Z" /><path class="shp10" d="M139.72 159.33C137.21 159.33 135.19 158.34 135.19 157.11C135.19 155.88 137.21 154.89 139.72 154.89C142.23 154.89 144.25 155.88 144.25 157.11C144.25 158.34 142.23 159.33 139.72 159.33Z" /><path class="shp10" d="M146.99 148.65C144.48 148.65 142.46 147.66 142.46 146.43C142.46 145.2 144.48 144.21 146.99 144.21C149.5 144.21 151.52 145.2 151.52 146.43C151.52 147.66 149.5 148.65 146.99 148.65Z" /><path class="shp10" d="M151.2 142.65C148.69 142.65 146.67 141.66 146.67 140.43C146.67 139.2 148.69 138.21 151.2 138.21C153.71 138.21 155.73 139.2 155.73 140.43C155.73 141.66 153.71 142.65 151.2 142.65Z" /><path class="shp10" d="M143.7 153.98C141.19 153.98 139.17 152.99 139.17 151.76C139.17 150.53 141.19 149.54 143.7 149.54C146.21 149.54 148.23 150.53 148.23 151.76C148.23 152.99 146.21 153.98 143.7 153.98Z" /><path class="shp9" d="M118.02 160.43C115.89 160.43 114.17 159.19 114.17 157.66C114.17 156.13 115.89 154.89 118.02 154.89C120.15 154.89 121.87 156.13 121.87 157.66C121.87 159.19 120.15 160.43 118.02 160.43Z" /><path class="shp10" d="M129.3 147.47C126.88 147.47 124.93 146.01 124.93 144.21C124.93 142.41 126.88 140.95 129.3 140.95C131.72 140.95 133.67 142.41 133.67 144.21C133.67 146.01 131.72 147.47 129.3 147.47Z" /><path class="shp10" d="M123.58 154.28C121.16 154.28 119.21 152.82 119.21 151.02C119.21 149.22 121.16 147.76 123.58 147.76C126 147.76 127.95 149.22 127.95 151.02C127.95 152.82 126 154.28 123.58 154.28Z" /><path class="shp0" d="M130.96 158.14C129.14 158.14 127.67 156.95 127.67 155.47C127.67 153.99 129.14 152.8 130.96 152.8C132.78 152.8 134.25 153.99 134.25 155.47C134.25 156.95 132.78 158.14 130.96 158.14Z" /><path class="shp0" d="M159.41 146.39C157.59 146.39 156.12 145.2 156.12 143.72C156.12 142.24 157.59 141.05 159.41 141.05C161.23 141.05 162.7 142.24 162.7 143.72C162.7 145.2 161.23 146.39 159.41 146.39Z" /><path class="shp0" d="M138.64 147.32C136.82 147.32 135.35 146.13 135.35 144.65C135.35 143.17 136.82 141.98 138.64 141.98C140.46 141.98 141.93 143.17 141.93 144.65C141.93 146.13 140.46 147.32 138.64 147.32Z" /><path class="shp9" d="M132.84 168.06C130.42 168.06 128.47 166.97 128.47 165.62C128.47 164.27 130.42 163.18 132.84 163.18C135.26 163.18 137.21 164.27 137.21 165.62C137.21 166.97 135.26 168.06 132.84 168.06Z" /></g></g></g></svg>