<svg xmlns="http://www.w3.org/2000/svg" viewBox="0 0 251 219" width="256" height="223"><style>tspan { white-space:pre }.shp0 { fill: #ffffff } .shp1 { fill: #f7931e } .shp2 { fill: #ffff00 } .shp3 { fill: #fea621 } .shp4 { fill: #beac83 } .shp5 { fill: #26120b } .shp6 { fill: #63300f } .shp7 { fill: #0b0146 } .shp8 { fill: #000000 } .shp9 { fill: none;stroke: #000000;stroke-linecap:round;stroke-linejoin:round;stroke-width: 0.5 } .shp10 { fill: none;stroke: #000000;stroke-linecap:round;stroke-linejoin:round } .shp11 { fill: #4d1f03;stroke: #000000;stroke-linecap:round;stroke-linejoin:round } .shp12 { fill: #333333 } .shp13 { fill: #fd1a16 } .shp14 { fill: #1a1a1a;stroke: #000000;stroke-linecap:round;stroke-linejoin:round } .shp15 { fill: #333333;stroke: #000000;stroke-linecap:round;stroke-linejoin:round;stroke-width: 1 } .shp16 { fill: #c1272d;stroke: #000000;stroke-linecap:round;stroke-linejoin:round;stroke-width: 1 } </style><g ></g><g ><g ><path class="shp0" d="M19.84 203.15C22.01 204.73 24.24 205.41 31.77 206.17C42.31 207.25 47.58 207.78 55.3 207.18C80.32 205.22 101.11 220.58 141.28 218.02C164.27 216.55 167.14 210.91 167.72 208.86C169.41 202.89 160.34 196.92 162.17 193.9C164.58 189.95 180.96 198.77 205.3 201.99C219.18 203.82 234.9 204.29 244.74 196.26C249.47 192.4 252.34 185.27 249.08 180.11C247.9 178.25 246.1 176.9 244.65 175.24C238.9 168.65 239.73 158.8 240.7 150.11C241.67 141.42 242.01 131.39 235.71 125.33C229.19 119.05 218.88 119.91 210.56 120.36C198.45 121.02 186.41 122.12 174.26 121.98C170.18 121.93 165.67 121.59 162.8 118.7C160.36 116.25 159.73 112.58 159.33 109.15C158.74 104.08 158.41 98.97 158.35 93.86C158.32 91.98 158.4 89.91 159.65 88.5C161.13 86.82 163.66 86.71 165.89 86.71C173.88 86.74 181.87 86.76 189.86 86.79C192.91 86.8 196.62 86.41 197.9 83.65C199.95 79.21 192.81 69.23 191.03 65.15C188.1 58.47 185.28 51.69 181.34 45.52C166.87 22.83 172.69 21.97 165.14 15.36C158.02 9.14 143.19 7.31 113.82 3.9C99.5 2.24 91.08 1.75 86.97 1.55C76.11 1.01 64.89 0.32 54.06 1.7C51.84 1.98 49.33 2.29 47.27 3.2C41.31 5.83 38.09 13.08 35.41 18.56C28.67 32.33 21.32 45.82 15.18 59.87C13.56 63.58 12.06 68.03 14.15 71.5C16.26 74.98 20.95 75.71 25.02 75.73C29.09 75.75 33.58 75.56 36.73 78.14C39.3 80.25 40.29 83.77 40.4 87.1C40.51 90.43 39.89 93.74 39.9 97.06C39.9 100.22 40.47 103.38 40.26 106.53C40.08 109.24 39.15 112.83 36.72 114.43C34.81 115.69 31.93 115.48 29.74 115.83C25.76 116.46 23.77 116.77 21.9 117.85C18.91 119.58 19.59 121.06 16.9 123.1C12.02 126.82 6.82 124.18 4.68 127.22C3.24 129.27 4.26 132.23 4.96 134.17C7.46 141.09 2.45 148.01 0.54 167.01C-1.13 183.58 1.77 187.41 3.73 189.02C5.41 190.4 5.93 189.77 8.94 191.71C15.1 195.69 15.38 199.9 19.84 203.15Z" /><path class="shp1" d="M17.22 67.97C19.68 60.79 23.34 50.89 28.49 39.37C36.55 21.33 40.72 12.22 47.56 8.17C57.59 2.23 65.39 8.29 88.73 12.07C130.81 18.88 146.73 5.85 161.1 19.44C163.48 21.69 162.07 21.13 175.4 47.17C187.68 71.17 190.34 74.51 188.83 77.94C186.55 83.13 174.69 88.55 117.33 76.21" /><g ><g ><g ><path class="shp2" d="M39.36 131.44C40.27 132.7 40.71 134.86 39.46 136.05C37.98 137.46 34.78 137.92 31.9 135.55L31.8 135.53C32.02 134.23 31.67 133.13 31.59 132.88C30.81 130.29 28.09 128.86 25.85 128.61C25.46 128.57 24.54 128.47 23.48 128.72L23.23 126.55C24.65 126.4 26.04 126.05 27.47 126.43C27.68 126.48 28.12 126.66 28.87 126.89C29.92 127.24 30.83 127.5 31.57 127.71C31.78 127.86 32.03 127.98 32.35 128.05C33.48 128.29 34.61 128.54 35.7 128.92C37.11 129.43 38.49 130.21 39.36 131.44Z" /><path class="shp3" d="M7.61 154.42C7.37 154.27 7.15 154.03 6.96 153.89C6.51 153.54 5.84 153.53 5.38 153.86C5.22 153.98 5.09 154.07 4.98 154.15C4.76 154.28 4.63 154.34 4.52 154.29C4.1 154.11 4.62 151.81 5.14 150.14C5.57 148.75 5.93 147.45 6.97 146.38C7.9 145.42 9.09 144.74 10.32 144.27C12.11 143.58 14.02 143.25 15.85 142.7C16.99 142.36 18.11 142.3 19.11 142.73C19.54 142.91 19.95 143.18 20.33 143.56C21.34 144.56 21.97 145.88 22.76 147.06C22.87 147.23 23 147.41 23.2 147.45C23.39 147.48 23.56 147.39 23.71 147.29C25.29 146.25 26.2 144.26 27.95 143.62C27.99 143.59 28.03 143.59 28.08 143.57C28.88 143.31 29.76 143.37 30.58 143.52C31.79 143.74 32.97 144.14 34.07 144.71C34.69 145.03 35.31 145.42 35.7 146.01C36.26 146.87 36.22 147.96 36.38 148.97C36.57 150.11 37.01 151.19 37.32 152.29C37.64 153.42 38.11 155.64 36.96 156.49C36.63 156.73 36.36 156.66 35.85 156.59C35.52 156.55 35.09 156.51 34.49 156.54C33.74 156.59 33.22 156.73 32.83 156.83C32.38 156.94 32.11 157 31.85 156.8C31.56 156.56 31.63 156.24 31.58 154.78C31.51 152.62 31.33 152.54 31.41 151.17C31.46 150.25 31.59 149.38 31.59 149.28C31.57 149.34 31.52 149.64 31.51 149.69C31.16 151.99 30.88 154.48 30.88 154.48C30.61 156.89 30.43 156.74 30.11 159.32C30.06 159.7 30.03 160.06 29.98 160.42L29.8 160.42C29.3 160.53 28.6 160.68 27.76 160.82C25.94 161.12 24.47 161.24 22.53 161.34C19.45 161.51 17.91 161.59 17.16 161.55C15.34 161.46 12.58 161.03 9.26 159.36L9.15 159.34C9.22 158.87 9.28 158.39 9.36 157.91C9.62 156.2 9.9 154.52 10.19 152.88C10.27 151.92 10.35 150.96 10.41 150C10.43 149.64 10.6 148.77 10.38 148.45C9.72 150.24 9.69 152.23 8.81 153.92C8.68 154.16 8.54 154.39 8.3 154.51C8.07 154.63 7.83 154.56 7.61 154.42Z" /><path class="shp4" d="M35.83 156.68C36.32 158.63 36.22 160.12 36.04 161.1C35.77 162.58 35.25 163.38 35.26 164.51L33.66 164.59C33.6 163.91 33.37 163.41 33.16 162.37C32.92 161.11 32.8 159.26 33.37 156.83L32.82 156.8C33.21 156.7 33.73 156.56 34.48 156.51C35.09 156.48 35.52 156.52 35.84 156.56L35.83 156.68Z" /><path class="shp4" d="M36.04 167.56C36.17 168.85 35.89 170.32 35.33 170.43C35.12 170.48 35.03 170.28 34.32 169.84C33.35 169.23 33.17 169.38 32.95 169.1C32.39 168.38 33.49 167.23 33.65 165.31C33.68 165.03 33.68 164.8 33.66 164.59L35.26 164.51C35.26 164.73 35.29 164.98 35.34 165.24C35.54 166.25 35.92 166.39 36.04 167.56Z" /><path class="shp5" d="M32.75 184.15C33.47 184.69 33.94 185.71 33.69 186.47C33.39 187.4 32.09 187.67 30.32 188.05C27.94 188.56 26.18 188.37 24.37 188.16C22.09 187.89 21.62 187.53 21.37 187.16C21.17 186.86 21.09 186.52 21.09 186.18C21.09 185.7 21.23 185.2 21.34 184.76C21.47 184.25 21.54 183.77 21.55 183.28C22.3 183.53 23.22 183.75 24.28 183.83C25.45 183.91 26.48 183.79 27.28 183.6C27.33 183.7 27.39 183.8 27.47 183.88C28.6 184.91 31.02 182.85 32.75 184.15Z" /><path fill-rule="evenodd" class="shp4" d="M19.25 133.97C19.44 132.68 19.96 130.64 21.82 129.43C22.38 129.07 22.95 128.85 23.49 128.72C24.54 128.47 25.47 128.57 25.86 128.61C28.09 128.86 30.81 130.29 31.6 132.88C31.68 133.12 32.03 134.23 31.81 135.53C31.74 135.94 31.62 136.38 31.4 136.81C31.19 137.22 30.73 138.12 29.8 138.65C29.35 138.89 29.02 138.94 28.21 139.39C27.59 139.73 27.25 139.89 27.11 140.12L26.4 140.15C25.75 140.7 24.73 140.65 23.93 140.5C23.18 140.37 22.46 140.1 21.75 139.83L21.19 139.98C21.15 139.78 21.06 139.58 20.9 139.4C20.61 139.06 20.23 138.83 19.93 138.51C18.93 137.43 19.07 135.72 19.17 134.7C19.19 134.5 19.21 134.26 19.25 133.97ZM28.9 133.07C28.9 132.65 28.57 132.32 28.17 132.32C27.77 132.32 27.43 132.65 27.43 133.07C27.43 133.47 27.77 133.81 28.17 133.81C28.57 133.81 28.9 133.47 28.9 133.07ZM24.64 132.62C24.64 132.23 24.28 131.91 23.82 131.91C23.37 131.91 23 132.23 23 132.62C23 133.02 23.37 133.34 23.82 133.34C24.28 133.33 24.64 133.01 24.64 132.62Z" /><path class="shp2" d="M30.04 120.02C32.54 120.12 29.37 126.06 31.57 127.72C30.84 127.51 29.93 127.25 28.87 126.9C28.12 126.66 27.68 126.49 27.47 126.44C26.05 126.06 24.65 126.41 23.23 126.56C22.63 126.64 22.03 126.67 21.44 126.6C22.26 126.42 22.46 125.78 22.32 124.56C22.2 123.54 22.03 121.12 23.13 120.51C23.73 120.17 24.44 120.59 25.08 120.8C26.22 121.18 27.47 120.91 28.58 120.44C29.06 120.24 29.53 120 30.04 120.02Z" /><path class="shp6" d="M29.8 160.4L29.99 160.4C29.89 161.46 29.82 162.42 29.78 163.11C29.74 162.99 29.67 162.89 29.57 162.81C29.11 162.42 28.28 162.79 27.35 163.11C25.24 163.82 23.63 163.85 20.43 163.93C19.96 163.94 19.5 163.94 19.07 163.92C16.53 163.82 14.5 163.32 13.67 163.11C10.43 162.29 9.97 161.48 9.2 161.92C9.02 162.02 8.88 162.15 8.75 162.29C8.88 161.31 9.02 160.33 9.16 159.32L9.27 159.34C12.59 161.01 15.35 161.44 17.17 161.53C17.92 161.57 19.45 161.49 22.54 161.32C24.49 161.22 25.95 161.1 27.77 160.8C28.61 160.66 29.31 160.51 29.8 160.4Z" /><path class="shp7" d="M29.78 163.11C30.14 163.92 29.56 165.46 29.51 166.21C29.41 167.71 29.37 169.21 28.84 170.64C28.27 172.21 27.74 173.8 27.65 175.48C27.55 177.17 27.75 178.88 27.56 180.57C27.48 181.28 26.92 182.79 27.29 183.59C26.49 183.78 25.46 183.9 24.29 183.82C23.23 183.74 22.31 183.53 21.56 183.27C21.59 182.93 21.58 182.6 21.55 182.24C21.39 180.38 20.83 178.56 20.87 176.68C20.9 174.87 21.5 173.12 21.62 171.31C21.74 169.51 21.22 167.46 19.66 166.55C19.45 166.43 19.21 166.33 18.99 166.33L19.07 163.93C19.51 163.95 19.96 163.95 20.43 163.94C23.64 163.86 25.25 163.83 27.35 163.12C28.28 162.8 29.1 162.43 29.57 162.82C29.67 162.89 29.73 162.99 29.78 163.11Z" /><path class="shp8" d="M28.17 132.32C28.57 132.32 28.9 132.65 28.9 133.07C28.9 133.47 28.57 133.81 28.17 133.81C27.77 133.81 27.43 133.47 27.43 133.07C27.43 132.65 27.76 132.32 28.17 132.32Z" /><path class="shp4" d="M27.9 143.44L27.96 143.59C26.21 144.23 25.3 146.23 23.72 147.26C23.57 147.36 23.39 147.45 23.21 147.42C23.02 147.39 22.88 147.2 22.77 147.03C21.98 145.85 21.35 144.54 20.34 143.53C19.96 143.15 19.55 142.88 19.12 142.7L19.18 142.57C20.12 142.25 21.42 141.05 21.19 139.96L21.75 139.81C22.47 140.08 23.18 140.35 23.93 140.48C24.73 140.62 25.75 140.67 26.4 140.13L27.11 140.1C26.45 141.27 27.77 143.26 27.9 143.44Z" /><path class="shp8" d="M23.82 131.91C24.27 131.91 24.64 132.23 24.64 132.62C24.64 133.02 24.28 133.34 23.82 133.34C23.37 133.34 23 133.02 23 132.62C23 132.23 23.37 131.91 23.82 131.91Z" /><path class="shp2" d="M23.24 126.56L23.49 128.73C22.95 128.86 22.38 129.08 21.82 129.44C19.96 130.65 19.44 132.69 19.25 133.98C17.62 134.69 15.75 134.91 14.05 134.37C12.3 133.81 10.8 132.38 10.38 130.6C10.22 129.9 10.23 129.13 10.63 128.54C11.05 127.93 11.81 127.64 12.53 127.43C15.07 126.68 17.75 126.41 20.38 126.65C20.81 126.69 21.16 126.68 21.43 126.62C22.04 126.67 22.64 126.63 23.24 126.56Z" /><path class="shp5" d="M17.22 183C18.42 183.51 19.24 184.79 19.2 186.1C19.2 186.15 19.2 186.2 19.19 186.25C19.16 186.72 18.99 187.22 18.59 187.49C18.14 187.8 17.55 187.73 17.01 187.65C13.99 187.19 10.95 186.72 7.92 186.26C7.59 186.21 7.24 186.16 6.98 185.94C6.63 185.66 6.53 185.17 6.59 184.74C6.65 184.3 6.83 183.89 6.98 183.47C7.24 182.71 7.36 181.92 7.44 181.13L7.47 181.13C8.28 181.41 9.29 181.65 10.47 181.73C11.73 181.81 12.84 181.67 13.71 181.49L13.79 181.49C13.8 181.59 13.81 181.68 13.83 181.78C14.17 183.04 16.22 182.57 17.22 183Z" /><path class="shp7" d="M8.74 162.29C8.87 162.15 9.01 162.02 9.19 161.92C9.97 161.48 10.43 162.29 13.66 163.11C14.49 163.32 16.52 163.82 19.06 163.92L18.98 166.32C18.91 166.32 18.85 166.33 18.79 166.35C18.42 166.44 18.2 166.81 18.01 167.15C17.28 168.49 16.54 169.84 15.8 171.18C15.25 172.19 14.69 173.22 14.45 174.35C14.16 175.78 14.39 177.25 14.35 178.7C14.32 179.6 13.72 180.56 13.79 181.49L13.71 181.49C12.84 181.68 11.74 181.82 10.47 181.73C9.29 181.65 8.28 181.41 7.47 181.13L7.44 181.13C7.48 180.76 7.52 180.39 7.56 180.03C7.76 178.29 8.09 176.56 8.3 174.82C8.6 172.31 8.65 169.77 8.44 167.25C8.4 166.72 8.25 165.95 8.19 165.16C8.13 164.09 8.17 162.97 8.74 162.29Z" /><path class="shp4" d="M7.61 154.42C7.94 156.06 7.85 157.33 7.69 158.21C7.39 159.84 6.8 160.64 6.92 161.96L5.31 162.02C5.31 161.14 5.02 160.68 4.8 159.48C4.57 158.26 4.45 156.48 4.97 154.15C5.08 154.07 5.21 153.98 5.37 153.86C5.83 153.53 6.51 153.55 6.95 153.89C7.15 154.03 7.37 154.27 7.61 154.42Z" /><path class="shp4" d="M7.72 165.17C7.75 166.31 7.47 167.45 6.98 167.55C6.77 167.6 6.68 167.4 5.96 166.95C5 166.35 4.81 166.49 4.6 166.22C4.03 165.5 5.14 164.35 5.3 162.43C5.31 162.29 5.32 162.15 5.32 162.03L6.93 161.97C6.95 162.1 6.96 162.23 6.99 162.37C7.19 163.38 7.57 163.52 7.7 164.69C7.7 164.83 7.71 165 7.72 165.17Z" /></g><g ><path class="shp9" d="M19.06 163.92C16.52 163.82 14.49 163.32 13.66 163.11C10.42 162.29 9.96 161.48 9.19 161.92C9.01 162.02 8.87 162.15 8.74 162.29C8.17 162.96 8.13 164.08 8.21 165.15C8.28 165.94 8.42 166.71 8.46 167.24C8.66 169.76 8.62 172.29 8.32 174.81C8.11 176.55 7.78 178.28 7.58 180.02C7.54 180.38 7.5 180.75 7.46 181.12C7.38 181.91 7.26 182.7 7 183.46C6.86 183.88 6.67 184.29 6.61 184.73C6.55 185.17 6.65 185.66 7 185.93C7.25 186.15 7.61 186.2 7.94 186.25C10.97 186.71 14.01 187.18 17.03 187.64C17.57 187.72 18.16 187.79 18.61 187.48C19.01 187.21 19.17 186.71 19.21 186.24C19.22 186.19 19.22 186.14 19.22 186.09C19.26 184.78 18.44 183.5 17.24 182.99C16.24 182.56 14.19 183.02 13.86 181.75C13.83 181.66 13.83 181.56 13.82 181.46C13.74 180.53 14.35 179.57 14.38 178.67C14.42 177.22 14.19 175.76 14.48 174.32C14.72 173.19 15.28 172.16 15.83 171.15C16.56 169.81 17.3 168.46 18.04 167.12C18.23 166.78 18.44 166.41 18.82 166.32C18.89 166.3 18.95 166.29 19.01 166.29C19.24 166.29 19.47 166.39 19.68 166.51C21.24 167.42 21.76 169.47 21.64 171.27C21.52 173.08 20.92 174.83 20.89 176.64C20.86 178.52 21.41 180.34 21.57 182.2C21.6 182.55 21.6 182.89 21.58 183.23C21.57 183.73 21.5 184.21 21.37 184.71C21.26 185.16 21.12 185.65 21.12 186.13C21.12 186.47 21.2 186.8 21.4 187.11C21.64 187.48 22.12 187.84 24.4 188.11C26.2 188.32 27.96 188.51 30.35 188C32.12 187.63 33.42 187.35 33.72 186.42C33.96 185.66 33.5 184.64 32.78 184.1C31.05 182.8 28.63 184.87 27.51 183.81C27.43 183.73 27.37 183.63 27.32 183.53C26.95 182.73 27.51 181.22 27.59 180.51C27.78 178.82 27.58 177.11 27.68 175.42C27.77 173.74 28.29 172.15 28.87 170.58C29.39 169.15 29.43 167.65 29.54 166.15C29.59 165.4 30.17 163.86 29.81 163.05C29.77 162.93 29.7 162.83 29.6 162.75C29.14 162.36 28.31 162.73 27.38 163.05C25.27 163.76 23.66 163.79 20.46 163.87C19.95 163.94 19.5 163.94 19.06 163.92Z" /><path class="shp9" d="M31.59 149.24L31.59 149.24C31.57 149.31 31.52 149.61 31.51 149.66C31.16 151.96 30.88 154.45 30.88 154.45C30.61 156.86 30.43 156.71 30.11 159.29C30.06 159.67 30.03 160.03 29.98 160.39C29.88 161.45 29.81 162.41 29.77 163.1C29.77 163.11 29.77 163.12 29.77 163.13" /><path class="shp9" d="M8.72 162.51C8.73 162.44 8.74 162.37 8.75 162.3C8.88 161.32 9.02 160.34 9.16 159.33C9.23 158.86 9.29 158.38 9.37 157.9C9.63 156.19 9.91 154.51 10.2 152.87C10.28 151.91 10.36 150.95 10.42 149.99C10.44 149.63 10.61 148.76 10.39 148.44C9.73 150.23 9.7 152.22 8.82 153.91C8.69 154.15 8.55 154.38 8.31 154.5C8.07 154.63 7.83 154.57 7.61 154.42C7.37 154.27 7.15 154.03 6.96 153.89C6.51 153.54 5.84 153.53 5.38 153.86C5.22 153.98 5.09 154.07 4.98 154.15C4.76 154.28 4.63 154.34 4.52 154.29C4.1 154.11 4.62 151.81 5.14 150.14C5.57 148.75 5.93 147.45 6.97 146.38C7.9 145.42 9.09 144.74 10.32 144.27C12.11 143.58 14.02 143.25 15.85 142.7C16.99 142.36 18.11 142.3 19.11 142.73C19.54 142.91 19.95 143.18 20.33 143.56C21.34 144.56 21.97 145.88 22.76 147.06C22.87 147.23 23 147.41 23.2 147.45C23.39 147.48 23.56 147.39 23.71 147.29C25.29 146.25 26.2 144.26 27.95 143.62C27.99 143.59 28.03 143.59 28.08 143.57C28.88 143.31 29.76 143.37 30.58 143.52C31.79 143.74 32.97 144.14 34.07 144.71C34.69 145.03 35.31 145.42 35.7 146.01C36.26 146.87 36.22 147.96 36.38 148.97C36.57 150.11 37.01 151.19 37.32 152.29C37.64 153.42 38.11 155.64 36.96 156.49C36.63 156.73 36.36 156.66 35.85 156.59C35.52 156.55 35.09 156.51 34.49 156.54C33.74 156.59 33.22 156.73 32.83 156.83C32.38 156.94 32.11 157 31.85 156.8C31.56 156.56 31.63 156.24 31.58 154.78C31.51 152.62 31.33 152.54 31.41 151.17C31.46 150.25 31.59 149.38 31.59 149.28" /><path class="shp9" d="M19.17 142.59C20.11 142.27 21.41 141.07 21.18 139.98C21.14 139.78 21.05 139.58 20.89 139.4C20.6 139.06 20.22 138.83 19.92 138.51C18.92 137.43 19.06 135.72 19.16 134.7C19.18 134.51 19.2 134.26 19.24 133.98C19.43 132.69 19.95 130.65 21.81 129.44C22.37 129.08 22.94 128.86 23.48 128.73C24.53 128.48 25.46 128.58 25.85 128.62C28.08 128.87 30.8 130.3 31.59 132.89C31.67 133.13 32.02 134.24 31.8 135.54C31.73 135.95 31.61 136.39 31.39 136.82C31.18 137.23 30.72 138.13 29.79 138.66C29.34 138.9 29.01 138.95 28.2 139.4C27.58 139.74 27.24 139.9 27.1 140.13C26.44 141.28 27.77 143.26 27.89 143.45" /><path class="shp9" d="M19.42 133.9C19.36 133.93 19.31 133.95 19.25 133.98C17.62 134.69 15.75 134.91 14.05 134.37C12.3 133.81 10.8 132.38 10.38 130.6C10.22 129.9 10.23 129.13 10.63 128.54C11.05 127.93 11.81 127.64 12.53 127.43C15.07 126.68 17.75 126.41 20.38 126.65C20.81 126.69 21.16 126.68 21.43 126.62C22.25 126.44 22.45 125.8 22.31 124.58C22.19 123.56 22.02 121.14 23.12 120.53C23.72 120.19 24.43 120.61 25.07 120.82C26.21 121.2 27.46 120.93 28.57 120.46C29.04 120.27 29.51 120.02 30.02 120.05C32.52 120.15 29.35 126.09 31.55 127.75C31.76 127.9 32.01 128.02 32.33 128.09C33.46 128.33 34.59 128.58 35.68 128.96C37.1 129.47 38.47 130.25 39.34 131.47C40.25 132.73 40.69 134.89 39.44 136.08C37.96 137.49 34.76 137.95 31.88 135.58" /><path class="shp9" d="M24.64 132.62C24.64 133.02 24.28 133.34 23.82 133.34C23.37 133.34 23 133.02 23 132.62C23 132.23 23.37 131.91 23.82 131.91C24.28 131.91 24.64 132.23 24.64 132.62Z" /><path class="shp9" d="M28.9 133.07C28.9 133.47 28.57 133.81 28.17 133.81C27.77 133.81 27.43 133.47 27.43 133.07C27.43 132.65 27.77 132.32 28.17 132.32C28.57 132.32 28.9 132.65 28.9 133.07Z" /><path class="shp9" d="M22.39 137.04C22.51 137.22 23.08 138.03 24.18 138.25C24.91 138.39 25.51 138.19 25.76 138.09" /><path class="shp9" d="M26.04 133.85C26.01 134.33 25.87 134.65 25.75 134.87C25.53 135.26 25.3 135.38 25.17 135.79C25.07 136.08 25.07 136.35 25.09 136.55" /><path class="shp9" d="M21.37 126.59C21.4 126.59 21.42 126.6 21.45 126.6C22.05 126.67 22.65 126.63 23.24 126.56C24.66 126.41 26.05 126.06 27.48 126.44C27.69 126.49 28.13 126.67 28.88 126.9C29.93 127.25 30.84 127.51 31.58 127.72C31.86 127.79 32.11 127.85 32.33 127.91" /><path class="shp9" d="M9.26 159.35C12.58 161.02 15.34 161.45 17.16 161.54C17.91 161.58 19.44 161.5 22.53 161.33C24.48 161.23 25.94 161.11 27.76 160.81C28.6 160.67 29.3 160.52 29.8 160.41" /><path class="shp9" d="M7.49 181.12C8.3 181.4 9.31 181.64 10.49 181.72C11.75 181.8 12.86 181.66 13.73 181.48" /><path class="shp9" d="M21.45 183.22C21.48 183.23 21.52 183.25 21.56 183.26C22.31 183.51 23.23 183.73 24.29 183.81C25.46 183.89 26.49 183.77 27.29 183.58C27.32 183.57 27.33 183.57 27.36 183.56" /><path class="shp9" d="M5.02 153.93C5 154 4.99 154.07 4.98 154.14C4.46 156.47 4.58 158.25 4.81 159.47C5.03 160.67 5.32 161.14 5.32 162.01C5.32 162.14 5.31 162.27 5.3 162.41C5.14 164.33 4.03 165.48 4.6 166.2C4.82 166.47 5 166.33 5.96 166.93C6.68 167.38 6.77 167.58 6.98 167.53C7.47 167.44 7.75 166.29 7.72 165.15C7.71 164.98 7.7 164.81 7.69 164.65C7.56 163.48 7.18 163.34 6.98 162.33C6.95 162.2 6.94 162.06 6.92 161.93C6.79 160.61 7.38 159.81 7.69 158.18C7.85 157.3 7.94 156.03 7.61 154.39C7.58 154.19 7.53 153.98 7.48 153.76" /><path class="shp9" d="M33.37 156.82C32.8 159.25 32.92 161.11 33.16 162.36C33.36 163.4 33.6 163.9 33.66 164.58C33.68 164.8 33.68 165.03 33.65 165.3C33.49 167.22 32.39 168.37 32.95 169.09C33.17 169.37 33.35 169.22 34.32 169.83C35.03 170.27 35.12 170.47 35.33 170.42C35.89 170.31 36.17 168.84 36.04 167.55C35.91 166.38 35.53 166.24 35.33 165.23C35.28 164.97 35.25 164.72 35.25 164.5C35.24 163.37 35.76 162.57 36.03 161.09C36.21 160.1 36.31 158.61 35.82 156.67" /><path class="shp9" d="M21.75 139.83C22.47 140.1 23.18 140.37 23.93 140.5C24.73 140.64 25.75 140.69 26.4 140.15" /></g></g></g><path class="shp10" d="M146.14 184.95C151.96 184.75 160.06 184.76 169.72 185.74C177.51 186.53 183.16 187.64 191.61 189.31C214.08 193.76 218.48 196.46 228.38 195.27C236.28 194.31 242.6 191.49 246.62 189.31" /><path class="shp11" d="M43.11 200.48C43.13 200.5 43.16 200.52 43.19 200.54C43.56 200.81 44.05 200.81 44.51 200.79C45.72 200.75 46.93 200.71 48.14 200.67C48.48 200.66 48.84 200.64 49.11 200.44C49.53 200.13 49.56 199.53 49.55 199.01C49.49 192.34 49.64 185.67 49.54 179.01C49.45 172.83 49.42 166.65 49.45 160.47C49.51 148.11 49.82 135.74 50.37 123.39C51.12 106.55 52.77 89.73 52.77 72.85C52.78 72.18 52.74 71.42 52.23 70.99C51.82 70.65 51.23 70.64 50.69 70.64C49.35 70.66 48.01 70.68 46.67 70.7C45.73 70.71 44.64 70.8 44.1 71.56C43.74 72.07 43.72 72.74 43.72 73.36C43.62 97.82 43.65 122.26 43.56 146.73C43.5 164.05 43.26 181.38 42.65 198.69C42.62 199.33 42.64 200.07 43.11 200.48Z" /><path class="shp11" d="M141.55 205.44C141.57 205.46 141.6 205.48 141.63 205.5C142 205.77 142.49 205.77 142.95 205.75C144.16 205.71 145.37 205.67 146.58 205.63C146.92 205.62 147.28 205.6 147.55 205.4C147.97 205.09 148 204.49 147.99 203.97C147.93 197.3 148.08 190.63 147.98 183.97C147.89 177.79 147.86 171.61 147.89 165.43C147.95 153.07 148.26 140.7 148.81 128.35C149.56 111.51 151.21 94.69 151.21 77.81C151.22 77.14 151.18 76.38 150.67 75.95C150.26 75.61 149.67 75.6 149.13 75.6C147.79 75.62 146.45 75.64 145.11 75.66C144.17 75.67 143.08 75.76 142.54 76.52C142.18 77.03 142.16 77.7 142.16 78.32C142.06 102.78 142.09 127.22 142 151.69C141.94 169.01 141.7 186.34 141.09 203.65C141.06 204.29 141.08 205.02 141.55 205.44Z" /><g ><path class="shp8" d="M22.91 66.46L37.3 38.7C39.7 34.07 42.05 29.42 44.56 24.85C47.09 20.29 49.6 15.73 52.3 11.26C52.31 11.24 52.35 11.23 52.37 11.24C52.39 11.25 52.4 11.28 52.39 11.3C50.19 16.03 47.81 20.67 45.44 25.31C43.05 29.95 40.5 34.5 38 39.08L23 66.51C22.99 66.53 22.96 66.54 22.93 66.53C22.91 66.52 22.9 66.49 22.91 66.46Z" /></g><g ><path class="shp8" d="M28.47 65.87L42.96 38.9C45.38 34.41 47.75 29.89 50.27 25.45C52.82 21.03 55.34 16.59 58.06 12.27C58.07 12.25 58.11 12.24 58.13 12.25C58.15 12.26 58.16 12.29 58.15 12.31C55.94 16.92 53.53 21.42 51.15 25.93C48.74 30.43 46.18 34.84 43.67 39.28L28.57 65.92C28.56 65.94 28.53 65.95 28.5 65.94C28.47 65.92 28.46 65.89 28.47 65.87Z" /></g><g ><path class="shp8" d="M36.22 66.07L49.1 38.71C51.25 34.15 53.35 29.57 55.61 25.07C57.89 20.58 60.16 16.07 62.62 11.67C62.63 11.65 62.66 11.64 62.69 11.65C62.71 11.66 62.72 11.69 62.71 11.71C60.77 16.37 58.63 20.93 56.51 25.51C54.37 30.07 52.07 34.56 49.82 39.07L36.3 66.12C36.29 66.14 36.26 66.15 36.23 66.14C36.21 66.12 36.2 66.09 36.22 66.07Z" /></g><g ><path class="shp8" d="M43.96 66.07L55.25 39.42C57.14 34.98 58.97 30.52 60.97 26.13C62.99 21.75 64.99 17.36 67.19 13.06C67.2 13.04 67.23 13.03 67.26 13.04C67.28 13.05 67.29 13.08 67.28 13.1C65.61 17.63 63.74 22.08 61.88 26.53C60 30.97 57.97 35.35 55.98 39.74L44.04 66.11C44.03 66.14 44 66.15 43.97 66.13C43.96 66.12 43.95 66.09 43.96 66.07Z" /></g><g ><path class="shp8" d="M50.51 67.86L60.41 41.03C62.06 36.56 63.66 32.07 65.43 27.64C67.22 23.22 68.99 18.8 70.96 14.45C70.97 14.42 71 14.41 71.03 14.43C71.05 14.44 71.06 14.47 71.06 14.49C69.62 19.04 67.99 23.52 66.37 28C64.73 32.47 62.92 36.89 61.16 41.32L50.6 67.89C50.59 67.92 50.56 67.93 50.54 67.92C50.51 67.91 50.5 67.88 50.51 67.86Z" /></g><g ><path class="shp8" d="M55.87 69.05L65.77 40.84C67.42 36.14 69.02 31.42 70.79 26.76C72.58 22.11 74.35 17.45 76.33 12.87C76.34 12.84 76.37 12.83 76.4 12.84C76.42 12.85 76.44 12.88 76.43 12.9C75 17.68 73.36 22.39 71.74 27.1C70.1 31.8 68.29 36.45 66.53 41.11L55.98 69.09C55.97 69.12 55.94 69.13 55.92 69.12C55.87 69.1 55.86 69.08 55.87 69.05Z" /></g><g ><path class="shp8" d="M62.82 68.66L71.02 41.16C72.39 36.58 73.71 31.98 75.19 27.43C76.7 22.89 78.19 18.35 79.89 13.86C79.9 13.83 79.93 13.82 79.95 13.83C79.97 13.84 79.99 13.86 79.98 13.89C78.83 18.54 77.48 23.13 76.14 27.72C74.78 32.31 73.25 36.84 71.78 41.39L62.91 68.69C62.9 68.72 62.87 68.73 62.85 68.72C62.83 68.71 62.81 68.68 62.82 68.66Z" /></g><g ><path class="shp8" d="M70.96 68.86L77.47 42.66C78.56 38.29 79.59 33.91 80.8 29.58C82.03 25.25 83.24 20.92 84.66 16.64C84.67 16.61 84.7 16.6 84.72 16.61C84.74 16.62 84.76 16.64 84.75 16.67C83.89 21.09 82.81 25.46 81.76 29.84C80.68 34.21 79.43 38.53 78.24 42.87L71.05 68.89C71.04 68.92 71.02 68.93 70.99 68.92C70.97 68.91 70.95 68.88 70.96 68.86Z" /></g><g ><path class="shp8" d="M78.9 69.06L83.82 41.3C84.64 36.67 85.41 32.04 86.35 27.43C87.32 22.83 88.26 18.23 89.42 13.67C89.43 13.64 89.45 13.63 89.48 13.63C89.5 13.64 89.52 13.66 89.52 13.68C88.92 18.35 88.12 22.98 87.33 27.61C86.52 32.24 85.53 36.83 84.6 41.44L79 69.08C78.99 69.11 78.97 69.12 78.94 69.12C78.91 69.11 78.9 69.08 78.9 69.06Z" /></g><g ><path class="shp8" d="M84.66 69.85L89.08 42.59C89.82 38.05 90.51 33.49 91.36 28.97C92.24 24.45 93.11 19.93 94.19 15.45C94.2 15.42 94.22 15.41 94.25 15.41C94.27 15.42 94.29 15.44 94.29 15.46C93.78 20.04 93.06 24.59 92.35 29.14C91.62 33.68 90.72 38.2 89.87 42.72L84.76 69.86C84.75 69.89 84.73 69.9 84.7 69.9C84.67 69.9 84.65 69.88 84.66 69.85Z" /></g><g ><path class="shp8" d="M90.42 71.04L94.44 43.68C95.11 39.12 95.73 34.55 96.53 30.01C97.35 25.47 98.15 20.94 99.16 16.43C99.17 16.4 99.19 16.39 99.22 16.39C99.25 16.4 99.26 16.42 99.26 16.44C98.81 21.04 98.16 25.6 97.52 30.16C96.86 34.72 96.02 39.25 95.24 43.79L90.53 71.04C90.53 71.07 90.5 71.09 90.47 71.08C90.43 71.1 90.41 71.07 90.42 71.04Z" /></g><g ><path class="shp8" d="M96.97 70.45L100.1 43.8C100.63 39.36 101.09 34.91 101.74 30.48C102.41 26.06 103.06 21.63 103.92 17.24C103.93 17.21 103.95 17.2 103.98 17.2C104.01 17.2 104.02 17.23 104.02 17.25C103.73 21.72 103.22 26.17 102.73 30.61C102.22 35.05 101.53 39.47 100.89 43.9L97.07 70.46C97.07 70.49 97.04 70.51 97.01 70.5C96.98 70.5 96.96 70.48 96.97 70.45Z" /></g><g ><path class="shp8" d="M103.72 71.44L106.25 44.3C106.68 39.78 107.05 35.25 107.59 30.74C108.16 26.23 108.71 21.72 109.48 17.24C109.48 17.21 109.51 17.19 109.54 17.2C109.57 17.2 109.58 17.23 109.58 17.25C109.39 21.8 108.98 26.32 108.59 30.85C108.18 35.37 107.58 39.88 107.05 44.39L103.82 71.46C103.82 71.49 103.79 71.51 103.76 71.5C103.73 71.5 103.72 71.47 103.72 71.44Z" /></g><g ><path class="shp8" d="M112.06 73.63L113.1 45.32C113.28 40.6 113.4 35.88 113.7 31.17C114.02 26.46 114.33 21.75 114.84 17.05C114.84 17.02 114.87 17 114.9 17.01C114.93 17.01 114.94 17.03 114.94 17.06C114.99 21.79 114.84 26.51 114.69 31.23C114.52 35.95 114.18 40.66 113.9 45.37L112.16 73.65C112.16 73.68 112.13 73.7 112.11 73.7C112.08 73.68 112.06 73.66 112.06 73.63Z" /></g><g ><path class="shp8" d="M119.6 74.03L120.44 45.82C120.58 41.12 120.67 36.41 120.94 31.72C121.23 27.02 121.5 22.33 121.99 17.64C121.99 17.61 122.02 17.59 122.04 17.6C122.07 17.6 122.08 17.62 122.09 17.65C122.18 22.36 122.05 27.06 121.94 31.77C121.81 36.47 121.5 41.17 121.24 45.86L119.7 74.04C119.7 74.07 119.67 74.09 119.65 74.09C119.62 74.08 119.6 74.06 119.6 74.03Z" /></g><g ><path class="shp8" d="M126.95 74.23L126.4 45.84C126.31 41.11 126.17 36.38 126.2 31.64C126.26 26.91 126.3 22.17 126.55 17.44C126.55 17.41 126.58 17.39 126.6 17.39C126.63 17.39 126.65 17.41 126.65 17.44C126.97 22.17 127.07 26.9 127.2 31.63C127.3 36.36 127.22 41.09 127.2 45.83L127.05 74.23C127.05 74.26 127.03 74.28 127 74.28C126.97 74.28 126.95 74.26 126.95 74.23Z" /></g><g ><path class="shp8" d="M136.68 75.03L133.85 46.47C133.38 41.71 132.86 36.95 132.51 32.18C132.19 27.41 131.85 22.64 131.72 17.85C131.72 17.82 131.74 17.8 131.77 17.8C131.8 17.8 131.82 17.82 131.82 17.84C132.52 22.58 133 27.34 133.51 32.1C133.99 36.86 134.29 41.63 134.65 46.4L136.78 75.02C136.78 75.05 136.76 75.07 136.73 75.07C136.7 75.07 136.68 75.05 136.68 75.03Z" /></g><g ><path class="shp8" d="M144.22 74.24L140.5 46.39C139.88 41.75 139.21 37.11 138.71 32.45C138.24 27.79 137.75 23.13 137.47 18.45C137.47 18.42 137.49 18.4 137.52 18.4C137.55 18.4 137.57 18.42 137.57 18.44C138.42 23.05 139.05 27.7 139.7 32.33C140.33 36.97 140.78 41.63 141.29 46.29L144.32 74.23C144.32 74.26 144.3 74.28 144.28 74.29C144.25 74.28 144.23 74.26 144.22 74.24Z" /></g><g ><path class="shp8" d="M149.58 73.05L145.16 45.7C144.43 41.14 143.64 36.59 143.03 32.01C142.44 27.43 141.83 22.85 141.44 18.24C141.44 18.21 141.46 18.19 141.49 18.19C141.52 18.19 141.54 18.21 141.54 18.23C142.5 22.75 143.25 27.31 144.02 31.86C144.76 36.42 145.33 41 145.96 45.57L149.68 73.02C149.68 73.05 149.66 73.07 149.64 73.08C149.61 73.09 149.59 73.07 149.58 73.05Z" /></g><g ><path class="shp8" d="M158.72 73.45L151.63 46.63C150.45 42.16 149.22 37.7 148.16 33.2C147.12 28.69 146.07 24.19 145.22 19.64C145.21 19.61 145.23 19.59 145.26 19.58C145.29 19.58 145.31 19.59 145.32 19.61C146.72 24.02 147.92 28.49 149.13 32.95C150.32 37.42 151.34 41.93 152.41 46.43L158.82 73.42C158.83 73.45 158.81 73.47 158.78 73.48C158.75 73.49 158.72 73.47 158.72 73.45Z" /></g><g ><path class="shp8" d="M168.65 75.83L159.18 47.74C157.61 43.06 155.98 38.39 154.52 33.67C153.08 28.94 151.63 24.22 150.38 19.43C150.37 19.4 150.39 19.38 150.42 19.37C150.44 19.36 150.47 19.38 150.48 19.4C152.27 24.01 153.87 28.69 155.47 33.36C157.05 38.04 158.47 42.77 159.94 47.49L168.74 75.79C168.75 75.82 168.73 75.84 168.71 75.85C168.68 75.87 168.65 75.86 168.65 75.83Z" /></g><g ><path class="shp8" d="M178.58 74.84L166.64 47.18C164.65 42.57 162.62 37.98 160.74 33.32C158.89 28.65 157.02 23.99 155.35 19.25C155.34 19.22 155.35 19.2 155.38 19.19C155.4 19.18 155.43 19.19 155.44 19.22C157.64 23.74 159.64 28.35 161.66 32.94C163.66 37.55 165.49 42.22 167.38 46.88L178.67 74.81C178.68 74.84 178.67 74.86 178.64 74.87C178.61 74.88 178.59 74.87 178.58 74.84Z" /></g><g ><g ><g ><path class="shp12" d="M133.63 115.02C137.63 126.56 135.33 132.38 134.24 154.93C133.05 179.74 136.21 193.8 130.14 196.21C128.65 196.8 127.39 196.39 125.36 195.89C124 195.56 119.15 195.19 110.11 194.61C110.25 186.41 110.64 179.74 110.99 175.13C111.32 170.57 111.97 163.07 111.54 153.31C111.16 144.64 110.26 141.81 108.06 140.11C106.96 139.26 105.31 138.53 97.03 139.04C87.77 139.62 83.14 139.92 81.06 141.56C76.64 145.07 77.66 151.26 77.4 165.96C77.3 171.86 76.97 180.64 75.83 191.51C72.72 191.28 69.6 191.19 66.48 191.37C64.92 191.47 61.15 191.74 58.65 189.38C56.09 186.97 56.32 182.96 56.3 179.71C56.24 170.66 55.07 161.66 55 152.61C54.92 143.77 56.39 135.03 57.64 126.31C58.91 117.4 59.53 106.97 66.01 99.99C77.21 87.92 93.36 87.3 95.33 87.25C98.87 87.17 110.19 87.08 120.36 94.95C128.82 101.51 131.89 110.01 133.63 115.02Z" /><path class="shp13" d="M111.53 153.31C111.96 163.07 111.32 170.58 110.98 175.13C110.63 179.75 110.24 186.41 110.1 194.61C106.65 194.4 102.58 194.15 97.86 193.85C90.5 193.4 83.17 192.05 75.83 191.5C76.96 180.63 77.3 171.85 77.4 165.95C77.66 151.25 76.64 145.07 81.06 141.55C83.14 139.91 87.77 139.61 97.03 139.03C105.3 138.51 106.95 139.24 108.06 140.1C110.25 141.81 111.15 144.64 111.53 153.31Z" /></g><g ><path class="shp10" d="M110.11 194.62C119.16 195.2 124.01 195.57 125.36 195.9C127.39 196.41 128.65 196.81 130.14 196.22C136.21 193.81 133.05 179.75 134.24 154.94C135.33 132.38 137.63 126.57 133.63 115.03C131.89 110.02 128.82 101.51 120.35 94.96C110.18 87.09 98.86 87.19 95.32 87.26C93.35 87.31 77.2 87.92 66 100C59.53 106.98 58.91 117.4 57.63 126.32C56.38 135.04 54.91 143.78 54.99 152.62C55.07 161.67 56.23 170.67 56.29 179.72C56.31 182.97 56.09 186.99 58.64 189.39C61.14 191.75 64.91 191.47 66.47 191.38C69.59 191.2 72.71 191.28 75.82 191.52C83.16 192.07 90.5 193.42 97.85 193.87C102.59 194.16 106.65 194.41 110.11 194.62Z" /><path class="shp10" d="M75.73 192.45C75.77 192.13 75.8 191.82 75.83 191.51C76.96 180.64 77.3 171.86 77.4 165.96C77.66 151.26 76.64 145.08 81.06 141.56C83.14 139.92 87.77 139.62 97.03 139.04C105.3 138.52 106.95 139.25 108.06 140.11C110.26 141.81 111.16 144.64 111.54 153.31C111.97 163.07 111.33 170.58 110.99 175.13C110.64 179.75 110.25 186.41 110.11 194.61C110.1 194.79 110.1 194.97 110.1 195.16" /></g></g></g><path class="shp14" d="M17.48 161.25C17.54 161.2 17.61 161.15 17.69 161.11C17.87 161.03 18.08 161.01 18.28 161C19.12 160.95 19.97 160.92 20.82 160.93C21.41 160.93 22.21 160.81 22.76 161.08C23.61 161.53 23.81 162.66 23.66 163.53C23.6 163.86 23.5 164.21 23.24 164.42C22.98 164.64 22.62 164.68 22.28 164.71C20.79 164.84 19.28 164.82 17.79 164.75C17.47 164.73 17.11 164.7 16.89 164.46C16.38 163.9 16.79 162.63 17.01 162.03C17.11 161.73 17.25 161.44 17.48 161.25Z" /><path class="shp15" d="M82.27 162.67L93.71 165.72L92.48 170.33L81.04 167.28L82.27 162.67Z" /><path class="shp15" d="M83.59 170.62L95.03 173.67L93.8 178.28L82.36 175.23L83.59 170.62Z" /><path class="shp15" d="M79.81 180.37L91.32 177.61L92.44 182.25L80.92 185.01L79.81 180.37Z" /><path class="shp15" d="M86.68 185L98.12 188.05L96.89 192.66L85.45 189.61L86.68 185Z" /><path class="shp15" d="M91.77 161.56L103.55 160.36L104.04 165.1L92.26 166.31L91.77 161.56Z" /><path class="shp15" d="M96.2 165.83L107.52 169.3L106.12 173.86L94.8 170.39L96.2 165.83Z" /><path class="shp15" d="M91.55 176.88L102.81 173.23L104.28 177.77L93.02 181.42L91.55 176.88Z" /><path class="shp15" d="M94.53 180.45L105.97 183.5L104.74 188.11L93.3 185.05L94.53 180.45Z" /><path class="shp16" d="M159.19 150.97L170.63 154.02L169.4 158.63L157.96 155.58L159.19 150.97Z" /><path class="shp16" d="M160.51 158.92L171.95 161.97L170.72 166.58L159.28 163.53L160.51 158.92Z" /><path class="shp16" d="M156.72 168.68L168.24 165.92L169.35 170.56L157.84 173.32L156.72 168.68Z" /><path class="shp16" d="M163.6 173.3L175.04 176.35L173.81 180.96L162.37 177.91L163.6 173.3Z" /><path class="shp16" d="M168.69 149.86L180.47 148.66L180.96 153.4L169.18 154.61L168.69 149.86Z" /><path class="shp16" d="M173.13 154.13L184.45 157.6L183.05 162.16L171.73 158.69L173.13 154.13Z" /><path class="shp16" d="M168.47 165.19L179.74 161.54L181.21 166.08L169.94 169.73L168.47 165.19Z" /><path class="shp16" d="M171.45 168.76L182.89 171.81L181.66 176.42L170.22 173.37L171.45 168.76Z" /><path class="shp16" d="M193.42 156.79L204.86 159.84L203.63 164.45L192.19 161.4L193.42 156.79Z" /><path class="shp16" d="M194.74 164.74L206.18 167.79L204.95 172.4L193.51 169.35L194.74 164.74Z" /><path class="shp16" d="M190.96 174.5L202.48 171.74L203.59 176.38L192.08 179.14L190.96 174.5Z" /><path class="shp16" d="M197.83 179.12L209.27 182.17L208.04 186.78L196.6 183.73L197.83 179.12Z" /><path class="shp16" d="M202.92 155.69L214.7 154.48L215.19 159.22L203.41 160.43L202.92 155.69Z" /><path class="shp16" d="M207.36 159.95L218.68 163.42L217.28 167.98L205.96 164.51L207.36 159.95Z" /><path class="shp16" d="M202.7 171.01L213.97 167.36L215.44 171.9L204.17 175.55L202.7 171.01Z" /><path class="shp16" d="M205.68 174.58L217.12 177.63L215.89 182.24L204.45 179.19L205.68 174.58Z" /><g ><path class="shp8" d="M21.35 200.85C27.33 200.57 33.32 200.44 39.32 200.46C45.31 200.54 51.3 200.79 57.29 201.18C63.28 201.55 69.24 202.24 75.19 202.99C81.13 203.75 87.06 204.56 92.99 205.41C98.91 206.31 104.82 207.3 110.72 208.3C116.62 209.29 122.51 210.32 128.41 210.72C134.32 211.07 140.29 210.57 146.16 209.62C152.05 208.7 157.85 207.21 163.49 205.21C163.52 205.2 163.54 205.21 163.55 205.24C163.56 205.27 163.55 205.29 163.52 205.3C157.93 207.44 152.14 209.07 146.25 210.13C143.3 210.67 140.33 211.06 137.35 211.3C134.37 211.56 131.36 211.63 128.37 211.49C122.38 211.2 116.47 210.14 110.57 209.19C104.67 208.22 98.76 207.26 92.84 206.39C81 204.68 69.15 202.88 57.22 201.94C45.29 200.99 33.31 200.64 21.35 200.93C21.32 200.93 21.3 200.91 21.3 200.88C21.3 200.88 21.32 200.85 21.35 200.85Z" /></g></g></g></svg>