<?xml version="1.0" encoding="utf-8"?>
<!-- Generator: Adobe Illustrator 23.0.2, SVG Export Plug-In . SVG Version: 6.00 Build 0)  -->
<svg version="1.1" xmlns="http://www.w3.org/2000/svg" xmlns:xlink="http://www.w3.org/1999/xlink" x="0px" y="0px"
	 viewBox="0 0 222.64 222.73" style="enable-background:new 0 0 222.64 222.73;" xml:space="preserve">
<style type="text/css">
	.st0{display:none;}
	.st1{display:inline;}
	.st2{fill:#FFFFFF;}
	.st3{fill:none;stroke:#1D1D1B;stroke-width:0.25;stroke-miterlimit:10;}
	.st4{fill:#CABA9F;stroke:#1D1D1B;stroke-width:0.25;stroke-miterlimit:10;}
	.st5{fill:#1D1D1B;stroke:#1D1D1B;stroke-width:0.25;stroke-miterlimit:10;}
	.st6{fill:#E20613;stroke:#1D1D1B;stroke-width:0.25;stroke-miterlimit:10;}
	.st7{fill:#35A8E0;stroke:#1D1D1B;stroke-width:0.25;stroke-miterlimit:10;}
	.st8{fill:#C6C6C5;stroke:#1D1D1B;stroke-width:0.25;stroke-miterlimit:10;}
	.st9{fill:#1D1D1B;}
	.st10{fill:#E5007E;}
	.st11{fill:#E84E1B;}
	.st12{display:inline;opacity:0.77;fill:#E1BF80;}
	.st13{display:inline;opacity:0.81;fill:#BBD5DE;}
	.st14{display:inline;opacity:0.85;fill:#E3F3C1;}
	.st15{display:inline;opacity:0.83;fill:#DDBDEE;}
	.st16{display:inline;opacity:0.73;fill:#A2CAA3;}
	.st17{display:inline;opacity:0.44;fill:#39B54A;stroke:#39B54A;stroke-width:8;stroke-miterlimit:10;}
	.st18{display:inline;fill:none;stroke:#0000FF;stroke-width:3;stroke-miterlimit:10;}
	.st19{display:inline;fill:none;}
	.st20{display:inline;fill:#CCCCCC;stroke:#CCCCCC;stroke-width:3;stroke-miterlimit:10;}
	.st21{display:inline;opacity:0.94;fill:#FFFF00;}
	.st22{display:inline;fill:#8CC63F;}
	.st23{fill:#63D0F7;}
	.st24{fill:#D9E021;}
	.st25{fill:#39B54A;}
	.st26{fill:#FFFF00;}
	.st27{fill:#8CC63F;}
	.st28{fill:#F4BE78;}
	.st29{display:inline;opacity:0.53;fill:#8CC63F;}
	.st30{display:inline;fill:#16905C;stroke:#009245;stroke-miterlimit:10;}
	.st31{display:inline;fill:#009245;stroke:#009245;stroke-miterlimit:10;}
	.st32{display:inline;fill:#168F54;stroke:#009245;stroke-miterlimit:10;}
	.st33{display:inline;opacity:0.99;fill:#FFFF00;}
	.st34{display:inline;fill:#A67C52;stroke:#A67C52;stroke-miterlimit:10;}
	.st35{fill:#A67C52;stroke:#A67C52;stroke-miterlimit:10;}
	.st36{fill:none;stroke:#FFFFFF;stroke-miterlimit:10;}
	.st37{fill:none;stroke:#FFFFFF;stroke-width:0.5;stroke-miterlimit:10;}
	.st38{fill:#80AD28;}
	.st39{fill:#67A32E;}
	.st40{display:inline;opacity:0.65;fill:#8CC63F;stroke:#8CC63F;stroke-miterlimit:10;}
	.st41{display:inline;opacity:0.69;}
	.st42{fill:#6FA62D;}
	.st43{fill:none;stroke:#DBDBDB;stroke-width:7;stroke-miterlimit:10;}
	.st44{display:inline;fill:none;stroke:#999999;stroke-width:7;stroke-miterlimit:10;}
	.st45{display:inline;fill:#F2F20A;stroke:#999999;stroke-width:7;stroke-miterlimit:10;}
	.st46{fill:none;stroke:#999999;stroke-width:7;stroke-miterlimit:10;}
	.st47{fill:none;stroke:#1A1A1A;stroke-width:7;stroke-miterlimit:10;}
	.st48{fill:none;stroke:#000000;stroke-width:7;stroke-miterlimit:10;}
	.st49{display:inline;fill:none;stroke:#FBB03B;stroke-width:3;stroke-miterlimit:10;}
	.st50{fill:none;stroke:#0000FF;stroke-width:7;stroke-miterlimit:10;}
	.st51{fill:#603813;}
	.st52{display:inline;fill:none;stroke:#0000FF;stroke-width:5;stroke-miterlimit:10;}
	.st53{fill:none;stroke:#0000FF;stroke-width:5;stroke-miterlimit:10;}
	.st54{display:inline;opacity:0.94;fill:#603813;}
	.st55{display:inline;fill:none;stroke:#F15A24;stroke-width:3;stroke-miterlimit:10;}
	.st56{fill:none;stroke:#FBB03B;stroke-width:3;stroke-miterlimit:10;}
	.st57{display:inline;fill:none;stroke:#D85C4C;stroke-width:6;stroke-miterlimit:10;}
	.st58{display:inline;fill:none;stroke:#40CCC8;stroke-width:6;stroke-miterlimit:10;}
	.st59{display:inline;fill:none;stroke:#1FC11F;stroke-width:6;stroke-miterlimit:10;}
	.st60{display:inline;fill:none;stroke:#1FC11F;stroke-width:4;stroke-miterlimit:10;}
	.st61{display:inline;fill:none;stroke:#9B5F10;stroke-width:6;stroke-miterlimit:10;}
	.st62{display:inline;opacity:0.47;}
	.st63{display:inline;opacity:0.45;}
	.st64{fill:#20FFFF;}
	.st65{fill:#52BE61;}
	.st66{fill:#5A3D2A;}
	.st67{fill:#928772;}
	.st68{fill:#C79924;}
	.st69{display:inline;fill:none;stroke:#000000;stroke-miterlimit:10;}
	.st70{display:inline;opacity:0.45;fill:none;stroke:#67200A;stroke-width:3;stroke-miterlimit:10;}
	.st71{display:inline;opacity:0.64;fill:none;stroke:#67200A;stroke-width:4;stroke-miterlimit:10;}
	.st72{display:inline;opacity:0.64;fill:none;stroke:#67200A;stroke-width:7;stroke-miterlimit:10;}
	.st73{display:inline;opacity:0.64;fill:none;stroke:#67200A;stroke-width:2;stroke-miterlimit:10;}
	.st74{display:inline;opacity:0.4;fill:#F2F2F2;}
	.st75{display:inline;opacity:0.39;fill:#F2F2F2;}
	.st76{display:inline;opacity:0.45;fill:#F2F2F2;stroke:#FFFFFF;stroke-width:3;stroke-miterlimit:10;}
	.st77{display:inline;opacity:0.45;fill:#F2F2F2;}
	.st78{display:inline;opacity:0.31;fill:#F2F2F2;}
	.st79{display:inline;opacity:0.48;fill:#F2F2F2;}
	.st80{display:inline;opacity:0.43;}
	.st81{fill:#F2F2F2;}
	.st82{fill:#217D47;}
	.st83{fill:#20A05D;}
	.st84{fill:#79CFD6;}
	.st85{fill:#C94248;}
	.st86{fill:#F8A13B;}
	.st87{display:inline;fill:none;stroke:#FFFF00;stroke-width:2;stroke-miterlimit:10;}
	.st88{display:inline;fill:none;stroke:#009245;stroke-width:3;stroke-miterlimit:10;}
	.st89{display:inline;fill:none;stroke:#000000;stroke-width:2;stroke-miterlimit:10;}
	.st90{display:inline;fill:none;stroke:#F4E12F;stroke-width:5;stroke-miterlimit:10;}
	.st91{fill:#F4E12F;stroke:#000000;stroke-width:2;stroke-miterlimit:10;}
	.st92{fill:#F4E12F;stroke:#000000;stroke-miterlimit:10;}
	.st93{display:inline;fill:none;stroke:#736357;stroke-width:0.75;stroke-miterlimit:10;}
	.st94{display:inline;fill:none;stroke:#736357;stroke-width:0.5;stroke-miterlimit:10;}
	.st95{fill:none;stroke:#F94B4B;stroke-width:9;stroke-miterlimit:10;}
	.st96{fill:none;stroke:#F94B4B;stroke-width:9;stroke-miterlimit:10;stroke-dasharray:1.017,1.017,1.017,1.017;}
	.st97{fill:none;stroke:#F94B4B;stroke-width:9;stroke-miterlimit:10;stroke-dasharray:5.0679,5.0679,5.0679,5.0679;}
	.st98{fill:none;stroke:#F94B4B;stroke-width:9;stroke-miterlimit:10;stroke-dasharray:5.0679,5.0679,5.0679,5.0679,5.0679,5.0679;}
	.st99{display:inline;fill:none;stroke:#FF0000;stroke-width:6;stroke-miterlimit:10;stroke-dasharray:5,5,5,5,5,5;}
	.st100{display:inline;fill:none;stroke:#F94B4B;stroke-width:9;stroke-miterlimit:10;stroke-dasharray:5,5,5,5,5,5;}
	.st101{display:inline;fill:none;stroke:#0000FF;stroke-miterlimit:10;}
	.st102{fill:#0000FF;}
	.st103{fill:#2121C1;}
	.st104{display:inline;fill:none;stroke:#0000FF;stroke-width:2;stroke-miterlimit:10;}
	.st105{display:inline;opacity:0.54;}
	.st106{display:inline;fill:none;stroke:#000000;stroke-width:0.25;stroke-miterlimit:10;}
	.st107{display:inline;fill:#EDB03B;stroke:#FBB03B;stroke-width:0.25;stroke-miterlimit:10;}
	.st108{display:inline;fill:#F0B03B;stroke:#FBB03B;stroke-width:0.25;stroke-miterlimit:10;}
	.st109{display:inline;fill:#EEB03B;stroke:#FBB03B;stroke-width:0.25;stroke-miterlimit:10;}
	.st110{display:inline;fill:#E8B03B;stroke:#FBB03B;stroke-width:0.25;stroke-miterlimit:10;}
	.st111{display:inline;fill:#E9B03B;stroke:#FBB03B;stroke-width:0.25;stroke-miterlimit:10;}
	.st112{display:inline;fill:#FBB03B;stroke:#FBB03B;stroke-width:0.25;stroke-miterlimit:10;}
	.st113{display:inline;fill:#EBB03B;stroke:#FBB03B;stroke-width:0.25;stroke-miterlimit:10;}
	.st114{display:inline;fill:#EAB03B;stroke:#FBB03B;stroke-width:0.25;stroke-miterlimit:10;}
	.st115{display:inline;fill:#F6B03B;stroke:#FBB03B;stroke-width:0.25;stroke-miterlimit:10;}
	.st116{display:inline;fill:#F2B03B;stroke:#FBB03B;stroke-width:0.25;stroke-miterlimit:10;}
	.st117{display:inline;fill:#F4B03B;stroke:#FBB03B;stroke-width:0.25;stroke-miterlimit:10;}
	.st118{display:inline;fill:none;stroke:#FCEE21;stroke-width:10;stroke-miterlimit:10;}
	.st119{display:inline;fill:none;stroke:#000000;stroke-width:8;stroke-miterlimit:10;}
	.st120{display:inline;fill:none;stroke:#736357;stroke-width:4;stroke-miterlimit:10;}
	.st121{display:inline;fill:none;stroke:#0000FF;stroke-width:8;stroke-miterlimit:10;}
	.st122{display:inline;fill:none;stroke:#0071BC;stroke-width:5;stroke-miterlimit:10;}
	.st123{display:inline;fill:none;stroke:#0071BC;stroke-width:5;stroke-miterlimit:10;stroke-dasharray:8,8;}
	.st124{display:inline;fill:none;stroke:#C1272D;stroke-width:2;stroke-miterlimit:10;}
	.st125{display:inline;fill:none;stroke:#FF0000;stroke-width:3;stroke-miterlimit:10;}
	.st126{display:inline;fill:none;stroke:#F92010;stroke-width:2;stroke-miterlimit:10;}
	.st127{display:inline;fill:none;stroke:#ED2207;stroke-width:5;stroke-miterlimit:10;}
	.st128{display:inline;fill:#EF220C;}
	.st129{fill:#26120B;}
	.st130{fill:#12491D;}
	.st131{fill:none;stroke:#FFFFFF;stroke-width:0.5;stroke-linecap:round;stroke-linejoin:round;stroke-miterlimit:10;}
	.st132{fill:#2E3192;}
	.st133{fill:#522812;}
	.st134{fill:url(#XMLID_2537_);}
	.st135{opacity:0.26;}
	.st136{fill:none;stroke:#FFFFFF;stroke-width:9;stroke-miterlimit:10;}
	.st137{fill:#FFFFFF;stroke:#FFFFFF;stroke-width:9;stroke-miterlimit:10;}
	.st138{fill:none;stroke:#000000;stroke-width:0.25;stroke-miterlimit:10;}
	.st139{fill:#FF8000;}
	.st140{fill:#80C41C;stroke:#000000;stroke-width:0.1;stroke-miterlimit:10;}
	.st141{fill:none;stroke:#FF8000;stroke-miterlimit:10;}
	.st142{fill:#8C6239;stroke:#42210B;stroke-width:0.25;stroke-miterlimit:10;}
	.st143{fill:#603813;stroke:#42210B;stroke-width:0.25;stroke-miterlimit:10;}
	.st144{fill:#C69C6D;}
	.st145{fill:#42210B;stroke:#42210B;stroke-width:0.25;stroke-miterlimit:10;}
	.st146{fill:#F7931E;}
	.st147{fill:#F15A24;}
	.st148{fill:#D4145A;}
	.st149{fill:#006837;}
	.st150{fill:#662D91;}
	.st151{fill:#ED1C24;}
	.st152{fill:#C1272D;}
	.st153{fill:#1B1464;}
	.st154{fill:#BEAC83;}
	.st155{fill:#C2000B;}
	.st156{fill:#C7B299;}
	.st157{opacity:0.32;}
	.st158{fill:#F5F5F5;}
	.st159{fill:none;stroke:#000000;stroke-width:6;stroke-miterlimit:10;}
	.st160{fill:none;stroke:#FFFFFF;stroke-width:8;stroke-linecap:round;stroke-linejoin:round;stroke-miterlimit:10;}
	.st161{opacity:0.72;}
	.st162{fill:#FFFF00;stroke:#000000;stroke-miterlimit:10;}
	.st163{fill:none;stroke:#4D4D4D;stroke-width:4;stroke-miterlimit:10;}
	.st164{fill:none;stroke:#110B79;stroke-width:5;stroke-miterlimit:10;}
	.st165{fill:none;stroke:#110B79;stroke-width:3;stroke-miterlimit:10;}
	.st166{fill:none;stroke:#2E58A6;stroke-width:2;stroke-miterlimit:10;}
	.st167{fill:#FEA812;stroke:#63300F;stroke-width:0.7087;stroke-linecap:round;stroke-linejoin:round;stroke-miterlimit:10;}
	.st168{fill:#FCEE21;}
	.st169{fill:none;stroke:#000000;stroke-width:0.05;stroke-miterlimit:10;}
	.st170{fill:#F62700;}
	.st171{fill:none;stroke:#000000;stroke-width:0.5;stroke-miterlimit:10;}
	.st172{fill:#4D1F03;stroke:#000000;stroke-width:0.5;stroke-miterlimit:10;}
	.st173{fill:none;stroke:#FFFFFF;stroke-width:0.25;stroke-miterlimit:10;}
	.st174{fill:url(#XMLID_2561_);stroke:#000000;stroke-width:0.5;stroke-miterlimit:10;}
	.st175{fill:#8E2E0B;}
	.st176{fill:#2E58A6;}
	.st177{fill:#93583A;}
	.st178{fill:#C6B491;}
	.st179{fill:#534741;}
	.st180{fill:#FD1A16;}
	.st181{fill:#F2F91C;}
	.st182{fill:#6B1687;}
	.st183{fill:none;stroke:#000000;stroke-width:0.1;stroke-linecap:round;stroke-linejoin:round;}
	.st184{fill:#42210B;}
	.st185{fill:#237D26;}
	.st186{fill:#80C41C;}
	.st187{fill:#40A629;}
	.st188{fill:#009245;}
	.st189{fill:#BE894A;}
	.st190{fill:#4FA0CA;}
	.st191{fill:#F0047F;}
	.st192{fill:#F487BC;}
	.st193{fill:#FEA621;}
	.st194{fill:#63300F;}
	.st195{fill:#0B0146;}
	.st196{fill:none;stroke:#000000;stroke-width:0.25;stroke-linecap:round;stroke-linejoin:round;}
	.st197{fill:#4D1F03;stroke:#000000;stroke-width:0.25;stroke-linecap:round;stroke-linejoin:round;}
	.st198{fill:#333333;}
	.st199{fill:#1A1A1A;stroke:#000000;stroke-width:0.25;stroke-linecap:round;stroke-linejoin:round;}
	.st200{fill:#333333;stroke:#000000;stroke-width:0.25;stroke-linecap:round;stroke-linejoin:round;}
	.st201{fill:#C1272D;stroke:#000000;stroke-width:0.1;stroke-linecap:round;stroke-linejoin:round;}
	.st202{fill:#DD7808;}
	.st203{fill:none;stroke:#63300F;stroke-width:0.25;stroke-miterlimit:10;}
	.st204{fill:#40A629;stroke:#12491D;stroke-width:0.25;stroke-miterlimit:10;}
	.st205{fill:#12491D;stroke:#000000;stroke-width:0.25;stroke-miterlimit:10;}
	.st206{fill:#237D26;stroke:#000000;stroke-width:0.25;stroke-miterlimit:10;}
	.st207{fill:#40A629;stroke:#000000;stroke-width:0.25;stroke-miterlimit:10;}
	.st208{fill:#CCE70B;stroke:#000000;stroke-width:0.25;stroke-miterlimit:10;}
	.st209{fill-rule:evenodd;clip-rule:evenodd;fill:none;stroke:#FFFFFF;stroke-miterlimit:2.4142;}
	
		.st210{fill-rule:evenodd;clip-rule:evenodd;fill:#111183;stroke:#FFFFFF;stroke-width:0.6;stroke-linecap:round;stroke-linejoin:round;stroke-miterlimit:10;}
	.st211{fill:#111183;}
	.st212{fill:#FFFFFF;stroke:#FFFFFF;stroke-miterlimit:10;}
	.st213{fill:#452F27;}
	.st214{fill:#F36F40;}
	.st215{fill:#207B50;}
	.st216{fill:#FFFFFF;stroke:#000000;stroke-width:2;stroke-miterlimit:10;}
	.st217{fill:none;}
	.st218{clip-path:url(#SVGID_10_);fill:#2E3192;}
	.st219{clip-path:url(#SVGID_10_);fill:#39B54A;}
	.st220{fill:none;stroke:#C1272D;stroke-width:3;stroke-miterlimit:10;}
	.st221{fill:url(#SVGID_11_);}
	.st222{clip-path:url(#SVGID_13_);}
	.st223{fill:none;stroke:#FFFF00;stroke-miterlimit:10;}
	.st224{fill:#006837;stroke:#FFFFFF;stroke-width:0.5;stroke-miterlimit:10;}
	.st225{fill:#FFFFFF;stroke:#FFFFFF;stroke-width:0.75;stroke-miterlimit:10;}
	.st226{fill:none;stroke:#FFFFFF;stroke-width:0.75;stroke-miterlimit:10;}
	.st227{fill:#4D1F03;}
	.st228{fill:url(#SVGID_20_);}
	.st229{fill:#D1D117;}
	.st230{fill:#7E4E24;stroke:#1D1D1B;stroke-width:0.25;stroke-miterlimit:10;}
	.st231{fill:#FFEC00;}
	.st232{fill:#7C411E;}
	.st233{fill:none;stroke:#000000;stroke-miterlimit:10;}
	.st234{fill:#2C5B20;}
	.st235{fill:none;stroke:#A0642F;stroke-width:0.25;stroke-miterlimit:10;}
	.st236{fill:#999999;}
	.st237{fill:#008D36;}
	.st238{fill:#93C01F;}
	.st239{fill:#683B11;}
	.st240{fill:#FCEA0D;}
	.st241{fill:#ECECEC;}
	.st242{fill:#F29100;}
	.st243{fill:#81358A;}
	.st244{fill:#BD1622;}
	.st245{fill:#006633;}
	.st246{fill:#925F36;}
	.st247{fill:#422918;}
	.st248{fill:#FE330A;}
	.st249{stroke:#000000;stroke-width:0.25;stroke-linecap:round;stroke-linejoin:round;}
	.st250{fill:none;stroke:#000000;stroke-width:0.27;stroke-linecap:round;stroke-linejoin:round;}
	.st251{fill:#63300F;stroke:#000000;stroke-width:0.25;stroke-linecap:round;stroke-linejoin:round;}
	.st252{fill:#4A007D;}
	.st253{stroke:#000000;stroke-width:0.25;stroke-miterlimit:10;}
	.st254{fill:#63300F;stroke:#000000;stroke-width:0.25;stroke-miterlimit:10;}
	.st255{fill:#BE894A;stroke:#000000;stroke-width:0.25;stroke-miterlimit:10;}
	.st256{fill:#FFFF00;stroke:#000000;stroke-width:0.25;stroke-miterlimit:10;}
	.st257{fill:#26120B;stroke:#000000;stroke-width:0.25;stroke-miterlimit:10;}
	.st258{fill:#F0047F;stroke:#000000;stroke-width:0.25;stroke-miterlimit:10;}
	.st259{fill:#A0642F;stroke:#000000;stroke-width:0.1;stroke-miterlimit:10;}
	.st260{stroke:#000000;stroke-width:0.1;stroke-miterlimit:10;}
	.st261{fill:#BEAC83;stroke:#000000;stroke-width:0.1;stroke-miterlimit:10;}
	.st262{fill:#63300F;stroke:#000000;stroke-width:0.1;stroke-miterlimit:10;}
	.st263{fill:none;stroke:#000000;stroke-width:0.1;stroke-miterlimit:10;}
	.st264{fill:#237D26;stroke:#000000;stroke-width:0.1;stroke-miterlimit:10;}
	.st265{fill:#F8B133;}
	.st266{fill:#CABA9F;}
	.st267{fill:#E20613;}
	.st268{fill:none;stroke:#1D1D1B;stroke-width:0.5;stroke-miterlimit:10;}
	.st269{fill:#BEAC83;stroke:#000000;stroke-width:0.25;stroke-miterlimit:10;}
	.st270{fill:#808080;}
	.st271{fill:#7C411E;stroke:#000000;stroke-width:0.25;stroke-miterlimit:10;}
	.st272{fill:#FF8000;stroke:#000000;stroke-width:0.25;stroke-miterlimit:10;}
	.st273{fill:none;stroke:#237D26;stroke-width:0.25;stroke-miterlimit:10;}
	.st274{fill:#00FFFF;}
	.st275{fill:#F0047F;stroke:#FFFFFF;stroke-width:0.25;stroke-miterlimit:10;}
	.st276{fill:#82027E;stroke:#FFFFFF;stroke-width:0.25;stroke-miterlimit:10;}
	.st277{fill:#808080;stroke:#000000;stroke-width:0.25;stroke-miterlimit:10;}
	.st278{fill:#ED1E79;}
	.st279{fill:#93278F;}
	.st280{fill:#42210B;stroke:#000000;stroke-width:0.25;stroke-miterlimit:10;}
	.st281{fill:#603813;stroke:#42210B;stroke-miterlimit:10;}
	.st282{opacity:0.48;fill:#F2F2F2;}
	.st283{fill:#FBB03B;}
	.st284{fill:#F4136B;}
	.st285{fill:#80C41C;stroke:#000000;stroke-width:0.5;stroke-miterlimit:10;}
	.st286{fill:#4D1F03;stroke:#000000;stroke-miterlimit:10;}
	.st287{fill:url(#XMLID_19223_);stroke:#000000;stroke-width:0.5;stroke-miterlimit:10;}
	.st288{fill:none;stroke:#A0642F;stroke-miterlimit:10;}
	.st289{fill:none;stroke:#FFFFFF;stroke-width:2;stroke-miterlimit:10;}
	.st290{fill:#BE894A;stroke:#26120B;stroke-width:0.25;stroke-miterlimit:10;}
	.st291{fill:none;stroke:#26120B;stroke-width:0.5;stroke-miterlimit:10;}
	.st292{fill:#4D1F03;stroke:#000000;stroke-width:0.5;stroke-linecap:round;stroke-linejoin:round;}
	.st293{fill:none;stroke:#000000;stroke-width:0.5;stroke-linecap:round;stroke-linejoin:round;}
	.st294{stroke:#000000;stroke-width:0.5;stroke-linecap:round;stroke-linejoin:round;}
	.st295{fill:#63300F;stroke:#000000;stroke-width:0.5;stroke-linecap:round;stroke-linejoin:round;}
	.st296{stroke:#000000;stroke-width:0.75;stroke-miterlimit:10;}
	.st297{fill:#63300F;stroke:#000000;stroke-width:0.75;stroke-miterlimit:10;}
	.st298{fill:#BE894A;stroke:#000000;stroke-width:0.75;stroke-miterlimit:10;}
	.st299{fill:#FFFF00;stroke:#000000;stroke-width:0.75;stroke-miterlimit:10;}
	.st300{fill:#26120B;stroke:#000000;stroke-width:0.75;stroke-miterlimit:10;}
	.st301{fill:none;stroke:#000000;stroke-width:0.75;stroke-miterlimit:10;}
	.st302{fill:#F0047F;stroke:#000000;stroke-width:0.75;stroke-miterlimit:10;}
	.st303{fill:#A0642F;stroke:#000000;stroke-width:0.75;stroke-miterlimit:10;}
	.st304{fill:#BEAC83;stroke:#000000;stroke-width:0.75;stroke-miterlimit:10;}
	.st305{fill:#237D26;stroke:#000000;stroke-width:0.75;stroke-miterlimit:10;}
	.st306{fill:none;stroke:#000000;stroke-linecap:round;stroke-linejoin:round;}
	.st307{fill:#4D1F03;stroke:#000000;stroke-linecap:round;stroke-linejoin:round;}
	.st308{fill:#1A1A1A;stroke:#000000;stroke-linecap:round;stroke-linejoin:round;}
	.st309{fill:#333333;stroke:#000000;stroke-linecap:round;stroke-linejoin:round;}
	.st310{fill:#C1272D;stroke:#000000;stroke-linecap:round;stroke-linejoin:round;}
	.st311{fill:#7E4E24;stroke:#1D1D1B;stroke-width:0.75;stroke-miterlimit:10;}
	.st312{fill:none;stroke:#1D1D1B;stroke-width:0.75;stroke-miterlimit:10;}
	.st313{fill:none;stroke:#1D1D1B;stroke-width:4;stroke-miterlimit:10;}
	.st314{fill:#CABA9F;stroke:#1D1D1B;stroke-miterlimit:10;}
	.st315{fill:#1D1D1B;stroke:#1D1D1B;stroke-miterlimit:10;}
	.st316{fill:#E20613;stroke:#1D1D1B;stroke-miterlimit:10;}
	.st317{fill:#35A8E0;stroke:#1D1D1B;stroke-miterlimit:10;}
	.st318{fill:#C6C6C5;stroke:#1D1D1B;stroke-miterlimit:10;}
	.st319{fill:none;stroke:#1D1D1B;stroke-miterlimit:10;}
	.st320{fill:none;stroke:#000000;stroke-width:2;stroke-miterlimit:10;}
	.st321{fill:#808080;stroke:#000000;stroke-width:2;stroke-miterlimit:10;}
	.st322{fill:#42210B;stroke:#000000;stroke-miterlimit:10;}
	.st323{fill:#BE894A;stroke:#26120B;stroke-miterlimit:10;}
	.st324{fill:none;stroke:#26120B;stroke-width:3;stroke-miterlimit:10;}
	.st325{fill:url(#SVGID_23_);}
	.st326{filter:url(#Adobe_OpacityMaskFilter);}
	.st327{mask:url(#SVGID_24_);}
	.st328{fill:#390D81;}
	.st329{fill:#1D0134;}
	.st330{fill:#006837;stroke:#000000;stroke-width:0.25;stroke-miterlimit:10;}
	.st331{fill:#754C24;}
	.st332{fill:none;stroke:#000000;stroke-width:0.08;stroke-miterlimit:10;}
	.st333{fill:#80C41C;stroke:#000000;stroke-width:0.05;stroke-miterlimit:10;}
	.st334{fill:#916F5D;}
	.st335{fill:#40A629;stroke:#000000;stroke-width:0.05;stroke-miterlimit:10;}
	.st336{fill:#E0013F;stroke:#000000;stroke-width:0.05;stroke-miterlimit:10;}
	.st337{fill:#93014A;stroke:#000000;stroke-width:0.05;stroke-miterlimit:10;}
	.st338{fill:#237D26;stroke:#000000;stroke-width:0.05;stroke-miterlimit:10;}
	.st339{fill:#298333;}
	.st340{fill:#154D22;}
	.st341{fill:#250F09;}
	.st342{fill:#615153;}
	.st343{fill:url(#SVGID_25_);}
	.st344{fill:url(#XMLID_19224_);stroke:#000000;stroke-width:0.25;stroke-miterlimit:10;}
	.st345{fill:none;stroke:#26120B;stroke-width:0.25;stroke-miterlimit:10;}
	.st346{fill:url(#SVGID_26_);}
	.st347{fill:url(#XMLID_20983_);stroke:#000000;stroke-width:0.25;stroke-miterlimit:10;}
	.st348{fill:url(#SVGID_27_);}
	.st349{fill:url(#XMLID_21003_);stroke:#000000;stroke-width:0.25;stroke-miterlimit:10;}
	.st350{fill:url(#SVGID_28_);}
	.st351{fill:url(#XMLID_21574_);stroke:#000000;stroke-width:0.25;stroke-miterlimit:10;}
	.st352{fill:url(#SVGID_29_);}
	.st353{fill:url(#XMLID_21575_);stroke:#000000;stroke-width:0.25;stroke-miterlimit:10;}
	.st354{fill:url(#SVGID_30_);}
	.st355{fill:url(#XMLID_21576_);stroke:#000000;stroke-width:0.25;stroke-miterlimit:10;}
	.st356{fill:url(#SVGID_31_);}
	.st357{fill:url(#XMLID_21577_);stroke:#000000;stroke-width:0.25;stroke-miterlimit:10;}
	.st358{fill:#5F9931;}
	.st359{fill:#13007C;}
	.st360{fill:url(#SVGID_32_);}
	.st361{fill:url(#SVGID_33_);}
	.st362{fill:#1A1A1A;}
	.st363{fill:url(#SVGID_34_);}
	.st364{fill:#C4C4C4;}
	.st365{fill:#BE894A;stroke:#C4C4C4;stroke-width:0.1;stroke-miterlimit:10;}
	.st366{fill:none;stroke:#C4C4C4;stroke-width:0.1;stroke-miterlimit:10;}
	.st367{fill:#A0642F;}
	.st368{fill:#40A629;stroke:#000000;stroke-width:0.1;stroke-miterlimit:10;}
	.st369{fill:#604B3B;}
	.st370{fill:#FFFFFF;stroke:#000000;stroke-width:0.25;stroke-miterlimit:10;}
	.st371{fill:#BEAC83;stroke:#000000;stroke-width:0.01;stroke-miterlimit:10;}
	.st372{fill:#1B3F26;}
	.st373{fill:#12491D;stroke:#000000;stroke-width:0.1;stroke-miterlimit:10;}
	.st374{fill:#008837;stroke:#000000;stroke-width:0.1;stroke-miterlimit:10;}
	.st375{fill:#41AA54;}
	.st376{fill:#F2F91C;stroke:#000000;stroke-width:0.1;stroke-miterlimit:10;}
	.st377{fill:#BEAC83;stroke:#000000;stroke-width:0.09;stroke-miterlimit:10;}
	.st378{fill:#CCE70B;}
	.st379{fill:none;stroke:#000000;stroke-width:0.09;stroke-miterlimit:10;}
	.st380{fill:url(#SVGID_35_);}
	.st381{fill:#110B79;}
	.st382{fill:url(#SVGID_36_);}
	.st383{fill:url(#SVGID_37_);}
	.st384{fill:#110B79;stroke:#000000;stroke-width:0.25;stroke-miterlimit:10;}
	.st385{fill:#ED1C24;stroke:#000000;stroke-width:0.25;stroke-miterlimit:10;}
	.st386{fill:url(#XMLID_21578_);stroke:#000000;stroke-width:0.25;stroke-linecap:round;stroke-linejoin:round;}
	.st387{opacity:0.59;}
	.st388{fill:#4D4D4D;stroke:#26120B;stroke-width:0.25;stroke-linecap:round;stroke-linejoin:round;}
	.st389{fill:#F34C31;}
	.st390{fill:none;stroke:#26120B;stroke-width:0.25;stroke-linecap:round;stroke-linejoin:round;}
	.st391{fill:#BE894A;stroke:#000000;stroke-width:0.1;stroke-miterlimit:10;}
	.st392{fill:#FEA621;stroke:#000000;stroke-width:0.1;stroke-miterlimit:10;}
	.st393{fill:#FF8000;stroke:#000000;stroke-width:0.1;stroke-miterlimit:10;}
	.st394{fill:url(#XMLID_21579_);stroke:#000000;stroke-width:0.1;stroke-miterlimit:10;}
	.st395{fill:url(#XMLID_21580_);stroke:#000000;stroke-width:0.1;stroke-miterlimit:10;}
	.st396{fill:url(#XMLID_21581_);stroke:#000000;stroke-width:0.1;stroke-miterlimit:10;}
	.st397{fill:url(#XMLID_21582_);stroke:#000000;stroke-width:0.1;stroke-miterlimit:10;}
	.st398{fill:url(#XMLID_21583_);stroke:#000000;stroke-width:0.1;stroke-miterlimit:10;}
	.st399{fill:url(#XMLID_21584_);stroke:#000000;stroke-width:0.1;stroke-miterlimit:10;}
	.st400{fill:#12491D;stroke:#000000;stroke-width:0.15;stroke-miterlimit:10;}
	.st401{fill:#E9E923;stroke:#000000;stroke-width:0.15;stroke-miterlimit:10;}
	.st402{fill:#F2F91C;stroke:#000000;stroke-width:0.15;stroke-miterlimit:10;}
	.st403{fill:#FFFF00;stroke:#000000;stroke-width:0.15;stroke-miterlimit:10;}
	.st404{fill:#26120B;stroke:#000000;stroke-width:0.15;stroke-miterlimit:10;}
	.st405{fill:#40A629;stroke:#000000;stroke-width:0.15;stroke-miterlimit:10;}
	.st406{fill:#237D26;stroke:#000000;stroke-width:0.15;stroke-miterlimit:10;}
	.st407{fill:#E0013F;stroke:#000000;stroke-width:0.1;stroke-miterlimit:10;}
	.st408{fill:#93014A;}
	.st409{fill:none;stroke:#FFFFFF;stroke-width:0.1;stroke-miterlimit:10;}
	.st410{fill:#603813;stroke:#000000;stroke-width:0.1;stroke-miterlimit:10;}
	.st411{fill:#63300F;stroke:#26120B;stroke-width:0.25;stroke-miterlimit:10;}
	.st412{fill:#4D4D4D;stroke:#4D4D4D;stroke-width:0.25;stroke-miterlimit:10;}
	.st413{fill:#010102;}
	.st414{fill:#734421;}
	.st415{fill:#431D08;}
	.st416{fill:#926036;}
	.st417{fill:#7C411E;stroke:#000000;stroke-width:0.1;stroke-miterlimit:10;}
	.st418{fill:#531B1E;}
	.st419{fill:#916F5D;stroke:#000000;stroke-width:0.1;stroke-miterlimit:10;}
	.st420{fill:#4D4D4D;stroke:#000000;stroke-width:0.1;stroke-miterlimit:10;}
	.st421{fill:#0F3212;}
	.st422{fill:#597816;}
	.st423{fill:none;stroke:#364B11;stroke-width:0.25;stroke-miterlimit:10;}
	.st424{fill:#4E6C16;}
	.st425{fill:#45731A;}
	.st426{fill:#547417;}
	.st427{fill:#486B17;}
	.st428{fill:#30651B;}
	.st429{fill:#3C5814;}
	.st430{fill:#26360D;}
	.st431{fill:#486B17;stroke:#80C41C;stroke-miterlimit:10;}
	.st432{fill:url(#XMLID_21585_);stroke:#000000;stroke-width:0.2;stroke-miterlimit:10;}
	.st433{fill:#808080;stroke:#000000;stroke-width:0.2;stroke-miterlimit:10;}
	.st434{fill:#666666;stroke:#000000;stroke-width:0.2;stroke-miterlimit:10;}
	.st435{fill:#4D4D4D;stroke:#000000;stroke-width:0.2;stroke-miterlimit:10;}
	.st436{fill:#999999;stroke:#000000;stroke-width:0.2;stroke-miterlimit:10;}
	.st437{opacity:0.48;}
	.st438{fill:#17208B;}
	.st439{fill:#333333;stroke:#000000;stroke-width:0.1;stroke-miterlimit:10;}
	.st440{fill:#6B1687;stroke:#000000;stroke-width:0.1;stroke-miterlimit:10;}
	.st441{fill:url(#XMLID_21586_);stroke:#000000;stroke-width:0.25;stroke-miterlimit:10;}
	.st442{fill:#452F27;stroke:#000000;stroke-width:0.25;stroke-miterlimit:10;}
	.st443{opacity:0.42;}
	.st444{opacity:0.42;fill:none;stroke:#FFFFFF;stroke-width:0.25;stroke-miterlimit:10;}
	.st445{fill:#1A5A1E;}
	.st446{fill:url(#SVGID_38_);}
	.st447{fill:#B9854F;}
	.st448{fill:url(#SVGID_39_);}
	.st449{fill:url(#SVGID_40_);}
	.st450{fill:#FEA621;stroke:#000000;stroke-width:0.25;stroke-miterlimit:10;}
	.st451{fill:#666666;stroke:#000000;stroke-width:0.25;stroke-miterlimit:10;}
	.st452{opacity:0.8;fill:#4FA0CA;stroke:#000000;stroke-width:0.25;stroke-miterlimit:10;}
	.st453{fill:#4D1F03;stroke:#4D1F03;stroke-width:0.1;stroke-miterlimit:10;}
	.st454{fill:#666666;}
	.st455{opacity:0.5;fill:#4FA0CA;stroke:#000000;stroke-width:0.25;stroke-miterlimit:10;}
	.st456{opacity:0.39;fill:#4FA0CA;stroke:#000000;stroke-width:0.25;stroke-miterlimit:10;}
	.st457{opacity:0.5;fill:none;stroke:#000000;stroke-width:0.25;stroke-miterlimit:10;}
	.st458{fill:#FFFFFF;stroke:#000000;stroke-width:0.1;stroke-miterlimit:10;}
	.st459{fill:#666666;stroke:#000000;stroke-width:0.1;stroke-miterlimit:10;}
	.st460{fill:#FF0000;}
	.st461{fill:none;stroke:#000000;stroke-width:0.2;stroke-miterlimit:10;}
	.st462{fill:#FFFFFF;stroke:#000000;stroke-width:0.2;stroke-miterlimit:10;}
	.st463{fill:#63300F;stroke:#000000;stroke-width:0.2;stroke-miterlimit:10;}
	.st464{fill:#686461;}
	.st465{fill:#343031;}
	.st466{fill:#4D4D4D;}
	.st467{fill:#412312;}
	.st468{fill:#0971B7;}
	.st469{fill:#009145;}
	.st470{fill:#47AD4C;}
	.st471{fill:#F29222;}
	.st472{fill:#DDDB00;}
	.st473{fill:#E97BAB;}
	.st474{fill:#008D36;stroke:#006633;stroke-width:0.25;stroke-miterlimit:10;}
	.st475{fill:#422918;stroke:#1D1D1B;stroke-width:0.25;stroke-miterlimit:10;}
	.st476{fill:#925F36;stroke:#1D1D1B;stroke-width:0.25;stroke-miterlimit:10;}
	.st477{fill:#FFFFFF;stroke:#1D1D1B;stroke-width:0.25;stroke-miterlimit:10;}
	.st478{fill:#B17F49;}
	.st479{fill:#7F8080;}
	.st480{fill:#4E4D4D;}
	.st481{fill:#6F6F6E;}
	.st482{fill:url(#SVGID_41_);}
	.st483{fill:url(#SVGID_42_);}
	.st484{fill:#C99D66;}
	.st485{fill:#7E4E24;}
	.st486{fill:url(#SVGID_43_);}
	.st487{fill:url(#SVGID_44_);}
	.st488{fill:url(#SVGID_45_);}
	.st489{fill:url(#SVGID_46_);}
	.st490{fill:#634E42;}
	.st491{fill:#B3B3B3;}
	.st492{fill:none;stroke:#422918;stroke-width:0.25;stroke-miterlimit:10;}
	.st493{fill:none;stroke:#1D1D1B;stroke-width:0.1;stroke-miterlimit:10;}
	.st494{fill:#1D1D1B;stroke:#1D1D1B;stroke-width:0.1;stroke-miterlimit:10;}
	.st495{fill:#C1272D;stroke:#FFFFFF;stroke-width:0.25;stroke-miterlimit:10;}
	.st496{fill:#ED1C24;stroke:#FFFFFF;stroke-width:0.25;stroke-miterlimit:10;}
	.st497{fill:#F7931E;stroke:#FFFFFF;stroke-width:0.25;stroke-miterlimit:10;}
	.st498{fill:#D17C10;}
	.st499{fill:#E5332A;}
	.st500{fill:#014C26;}
	.st501{fill:#81171E;}
	.st502{fill:#231F20;}
	.st503{fill:#58595B;}
	.st504{fill:#C1B49A;}
	.st505{fill:url(#SVGID_47_);}
	.st506{fill:url(#SVGID_48_);}
	.st507{fill:url(#SVGID_49_);}
	.st508{fill:url(#SVGID_50_);}
	.st509{fill:#8C6239;}
	.st510{fill:#9C9B9B;stroke:#1D1D1B;stroke-width:0.1;stroke-miterlimit:10;}
	.st511{fill:#39A935;stroke:#1D1D1B;stroke-width:0.1;stroke-miterlimit:10;}
	.st512{fill:#FFEC00;stroke:#1D1D1B;stroke-width:0.1;stroke-miterlimit:10;}
	.st513{fill:none;stroke:#DDDB00;stroke-width:0.1;stroke-miterlimit:10;}
	.st514{fill:none;stroke:#E20613;stroke-width:0.1;stroke-miterlimit:10;}
	.st515{fill:#39A935;stroke:#1D1D1B;stroke-width:0.25;stroke-miterlimit:10;}
	.st516{fill:#FFEC00;stroke:#1D1D1B;stroke-width:0.25;stroke-miterlimit:10;}
	.st517{fill:#006633;stroke:#1D1D1B;stroke-width:0.25;stroke-miterlimit:10;}
	.st518{fill:#B17F49;stroke:#1D1D1B;stroke-width:0.25;stroke-miterlimit:10;}
	.st519{fill:#FCEA0D;stroke:#1D1D1B;stroke-width:0.25;stroke-miterlimit:10;}
	.st520{fill:#93C01F;stroke:#1D1D1B;stroke-width:0.25;stroke-miterlimit:10;}
	.st521{fill:url(#XMLID_21587_);stroke:#1D1D1B;stroke-width:0.5;stroke-miterlimit:10;}
	.st522{fill:#3D3D3D;}
	.st523{fill:#F84F10;}
	.st524{fill:#575756;}
	.st525{fill:#F29100;stroke:#1D1D1B;stroke-width:0.25;stroke-miterlimit:10;}
	.st526{fill:#E84E1B;stroke:#1D1D1B;stroke-width:0.25;stroke-miterlimit:10;}
	.st527{fill:#E34846;stroke:#1D1D1B;stroke-width:0.25;stroke-miterlimit:10;}
	.st528{fill:#575756;stroke:#1D1D1B;stroke-width:0.25;stroke-miterlimit:10;}
	.st529{fill:#6F6F6E;stroke:#1D1D1B;stroke-width:0.25;stroke-miterlimit:10;}
	.st530{fill:#634E42;stroke:#1D1D1B;stroke-width:0.25;stroke-miterlimit:10;}
	.st531{fill:#C99D66;stroke:#1D1D1B;stroke-width:0.25;stroke-miterlimit:10;}
	.st532{fill:#E5332A;stroke:#1D1D1B;stroke-width:0.25;stroke-miterlimit:10;}
	.st533{fill:#A3897A;stroke:#1D1D1B;stroke-width:0.25;stroke-miterlimit:10;}
	.st534{fill:#868686;stroke:#1D1D1B;stroke-width:0.25;stroke-miterlimit:10;}
	.st535{fill:#868686;}
	.st536{fill:#7A6A58;}
	.st537{fill:#37B34A;}
	.st538{fill:#006838;}
	.st539{fill:#009345;}
	.st540{fill:#006838;stroke:#009345;stroke-miterlimit:10;}
	.st541{fill:url(#SVGID_51_);}
	.st542{fill:url(#XMLID_21588_);stroke:#000000;stroke-width:0.25;stroke-miterlimit:10;}
	.st543{fill:#FEA327;}
	.st544{fill:#FE4113;}
	.st545{fill:#FE8012;}
	.st546{fill:#7AC235;}
	.st547{fill:#791385;}
	.st548{fill:#EEF72B;}
	.st549{fill:#4D1F03;stroke:#000000;stroke-width:0.25;stroke-miterlimit:10;}
	.st550{fill:url(#XMLID_21589_);stroke:#000000;stroke-width:0.25;stroke-miterlimit:10;}
	.st551{fill:url(#XMLID_21590_);stroke:#000000;stroke-width:0.25;stroke-miterlimit:10;}
	.st552{fill:url(#XMLID_21591_);stroke:#000000;stroke-width:0.25;stroke-miterlimit:10;}
	.st553{opacity:0.76;fill:#FFFFFF;}
	.st554{fill:#12491D;stroke:#000000;stroke-width:0.09;stroke-miterlimit:10;}
	.st555{fill:#237D26;stroke:#000000;stroke-width:0.09;stroke-miterlimit:10;}
	.st556{fill:#40A629;stroke:#000000;stroke-width:0.09;stroke-miterlimit:10;}
	.st557{fill:#CCE70B;stroke:#000000;stroke-width:0.2;stroke-miterlimit:10;}
	.st558{opacity:0.71;fill:#FFFFFF;}
	.st559{fill:#63300F;stroke:#000000;stroke-width:0.09;stroke-miterlimit:10;}
	.st560{fill:#F0047F;stroke:#000000;stroke-width:0.09;stroke-miterlimit:10;}
	.st561{fill:#7C411E;stroke:#000000;stroke-width:0.09;stroke-miterlimit:10;}
	.st562{fill:#FF8000;stroke:#000000;stroke-width:0.09;stroke-miterlimit:10;}
	.st563{fill:none;stroke:#237D26;stroke-width:0.09;stroke-miterlimit:10;}
	.st564{fill:#FFFF00;stroke:#000000;stroke-width:0.09;stroke-miterlimit:10;}
	.st565{fill:#F0047F;stroke:#FFFFFF;stroke-width:0.09;stroke-miterlimit:10;}
	.st566{fill:#82027E;stroke:#FFFFFF;stroke-width:0.09;stroke-miterlimit:10;}
	.st567{fill:#999999;stroke:#FFFFFF;stroke-width:0.9;stroke-linecap:round;stroke-linejoin:round;stroke-miterlimit:10;}
	.st568{fill:#F7931E;stroke:#FFFFFF;stroke-width:0.5;stroke-miterlimit:10;}
	.st569{fill:none;stroke:#000000;stroke-width:0.15;stroke-miterlimit:10;}
	.st570{fill:none;stroke:#999999;stroke-width:0.15;stroke-miterlimit:10;}
	.st571{display:inline;fill:url(#SVGID_52_);}
	.st572{display:inline;fill:url(#SVGID_53_);}
	.st573{display:inline;fill:url(#SVGID_54_);}
	.st574{display:inline;stroke:#FFFFFF;stroke-width:0.5;stroke-miterlimit:10;}
	.st575{display:inline;fill:none;stroke:#FBB03B;stroke-width:0.25;stroke-miterlimit:10;}
	.st576{display:inline;fill:#ECB03B;stroke:#FBB03B;stroke-width:0.25;stroke-miterlimit:10;}
	.st577{fill-rule:evenodd;clip-rule:evenodd;fill:none;stroke:#FFFFFF;stroke-width:0.5;stroke-miterlimit:2.4142;}
	
		.st578{fill-rule:evenodd;clip-rule:evenodd;fill:#111183;stroke:#FFFFFF;stroke-width:0.5;stroke-linecap:round;stroke-linejoin:round;stroke-miterlimit:10;}
	.st579{fill:#FFFFFF;stroke:#FFFFFF;stroke-width:0.5;stroke-miterlimit:10;}
	.st580{fill:#006837;stroke:#FFFFFF;stroke-miterlimit:10;}
</style>
<g id="Layer_1" class="st0">
	<g id="Layer_2" class="st1">
	</g>
</g>
<g id="FONDO">
</g>
<g id="Capa_48" class="st0">
</g>
<g id="Layer_7" class="st0">
</g>
<g id="Layer_11" class="st0">
</g>
<g id="Layer_17" class="st0">
</g>
<g id="CUENCAS" class="st0">
</g>
<g id="CORREDOR_VERDE" class="st0">
</g>
<g id="CORREDOR_PASTO" class="st0">
</g>
<g id="LIMITE_copia" class="st0">
</g>
<g id="Microregiones_colores" class="st0">
</g>
<g id="LIMITE" class="st0">
</g>
<g id="BOSQUE" class="st0">
</g>
<g id="casco" class="st0">
</g>
<g id="CAFE" class="st0">
</g>
<g id="NODOS_ECOLOGICOS" class="st0">
</g>
<g id="limite_afuera" class="st0">
</g>
<g id="Layer_5" class="st0">
</g>
<g id="MICROREGIONES" class="st0">
</g>
<g id="CALLES" class="st0">
</g>
<g id="RUTAS_TURIMO" class="st0">
</g>
<g id="EJES" class="st0">
</g>
<g id="nombres_ejes" class="st0">
</g>
<g id="Layer_9" class="st0">
</g>
<g id="zonas" class="st0">
</g>
<g id="NODOS_BIOCULTURALES" class="st0">
</g>
<g id="EJES_TURIST" class="st0">
</g>
<g id="sistema_vial" class="st0">
</g>
<g id="limites_municipales" class="st0">
</g>
<g id="rios" class="st0">
</g>
<g id="topografia" class="st0">
</g>
<g id="turismo_plan" class="st0">
</g>
<g id="_x31_2_zonas" class="st0">
</g>
<g id="CUADRICULA" class="st0">
</g>
<g id="MUNICIPIOS_VECINOS" class="st0">
</g>
<g id="nucleos__urbanos" class="st0">
</g>
<g id="LEYENDA" class="st0">
</g>
<g id="calle" class="st0">
</g>
<g id="Puntos" class="st0">
</g>
<g id="Sitios_Arqueológicos" class="st0">
</g>
<g id="Sitios_Naturales" class="st0">
</g>
<g id="CAJA_DE_LEYENDAS">
	<g id="XMLID_21529_">
		<g id="XMLID_21560_">
			<path id="XMLID_21561_" class="st2" d="M202.43,217.05H20.17c-8.02,0-14.55-6.52-14.55-14.54V20.23
				c0-8.02,6.53-14.55,14.55-14.55h182.26c8.05,0,14.59,6.53,14.59,14.55v182.28C217.02,210.53,210.47,217.05,202.43,217.05z
				 M20.17,13.77c-3.57,0-6.47,2.9-6.47,6.46v182.28c0,3.56,2.9,6.45,6.47,6.45h182.26c3.59,0,6.51-2.89,6.51-6.45V20.23
				c0-3.57-2.92-6.46-6.51-6.46H20.17z"/>
		</g>
		<g id="XMLID_21555_">
			<g id="XMLID_21556_">
				<g>
					<path class="st132" d="M193.56,34.98v157.28c0,3.8-3.07,6.87-6.87,6.87H31.59c-3.8,0-6.95-3.07-6.95-6.87V34.98
						c0-3.8,3.15-6.87,6.95-6.87h155.09C190.49,28.11,193.56,31.18,193.56,34.98z"/>
					<path class="st2" d="M186.61,26.09c4.93,0,8.98,3.96,8.98,8.89v157.28c0,4.93-4.04,8.89-8.98,8.89H31.59
						c-4.93,0-8.98-3.96-8.98-8.89V34.98c0-4.93,4.04-8.89,8.98-8.89H186.61z M186.69,199.13c3.8,0,6.87-3.07,6.87-6.87V34.98
						c0-3.8-3.07-6.87-6.87-6.87H31.59c-3.8,0-6.95,3.07-6.95,6.87v157.28c0,3.8,3.15,6.87,6.95,6.87H186.69z"/>
					<path class="st2" d="M195.58,34.98c0-4.93-4.04-8.89-8.98-8.89H31.59c-4.93,0-8.98,3.96-8.98,8.89v157.28
						c0,4.93,4.04,8.89,8.98,8.89h155.01c4.93,0,8.98-3.96,8.98-8.89V34.98z M186.69,24.07c5.98,0,10.92,4.85,10.92,10.92v157.28
						c0,6.06-4.93,10.92-10.92,10.92H31.59c-6.06,0-11-4.85-11-10.92V34.98c0-6.06,4.93-10.92,11-10.92H186.69z"/>
				</g>
			</g>
		</g>
		<g id="XMLID_21553_">
			<path id="XMLID_21554_" class="st2" d="M178.33,165.43c-3.95,0-5.01-3.15-5.8-5.46c-0.88-2.61-1.43-3.67-3.33-3.67
				c-2.66,0-4.64,2.34-6.55,4.6c-1.87,2.22-3.81,4.52-6.53,4.52c-2.99,0-4.21-2.76-5.19-4.98c-1.14-2.57-1.93-4.15-3.92-4.15
				c-2.26,0-3.97,1.8-5.79,3.7c-1.98,2.08-4.22,4.44-7.51,4.44c-3.4,0-5.35-2.45-7.05-4.62c-1.49-1.89-2.78-3.53-4.79-3.53
				c-2.16,0-3.56,1.46-5.18,3.15c-1.71,1.78-3.64,3.79-6.66,3.79c-3.14,0-5-2.14-6.64-4.03c-1.36-1.56-2.53-2.91-4.18-2.91
				c-1.73,0-3.25,1.5-4.85,3.08c-1.9,1.88-4.22,3.9-7.07,3.84c-2.74-0.14-4.56-2.04-6.16-3.71c-1.7-1.77-3.22-3.38-5.54-3.19
				c-2.44,0.11-4.04,1.66-5.74,3.3c-1.75,1.7-3.57,3.45-6.33,3.59c-3.06,0.15-4.75-1.82-6.36-3.57c-1.59-1.71-3.09-3.32-5.54-3.32
				c-5.13,0-9.64,6.23-9.69,6.3l-2.32-1.66c0.22-0.31,5.43-7.49,12.01-7.49c3.7,0,5.88,2.35,7.64,4.24c1.57,1.7,2.5,2.74,4.12,2.66
				c1.69-0.08,2.99-1.34,4.49-2.79c1.91-1.85,4.08-3.95,7.6-4.1c3.64-0.08,5.93,2.18,7.73,4.07c1.41,1.48,2.64,2.75,4.25,2.83
				c0.06,0,0.11,0,0.16,0c1.69,0,3.17-1.47,4.75-3.02c1.86-1.83,3.95-3.9,6.85-3.9c2.95,0,4.75,2.07,6.33,3.89
				c1.42,1.63,2.65,3.05,4.49,3.05c1.81,0,3.1-1.35,4.6-2.92c1.82-1.89,3.87-4.02,7.24-4.02c3.4,0,5.33,2.45,7.04,4.61
				c1.49,1.9,2.79,3.53,4.81,3.53c2.06,0,3.62-1.65,5.44-3.56c2.05-2.15,4.37-4.58,7.86-4.58c3.95,0,5.44,3.38,6.52,5.84
				c0.99,2.23,1.56,3.28,2.58,3.28c1.39,0,2.83-1.71,4.35-3.51c2.11-2.5,4.74-5.61,8.73-5.61c4.14,0,5.24,3.24,6.03,5.6
				c0.87,2.55,1.36,3.52,3.1,3.52V165.43z"/>
		</g>
		<g id="XMLID_21551_">
			<path id="XMLID_21552_" class="st2" d="M178.33,177.18c-4.37,0-5.57-3.53-6.36-5.86c-0.88-2.61-1.3-3.26-2.77-3.26
				c-2.38,0-4.19,2.13-6.09,4.39c-1.97,2.33-4,4.73-6.99,4.73c-3.38,0-4.74-3.08-5.73-5.33c-1.16-2.64-1.83-3.79-3.37-3.79
				c-2.01,0-3.56,1.63-5.35,3.52c-2.07,2.18-4.41,4.64-7.94,4.64c-3.7,0-5.81-2.69-7.52-4.85c-1.62-2.05-2.68-3.3-4.33-3.3
				c-1.82,0-2.98,1.12-4.75,2.95c-1.79,1.86-3.81,3.96-7.09,3.96c-3.41,0-5.45-2.34-7.09-4.22c-1.45-1.67-2.41-2.69-3.73-2.69
				c-1.49,0-2.92,1.41-4.44,2.9c-1.98,1.95-4.02,4.26-7.5,4.01c-2.98-0.15-4.89-2.13-6.56-3.89c-1.84-1.92-3.02-2.94-5.09-3
				c-2.22,0.09-3.67,1.5-5.36,3.13c-1.75,1.69-3.73,3.6-6.7,3.75c-3.27,0.29-5.13-1.91-6.83-3.75c-1.56-1.68-2.91-3.13-5.11-3.13
				c-4,0-8.01,4.36-9.21,6.03l-3.29-2.35c0.23-0.32,5.61-7.72,12.49-7.72c3.96,0,6.24,2.45,8.07,4.41c1.5,1.61,2.53,2.39,3.66,2.47
				c1.41-0.07,2.48-1.04,4.11-2.62c1.89-1.83,4.24-4.1,7.98-4.26c4.14-0.17,6.3,2.28,8.19,4.25c1.52,1.6,2.53,2.58,3.85,2.65
				c1.63,0.08,2.86-1.28,4.46-2.85c1.93-1.9,4.12-4.06,7.27-4.06c3.22,0,5.2,2.26,6.78,4.08c1.53,1.76,2.54,2.83,4.04,2.83
				c1.48,0,2.55-1.03,4.18-2.72c1.8-1.87,4.04-4.19,7.67-4.19c3.68,0,5.8,2.68,7.5,4.84c1.62,2.05,2.69,3.31,4.34,3.31
				c1.8,0,3.29-1.56,5.01-3.38c2.13-2.24,4.54-4.78,8.28-4.78c4.34,0,5.98,3.73,7.07,6.2c0.78,1.76,1.34,2.92,2.04,2.92
				c1.11,0,2.53-1.68,3.9-3.3c2.19-2.6,4.91-5.83,9.18-5.83c4.56,0,5.79,3.61,6.6,6.01c0.89,2.65,1.27,3.12,2.53,3.12V177.18z"/>
		</g>
		<g id="XMLID_21546_">
			<path id="XMLID_21550_" class="st2" d="M47.28,116.19c0,0,6.18-0.02,8.07-4.23c1.95-4.22,7.8-8.42,14.61-2.26
				c6.8,6.15,0,11.66,0,11.66s-0.65,4.85,4.55,4.52c5.19-0.3,21.04,5.24,32.06,0.01c11.01-5.19,13.3-9.58,20.45-8.51
				c0,0-7.46,5.95-6.81,8.82c0.59,2.94,3.17,35.43-38.29,27.61c0,0-17.49-3.28-13.89-24.67c0,0-7.28-9.73-10.94-7.13l-9.81-1.13
				C47.28,120.87,44.51,117.82,47.28,116.19z"/>
			<path id="XMLID_21547_" class="st2" d="M93.79,155.64c-3.66,0-7.65-0.41-11.99-1.22c-0.17-0.03-17.89-3.62-14.43-25.12
				c-1.95-2.54-7.38-8.58-9.93-6.79l-0.19,0.14l-10.28-1.19l-0.16-0.17c-0.07-0.07-1.63-1.82-1.36-3.59
				c0.13-0.85,0.63-1.54,1.5-2.05l0.15-0.09h0.17c0.06,0,5.8-0.07,7.5-3.86c1.04-2.25,3.34-4.89,6.69-5.58
				c2.03-0.41,5.24-0.21,8.91,3.11c2.2,1.99,3.29,4.14,3.22,6.39c-0.09,3.11-2.33,5.38-3.04,6.03c-0.02,0.52,0.02,1.82,0.84,2.69
				c0.65,0.69,1.66,0.98,3.08,0.91c1.51-0.15,3.93,0.3,6.94,0.81c7.27,1.22,17.25,2.91,24.89-0.74c3.85-1.81,6.66-3.55,8.92-4.95
				c4.23-2.61,7.02-4.36,11.89-3.62l1.41,0.21l-1.11,0.89c-2.77,2.21-7.01,6.38-6.6,8.2c0.56,2.77,1.07,14.64-6.62,22.41
				C109.49,153.25,102.65,155.64,93.79,155.64z M58.52,120.94c4.03,0,9.33,6.92,10.01,7.82l0.16,0.21l-0.05,0.26
				c-3.45,20.52,12.71,23.83,13.4,23.96c14.4,2.71,24.93,0.83,31.28-5.59c8.27-8.38,6.31-21.16,6.29-21.29
				c-0.57-2.5,3.71-6.59,5.89-8.48c-0.17-0.01-0.33-0.01-0.5-0.01c-3.29,0-5.62,1.44-9.12,3.6c-2.28,1.41-5.13,3.17-9.04,5.01
				c-8,3.8-18.6,2.02-25.63,0.84c-2.56-0.43-4.8-0.81-6.26-0.81c-0.14,0-0.28,0-0.39,0.01c-1.83,0.16-3.15-0.32-4.07-1.3
				c-1.44-1.54-1.15-3.82-1.15-3.91l0.03-0.24l0.2-0.16c0.02-0.02,2.72-2.25,2.8-5.28c0.05-1.87-0.91-3.7-2.83-5.44
				c-2.59-2.35-5.28-3.33-7.83-2.81c-2.89,0.59-4.9,2.91-5.8,4.88c-1.86,4.15-7.36,4.54-8.45,4.58c-0.46,0.3-0.71,0.66-0.77,1.08
				c-0.13,0.86,0.51,1.9,0.91,2.4l9.35,1.08C57.44,121.07,57.96,120.94,58.52,120.94z"/>
		</g>
		<g id="XMLID_21544_">
			<path id="XMLID_21545_" class="st2" d="M143.19,154.32c-0.23-2.56-5.26-62.81,22.06-74.38l0.49,1.14
				c-26.51,11.23-21.38,72.51-21.32,73.13L143.19,154.32z"/>
		</g>
		<g id="XMLID_21542_">
			<path id="XMLID_21543_" class="st2" d="M138.67,157.22l-1.23-0.03c0.5-19.71,1.15-58.05,0.02-61.99l1.18-0.34
				C140.11,99.97,138.73,154.89,138.67,157.22z"/>
		</g>
		<g id="XMLID_21540_">
			<path id="XMLID_21541_" class="st2" d="M151.58,166.73c-8.29-16.47,3.15-43.39,3.64-44.53l1.14,0.49
				c-0.12,0.27-11.7,27.52-3.67,43.48L151.58,166.73z"/>
		</g>
		<g id="XMLID_21538_">
			<rect id="XMLID_21539_" x="163.47" y="71.54" class="st2" width="1.23" height="84.09"/>
		</g>
		<g id="XMLID_21536_">
			<path id="XMLID_21537_" class="st2" d="M143.35,87.42c0,5.6-2.76,10.15-6.23,10.15c-3.43,0-6.23-4.55-6.23-10.15
				c0-5.59,2.8-10.14,6.23-10.14C140.58,77.28,143.35,81.83,143.35,87.42z"/>
		</g>
		<g id="XMLID_21534_">
			<path id="XMLID_21535_" class="st2" d="M170.31,61.38c0,5.61-2.76,10.15-6.22,10.15c-3.45,0-6.21-4.54-6.21-10.15
				c0-5.59,2.76-10.15,6.21-10.15C167.55,51.23,170.31,55.79,170.31,61.38z"/>
		</g>
		<g id="XMLID_21532_">
			<path id="XMLID_21533_" class="st2" d="M176.48,82.7c-4.84,2.75-10.2,2.58-11.86-0.43c-1.71-2.98,0.87-7.62,5.72-10.39
				c4.92-2.77,10.22-2.56,11.92,0.4C183.96,75.27,181.37,79.93,176.48,82.7z"/>
		</g>
		<g id="XMLID_21530_">
			<path id="XMLID_21531_" class="st2" d="M165.35,119.29c-3.42,4.43-8.36,6.35-11.1,4.28c-2.73-2.09-2.17-7.4,1.23-11.87
				c3.41-4.45,8.36-6.34,11.09-4.27C169.31,109.53,168.76,114.84,165.35,119.29z"/>
		</g>
	</g>
</g>
<g id="NATURALEZA" class="st0">
</g>
<g id="Oficios" class="st0">
</g>
<g id="comunidades" class="st0">
</g>
<g id="zona" class="st0">
</g>
<g id="EQUIPAMIENTO" class="st0">
</g>
<g id="texto_mapa" class="st0">
</g>
<g id="nombre_reserva" class="st0">
</g>
</svg>
