<svg xmlns="http://www.w3.org/2000/svg" viewBox="0 0 213 213" width="256" height="256"><style>tspan { white-space:pre }.shp0 { fill: #ffffff } .shp1 { fill: #2e3192 } </style><g ></g><g ><g ><g ><path fill-rule="evenodd" class="shp0" d="M197.43 212.05L15.17 212.05C7.15 212.05 0.62 205.53 0.62 197.51L0.62 15.23C0.62 7.21 7.15 0.68 15.17 0.68L197.43 0.68C205.48 0.68 212.02 7.21 212.02 15.23L212.02 197.51C212.02 205.53 205.47 212.05 197.43 212.05ZM15.17 8.77C11.6 8.77 8.7 11.67 8.7 15.23L8.7 197.51C8.7 201.07 11.6 203.96 15.17 203.96L197.43 203.96C201.02 203.96 203.94 201.07 203.94 197.51L203.94 15.23C203.94 11.66 201.02 8.77 197.43 8.77L15.17 8.77Z" /></g><g ><g ><g ><path class="shp1" d="M188.56 29.98L188.56 187.26C188.56 191.06 185.49 194.13 181.69 194.13L26.59 194.13C22.79 194.13 19.64 191.06 19.64 187.26L19.64 29.98C19.64 26.18 22.79 23.11 26.59 23.11L181.68 23.11C185.49 23.11 188.56 26.18 188.56 29.98Z" /><path fill-rule="evenodd" class="shp0" d="M190.59 29.98L190.59 187.26C190.59 192.19 186.55 196.15 181.61 196.15L26.59 196.15C21.66 196.15 17.61 192.19 17.61 187.26L17.61 29.98C17.61 25.05 21.65 21.09 26.59 21.09L181.61 21.09C186.54 21.09 190.59 25.05 190.59 29.98ZM181.69 194.13C185.49 194.13 188.56 191.06 188.56 187.26L188.56 29.98C188.56 26.18 185.49 23.11 181.69 23.11L26.59 23.11C22.79 23.11 19.64 26.18 19.64 29.98L19.64 187.26C19.64 191.06 22.79 194.13 26.59 194.13L181.69 194.13Z" /><path fill-rule="evenodd" class="shp0" d="M181.69 19.07C187.67 19.07 192.61 23.92 192.61 29.99L192.61 187.27C192.61 193.33 187.68 198.19 181.69 198.19L26.59 198.19C20.53 198.19 15.59 193.34 15.59 187.27L15.59 29.98C15.59 23.92 20.52 19.06 26.59 19.06L181.69 19.06L181.69 19.07ZM181.6 21.09L26.59 21.09C21.66 21.09 17.61 25.05 17.61 29.98L17.61 187.26C17.61 192.19 21.65 196.15 26.59 196.15L181.6 196.15C186.53 196.15 190.58 192.19 190.58 187.26L190.58 29.98C190.58 25.05 186.54 21.09 181.6 21.09Z" /></g></g></g><g ><path class="shp0" d="M173.33 160.43C169.38 160.43 168.32 157.28 167.53 154.97C166.65 152.36 166.1 151.3 164.2 151.3C161.54 151.3 159.56 153.64 157.65 155.9C155.78 158.12 153.84 160.42 151.12 160.42C148.13 160.42 146.91 157.66 145.93 155.44C144.79 152.87 144 151.29 142.01 151.29C139.75 151.29 138.04 153.09 136.22 154.99C134.24 157.07 132 159.43 128.71 159.43C125.31 159.43 123.36 156.98 121.66 154.81C120.17 152.92 118.88 151.28 116.87 151.28C114.71 151.28 113.31 152.74 111.69 154.43C109.98 156.21 108.05 158.22 105.03 158.22C101.89 158.22 100.03 156.08 98.39 154.19C97.03 152.63 95.86 151.28 94.21 151.28C92.48 151.28 90.96 152.78 89.36 154.36C87.46 156.24 85.14 158.26 82.29 158.2C79.55 158.06 77.73 156.16 76.13 154.49C74.43 152.72 72.91 151.11 70.59 151.3C68.15 151.41 66.55 152.96 64.85 154.6C63.1 156.3 61.28 158.05 58.52 158.19C55.46 158.34 53.77 156.37 52.16 154.62C50.57 152.91 49.07 151.3 46.62 151.3C41.49 151.3 36.98 157.53 36.93 157.6L34.61 155.94C34.83 155.63 40.04 148.45 46.62 148.45C50.32 148.45 52.5 150.8 54.26 152.69C55.83 154.39 56.76 155.43 58.38 155.35C60.07 155.27 61.37 154.01 62.87 152.56C64.78 150.71 66.95 148.61 70.47 148.46C74.11 148.38 76.4 150.64 78.2 152.53C79.61 154.01 80.84 155.28 82.45 155.36C82.51 155.36 82.56 155.36 82.61 155.36C84.3 155.36 85.78 153.89 87.36 152.34C89.22 150.51 91.31 148.44 94.21 148.44C97.16 148.44 98.96 150.51 100.54 152.33C101.96 153.96 103.19 155.38 105.03 155.38C106.84 155.38 108.13 154.03 109.63 152.46C111.45 150.57 113.5 148.44 116.87 148.44C120.27 148.44 122.2 150.89 123.91 153.05C125.4 154.95 126.7 156.58 128.72 156.58C130.78 156.58 132.34 154.93 134.16 153.02C136.21 150.87 138.53 148.44 142.02 148.44C145.97 148.44 147.46 151.82 148.54 154.28C149.53 156.51 150.1 157.56 151.12 157.56C152.51 157.56 153.95 155.85 155.47 154.05C157.58 151.55 160.21 148.44 164.2 148.44C168.34 148.44 169.44 151.68 170.23 154.04C171.1 156.59 171.59 157.56 173.33 157.56L173.33 160.43Z" /></g><g ><path class="shp0" d="M173.33 172.18C168.96 172.18 167.76 168.65 166.97 166.32C166.09 163.71 165.67 163.06 164.2 163.06C161.82 163.06 160.01 165.19 158.11 167.45C156.14 169.78 154.11 172.18 151.12 172.18C147.74 172.18 146.38 169.1 145.39 166.85C144.23 164.21 143.56 163.06 142.02 163.06C140.01 163.06 138.46 164.69 136.67 166.58C134.6 168.76 132.26 171.22 128.73 171.22C125.03 171.22 122.92 168.53 121.21 166.37C119.59 164.32 118.53 163.07 116.88 163.07C115.06 163.07 113.9 164.19 112.13 166.02C110.34 167.88 108.32 169.98 105.04 169.98C101.63 169.98 99.59 167.64 97.95 165.76C96.5 164.09 95.54 163.07 94.22 163.07C92.73 163.07 91.3 164.48 89.78 165.97C87.8 167.92 85.76 170.23 82.28 169.98C79.3 169.83 77.39 167.85 75.72 166.09C73.88 164.17 72.7 163.15 70.63 163.09C68.41 163.18 66.96 164.59 65.27 166.22C63.52 167.91 61.54 169.82 58.57 169.97C55.3 170.26 53.44 168.06 51.74 166.22C50.18 164.54 48.83 163.09 46.63 163.09C42.63 163.09 38.62 167.45 37.42 169.12L34.13 166.77C34.36 166.45 39.74 159.05 46.62 159.05C50.58 159.05 52.86 161.5 54.69 163.46C56.19 165.07 57.22 165.85 58.35 165.93C59.76 165.86 60.83 164.89 62.46 163.31C64.35 161.48 66.7 159.21 70.44 159.05C74.58 158.88 76.74 161.33 78.63 163.3C80.15 164.9 81.16 165.88 82.48 165.95C84.11 166.03 85.34 164.67 86.94 163.1C88.87 161.2 91.06 159.04 94.21 159.04C97.43 159.04 99.41 161.3 100.99 163.12C102.52 164.88 103.53 165.95 105.03 165.95C106.51 165.95 107.58 164.92 109.21 163.23C111.01 161.36 113.25 159.04 116.88 159.04C120.56 159.04 122.68 161.72 124.38 163.88C126 165.93 127.07 167.19 128.72 167.19C130.52 167.19 132.01 165.63 133.73 163.81C135.86 161.57 138.27 159.03 142.01 159.03C146.35 159.03 147.99 162.76 149.08 165.23C149.86 166.99 150.42 168.15 151.12 168.15C152.23 168.15 153.65 166.47 155.02 164.85C157.21 162.25 159.93 159.02 164.2 159.02C168.76 159.02 169.99 162.63 170.8 165.03C171.69 167.68 172.07 168.15 173.33 168.15L173.33 172.18L173.33 172.18Z" /></g><g ><path class="shp0" d="M42.28 111.19C42.28 111.19 48.46 111.17 50.35 106.96C52.3 102.74 58.15 98.54 64.96 104.7C71.76 110.85 64.96 116.36 64.96 116.36C64.96 116.36 64.31 121.21 69.51 120.88C74.7 120.58 90.55 126.12 101.57 120.89C112.58 115.7 114.87 111.31 122.02 112.38C122.02 112.38 114.56 118.33 115.21 121.2C115.8 124.14 118.38 156.63 76.92 148.81C76.92 148.81 59.43 145.53 63.03 124.14C63.03 124.14 55.75 114.41 52.09 117.01L42.28 115.88C42.28 115.87 39.51 112.82 42.28 111.19Z" /><path fill-rule="evenodd" class="shp0" d="M88.79 150.64C85.13 150.64 81.14 150.23 76.8 149.42C76.63 149.39 58.91 145.8 62.37 124.3C60.42 121.76 54.99 115.72 52.44 117.51L52.25 117.65L41.97 116.46L41.81 116.29C41.74 116.22 40.18 114.47 40.45 112.7C40.58 111.85 41.08 111.16 41.95 110.65L42.1 110.56L42.27 110.56C42.33 110.56 48.07 110.49 49.77 106.7C50.81 104.45 53.11 101.81 56.46 101.12C58.49 100.71 61.7 100.91 65.37 104.23C67.57 106.22 68.66 108.37 68.59 110.62C68.5 113.73 66.26 116 65.55 116.65C65.53 117.17 65.57 118.47 66.39 119.34C67.04 120.03 68.05 120.32 69.47 120.25C70.98 120.1 73.4 120.55 76.41 121.06C83.68 122.28 93.66 123.97 101.3 120.32C105.15 118.51 107.96 116.77 110.22 115.37C114.45 112.76 117.24 111.01 122.11 111.75L123.52 111.96L122.41 112.85C119.64 115.06 115.4 119.23 115.81 121.05C116.37 123.82 116.88 135.69 109.19 143.46C104.49 148.25 97.65 150.64 88.79 150.64ZM53.52 115.94C57.55 115.94 62.85 122.86 63.53 123.76L63.69 123.97L63.64 124.23C60.19 144.75 76.35 148.06 77.04 148.19C91.44 150.9 101.97 149.02 108.32 142.6C116.59 134.22 114.63 121.44 114.61 121.31C114.04 118.81 118.32 114.72 120.5 112.83C120.33 112.82 120.17 112.82 120 112.82C116.71 112.82 114.38 114.26 110.88 116.42C108.6 117.83 105.75 119.59 101.84 121.43C93.84 125.23 83.24 123.45 76.21 122.27C73.65 121.84 71.41 121.46 69.95 121.46C69.81 121.46 69.67 121.46 69.56 121.47C67.73 121.63 66.41 121.15 65.49 120.17C64.05 118.63 64.34 116.35 64.34 116.26L64.37 116.02L64.57 115.86C64.59 115.84 67.29 113.61 67.37 110.58C67.42 108.71 66.46 106.88 64.54 105.14C61.95 102.79 59.26 101.81 56.71 102.33C53.82 102.92 51.81 105.24 50.91 107.21C49.05 111.36 43.55 111.75 42.46 111.79C42 112.09 41.75 112.45 41.69 112.87C41.56 113.73 42.2 114.77 42.6 115.27L51.95 116.35C52.44 116.07 52.96 115.94 53.52 115.94Z" /></g><g ><path class="shp0" d="M138.19 149.32C137.96 146.76 132.93 86.51 160.25 74.94L160.74 76.08C134.23 87.31 139.36 148.59 139.42 149.21L138.19 149.32Z" /></g><g ><path class="shp0" d="M133.67 152.22L132.44 152.19C132.94 132.48 133.59 94.14 132.46 90.2L133.64 89.86C135.11 94.97 133.73 149.89 133.67 152.22Z" /></g><g ><path class="shp0" d="M146.58 161.73C138.29 145.26 149.73 118.34 150.22 117.2L151.36 117.69C151.24 117.96 139.66 145.21 147.69 161.17L146.58 161.73Z" /></g><g ><path class="shp0" d="M158.47 66.54L159.7 66.54L159.7 150.63L158.47 150.63L158.47 66.54Z" /></g><g ><path class="shp0" d="M138.35 82.42C138.35 88.02 135.59 92.57 132.12 92.57C128.69 92.57 125.89 88.02 125.89 82.42C125.89 76.83 128.69 72.28 132.12 72.28C135.58 72.28 138.35 76.83 138.35 82.42Z" /></g><g ><path class="shp0" d="M165.31 56.38C165.31 61.99 162.55 66.53 159.09 66.53C155.64 66.53 152.88 61.99 152.88 56.38C152.88 50.79 155.64 46.23 159.09 46.23C162.55 46.23 165.31 50.79 165.31 56.38Z" /></g><g ><path class="shp0" d="M171.48 77.7C166.64 80.45 161.28 80.28 159.62 77.27C157.91 74.29 160.49 69.65 165.34 66.88C170.26 64.11 175.56 64.32 177.26 67.28C178.96 70.27 176.37 74.93 171.48 77.7Z" /></g><g ><path class="shp0" d="M160.35 114.29C156.93 118.72 151.99 120.64 149.25 118.57C146.52 116.48 147.08 111.17 150.48 106.7C153.89 102.25 158.84 100.36 161.57 102.43C164.31 104.53 163.76 109.84 160.35 114.29Z" /></g></g></g></svg>