<svg xmlns="http://www.w3.org/2000/svg" viewBox="0 0 226 242" width="256" height="274"><style>tspan { white-space:pre }.shp0 { fill: #26120b } .shp1 { fill: #ffffff } .shp2 { fill: none } .txt3 { font-size: 13px;fill: #000000;font-weight: 400;font-family: "LiberationSans", "Liberation Sans" } </style><g ></g><g ></g><g ></g><g ></g><g ></g><g ></g><g ></g><g ></g><g ><g ><g ><g ><path class="shp0" d="M37.08 214.48C32.3 213.12 28.47 209.3 26.94 204.26L26.94 37.57C28.48 32.56 32.3 28.69 37.08 27.37L191.94 27.37C196.71 28.69 200.54 32.56 202.07 37.57L202.07 204.25C200.53 209.29 196.71 213.11 191.94 214.47L37.08 214.47L37.08 214.48Z" /><path fill-rule="evenodd" class="shp1" d="M191.94 216.47L37.09 216.47C36.91 216.47 36.72 216.44 36.55 216.39C31.08 214.84 26.77 210.52 25.04 204.83C24.98 204.65 24.95 204.45 24.95 204.25L24.95 37.57C24.95 37.37 24.98 37.18 25.04 36.99C26.8 31.27 31.1 26.96 36.56 25.45C36.74 25.4 36.92 25.38 37.1 25.38L191.96 25.38C192.14 25.38 192.32 25.4 192.5 25.45C197.95 26.96 202.26 31.28 204.01 36.99C204.07 37.18 204.1 37.37 204.1 37.57L204.1 204.25C204.1 204.44 204.07 204.64 204.01 204.83C202.28 210.52 197.98 214.83 192.51 216.39C192.31 216.44 192.13 216.47 191.94 216.47ZM37.38 212.48L191.65 212.48C195.6 211.26 198.73 208.1 200.08 203.95L200.08 37.88C198.73 33.76 195.53 30.53 191.66 29.36L37.37 29.36C33.43 30.54 30.31 33.69 28.94 37.88L28.94 203.95C30.3 208.11 33.42 211.27 37.38 212.48Z" /></g><path class="shp2" d="M23.3 67.22L205.71 67.22L205.71 207.92L23.3 207.92L23.3 67.22Z" /><text style="transform: matrix(1,0,0,1,44.662,145.675)" ><tspan x="0" y="0" class="txt3">MC</tspan></text></g><g ><g ><path fill-rule="evenodd" class="shp1" d="M208.74 241.14L17.17 241.14C16.76 241.14 16.34 241.08 15.95 240.97C8.55 238.88 2.71 233.03 0.35 225.32C0.21 224.89 0.15 224.45 0.15 224L0.15 17.81C0.15 17.36 0.22 16.92 0.35 16.48C2.74 8.77 8.58 2.93 15.96 0.87C16.36 0.76 16.76 0.7 17.17 0.7L208.74 0.7C209.15 0.7 209.55 0.76 209.95 0.87C217.33 2.93 223.17 8.76 225.56 16.48C225.7 16.91 225.76 17.36 225.76 17.81L225.76 224C225.76 224.45 225.69 224.89 225.56 225.32C223.2 233.03 217.36 238.88 209.96 240.97C209.57 241.08 209.15 241.14 208.74 241.14ZM17.85 232.17L208.08 232.17C212.1 230.84 215.3 227.58 216.81 223.28L216.81 18.53C215.29 14.24 212.09 10.99 208.09 9.68L17.84 9.68C13.84 10.99 10.64 14.24 9.12 18.53L9.12 223.28C10.63 227.58 13.83 230.84 17.85 232.17Z" /></g></g></g></g><g ></g><g ></g><g ></g><g ></g><g ></g><g ></g></svg>