<svg xmlns="http://www.w3.org/2000/svg" viewBox="0 0 225 240" width="256" height="273"><style>tspan { white-space:pre }.shp0 { fill: #26120b } .shp1 { fill: #ffffff } </style><g ></g><g ><g ><g ><g ><path class="shp0" d="M37.41 213.2C32.66 211.85 28.86 208.05 27.33 203.04L27.33 37.36C28.86 32.38 32.66 28.53 37.41 27.22L191.34 27.22C196.08 28.53 199.88 32.38 201.41 37.36L201.41 203.04C199.88 208.05 196.08 211.85 191.34 213.2L37.41 213.2L37.41 213.2Z" /><path fill-rule="evenodd" class="shp1" d="M191.33 215.18L37.41 215.18C37.23 215.18 37.04 215.15 36.87 215.1C31.44 213.56 27.15 209.26 25.43 203.61C25.37 203.43 25.34 203.23 25.34 203.03L25.34 37.36C25.34 37.16 25.37 36.97 25.43 36.78C27.18 31.09 31.45 26.81 36.88 25.31C37.05 25.26 37.24 25.24 37.41 25.24L191.33 25.24C191.5 25.24 191.69 25.26 191.86 25.31C197.27 26.81 201.56 31.1 203.3 36.78C203.36 36.97 203.39 37.16 203.39 37.36L203.39 203.04C203.39 203.23 203.36 203.43 203.3 203.62C201.58 209.27 197.31 213.56 191.87 215.11C191.7 215.15 191.52 215.18 191.33 215.18ZM37.7 211.22L191.04 211.22C194.97 210.01 198.08 206.87 199.42 202.74L199.42 37.67C198.08 33.57 194.89 30.36 191.05 29.2L37.69 29.2C33.77 30.37 30.67 33.51 29.31 37.67L29.31 202.74C30.66 206.87 33.76 210.01 37.7 211.22Z" /></g><g ><path class="shp1" d="M55.28 154.44L55.28 69.39L68.27 69.39L83.76 129.61L86.86 142.2C87.62 139.07 88.78 134.52 90.34 128.57L105.99 69.39L117.62 69.39L117.62 154.44L109.3 154.44L109.3 83.31L90.26 154.44L82.51 154.44L63.58 82.09L63.58 154.44L55.28 154.44Z" /><path class="shp1" d="M128.59 127.06L136.73 126.13C137.17 130.81 138.15 134.46 139.69 137.07C141.23 139.68 143.43 141.78 146.29 143.36C149.14 144.95 152.37 145.74 155.95 145.74C161.09 145.74 165.09 144.4 167.93 141.72C170.77 139.04 172.19 135.55 172.19 131.27C172.19 128.77 171.67 126.58 170.64 124.7C169.61 122.83 168.05 121.3 165.97 120.1C163.88 118.91 159.39 117.21 152.47 115.03C146.31 113.08 141.93 111.11 139.33 109.14C136.72 107.17 134.7 104.66 133.25 101.63C131.8 98.59 131.07 95.16 131.07 91.33C131.07 84.45 133.15 78.82 137.32 74.45C141.49 70.08 147.1 67.89 154.15 67.89C159 67.89 163.25 68.91 166.88 70.96C170.52 73.01 173.34 75.95 175.35 79.78C177.36 83.61 178.43 88.11 178.58 93.3L170.27 94.11C169.83 88.58 168.29 84.48 165.63 81.81C162.97 79.14 159.23 77.81 154.41 77.81C149.53 77.81 145.79 78.98 143.22 81.32C140.65 83.66 139.36 86.69 139.36 90.4C139.36 93.84 140.31 96.51 142.19 98.4C144.07 100.3 148.3 102.21 154.89 104.16C161.33 106.06 165.85 107.72 168.47 109.12C172.44 111.3 175.45 114.15 177.48 117.69C179.52 121.22 180.54 125.44 180.54 130.35C180.54 135.22 179.47 139.65 177.33 143.65C175.19 147.65 172.29 150.69 168.62 152.78C164.95 154.86 160.52 155.91 155.34 155.91C147.27 155.91 140.83 153.32 136.03 148.14C131.26 142.94 128.77 135.92 128.59 127.06Z" /></g></g><g ><g ><path fill-rule="evenodd" class="shp1" d="M208.03 239.7L17.62 239.7C17.21 239.7 16.8 239.64 16.41 239.53C9.05 237.45 3.25 231.64 0.9 223.97C0.76 223.54 0.7 223.1 0.7 222.66L0.7 17.72C0.7 17.28 0.77 16.83 0.9 16.4C3.28 8.73 9.08 2.93 16.42 0.89C16.82 0.78 17.21 0.73 17.62 0.73L208.04 0.73C208.45 0.73 208.84 0.79 209.24 0.89C216.58 2.94 222.38 8.74 224.76 16.4C224.9 16.83 224.96 17.28 224.96 17.72L224.96 222.66C224.96 223.1 224.89 223.54 224.76 223.97C222.41 231.63 216.61 237.45 209.25 239.53C208.85 239.64 208.44 239.7 208.03 239.7ZM18.28 230.79L207.36 230.79C211.35 229.47 214.53 226.23 216.03 221.96L216.03 18.44C214.52 14.17 211.34 10.94 207.37 9.64L18.27 9.64C14.3 10.94 11.11 14.17 9.61 18.44L9.61 221.96C11.11 226.22 14.29 229.47 18.28 230.79Z" /></g></g></g></g></svg>