<?xml version="1.0" encoding="utf-8"?>
<!-- Generator: Adobe Illustrator 23.0.2, SVG Export Plug-In . SVG Version: 6.00 Build 0)  -->
<svg version="1.1" xmlns="http://www.w3.org/2000/svg" xmlns:xlink="http://www.w3.org/1999/xlink" x="0px" y="0px"
	 viewBox="0 0 275.74 352.34" style="enable-background:new 0 0 275.74 352.34;" xml:space="preserve">
<style type="text/css">
	.st0{display:none;}
	.st1{display:inline;}
	.st2{fill:#FFFFFF;}
	.st3{fill:none;stroke:#1D1D1B;stroke-width:0.25;stroke-miterlimit:10;}
	.st4{fill:#CABA9F;stroke:#1D1D1B;stroke-width:0.25;stroke-miterlimit:10;}
	.st5{fill:#1D1D1B;stroke:#1D1D1B;stroke-width:0.25;stroke-miterlimit:10;}
	.st6{fill:#E20613;stroke:#1D1D1B;stroke-width:0.25;stroke-miterlimit:10;}
	.st7{fill:#35A8E0;stroke:#1D1D1B;stroke-width:0.25;stroke-miterlimit:10;}
	.st8{fill:#C6C6C5;stroke:#1D1D1B;stroke-width:0.25;stroke-miterlimit:10;}
	.st9{fill:#1D1D1B;}
	.st10{fill:#E5007E;}
	.st11{fill:#E84E1B;}
	.st12{display:inline;opacity:0.77;fill:#E1BF80;}
	.st13{display:inline;opacity:0.81;fill:#BBD5DE;}
	.st14{display:inline;opacity:0.85;fill:#E3F3C1;}
	.st15{display:inline;opacity:0.83;fill:#DDBDEE;}
	.st16{display:inline;opacity:0.73;fill:#A2CAA3;}
	.st17{display:inline;opacity:0.44;fill:#39B54A;stroke:#39B54A;stroke-width:8;stroke-miterlimit:10;}
	.st18{display:inline;fill:none;stroke:#0000FF;stroke-width:3;stroke-miterlimit:10;}
	.st19{display:inline;fill:none;}
	.st20{display:inline;fill:#CCCCCC;stroke:#CCCCCC;stroke-width:3;stroke-miterlimit:10;}
	.st21{display:inline;opacity:0.94;fill:#FFFF00;}
	.st22{display:inline;fill:#8CC63F;}
	.st23{fill:#63D0F7;}
	.st24{fill:#D9E021;}
	.st25{fill:#39B54A;}
	.st26{fill:#FFFF00;}
	.st27{fill:#8CC63F;}
	.st28{fill:#F4BE78;}
	.st29{display:inline;opacity:0.53;fill:#8CC63F;}
	.st30{display:inline;fill:#16905C;stroke:#009245;stroke-miterlimit:10;}
	.st31{display:inline;fill:#009245;stroke:#009245;stroke-miterlimit:10;}
	.st32{display:inline;fill:#168F54;stroke:#009245;stroke-miterlimit:10;}
	.st33{display:inline;opacity:0.99;fill:#FFFF00;}
	.st34{display:inline;fill:#A67C52;stroke:#A67C52;stroke-miterlimit:10;}
	.st35{fill:#A67C52;stroke:#A67C52;stroke-miterlimit:10;}
	.st36{fill:none;stroke:#FFFFFF;stroke-miterlimit:10;}
	.st37{fill:none;stroke:#FFFFFF;stroke-width:0.5;stroke-miterlimit:10;}
	.st38{fill:#80AD28;}
	.st39{fill:#67A32E;}
	.st40{display:inline;opacity:0.65;fill:#8CC63F;stroke:#8CC63F;stroke-miterlimit:10;}
	.st41{display:inline;opacity:0.69;}
	.st42{fill:#6FA62D;}
	.st43{fill:none;stroke:#DBDBDB;stroke-width:7;stroke-miterlimit:10;}
	.st44{display:inline;fill:none;stroke:#999999;stroke-width:7;stroke-miterlimit:10;}
	.st45{display:inline;fill:#F2F20A;stroke:#999999;stroke-width:7;stroke-miterlimit:10;}
	.st46{fill:none;stroke:#999999;stroke-width:7;stroke-miterlimit:10;}
	.st47{fill:none;stroke:#1A1A1A;stroke-width:7;stroke-miterlimit:10;}
	.st48{fill:none;stroke:#000000;stroke-width:7;stroke-miterlimit:10;}
	.st49{display:inline;fill:none;stroke:#FBB03B;stroke-width:3;stroke-miterlimit:10;}
	.st50{fill:none;stroke:#0000FF;stroke-width:7;stroke-miterlimit:10;}
	.st51{fill:#603813;}
	.st52{display:inline;fill:none;stroke:#0000FF;stroke-width:5;stroke-miterlimit:10;}
	.st53{fill:none;stroke:#0000FF;stroke-width:5;stroke-miterlimit:10;}
	.st54{display:inline;opacity:0.94;fill:#603813;}
	.st55{display:inline;fill:none;stroke:#F15A24;stroke-width:3;stroke-miterlimit:10;}
	.st56{fill:none;stroke:#FBB03B;stroke-width:3;stroke-miterlimit:10;}
	.st57{display:inline;fill:none;stroke:#D85C4C;stroke-width:6;stroke-miterlimit:10;}
	.st58{display:inline;fill:none;stroke:#40CCC8;stroke-width:6;stroke-miterlimit:10;}
	.st59{display:inline;fill:none;stroke:#1FC11F;stroke-width:6;stroke-miterlimit:10;}
	.st60{display:inline;fill:none;stroke:#1FC11F;stroke-width:4;stroke-miterlimit:10;}
	.st61{display:inline;fill:none;stroke:#9B5F10;stroke-width:6;stroke-miterlimit:10;}
	.st62{display:inline;opacity:0.47;}
	.st63{display:inline;opacity:0.45;}
	.st64{fill:#20FFFF;}
	.st65{fill:#52BE61;}
	.st66{fill:#5A3D2A;}
	.st67{fill:#928772;}
	.st68{fill:#C79924;}
	.st69{display:inline;fill:none;stroke:#000000;stroke-miterlimit:10;}
	.st70{display:inline;opacity:0.45;fill:none;stroke:#67200A;stroke-width:3;stroke-miterlimit:10;}
	.st71{display:inline;opacity:0.64;fill:none;stroke:#67200A;stroke-width:4;stroke-miterlimit:10;}
	.st72{display:inline;opacity:0.64;fill:none;stroke:#67200A;stroke-width:7;stroke-miterlimit:10;}
	.st73{display:inline;opacity:0.64;fill:none;stroke:#67200A;stroke-width:2;stroke-miterlimit:10;}
	.st74{display:inline;opacity:0.4;fill:#F2F2F2;}
	.st75{display:inline;opacity:0.39;fill:#F2F2F2;}
	.st76{display:inline;opacity:0.45;fill:#F2F2F2;stroke:#FFFFFF;stroke-width:3;stroke-miterlimit:10;}
	.st77{display:inline;opacity:0.45;fill:#F2F2F2;}
	.st78{display:inline;opacity:0.31;fill:#F2F2F2;}
	.st79{display:inline;opacity:0.48;fill:#F2F2F2;}
	.st80{display:inline;opacity:0.43;}
	.st81{fill:#F2F2F2;}
	.st82{fill:#217D47;}
	.st83{fill:#20A05D;}
	.st84{fill:#79CFD6;}
	.st85{fill:#C94248;}
	.st86{fill:#F8A13B;}
	.st87{display:inline;fill:none;stroke:#FFFF00;stroke-width:2;stroke-miterlimit:10;}
	.st88{display:inline;fill:none;stroke:#009245;stroke-width:3;stroke-miterlimit:10;}
	.st89{display:inline;fill:none;stroke:#000000;stroke-width:2;stroke-miterlimit:10;}
	.st90{display:inline;fill:none;stroke:#F4E12F;stroke-width:5;stroke-miterlimit:10;}
	.st91{fill:#F4E12F;stroke:#000000;stroke-width:2;stroke-miterlimit:10;}
	.st92{fill:#F4E12F;stroke:#000000;stroke-miterlimit:10;}
	.st93{display:inline;fill:none;stroke:#736357;stroke-width:0.75;stroke-miterlimit:10;}
	.st94{display:inline;fill:none;stroke:#736357;stroke-width:0.5;stroke-miterlimit:10;}
	.st95{fill:none;stroke:#F94B4B;stroke-width:9;stroke-miterlimit:10;}
	.st96{fill:none;stroke:#F94B4B;stroke-width:9;stroke-miterlimit:10;stroke-dasharray:1.017,1.017,1.017,1.017;}
	.st97{fill:none;stroke:#F94B4B;stroke-width:9;stroke-miterlimit:10;stroke-dasharray:5.0679,5.0679,5.0679,5.0679;}
	.st98{fill:none;stroke:#F94B4B;stroke-width:9;stroke-miterlimit:10;stroke-dasharray:5.0679,5.0679,5.0679,5.0679,5.0679,5.0679;}
	.st99{display:inline;fill:none;stroke:#FF0000;stroke-width:6;stroke-miterlimit:10;stroke-dasharray:5,5,5,5,5,5;}
	.st100{display:inline;fill:none;stroke:#F94B4B;stroke-width:9;stroke-miterlimit:10;stroke-dasharray:5,5,5,5,5,5;}
	.st101{display:inline;fill:none;stroke:#0000FF;stroke-miterlimit:10;}
	.st102{fill:#0000FF;}
	.st103{fill:#2121C1;}
	.st104{display:inline;fill:none;stroke:#0000FF;stroke-width:2;stroke-miterlimit:10;}
	.st105{display:inline;opacity:0.54;}
	.st106{display:inline;fill:none;stroke:#000000;stroke-width:0.25;stroke-miterlimit:10;}
	.st107{display:inline;fill:#EDB03B;stroke:#FBB03B;stroke-width:0.25;stroke-miterlimit:10;}
	.st108{display:inline;fill:#F0B03B;stroke:#FBB03B;stroke-width:0.25;stroke-miterlimit:10;}
	.st109{display:inline;fill:#EEB03B;stroke:#FBB03B;stroke-width:0.25;stroke-miterlimit:10;}
	.st110{display:inline;fill:#E8B03B;stroke:#FBB03B;stroke-width:0.25;stroke-miterlimit:10;}
	.st111{display:inline;fill:#E9B03B;stroke:#FBB03B;stroke-width:0.25;stroke-miterlimit:10;}
	.st112{display:inline;fill:#FBB03B;stroke:#FBB03B;stroke-width:0.25;stroke-miterlimit:10;}
	.st113{display:inline;fill:#EBB03B;stroke:#FBB03B;stroke-width:0.25;stroke-miterlimit:10;}
	.st114{display:inline;fill:#EAB03B;stroke:#FBB03B;stroke-width:0.25;stroke-miterlimit:10;}
	.st115{display:inline;fill:#F6B03B;stroke:#FBB03B;stroke-width:0.25;stroke-miterlimit:10;}
	.st116{display:inline;fill:#F2B03B;stroke:#FBB03B;stroke-width:0.25;stroke-miterlimit:10;}
	.st117{display:inline;fill:#F4B03B;stroke:#FBB03B;stroke-width:0.25;stroke-miterlimit:10;}
	.st118{display:inline;fill:none;stroke:#FCEE21;stroke-width:10;stroke-miterlimit:10;}
	.st119{display:inline;fill:none;stroke:#000000;stroke-width:8;stroke-miterlimit:10;}
	.st120{display:inline;fill:none;stroke:#736357;stroke-width:4;stroke-miterlimit:10;}
	.st121{display:inline;fill:none;stroke:#0000FF;stroke-width:8;stroke-miterlimit:10;}
	.st122{display:inline;fill:none;stroke:#0071BC;stroke-width:5;stroke-miterlimit:10;}
	.st123{display:inline;fill:none;stroke:#0071BC;stroke-width:5;stroke-miterlimit:10;stroke-dasharray:8,8;}
	.st124{display:inline;fill:none;stroke:#C1272D;stroke-width:2;stroke-miterlimit:10;}
	.st125{display:inline;fill:none;stroke:#FF0000;stroke-width:3;stroke-miterlimit:10;}
	.st126{display:inline;fill:none;stroke:#F92010;stroke-width:2;stroke-miterlimit:10;}
	.st127{display:inline;fill:none;stroke:#ED2207;stroke-width:5;stroke-miterlimit:10;}
	.st128{display:inline;fill:#EF220C;}
	.st129{fill:#26120B;}
	.st130{fill:#12491D;}
	.st131{fill:none;stroke:#FFFFFF;stroke-width:0.5;stroke-linecap:round;stroke-linejoin:round;stroke-miterlimit:10;}
	.st132{fill:#2E3192;}
	.st133{fill:url(#XMLID_2396_);}
	.st134{opacity:0.26;}
	.st135{fill:none;stroke:#FFFFFF;stroke-width:9;stroke-miterlimit:10;}
	.st136{fill:#FFFFFF;stroke:#FFFFFF;stroke-width:9;stroke-miterlimit:10;}
	.st137{fill:none;stroke:#000000;stroke-width:0.25;stroke-miterlimit:10;}
	.st138{fill:#FF8000;}
	.st139{fill:#80C41C;stroke:#000000;stroke-width:0.1;stroke-miterlimit:10;}
	.st140{fill:none;stroke:#FF8000;stroke-miterlimit:10;}
	.st141{fill:#8C6239;stroke:#42210B;stroke-width:0.25;stroke-miterlimit:10;}
	.st142{fill:#603813;stroke:#42210B;stroke-width:0.25;stroke-miterlimit:10;}
	.st143{fill:#C69C6D;}
	.st144{fill:#42210B;stroke:#42210B;stroke-width:0.25;stroke-miterlimit:10;}
	.st145{fill:#F7931E;}
	.st146{fill:#F15A24;}
	.st147{fill:#D4145A;}
	.st148{fill:#006837;}
	.st149{fill:#662D91;}
	.st150{fill:#ED1C24;}
	.st151{fill:#C1272D;}
	.st152{fill:#1B1464;}
	.st153{fill:#BEAC83;}
	.st154{fill:#C2000B;}
	.st155{fill:#C7B299;}
	.st156{opacity:0.32;}
	.st157{fill:#F5F5F5;}
	.st158{fill:#006837;stroke:#FFFFFF;stroke-width:0.5;stroke-miterlimit:10;}
	.st159{fill:none;stroke:#000000;stroke-width:6;stroke-miterlimit:10;}
	.st160{fill:none;stroke:#FFFFFF;stroke-width:8;stroke-linecap:round;stroke-linejoin:round;stroke-miterlimit:10;}
	.st161{opacity:0.72;}
	.st162{fill:#FFFF00;stroke:#000000;stroke-miterlimit:10;}
	.st163{fill:none;stroke:#4D4D4D;stroke-width:4;stroke-miterlimit:10;}
	.st164{fill:none;stroke:#110B79;stroke-width:5;stroke-miterlimit:10;}
	.st165{fill:none;stroke:#110B79;stroke-width:3;stroke-miterlimit:10;}
	.st166{fill:none;stroke:#2E58A6;stroke-width:2;stroke-miterlimit:10;}
	.st167{fill:#FEA812;stroke:#63300F;stroke-width:0.7087;stroke-linecap:round;stroke-linejoin:round;stroke-miterlimit:10;}
	.st168{fill:#FCEE21;}
	.st169{fill:none;stroke:#000000;stroke-width:0.05;stroke-miterlimit:10;}
	.st170{fill:#F62700;}
	.st171{fill:none;stroke:#000000;stroke-width:0.5;stroke-miterlimit:10;}
	.st172{fill:#4D1F03;stroke:#000000;stroke-width:0.5;stroke-miterlimit:10;}
	.st173{fill:none;stroke:#FFFFFF;stroke-width:0.25;stroke-miterlimit:10;}
	.st174{fill:url(#XMLID_2397_);stroke:#000000;stroke-width:0.5;stroke-miterlimit:10;}
	.st175{fill:#8E2E0B;}
	.st176{fill:#2E58A6;}
	.st177{fill:#93583A;}
	.st178{fill:#C6B491;}
	.st179{fill:#534741;}
	.st180{fill:#FD1A16;}
	.st181{fill:#F2F91C;}
	.st182{fill:#6B1687;}
	.st183{fill:none;stroke:#000000;stroke-width:0.1;stroke-linecap:round;stroke-linejoin:round;}
	.st184{fill:#42210B;}
	.st185{fill:#237D26;}
	.st186{fill:#80C41C;}
	.st187{fill:#40A629;}
	.st188{fill:#009245;}
	.st189{fill:#BE894A;}
	.st190{fill:#4FA0CA;}
	.st191{fill:#F0047F;}
	.st192{fill:#F487BC;}
	.st193{fill:#FEA621;}
	.st194{fill:#63300F;}
	.st195{fill:#0B0146;}
	.st196{fill:none;stroke:#000000;stroke-width:0.25;stroke-linecap:round;stroke-linejoin:round;}
	.st197{fill:#4D1F03;stroke:#000000;stroke-width:0.25;stroke-linecap:round;stroke-linejoin:round;}
	.st198{fill:#333333;}
	.st199{fill:#1A1A1A;stroke:#000000;stroke-width:0.25;stroke-linecap:round;stroke-linejoin:round;}
	.st200{fill:#333333;stroke:#000000;stroke-width:0.25;stroke-linecap:round;stroke-linejoin:round;}
	.st201{fill:#C1272D;stroke:#000000;stroke-width:0.1;stroke-linecap:round;stroke-linejoin:round;}
	.st202{fill:#DD7808;}
	.st203{fill:none;stroke:#63300F;stroke-width:0.25;stroke-miterlimit:10;}
	.st204{fill:#40A629;stroke:#12491D;stroke-width:0.25;stroke-miterlimit:10;}
	.st205{fill:#12491D;stroke:#000000;stroke-width:0.25;stroke-miterlimit:10;}
	.st206{fill:#237D26;stroke:#000000;stroke-width:0.25;stroke-miterlimit:10;}
	.st207{fill:#40A629;stroke:#000000;stroke-width:0.25;stroke-miterlimit:10;}
	.st208{fill:#CCE70B;stroke:#000000;stroke-width:0.25;stroke-miterlimit:10;}
	.st209{fill-rule:evenodd;clip-rule:evenodd;fill:none;stroke:#FFFFFF;stroke-miterlimit:2.4142;}
	
		.st210{fill-rule:evenodd;clip-rule:evenodd;fill:#111183;stroke:#FFFFFF;stroke-width:0.6;stroke-linecap:round;stroke-linejoin:round;stroke-miterlimit:10;}
	.st211{fill:#111183;}
	.st212{fill:#FFFFFF;stroke:#FFFFFF;stroke-miterlimit:10;}
	.st213{fill:#452F27;}
	.st214{fill:#F36F40;}
	.st215{fill:#207B50;}
	.st216{fill:#FFFFFF;stroke:#000000;stroke-width:2;stroke-miterlimit:10;}
	.st217{fill:none;}
	.st218{clip-path:url(#SVGID_10_);fill:#2E3192;}
	.st219{clip-path:url(#SVGID_10_);fill:#39B54A;}
	.st220{fill:none;stroke:#C1272D;stroke-width:3;stroke-miterlimit:10;}
	.st221{fill:url(#SVGID_11_);}
	.st222{clip-path:url(#SVGID_13_);}
	.st223{fill:none;stroke:#FFFF00;stroke-miterlimit:10;}
	.st224{fill:#FFFFFF;stroke:#FFFFFF;stroke-width:0.75;stroke-miterlimit:10;}
	.st225{fill:none;stroke:#FFFFFF;stroke-width:0.75;stroke-miterlimit:10;}
	.st226{fill:#4D1F03;}
	.st227{fill:url(#SVGID_20_);}
	.st228{fill:#D1D117;}
	.st229{fill:#7E4E24;stroke:#1D1D1B;stroke-width:0.25;stroke-miterlimit:10;}
	.st230{fill:#FFEC00;}
	.st231{fill:#7C411E;}
	.st232{fill:none;stroke:#000000;stroke-miterlimit:10;}
	.st233{fill:#2C5B20;}
	.st234{fill:none;stroke:#A0642F;stroke-width:0.25;stroke-miterlimit:10;}
	.st235{fill:#999999;}
	.st236{fill:#008D36;}
	.st237{fill:#93C01F;}
	.st238{fill:#683B11;}
	.st239{fill:#FCEA0D;}
	.st240{fill:#ECECEC;}
	.st241{fill:#F29100;}
	.st242{fill:#81358A;}
	.st243{fill:#BD1622;}
	.st244{fill:#006633;}
	.st245{fill:#925F36;}
	.st246{fill:#422918;}
	.st247{fill:#FE330A;}
	.st248{stroke:#000000;stroke-width:0.25;stroke-linecap:round;stroke-linejoin:round;}
	.st249{fill:none;stroke:#000000;stroke-width:0.27;stroke-linecap:round;stroke-linejoin:round;}
	.st250{fill:#63300F;stroke:#000000;stroke-width:0.25;stroke-linecap:round;stroke-linejoin:round;}
	.st251{fill:#4A007D;}
	.st252{stroke:#000000;stroke-width:0.25;stroke-miterlimit:10;}
	.st253{fill:#63300F;stroke:#000000;stroke-width:0.25;stroke-miterlimit:10;}
	.st254{fill:#BE894A;stroke:#000000;stroke-width:0.25;stroke-miterlimit:10;}
	.st255{fill:#FFFF00;stroke:#000000;stroke-width:0.25;stroke-miterlimit:10;}
	.st256{fill:#26120B;stroke:#000000;stroke-width:0.25;stroke-miterlimit:10;}
	.st257{fill:#F0047F;stroke:#000000;stroke-width:0.25;stroke-miterlimit:10;}
	.st258{fill:#A0642F;stroke:#000000;stroke-width:0.1;stroke-miterlimit:10;}
	.st259{stroke:#000000;stroke-width:0.1;stroke-miterlimit:10;}
	.st260{fill:#BEAC83;stroke:#000000;stroke-width:0.1;stroke-miterlimit:10;}
	.st261{fill:#63300F;stroke:#000000;stroke-width:0.1;stroke-miterlimit:10;}
	.st262{fill:none;stroke:#000000;stroke-width:0.1;stroke-miterlimit:10;}
	.st263{fill:#237D26;stroke:#000000;stroke-width:0.1;stroke-miterlimit:10;}
	.st264{fill:#F8B133;}
	.st265{fill:#CABA9F;}
	.st266{fill:#E20613;}
	.st267{fill:none;stroke:#1D1D1B;stroke-width:0.5;stroke-miterlimit:10;}
	.st268{fill:#BEAC83;stroke:#000000;stroke-width:0.25;stroke-miterlimit:10;}
	.st269{fill:#808080;}
	.st270{fill:#7C411E;stroke:#000000;stroke-width:0.25;stroke-miterlimit:10;}
	.st271{fill:#FF8000;stroke:#000000;stroke-width:0.25;stroke-miterlimit:10;}
	.st272{fill:none;stroke:#237D26;stroke-width:0.25;stroke-miterlimit:10;}
	.st273{fill:#00FFFF;}
	.st274{fill:#F0047F;stroke:#FFFFFF;stroke-width:0.25;stroke-miterlimit:10;}
	.st275{fill:#82027E;stroke:#FFFFFF;stroke-width:0.25;stroke-miterlimit:10;}
	.st276{fill:#808080;stroke:#000000;stroke-width:0.25;stroke-miterlimit:10;}
	.st277{fill:#ED1E79;}
	.st278{fill:#93278F;}
	.st279{fill:#42210B;stroke:#000000;stroke-width:0.25;stroke-miterlimit:10;}
	.st280{fill:#603813;stroke:#42210B;stroke-miterlimit:10;}
	.st281{opacity:0.48;fill:#F2F2F2;}
	.st282{fill:#FBB03B;}
	.st283{fill:#F4136B;}
	.st284{fill:#80C41C;stroke:#000000;stroke-width:0.5;stroke-miterlimit:10;}
	.st285{fill:#4D1F03;stroke:#000000;stroke-miterlimit:10;}
	.st286{fill:url(#XMLID_2453_);stroke:#000000;stroke-width:0.5;stroke-miterlimit:10;}
	.st287{fill:none;stroke:#A0642F;stroke-miterlimit:10;}
	.st288{fill:none;stroke:#FFFFFF;stroke-width:2;stroke-miterlimit:10;}
	.st289{fill:#BE894A;stroke:#26120B;stroke-width:0.25;stroke-miterlimit:10;}
	.st290{fill:none;stroke:#26120B;stroke-width:0.5;stroke-miterlimit:10;}
	.st291{fill:#4D1F03;stroke:#000000;stroke-width:0.5;stroke-linecap:round;stroke-linejoin:round;}
	.st292{fill:none;stroke:#000000;stroke-width:0.5;stroke-linecap:round;stroke-linejoin:round;}
	.st293{stroke:#000000;stroke-width:0.5;stroke-linecap:round;stroke-linejoin:round;}
	.st294{fill:#63300F;stroke:#000000;stroke-width:0.5;stroke-linecap:round;stroke-linejoin:round;}
	.st295{stroke:#000000;stroke-width:0.75;stroke-miterlimit:10;}
	.st296{fill:#63300F;stroke:#000000;stroke-width:0.75;stroke-miterlimit:10;}
	.st297{fill:#BE894A;stroke:#000000;stroke-width:0.75;stroke-miterlimit:10;}
	.st298{fill:#FFFF00;stroke:#000000;stroke-width:0.75;stroke-miterlimit:10;}
	.st299{fill:#26120B;stroke:#000000;stroke-width:0.75;stroke-miterlimit:10;}
	.st300{fill:none;stroke:#000000;stroke-width:0.75;stroke-miterlimit:10;}
	.st301{fill:#F0047F;stroke:#000000;stroke-width:0.75;stroke-miterlimit:10;}
	.st302{fill:#A0642F;stroke:#000000;stroke-width:0.75;stroke-miterlimit:10;}
	.st303{fill:#BEAC83;stroke:#000000;stroke-width:0.75;stroke-miterlimit:10;}
	.st304{fill:#237D26;stroke:#000000;stroke-width:0.75;stroke-miterlimit:10;}
	.st305{fill:none;stroke:#000000;stroke-linecap:round;stroke-linejoin:round;}
	.st306{fill:#4D1F03;stroke:#000000;stroke-linecap:round;stroke-linejoin:round;}
	.st307{fill:#1A1A1A;stroke:#000000;stroke-linecap:round;stroke-linejoin:round;}
	.st308{fill:#333333;stroke:#000000;stroke-linecap:round;stroke-linejoin:round;}
	.st309{fill:#C1272D;stroke:#000000;stroke-linecap:round;stroke-linejoin:round;}
	.st310{fill:#7E4E24;stroke:#1D1D1B;stroke-width:0.75;stroke-miterlimit:10;}
	.st311{fill:none;stroke:#1D1D1B;stroke-width:0.75;stroke-miterlimit:10;}
	.st312{fill:none;stroke:#1D1D1B;stroke-width:4;stroke-miterlimit:10;}
	.st313{fill:#CABA9F;stroke:#1D1D1B;stroke-miterlimit:10;}
	.st314{fill:#1D1D1B;stroke:#1D1D1B;stroke-miterlimit:10;}
	.st315{fill:#E20613;stroke:#1D1D1B;stroke-miterlimit:10;}
	.st316{fill:#35A8E0;stroke:#1D1D1B;stroke-miterlimit:10;}
	.st317{fill:#C6C6C5;stroke:#1D1D1B;stroke-miterlimit:10;}
	.st318{fill:none;stroke:#1D1D1B;stroke-miterlimit:10;}
	.st319{fill:none;stroke:#000000;stroke-width:2;stroke-miterlimit:10;}
	.st320{fill:#808080;stroke:#000000;stroke-width:2;stroke-miterlimit:10;}
	.st321{fill:#42210B;stroke:#000000;stroke-miterlimit:10;}
	.st322{fill:#BE894A;stroke:#26120B;stroke-miterlimit:10;}
	.st323{fill:none;stroke:#26120B;stroke-width:3;stroke-miterlimit:10;}
	.st324{fill:url(#SVGID_23_);}
	.st325{filter:url(#Adobe_OpacityMaskFilter);}
	.st326{mask:url(#SVGID_24_);}
	.st327{fill:#390D81;}
	.st328{fill:#1D0134;}
	.st329{fill:#006837;stroke:#000000;stroke-width:0.25;stroke-miterlimit:10;}
	.st330{fill:#754C24;}
	.st331{fill:none;stroke:#000000;stroke-width:0.08;stroke-miterlimit:10;}
	.st332{fill:#80C41C;stroke:#000000;stroke-width:0.05;stroke-miterlimit:10;}
	.st333{fill:#916F5D;}
	.st334{fill:#40A629;stroke:#000000;stroke-width:0.05;stroke-miterlimit:10;}
	.st335{fill:#E0013F;stroke:#000000;stroke-width:0.05;stroke-miterlimit:10;}
	.st336{fill:#93014A;stroke:#000000;stroke-width:0.05;stroke-miterlimit:10;}
	.st337{fill:#237D26;stroke:#000000;stroke-width:0.05;stroke-miterlimit:10;}
	.st338{fill:#298333;}
	.st339{fill:#154D22;}
	.st340{fill:#250F09;}
	.st341{fill:#615153;}
	.st342{fill:url(#SVGID_25_);}
	.st343{fill:url(#XMLID_2458_);stroke:#000000;stroke-width:0.25;stroke-miterlimit:10;}
	.st344{fill:none;stroke:#26120B;stroke-width:0.25;stroke-miterlimit:10;}
	.st345{fill:url(#SVGID_26_);}
	.st346{fill:url(#XMLID_2463_);stroke:#000000;stroke-width:0.25;stroke-miterlimit:10;}
	.st347{fill:url(#SVGID_27_);}
	.st348{fill:url(#XMLID_2519_);stroke:#000000;stroke-width:0.25;stroke-miterlimit:10;}
	.st349{fill:url(#SVGID_28_);}
	.st350{fill:url(#XMLID_21018_);stroke:#000000;stroke-width:0.25;stroke-miterlimit:10;}
	.st351{fill:url(#SVGID_29_);}
	.st352{fill:url(#XMLID_21019_);stroke:#000000;stroke-width:0.25;stroke-miterlimit:10;}
	.st353{fill:url(#SVGID_30_);}
	.st354{fill:url(#XMLID_21020_);stroke:#000000;stroke-width:0.25;stroke-miterlimit:10;}
	.st355{fill:url(#SVGID_31_);}
	.st356{fill:url(#XMLID_21021_);stroke:#000000;stroke-width:0.25;stroke-miterlimit:10;}
	.st357{fill:#5F9931;}
	.st358{fill:#13007C;}
	.st359{fill:url(#SVGID_32_);}
	.st360{fill:url(#SVGID_33_);}
	.st361{fill:#1A1A1A;}
	.st362{fill:url(#SVGID_34_);}
	.st363{fill:#C4C4C4;}
	.st364{fill:#BE894A;stroke:#C4C4C4;stroke-width:0.1;stroke-miterlimit:10;}
	.st365{fill:none;stroke:#C4C4C4;stroke-width:0.1;stroke-miterlimit:10;}
	.st366{fill:#A0642F;}
	.st367{fill:#40A629;stroke:#000000;stroke-width:0.1;stroke-miterlimit:10;}
	.st368{fill:#604B3B;}
	.st369{fill:#FFFFFF;stroke:#000000;stroke-width:0.25;stroke-miterlimit:10;}
	.st370{fill:#BEAC83;stroke:#000000;stroke-width:0.01;stroke-miterlimit:10;}
	.st371{fill:#1B3F26;}
	.st372{fill:#12491D;stroke:#000000;stroke-width:0.1;stroke-miterlimit:10;}
	.st373{fill:#008837;stroke:#000000;stroke-width:0.1;stroke-miterlimit:10;}
	.st374{fill:#41AA54;}
	.st375{fill:#F2F91C;stroke:#000000;stroke-width:0.1;stroke-miterlimit:10;}
	.st376{fill:#BEAC83;stroke:#000000;stroke-width:0.09;stroke-miterlimit:10;}
	.st377{fill:#CCE70B;}
	.st378{fill:none;stroke:#000000;stroke-width:0.09;stroke-miterlimit:10;}
	.st379{fill:url(#SVGID_35_);}
	.st380{fill:#110B79;}
	.st381{fill:url(#SVGID_36_);}
	.st382{fill:url(#SVGID_37_);}
	.st383{fill:#110B79;stroke:#000000;stroke-width:0.25;stroke-miterlimit:10;}
	.st384{fill:#ED1C24;stroke:#000000;stroke-width:0.25;stroke-miterlimit:10;}
	.st385{fill:url(#XMLID_21022_);stroke:#000000;stroke-width:0.25;stroke-linecap:round;stroke-linejoin:round;}
	.st386{opacity:0.59;}
	.st387{fill:#4D4D4D;stroke:#26120B;stroke-width:0.25;stroke-linecap:round;stroke-linejoin:round;}
	.st388{fill:#F34C31;}
	.st389{fill:none;stroke:#26120B;stroke-width:0.25;stroke-linecap:round;stroke-linejoin:round;}
	.st390{fill:#BE894A;stroke:#000000;stroke-width:0.1;stroke-miterlimit:10;}
	.st391{fill:#FEA621;stroke:#000000;stroke-width:0.1;stroke-miterlimit:10;}
	.st392{fill:#FF8000;stroke:#000000;stroke-width:0.1;stroke-miterlimit:10;}
	.st393{fill:url(#XMLID_21023_);stroke:#000000;stroke-width:0.1;stroke-miterlimit:10;}
	.st394{fill:url(#XMLID_21024_);stroke:#000000;stroke-width:0.1;stroke-miterlimit:10;}
	.st395{fill:url(#XMLID_21025_);stroke:#000000;stroke-width:0.1;stroke-miterlimit:10;}
	.st396{fill:url(#XMLID_21026_);stroke:#000000;stroke-width:0.1;stroke-miterlimit:10;}
	.st397{fill:url(#XMLID_21027_);stroke:#000000;stroke-width:0.1;stroke-miterlimit:10;}
	.st398{fill:url(#XMLID_21028_);stroke:#000000;stroke-width:0.1;stroke-miterlimit:10;}
	.st399{fill:#12491D;stroke:#000000;stroke-width:0.15;stroke-miterlimit:10;}
	.st400{fill:#E9E923;stroke:#000000;stroke-width:0.15;stroke-miterlimit:10;}
	.st401{fill:#F2F91C;stroke:#000000;stroke-width:0.15;stroke-miterlimit:10;}
	.st402{fill:#FFFF00;stroke:#000000;stroke-width:0.15;stroke-miterlimit:10;}
	.st403{fill:#26120B;stroke:#000000;stroke-width:0.15;stroke-miterlimit:10;}
	.st404{fill:#40A629;stroke:#000000;stroke-width:0.15;stroke-miterlimit:10;}
	.st405{fill:#237D26;stroke:#000000;stroke-width:0.15;stroke-miterlimit:10;}
	.st406{fill:#E0013F;stroke:#000000;stroke-width:0.1;stroke-miterlimit:10;}
	.st407{fill:#93014A;}
	.st408{fill:none;stroke:#FFFFFF;stroke-width:0.1;stroke-miterlimit:10;}
	.st409{fill:#603813;stroke:#000000;stroke-width:0.1;stroke-miterlimit:10;}
	.st410{fill:#63300F;stroke:#26120B;stroke-width:0.25;stroke-miterlimit:10;}
	.st411{fill:#4D4D4D;stroke:#4D4D4D;stroke-width:0.25;stroke-miterlimit:10;}
	.st412{fill:#010102;}
	.st413{fill:#734421;}
	.st414{fill:#431D08;}
	.st415{fill:#926036;}
	.st416{fill:#7C411E;stroke:#000000;stroke-width:0.1;stroke-miterlimit:10;}
	.st417{fill:#531B1E;}
	.st418{fill:#916F5D;stroke:#000000;stroke-width:0.1;stroke-miterlimit:10;}
	.st419{fill:#4D4D4D;stroke:#000000;stroke-width:0.1;stroke-miterlimit:10;}
	.st420{fill:#0F3212;}
	.st421{fill:#597816;}
	.st422{fill:none;stroke:#364B11;stroke-width:0.25;stroke-miterlimit:10;}
	.st423{fill:#4E6C16;}
	.st424{fill:#45731A;}
	.st425{fill:#547417;}
	.st426{fill:#486B17;}
	.st427{fill:#30651B;}
	.st428{fill:#3C5814;}
	.st429{fill:#26360D;}
	.st430{fill:#486B17;stroke:#80C41C;stroke-miterlimit:10;}
	.st431{fill:url(#XMLID_21029_);stroke:#000000;stroke-width:0.2;stroke-miterlimit:10;}
	.st432{fill:#808080;stroke:#000000;stroke-width:0.2;stroke-miterlimit:10;}
	.st433{fill:#666666;stroke:#000000;stroke-width:0.2;stroke-miterlimit:10;}
	.st434{fill:#4D4D4D;stroke:#000000;stroke-width:0.2;stroke-miterlimit:10;}
	.st435{fill:#999999;stroke:#000000;stroke-width:0.2;stroke-miterlimit:10;}
	.st436{opacity:0.48;}
	.st437{fill:#17208B;}
	.st438{fill:#333333;stroke:#000000;stroke-width:0.1;stroke-miterlimit:10;}
	.st439{fill:#6B1687;stroke:#000000;stroke-width:0.1;stroke-miterlimit:10;}
	.st440{fill:url(#XMLID_21030_);stroke:#000000;stroke-width:0.25;stroke-miterlimit:10;}
	.st441{fill:#452F27;stroke:#000000;stroke-width:0.25;stroke-miterlimit:10;}
	.st442{opacity:0.42;}
	.st443{opacity:0.42;fill:none;stroke:#FFFFFF;stroke-width:0.25;stroke-miterlimit:10;}
	.st444{fill:#1A5A1E;}
	.st445{fill:url(#SVGID_38_);}
	.st446{fill:#B9854F;}
	.st447{fill:url(#SVGID_39_);}
	.st448{fill:url(#SVGID_40_);}
	.st449{fill:#FEA621;stroke:#000000;stroke-width:0.25;stroke-miterlimit:10;}
	.st450{fill:#666666;stroke:#000000;stroke-width:0.25;stroke-miterlimit:10;}
	.st451{opacity:0.8;fill:#4FA0CA;stroke:#000000;stroke-width:0.25;stroke-miterlimit:10;}
	.st452{fill:#4D1F03;stroke:#4D1F03;stroke-width:0.1;stroke-miterlimit:10;}
	.st453{fill:#666666;}
	.st454{opacity:0.5;fill:#4FA0CA;stroke:#000000;stroke-width:0.25;stroke-miterlimit:10;}
	.st455{opacity:0.39;fill:#4FA0CA;stroke:#000000;stroke-width:0.25;stroke-miterlimit:10;}
	.st456{opacity:0.5;fill:none;stroke:#000000;stroke-width:0.25;stroke-miterlimit:10;}
	.st457{fill:#FFFFFF;stroke:#000000;stroke-width:0.1;stroke-miterlimit:10;}
	.st458{fill:#666666;stroke:#000000;stroke-width:0.1;stroke-miterlimit:10;}
	.st459{fill:#FF0000;}
	.st460{fill:none;stroke:#000000;stroke-width:0.2;stroke-miterlimit:10;}
	.st461{fill:#FFFFFF;stroke:#000000;stroke-width:0.2;stroke-miterlimit:10;}
	.st462{fill:#63300F;stroke:#000000;stroke-width:0.2;stroke-miterlimit:10;}
	.st463{fill:#686461;}
	.st464{fill:#343031;}
	.st465{fill:#4D4D4D;}
	.st466{fill:#412312;}
	.st467{fill:#0971B7;}
	.st468{fill:#009145;}
	.st469{fill:#47AD4C;}
	.st470{fill:#F29222;}
	.st471{fill:#DDDB00;}
	.st472{fill:#E97BAB;}
	.st473{fill:#008D36;stroke:#006633;stroke-width:0.25;stroke-miterlimit:10;}
	.st474{fill:#422918;stroke:#1D1D1B;stroke-width:0.25;stroke-miterlimit:10;}
	.st475{fill:#925F36;stroke:#1D1D1B;stroke-width:0.25;stroke-miterlimit:10;}
	.st476{fill:#FFFFFF;stroke:#1D1D1B;stroke-width:0.25;stroke-miterlimit:10;}
	.st477{fill:#B17F49;}
	.st478{fill:#7F8080;}
	.st479{fill:#4E4D4D;}
	.st480{fill:#6F6F6E;}
	.st481{fill:url(#SVGID_41_);}
	.st482{fill:url(#SVGID_42_);}
	.st483{fill:#C99D66;}
	.st484{fill:#7E4E24;}
	.st485{fill:url(#SVGID_43_);}
	.st486{fill:url(#SVGID_44_);}
	.st487{fill:url(#SVGID_45_);}
	.st488{fill:url(#SVGID_46_);}
	.st489{fill:#634E42;}
	.st490{fill:#B3B3B3;}
	.st491{fill:none;stroke:#422918;stroke-width:0.25;stroke-miterlimit:10;}
	.st492{fill:none;stroke:#1D1D1B;stroke-width:0.1;stroke-miterlimit:10;}
	.st493{fill:#1D1D1B;stroke:#1D1D1B;stroke-width:0.1;stroke-miterlimit:10;}
	.st494{fill:#C1272D;stroke:#FFFFFF;stroke-width:0.25;stroke-miterlimit:10;}
	.st495{fill:#ED1C24;stroke:#FFFFFF;stroke-width:0.25;stroke-miterlimit:10;}
	.st496{fill:#F7931E;stroke:#FFFFFF;stroke-width:0.25;stroke-miterlimit:10;}
	.st497{fill:#D17C10;}
	.st498{fill:#E5332A;}
	.st499{fill:#014C26;}
	.st500{fill:#81171E;}
	.st501{fill:#231F20;}
	.st502{fill:#58595B;}
	.st503{fill:#C1B49A;}
	.st504{fill:url(#SVGID_47_);}
	.st505{fill:url(#SVGID_48_);}
	.st506{fill:url(#SVGID_49_);}
	.st507{fill:url(#SVGID_50_);}
	.st508{fill:#8C6239;}
	.st509{fill:#9C9B9B;stroke:#1D1D1B;stroke-width:0.1;stroke-miterlimit:10;}
	.st510{fill:#39A935;stroke:#1D1D1B;stroke-width:0.1;stroke-miterlimit:10;}
	.st511{fill:#FFEC00;stroke:#1D1D1B;stroke-width:0.1;stroke-miterlimit:10;}
	.st512{fill:none;stroke:#DDDB00;stroke-width:0.1;stroke-miterlimit:10;}
	.st513{fill:none;stroke:#E20613;stroke-width:0.1;stroke-miterlimit:10;}
	.st514{fill:#39A935;stroke:#1D1D1B;stroke-width:0.25;stroke-miterlimit:10;}
	.st515{fill:#FFEC00;stroke:#1D1D1B;stroke-width:0.25;stroke-miterlimit:10;}
	.st516{fill:#006633;stroke:#1D1D1B;stroke-width:0.25;stroke-miterlimit:10;}
	.st517{fill:#B17F49;stroke:#1D1D1B;stroke-width:0.25;stroke-miterlimit:10;}
	.st518{fill:#FCEA0D;stroke:#1D1D1B;stroke-width:0.25;stroke-miterlimit:10;}
	.st519{fill:#93C01F;stroke:#1D1D1B;stroke-width:0.25;stroke-miterlimit:10;}
	.st520{fill:url(#XMLID_21031_);stroke:#1D1D1B;stroke-width:0.5;stroke-miterlimit:10;}
	.st521{fill:#3D3D3D;}
	.st522{fill:#F84F10;}
	.st523{fill:#575756;}
	.st524{fill:#F29100;stroke:#1D1D1B;stroke-width:0.25;stroke-miterlimit:10;}
	.st525{fill:#E84E1B;stroke:#1D1D1B;stroke-width:0.25;stroke-miterlimit:10;}
	.st526{fill:#E34846;stroke:#1D1D1B;stroke-width:0.25;stroke-miterlimit:10;}
	.st527{fill:#575756;stroke:#1D1D1B;stroke-width:0.25;stroke-miterlimit:10;}
	.st528{fill:#6F6F6E;stroke:#1D1D1B;stroke-width:0.25;stroke-miterlimit:10;}
	.st529{fill:#634E42;stroke:#1D1D1B;stroke-width:0.25;stroke-miterlimit:10;}
	.st530{fill:#C99D66;stroke:#1D1D1B;stroke-width:0.25;stroke-miterlimit:10;}
	.st531{fill:#E5332A;stroke:#1D1D1B;stroke-width:0.25;stroke-miterlimit:10;}
	.st532{fill:#A3897A;stroke:#1D1D1B;stroke-width:0.25;stroke-miterlimit:10;}
	.st533{fill:#868686;stroke:#1D1D1B;stroke-width:0.25;stroke-miterlimit:10;}
	.st534{fill:#868686;}
	.st535{fill:#7A6A58;}
	.st536{fill:#37B34A;}
	.st537{fill:#006838;}
	.st538{fill:#009345;}
	.st539{fill:#006838;stroke:#009345;stroke-miterlimit:10;}
	.st540{fill:url(#SVGID_51_);}
	.st541{fill:url(#XMLID_21032_);stroke:#000000;stroke-width:0.25;stroke-miterlimit:10;}
	.st542{fill:#FEA327;}
	.st543{fill:#FE4113;}
	.st544{fill:#FE8012;}
	.st545{fill:#7AC235;}
	.st546{fill:#791385;}
	.st547{fill:#EEF72B;}
	.st548{fill:#4D1F03;stroke:#000000;stroke-width:0.25;stroke-miterlimit:10;}
	.st549{fill:url(#XMLID_21033_);stroke:#000000;stroke-width:0.25;stroke-miterlimit:10;}
	.st550{fill:url(#XMLID_21034_);stroke:#000000;stroke-width:0.25;stroke-miterlimit:10;}
	.st551{fill:url(#XMLID_21035_);stroke:#000000;stroke-width:0.25;stroke-miterlimit:10;}
	.st552{opacity:0.76;fill:#FFFFFF;}
	.st553{fill:#12491D;stroke:#000000;stroke-width:0.09;stroke-miterlimit:10;}
	.st554{fill:#237D26;stroke:#000000;stroke-width:0.09;stroke-miterlimit:10;}
	.st555{fill:#40A629;stroke:#000000;stroke-width:0.09;stroke-miterlimit:10;}
	.st556{fill:#CCE70B;stroke:#000000;stroke-width:0.2;stroke-miterlimit:10;}
	.st557{opacity:0.71;fill:#FFFFFF;}
	.st558{fill:#63300F;stroke:#000000;stroke-width:0.09;stroke-miterlimit:10;}
	.st559{fill:#F0047F;stroke:#000000;stroke-width:0.09;stroke-miterlimit:10;}
	.st560{fill:#7C411E;stroke:#000000;stroke-width:0.09;stroke-miterlimit:10;}
	.st561{fill:#FF8000;stroke:#000000;stroke-width:0.09;stroke-miterlimit:10;}
	.st562{fill:none;stroke:#237D26;stroke-width:0.09;stroke-miterlimit:10;}
	.st563{fill:#FFFF00;stroke:#000000;stroke-width:0.09;stroke-miterlimit:10;}
	.st564{fill:#F0047F;stroke:#FFFFFF;stroke-width:0.09;stroke-miterlimit:10;}
	.st565{fill:#82027E;stroke:#FFFFFF;stroke-width:0.09;stroke-miterlimit:10;}
	.st566{fill:#999999;stroke:#FFFFFF;stroke-width:0.9;stroke-linecap:round;stroke-linejoin:round;stroke-miterlimit:10;}
	.st567{fill:#F7931E;stroke:#FFFFFF;stroke-width:0.5;stroke-miterlimit:10;}
	.st568{fill:none;stroke:#000000;stroke-width:0.15;stroke-miterlimit:10;}
	.st569{fill:none;stroke:#999999;stroke-width:0.15;stroke-miterlimit:10;}
	.st570{display:inline;fill:url(#SVGID_52_);}
	.st571{display:inline;fill:url(#SVGID_53_);}
	.st572{display:inline;fill:url(#SVGID_54_);}
	.st573{display:inline;stroke:#FFFFFF;stroke-width:0.5;stroke-miterlimit:10;}
	.st574{display:inline;fill:none;stroke:#FBB03B;stroke-width:0.25;stroke-miterlimit:10;}
	.st575{display:inline;fill:#ECB03B;stroke:#FBB03B;stroke-width:0.25;stroke-miterlimit:10;}
	.st576{fill-rule:evenodd;clip-rule:evenodd;fill:none;stroke:#FFFFFF;stroke-width:0.5;stroke-miterlimit:2.4142;}
	
		.st577{fill-rule:evenodd;clip-rule:evenodd;fill:#111183;stroke:#FFFFFF;stroke-width:0.5;stroke-linecap:round;stroke-linejoin:round;stroke-miterlimit:10;}
	.st578{fill:#FFFFFF;stroke:#FFFFFF;stroke-width:0.5;stroke-miterlimit:10;}
	.st579{fill:#006837;stroke:#FFFFFF;stroke-miterlimit:10;}
</style>
<g id="Layer_1" class="st0">
	<g id="Layer_2" class="st1">
	</g>
</g>
<g id="FONDO">
</g>
<g id="Capa_48" class="st0">
</g>
<g id="Layer_7" class="st0">
</g>
<g id="Layer_11" class="st0">
</g>
<g id="Layer_17" class="st0">
</g>
<g id="CUENCAS" class="st0">
</g>
<g id="CORREDOR_VERDE" class="st0">
</g>
<g id="CORREDOR_PASTO" class="st0">
</g>
<g id="LIMITE_copia" class="st0">
</g>
<g id="Microregiones_colores" class="st0">
</g>
<g id="LIMITE" class="st0">
</g>
<g id="BOSQUE" class="st0">
</g>
<g id="casco" class="st0">
</g>
<g id="CAFE" class="st0">
</g>
<g id="NODOS_ECOLOGICOS" class="st0">
</g>
<g id="limite_afuera" class="st0">
</g>
<g id="Layer_5" class="st0">
</g>
<g id="MICROREGIONES" class="st0">
</g>
<g id="CALLES" class="st0">
</g>
<g id="RUTAS_TURIMO" class="st0">
</g>
<g id="EJES" class="st0">
</g>
<g id="nombres_ejes" class="st0">
</g>
<g id="Layer_9" class="st0">
</g>
<g id="zonas" class="st0">
</g>
<g id="NODOS_BIOCULTURALES" class="st0">
</g>
<g id="EJES_TURIST" class="st0">
</g>
<g id="sistema_vial" class="st0">
</g>
<g id="limites_municipales" class="st0">
</g>
<g id="rios" class="st0">
</g>
<g id="topografia" class="st0">
</g>
<g id="turismo_plan" class="st0">
</g>
<g id="_x31_2_zonas" class="st0">
</g>
<g id="CUADRICULA" class="st0">
</g>
<g id="MUNICIPIOS_VECINOS" class="st0">
</g>
<g id="nucleos__urbanos" class="st0">
</g>
<g id="LEYENDA" class="st0">
</g>
<g id="calle" class="st0">
</g>
<g id="Puntos" class="st0">
</g>
<g id="Sitios_Arqueológicos" class="st0">
</g>
<g id="Sitios_Naturales" class="st0">
</g>
<g id="CAJA_DE_LEYENDAS">
	<g>
		<path id="XMLID_21403_" class="st2" d="M9.9,218.7c-0.06-0.95-0.03-1.89,0.09-2.79c0.76-5.52,3.93-10.36,6.94-15.05
			c6.47-10.05,12.62-20.3,18.44-30.74c2.04-3.67,4.07-7.39,6.9-10.49c1.85-2.03,4.08-3.81,6.63-4.88c2.3-0.97,5.91-0.83,6.95-3.64
			c1.46-3.95-4.7-6.8-7.43-14.86c-3.79-11.17,2.46-22.12,3.18-23.36c4.44-7.52,11-10.85,14.86-12.74c2.03-0.99,21.58-10.21,36.45,0
			c1.81,1.25,8.97,6.16,10.26,14.15c0.95,5.84-1.54,11.43-4.95,19.11c-3.77,8.49-6.79,11.53-5.31,14.15
			c1.49,2.65,5.45,1.13,11.32,2.83c10.95,3.18,16.97,14.24,19.82,19.46c1.33,2.45,3.13,7.76,6.72,18.4
			c2.45,7.25,3.68,10.88,4.6,14.15c3.75,13.29,3.25,17.54,7.08,19.82c2.82,1.68,4.29,0.09,10.97,0.35
			c9.5,0.37,11.83,3.79,19.46,4.95c6.5,0.99,7.06-1.15,22.65-4.25c13.61-2.71,20.58-4.02,28.66-2.12
			c7.06,1.66,17.52,6.16,18.4,12.74c0.34,2.58-0.99,3.9,0,6.72c1.49,4.24,5.39,3.8,8.14,7.79c3.45,5,2.56,13.32-1.42,17.34
			c-2.04,2.07-3,1.07-5.66,3.18c-5.31,4.21-6.18,11.87-6.72,16.63c-0.84,7.35,0.79,9.07-1.06,11.32
			c-3.61,4.38-14.61,3.76-17.69-1.06c-2.1-3.28,0.84-6.38,0.35-16.63c-0.21-4.44-0.31-6.65-1.06-8.14
			c-4.97-9.86-32.56,3.94-69.71-0.71c-17.86-2.23-33.34-8.16-37.51-1.77c-2.09,3.2,0.51,6.67-1.77,15.57
			c-0.85,3.3-2.27,8.83-6.37,13.09c-8.25,8.56-24.96,9.51-30.43,2.83c-1.71-2.09-2.12-4.67-2.83-9.2
			c-1.17-7.44,0.77-8.97-0.71-13.45c-1.3-3.92-4.72-8.58-10.26-10.26c-3.64-1.11-9.99-1.48-13.09,2.12
			c-4.91,5.7,3.36,15.52-1.77,21.94c-3.01,3.76-8.6,3.85-11.68,3.89c-6.68,0.1-15.49-2.91-16.63-8.14
			c-0.58-2.65,1.33-3.52,4.6-10.62c2.91-6.31,5.86-12.71,3.54-17.69c-1.57-3.38-3.82-2.36-6.02-5.66
			c-3.49-5.25-0.76-12.33,0.19-18.02c0.25-1.48,0.43-3.19-0.57-4.3c-1.1-1.21-3.02-1.07-4.62-0.7
			C14.79,231.64,10.31,225.02,9.9,218.7z"/>
		<path id="XMLID_21402_" class="st295" d="M216.03,242.67c1.87,1.87,5.33,4.82,10.44,6.48c2.14,0.69,15.32,4.65,21.01-3.04
			c3.19-4.3,3.12-11.01,0.13-15.33c-4.07-5.89-12.54-5.85-18.5-5.82c-5.19,0.03-9.11,0.81-14.67,2.11
			c-7.05,1.65-12.73,3.68-16.71,5.28"/>
		<path id="XMLID_21401_" class="st296" d="M108.74,262.5c-2.22,1.06-2.24,4.37-2.83,9.91c-1.54,14.38-4.23,18.22-1.42,20.88
			c1.71,1.61,4.72,2.1,6.72,1.06c2.65-1.38,2.08-4.68,3.54-16.99c0.98-8.3,1.77-11.29-0.35-13.45
			C112.97,262.46,110.47,261.67,108.74,262.5z"/>
		<path id="XMLID_21400_" class="st296" d="M238.11,263.86c-2.22,1.06-2.24,4.37-2.83,9.91c-1.54,14.38-4.23,18.22-1.42,20.88
			c1.71,1.61,4.72,2.1,6.72,1.06c2.65-1.38,2.08-4.68,3.54-16.99c0.98-8.3,1.77-11.29-0.35-13.45
			C242.33,263.82,239.83,263.03,238.11,263.86z"/>
		<path id="XMLID_21399_" class="st297" d="M217.88,237.25c-0.26-4.95,6.77-9.68,12.69-10.84c1.69-0.33,7.43-1.45,10.57,1.85
			c4.09,4.29,2.11,14.24-3.7,17.71C230.11,250.35,218.21,243.49,217.88,237.25z"/>
		<path id="XMLID_21398_" class="st298" d="M214.17,237.95c-6.24-7.34-20.76-5.58-23.26-5.29c-5.36,0.63-7.89,1.97-11.52,0.34
			c-3.42-1.53-3.6-3.8-7.43-5.19c-3.48-1.27-6.69-0.61-9.67,0c-2.55,0.52-6.48,1.33-9.67,4.36c-2.92,2.78-2.16,4.51-4.25,7.08
			c-3.22,3.97-6.58,1.77-22.12,4.78c0,0-12.05,2.13-16.68-0.57c-0.19-0.11-0.35-0.22-0.48-0.32c-2.23-1.62-3.1-3.62-4.61-3.35
			c-2.09,0.37-4.31,4.89-3.17,7.6c2.16,5.15,15.69,1.96,49.43,1.92c4.61-0.01,9.22,0.2,15.58,0.15c12.78-0.1,25.57-0.59,38.34-0.41
			c2.94,0.04,10.26,0.16,11.89-3.44C217.96,242.52,214.41,238.23,214.17,237.95z"/>
		<path id="XMLID_21397_" d="M236.64,229.85c-0.5-0.11-1.7,1.26-1.32,2.64c0.23,0.83,1.02,1.61,1.45,1.45
			C237.58,233.66,237.38,230.02,236.64,229.85z"/>
		<path id="XMLID_21396_" d="M236.64,238.97c-0.43-0.2-1.95,1.23-1.59,2.25c0,0,0.15,0.41,1.17,1.05c0,0,0.01,0.01,0.02,0.01
			C236.5,242.29,237.18,239.22,236.64,238.97z"/>
		<path id="XMLID_21395_" class="st297" d="M235.85,236.2c-1.49-0.36-2.74-0.68-3.7-0.93c-1.7-0.44-2.19-0.58-2.91-0.53
			c-0.74,0.05-2,0.34-3.44,1.72"/>
		<path id="XMLID_21394_" class="st297" d="M208.7,239.97c-6.24-7.01-20.52,4.46-34.33-1.59c-1.84-0.81-5.29-2.63-7.08-1.24
			c-1.28,0.99-1.55,3.49-0.53,4.78c1.42,1.78,5.12,0.97,6.55,0.71c14.91-2.78,34.9,6.44,36.98,1.77
			C211.06,242.67,208.9,240.19,208.7,239.97z"/>
		<path id="XMLID_21393_" class="st297" d="M222.21,233.48c-1.46,1.69-1.82,3.9-0.94,5.54c0.61,1.14,1.64,1.68,2.12,1.89"/>
		<rect id="XMLID_21392_" x="93.65" y="250.78" class="st299" width="162.78" height="12.74"/>
		<path id="XMLID_21391_" class="st256" d="M62.48,155.61c0.8-1.71,1.67-4.26,1.28-7.18c-0.47-3.53-2.58-5.15-4.47-8.78
			c-2.43-4.65-3.38-9.13-3.67-11.65c-0.11-0.98-1.07-10.3,4.47-17.71c9.13-12.22,28.12-8.86,31.27-8.3
			c5.21,0.92,14.83,2.63,18.35,10.05c2.88,6.07,0.3,13.03-1.44,17.71c-2.29,6.19-6.29,6.97-7.66,12.45
			c-1.19,4.73,0.1,9.13,1.28,11.97"/>
		<path id="XMLID_21390_" class="st297" d="M45.49,251.58c-1.83,8.83-2.2,15.82-2.15,20.82c0.03,3.67,0.32,8.81-2.55,10.53
			c-2.08,1.25-4.38-0.15-6.22,1.6c-1.4,1.33-1.91,3.89-0.96,5.42c0.8,1.29,3.04,1.46,7.5,1.76c5.92,0.39,6.73-0.32,7.02-0.64
			c1.26-1.36,0.5-3.48,0.16-6.54c-0.28-2.55,0-3.39,1.28-12.13c0.68-4.64,1.55-10.9,2.66-19.57"/>
		<path id="XMLID_21389_" class="st297" d="M95.51,258.28c-0.26,8.54-1.33,15.2-2.36,19.97c-0.82,3.82-2.1,8.59,0.3,10.83
			c1.77,1.65,4.32,0.76,5.75,2.86c1.1,1.59,1.06,4.2-0.19,5.5c-1.05,1.09-3.28,0.8-7.7,0.15c-5.87-0.85-6.51-1.72-6.73-2.09
			c-0.95-1.6,0.24-3.51,1.21-6.43c0.81-2.44,0.71-3.32,1.28-12.13c0.3-4.68,0.75-10.98,1.48-19.7"/>
		<g id="XMLID_21384_">
			<g>
				<path class="st189" d="M107.11,119.42c0.79,5.21-2.73,10.26-4.8,13.2c-3.63,5.18-6.36,5.62-7.33,10.01
					c-0.13,0.51-0.2,1.02-0.23,1.48c-1.43,1.12-5.62,4.14-11.69,4.42c-7.35,0.33-12.41-3.5-13.66-4.52h-0.1
					c-0.31-2.07-1.07-4.03-1.76-5.85c-2.43-6.36-4.21-6.1-5.11-10.44c-0.2-0.87-1.25-6.31,1.68-11.69c0.31-0.54,1.74-3.11,4.9-5.54
					c6.99-5.36,18.59-6.94,27.88-2.12C99.35,109.65,106.14,113.17,107.11,119.42z"/>
				<path class="st189" d="M98.92,155.06c1.25,0.77,2.55,1.86,2.55,3.14c-0.03,3.6-10.54,7.86-19.63,6.84
					c-8.99-0.97-14.93-6.92-17.28-9.55c1.63-1.33,3.93-3.7,4.67-7.12c0.33-1.51,0.31-2.96,0.08-4.37h0.1
					c1.25,1.02,6.31,4.85,13.66,4.52c6.08-0.28,10.26-3.29,11.69-4.42c-0.38,3.6,0.92,6.48,1.07,6.82
					C96.77,152.94,98.05,154.3,98.92,155.06z"/>
			</g>
			<g>
				<path class="st300" d="M94.76,144.11c-0.38,3.6,0.92,6.48,1.07,6.82c0.94,2.02,2.22,3.37,3.09,4.14
					c1.25,0.77,2.55,1.86,2.55,3.14c-0.03,3.6-10.54,7.86-19.63,6.84c-8.99-0.97-14.93-6.92-17.28-9.55
					c1.63-1.33,3.93-3.7,4.67-7.12c0.33-1.51,0.31-2.96,0.08-4.37c-0.31-2.07-1.07-4.03-1.76-5.85c-2.43-6.36-4.21-6.1-5.11-10.44
					c-0.2-0.87-1.25-6.31,1.68-11.69c0.31-0.54,1.74-3.11,4.9-5.54c6.99-5.36,18.59-6.94,27.88-2.12c2.45,1.28,9.24,4.8,10.21,11.05
					c0.79,5.21-2.73,10.26-4.8,13.2c-3.63,5.18-6.36,5.62-7.33,10.01C94.86,143.14,94.78,143.65,94.76,144.11z"/>
				<path class="st300" d="M69.4,144.01c1.25,1.02,6.31,4.85,13.66,4.52c6.08-0.28,10.26-3.29,11.69-4.42
					c0.03-0.03,0.03-0.05,0.05-0.05"/>
			</g>
		</g>
		<path id="XMLID_21383_" class="st297" d="M56.55,160.7c-4.63-1.99-13.46,8.19-17.13,13.25c-2.81,3.88-2.18,4.19-6.06,9.63
			c-5.2,7.31-6.49,6.97-8.71,11.59c-1.73,3.61-1.54,5.05-4.47,11.61c-1.19,2.66-1.8,4.02-2.84,5.57c-1.44,2.16-2.32,2.78-3.13,4.79
			c-0.63,1.57-1.38,3.44-0.55,5.13c1.05,2.14,3.96,2.63,5.65,2.54c2.05-0.11,4.68-1.18,4.91-2.76c0.16-1.06-0.88-1.44-1.22-2.7
			c-0.66-2.5,2.39-5.03,4.79-7.76c1.83-2.09,0.67-1.33,6.32-10.71c3.42-5.68,5.13-8.52,7.62-11.93c3.88-5.33,5.82-8,9.19-10.98
			c4.65-4.11,7.08-4.52,8.15-7.71C60.26,166.78,59.17,161.83,56.55,160.7z"/>
		<path id="XMLID_21382_" class="st297" d="M116.11,157.92c4.89-1.17,11.84,10.34,14.59,15.93c2.11,4.29,1.43,4.49,4.32,10.49
			c3.87,8.07,5.19,7.95,6.59,12.86c1.09,3.84,0.65,5.22,2.42,12.16c0.72,2.81,1.09,4.26,1.84,5.96c1.05,2.37,1.81,3.13,2.26,5.24
			c0.35,1.65,0.77,3.61-0.33,5.13c-1.39,1.93-4.34,1.91-5.99,1.54c-1.99-0.45-4.4-1.95-4.36-3.55c0.02-1.06,1.11-1.27,1.65-2.44
			c1.07-2.34-1.5-5.35-3.39-8.44c-1.45-2.37-0.43-1.42-4.39-11.59c-2.4-6.16-3.59-9.24-5.46-13.02c-2.91-5.9-4.36-8.85-7.17-12.35
			c-3.87-4.83-6.19-5.64-6.7-8.96C111.44,163.26,113.34,158.58,116.11,157.92z"/>
		<path id="XMLID_21381_" class="st295" d="M77.22,122.95h-2.46c-0.17,0-0.31-0.14-0.31-0.31v-2.57c0-0.17,0.14-0.31,0.31-0.31h2.46
			c0.17,0,0.31,0.14,0.31,0.31v2.57C77.53,122.81,77.39,122.95,77.22,122.95z"/>
		<circle id="XMLID_21380_" class="st295" cx="95.83" cy="121.78" r="1.38"/>
		<path id="XMLID_21367_" class="st300" d="M84.66,127.1c-1.05,0.44-1.46,0.99-1.64,1.42c-0.3,0.72,0.02,1.16-0.41,2.13
			c-0.27,0.61-0.57,0.8-0.48,1.12c0.11,0.44,0.83,0.64,1.46,0.75"/>
		<path id="XMLID_21365_" class="st300" d="M73.86,137.36c0.84,0.86,4.22,4.12,9.57,4.47c3.85,0.25,6.76-1.13,7.98-1.81"/>
		<path id="XMLID_21363_" class="st301" d="M58.38,181.78c-0.75,7.64-6.96,9.7-11.91,17.87c-0.82,1.35-3.11,8.44-7.66,22.55
			c-4.01,12.44-5.95,18.75-2.98,23.19c0.93,1.38,1.92,2.11,3.4,3.19c5.97,4.36,11.82,3.89,21.91,4.89
			c5.14,0.51,10.21,1.58,15.32,2.34c21.22,3.17,23.31,3.64,26.17,2.13c5.4-2.85,6.73-9.19,9.36-21.7
			c2.69-12.79,5.8-27.57,1.91-41.91c-0.39-1.43-0.26-4.52-0.43-10.64c-0.17-6.39-0.09-9.35,1.39-10.01
			c1.38-0.61,2.47,1.46,4.89,1.49c3.64,0.05,7.98-4.53,8.09-8.94c0.17-7.18-10.98-11.13-12.03-11.48c-1.18-0.4-6.01-1.54-12.55-0.64
			c-10.21,1.41-13.33,9.24-18.93,7.45c-2.91-0.93-2.22-3.09-6.38-5.11c-1.22-0.59-4.42-2.06-11.7-1.28
			c-7.35,0.79-17.34,1.87-19.03,7.65c-1.67,5.67,5.31,13.64,7.82,12.92c1.1-0.32,1.27-2.29,1.91-2.23
			C57.91,173.61,58.74,178.12,58.38,181.78z"/>
	</g>
</g>
<g id="NATURALEZA" class="st0">
</g>
<g id="Oficios" class="st0">
</g>
<g id="comunidades" class="st0">
</g>
<g id="zona" class="st0">
</g>
<g id="EQUIPAMIENTO" class="st0">
</g>
<g id="texto_mapa" class="st0">
</g>
<g id="nombre_reserva" class="st0">
</g>
</svg>
