<svg xmlns="http://www.w3.org/2000/svg" viewBox="0 0 194 194" width="256" height="256"><style>tspan { white-space:pre }.shp0 { fill: #522812 } .shp1 { fill: #ffffff } </style><g ></g><g ><path class="shp0" d="M0 0.13L193.26 0.13L193.26 193.39L0 193.39L0 0.13Z" /><path class="shp1" d="M14.71 174.6C15.46 175.32 16.34 175.31 18.56 175.47C23.58 175.82 23 176.15 25.88 176.24C44.68 176.81 63.74 175.51 82.56 175.27C104.64 175 126.86 174.24 148.92 174.8C156.74 175 164.57 175.53 172.39 175.25C173.84 175.2 175.39 175.08 176.54 174.21C177.97 173.13 178.42 171.18 178.55 169.4C179.09 162.23 176.25 155.21 172.52 149.06C171.41 147.23 170.22 145.44 168.99 143.68C165.02 137.96 163.2 134.98 161.93 133.49C159.96 131.16 157.74 129.36 155.2 127.71C152.99 126.27 151.44 124.42 151.41 121.67C151.4 120.37 151.64 119.08 151.8 117.79C152.1 115.24 152.05 112.65 151.63 110.12C151.47 109.16 151.27 108.21 151.3 107.24C151.38 104.91 152.77 104.05 154.91 104.72C157.93 105.66 159.92 108.19 162.45 109.92C165.71 112.14 168.63 111.98 172.45 111.48C177.1 110.87 179.85 110.47 181.55 108.3C181.94 107.81 181.66 108 182.85 105.84C185.1 101.77 185.81 101.6 185.74 100.49C185.67 99.31 184.83 99.31 181.84 95.58C180.25 93.6 179.48 92.5 179.82 91.54C180.12 90.68 181.02 90.71 181.41 89.66C181.81 88.6 181.57 87.14 180.83 86.77C180.11 86.4 179.62 87.44 178.23 87.35C176.94 87.27 176.63 86.34 175.2 86.34C174.31 86.34 174.04 86.7 173.76 86.48C173.12 85.99 173.74 83.59 175.06 81.71C176.64 79.47 178.02 79.68 178.38 78.24C178.85 76.37 177.09 73.81 175.06 72.75C173.53 71.95 172.54 72.36 170.87 71.16C170.1 70.61 169.21 69.97 168.99 68.99C168.5 66.84 171.86 65.68 172.6 62.92C173.33 60.18 171.04 57.5 167.4 53.24C164.3 49.62 161.02 45.88 155.84 44.86C154.44 44.58 153.26 44.58 151.65 44.57C148.12 44.55 145.31 44.54 143.85 46.3C143 47.32 143.44 47.94 142.55 48.61C141.39 49.48 140.16 48.79 137.2 48.9C135.14 48.97 134.12 49.01 133.44 49.48C131.3 50.97 132.88 54.12 130.26 56.85C129.34 57.81 128.6 58.04 128.53 58.87C128.39 60.5 131.07 61.25 130.99 62.77C130.92 63.98 128.92 63.76 127.23 65.95C126.56 66.82 126.79 66.95 125.5 69.27C124.11 71.75 123.94 71.44 123.77 72.16C123.29 74.16 125.01 75.11 126.37 79.38C127.14 81.79 127.19 82.61 126.95 83.42C126.42 85.23 124.95 85.51 123.63 87.03C121.56 89.42 121.02 93.57 122.33 96.28C123.41 98.5 126.23 99.55 131.86 101.63C136.5 103.34 138.82 104.2 140.67 104.52C142.72 104.88 144.2 104.92 145.15 106.11C146.06 107.26 145.75 108.54 145.58 111.46C145.49 112.99 146.28 116.64 145.57 117.99C145.32 118.46 145.02 118.72 144.69 118.84C143.24 119.34 140.93 117.4 139.68 115.33C138.1 112.71 139.09 111.32 137.59 109.78C136.26 108.41 135.21 109.23 132.59 108.11C128.83 106.51 129.31 104.1 125.37 102.1C122.18 100.48 121.04 101.71 119.72 100.05C118.37 98.36 119.04 96.46 117.01 92.73C116.36 91.53 116.34 91.83 115.82 90.8C114.1 87.45 115.1 85.96 113.78 83.05C112.76 80.81 111.17 79.51 110.47 78.95C109.07 77.83 107.51 76.58 105.59 76.69C103.24 76.83 102.95 78.88 99.49 80.11C97.21 80.92 96.97 80.15 95.44 80.83C90.97 82.83 90.18 90.71 90.08 91.71C89.75 95 90.43 96.26 89.46 99.6C88.7 102.22 88.22 101.67 87.69 103.87C87 106.77 87.08 110.9 87.15 114.05C87.16 114.71 87.11 115.49 86.63 116.15C85.67 117.45 83.65 117.01 82.18 116.37C76.02 113.69 75.62 109.8 70.16 108.64C68.14 108.21 65.56 108.31 64.97 106.84C64.64 106.01 65.2 105.33 64.78 104.9C63.94 104.02 60.13 105.2 59.45 107.39C59.08 108.59 59.93 109.16 60.69 112.15C60.97 113.23 61.82 116.59 60.92 117.09C60.06 117.58 57.91 115.31 57.16 114.49C56.36 114.35 55.31 114.32 54.56 114.92C53.07 116.14 54.28 118.72 53.26 121.28C52.72 122.62 51.46 124.21 48.35 125.47C48.96 119.44 48.75 114.63 48.45 111.36C48.37 110.48 48.26 105.08 48.06 98.14C47.99 95.84 48.05 93.22 49.76 91.67C51.79 89.83 55.1 90.54 57.38 92.07C59.66 93.6 61.47 95.8 63.93 97.02C67.02 98.56 70.76 98.31 74 97.11C77.24 95.91 80.08 93.85 82.85 91.79C84.23 90.76 85.65 89.67 86.39 88.11C88.2 84.27 85.05 80.01 82.01 77.04C81.45 76.5 80.85 75.85 80.92 75.07C81 74.16 81.94 73.62 82.55 72.94C84.19 71.11 82.89 67.63 80.45 67.33C79.51 67.21 78.57 67.49 77.63 67.59C74.8 67.88 71.42 65.2 72.68 62.65C73.73 60.52 77.01 60.43 78.21 58.39C79.42 56.31 77.64 53.65 75.51 52.53C73.38 51.41 70.85 51.09 68.89 49.68C66.93 48.28 65.96 44.99 67.91 43.58C68.6 43.08 69.51 42.93 70.18 42.4C71.68 41.22 71.3 38.86 70.62 37.07C68.94 32.67 63.88 21.07 52.45 18.23C50.83 17.83 47.45 17.19 43.45 17.99C40.99 18.49 39 18.89 37.57 20.57C36.4 21.96 36.13 23.61 35.21 23.62C34.42 23.63 34.27 22.41 33 21.78C32.52 21.54 31.73 21.32 29.15 21.97C25.91 22.79 24.13 23.12 23.6 24.24C22.68 26.2 23.96 28.74 22.87 30.62C22.22 31.74 20.85 32.36 20.41 33.57C19.45 36.2 23.43 38.06 23.98 40.8C22.14 42.05 18.93 40.06 17.69 41.9C16.56 43.57 18.7 46.59 16.94 47.58C16.55 47.8 16.09 47.81 15.65 47.9C13.39 48.37 12.2 51.13 12.68 53.39C13.16 55.65 14.81 57.47 16.51 59.04C17.41 59.88 18.44 60.94 18.18 62.15C18.06 62.72 17.66 63.18 17.26 63.61C14.86 66.22 11.98 68.57 10.65 71.85C9.32 75.14 10.4 79.78 13.83 80.7C16.76 81.49 20.86 79.67 22.35 82.3C23.41 84.17 21.93 86.91 23.37 88.51C23.97 89.18 24.93 89.41 25.83 89.49C28.13 89.7 30.43 89.22 32.73 89.08C35.03 88.94 37.52 89.21 39.29 90.67C42.35 93.2 40.4 99.87 40.32 103.39C40.1 113.49 39.98 118.53 40.32 120.53C40.84 123.63 41.61 126.2 40.13 127.85C38.62 129.53 36.61 128.22 33.97 129.58C30.22 131.52 29.17 136.77 28.19 141.71C27.64 144.46 28.04 143.99 27.03 151.34C26.17 157.67 25.73 159.08 24.53 160.39C23.35 161.68 22.89 161.27 18.75 164.24C15.55 166.54 15 167.37 14.7 167.9C13.57 170.02 13.22 173.15 14.71 174.6Z" /></g></svg>