<svg xmlns="http://www.w3.org/2000/svg" viewBox="0 0 229 243" width="256" height="272"><style>tspan { white-space:pre }.shp0 { fill: #26120b } .shp1 { fill: #ffffff } .shp2 { fill: none } .txt3 { font-size: 13px;fill: #000000;font-weight: 400;font-family: "LiberationSans", "Liberation Sans" } </style><g ></g><g ><g ><g ><g ><path class="shp0" d="M37.84 216.02C33.02 214.65 29.16 210.8 27.61 205.71L27.61 37.62C29.16 32.57 33.02 28.66 37.84 27.33L194.01 27.33C198.82 28.66 202.68 32.57 204.23 37.62L204.23 205.72C202.68 210.8 198.82 214.66 194.01 216.03L37.84 216.03L37.84 216.02Z" /><path fill-rule="evenodd" class="shp1" d="M194.02 218.03L37.85 218.03C37.66 218.03 37.48 218 37.3 217.95C31.79 216.39 27.44 212.03 25.69 206.3C25.63 206.11 25.6 205.91 25.6 205.72L25.6 37.62C25.6 37.42 25.63 37.22 25.69 37.03C27.47 31.26 31.8 26.91 37.31 25.39C37.49 25.34 37.67 25.32 37.85 25.32L194.02 25.32C194.2 25.32 194.38 25.34 194.56 25.39C200.05 26.92 204.4 31.27 206.17 37.03C206.23 37.22 206.26 37.42 206.26 37.62L206.26 205.72C206.26 205.92 206.23 206.12 206.17 206.3C204.42 212.03 200.09 216.39 194.57 217.95C194.39 218 194.2 218.03 194.02 218.03ZM38.14 214.01L193.72 214.01C197.7 212.78 200.86 209.6 202.23 205.41L202.23 37.93C200.87 33.77 197.64 30.51 193.73 29.34L38.13 29.34C34.16 30.53 31.01 33.71 29.62 37.93L29.62 205.41C31 209.6 34.15 212.79 38.14 214.01Z" /></g><path class="shp2" d="M23.95 67.52L207.91 67.52L207.91 209.42L23.95 209.42L23.95 67.52Z" /><text style="transform: matrix(1,0,0,1,85.71,146.637)" ><tspan x="0" y="0" class="txt3">V</tspan></text></g><g ><g ><path fill-rule="evenodd" class="shp1" d="M210.96 242.91L17.76 242.91C17.35 242.91 16.93 242.85 16.53 242.74C9.06 240.63 3.18 234.73 0.79 226.96C0.65 226.53 0.58 226.08 0.58 225.63L0.58 17.69C0.58 17.24 0.65 16.79 0.79 16.35C3.2 8.57 9.09 2.68 16.54 0.61C16.94 0.5 17.34 0.44 17.76 0.44L210.95 0.44C211.36 0.44 211.76 0.5 212.17 0.61C219.62 2.68 225.5 8.57 227.92 16.35C228.06 16.79 228.13 17.24 228.13 17.69L228.13 225.62C228.13 226.07 228.06 226.52 227.92 226.95C225.54 234.72 219.65 240.63 212.18 242.73C211.79 242.85 211.37 242.91 210.96 242.91ZM18.44 233.87L210.28 233.87C214.33 232.53 217.56 229.24 219.08 224.91L219.08 18.42C217.55 14.09 214.32 10.81 210.29 9.49L18.43 9.49C14.4 10.81 11.17 14.09 9.64 18.42L9.64 224.9C11.16 229.24 14.39 232.53 18.44 233.87Z" /></g></g></g></g></svg>