<?xml version="1.0" encoding="utf-8"?>
<!-- Generator: Adobe Illustrator 23.0.2, SVG Export Plug-In . SVG Version: 6.00 Build 0)  -->
<svg version="1.1" xmlns="http://www.w3.org/2000/svg" xmlns:xlink="http://www.w3.org/1999/xlink" x="0px" y="0px"
	 viewBox="0 0 275.74 352.34" style="enable-background:new 0 0 275.74 352.34;" xml:space="preserve">
<style type="text/css">
	.st0{display:none;}
	.st1{display:inline;}
	.st2{fill:#FFFFFF;}
	.st3{fill:none;stroke:#1D1D1B;stroke-width:0.25;stroke-miterlimit:10;}
	.st4{fill:#CABA9F;stroke:#1D1D1B;stroke-width:0.25;stroke-miterlimit:10;}
	.st5{fill:#1D1D1B;stroke:#1D1D1B;stroke-width:0.25;stroke-miterlimit:10;}
	.st6{fill:#E20613;stroke:#1D1D1B;stroke-width:0.25;stroke-miterlimit:10;}
	.st7{fill:#35A8E0;stroke:#1D1D1B;stroke-width:0.25;stroke-miterlimit:10;}
	.st8{fill:#C6C6C5;stroke:#1D1D1B;stroke-width:0.25;stroke-miterlimit:10;}
	.st9{fill:#1D1D1B;}
	.st10{fill:#E5007E;}
	.st11{fill:#E84E1B;}
	.st12{display:inline;opacity:0.77;fill:#E1BF80;}
	.st13{display:inline;opacity:0.81;fill:#BBD5DE;}
	.st14{display:inline;opacity:0.85;fill:#E3F3C1;}
	.st15{display:inline;opacity:0.83;fill:#DDBDEE;}
	.st16{display:inline;opacity:0.73;fill:#A2CAA3;}
	.st17{display:inline;opacity:0.44;fill:#39B54A;stroke:#39B54A;stroke-width:8;stroke-miterlimit:10;}
	.st18{display:inline;fill:none;stroke:#0000FF;stroke-width:3;stroke-miterlimit:10;}
	.st19{display:inline;fill:none;}
	.st20{display:inline;fill:#CCCCCC;stroke:#CCCCCC;stroke-width:3;stroke-miterlimit:10;}
	.st21{display:inline;opacity:0.94;fill:#FFFF00;}
	.st22{display:inline;fill:#8CC63F;}
	.st23{fill:#63D0F7;}
	.st24{fill:#D9E021;}
	.st25{fill:#39B54A;}
	.st26{fill:#FFFF00;}
	.st27{fill:#8CC63F;}
	.st28{fill:#F4BE78;}
	.st29{display:inline;opacity:0.53;fill:#8CC63F;}
	.st30{display:inline;fill:#16905C;stroke:#009245;stroke-miterlimit:10;}
	.st31{display:inline;fill:#009245;stroke:#009245;stroke-miterlimit:10;}
	.st32{display:inline;fill:#168F54;stroke:#009245;stroke-miterlimit:10;}
	.st33{display:inline;opacity:0.99;fill:#FFFF00;}
	.st34{display:inline;fill:#A67C52;stroke:#A67C52;stroke-miterlimit:10;}
	.st35{fill:#A67C52;stroke:#A67C52;stroke-miterlimit:10;}
	.st36{fill:none;stroke:#FFFFFF;stroke-miterlimit:10;}
	.st37{fill:none;stroke:#FFFFFF;stroke-width:0.5;stroke-miterlimit:10;}
	.st38{fill:#80AD28;}
	.st39{fill:#67A32E;}
	.st40{display:inline;opacity:0.65;fill:#8CC63F;stroke:#8CC63F;stroke-miterlimit:10;}
	.st41{display:inline;opacity:0.69;}
	.st42{fill:#6FA62D;}
	.st43{fill:none;stroke:#DBDBDB;stroke-width:7;stroke-miterlimit:10;}
	.st44{display:inline;fill:none;stroke:#999999;stroke-width:7;stroke-miterlimit:10;}
	.st45{display:inline;fill:#F2F20A;stroke:#999999;stroke-width:7;stroke-miterlimit:10;}
	.st46{fill:none;stroke:#999999;stroke-width:7;stroke-miterlimit:10;}
	.st47{fill:none;stroke:#1A1A1A;stroke-width:7;stroke-miterlimit:10;}
	.st48{fill:none;stroke:#000000;stroke-width:7;stroke-miterlimit:10;}
	.st49{display:inline;fill:none;stroke:#FBB03B;stroke-width:3;stroke-miterlimit:10;}
	.st50{fill:none;stroke:#0000FF;stroke-width:7;stroke-miterlimit:10;}
	.st51{fill:#603813;}
	.st52{display:inline;fill:none;stroke:#0000FF;stroke-width:5;stroke-miterlimit:10;}
	.st53{fill:none;stroke:#0000FF;stroke-width:5;stroke-miterlimit:10;}
	.st54{display:inline;opacity:0.94;fill:#603813;}
	.st55{display:inline;fill:none;stroke:#F15A24;stroke-width:3;stroke-miterlimit:10;}
	.st56{fill:none;stroke:#FBB03B;stroke-width:3;stroke-miterlimit:10;}
	.st57{display:inline;fill:none;stroke:#D85C4C;stroke-width:6;stroke-miterlimit:10;}
	.st58{display:inline;fill:none;stroke:#40CCC8;stroke-width:6;stroke-miterlimit:10;}
	.st59{display:inline;fill:none;stroke:#1FC11F;stroke-width:6;stroke-miterlimit:10;}
	.st60{display:inline;fill:none;stroke:#1FC11F;stroke-width:4;stroke-miterlimit:10;}
	.st61{display:inline;fill:none;stroke:#9B5F10;stroke-width:6;stroke-miterlimit:10;}
	.st62{display:inline;opacity:0.47;}
	.st63{display:inline;opacity:0.45;}
	.st64{fill:#20FFFF;}
	.st65{fill:#52BE61;}
	.st66{fill:#5A3D2A;}
	.st67{fill:#928772;}
	.st68{fill:#C79924;}
	.st69{display:inline;fill:none;stroke:#000000;stroke-miterlimit:10;}
	.st70{display:inline;opacity:0.45;fill:none;stroke:#67200A;stroke-width:3;stroke-miterlimit:10;}
	.st71{display:inline;opacity:0.64;fill:none;stroke:#67200A;stroke-width:4;stroke-miterlimit:10;}
	.st72{display:inline;opacity:0.64;fill:none;stroke:#67200A;stroke-width:7;stroke-miterlimit:10;}
	.st73{display:inline;opacity:0.64;fill:none;stroke:#67200A;stroke-width:2;stroke-miterlimit:10;}
	.st74{display:inline;opacity:0.4;fill:#F2F2F2;}
	.st75{display:inline;opacity:0.39;fill:#F2F2F2;}
	.st76{display:inline;opacity:0.45;fill:#F2F2F2;stroke:#FFFFFF;stroke-width:3;stroke-miterlimit:10;}
	.st77{display:inline;opacity:0.45;fill:#F2F2F2;}
	.st78{display:inline;opacity:0.31;fill:#F2F2F2;}
	.st79{display:inline;opacity:0.48;fill:#F2F2F2;}
	.st80{display:inline;opacity:0.43;}
	.st81{fill:#F2F2F2;}
	.st82{fill:#217D47;}
	.st83{fill:#20A05D;}
	.st84{fill:#79CFD6;}
	.st85{fill:#C94248;}
	.st86{fill:#F8A13B;}
	.st87{display:inline;fill:none;stroke:#FFFF00;stroke-width:2;stroke-miterlimit:10;}
	.st88{display:inline;fill:none;stroke:#009245;stroke-width:3;stroke-miterlimit:10;}
	.st89{display:inline;fill:none;stroke:#000000;stroke-width:2;stroke-miterlimit:10;}
	.st90{display:inline;fill:none;stroke:#F4E12F;stroke-width:5;stroke-miterlimit:10;}
	.st91{fill:#F4E12F;stroke:#000000;stroke-width:2;stroke-miterlimit:10;}
	.st92{fill:#F4E12F;stroke:#000000;stroke-miterlimit:10;}
	.st93{display:inline;fill:none;stroke:#736357;stroke-width:0.75;stroke-miterlimit:10;}
	.st94{display:inline;fill:none;stroke:#736357;stroke-width:0.5;stroke-miterlimit:10;}
	.st95{fill:none;stroke:#F94B4B;stroke-width:9;stroke-miterlimit:10;}
	.st96{fill:none;stroke:#F94B4B;stroke-width:9;stroke-miterlimit:10;stroke-dasharray:1.017,1.017,1.017,1.017;}
	.st97{fill:none;stroke:#F94B4B;stroke-width:9;stroke-miterlimit:10;stroke-dasharray:5.0679,5.0679,5.0679,5.0679;}
	.st98{fill:none;stroke:#F94B4B;stroke-width:9;stroke-miterlimit:10;stroke-dasharray:5.0679,5.0679,5.0679,5.0679,5.0679,5.0679;}
	.st99{display:inline;fill:none;stroke:#FF0000;stroke-width:6;stroke-miterlimit:10;stroke-dasharray:5,5,5,5,5,5;}
	.st100{display:inline;fill:none;stroke:#F94B4B;stroke-width:9;stroke-miterlimit:10;stroke-dasharray:5,5,5,5,5,5;}
	.st101{display:inline;fill:none;stroke:#0000FF;stroke-miterlimit:10;}
	.st102{fill:#0000FF;}
	.st103{fill:#2121C1;}
	.st104{display:inline;fill:none;stroke:#0000FF;stroke-width:2;stroke-miterlimit:10;}
	.st105{display:inline;opacity:0.54;}
	.st106{display:inline;fill:none;stroke:#000000;stroke-width:0.25;stroke-miterlimit:10;}
	.st107{display:inline;fill:#EDB03B;stroke:#FBB03B;stroke-width:0.25;stroke-miterlimit:10;}
	.st108{display:inline;fill:#F0B03B;stroke:#FBB03B;stroke-width:0.25;stroke-miterlimit:10;}
	.st109{display:inline;fill:#EEB03B;stroke:#FBB03B;stroke-width:0.25;stroke-miterlimit:10;}
	.st110{display:inline;fill:#E8B03B;stroke:#FBB03B;stroke-width:0.25;stroke-miterlimit:10;}
	.st111{display:inline;fill:#E9B03B;stroke:#FBB03B;stroke-width:0.25;stroke-miterlimit:10;}
	.st112{display:inline;fill:#FBB03B;stroke:#FBB03B;stroke-width:0.25;stroke-miterlimit:10;}
	.st113{display:inline;fill:#EBB03B;stroke:#FBB03B;stroke-width:0.25;stroke-miterlimit:10;}
	.st114{display:inline;fill:#EAB03B;stroke:#FBB03B;stroke-width:0.25;stroke-miterlimit:10;}
	.st115{display:inline;fill:#F6B03B;stroke:#FBB03B;stroke-width:0.25;stroke-miterlimit:10;}
	.st116{display:inline;fill:#F2B03B;stroke:#FBB03B;stroke-width:0.25;stroke-miterlimit:10;}
	.st117{display:inline;fill:#F4B03B;stroke:#FBB03B;stroke-width:0.25;stroke-miterlimit:10;}
	.st118{display:inline;fill:none;stroke:#FCEE21;stroke-width:10;stroke-miterlimit:10;}
	.st119{display:inline;fill:none;stroke:#000000;stroke-width:8;stroke-miterlimit:10;}
	.st120{display:inline;fill:none;stroke:#736357;stroke-width:4;stroke-miterlimit:10;}
	.st121{display:inline;fill:none;stroke:#0000FF;stroke-width:8;stroke-miterlimit:10;}
	.st122{display:inline;fill:none;stroke:#0071BC;stroke-width:5;stroke-miterlimit:10;}
	.st123{display:inline;fill:none;stroke:#0071BC;stroke-width:5;stroke-miterlimit:10;stroke-dasharray:8,8;}
	.st124{display:inline;fill:none;stroke:#C1272D;stroke-width:2;stroke-miterlimit:10;}
	.st125{display:inline;fill:none;stroke:#FF0000;stroke-width:3;stroke-miterlimit:10;}
	.st126{display:inline;fill:none;stroke:#F92010;stroke-width:2;stroke-miterlimit:10;}
	.st127{display:inline;fill:none;stroke:#ED2207;stroke-width:5;stroke-miterlimit:10;}
	.st128{display:inline;fill:#EF220C;}
	.st129{fill:#26120B;}
	.st130{fill:#12491D;}
	.st131{fill:none;stroke:#FFFFFF;stroke-width:0.5;stroke-linecap:round;stroke-linejoin:round;stroke-miterlimit:10;}
	.st132{fill:#2E3192;}
	.st133{fill:url(#XMLID_2396_);}
	.st134{opacity:0.26;}
	.st135{fill:none;stroke:#FFFFFF;stroke-width:9;stroke-miterlimit:10;}
	.st136{fill:#FFFFFF;stroke:#FFFFFF;stroke-width:9;stroke-miterlimit:10;}
	.st137{fill:none;stroke:#000000;stroke-width:0.25;stroke-miterlimit:10;}
	.st138{fill:#FF8000;}
	.st139{fill:#80C41C;stroke:#000000;stroke-width:0.1;stroke-miterlimit:10;}
	.st140{fill:none;stroke:#FF8000;stroke-miterlimit:10;}
	.st141{fill:#8C6239;stroke:#42210B;stroke-width:0.25;stroke-miterlimit:10;}
	.st142{fill:#603813;stroke:#42210B;stroke-width:0.25;stroke-miterlimit:10;}
	.st143{fill:#C69C6D;}
	.st144{fill:#42210B;stroke:#42210B;stroke-width:0.25;stroke-miterlimit:10;}
	.st145{fill:#F7931E;}
	.st146{fill:#F15A24;}
	.st147{fill:#D4145A;}
	.st148{fill:#006837;}
	.st149{fill:#662D91;}
	.st150{fill:#ED1C24;}
	.st151{fill:#C1272D;}
	.st152{fill:#1B1464;}
	.st153{fill:#BEAC83;}
	.st154{fill:#C2000B;}
	.st155{fill:#C7B299;}
	.st156{opacity:0.32;}
	.st157{fill:#F5F5F5;}
	.st158{fill:#006837;stroke:#FFFFFF;stroke-width:0.5;stroke-miterlimit:10;}
	.st159{fill:none;stroke:#000000;stroke-width:6;stroke-miterlimit:10;}
	.st160{fill:none;stroke:#FFFFFF;stroke-width:8;stroke-linecap:round;stroke-linejoin:round;stroke-miterlimit:10;}
	.st161{opacity:0.72;}
	.st162{fill:#FFFF00;stroke:#000000;stroke-miterlimit:10;}
	.st163{fill:none;stroke:#4D4D4D;stroke-width:4;stroke-miterlimit:10;}
	.st164{fill:none;stroke:#110B79;stroke-width:5;stroke-miterlimit:10;}
	.st165{fill:none;stroke:#110B79;stroke-width:3;stroke-miterlimit:10;}
	.st166{fill:none;stroke:#2E58A6;stroke-width:2;stroke-miterlimit:10;}
	.st167{fill:#FEA812;stroke:#63300F;stroke-width:0.7087;stroke-linecap:round;stroke-linejoin:round;stroke-miterlimit:10;}
	.st168{fill:#FCEE21;}
	.st169{fill:none;stroke:#000000;stroke-width:0.05;stroke-miterlimit:10;}
	.st170{fill:#F62700;}
	.st171{fill:none;stroke:#000000;stroke-width:0.5;stroke-miterlimit:10;}
	.st172{fill:#4D1F03;stroke:#000000;stroke-width:0.5;stroke-miterlimit:10;}
	.st173{fill:none;stroke:#FFFFFF;stroke-width:0.25;stroke-miterlimit:10;}
	.st174{fill:url(#XMLID_2397_);stroke:#000000;stroke-width:0.5;stroke-miterlimit:10;}
	.st175{fill:#8E2E0B;}
	.st176{fill:#2E58A6;}
	.st177{fill:#93583A;}
	.st178{fill:#C6B491;}
	.st179{fill:#534741;}
	.st180{fill:#FD1A16;}
	.st181{fill:#F2F91C;}
	.st182{fill:#6B1687;}
	.st183{fill:none;stroke:#000000;stroke-width:0.1;stroke-linecap:round;stroke-linejoin:round;}
	.st184{fill:#42210B;}
	.st185{fill:#237D26;}
	.st186{fill:#80C41C;}
	.st187{fill:#40A629;}
	.st188{fill:#009245;}
	.st189{fill:#BE894A;}
	.st190{fill:#4FA0CA;}
	.st191{fill:#F0047F;}
	.st192{fill:#F487BC;}
	.st193{fill:#FEA621;}
	.st194{fill:#63300F;}
	.st195{fill:#0B0146;}
	.st196{fill:none;stroke:#000000;stroke-width:0.25;stroke-linecap:round;stroke-linejoin:round;}
	.st197{fill:#4D1F03;stroke:#000000;stroke-width:0.25;stroke-linecap:round;stroke-linejoin:round;}
	.st198{fill:#333333;}
	.st199{fill:#1A1A1A;stroke:#000000;stroke-width:0.25;stroke-linecap:round;stroke-linejoin:round;}
	.st200{fill:#333333;stroke:#000000;stroke-width:0.25;stroke-linecap:round;stroke-linejoin:round;}
	.st201{fill:#C1272D;stroke:#000000;stroke-width:0.1;stroke-linecap:round;stroke-linejoin:round;}
	.st202{fill:#DD7808;}
	.st203{fill:none;stroke:#63300F;stroke-width:0.25;stroke-miterlimit:10;}
	.st204{fill:#40A629;stroke:#12491D;stroke-width:0.25;stroke-miterlimit:10;}
	.st205{fill:#12491D;stroke:#000000;stroke-width:0.25;stroke-miterlimit:10;}
	.st206{fill:#237D26;stroke:#000000;stroke-width:0.25;stroke-miterlimit:10;}
	.st207{fill:#40A629;stroke:#000000;stroke-width:0.25;stroke-miterlimit:10;}
	.st208{fill:#CCE70B;stroke:#000000;stroke-width:0.25;stroke-miterlimit:10;}
	.st209{fill-rule:evenodd;clip-rule:evenodd;fill:none;stroke:#FFFFFF;stroke-miterlimit:2.4142;}
	
		.st210{fill-rule:evenodd;clip-rule:evenodd;fill:#111183;stroke:#FFFFFF;stroke-width:0.6;stroke-linecap:round;stroke-linejoin:round;stroke-miterlimit:10;}
	.st211{fill:#111183;}
	.st212{fill:#FFFFFF;stroke:#FFFFFF;stroke-miterlimit:10;}
	.st213{fill:#452F27;}
	.st214{fill:#F36F40;}
	.st215{fill:#207B50;}
	.st216{fill:#FFFFFF;stroke:#000000;stroke-width:2;stroke-miterlimit:10;}
	.st217{fill:none;}
	.st218{clip-path:url(#SVGID_10_);fill:#2E3192;}
	.st219{clip-path:url(#SVGID_10_);fill:#39B54A;}
	.st220{fill:none;stroke:#C1272D;stroke-width:3;stroke-miterlimit:10;}
	.st221{fill:url(#SVGID_11_);}
	.st222{clip-path:url(#SVGID_13_);}
	.st223{fill:none;stroke:#FFFF00;stroke-miterlimit:10;}
	.st224{fill:#FFFFFF;stroke:#FFFFFF;stroke-width:0.75;stroke-miterlimit:10;}
	.st225{fill:none;stroke:#FFFFFF;stroke-width:0.75;stroke-miterlimit:10;}
	.st226{fill:#4D1F03;}
	.st227{fill:url(#SVGID_20_);}
	.st228{fill:#D1D117;}
	.st229{fill:#7E4E24;stroke:#1D1D1B;stroke-width:0.25;stroke-miterlimit:10;}
	.st230{fill:#FFEC00;}
	.st231{fill:#7C411E;}
	.st232{fill:none;stroke:#000000;stroke-miterlimit:10;}
	.st233{fill:#2C5B20;}
	.st234{fill:none;stroke:#A0642F;stroke-width:0.25;stroke-miterlimit:10;}
	.st235{fill:#999999;}
	.st236{fill:#008D36;}
	.st237{fill:#93C01F;}
	.st238{fill:#683B11;}
	.st239{fill:#FCEA0D;}
	.st240{fill:#ECECEC;}
	.st241{fill:#F29100;}
	.st242{fill:#81358A;}
	.st243{fill:#BD1622;}
	.st244{fill:#006633;}
	.st245{fill:#925F36;}
	.st246{fill:#422918;}
	.st247{fill:#FE330A;}
	.st248{stroke:#000000;stroke-width:0.25;stroke-linecap:round;stroke-linejoin:round;}
	.st249{fill:none;stroke:#000000;stroke-width:0.27;stroke-linecap:round;stroke-linejoin:round;}
	.st250{fill:#63300F;stroke:#000000;stroke-width:0.25;stroke-linecap:round;stroke-linejoin:round;}
	.st251{fill:#4A007D;}
	.st252{stroke:#000000;stroke-width:0.25;stroke-miterlimit:10;}
	.st253{fill:#63300F;stroke:#000000;stroke-width:0.25;stroke-miterlimit:10;}
	.st254{fill:#BE894A;stroke:#000000;stroke-width:0.25;stroke-miterlimit:10;}
	.st255{fill:#FFFF00;stroke:#000000;stroke-width:0.25;stroke-miterlimit:10;}
	.st256{fill:#26120B;stroke:#000000;stroke-width:0.25;stroke-miterlimit:10;}
	.st257{fill:#F0047F;stroke:#000000;stroke-width:0.25;stroke-miterlimit:10;}
	.st258{fill:#A0642F;stroke:#000000;stroke-width:0.1;stroke-miterlimit:10;}
	.st259{stroke:#000000;stroke-width:0.1;stroke-miterlimit:10;}
	.st260{fill:#BEAC83;stroke:#000000;stroke-width:0.1;stroke-miterlimit:10;}
	.st261{fill:#63300F;stroke:#000000;stroke-width:0.1;stroke-miterlimit:10;}
	.st262{fill:none;stroke:#000000;stroke-width:0.1;stroke-miterlimit:10;}
	.st263{fill:#237D26;stroke:#000000;stroke-width:0.1;stroke-miterlimit:10;}
	.st264{fill:#F8B133;}
	.st265{fill:#CABA9F;}
	.st266{fill:#E20613;}
	.st267{fill:none;stroke:#1D1D1B;stroke-width:0.5;stroke-miterlimit:10;}
	.st268{fill:#BEAC83;stroke:#000000;stroke-width:0.25;stroke-miterlimit:10;}
	.st269{fill:#808080;}
	.st270{fill:#7C411E;stroke:#000000;stroke-width:0.25;stroke-miterlimit:10;}
	.st271{fill:#FF8000;stroke:#000000;stroke-width:0.25;stroke-miterlimit:10;}
	.st272{fill:none;stroke:#237D26;stroke-width:0.25;stroke-miterlimit:10;}
	.st273{fill:#00FFFF;}
	.st274{fill:#F0047F;stroke:#FFFFFF;stroke-width:0.25;stroke-miterlimit:10;}
	.st275{fill:#82027E;stroke:#FFFFFF;stroke-width:0.25;stroke-miterlimit:10;}
	.st276{fill:#808080;stroke:#000000;stroke-width:0.25;stroke-miterlimit:10;}
	.st277{fill:#ED1E79;}
	.st278{fill:#93278F;}
	.st279{fill:#42210B;stroke:#000000;stroke-width:0.25;stroke-miterlimit:10;}
	.st280{fill:#603813;stroke:#42210B;stroke-miterlimit:10;}
	.st281{opacity:0.48;fill:#F2F2F2;}
	.st282{fill:#FBB03B;}
	.st283{fill:#F4136B;}
	.st284{fill:#80C41C;stroke:#000000;stroke-width:0.5;stroke-miterlimit:10;}
	.st285{fill:#4D1F03;stroke:#000000;stroke-miterlimit:10;}
	.st286{fill:url(#XMLID_2453_);stroke:#000000;stroke-width:0.5;stroke-miterlimit:10;}
	.st287{fill:none;stroke:#A0642F;stroke-miterlimit:10;}
	.st288{fill:none;stroke:#FFFFFF;stroke-width:2;stroke-miterlimit:10;}
	.st289{fill:#BE894A;stroke:#26120B;stroke-width:0.25;stroke-miterlimit:10;}
	.st290{fill:none;stroke:#26120B;stroke-width:0.5;stroke-miterlimit:10;}
	.st291{fill:#4D1F03;stroke:#000000;stroke-width:0.5;stroke-linecap:round;stroke-linejoin:round;}
	.st292{fill:none;stroke:#000000;stroke-width:0.5;stroke-linecap:round;stroke-linejoin:round;}
	.st293{stroke:#000000;stroke-width:0.5;stroke-linecap:round;stroke-linejoin:round;}
	.st294{fill:#63300F;stroke:#000000;stroke-width:0.5;stroke-linecap:round;stroke-linejoin:round;}
	.st295{stroke:#000000;stroke-width:0.75;stroke-miterlimit:10;}
	.st296{fill:#63300F;stroke:#000000;stroke-width:0.75;stroke-miterlimit:10;}
	.st297{fill:#BE894A;stroke:#000000;stroke-width:0.75;stroke-miterlimit:10;}
	.st298{fill:#FFFF00;stroke:#000000;stroke-width:0.75;stroke-miterlimit:10;}
	.st299{fill:#26120B;stroke:#000000;stroke-width:0.75;stroke-miterlimit:10;}
	.st300{fill:none;stroke:#000000;stroke-width:0.75;stroke-miterlimit:10;}
	.st301{fill:#F0047F;stroke:#000000;stroke-width:0.75;stroke-miterlimit:10;}
	.st302{fill:#A0642F;stroke:#000000;stroke-width:0.75;stroke-miterlimit:10;}
	.st303{fill:#BEAC83;stroke:#000000;stroke-width:0.75;stroke-miterlimit:10;}
	.st304{fill:#237D26;stroke:#000000;stroke-width:0.75;stroke-miterlimit:10;}
	.st305{fill:none;stroke:#000000;stroke-linecap:round;stroke-linejoin:round;}
	.st306{fill:#4D1F03;stroke:#000000;stroke-linecap:round;stroke-linejoin:round;}
	.st307{fill:#1A1A1A;stroke:#000000;stroke-linecap:round;stroke-linejoin:round;}
	.st308{fill:#333333;stroke:#000000;stroke-linecap:round;stroke-linejoin:round;}
	.st309{fill:#C1272D;stroke:#000000;stroke-linecap:round;stroke-linejoin:round;}
	.st310{fill:#7E4E24;stroke:#1D1D1B;stroke-width:0.75;stroke-miterlimit:10;}
	.st311{fill:none;stroke:#1D1D1B;stroke-width:0.75;stroke-miterlimit:10;}
	.st312{fill:none;stroke:#1D1D1B;stroke-width:4;stroke-miterlimit:10;}
	.st313{fill:#CABA9F;stroke:#1D1D1B;stroke-miterlimit:10;}
	.st314{fill:#1D1D1B;stroke:#1D1D1B;stroke-miterlimit:10;}
	.st315{fill:#E20613;stroke:#1D1D1B;stroke-miterlimit:10;}
	.st316{fill:#35A8E0;stroke:#1D1D1B;stroke-miterlimit:10;}
	.st317{fill:#C6C6C5;stroke:#1D1D1B;stroke-miterlimit:10;}
	.st318{fill:none;stroke:#1D1D1B;stroke-miterlimit:10;}
	.st319{fill:none;stroke:#000000;stroke-width:2;stroke-miterlimit:10;}
	.st320{fill:#808080;stroke:#000000;stroke-width:2;stroke-miterlimit:10;}
	.st321{fill:#42210B;stroke:#000000;stroke-miterlimit:10;}
	.st322{fill:#BE894A;stroke:#26120B;stroke-miterlimit:10;}
	.st323{fill:none;stroke:#26120B;stroke-width:3;stroke-miterlimit:10;}
	.st324{fill:url(#SVGID_23_);}
	.st325{filter:url(#Adobe_OpacityMaskFilter);}
	.st326{mask:url(#SVGID_24_);}
	.st327{fill:#390D81;}
	.st328{fill:#1D0134;}
	.st329{fill:#006837;stroke:#000000;stroke-width:0.25;stroke-miterlimit:10;}
	.st330{fill:#754C24;}
	.st331{fill:none;stroke:#000000;stroke-width:0.08;stroke-miterlimit:10;}
	.st332{fill:#80C41C;stroke:#000000;stroke-width:0.05;stroke-miterlimit:10;}
	.st333{fill:#916F5D;}
	.st334{fill:#40A629;stroke:#000000;stroke-width:0.05;stroke-miterlimit:10;}
	.st335{fill:#E0013F;stroke:#000000;stroke-width:0.05;stroke-miterlimit:10;}
	.st336{fill:#93014A;stroke:#000000;stroke-width:0.05;stroke-miterlimit:10;}
	.st337{fill:#237D26;stroke:#000000;stroke-width:0.05;stroke-miterlimit:10;}
	.st338{fill:#298333;}
	.st339{fill:#154D22;}
	.st340{fill:#250F09;}
	.st341{fill:#615153;}
	.st342{fill:url(#SVGID_25_);}
	.st343{fill:url(#XMLID_2458_);stroke:#000000;stroke-width:0.25;stroke-miterlimit:10;}
	.st344{fill:none;stroke:#26120B;stroke-width:0.25;stroke-miterlimit:10;}
	.st345{fill:url(#SVGID_26_);}
	.st346{fill:url(#XMLID_2463_);stroke:#000000;stroke-width:0.25;stroke-miterlimit:10;}
	.st347{fill:url(#SVGID_27_);}
	.st348{fill:url(#XMLID_2519_);stroke:#000000;stroke-width:0.25;stroke-miterlimit:10;}
	.st349{fill:url(#SVGID_28_);}
	.st350{fill:url(#XMLID_21018_);stroke:#000000;stroke-width:0.25;stroke-miterlimit:10;}
	.st351{fill:url(#SVGID_29_);}
	.st352{fill:url(#XMLID_21019_);stroke:#000000;stroke-width:0.25;stroke-miterlimit:10;}
	.st353{fill:url(#SVGID_30_);}
	.st354{fill:url(#XMLID_21020_);stroke:#000000;stroke-width:0.25;stroke-miterlimit:10;}
	.st355{fill:url(#SVGID_31_);}
	.st356{fill:url(#XMLID_21021_);stroke:#000000;stroke-width:0.25;stroke-miterlimit:10;}
	.st357{fill:#5F9931;}
	.st358{fill:#13007C;}
	.st359{fill:url(#SVGID_32_);}
	.st360{fill:url(#SVGID_33_);}
	.st361{fill:#1A1A1A;}
	.st362{fill:url(#SVGID_34_);}
	.st363{fill:#C4C4C4;}
	.st364{fill:#BE894A;stroke:#C4C4C4;stroke-width:0.1;stroke-miterlimit:10;}
	.st365{fill:none;stroke:#C4C4C4;stroke-width:0.1;stroke-miterlimit:10;}
	.st366{fill:#A0642F;}
	.st367{fill:#40A629;stroke:#000000;stroke-width:0.1;stroke-miterlimit:10;}
	.st368{fill:#604B3B;}
	.st369{fill:#FFFFFF;stroke:#000000;stroke-width:0.25;stroke-miterlimit:10;}
	.st370{fill:#BEAC83;stroke:#000000;stroke-width:0.01;stroke-miterlimit:10;}
	.st371{fill:#1B3F26;}
	.st372{fill:#12491D;stroke:#000000;stroke-width:0.1;stroke-miterlimit:10;}
	.st373{fill:#008837;stroke:#000000;stroke-width:0.1;stroke-miterlimit:10;}
	.st374{fill:#41AA54;}
	.st375{fill:#F2F91C;stroke:#000000;stroke-width:0.1;stroke-miterlimit:10;}
	.st376{fill:#BEAC83;stroke:#000000;stroke-width:0.09;stroke-miterlimit:10;}
	.st377{fill:#CCE70B;}
	.st378{fill:none;stroke:#000000;stroke-width:0.09;stroke-miterlimit:10;}
	.st379{fill:url(#SVGID_35_);}
	.st380{fill:#110B79;}
	.st381{fill:url(#SVGID_36_);}
	.st382{fill:url(#SVGID_37_);}
	.st383{fill:#110B79;stroke:#000000;stroke-width:0.25;stroke-miterlimit:10;}
	.st384{fill:#ED1C24;stroke:#000000;stroke-width:0.25;stroke-miterlimit:10;}
	.st385{fill:url(#XMLID_21022_);stroke:#000000;stroke-width:0.25;stroke-linecap:round;stroke-linejoin:round;}
	.st386{opacity:0.59;}
	.st387{fill:#4D4D4D;stroke:#26120B;stroke-width:0.25;stroke-linecap:round;stroke-linejoin:round;}
	.st388{fill:#F34C31;}
	.st389{fill:none;stroke:#26120B;stroke-width:0.25;stroke-linecap:round;stroke-linejoin:round;}
	.st390{fill:#BE894A;stroke:#000000;stroke-width:0.1;stroke-miterlimit:10;}
	.st391{fill:#FEA621;stroke:#000000;stroke-width:0.1;stroke-miterlimit:10;}
	.st392{fill:#FF8000;stroke:#000000;stroke-width:0.1;stroke-miterlimit:10;}
	.st393{fill:url(#XMLID_21023_);stroke:#000000;stroke-width:0.1;stroke-miterlimit:10;}
	.st394{fill:url(#XMLID_21024_);stroke:#000000;stroke-width:0.1;stroke-miterlimit:10;}
	.st395{fill:url(#XMLID_21025_);stroke:#000000;stroke-width:0.1;stroke-miterlimit:10;}
	.st396{fill:url(#XMLID_21026_);stroke:#000000;stroke-width:0.1;stroke-miterlimit:10;}
	.st397{fill:url(#XMLID_21027_);stroke:#000000;stroke-width:0.1;stroke-miterlimit:10;}
	.st398{fill:url(#XMLID_21028_);stroke:#000000;stroke-width:0.1;stroke-miterlimit:10;}
	.st399{fill:#12491D;stroke:#000000;stroke-width:0.15;stroke-miterlimit:10;}
	.st400{fill:#E9E923;stroke:#000000;stroke-width:0.15;stroke-miterlimit:10;}
	.st401{fill:#F2F91C;stroke:#000000;stroke-width:0.15;stroke-miterlimit:10;}
	.st402{fill:#FFFF00;stroke:#000000;stroke-width:0.15;stroke-miterlimit:10;}
	.st403{fill:#26120B;stroke:#000000;stroke-width:0.15;stroke-miterlimit:10;}
	.st404{fill:#40A629;stroke:#000000;stroke-width:0.15;stroke-miterlimit:10;}
	.st405{fill:#237D26;stroke:#000000;stroke-width:0.15;stroke-miterlimit:10;}
	.st406{fill:#E0013F;stroke:#000000;stroke-width:0.1;stroke-miterlimit:10;}
	.st407{fill:#93014A;}
	.st408{fill:none;stroke:#FFFFFF;stroke-width:0.1;stroke-miterlimit:10;}
	.st409{fill:#603813;stroke:#000000;stroke-width:0.1;stroke-miterlimit:10;}
	.st410{fill:#63300F;stroke:#26120B;stroke-width:0.25;stroke-miterlimit:10;}
	.st411{fill:#4D4D4D;stroke:#4D4D4D;stroke-width:0.25;stroke-miterlimit:10;}
	.st412{fill:#010102;}
	.st413{fill:#734421;}
	.st414{fill:#431D08;}
	.st415{fill:#926036;}
	.st416{fill:#7C411E;stroke:#000000;stroke-width:0.1;stroke-miterlimit:10;}
	.st417{fill:#531B1E;}
	.st418{fill:#916F5D;stroke:#000000;stroke-width:0.1;stroke-miterlimit:10;}
	.st419{fill:#4D4D4D;stroke:#000000;stroke-width:0.1;stroke-miterlimit:10;}
	.st420{fill:#0F3212;}
	.st421{fill:#597816;}
	.st422{fill:none;stroke:#364B11;stroke-width:0.25;stroke-miterlimit:10;}
	.st423{fill:#4E6C16;}
	.st424{fill:#45731A;}
	.st425{fill:#547417;}
	.st426{fill:#486B17;}
	.st427{fill:#30651B;}
	.st428{fill:#3C5814;}
	.st429{fill:#26360D;}
	.st430{fill:#486B17;stroke:#80C41C;stroke-miterlimit:10;}
	.st431{fill:url(#XMLID_21029_);stroke:#000000;stroke-width:0.2;stroke-miterlimit:10;}
	.st432{fill:#808080;stroke:#000000;stroke-width:0.2;stroke-miterlimit:10;}
	.st433{fill:#666666;stroke:#000000;stroke-width:0.2;stroke-miterlimit:10;}
	.st434{fill:#4D4D4D;stroke:#000000;stroke-width:0.2;stroke-miterlimit:10;}
	.st435{fill:#999999;stroke:#000000;stroke-width:0.2;stroke-miterlimit:10;}
	.st436{opacity:0.48;}
	.st437{fill:#17208B;}
	.st438{fill:#333333;stroke:#000000;stroke-width:0.1;stroke-miterlimit:10;}
	.st439{fill:#6B1687;stroke:#000000;stroke-width:0.1;stroke-miterlimit:10;}
	.st440{fill:url(#XMLID_21030_);stroke:#000000;stroke-width:0.25;stroke-miterlimit:10;}
	.st441{fill:#452F27;stroke:#000000;stroke-width:0.25;stroke-miterlimit:10;}
	.st442{opacity:0.42;}
	.st443{opacity:0.42;fill:none;stroke:#FFFFFF;stroke-width:0.25;stroke-miterlimit:10;}
	.st444{fill:#1A5A1E;}
	.st445{fill:url(#SVGID_38_);}
	.st446{fill:#B9854F;}
	.st447{fill:url(#SVGID_39_);}
	.st448{fill:url(#SVGID_40_);}
	.st449{fill:#FEA621;stroke:#000000;stroke-width:0.25;stroke-miterlimit:10;}
	.st450{fill:#666666;stroke:#000000;stroke-width:0.25;stroke-miterlimit:10;}
	.st451{opacity:0.8;fill:#4FA0CA;stroke:#000000;stroke-width:0.25;stroke-miterlimit:10;}
	.st452{fill:#4D1F03;stroke:#4D1F03;stroke-width:0.1;stroke-miterlimit:10;}
	.st453{fill:#666666;}
	.st454{opacity:0.5;fill:#4FA0CA;stroke:#000000;stroke-width:0.25;stroke-miterlimit:10;}
	.st455{opacity:0.39;fill:#4FA0CA;stroke:#000000;stroke-width:0.25;stroke-miterlimit:10;}
	.st456{opacity:0.5;fill:none;stroke:#000000;stroke-width:0.25;stroke-miterlimit:10;}
	.st457{fill:#FFFFFF;stroke:#000000;stroke-width:0.1;stroke-miterlimit:10;}
	.st458{fill:#666666;stroke:#000000;stroke-width:0.1;stroke-miterlimit:10;}
	.st459{fill:#FF0000;}
	.st460{fill:none;stroke:#000000;stroke-width:0.2;stroke-miterlimit:10;}
	.st461{fill:#FFFFFF;stroke:#000000;stroke-width:0.2;stroke-miterlimit:10;}
	.st462{fill:#63300F;stroke:#000000;stroke-width:0.2;stroke-miterlimit:10;}
	.st463{fill:#686461;}
	.st464{fill:#343031;}
	.st465{fill:#4D4D4D;}
	.st466{fill:#412312;}
	.st467{fill:#0971B7;}
	.st468{fill:#009145;}
	.st469{fill:#47AD4C;}
	.st470{fill:#F29222;}
	.st471{fill:#DDDB00;}
	.st472{fill:#E97BAB;}
	.st473{fill:#008D36;stroke:#006633;stroke-width:0.25;stroke-miterlimit:10;}
	.st474{fill:#422918;stroke:#1D1D1B;stroke-width:0.25;stroke-miterlimit:10;}
	.st475{fill:#925F36;stroke:#1D1D1B;stroke-width:0.25;stroke-miterlimit:10;}
	.st476{fill:#FFFFFF;stroke:#1D1D1B;stroke-width:0.25;stroke-miterlimit:10;}
	.st477{fill:#B17F49;}
	.st478{fill:#7F8080;}
	.st479{fill:#4E4D4D;}
	.st480{fill:#6F6F6E;}
	.st481{fill:url(#SVGID_41_);}
	.st482{fill:url(#SVGID_42_);}
	.st483{fill:#C99D66;}
	.st484{fill:#7E4E24;}
	.st485{fill:url(#SVGID_43_);}
	.st486{fill:url(#SVGID_44_);}
	.st487{fill:url(#SVGID_45_);}
	.st488{fill:url(#SVGID_46_);}
	.st489{fill:#634E42;}
	.st490{fill:#B3B3B3;}
	.st491{fill:none;stroke:#422918;stroke-width:0.25;stroke-miterlimit:10;}
	.st492{fill:none;stroke:#1D1D1B;stroke-width:0.1;stroke-miterlimit:10;}
	.st493{fill:#1D1D1B;stroke:#1D1D1B;stroke-width:0.1;stroke-miterlimit:10;}
	.st494{fill:#C1272D;stroke:#FFFFFF;stroke-width:0.25;stroke-miterlimit:10;}
	.st495{fill:#ED1C24;stroke:#FFFFFF;stroke-width:0.25;stroke-miterlimit:10;}
	.st496{fill:#F7931E;stroke:#FFFFFF;stroke-width:0.25;stroke-miterlimit:10;}
	.st497{fill:#D17C10;}
	.st498{fill:#E5332A;}
	.st499{fill:#014C26;}
	.st500{fill:#81171E;}
	.st501{fill:#231F20;}
	.st502{fill:#58595B;}
	.st503{fill:#C1B49A;}
	.st504{fill:url(#SVGID_47_);}
	.st505{fill:url(#SVGID_48_);}
	.st506{fill:url(#SVGID_49_);}
	.st507{fill:url(#SVGID_50_);}
	.st508{fill:#8C6239;}
	.st509{fill:#9C9B9B;stroke:#1D1D1B;stroke-width:0.1;stroke-miterlimit:10;}
	.st510{fill:#39A935;stroke:#1D1D1B;stroke-width:0.1;stroke-miterlimit:10;}
	.st511{fill:#FFEC00;stroke:#1D1D1B;stroke-width:0.1;stroke-miterlimit:10;}
	.st512{fill:none;stroke:#DDDB00;stroke-width:0.1;stroke-miterlimit:10;}
	.st513{fill:none;stroke:#E20613;stroke-width:0.1;stroke-miterlimit:10;}
	.st514{fill:#39A935;stroke:#1D1D1B;stroke-width:0.25;stroke-miterlimit:10;}
	.st515{fill:#FFEC00;stroke:#1D1D1B;stroke-width:0.25;stroke-miterlimit:10;}
	.st516{fill:#006633;stroke:#1D1D1B;stroke-width:0.25;stroke-miterlimit:10;}
	.st517{fill:#B17F49;stroke:#1D1D1B;stroke-width:0.25;stroke-miterlimit:10;}
	.st518{fill:#FCEA0D;stroke:#1D1D1B;stroke-width:0.25;stroke-miterlimit:10;}
	.st519{fill:#93C01F;stroke:#1D1D1B;stroke-width:0.25;stroke-miterlimit:10;}
	.st520{fill:url(#XMLID_21031_);stroke:#1D1D1B;stroke-width:0.5;stroke-miterlimit:10;}
	.st521{fill:#3D3D3D;}
	.st522{fill:#F84F10;}
	.st523{fill:#575756;}
	.st524{fill:#F29100;stroke:#1D1D1B;stroke-width:0.25;stroke-miterlimit:10;}
	.st525{fill:#E84E1B;stroke:#1D1D1B;stroke-width:0.25;stroke-miterlimit:10;}
	.st526{fill:#E34846;stroke:#1D1D1B;stroke-width:0.25;stroke-miterlimit:10;}
	.st527{fill:#575756;stroke:#1D1D1B;stroke-width:0.25;stroke-miterlimit:10;}
	.st528{fill:#6F6F6E;stroke:#1D1D1B;stroke-width:0.25;stroke-miterlimit:10;}
	.st529{fill:#634E42;stroke:#1D1D1B;stroke-width:0.25;stroke-miterlimit:10;}
	.st530{fill:#C99D66;stroke:#1D1D1B;stroke-width:0.25;stroke-miterlimit:10;}
	.st531{fill:#E5332A;stroke:#1D1D1B;stroke-width:0.25;stroke-miterlimit:10;}
	.st532{fill:#A3897A;stroke:#1D1D1B;stroke-width:0.25;stroke-miterlimit:10;}
	.st533{fill:#868686;stroke:#1D1D1B;stroke-width:0.25;stroke-miterlimit:10;}
	.st534{fill:#868686;}
	.st535{fill:#7A6A58;}
	.st536{fill:#37B34A;}
	.st537{fill:#006838;}
	.st538{fill:#009345;}
	.st539{fill:#006838;stroke:#009345;stroke-miterlimit:10;}
	.st540{fill:url(#SVGID_51_);}
	.st541{fill:url(#XMLID_21032_);stroke:#000000;stroke-width:0.25;stroke-miterlimit:10;}
	.st542{fill:#FEA327;}
	.st543{fill:#FE4113;}
	.st544{fill:#FE8012;}
	.st545{fill:#7AC235;}
	.st546{fill:#791385;}
	.st547{fill:#EEF72B;}
	.st548{fill:#4D1F03;stroke:#000000;stroke-width:0.25;stroke-miterlimit:10;}
	.st549{fill:url(#XMLID_21033_);stroke:#000000;stroke-width:0.25;stroke-miterlimit:10;}
	.st550{fill:url(#XMLID_21034_);stroke:#000000;stroke-width:0.25;stroke-miterlimit:10;}
	.st551{fill:url(#XMLID_21035_);stroke:#000000;stroke-width:0.25;stroke-miterlimit:10;}
	.st552{opacity:0.76;fill:#FFFFFF;}
	.st553{fill:#12491D;stroke:#000000;stroke-width:0.09;stroke-miterlimit:10;}
	.st554{fill:#237D26;stroke:#000000;stroke-width:0.09;stroke-miterlimit:10;}
	.st555{fill:#40A629;stroke:#000000;stroke-width:0.09;stroke-miterlimit:10;}
	.st556{fill:#CCE70B;stroke:#000000;stroke-width:0.2;stroke-miterlimit:10;}
	.st557{opacity:0.71;fill:#FFFFFF;}
	.st558{fill:#63300F;stroke:#000000;stroke-width:0.09;stroke-miterlimit:10;}
	.st559{fill:#F0047F;stroke:#000000;stroke-width:0.09;stroke-miterlimit:10;}
	.st560{fill:#7C411E;stroke:#000000;stroke-width:0.09;stroke-miterlimit:10;}
	.st561{fill:#FF8000;stroke:#000000;stroke-width:0.09;stroke-miterlimit:10;}
	.st562{fill:none;stroke:#237D26;stroke-width:0.09;stroke-miterlimit:10;}
	.st563{fill:#FFFF00;stroke:#000000;stroke-width:0.09;stroke-miterlimit:10;}
	.st564{fill:#F0047F;stroke:#FFFFFF;stroke-width:0.09;stroke-miterlimit:10;}
	.st565{fill:#82027E;stroke:#FFFFFF;stroke-width:0.09;stroke-miterlimit:10;}
	.st566{fill:#999999;stroke:#FFFFFF;stroke-width:0.9;stroke-linecap:round;stroke-linejoin:round;stroke-miterlimit:10;}
	.st567{fill:#F7931E;stroke:#FFFFFF;stroke-width:0.5;stroke-miterlimit:10;}
	.st568{fill:none;stroke:#000000;stroke-width:0.15;stroke-miterlimit:10;}
	.st569{fill:none;stroke:#999999;stroke-width:0.15;stroke-miterlimit:10;}
	.st570{display:inline;fill:url(#SVGID_52_);}
	.st571{display:inline;fill:url(#SVGID_53_);}
	.st572{display:inline;fill:url(#SVGID_54_);}
	.st573{display:inline;stroke:#FFFFFF;stroke-width:0.5;stroke-miterlimit:10;}
	.st574{display:inline;fill:none;stroke:#FBB03B;stroke-width:0.25;stroke-miterlimit:10;}
	.st575{display:inline;fill:#ECB03B;stroke:#FBB03B;stroke-width:0.25;stroke-miterlimit:10;}
	.st576{fill-rule:evenodd;clip-rule:evenodd;fill:none;stroke:#FFFFFF;stroke-width:0.5;stroke-miterlimit:2.4142;}
	
		.st577{fill-rule:evenodd;clip-rule:evenodd;fill:#111183;stroke:#FFFFFF;stroke-width:0.5;stroke-linecap:round;stroke-linejoin:round;stroke-miterlimit:10;}
	.st578{fill:#FFFFFF;stroke:#FFFFFF;stroke-width:0.5;stroke-miterlimit:10;}
	.st579{fill:#006837;stroke:#FFFFFF;stroke-miterlimit:10;}
</style>
<g id="Layer_1" class="st0">
	<g id="Layer_2" class="st1">
	</g>
</g>
<g id="FONDO">
</g>
<g id="Capa_48" class="st0">
</g>
<g id="Layer_7" class="st0">
</g>
<g id="Layer_11" class="st0">
</g>
<g id="Layer_17" class="st0">
</g>
<g id="CUENCAS" class="st0">
</g>
<g id="CORREDOR_VERDE" class="st0">
</g>
<g id="CORREDOR_PASTO" class="st0">
</g>
<g id="LIMITE_copia" class="st0">
</g>
<g id="Microregiones_colores" class="st0">
</g>
<g id="LIMITE" class="st0">
</g>
<g id="BOSQUE" class="st0">
</g>
<g id="casco" class="st0">
</g>
<g id="CAFE" class="st0">
</g>
<g id="NODOS_ECOLOGICOS" class="st0">
</g>
<g id="limite_afuera" class="st0">
</g>
<g id="Layer_5" class="st0">
</g>
<g id="MICROREGIONES" class="st0">
</g>
<g id="CALLES" class="st0">
</g>
<g id="RUTAS_TURIMO" class="st0">
</g>
<g id="EJES" class="st0">
</g>
<g id="nombres_ejes" class="st0">
</g>
<g id="Layer_9" class="st0">
</g>
<g id="zonas" class="st0">
</g>
<g id="NODOS_BIOCULTURALES" class="st0">
</g>
<g id="EJES_TURIST" class="st0">
</g>
<g id="sistema_vial" class="st0">
</g>
<g id="limites_municipales" class="st0">
</g>
<g id="rios" class="st0">
</g>
<g id="topografia" class="st0">
</g>
<g id="turismo_plan" class="st0">
</g>
<g id="_x31_2_zonas" class="st0">
</g>
<g id="CUADRICULA" class="st0">
</g>
<g id="MUNICIPIOS_VECINOS" class="st0">
</g>
<g id="nucleos__urbanos" class="st0">
</g>
<g id="LEYENDA" class="st0">
</g>
<g id="calle" class="st0">
</g>
<g id="Puntos" class="st0">
</g>
<g id="Sitios_Arqueológicos" class="st0">
</g>
<g id="Sitios_Naturales" class="st0">
</g>
<g id="CAJA_DE_LEYENDAS">
	<g id="XMLID_20468_">
		<path class="st2" d="M82.29,179.35c-0.9,0.81-3.82,3.46-7.67,3.32c-3.8-0.14-6.41-2.91-10.1-6.84c-1.66-1.76-2.38-2.94-2.64-4.4
			c-0.09-0.53-0.46-3.01,1.17-5.14c1.33-1.73,3.19-2.2,3.82-2.35c3.3-0.78,5.09,1.19,7.05,1.17c5.18-0.04,6.81-13.92,13.65-27.31
			c7.68-15.01,16.34-18.48,14.24-24.37c-1.94-5.45-9.81-3.75-16.77-12.52c-2.88-3.63-3.91-6.91-5.84-13.02
			c-2.66-8.46-5.13-16.3-3.23-24.67c0.57-2.51,1.71-5.85,14.98-21.14c9.79-11.29,14.69-16.93,17.91-19.09
			c2.34-1.56,20-13.37,36.42-7.66c3.84,1.34,9.99,5.6,22.3,14.12c4.34,3,6.51,4.51,7.34,5.29c9.23,8.68,10.72,20.89,12.04,31.71
			c0.82,6.74,1.91,13.73,0.64,20.48c-0.79,4.19-2.79,7.98-4.94,11.61c-2.1,3.55-3.72,7.46-6.02,10.87c-1.54,2.29-3.61,4.3-6.17,5.34
			c-1.21,0.49-2.66,0.87-3.24,2.04c-0.61,1.23,0.53,2.63,1.62,4.51c1.4,2.41,2.16,5.13,3.28,7.69c2.1,4.78,1.83,5.11,3.84,9.98
			c2.89,7.03,4.33,10.6,6,10.83c4.07,0.57,5.02-8.68,12.88-12.55c6.14-3.02,12.98-1.04,20.37,1.1c7.64,2.21,12.53,3.63,14.98,7.49
			c7.13,11.23-8.16,40.37-26.54,42.94c-5.79,0.81-18.54-0.08-28.02-7.42c-3.2-2.48-6.96-6.28-10.89-5.39
			c-2.68,0.6-4.61,3.1-5.34,5.75c-0.73,2.65-0.5,5.46-0.27,8.2c2.24,26.71,3.39,53.51,3.44,80.31c0.01,4.69-0.53,10.3-4.67,12.52
			c-3.39,1.82-8.06,0.54-10.99,3.02c-2.04,1.72-2.47,4.64-2.77,7.29c-1.12,9.92-2.23,19.84-3.35,29.76
			c-0.14,1.21-0.27,2.48,0.17,3.63c1.11,2.93,4.95,3.37,8.04,3.89c3.09,0.52,6.8,2.9,5.76,5.85c-0.98,2.78-4.91,2.62-7.77,1.92
			c-2.34-0.57-4.69-1.14-7.03-1.71c-1.74-0.42-3.53-0.87-4.96-1.95c-4.51-3.4-2.99-10.34-1.63-15.82
			c2.31-9.28,2.83-19.01,1.51-28.48c-0.19-1.36-0.46-2.8-1.43-3.77c-1.2-1.2-3.09-1.3-4.8-1.32c-5.06-0.06-10.12-0.13-15.19-0.19
			c-0.97-0.01-2-0.01-2.84,0.48c-2,1.17-1.69,4.11-1.17,6.37c2.44,10.57,3.63,21.43,3.52,32.28c-0.02,1.98-0.1,4.03-0.97,5.81
			c-1.66,3.4-5.63,4.87-9.24,6.03c-3.02,0.97-6.37,1.93-9.27,0.65c-9.96-4.39,4.22-9.38,6.24-11.67c1.37-1.56,2.16-3.42,2.79-7.34
			c0.67-4.21,0.79-8.53-0.29-18.06c-1.18-10.4-2.12-12.21-3.38-13.65c-2.84-3.26-5.19-1.86-7.6-4.84c-3.45-4.26-2.4-9.35-1.65-21.44
			c0.25-4.06,0.56-10.34,0.59-18.21c1.19-15.84,1.3-28.04,1.18-36.41c-0.21-13.59-1.03-15.31,0.44-20.99
			c1.52-5.88,4.23-11.13,2.06-17.32c-0.77-2.21-2.39-5.16-3.82-4.99C87.37,161.91,89.33,172.97,82.29,179.35z"/>
		<g id="XMLID_20469_">
			<path id="XMLID_20507_" class="st312" d="M105.46,267.66c-0.35,25.65,0.97,39.99,2.66,48.57c0.33,1.69,2.17,8.43-0.95,11.19
				c-1.04,0.92-2.12,0.96-6.26,2.09c-2.99,0.81-5.4,1.6-6.97,2.13"/>
			<path id="XMLID_20506_" class="st312" d="M139.5,271.36c0.35,25.65-0.97,39.99-2.66,48.57c-0.33,1.69-2.17,8.43,0.95,11.19
				c1.04,0.92,2.12,0.96,6.26,2.09c2.99,0.81,5.4,1.6,6.97,2.13"/>
			<path id="XMLID_20505_" class="st313" d="M156.17,122.38c-1.9,3.69,4.53,7.02,9.98,19.68c2.74,6.37,3.11,10.22,7.02,12.34
				c2.2,1.19,4.18,1.11,6.69,3.41c2.63,2.39,2.76,4.58,4.4,4.72c2.12,0.2,4.96-3.19,4.33-5.31c-0.63-2.12-4.14-1.17-8.27-3.87
				c-3.91-2.55-5.6-6.54-7.35-10.76c-1.73-4.16-1.1-4.81-3.15-11.02c-2.31-7-3.55-10.6-6.56-11.54
				C160.87,119.26,157.32,120.16,156.17,122.38z"/>
			<path id="XMLID_20504_" class="st314" d="M112.35,113.72c-1.6-0.89-4.87-3.48-11.41-8.66c-11.14-8.81-12.51-10.99-13.19-12.2
				c-2.26-4.05-2.56-8.6-3.15-17.71c-0.52-8.08-0.79-12.12,1-15.44c1.15-2.14,1.77-2.03,9.24-10.54c2.43-2.77,3.65-4.16,4.53-5.31
				c4.31-5.66,4.64-8.27,7.28-11.71c3.15-4.11,6.94-5.96,11.11-8c3.94-1.92,14.93-7.3,27.27-3.51c1.53,0.47,8.49,2.74,14.22,8.84
				c3.1,3.3,3.2,4.91,7.71,9.93c4.45,4.96,6.03,5.25,8.78,8.58c4.32,5.23,5.58,10.79,6.49,14.76c3,13.12,1.42,34.81-12.99,45.46
				c-3.31,2.45-6.47,3.47-12.79,5.51C148.83,116.18,128.5,122.75,112.35,113.72z"/>
			<path id="XMLID_20503_" class="st315" d="M102.51,163.11c-7.44,4.91-6.94,16.91-6.89,29.91c0.23,55.49-7.75,81.65,3.74,86.59
				c0.63,0.27,0.33,0.06,10.04,0.59c14.95,0.83,17.68,1.46,24.21,1.57c13,0.22,19.5,0.33,22.83-2.16
				c9.53-7.15-1.16-23.01,0.79-62.78c0.6-12.32-0.71-24.69,0-37c0.46-7.95,1.03-12.65-2.16-15.94c-4.34-4.47-10.6-1.16-28.54-1.18
				C110.46,162.7,107.17,160.04,102.51,163.11z"/>
			<path id="XMLID_20502_" class="st313" d="M106.06,58.35c-0.9-1.53-3.91-6.29-7.35-6.03c-4.64,0.35-6.96,9.56-7.34,14.69
				c-0.18,2.41-0.86,11.37,5.25,16.01c1.98,1.51,4.07,2.1,5.51,2.36"/>
			<path id="XMLID_20501_" class="st313" d="M161.16,58.61c3.84-3.13,8.01-4.21,10.5-2.63c2.05,1.31,2.31,4.03,2.62,8.14
				c0.44,5.76,1.13,14.67-3.94,17.32c-0.75,0.39-3.47,1.62-8.39-0.52"/>
			<path id="XMLID_20500_" class="st316" d="M115.5,109.58c-4.86,1.46-2.84,9.46-8.66,23.22c-5.85,13.84-13.51,18.99-11.02,27.16
				c0.93,3.06,2.8,4.96,3.54,5.71c6.06,6.05,15.45,4.46,29.91,3.15c28.59-2.59,31.3,0.07,34.44-3.94c4.37-5.58-1.46-9.96-5.31-40.54
				c-0.88-6.96-1.2-11.68-4.53-13.38c-5.71-2.92-12.14,7.18-22.83,5.71C122.51,115.49,120.19,108.18,115.5,109.58z"/>
			<path id="XMLID_20499_" class="st313" d="M109.25,119.86c-1.19-0.88-9.43,6.75-15.56,16.13c-4.23,6.47-7.4,13.7-8.54,16.32
				c-4.29,9.86-5.3,15.48-9.54,16.52c-3.58,0.88-6.81-2.15-8.4-0.52c-1.18,1.21-0.38,3.95,0.53,5.51c2.24,3.84,8.11,5.56,11.54,3.67
				c2.3-1.26,2.41-3.53,4.46-9.71c0,0,2.55-7.68,6.3-14.96c2.83-5.5,4.48-6.51,7.05-9.93c1.17-1.56,1.91-2.77,2.66-3.98
				C100.57,137.6,110.83,121.02,109.25,119.86z"/>
			<path id="XMLID_20498_" class="st317" d="M192.01,143.54c-1.35,0.93-1.44,1.33-6.28,7.54c-12.4,15.89-14.73,16.99-14.44,20.41
				c0.63,7.35,12.25,12.4,19.46,13.81c1.9,0.37,12.64,2.27,21.98-4.08c4.91-3.34,7.56-8.29,12.87-18.21
				c2.47-4.61,3.7-6.96,3.45-8.79C227.7,144.32,203.76,135.45,192.01,143.54z"/>
			<path id="XMLID_20497_" class="st313" d="M113.93,41.69c-3.04,3.23-21.33,23.58-12.6,46.05c0.59,1.53,8.09,19.85,27.16,23.22
				c10.5,1.85,23.21-1.06,31.09-10.23c7.43-8.65,7.24-18.97,7.08-27.55c-0.07-4.02-0.77-18.73-11.02-32.28
				c-4.34-5.74-8.11-10.73-14.56-12.2C128.79,25.88,117.22,38.19,113.93,41.69z"/>
			<path id="XMLID_20496_" class="st9" d="M114.2,58.65c0.02,0.63,3.75,0.95,6.92,0.28c3.37-0.72,7.01-2.76,6.93-3.4
				C127.89,54.33,114.15,57.43,114.2,58.65z"/>
			<path id="XMLID_20495_" class="st9" d="M142.11,55.99c-0.22,0.65,2.65,2.08,5.44,2.38c2.97,0.3,6.65-0.63,6.83-1.29
				C154.7,55.83,142.54,54.76,142.11,55.99z"/>
			<path id="XMLID_20494_" class="st318" d="M113.55,52.2c0.16-0.4,1.12-2.68,3.56-3.55c2.34-0.84,5.09-0.07,6.91,1.97"/>
			<path id="XMLID_20493_" class="st318" d="M142.26,52.2c0.16-0.4,1.12-2.68,3.56-3.55c2.34-0.84,5.09-0.07,6.91,1.97"/>
			<path id="XMLID_20492_" class="st318" d="M133.51,59.41c1.07,4.08,0.38,6.41-0.49,7.8c-0.95,1.51-2.6,2.68-2.37,4.35
				c0.11,0.85,0.66,1.49,1.09,1.88"/>
			<path id="XMLID_20491_" class="st318" d="M122.64,81.49c0.63,0.73,4.14,4.61,9.93,4.89c7.26,0.35,11.64-5.29,12-5.78"/>
			<ellipse id="XMLID_20490_" class="st10" cx="196.9" cy="147.35" rx="2.74" ry="1.56"/>
			<ellipse id="XMLID_20489_" class="st10" cx="194.15" cy="151.21" rx="2.74" ry="1.56"/>
			<ellipse id="XMLID_20488_" class="st10" cx="195.81" cy="163.49" rx="2.74" ry="1.56"/>
			<ellipse id="XMLID_20487_" class="st10" cx="203.46" cy="177.73" rx="2.74" ry="1.56"/>
			<ellipse id="XMLID_20486_" class="st10" cx="207.67" cy="172.34" rx="2.74" ry="1.56"/>
			<ellipse id="XMLID_20485_" class="st10" cx="212.2" cy="166.98" rx="2.74" ry="1.56"/>
			<ellipse id="XMLID_20484_" class="st10" cx="214.94" cy="161.93" rx="2.74" ry="1.56"/>
			<ellipse id="XMLID_20483_" class="st10" cx="188.67" cy="174.49" rx="2.74" ry="1.56"/>
			<ellipse id="XMLID_20482_" class="st2" cx="206.2" cy="145.43" rx="3.63" ry="2.93"/>
			<ellipse id="XMLID_20481_" class="st2" cx="203.46" cy="151.21" rx="3.93" ry="2.85"/>
			<ellipse id="XMLID_20480_" class="st11" cx="200.72" cy="170.11" rx="4.53" ry="2.22"/>
			<ellipse id="XMLID_20479_" class="st11" cx="207.99" cy="159.43" rx="4.53" ry="2.22"/>
			<ellipse id="XMLID_20478_" class="st11" cx="212.2" cy="153.43" rx="4.53" ry="2.22"/>
			<ellipse id="XMLID_20477_" class="st11" cx="204.7" cy="164.76" rx="4.53" ry="2.22"/>
			<ellipse id="XMLID_20476_" class="st10" cx="179.02" cy="170.66" rx="3.85" ry="2.77"/>
			<ellipse id="XMLID_20475_" class="st11" cx="190.3" cy="157.21" rx="4.37" ry="3.26"/>
			<ellipse id="XMLID_20474_" class="st11" cx="184.58" cy="164.02" rx="4.37" ry="3.26"/>
			<ellipse id="XMLID_20473_" class="st2" cx="191.96" cy="168.47" rx="3.29" ry="2.67"/>
			<ellipse id="XMLID_20472_" class="st2" cx="220.41" cy="156.72" rx="3.29" ry="2.67"/>
			<ellipse id="XMLID_20471_" class="st2" cx="199.64" cy="157.65" rx="3.29" ry="2.67"/>
			<ellipse id="XMLID_20470_" class="st10" cx="193.84" cy="178.62" rx="4.37" ry="2.44"/>
		</g>
	</g>
</g>
<g id="NATURALEZA" class="st0">
</g>
<g id="Oficios" class="st0">
</g>
<g id="comunidades" class="st0">
</g>
<g id="zona" class="st0">
</g>
<g id="EQUIPAMIENTO" class="st0">
</g>
<g id="texto_mapa" class="st0">
</g>
<g id="nombre_reserva" class="st0">
</g>
</svg>
