<?xml version="1.0" encoding="utf-8"?>
<!-- Generator: Adobe Illustrator 23.0.2, SVG Export Plug-In . SVG Version: 6.00 Build 0)  -->
<svg version="1.1" xmlns="http://www.w3.org/2000/svg" xmlns:xlink="http://www.w3.org/1999/xlink" x="0px" y="0px"
	 viewBox="0 0 275.74 352.34" style="enable-background:new 0 0 275.74 352.34;" xml:space="preserve">
<style type="text/css">
	.st0{display:none;}
	.st1{display:inline;}
	.st2{fill:#FFFFFF;}
	.st3{fill:none;stroke:#1D1D1B;stroke-width:0.25;stroke-miterlimit:10;}
	.st4{fill:#CABA9F;stroke:#1D1D1B;stroke-width:0.25;stroke-miterlimit:10;}
	.st5{fill:#1D1D1B;stroke:#1D1D1B;stroke-width:0.25;stroke-miterlimit:10;}
	.st6{fill:#E20613;stroke:#1D1D1B;stroke-width:0.25;stroke-miterlimit:10;}
	.st7{fill:#35A8E0;stroke:#1D1D1B;stroke-width:0.25;stroke-miterlimit:10;}
	.st8{fill:#C6C6C5;stroke:#1D1D1B;stroke-width:0.25;stroke-miterlimit:10;}
	.st9{fill:#1D1D1B;}
	.st10{fill:#E5007E;}
	.st11{fill:#E84E1B;}
	.st12{display:inline;opacity:0.77;fill:#E1BF80;}
	.st13{display:inline;opacity:0.81;fill:#BBD5DE;}
	.st14{display:inline;opacity:0.85;fill:#E3F3C1;}
	.st15{display:inline;opacity:0.83;fill:#DDBDEE;}
	.st16{display:inline;opacity:0.73;fill:#A2CAA3;}
	.st17{display:inline;opacity:0.44;fill:#39B54A;stroke:#39B54A;stroke-width:8;stroke-miterlimit:10;}
	.st18{display:inline;fill:none;stroke:#0000FF;stroke-width:3;stroke-miterlimit:10;}
	.st19{display:inline;fill:none;}
	.st20{display:inline;fill:#CCCCCC;stroke:#CCCCCC;stroke-width:3;stroke-miterlimit:10;}
	.st21{display:inline;opacity:0.94;fill:#FFFF00;}
	.st22{display:inline;fill:#8CC63F;}
	.st23{fill:#63D0F7;}
	.st24{fill:#D9E021;}
	.st25{fill:#39B54A;}
	.st26{fill:#FFFF00;}
	.st27{fill:#8CC63F;}
	.st28{fill:#F4BE78;}
	.st29{display:inline;opacity:0.53;fill:#8CC63F;}
	.st30{display:inline;fill:#16905C;stroke:#009245;stroke-miterlimit:10;}
	.st31{display:inline;fill:#009245;stroke:#009245;stroke-miterlimit:10;}
	.st32{display:inline;fill:#168F54;stroke:#009245;stroke-miterlimit:10;}
	.st33{display:inline;opacity:0.99;fill:#FFFF00;}
	.st34{display:inline;fill:#A67C52;stroke:#A67C52;stroke-miterlimit:10;}
	.st35{fill:#A67C52;stroke:#A67C52;stroke-miterlimit:10;}
	.st36{fill:none;stroke:#FFFFFF;stroke-miterlimit:10;}
	.st37{fill:none;stroke:#FFFFFF;stroke-width:0.5;stroke-miterlimit:10;}
	.st38{fill:#80AD28;}
	.st39{fill:#67A32E;}
	.st40{display:inline;opacity:0.65;fill:#8CC63F;stroke:#8CC63F;stroke-miterlimit:10;}
	.st41{display:inline;opacity:0.69;}
	.st42{fill:#6FA62D;}
	.st43{fill:none;stroke:#DBDBDB;stroke-width:7;stroke-miterlimit:10;}
	.st44{display:inline;fill:none;stroke:#999999;stroke-width:7;stroke-miterlimit:10;}
	.st45{display:inline;fill:#F2F20A;stroke:#999999;stroke-width:7;stroke-miterlimit:10;}
	.st46{fill:none;stroke:#999999;stroke-width:7;stroke-miterlimit:10;}
	.st47{fill:none;stroke:#1A1A1A;stroke-width:7;stroke-miterlimit:10;}
	.st48{fill:none;stroke:#000000;stroke-width:7;stroke-miterlimit:10;}
	.st49{display:inline;fill:none;stroke:#FBB03B;stroke-width:3;stroke-miterlimit:10;}
	.st50{fill:none;stroke:#0000FF;stroke-width:7;stroke-miterlimit:10;}
	.st51{fill:#603813;}
	.st52{display:inline;fill:none;stroke:#0000FF;stroke-width:5;stroke-miterlimit:10;}
	.st53{fill:none;stroke:#0000FF;stroke-width:5;stroke-miterlimit:10;}
	.st54{display:inline;opacity:0.94;fill:#603813;}
	.st55{display:inline;fill:none;stroke:#F15A24;stroke-width:3;stroke-miterlimit:10;}
	.st56{fill:none;stroke:#FBB03B;stroke-width:3;stroke-miterlimit:10;}
	.st57{display:inline;fill:none;stroke:#D85C4C;stroke-width:6;stroke-miterlimit:10;}
	.st58{display:inline;fill:none;stroke:#40CCC8;stroke-width:6;stroke-miterlimit:10;}
	.st59{display:inline;fill:none;stroke:#1FC11F;stroke-width:6;stroke-miterlimit:10;}
	.st60{display:inline;fill:none;stroke:#1FC11F;stroke-width:4;stroke-miterlimit:10;}
	.st61{display:inline;fill:none;stroke:#9B5F10;stroke-width:6;stroke-miterlimit:10;}
	.st62{display:inline;opacity:0.47;}
	.st63{display:inline;opacity:0.45;}
	.st64{fill:#20FFFF;}
	.st65{fill:#52BE61;}
	.st66{fill:#5A3D2A;}
	.st67{fill:#928772;}
	.st68{fill:#C79924;}
	.st69{display:inline;fill:none;stroke:#000000;stroke-miterlimit:10;}
	.st70{display:inline;opacity:0.45;fill:none;stroke:#67200A;stroke-width:3;stroke-miterlimit:10;}
	.st71{display:inline;opacity:0.64;fill:none;stroke:#67200A;stroke-width:4;stroke-miterlimit:10;}
	.st72{display:inline;opacity:0.64;fill:none;stroke:#67200A;stroke-width:7;stroke-miterlimit:10;}
	.st73{display:inline;opacity:0.64;fill:none;stroke:#67200A;stroke-width:2;stroke-miterlimit:10;}
	.st74{display:inline;opacity:0.4;fill:#F2F2F2;}
	.st75{display:inline;opacity:0.39;fill:#F2F2F2;}
	.st76{display:inline;opacity:0.45;fill:#F2F2F2;stroke:#FFFFFF;stroke-width:3;stroke-miterlimit:10;}
	.st77{display:inline;opacity:0.45;fill:#F2F2F2;}
	.st78{display:inline;opacity:0.31;fill:#F2F2F2;}
	.st79{display:inline;opacity:0.48;fill:#F2F2F2;}
	.st80{display:inline;opacity:0.43;}
	.st81{fill:#F2F2F2;}
	.st82{fill:#217D47;}
	.st83{fill:#20A05D;}
	.st84{fill:#79CFD6;}
	.st85{fill:#C94248;}
	.st86{fill:#F8A13B;}
	.st87{display:inline;fill:none;stroke:#FFFF00;stroke-width:2;stroke-miterlimit:10;}
	.st88{display:inline;fill:none;stroke:#009245;stroke-width:3;stroke-miterlimit:10;}
	.st89{display:inline;fill:none;stroke:#000000;stroke-width:2;stroke-miterlimit:10;}
	.st90{display:inline;fill:none;stroke:#F4E12F;stroke-width:5;stroke-miterlimit:10;}
	.st91{fill:#F4E12F;stroke:#000000;stroke-width:2;stroke-miterlimit:10;}
	.st92{fill:#F4E12F;stroke:#000000;stroke-miterlimit:10;}
	.st93{display:inline;fill:none;stroke:#736357;stroke-width:0.75;stroke-miterlimit:10;}
	.st94{display:inline;fill:none;stroke:#736357;stroke-width:0.5;stroke-miterlimit:10;}
	.st95{fill:none;stroke:#F94B4B;stroke-width:9;stroke-miterlimit:10;}
	.st96{fill:none;stroke:#F94B4B;stroke-width:9;stroke-miterlimit:10;stroke-dasharray:1.017,1.017,1.017,1.017;}
	.st97{fill:none;stroke:#F94B4B;stroke-width:9;stroke-miterlimit:10;stroke-dasharray:5.0679,5.0679,5.0679,5.0679;}
	.st98{fill:none;stroke:#F94B4B;stroke-width:9;stroke-miterlimit:10;stroke-dasharray:5.0679,5.0679,5.0679,5.0679,5.0679,5.0679;}
	.st99{display:inline;fill:none;stroke:#FF0000;stroke-width:6;stroke-miterlimit:10;stroke-dasharray:5,5,5,5,5,5;}
	.st100{display:inline;fill:none;stroke:#F94B4B;stroke-width:9;stroke-miterlimit:10;stroke-dasharray:5,5,5,5,5,5;}
	.st101{display:inline;fill:none;stroke:#0000FF;stroke-miterlimit:10;}
	.st102{fill:#0000FF;}
	.st103{fill:#2121C1;}
	.st104{display:inline;fill:none;stroke:#0000FF;stroke-width:2;stroke-miterlimit:10;}
	.st105{display:inline;opacity:0.54;}
	.st106{display:inline;fill:none;stroke:#000000;stroke-width:0.25;stroke-miterlimit:10;}
	.st107{display:inline;fill:#EDB03B;stroke:#FBB03B;stroke-width:0.25;stroke-miterlimit:10;}
	.st108{display:inline;fill:#F0B03B;stroke:#FBB03B;stroke-width:0.25;stroke-miterlimit:10;}
	.st109{display:inline;fill:#EEB03B;stroke:#FBB03B;stroke-width:0.25;stroke-miterlimit:10;}
	.st110{display:inline;fill:#E8B03B;stroke:#FBB03B;stroke-width:0.25;stroke-miterlimit:10;}
	.st111{display:inline;fill:#E9B03B;stroke:#FBB03B;stroke-width:0.25;stroke-miterlimit:10;}
	.st112{display:inline;fill:#FBB03B;stroke:#FBB03B;stroke-width:0.25;stroke-miterlimit:10;}
	.st113{display:inline;fill:#EBB03B;stroke:#FBB03B;stroke-width:0.25;stroke-miterlimit:10;}
	.st114{display:inline;fill:#EAB03B;stroke:#FBB03B;stroke-width:0.25;stroke-miterlimit:10;}
	.st115{display:inline;fill:#F6B03B;stroke:#FBB03B;stroke-width:0.25;stroke-miterlimit:10;}
	.st116{display:inline;fill:#F2B03B;stroke:#FBB03B;stroke-width:0.25;stroke-miterlimit:10;}
	.st117{display:inline;fill:#F4B03B;stroke:#FBB03B;stroke-width:0.25;stroke-miterlimit:10;}
	.st118{display:inline;fill:none;stroke:#FCEE21;stroke-width:10;stroke-miterlimit:10;}
	.st119{display:inline;fill:none;stroke:#000000;stroke-width:8;stroke-miterlimit:10;}
	.st120{display:inline;fill:none;stroke:#736357;stroke-width:4;stroke-miterlimit:10;}
	.st121{display:inline;fill:none;stroke:#0000FF;stroke-width:8;stroke-miterlimit:10;}
	.st122{display:inline;fill:none;stroke:#0071BC;stroke-width:5;stroke-miterlimit:10;}
	.st123{display:inline;fill:none;stroke:#0071BC;stroke-width:5;stroke-miterlimit:10;stroke-dasharray:8,8;}
	.st124{display:inline;fill:none;stroke:#C1272D;stroke-width:2;stroke-miterlimit:10;}
	.st125{display:inline;fill:none;stroke:#FF0000;stroke-width:3;stroke-miterlimit:10;}
	.st126{display:inline;fill:none;stroke:#F92010;stroke-width:2;stroke-miterlimit:10;}
	.st127{display:inline;fill:none;stroke:#ED2207;stroke-width:5;stroke-miterlimit:10;}
	.st128{display:inline;fill:#EF220C;}
	.st129{fill:#26120B;}
	.st130{fill:#12491D;}
	.st131{fill:none;stroke:#FFFFFF;stroke-width:0.5;stroke-linecap:round;stroke-linejoin:round;stroke-miterlimit:10;}
	.st132{fill:#2E3192;}
	.st133{fill:url(#XMLID_2396_);}
	.st134{opacity:0.26;}
	.st135{fill:none;stroke:#FFFFFF;stroke-width:9;stroke-miterlimit:10;}
	.st136{fill:#FFFFFF;stroke:#FFFFFF;stroke-width:9;stroke-miterlimit:10;}
	.st137{fill:none;stroke:#000000;stroke-width:0.25;stroke-miterlimit:10;}
	.st138{fill:#FF8000;}
	.st139{fill:#80C41C;stroke:#000000;stroke-width:0.1;stroke-miterlimit:10;}
	.st140{fill:none;stroke:#FF8000;stroke-miterlimit:10;}
	.st141{fill:#8C6239;stroke:#42210B;stroke-width:0.25;stroke-miterlimit:10;}
	.st142{fill:#603813;stroke:#42210B;stroke-width:0.25;stroke-miterlimit:10;}
	.st143{fill:#C69C6D;}
	.st144{fill:#42210B;stroke:#42210B;stroke-width:0.25;stroke-miterlimit:10;}
	.st145{fill:#F7931E;}
	.st146{fill:#F15A24;}
	.st147{fill:#D4145A;}
	.st148{fill:#006837;}
	.st149{fill:#662D91;}
	.st150{fill:#ED1C24;}
	.st151{fill:#C1272D;}
	.st152{fill:#1B1464;}
	.st153{fill:#BEAC83;}
	.st154{fill:#C2000B;}
	.st155{fill:#C7B299;}
	.st156{opacity:0.32;}
	.st157{fill:#F5F5F5;}
	.st158{fill:#006837;stroke:#FFFFFF;stroke-width:0.5;stroke-miterlimit:10;}
	.st159{fill:none;stroke:#000000;stroke-width:6;stroke-miterlimit:10;}
	.st160{fill:none;stroke:#FFFFFF;stroke-width:8;stroke-linecap:round;stroke-linejoin:round;stroke-miterlimit:10;}
	.st161{opacity:0.72;}
	.st162{fill:#FFFF00;stroke:#000000;stroke-miterlimit:10;}
	.st163{fill:none;stroke:#4D4D4D;stroke-width:4;stroke-miterlimit:10;}
	.st164{fill:none;stroke:#110B79;stroke-width:5;stroke-miterlimit:10;}
	.st165{fill:none;stroke:#110B79;stroke-width:3;stroke-miterlimit:10;}
	.st166{fill:none;stroke:#2E58A6;stroke-width:2;stroke-miterlimit:10;}
	.st167{fill:#FEA812;stroke:#63300F;stroke-width:0.7087;stroke-linecap:round;stroke-linejoin:round;stroke-miterlimit:10;}
	.st168{fill:#FCEE21;}
	.st169{fill:none;stroke:#000000;stroke-width:0.05;stroke-miterlimit:10;}
	.st170{fill:#F62700;}
	.st171{fill:none;stroke:#000000;stroke-width:0.5;stroke-miterlimit:10;}
	.st172{fill:#4D1F03;stroke:#000000;stroke-width:0.5;stroke-miterlimit:10;}
	.st173{fill:none;stroke:#FFFFFF;stroke-width:0.25;stroke-miterlimit:10;}
	.st174{fill:url(#XMLID_2397_);stroke:#000000;stroke-width:0.5;stroke-miterlimit:10;}
	.st175{fill:#8E2E0B;}
	.st176{fill:#2E58A6;}
	.st177{fill:#93583A;}
	.st178{fill:#C6B491;}
	.st179{fill:#534741;}
	.st180{fill:#FD1A16;}
	.st181{fill:#F2F91C;}
	.st182{fill:#6B1687;}
	.st183{fill:none;stroke:#000000;stroke-width:0.1;stroke-linecap:round;stroke-linejoin:round;}
	.st184{fill:#42210B;}
	.st185{fill:#237D26;}
	.st186{fill:#80C41C;}
	.st187{fill:#40A629;}
	.st188{fill:#009245;}
	.st189{fill:#BE894A;}
	.st190{fill:#4FA0CA;}
	.st191{fill:#F0047F;}
	.st192{fill:#F487BC;}
	.st193{fill:#FEA621;}
	.st194{fill:#63300F;}
	.st195{fill:#0B0146;}
	.st196{fill:none;stroke:#000000;stroke-width:0.25;stroke-linecap:round;stroke-linejoin:round;}
	.st197{fill:#4D1F03;stroke:#000000;stroke-width:0.25;stroke-linecap:round;stroke-linejoin:round;}
	.st198{fill:#333333;}
	.st199{fill:#1A1A1A;stroke:#000000;stroke-width:0.25;stroke-linecap:round;stroke-linejoin:round;}
	.st200{fill:#333333;stroke:#000000;stroke-width:0.25;stroke-linecap:round;stroke-linejoin:round;}
	.st201{fill:#C1272D;stroke:#000000;stroke-width:0.1;stroke-linecap:round;stroke-linejoin:round;}
	.st202{fill:#DD7808;}
	.st203{fill:none;stroke:#63300F;stroke-width:0.25;stroke-miterlimit:10;}
	.st204{fill:#40A629;stroke:#12491D;stroke-width:0.25;stroke-miterlimit:10;}
	.st205{fill:#12491D;stroke:#000000;stroke-width:0.25;stroke-miterlimit:10;}
	.st206{fill:#237D26;stroke:#000000;stroke-width:0.25;stroke-miterlimit:10;}
	.st207{fill:#40A629;stroke:#000000;stroke-width:0.25;stroke-miterlimit:10;}
	.st208{fill:#CCE70B;stroke:#000000;stroke-width:0.25;stroke-miterlimit:10;}
	.st209{fill-rule:evenodd;clip-rule:evenodd;fill:none;stroke:#FFFFFF;stroke-miterlimit:2.4142;}
	
		.st210{fill-rule:evenodd;clip-rule:evenodd;fill:#111183;stroke:#FFFFFF;stroke-width:0.6;stroke-linecap:round;stroke-linejoin:round;stroke-miterlimit:10;}
	.st211{fill:#111183;}
	.st212{fill:#FFFFFF;stroke:#FFFFFF;stroke-miterlimit:10;}
	.st213{fill:#452F27;}
	.st214{fill:#F36F40;}
	.st215{fill:#207B50;}
	.st216{fill:#FFFFFF;stroke:#000000;stroke-width:2;stroke-miterlimit:10;}
	.st217{fill:none;}
	.st218{clip-path:url(#SVGID_10_);fill:#2E3192;}
	.st219{clip-path:url(#SVGID_10_);fill:#39B54A;}
	.st220{fill:none;stroke:#C1272D;stroke-width:3;stroke-miterlimit:10;}
	.st221{fill:url(#SVGID_11_);}
	.st222{clip-path:url(#SVGID_13_);}
	.st223{fill:none;stroke:#FFFF00;stroke-miterlimit:10;}
	.st224{fill:#FFFFFF;stroke:#FFFFFF;stroke-width:0.75;stroke-miterlimit:10;}
	.st225{fill:none;stroke:#FFFFFF;stroke-width:0.75;stroke-miterlimit:10;}
	.st226{fill:#4D1F03;}
	.st227{fill:url(#SVGID_20_);}
	.st228{fill:#D1D117;}
	.st229{fill:#7E4E24;stroke:#1D1D1B;stroke-width:0.25;stroke-miterlimit:10;}
	.st230{fill:#FFEC00;}
	.st231{fill:#7C411E;}
	.st232{fill:none;stroke:#000000;stroke-miterlimit:10;}
	.st233{fill:#2C5B20;}
	.st234{fill:none;stroke:#A0642F;stroke-width:0.25;stroke-miterlimit:10;}
	.st235{fill:#999999;}
	.st236{fill:#008D36;}
	.st237{fill:#93C01F;}
	.st238{fill:#683B11;}
	.st239{fill:#FCEA0D;}
	.st240{fill:#ECECEC;}
	.st241{fill:#F29100;}
	.st242{fill:#81358A;}
	.st243{fill:#BD1622;}
	.st244{fill:#006633;}
	.st245{fill:#925F36;}
	.st246{fill:#422918;}
	.st247{fill:#FE330A;}
	.st248{stroke:#000000;stroke-width:0.25;stroke-linecap:round;stroke-linejoin:round;}
	.st249{fill:none;stroke:#000000;stroke-width:0.27;stroke-linecap:round;stroke-linejoin:round;}
	.st250{fill:#63300F;stroke:#000000;stroke-width:0.25;stroke-linecap:round;stroke-linejoin:round;}
	.st251{fill:#4A007D;}
	.st252{stroke:#000000;stroke-width:0.25;stroke-miterlimit:10;}
	.st253{fill:#63300F;stroke:#000000;stroke-width:0.25;stroke-miterlimit:10;}
	.st254{fill:#BE894A;stroke:#000000;stroke-width:0.25;stroke-miterlimit:10;}
	.st255{fill:#FFFF00;stroke:#000000;stroke-width:0.25;stroke-miterlimit:10;}
	.st256{fill:#26120B;stroke:#000000;stroke-width:0.25;stroke-miterlimit:10;}
	.st257{fill:#F0047F;stroke:#000000;stroke-width:0.25;stroke-miterlimit:10;}
	.st258{fill:#A0642F;stroke:#000000;stroke-width:0.1;stroke-miterlimit:10;}
	.st259{stroke:#000000;stroke-width:0.1;stroke-miterlimit:10;}
	.st260{fill:#BEAC83;stroke:#000000;stroke-width:0.1;stroke-miterlimit:10;}
	.st261{fill:#63300F;stroke:#000000;stroke-width:0.1;stroke-miterlimit:10;}
	.st262{fill:none;stroke:#000000;stroke-width:0.1;stroke-miterlimit:10;}
	.st263{fill:#237D26;stroke:#000000;stroke-width:0.1;stroke-miterlimit:10;}
	.st264{fill:#F8B133;}
	.st265{fill:#CABA9F;}
	.st266{fill:#E20613;}
	.st267{fill:none;stroke:#1D1D1B;stroke-width:0.5;stroke-miterlimit:10;}
	.st268{fill:#BEAC83;stroke:#000000;stroke-width:0.25;stroke-miterlimit:10;}
	.st269{fill:#808080;}
	.st270{fill:#7C411E;stroke:#000000;stroke-width:0.25;stroke-miterlimit:10;}
	.st271{fill:#FF8000;stroke:#000000;stroke-width:0.25;stroke-miterlimit:10;}
	.st272{fill:none;stroke:#237D26;stroke-width:0.25;stroke-miterlimit:10;}
	.st273{fill:#00FFFF;}
	.st274{fill:#F0047F;stroke:#FFFFFF;stroke-width:0.25;stroke-miterlimit:10;}
	.st275{fill:#82027E;stroke:#FFFFFF;stroke-width:0.25;stroke-miterlimit:10;}
	.st276{fill:#808080;stroke:#000000;stroke-width:0.25;stroke-miterlimit:10;}
	.st277{fill:#ED1E79;}
	.st278{fill:#93278F;}
	.st279{fill:#42210B;stroke:#000000;stroke-width:0.25;stroke-miterlimit:10;}
	.st280{fill:#603813;stroke:#42210B;stroke-miterlimit:10;}
	.st281{opacity:0.48;fill:#F2F2F2;}
	.st282{fill:#FBB03B;}
	.st283{fill:#F4136B;}
	.st284{fill:#80C41C;stroke:#000000;stroke-width:0.5;stroke-miterlimit:10;}
	.st285{fill:#4D1F03;stroke:#000000;stroke-miterlimit:10;}
	.st286{fill:url(#XMLID_2453_);stroke:#000000;stroke-width:0.5;stroke-miterlimit:10;}
	.st287{fill:none;stroke:#A0642F;stroke-miterlimit:10;}
	.st288{fill:none;stroke:#FFFFFF;stroke-width:2;stroke-miterlimit:10;}
	.st289{fill:#BE894A;stroke:#26120B;stroke-width:0.25;stroke-miterlimit:10;}
	.st290{fill:none;stroke:#26120B;stroke-width:0.5;stroke-miterlimit:10;}
	.st291{fill:#4D1F03;stroke:#000000;stroke-width:0.5;stroke-linecap:round;stroke-linejoin:round;}
	.st292{fill:none;stroke:#000000;stroke-width:0.5;stroke-linecap:round;stroke-linejoin:round;}
	.st293{stroke:#000000;stroke-width:0.5;stroke-linecap:round;stroke-linejoin:round;}
	.st294{fill:#63300F;stroke:#000000;stroke-width:0.5;stroke-linecap:round;stroke-linejoin:round;}
	.st295{stroke:#000000;stroke-width:0.75;stroke-miterlimit:10;}
	.st296{fill:#63300F;stroke:#000000;stroke-width:0.75;stroke-miterlimit:10;}
	.st297{fill:#BE894A;stroke:#000000;stroke-width:0.75;stroke-miterlimit:10;}
	.st298{fill:#FFFF00;stroke:#000000;stroke-width:0.75;stroke-miterlimit:10;}
	.st299{fill:#26120B;stroke:#000000;stroke-width:0.75;stroke-miterlimit:10;}
	.st300{fill:none;stroke:#000000;stroke-width:0.75;stroke-miterlimit:10;}
	.st301{fill:#F0047F;stroke:#000000;stroke-width:0.75;stroke-miterlimit:10;}
	.st302{fill:#A0642F;stroke:#000000;stroke-width:0.75;stroke-miterlimit:10;}
	.st303{fill:#BEAC83;stroke:#000000;stroke-width:0.75;stroke-miterlimit:10;}
	.st304{fill:#237D26;stroke:#000000;stroke-width:0.75;stroke-miterlimit:10;}
	.st305{fill:none;stroke:#000000;stroke-linecap:round;stroke-linejoin:round;}
	.st306{fill:#4D1F03;stroke:#000000;stroke-linecap:round;stroke-linejoin:round;}
	.st307{fill:#1A1A1A;stroke:#000000;stroke-linecap:round;stroke-linejoin:round;}
	.st308{fill:#333333;stroke:#000000;stroke-linecap:round;stroke-linejoin:round;}
	.st309{fill:#C1272D;stroke:#000000;stroke-linecap:round;stroke-linejoin:round;}
	.st310{fill:#7E4E24;stroke:#1D1D1B;stroke-width:0.75;stroke-miterlimit:10;}
	.st311{fill:none;stroke:#1D1D1B;stroke-width:0.75;stroke-miterlimit:10;}
	.st312{fill:none;stroke:#1D1D1B;stroke-width:4;stroke-miterlimit:10;}
	.st313{fill:#CABA9F;stroke:#1D1D1B;stroke-miterlimit:10;}
	.st314{fill:#1D1D1B;stroke:#1D1D1B;stroke-miterlimit:10;}
	.st315{fill:#E20613;stroke:#1D1D1B;stroke-miterlimit:10;}
	.st316{fill:#35A8E0;stroke:#1D1D1B;stroke-miterlimit:10;}
	.st317{fill:#C6C6C5;stroke:#1D1D1B;stroke-miterlimit:10;}
	.st318{fill:none;stroke:#1D1D1B;stroke-miterlimit:10;}
	.st319{fill:none;stroke:#000000;stroke-width:2;stroke-miterlimit:10;}
	.st320{fill:#808080;stroke:#000000;stroke-width:2;stroke-miterlimit:10;}
	.st321{fill:#42210B;stroke:#000000;stroke-miterlimit:10;}
	.st322{fill:#BE894A;stroke:#26120B;stroke-miterlimit:10;}
	.st323{fill:none;stroke:#26120B;stroke-width:3;stroke-miterlimit:10;}
	.st324{fill:url(#SVGID_23_);}
	.st325{filter:url(#Adobe_OpacityMaskFilter);}
	.st326{mask:url(#SVGID_24_);}
	.st327{fill:#390D81;}
	.st328{fill:#1D0134;}
	.st329{fill:#006837;stroke:#000000;stroke-width:0.25;stroke-miterlimit:10;}
	.st330{fill:#754C24;}
	.st331{fill:none;stroke:#000000;stroke-width:0.08;stroke-miterlimit:10;}
	.st332{fill:#80C41C;stroke:#000000;stroke-width:0.05;stroke-miterlimit:10;}
	.st333{fill:#916F5D;}
	.st334{fill:#40A629;stroke:#000000;stroke-width:0.05;stroke-miterlimit:10;}
	.st335{fill:#E0013F;stroke:#000000;stroke-width:0.05;stroke-miterlimit:10;}
	.st336{fill:#93014A;stroke:#000000;stroke-width:0.05;stroke-miterlimit:10;}
	.st337{fill:#237D26;stroke:#000000;stroke-width:0.05;stroke-miterlimit:10;}
	.st338{fill:#298333;}
	.st339{fill:#154D22;}
	.st340{fill:#250F09;}
	.st341{fill:#615153;}
	.st342{fill:url(#SVGID_25_);}
	.st343{fill:url(#XMLID_2458_);stroke:#000000;stroke-width:0.25;stroke-miterlimit:10;}
	.st344{fill:none;stroke:#26120B;stroke-width:0.25;stroke-miterlimit:10;}
	.st345{fill:url(#SVGID_26_);}
	.st346{fill:url(#XMLID_2463_);stroke:#000000;stroke-width:0.25;stroke-miterlimit:10;}
	.st347{fill:url(#SVGID_27_);}
	.st348{fill:url(#XMLID_2519_);stroke:#000000;stroke-width:0.25;stroke-miterlimit:10;}
	.st349{fill:url(#SVGID_28_);}
	.st350{fill:url(#XMLID_21018_);stroke:#000000;stroke-width:0.25;stroke-miterlimit:10;}
	.st351{fill:url(#SVGID_29_);}
	.st352{fill:url(#XMLID_21019_);stroke:#000000;stroke-width:0.25;stroke-miterlimit:10;}
	.st353{fill:url(#SVGID_30_);}
	.st354{fill:url(#XMLID_21020_);stroke:#000000;stroke-width:0.25;stroke-miterlimit:10;}
	.st355{fill:url(#SVGID_31_);}
	.st356{fill:url(#XMLID_21021_);stroke:#000000;stroke-width:0.25;stroke-miterlimit:10;}
	.st357{fill:#5F9931;}
	.st358{fill:#13007C;}
	.st359{fill:url(#SVGID_32_);}
	.st360{fill:url(#SVGID_33_);}
	.st361{fill:#1A1A1A;}
	.st362{fill:url(#SVGID_34_);}
	.st363{fill:#C4C4C4;}
	.st364{fill:#BE894A;stroke:#C4C4C4;stroke-width:0.1;stroke-miterlimit:10;}
	.st365{fill:none;stroke:#C4C4C4;stroke-width:0.1;stroke-miterlimit:10;}
	.st366{fill:#A0642F;}
	.st367{fill:#40A629;stroke:#000000;stroke-width:0.1;stroke-miterlimit:10;}
	.st368{fill:#604B3B;}
	.st369{fill:#FFFFFF;stroke:#000000;stroke-width:0.25;stroke-miterlimit:10;}
	.st370{fill:#BEAC83;stroke:#000000;stroke-width:0.01;stroke-miterlimit:10;}
	.st371{fill:#1B3F26;}
	.st372{fill:#12491D;stroke:#000000;stroke-width:0.1;stroke-miterlimit:10;}
	.st373{fill:#008837;stroke:#000000;stroke-width:0.1;stroke-miterlimit:10;}
	.st374{fill:#41AA54;}
	.st375{fill:#F2F91C;stroke:#000000;stroke-width:0.1;stroke-miterlimit:10;}
	.st376{fill:#BEAC83;stroke:#000000;stroke-width:0.09;stroke-miterlimit:10;}
	.st377{fill:#CCE70B;}
	.st378{fill:none;stroke:#000000;stroke-width:0.09;stroke-miterlimit:10;}
	.st379{fill:url(#SVGID_35_);}
	.st380{fill:#110B79;}
	.st381{fill:url(#SVGID_36_);}
	.st382{fill:url(#SVGID_37_);}
	.st383{fill:#110B79;stroke:#000000;stroke-width:0.25;stroke-miterlimit:10;}
	.st384{fill:#ED1C24;stroke:#000000;stroke-width:0.25;stroke-miterlimit:10;}
	.st385{fill:url(#XMLID_21022_);stroke:#000000;stroke-width:0.25;stroke-linecap:round;stroke-linejoin:round;}
	.st386{opacity:0.59;}
	.st387{fill:#4D4D4D;stroke:#26120B;stroke-width:0.25;stroke-linecap:round;stroke-linejoin:round;}
	.st388{fill:#F34C31;}
	.st389{fill:none;stroke:#26120B;stroke-width:0.25;stroke-linecap:round;stroke-linejoin:round;}
	.st390{fill:#BE894A;stroke:#000000;stroke-width:0.1;stroke-miterlimit:10;}
	.st391{fill:#FEA621;stroke:#000000;stroke-width:0.1;stroke-miterlimit:10;}
	.st392{fill:#FF8000;stroke:#000000;stroke-width:0.1;stroke-miterlimit:10;}
	.st393{fill:url(#XMLID_21023_);stroke:#000000;stroke-width:0.1;stroke-miterlimit:10;}
	.st394{fill:url(#XMLID_21024_);stroke:#000000;stroke-width:0.1;stroke-miterlimit:10;}
	.st395{fill:url(#XMLID_21025_);stroke:#000000;stroke-width:0.1;stroke-miterlimit:10;}
	.st396{fill:url(#XMLID_21026_);stroke:#000000;stroke-width:0.1;stroke-miterlimit:10;}
	.st397{fill:url(#XMLID_21027_);stroke:#000000;stroke-width:0.1;stroke-miterlimit:10;}
	.st398{fill:url(#XMLID_21028_);stroke:#000000;stroke-width:0.1;stroke-miterlimit:10;}
	.st399{fill:#12491D;stroke:#000000;stroke-width:0.15;stroke-miterlimit:10;}
	.st400{fill:#E9E923;stroke:#000000;stroke-width:0.15;stroke-miterlimit:10;}
	.st401{fill:#F2F91C;stroke:#000000;stroke-width:0.15;stroke-miterlimit:10;}
	.st402{fill:#FFFF00;stroke:#000000;stroke-width:0.15;stroke-miterlimit:10;}
	.st403{fill:#26120B;stroke:#000000;stroke-width:0.15;stroke-miterlimit:10;}
	.st404{fill:#40A629;stroke:#000000;stroke-width:0.15;stroke-miterlimit:10;}
	.st405{fill:#237D26;stroke:#000000;stroke-width:0.15;stroke-miterlimit:10;}
	.st406{fill:#E0013F;stroke:#000000;stroke-width:0.1;stroke-miterlimit:10;}
	.st407{fill:#93014A;}
	.st408{fill:none;stroke:#FFFFFF;stroke-width:0.1;stroke-miterlimit:10;}
	.st409{fill:#603813;stroke:#000000;stroke-width:0.1;stroke-miterlimit:10;}
	.st410{fill:#63300F;stroke:#26120B;stroke-width:0.25;stroke-miterlimit:10;}
	.st411{fill:#4D4D4D;stroke:#4D4D4D;stroke-width:0.25;stroke-miterlimit:10;}
	.st412{fill:#010102;}
	.st413{fill:#734421;}
	.st414{fill:#431D08;}
	.st415{fill:#926036;}
	.st416{fill:#7C411E;stroke:#000000;stroke-width:0.1;stroke-miterlimit:10;}
	.st417{fill:#531B1E;}
	.st418{fill:#916F5D;stroke:#000000;stroke-width:0.1;stroke-miterlimit:10;}
	.st419{fill:#4D4D4D;stroke:#000000;stroke-width:0.1;stroke-miterlimit:10;}
	.st420{fill:#0F3212;}
	.st421{fill:#597816;}
	.st422{fill:none;stroke:#364B11;stroke-width:0.25;stroke-miterlimit:10;}
	.st423{fill:#4E6C16;}
	.st424{fill:#45731A;}
	.st425{fill:#547417;}
	.st426{fill:#486B17;}
	.st427{fill:#30651B;}
	.st428{fill:#3C5814;}
	.st429{fill:#26360D;}
	.st430{fill:#486B17;stroke:#80C41C;stroke-miterlimit:10;}
	.st431{fill:url(#XMLID_21029_);stroke:#000000;stroke-width:0.2;stroke-miterlimit:10;}
	.st432{fill:#808080;stroke:#000000;stroke-width:0.2;stroke-miterlimit:10;}
	.st433{fill:#666666;stroke:#000000;stroke-width:0.2;stroke-miterlimit:10;}
	.st434{fill:#4D4D4D;stroke:#000000;stroke-width:0.2;stroke-miterlimit:10;}
	.st435{fill:#999999;stroke:#000000;stroke-width:0.2;stroke-miterlimit:10;}
	.st436{opacity:0.48;}
	.st437{fill:#17208B;}
	.st438{fill:#333333;stroke:#000000;stroke-width:0.1;stroke-miterlimit:10;}
	.st439{fill:#6B1687;stroke:#000000;stroke-width:0.1;stroke-miterlimit:10;}
	.st440{fill:url(#XMLID_21030_);stroke:#000000;stroke-width:0.25;stroke-miterlimit:10;}
	.st441{fill:#452F27;stroke:#000000;stroke-width:0.25;stroke-miterlimit:10;}
	.st442{opacity:0.42;}
	.st443{opacity:0.42;fill:none;stroke:#FFFFFF;stroke-width:0.25;stroke-miterlimit:10;}
	.st444{fill:#1A5A1E;}
	.st445{fill:url(#SVGID_38_);}
	.st446{fill:#B9854F;}
	.st447{fill:url(#SVGID_39_);}
	.st448{fill:url(#SVGID_40_);}
	.st449{fill:#FEA621;stroke:#000000;stroke-width:0.25;stroke-miterlimit:10;}
	.st450{fill:#666666;stroke:#000000;stroke-width:0.25;stroke-miterlimit:10;}
	.st451{opacity:0.8;fill:#4FA0CA;stroke:#000000;stroke-width:0.25;stroke-miterlimit:10;}
	.st452{fill:#4D1F03;stroke:#4D1F03;stroke-width:0.1;stroke-miterlimit:10;}
	.st453{fill:#666666;}
	.st454{opacity:0.5;fill:#4FA0CA;stroke:#000000;stroke-width:0.25;stroke-miterlimit:10;}
	.st455{opacity:0.39;fill:#4FA0CA;stroke:#000000;stroke-width:0.25;stroke-miterlimit:10;}
	.st456{opacity:0.5;fill:none;stroke:#000000;stroke-width:0.25;stroke-miterlimit:10;}
	.st457{fill:#FFFFFF;stroke:#000000;stroke-width:0.1;stroke-miterlimit:10;}
	.st458{fill:#666666;stroke:#000000;stroke-width:0.1;stroke-miterlimit:10;}
	.st459{fill:#FF0000;}
	.st460{fill:none;stroke:#000000;stroke-width:0.2;stroke-miterlimit:10;}
	.st461{fill:#FFFFFF;stroke:#000000;stroke-width:0.2;stroke-miterlimit:10;}
	.st462{fill:#63300F;stroke:#000000;stroke-width:0.2;stroke-miterlimit:10;}
	.st463{fill:#686461;}
	.st464{fill:#343031;}
	.st465{fill:#4D4D4D;}
	.st466{fill:#412312;}
	.st467{fill:#0971B7;}
	.st468{fill:#009145;}
	.st469{fill:#47AD4C;}
	.st470{fill:#F29222;}
	.st471{fill:#DDDB00;}
	.st472{fill:#E97BAB;}
	.st473{fill:#008D36;stroke:#006633;stroke-width:0.25;stroke-miterlimit:10;}
	.st474{fill:#422918;stroke:#1D1D1B;stroke-width:0.25;stroke-miterlimit:10;}
	.st475{fill:#925F36;stroke:#1D1D1B;stroke-width:0.25;stroke-miterlimit:10;}
	.st476{fill:#FFFFFF;stroke:#1D1D1B;stroke-width:0.25;stroke-miterlimit:10;}
	.st477{fill:#B17F49;}
	.st478{fill:#7F8080;}
	.st479{fill:#4E4D4D;}
	.st480{fill:#6F6F6E;}
	.st481{fill:url(#SVGID_41_);}
	.st482{fill:url(#SVGID_42_);}
	.st483{fill:#C99D66;}
	.st484{fill:#7E4E24;}
	.st485{fill:url(#SVGID_43_);}
	.st486{fill:url(#SVGID_44_);}
	.st487{fill:url(#SVGID_45_);}
	.st488{fill:url(#SVGID_46_);}
	.st489{fill:#634E42;}
	.st490{fill:#B3B3B3;}
	.st491{fill:none;stroke:#422918;stroke-width:0.25;stroke-miterlimit:10;}
	.st492{fill:none;stroke:#1D1D1B;stroke-width:0.1;stroke-miterlimit:10;}
	.st493{fill:#1D1D1B;stroke:#1D1D1B;stroke-width:0.1;stroke-miterlimit:10;}
	.st494{fill:#C1272D;stroke:#FFFFFF;stroke-width:0.25;stroke-miterlimit:10;}
	.st495{fill:#ED1C24;stroke:#FFFFFF;stroke-width:0.25;stroke-miterlimit:10;}
	.st496{fill:#F7931E;stroke:#FFFFFF;stroke-width:0.25;stroke-miterlimit:10;}
	.st497{fill:#D17C10;}
	.st498{fill:#E5332A;}
	.st499{fill:#014C26;}
	.st500{fill:#81171E;}
	.st501{fill:#231F20;}
	.st502{fill:#58595B;}
	.st503{fill:#C1B49A;}
	.st504{fill:url(#SVGID_47_);}
	.st505{fill:url(#SVGID_48_);}
	.st506{fill:url(#SVGID_49_);}
	.st507{fill:url(#SVGID_50_);}
	.st508{fill:#8C6239;}
	.st509{fill:#9C9B9B;stroke:#1D1D1B;stroke-width:0.1;stroke-miterlimit:10;}
	.st510{fill:#39A935;stroke:#1D1D1B;stroke-width:0.1;stroke-miterlimit:10;}
	.st511{fill:#FFEC00;stroke:#1D1D1B;stroke-width:0.1;stroke-miterlimit:10;}
	.st512{fill:none;stroke:#DDDB00;stroke-width:0.1;stroke-miterlimit:10;}
	.st513{fill:none;stroke:#E20613;stroke-width:0.1;stroke-miterlimit:10;}
	.st514{fill:#39A935;stroke:#1D1D1B;stroke-width:0.25;stroke-miterlimit:10;}
	.st515{fill:#FFEC00;stroke:#1D1D1B;stroke-width:0.25;stroke-miterlimit:10;}
	.st516{fill:#006633;stroke:#1D1D1B;stroke-width:0.25;stroke-miterlimit:10;}
	.st517{fill:#B17F49;stroke:#1D1D1B;stroke-width:0.25;stroke-miterlimit:10;}
	.st518{fill:#FCEA0D;stroke:#1D1D1B;stroke-width:0.25;stroke-miterlimit:10;}
	.st519{fill:#93C01F;stroke:#1D1D1B;stroke-width:0.25;stroke-miterlimit:10;}
	.st520{fill:url(#XMLID_21031_);stroke:#1D1D1B;stroke-width:0.5;stroke-miterlimit:10;}
	.st521{fill:#3D3D3D;}
	.st522{fill:#F84F10;}
	.st523{fill:#575756;}
	.st524{fill:#F29100;stroke:#1D1D1B;stroke-width:0.25;stroke-miterlimit:10;}
	.st525{fill:#E84E1B;stroke:#1D1D1B;stroke-width:0.25;stroke-miterlimit:10;}
	.st526{fill:#E34846;stroke:#1D1D1B;stroke-width:0.25;stroke-miterlimit:10;}
	.st527{fill:#575756;stroke:#1D1D1B;stroke-width:0.25;stroke-miterlimit:10;}
	.st528{fill:#6F6F6E;stroke:#1D1D1B;stroke-width:0.25;stroke-miterlimit:10;}
	.st529{fill:#634E42;stroke:#1D1D1B;stroke-width:0.25;stroke-miterlimit:10;}
	.st530{fill:#C99D66;stroke:#1D1D1B;stroke-width:0.25;stroke-miterlimit:10;}
	.st531{fill:#E5332A;stroke:#1D1D1B;stroke-width:0.25;stroke-miterlimit:10;}
	.st532{fill:#A3897A;stroke:#1D1D1B;stroke-width:0.25;stroke-miterlimit:10;}
	.st533{fill:#868686;stroke:#1D1D1B;stroke-width:0.25;stroke-miterlimit:10;}
	.st534{fill:#868686;}
	.st535{fill:#7A6A58;}
	.st536{fill:#37B34A;}
	.st537{fill:#006838;}
	.st538{fill:#009345;}
	.st539{fill:#006838;stroke:#009345;stroke-miterlimit:10;}
	.st540{fill:url(#SVGID_51_);}
	.st541{fill:url(#XMLID_21032_);stroke:#000000;stroke-width:0.25;stroke-miterlimit:10;}
	.st542{fill:#FEA327;}
	.st543{fill:#FE4113;}
	.st544{fill:#FE8012;}
	.st545{fill:#7AC235;}
	.st546{fill:#791385;}
	.st547{fill:#EEF72B;}
	.st548{fill:#4D1F03;stroke:#000000;stroke-width:0.25;stroke-miterlimit:10;}
	.st549{fill:url(#XMLID_21033_);stroke:#000000;stroke-width:0.25;stroke-miterlimit:10;}
	.st550{fill:url(#XMLID_21034_);stroke:#000000;stroke-width:0.25;stroke-miterlimit:10;}
	.st551{fill:url(#XMLID_21035_);stroke:#000000;stroke-width:0.25;stroke-miterlimit:10;}
	.st552{opacity:0.76;fill:#FFFFFF;}
	.st553{fill:#12491D;stroke:#000000;stroke-width:0.09;stroke-miterlimit:10;}
	.st554{fill:#237D26;stroke:#000000;stroke-width:0.09;stroke-miterlimit:10;}
	.st555{fill:#40A629;stroke:#000000;stroke-width:0.09;stroke-miterlimit:10;}
	.st556{fill:#CCE70B;stroke:#000000;stroke-width:0.2;stroke-miterlimit:10;}
	.st557{opacity:0.71;fill:#FFFFFF;}
	.st558{fill:#63300F;stroke:#000000;stroke-width:0.09;stroke-miterlimit:10;}
	.st559{fill:#F0047F;stroke:#000000;stroke-width:0.09;stroke-miterlimit:10;}
	.st560{fill:#7C411E;stroke:#000000;stroke-width:0.09;stroke-miterlimit:10;}
	.st561{fill:#FF8000;stroke:#000000;stroke-width:0.09;stroke-miterlimit:10;}
	.st562{fill:none;stroke:#237D26;stroke-width:0.09;stroke-miterlimit:10;}
	.st563{fill:#FFFF00;stroke:#000000;stroke-width:0.09;stroke-miterlimit:10;}
	.st564{fill:#F0047F;stroke:#FFFFFF;stroke-width:0.09;stroke-miterlimit:10;}
	.st565{fill:#82027E;stroke:#FFFFFF;stroke-width:0.09;stroke-miterlimit:10;}
	.st566{fill:#999999;stroke:#FFFFFF;stroke-width:0.9;stroke-linecap:round;stroke-linejoin:round;stroke-miterlimit:10;}
	.st567{fill:#F7931E;stroke:#FFFFFF;stroke-width:0.5;stroke-miterlimit:10;}
	.st568{fill:none;stroke:#000000;stroke-width:0.15;stroke-miterlimit:10;}
	.st569{fill:none;stroke:#999999;stroke-width:0.15;stroke-miterlimit:10;}
	.st570{display:inline;fill:url(#SVGID_52_);}
	.st571{display:inline;fill:url(#SVGID_53_);}
	.st572{display:inline;fill:url(#SVGID_54_);}
	.st573{display:inline;stroke:#FFFFFF;stroke-width:0.5;stroke-miterlimit:10;}
	.st574{display:inline;fill:none;stroke:#FBB03B;stroke-width:0.25;stroke-miterlimit:10;}
	.st575{display:inline;fill:#ECB03B;stroke:#FBB03B;stroke-width:0.25;stroke-miterlimit:10;}
	.st576{fill-rule:evenodd;clip-rule:evenodd;fill:none;stroke:#FFFFFF;stroke-width:0.5;stroke-miterlimit:2.4142;}
	
		.st577{fill-rule:evenodd;clip-rule:evenodd;fill:#111183;stroke:#FFFFFF;stroke-width:0.5;stroke-linecap:round;stroke-linejoin:round;stroke-miterlimit:10;}
	.st578{fill:#FFFFFF;stroke:#FFFFFF;stroke-width:0.5;stroke-miterlimit:10;}
	.st579{fill:#006837;stroke:#FFFFFF;stroke-miterlimit:10;}
</style>
<g id="Layer_1" class="st0">
	<g id="Layer_2" class="st1">
	</g>
</g>
<g id="FONDO">
</g>
<g id="Capa_48" class="st0">
</g>
<g id="Layer_7" class="st0">
</g>
<g id="Layer_11" class="st0">
</g>
<g id="Layer_17" class="st0">
</g>
<g id="CUENCAS" class="st0">
</g>
<g id="CORREDOR_VERDE" class="st0">
</g>
<g id="CORREDOR_PASTO" class="st0">
</g>
<g id="LIMITE_copia" class="st0">
</g>
<g id="Microregiones_colores" class="st0">
</g>
<g id="LIMITE" class="st0">
</g>
<g id="BOSQUE" class="st0">
</g>
<g id="casco" class="st0">
</g>
<g id="CAFE" class="st0">
</g>
<g id="NODOS_ECOLOGICOS" class="st0">
</g>
<g id="limite_afuera" class="st0">
</g>
<g id="Layer_5" class="st0">
</g>
<g id="MICROREGIONES" class="st0">
</g>
<g id="CALLES" class="st0">
</g>
<g id="RUTAS_TURIMO" class="st0">
</g>
<g id="EJES" class="st0">
</g>
<g id="nombres_ejes" class="st0">
</g>
<g id="Layer_9" class="st0">
</g>
<g id="zonas" class="st0">
</g>
<g id="NODOS_BIOCULTURALES" class="st0">
</g>
<g id="EJES_TURIST" class="st0">
</g>
<g id="sistema_vial" class="st0">
</g>
<g id="limites_municipales" class="st0">
</g>
<g id="rios" class="st0">
</g>
<g id="topografia" class="st0">
</g>
<g id="turismo_plan" class="st0">
</g>
<g id="_x31_2_zonas" class="st0">
</g>
<g id="CUADRICULA" class="st0">
</g>
<g id="MUNICIPIOS_VECINOS" class="st0">
</g>
<g id="nucleos__urbanos" class="st0">
</g>
<g id="LEYENDA" class="st0">
</g>
<g id="calle" class="st0">
</g>
<g id="Puntos" class="st0">
</g>
<g id="Sitios_Arqueológicos" class="st0">
</g>
<g id="Sitios_Naturales" class="st0">
</g>
<g id="CAJA_DE_LEYENDAS">
	<g id="XMLID_20919_">
		<path class="st2" d="M34.84,256.15c2.17,1.58,4.4,2.26,11.93,3.02c10.54,1.08,15.81,1.61,23.53,1.01
			c25.02-1.96,45.81,13.4,85.98,10.84c22.99-1.47,25.86-7.11,26.44-9.16c1.69-5.97-7.38-11.94-5.55-14.96
			c2.41-3.95,18.79,4.87,43.13,8.09c13.88,1.83,29.6,2.3,39.44-5.73c4.73-3.86,7.6-10.99,4.34-16.15c-1.18-1.86-2.98-3.21-4.43-4.87
			c-5.75-6.59-4.92-16.44-3.95-25.13c0.97-8.69,1.31-18.72-4.99-24.78c-6.52-6.28-16.83-5.42-25.15-4.97
			c-12.11,0.66-24.15,1.76-36.3,1.62c-4.08-0.05-8.59-0.39-11.46-3.28c-2.44-2.45-3.07-6.12-3.47-9.55
			c-0.59-5.07-0.92-10.18-0.98-15.29c-0.03-1.88,0.05-3.95,1.3-5.36c1.48-1.68,4.01-1.79,6.24-1.79c7.99,0.03,15.98,0.05,23.97,0.08
			c3.05,0.01,6.76-0.38,8.04-3.14c2.05-4.44-5.09-14.42-6.87-18.5c-2.93-6.68-5.75-13.46-9.69-19.63
			c-14.47-22.69-8.65-23.55-16.2-30.16c-7.12-6.22-21.95-8.05-51.32-11.46c-14.32-1.66-22.74-2.15-26.85-2.35
			c-10.86-0.54-22.08-1.23-32.91,0.15c-2.22,0.28-4.73,0.59-6.79,1.5c-5.96,2.63-9.18,9.88-11.86,15.36
			c-6.74,13.77-14.09,27.26-20.23,41.31c-1.62,3.71-3.12,8.16-1.03,11.63c2.11,3.48,6.8,4.21,10.87,4.23
			c4.07,0.02,8.56-0.17,11.71,2.41c2.57,2.11,3.56,5.63,3.67,8.96s-0.51,6.64-0.5,9.96c0,3.16,0.57,6.32,0.36,9.47
			c-0.18,2.71-1.11,6.3-3.54,7.9c-1.91,1.26-4.79,1.05-6.98,1.4c-3.98,0.63-5.97,0.94-7.84,2.02c-2.99,1.73-2.31,3.21-5,5.25
			c-4.88,3.72-10.08,1.08-12.22,4.12c-1.44,2.05-0.42,5.01,0.28,6.95c2.5,6.92-2.51,13.84-4.42,32.84
			c-1.67,16.57,1.23,20.4,3.19,22.01c1.68,1.38,2.2,0.75,5.21,2.69C30.1,248.69,30.38,252.9,34.84,256.15z"/>
		<path class="st145" d="M32.22,120.97c2.46-7.18,6.12-17.08,11.27-28.6c8.06-18.04,12.23-27.15,19.07-31.2
			c10.03-5.94,17.83,0.12,41.17,3.9c42.08,6.81,58-6.22,72.37,7.37c2.38,2.25,0.97,1.69,14.3,27.73
			c12.28,24,14.94,27.34,13.43,30.77c-2.28,5.19-14.14,10.61-71.5-1.73"/>
		<g id="XMLID_21220_">
			<g id="XMLID_21221_">
				<g>
					<path class="st26" d="M54.36,184.44c0.91,1.26,1.35,3.42,0.1,4.61c-1.48,1.41-4.68,1.87-7.56-0.5l-0.1-0.02
						c0.22-1.3-0.13-2.4-0.21-2.65c-0.78-2.59-3.5-4.02-5.74-4.27c-0.39-0.04-1.31-0.14-2.37,0.11l-0.25-2.17
						c1.42-0.15,2.81-0.5,4.24-0.12c0.21,0.05,0.65,0.23,1.4,0.46c1.05,0.35,1.96,0.61,2.7,0.82c0.21,0.15,0.46,0.27,0.78,0.34
						c1.13,0.24,2.26,0.49,3.35,0.87C52.11,182.43,53.49,183.21,54.36,184.44z"/>
					<path class="st193" d="M22.61,207.42c-0.24-0.15-0.46-0.39-0.65-0.53c-0.45-0.35-1.12-0.36-1.58-0.03
						c-0.16,0.12-0.29,0.21-0.4,0.29c-0.22,0.13-0.35,0.19-0.46,0.14c-0.42-0.18,0.1-2.48,0.62-4.15c0.43-1.39,0.79-2.69,1.83-3.76
						c0.93-0.96,2.12-1.64,3.35-2.11c1.79-0.69,3.7-1.02,5.53-1.57c1.14-0.34,2.26-0.4,3.26,0.03c0.43,0.18,0.84,0.45,1.22,0.83
						c1.01,1,1.64,2.32,2.43,3.5c0.11,0.17,0.24,0.35,0.44,0.39c0.19,0.03,0.36-0.06,0.51-0.16c1.58-1.04,2.49-3.03,4.24-3.67
						c0.04-0.03,0.08-0.03,0.13-0.05c0.8-0.26,1.68-0.2,2.5-0.05c1.21,0.22,2.39,0.62,3.49,1.19c0.62,0.32,1.24,0.71,1.63,1.3
						c0.56,0.86,0.52,1.95,0.68,2.96c0.19,1.14,0.63,2.22,0.94,3.32c0.32,1.13,0.79,3.35-0.36,4.2c-0.33,0.24-0.6,0.17-1.11,0.1
						c-0.33-0.04-0.76-0.08-1.36-0.05c-0.75,0.05-1.27,0.19-1.66,0.29c-0.45,0.11-0.72,0.17-0.98-0.03
						c-0.29-0.24-0.22-0.56-0.27-2.02c-0.07-2.16-0.25-2.24-0.17-3.61c0.05-0.92,0.18-1.79,0.18-1.89
						c-0.02,0.06-0.07,0.36-0.08,0.41c-0.35,2.3-0.63,4.79-0.63,4.79c-0.27,2.41-0.45,2.26-0.77,4.84c-0.05,0.38-0.08,0.74-0.13,1.1
						H44.8c-0.5,0.11-1.2,0.26-2.04,0.4c-1.82,0.3-3.29,0.42-5.23,0.52c-3.08,0.17-4.62,0.25-5.37,0.21
						c-1.82-0.09-4.58-0.52-7.9-2.19l-0.11-0.02c0.07-0.47,0.13-0.95,0.21-1.43c0.26-1.71,0.54-3.39,0.83-5.03
						c0.08-0.96,0.16-1.92,0.22-2.88c0.02-0.36,0.19-1.23-0.03-1.55c-0.66,1.79-0.69,3.78-1.57,5.47c-0.13,0.24-0.27,0.47-0.51,0.59
						C23.07,207.63,22.83,207.56,22.61,207.42z"/>
					<path class="st153" d="M50.83,209.68c0.49,1.95,0.39,3.44,0.21,4.42c-0.27,1.48-0.79,2.28-0.78,3.41l-1.6,0.08
						c-0.06-0.68-0.29-1.18-0.5-2.22c-0.24-1.26-0.36-3.11,0.21-5.54l-0.55-0.03c0.39-0.1,0.91-0.24,1.66-0.29
						c0.61-0.03,1.04,0.01,1.36,0.05L50.83,209.68z"/>
					<path class="st153" d="M51.04,220.56c0.13,1.29-0.15,2.76-0.71,2.87c-0.21,0.05-0.3-0.15-1.01-0.59
						c-0.97-0.61-1.15-0.46-1.37-0.74c-0.56-0.72,0.54-1.87,0.7-3.79c0.03-0.28,0.03-0.51,0.01-0.72l1.6-0.08
						c0,0.22,0.03,0.47,0.08,0.73C50.54,219.25,50.92,219.39,51.04,220.56z"/>
					<path class="st129" d="M47.75,237.15c0.72,0.54,1.19,1.56,0.94,2.32c-0.3,0.93-1.6,1.2-3.37,1.58
						c-2.38,0.51-4.14,0.32-5.95,0.11c-2.28-0.27-2.75-0.63-3-1c-0.2-0.3-0.28-0.64-0.28-0.98c0-0.48,0.14-0.98,0.25-1.42
						c0.13-0.51,0.2-0.99,0.21-1.48c0.75,0.25,1.67,0.47,2.73,0.55c1.17,0.08,2.2-0.04,3-0.23c0.05,0.1,0.11,0.2,0.19,0.28
						C43.6,237.91,46.02,235.85,47.75,237.15z"/>
					<path class="st153" d="M34.25,186.97c0.19-1.29,0.71-3.33,2.57-4.54c0.56-0.36,1.13-0.58,1.67-0.71
						c1.05-0.25,1.98-0.15,2.37-0.11c2.23,0.25,4.95,1.68,5.74,4.27c0.08,0.24,0.43,1.35,0.21,2.65c-0.07,0.41-0.19,0.85-0.41,1.28
						c-0.21,0.41-0.67,1.31-1.6,1.84c-0.45,0.24-0.78,0.29-1.59,0.74c-0.62,0.34-0.96,0.5-1.1,0.73l-0.71,0.03
						c-0.65,0.55-1.67,0.5-2.47,0.35c-0.75-0.13-1.47-0.4-2.18-0.67l-0.56,0.15c-0.04-0.2-0.13-0.4-0.29-0.58
						c-0.29-0.34-0.67-0.57-0.97-0.89c-1-1.08-0.86-2.79-0.76-3.81C34.19,187.5,34.21,187.26,34.25,186.97z M43.9,186.07
						c0-0.42-0.33-0.75-0.73-0.75c-0.4,0-0.74,0.33-0.74,0.75c0,0.4,0.34,0.74,0.74,0.74C43.57,186.81,43.9,186.47,43.9,186.07z
						 M39.64,185.62c0-0.39-0.36-0.71-0.82-0.71c-0.45,0-0.82,0.32-0.82,0.71c0,0.4,0.37,0.72,0.82,0.72
						C39.28,186.33,39.64,186.01,39.64,185.62z"/>
					<path class="st26" d="M45.04,173.02c2.5,0.1-0.67,6.04,1.53,7.7c-0.73-0.21-1.64-0.47-2.7-0.82c-0.75-0.24-1.19-0.41-1.4-0.46
						c-1.42-0.38-2.82-0.03-4.24,0.12c-0.6,0.08-1.2,0.11-1.79,0.04c0.82-0.18,1.02-0.82,0.88-2.04c-0.12-1.02-0.29-3.44,0.81-4.05
						c0.6-0.34,1.31,0.08,1.95,0.29c1.14,0.38,2.39,0.11,3.5-0.36C44.06,173.24,44.53,173,45.04,173.02z"/>
					<path class="st194" d="M44.8,213.4h0.19c-0.1,1.06-0.17,2.02-0.21,2.71c-0.04-0.12-0.11-0.22-0.21-0.3
						c-0.46-0.39-1.29-0.02-2.22,0.3c-2.11,0.71-3.72,0.74-6.92,0.82c-0.47,0.01-0.93,0.01-1.36-0.01c-2.54-0.1-4.57-0.6-5.4-0.81
						c-3.24-0.82-3.7-1.63-4.47-1.19c-0.18,0.1-0.32,0.23-0.45,0.37c0.13-0.98,0.27-1.96,0.41-2.97l0.11,0.02
						c3.32,1.67,6.08,2.1,7.9,2.19c0.75,0.04,2.28-0.04,5.37-0.21c1.95-0.1,3.41-0.22,5.23-0.52
						C43.61,213.66,44.31,213.51,44.8,213.4z"/>
					<path class="st195" d="M44.78,216.11c0.36,0.81-0.22,2.35-0.27,3.1c-0.1,1.5-0.14,3-0.67,4.43c-0.57,1.57-1.1,3.16-1.19,4.84
						c-0.1,1.69,0.1,3.4-0.09,5.09c-0.08,0.71-0.64,2.22-0.27,3.02c-0.8,0.19-1.83,0.31-3,0.23c-1.06-0.08-1.98-0.29-2.73-0.55
						c0.03-0.34,0.02-0.67-0.01-1.03c-0.16-1.86-0.72-3.68-0.68-5.56c0.03-1.81,0.63-3.56,0.75-5.37c0.12-1.8-0.4-3.85-1.96-4.76
						c-0.21-0.12-0.45-0.22-0.67-0.22l0.08-2.4c0.44,0.02,0.89,0.02,1.36,0.01c3.21-0.08,4.82-0.11,6.92-0.82
						c0.93-0.32,1.75-0.69,2.22-0.3C44.67,215.89,44.73,215.99,44.78,216.11z"/>
					<path d="M43.17,185.32c0.4,0,0.73,0.33,0.73,0.75c0,0.4-0.33,0.74-0.73,0.74c-0.4,0-0.74-0.34-0.74-0.74
						C42.43,185.65,42.76,185.32,43.17,185.32z"/>
					<path class="st153" d="M42.9,196.44l0.06,0.15c-1.75,0.64-2.66,2.64-4.24,3.67c-0.15,0.1-0.33,0.19-0.51,0.16
						c-0.19-0.03-0.33-0.22-0.44-0.39c-0.79-1.18-1.42-2.49-2.43-3.5c-0.38-0.38-0.79-0.65-1.22-0.83l0.06-0.13
						c0.94-0.32,2.24-1.52,2.01-2.61l0.56-0.15c0.72,0.27,1.43,0.54,2.18,0.67c0.8,0.14,1.82,0.19,2.47-0.35l0.71-0.03
						C41.45,194.27,42.77,196.26,42.9,196.44z"/>
					<path d="M38.82,184.91c0.45,0,0.82,0.32,0.82,0.71c0,0.4-0.36,0.72-0.82,0.72c-0.45,0-0.82-0.32-0.82-0.72
						C38,185.23,38.37,184.91,38.82,184.91z"/>
					<path class="st26" d="M38.24,179.56l0.25,2.17c-0.54,0.13-1.11,0.35-1.67,0.71c-1.86,1.21-2.38,3.25-2.57,4.54
						c-1.63,0.71-3.5,0.93-5.2,0.39c-1.75-0.56-3.25-1.99-3.67-3.77c-0.16-0.7-0.15-1.47,0.25-2.06c0.42-0.61,1.18-0.9,1.9-1.11
						c2.54-0.75,5.22-1.02,7.85-0.78c0.43,0.04,0.78,0.03,1.05-0.03C37.04,179.67,37.64,179.63,38.24,179.56z"/>
					<path class="st129" d="M32.22,236c1.2,0.51,2.02,1.79,1.98,3.1c0,0.05,0,0.1-0.01,0.15c-0.03,0.47-0.2,0.97-0.6,1.24
						c-0.45,0.31-1.04,0.24-1.58,0.16c-3.02-0.46-6.06-0.93-9.09-1.39c-0.33-0.05-0.68-0.1-0.94-0.32c-0.35-0.28-0.45-0.77-0.39-1.2
						c0.06-0.44,0.24-0.85,0.39-1.27c0.26-0.76,0.38-1.55,0.46-2.34h0.03c0.81,0.28,1.82,0.52,3,0.6c1.26,0.08,2.37-0.06,3.24-0.24
						h0.08c0.01,0.1,0.02,0.19,0.04,0.29C29.17,236.04,31.22,235.57,32.22,236z"/>
					<path class="st195" d="M23.74,215.29c0.13-0.14,0.27-0.27,0.45-0.37c0.78-0.44,1.24,0.37,4.47,1.19
						c0.83,0.21,2.86,0.71,5.4,0.81l-0.08,2.4c-0.07,0-0.13,0.01-0.19,0.03c-0.37,0.09-0.59,0.46-0.78,0.8
						c-0.73,1.34-1.47,2.69-2.21,4.03c-0.55,1.01-1.11,2.04-1.35,3.17c-0.29,1.43-0.06,2.9-0.1,4.35c-0.03,0.9-0.63,1.86-0.56,2.79
						h-0.08c-0.87,0.19-1.97,0.33-3.24,0.24c-1.18-0.08-2.19-0.32-3-0.6h-0.03c0.04-0.37,0.08-0.74,0.12-1.1
						c0.2-1.74,0.53-3.47,0.74-5.21c0.3-2.51,0.35-5.05,0.14-7.57c-0.04-0.53-0.19-1.3-0.25-2.09
						C23.13,217.09,23.17,215.97,23.74,215.29z"/>
					<path class="st153" d="M22.61,207.42c0.33,1.64,0.24,2.91,0.08,3.79c-0.3,1.63-0.89,2.43-0.77,3.75l-1.61,0.06
						c0-0.88-0.29-1.34-0.51-2.54c-0.23-1.22-0.35-3,0.17-5.33c0.11-0.08,0.24-0.17,0.4-0.29c0.46-0.33,1.14-0.31,1.58,0.03
						C22.15,207.03,22.37,207.27,22.61,207.42z"/>
					<path class="st153" d="M22.72,218.17c0.03,1.14-0.25,2.28-0.74,2.38c-0.21,0.05-0.3-0.15-1.02-0.6
						c-0.96-0.6-1.15-0.46-1.36-0.73c-0.57-0.72,0.54-1.87,0.7-3.79c0.01-0.14,0.02-0.28,0.02-0.4l1.61-0.06
						c0.02,0.13,0.03,0.26,0.06,0.4c0.2,1.01,0.58,1.15,0.71,2.32C22.7,217.83,22.71,218,22.72,218.17z"/>
				</g>
				<g>
					<path class="st292" d="M34.06,216.92c-2.54-0.1-4.57-0.6-5.4-0.81c-3.24-0.82-3.7-1.63-4.47-1.19
						c-0.18,0.1-0.32,0.23-0.45,0.37c-0.57,0.67-0.61,1.79-0.53,2.86c0.07,0.79,0.21,1.56,0.25,2.09c0.2,2.52,0.16,5.05-0.14,7.57
						c-0.21,1.74-0.54,3.47-0.74,5.21c-0.04,0.36-0.08,0.73-0.12,1.1c-0.08,0.79-0.2,1.58-0.46,2.34c-0.14,0.42-0.33,0.83-0.39,1.27
						c-0.06,0.44,0.04,0.93,0.39,1.2c0.25,0.22,0.61,0.27,0.94,0.32c3.03,0.46,6.07,0.93,9.09,1.39c0.54,0.08,1.13,0.15,1.58-0.16
						c0.4-0.27,0.56-0.77,0.6-1.24c0.01-0.05,0.01-0.1,0.01-0.15c0.04-1.31-0.78-2.59-1.98-3.1c-1-0.43-3.05,0.03-3.38-1.24
						c-0.03-0.09-0.03-0.19-0.04-0.29c-0.08-0.93,0.53-1.89,0.56-2.79c0.04-1.45-0.19-2.91,0.1-4.35c0.24-1.13,0.8-2.16,1.35-3.17
						c0.73-1.34,1.47-2.69,2.21-4.03c0.19-0.34,0.4-0.71,0.78-0.8c0.07-0.02,0.13-0.03,0.19-0.03c0.23,0,0.46,0.1,0.67,0.22
						c1.56,0.91,2.08,2.96,1.96,4.76c-0.12,1.81-0.72,3.56-0.75,5.37c-0.03,1.88,0.52,3.7,0.68,5.56c0.03,0.35,0.03,0.69,0.01,1.03
						c-0.01,0.5-0.08,0.98-0.21,1.48c-0.11,0.45-0.25,0.94-0.25,1.42c0,0.34,0.08,0.67,0.28,0.98c0.24,0.37,0.72,0.73,3,1
						c1.8,0.21,3.56,0.4,5.95-0.11c1.77-0.37,3.07-0.65,3.37-1.58c0.24-0.76-0.22-1.78-0.94-2.32c-1.73-1.3-4.15,0.77-5.27-0.29
						c-0.08-0.08-0.14-0.18-0.19-0.28c-0.37-0.8,0.19-2.31,0.27-3.02c0.19-1.69-0.01-3.4,0.09-5.09c0.09-1.68,0.61-3.27,1.19-4.84
						c0.52-1.43,0.56-2.93,0.67-4.43c0.05-0.75,0.63-2.29,0.27-3.1c-0.04-0.12-0.11-0.22-0.21-0.3c-0.46-0.39-1.29-0.02-2.22,0.3
						c-2.11,0.71-3.72,0.74-6.92,0.82C34.95,216.94,34.5,216.94,34.06,216.92z"/>
					<path class="st292" d="M46.59,202.24C46.59,202.24,46.59,202.24,46.59,202.24c-0.02,0.07-0.07,0.37-0.08,0.42
						c-0.35,2.3-0.63,4.79-0.63,4.79c-0.27,2.41-0.45,2.26-0.77,4.84c-0.05,0.38-0.08,0.74-0.13,1.1c-0.1,1.06-0.17,2.02-0.21,2.71
						c0,0.01,0,0.02,0,0.03"/>
					<path class="st292" d="M23.72,215.51c0.01-0.07,0.02-0.14,0.03-0.21c0.13-0.98,0.27-1.96,0.41-2.97
						c0.07-0.47,0.13-0.95,0.21-1.43c0.26-1.71,0.54-3.39,0.83-5.03c0.08-0.96,0.16-1.92,0.22-2.88c0.02-0.36,0.19-1.23-0.03-1.55
						c-0.66,1.79-0.69,3.78-1.57,5.47c-0.13,0.24-0.27,0.47-0.51,0.59c-0.24,0.13-0.48,0.07-0.7-0.08
						c-0.24-0.15-0.46-0.39-0.65-0.53c-0.45-0.35-1.12-0.36-1.58-0.03c-0.16,0.12-0.29,0.21-0.4,0.29
						c-0.22,0.13-0.35,0.19-0.46,0.14c-0.42-0.18,0.1-2.48,0.62-4.15c0.43-1.39,0.79-2.69,1.83-3.76c0.93-0.96,2.12-1.64,3.35-2.11
						c1.79-0.69,3.7-1.02,5.53-1.57c1.14-0.34,2.26-0.4,3.26,0.03c0.43,0.18,0.84,0.45,1.22,0.83c1.01,1,1.64,2.32,2.43,3.5
						c0.11,0.17,0.24,0.35,0.44,0.39c0.19,0.03,0.36-0.06,0.51-0.16c1.58-1.04,2.49-3.03,4.24-3.67c0.04-0.03,0.08-0.03,0.13-0.05
						c0.8-0.26,1.68-0.2,2.5-0.05c1.21,0.22,2.39,0.62,3.49,1.19c0.62,0.32,1.24,0.71,1.63,1.3c0.56,0.86,0.52,1.95,0.68,2.96
						c0.19,1.14,0.63,2.22,0.94,3.32c0.32,1.13,0.79,3.35-0.36,4.2c-0.33,0.24-0.6,0.17-1.11,0.1c-0.33-0.04-0.76-0.08-1.36-0.05
						c-0.75,0.05-1.27,0.19-1.66,0.29c-0.45,0.11-0.72,0.17-0.98-0.03c-0.29-0.24-0.22-0.56-0.27-2.02
						c-0.07-2.16-0.25-2.24-0.17-3.61c0.05-0.92,0.18-1.79,0.18-1.89"/>
					<path class="st292" d="M34.17,195.59c0.94-0.32,2.24-1.52,2.01-2.61c-0.04-0.2-0.13-0.4-0.29-0.58
						c-0.29-0.34-0.67-0.57-0.97-0.89c-1-1.08-0.86-2.79-0.76-3.81c0.02-0.19,0.04-0.44,0.08-0.72c0.19-1.29,0.71-3.33,2.57-4.54
						c0.56-0.36,1.13-0.58,1.67-0.71c1.05-0.25,1.98-0.15,2.37-0.11c2.23,0.25,4.95,1.68,5.74,4.27c0.08,0.24,0.43,1.35,0.21,2.65
						c-0.07,0.41-0.19,0.85-0.41,1.28c-0.21,0.41-0.67,1.31-1.6,1.84c-0.45,0.24-0.78,0.29-1.59,0.74c-0.62,0.34-0.96,0.5-1.1,0.73
						c-0.66,1.15,0.67,3.13,0.79,3.32"/>
					<path class="st292" d="M34.42,186.9c-0.06,0.03-0.11,0.05-0.17,0.08c-1.63,0.71-3.5,0.93-5.2,0.39
						c-1.75-0.56-3.25-1.99-3.67-3.77c-0.16-0.7-0.15-1.47,0.25-2.06c0.42-0.61,1.18-0.9,1.9-1.11c2.54-0.75,5.22-1.02,7.85-0.78
						c0.43,0.04,0.78,0.03,1.05-0.03c0.82-0.18,1.02-0.82,0.88-2.04c-0.12-1.02-0.29-3.44,0.81-4.05c0.6-0.34,1.31,0.08,1.95,0.29
						c1.14,0.38,2.39,0.11,3.5-0.36c0.47-0.19,0.94-0.44,1.45-0.41c2.5,0.1-0.67,6.04,1.53,7.7c0.21,0.15,0.46,0.27,0.78,0.34
						c1.13,0.24,2.26,0.49,3.35,0.87c1.42,0.51,2.79,1.29,3.66,2.51c0.91,1.26,1.35,3.42,0.1,4.61c-1.48,1.41-4.68,1.87-7.56-0.5"/>
					<path class="st292" d="M39.64,185.62c0,0.4-0.36,0.72-0.82,0.72c-0.45,0-0.82-0.32-0.82-0.72c0-0.39,0.37-0.71,0.82-0.71
						C39.28,184.91,39.64,185.23,39.64,185.62z"/>
					<path class="st292" d="M43.9,186.07c0,0.4-0.33,0.74-0.73,0.74c-0.4,0-0.74-0.34-0.74-0.74c0-0.42,0.34-0.75,0.74-0.75
						C43.57,185.32,43.9,185.65,43.9,186.07z"/>
					<path class="st292" d="M37.39,190.04c0.12,0.18,0.69,0.99,1.79,1.21c0.73,0.14,1.33-0.06,1.58-0.16"/>
					<path class="st292" d="M41.04,186.85c-0.03,0.48-0.17,0.8-0.29,1.02c-0.22,0.39-0.45,0.51-0.58,0.92
						c-0.1,0.29-0.1,0.56-0.08,0.76"/>
					<path class="st292" d="M36.37,179.59c0.03,0,0.05,0.01,0.08,0.01c0.6,0.07,1.2,0.03,1.79-0.04c1.42-0.15,2.81-0.5,4.24-0.12
						c0.21,0.05,0.65,0.23,1.4,0.46c1.05,0.35,1.96,0.61,2.7,0.82c0.28,0.07,0.53,0.13,0.75,0.19"/>
					<path class="st292" d="M24.26,212.35c3.32,1.67,6.08,2.1,7.9,2.19c0.75,0.04,2.28-0.04,5.37-0.21c1.95-0.1,3.41-0.22,5.23-0.52
						c0.84-0.14,1.54-0.29,2.04-0.4"/>
					<path class="st292" d="M22.49,234.12c0.81,0.28,1.82,0.52,3,0.6c1.26,0.08,2.37-0.06,3.24-0.24"/>
					<path class="st292" d="M36.45,236.22c0.03,0.01,0.07,0.03,0.11,0.04c0.75,0.25,1.67,0.47,2.73,0.55c1.17,0.08,2.2-0.04,3-0.23
						c0.03-0.01,0.04-0.01,0.07-0.02"/>
					<path class="st292" d="M20.02,206.93c-0.02,0.07-0.03,0.14-0.04,0.21c-0.52,2.33-0.4,4.11-0.17,5.33
						c0.22,1.2,0.51,1.67,0.51,2.54c0,0.13-0.01,0.26-0.02,0.4c-0.16,1.92-1.27,3.07-0.7,3.79c0.22,0.27,0.4,0.13,1.36,0.73
						c0.72,0.45,0.81,0.65,1.02,0.6c0.49-0.09,0.77-1.24,0.74-2.38c-0.01-0.17-0.02-0.34-0.03-0.5c-0.13-1.17-0.51-1.31-0.71-2.32
						c-0.03-0.13-0.04-0.27-0.06-0.4c-0.13-1.32,0.46-2.12,0.77-3.75c0.16-0.88,0.25-2.15-0.08-3.79c-0.03-0.2-0.08-0.41-0.13-0.63"
						/>
					<path class="st292" d="M48.37,209.82c-0.57,2.43-0.45,4.29-0.21,5.54c0.2,1.04,0.44,1.54,0.5,2.22
						c0.02,0.22,0.02,0.45-0.01,0.72c-0.16,1.92-1.26,3.07-0.7,3.79c0.22,0.28,0.4,0.13,1.37,0.74c0.71,0.44,0.8,0.64,1.01,0.59
						c0.56-0.11,0.84-1.58,0.71-2.87c-0.13-1.17-0.51-1.31-0.71-2.32c-0.05-0.26-0.08-0.51-0.08-0.73
						c-0.01-1.13,0.51-1.93,0.78-3.41c0.18-0.99,0.28-2.48-0.21-4.42"/>
					<path class="st292" d="M36.75,192.83c0.72,0.27,1.43,0.54,2.18,0.67c0.8,0.14,1.82,0.19,2.47-0.35"/>
				</g>
			</g>
		</g>
		<path id="XMLID_21219_" class="st305" d="M161.14,237.95c5.82-0.2,13.92-0.19,23.58,0.79c7.79,0.79,13.44,1.9,21.89,3.57
			c22.47,4.45,26.87,7.15,36.77,5.96c7.9-0.96,14.22-3.78,18.24-5.96"/>
		<path id="XMLID_21218_" class="st306" d="M58.11,253.48c0.02,0.02,0.05,0.04,0.08,0.06c0.37,0.27,0.86,0.27,1.32,0.25
			c1.21-0.04,2.42-0.08,3.63-0.12c0.34-0.01,0.7-0.03,0.97-0.23c0.42-0.31,0.45-0.91,0.44-1.43c-0.06-6.67,0.09-13.34-0.01-20
			c-0.09-6.18-0.12-12.36-0.09-18.54c0.06-12.36,0.37-24.73,0.92-37.08c0.75-16.84,2.4-33.66,2.4-50.54
			c0.01-0.67-0.03-1.43-0.54-1.86c-0.41-0.34-1-0.35-1.54-0.35c-1.34,0.02-2.68,0.04-4.02,0.06c-0.94,0.01-2.03,0.1-2.57,0.86
			c-0.36,0.51-0.38,1.18-0.38,1.8c-0.1,24.46-0.07,48.9-0.16,73.37c-0.06,17.32-0.3,34.65-0.91,51.96
			C57.62,252.33,57.64,253.07,58.11,253.48z"/>
		<path id="XMLID_21217_" class="st306" d="M156.55,258.44c0.02,0.02,0.05,0.04,0.08,0.06c0.37,0.27,0.86,0.27,1.32,0.25
			c1.21-0.04,2.42-0.08,3.63-0.12c0.34-0.01,0.7-0.03,0.97-0.23c0.42-0.31,0.45-0.91,0.44-1.43c-0.06-6.67,0.09-13.34-0.01-20
			c-0.09-6.18-0.12-12.36-0.09-18.54c0.06-12.36,0.37-24.73,0.92-37.08c0.75-16.84,2.4-33.66,2.4-50.54
			c0.01-0.67-0.03-1.43-0.54-1.86c-0.41-0.34-1-0.35-1.54-0.35c-1.34,0.02-2.68,0.04-4.02,0.06c-0.94,0.01-2.03,0.1-2.57,0.86
			c-0.36,0.51-0.38,1.18-0.38,1.8c-0.1,24.46-0.07,48.9-0.16,73.37c-0.06,17.32-0.3,34.65-0.91,51.96
			C156.06,257.29,156.08,258.02,156.55,258.44z"/>
		<g id="XMLID_21215_">
			<path d="M37.91,119.46L52.3,91.7c2.4-4.63,4.75-9.28,7.26-13.85c2.53-4.56,5.04-9.12,7.74-13.59c0.01-0.02,0.05-0.03,0.07-0.02
				c0.02,0.01,0.03,0.04,0.02,0.06c-2.2,4.73-4.58,9.37-6.95,14.01C58.05,82.95,55.5,87.5,53,92.08l-15,27.43
				c-0.01,0.02-0.04,0.03-0.07,0.02C37.91,119.52,37.9,119.49,37.91,119.46z"/>
		</g>
		<g id="XMLID_21212_">
			<path d="M43.47,118.87l14.49-26.97c2.42-4.49,4.79-9.01,7.31-13.45c2.55-4.42,5.07-8.86,7.79-13.18
				c0.01-0.02,0.05-0.03,0.07-0.02c0.02,0.01,0.03,0.04,0.02,0.06c-2.21,4.61-4.62,9.11-7,13.62c-2.41,4.5-4.97,8.91-7.48,13.35
				l-15.1,26.64c-0.01,0.02-0.04,0.03-0.07,0.02C43.47,118.92,43.46,118.89,43.47,118.87z"/>
		</g>
		<g id="XMLID_21210_">
			<path d="M51.22,119.07L64.1,91.71c2.15-4.56,4.25-9.14,6.51-13.64c2.28-4.49,4.55-9,7.01-13.4c0.01-0.02,0.04-0.03,0.07-0.02
				c0.02,0.01,0.03,0.04,0.02,0.06c-1.94,4.66-4.08,9.22-6.2,13.8c-2.14,4.56-4.44,9.05-6.69,13.56l-13.52,27.05
				c-0.01,0.02-0.04,0.03-0.07,0.02C51.21,119.12,51.2,119.09,51.22,119.07z"/>
		</g>
		<g id="XMLID_21140_">
			<path d="M58.96,119.07l11.29-26.65c1.89-4.44,3.72-8.9,5.72-13.29c2.02-4.38,4.02-8.77,6.22-13.07c0.01-0.02,0.04-0.03,0.07-0.02
				c0.02,0.01,0.03,0.04,0.02,0.06c-1.67,4.53-3.54,8.98-5.4,13.43c-1.88,4.44-3.91,8.82-5.9,13.21l-11.94,26.37
				c-0.01,0.03-0.04,0.04-0.07,0.02C58.96,119.12,58.95,119.09,58.96,119.07z"/>
		</g>
		<g id="XMLID_21138_">
			<path d="M65.51,120.86l9.9-26.83c1.65-4.47,3.25-8.96,5.02-13.39c1.79-4.42,3.56-8.84,5.53-13.19c0.01-0.03,0.04-0.04,0.07-0.02
				c0.02,0.01,0.03,0.04,0.03,0.06c-1.44,4.55-3.07,9.03-4.69,13.51c-1.64,4.47-3.45,8.89-5.21,13.32L65.6,120.89
				c-0.01,0.03-0.04,0.04-0.06,0.03C65.51,120.91,65.5,120.88,65.51,120.86z"/>
		</g>
		<g id="XMLID_21136_">
			<path d="M70.87,122.05l9.9-28.21c1.65-4.7,3.25-9.42,5.02-14.08c1.79-4.65,3.56-9.31,5.54-13.89c0.01-0.03,0.04-0.04,0.07-0.03
				c0.02,0.01,0.04,0.04,0.03,0.06c-1.43,4.78-3.07,9.49-4.69,14.2c-1.64,4.7-3.45,9.35-5.21,14.01l-10.55,27.98
				c-0.01,0.03-0.04,0.04-0.06,0.03C70.87,122.1,70.86,122.08,70.87,122.05z"/>
		</g>
		<g id="XMLID_21134_">
			<path d="M77.82,121.66l8.2-27.5c1.37-4.58,2.69-9.18,4.17-13.73c1.51-4.54,3-9.08,4.7-13.57c0.01-0.03,0.04-0.04,0.06-0.03
				c0.02,0.01,0.04,0.03,0.03,0.06c-1.15,4.65-2.5,9.24-3.84,13.83c-1.36,4.59-2.89,9.12-4.36,13.67l-8.87,27.3
				c-0.01,0.03-0.04,0.04-0.06,0.03C77.83,121.71,77.81,121.68,77.82,121.66z"/>
		</g>
		<g id="XMLID_21132_">
			<path d="M85.96,121.86l6.51-26.2c1.09-4.37,2.12-8.75,3.33-13.08c1.23-4.33,2.44-8.66,3.86-12.94c0.01-0.03,0.04-0.04,0.06-0.03
				c0.02,0.01,0.04,0.03,0.03,0.06c-0.86,4.42-1.94,8.79-2.99,13.17c-1.08,4.37-2.33,8.69-3.52,13.03l-7.19,26.02
				c-0.01,0.03-0.03,0.04-0.06,0.03C85.97,121.91,85.95,121.88,85.96,121.86z"/>
		</g>
		<g id="XMLID_21130_">
			<path d="M93.9,122.06l4.92-27.76c0.82-4.63,1.59-9.26,2.53-13.87c0.97-4.6,1.91-9.2,3.07-13.76c0.01-0.03,0.03-0.04,0.06-0.04
				c0.02,0.01,0.04,0.03,0.04,0.05c-0.6,4.67-1.4,9.3-2.19,13.93c-0.81,4.63-1.8,9.22-2.73,13.83L94,122.08
				c-0.01,0.03-0.03,0.04-0.06,0.04C93.91,122.11,93.9,122.08,93.9,122.06z"/>
		</g>
		<g id="XMLID_21128_">
			<path d="M99.66,122.85l4.42-27.26c0.74-4.54,1.43-9.1,2.28-13.62c0.88-4.52,1.75-9.04,2.83-13.52c0.01-0.03,0.03-0.04,0.06-0.04
				c0.02,0.01,0.04,0.03,0.04,0.05c-0.51,4.58-1.23,9.13-1.94,13.68c-0.73,4.54-1.63,9.06-2.48,13.58l-5.11,27.14
				c-0.01,0.03-0.03,0.04-0.06,0.04C99.67,122.9,99.65,122.88,99.66,122.85z"/>
		</g>
		<g id="XMLID_21126_">
			<path d="M105.42,124.04l4.02-27.36c0.67-4.56,1.29-9.13,2.09-13.67c0.82-4.54,1.62-9.07,2.63-13.58
				c0.01-0.03,0.03-0.04,0.06-0.04c0.03,0.01,0.04,0.03,0.04,0.05c-0.45,4.6-1.1,9.16-1.74,13.72c-0.66,4.56-1.5,9.09-2.28,13.63
				l-4.71,27.25c0,0.03-0.03,0.05-0.06,0.04C105.43,124.1,105.41,124.07,105.42,124.04z"/>
		</g>
		<g id="XMLID_21124_">
			<path d="M111.97,123.45l3.13-26.65c0.53-4.44,0.99-8.89,1.64-13.32c0.67-4.42,1.32-8.85,2.18-13.24
				c0.01-0.03,0.03-0.04,0.06-0.04c0.03,0,0.04,0.03,0.04,0.05c-0.29,4.47-0.8,8.92-1.29,13.36c-0.51,4.44-1.2,8.86-1.84,13.29
				l-3.82,26.56c0,0.03-0.03,0.05-0.06,0.04C111.98,123.5,111.96,123.48,111.97,123.45z"/>
		</g>
		<g id="XMLID_21122_">
			<path d="M118.72,124.44l2.53-27.14c0.43-4.52,0.8-9.05,1.34-13.56c0.57-4.51,1.12-9.02,1.89-13.5c0-0.03,0.03-0.05,0.06-0.04
				c0.03,0,0.04,0.03,0.04,0.05c-0.19,4.55-0.6,9.07-0.99,13.6c-0.41,4.52-1.01,9.03-1.54,13.54l-3.23,27.07
				c0,0.03-0.03,0.05-0.06,0.04C118.73,124.5,118.72,124.47,118.72,124.44z"/>
		</g>
		<g id="XMLID_21120_">
			<path d="M127.06,126.63l1.04-28.31c0.18-4.72,0.3-9.44,0.6-14.15c0.32-4.71,0.63-9.42,1.14-14.12c0-0.03,0.03-0.05,0.06-0.04
				c0.03,0,0.04,0.02,0.04,0.05c0.05,4.73-0.1,9.45-0.25,14.17c-0.17,4.72-0.51,9.43-0.79,14.14l-1.74,28.28
				c0,0.03-0.03,0.05-0.05,0.05C127.08,126.68,127.06,126.66,127.06,126.63z"/>
		</g>
		<g id="XMLID_21118_">
			<path d="M134.6,127.03l0.84-28.21c0.14-4.7,0.23-9.41,0.5-14.1c0.29-4.7,0.56-9.39,1.05-14.08c0-0.03,0.03-0.05,0.05-0.04
				c0.03,0,0.04,0.02,0.05,0.05c0.09,4.71-0.04,9.41-0.15,14.12c-0.13,4.7-0.44,9.4-0.7,14.09l-1.54,28.18
				c0,0.03-0.03,0.05-0.05,0.05C134.62,127.08,134.6,127.06,134.6,127.03z"/>
		</g>
		<g id="XMLID_21116_">
			<path d="M141.95,127.23l-0.55-28.39c-0.09-4.73-0.23-9.46-0.2-14.2c0.06-4.73,0.1-9.47,0.35-14.2c0-0.03,0.03-0.05,0.05-0.05
				c0.03,0,0.05,0.02,0.05,0.05c0.32,4.73,0.42,9.46,0.55,14.19c0.1,4.73,0.02,9.46,0,14.2l-0.15,28.4c0,0.03-0.02,0.05-0.05,0.05
				C141.97,127.28,141.95,127.26,141.95,127.23z"/>
		</g>
		<g id="XMLID_21114_">
			<path d="M151.68,128.03l-2.83-28.56c-0.47-4.76-0.99-9.52-1.34-14.29c-0.32-4.77-0.66-9.54-0.79-14.33
				c0-0.03,0.02-0.05,0.05-0.05c0.03,0,0.05,0.02,0.05,0.04c0.7,4.74,1.18,9.5,1.69,14.26c0.48,4.76,0.78,9.53,1.14,14.3l2.13,28.62
				c0,0.03-0.02,0.05-0.05,0.05C151.7,128.07,151.68,128.05,151.68,128.03z"/>
		</g>
		<g id="XMLID_21112_">
			<path d="M159.22,127.24l-3.72-27.85c-0.62-4.64-1.29-9.28-1.79-13.94c-0.47-4.66-0.96-9.32-1.24-14c0-0.03,0.02-0.05,0.05-0.05
				c0.03,0,0.05,0.02,0.05,0.04c0.85,4.61,1.48,9.26,2.13,13.89c0.63,4.64,1.08,9.3,1.59,13.96l3.03,27.94
				c0,0.03-0.02,0.05-0.04,0.06C159.25,127.28,159.23,127.26,159.22,127.24z"/>
		</g>
		<g id="XMLID_21110_">
			<path d="M164.58,126.05l-4.42-27.35c-0.73-4.56-1.52-9.11-2.13-13.69c-0.59-4.58-1.2-9.16-1.59-13.77c0-0.03,0.02-0.05,0.05-0.05
				c0.03,0,0.05,0.02,0.05,0.04c0.96,4.52,1.71,9.08,2.48,13.63c0.74,4.56,1.31,9.14,1.94,13.71l3.72,27.45
				c0,0.03-0.02,0.05-0.04,0.06C164.61,126.09,164.59,126.07,164.58,126.05z"/>
		</g>
		<g id="XMLID_21108_">
			<path d="M173.72,126.45l-7.09-26.82c-1.18-4.47-2.41-8.93-3.47-13.43c-1.04-4.51-2.09-9.01-2.94-13.56
				c-0.01-0.03,0.01-0.05,0.04-0.06c0.03,0,0.05,0.01,0.06,0.03c1.4,4.41,2.6,8.88,3.81,13.34c1.19,4.47,2.21,8.98,3.28,13.48
				l6.41,26.99c0.01,0.03-0.01,0.05-0.04,0.06C173.75,126.49,173.72,126.47,173.72,126.45z"/>
		</g>
		<g id="XMLID_21106_">
			<path d="M183.65,128.83l-9.47-28.09c-1.57-4.68-3.2-9.35-4.66-14.07c-1.44-4.73-2.89-9.45-4.14-14.24
				c-0.01-0.03,0.01-0.05,0.04-0.06c0.02-0.01,0.05,0.01,0.06,0.03c1.79,4.61,3.39,9.29,4.99,13.96c1.58,4.68,3,9.41,4.47,14.13
				l8.8,28.3c0.01,0.03-0.01,0.05-0.03,0.06C183.68,128.87,183.65,128.86,183.65,128.83z"/>
		</g>
		<g id="XMLID_21104_">
			<path d="M193.58,127.84l-11.94-27.66c-1.99-4.61-4.02-9.2-5.9-13.86c-1.85-4.67-3.72-9.33-5.39-14.07
				c-0.01-0.03,0-0.05,0.03-0.06c0.02-0.01,0.05,0,0.06,0.03c2.2,4.52,4.2,9.13,6.22,13.72c2,4.61,3.83,9.28,5.72,13.94l11.29,27.93
				c0.01,0.03,0,0.05-0.03,0.06C193.61,127.88,193.59,127.87,193.58,127.84z"/>
		</g>
		<g id="XMLID_21098_">
			<g id="XMLID_21099_">
				<g>
					<path class="st198" d="M148.63,168.02c4,11.54,1.7,17.36,0.61,39.91c-1.19,24.81,1.97,38.87-4.1,41.28
						c-1.49,0.59-2.75,0.18-4.78-0.32c-1.36-0.33-6.21-0.7-15.25-1.28c0.14-8.2,0.53-14.87,0.88-19.48
						c0.33-4.56,0.98-12.06,0.55-21.82c-0.38-8.67-1.28-11.5-3.48-13.2c-1.1-0.85-2.75-1.58-11.03-1.07
						c-9.26,0.58-13.89,0.88-15.97,2.52c-4.42,3.51-3.4,9.7-3.66,24.4c-0.1,5.9-0.43,14.68-1.57,25.55
						c-3.11-0.23-6.23-0.32-9.35-0.14c-1.56,0.1-5.33,0.37-7.83-1.99c-2.56-2.41-2.33-6.42-2.35-9.67
						c-0.06-9.05-1.23-18.05-1.3-27.1c-0.08-8.84,1.39-17.58,2.64-26.3c1.27-8.91,1.89-19.34,8.37-26.32
						c11.2-12.07,27.35-12.69,29.32-12.74c3.54-0.08,14.86-0.17,25.03,7.7C143.82,154.51,146.89,163.01,148.63,168.02z"/>
					<path class="st180" d="M126.53,206.31c0.43,9.76-0.21,17.27-0.55,21.82c-0.35,4.62-0.74,11.28-0.88,19.48
						c-3.45-0.21-7.52-0.46-12.24-0.76c-7.36-0.45-14.69-1.8-22.03-2.35c1.13-10.87,1.47-19.65,1.57-25.55
						c0.26-14.7-0.76-20.88,3.66-24.4c2.08-1.64,6.71-1.94,15.97-2.52c8.27-0.52,9.92,0.21,11.03,1.07
						C125.25,194.81,126.15,197.64,126.53,206.31z"/>
				</g>
				<g>
					<path class="st305" d="M125.11,247.62c9.05,0.58,13.9,0.95,15.25,1.28c2.03,0.51,3.29,0.91,4.78,0.32
						c6.07-2.41,2.91-16.47,4.1-41.28c1.09-22.56,3.39-28.37-0.61-39.91c-1.74-5.01-4.81-13.52-13.28-20.07
						c-10.17-7.87-21.49-7.77-25.03-7.7c-1.97,0.05-18.12,0.66-29.32,12.74c-6.47,6.98-7.09,17.4-8.37,26.32
						c-1.25,8.72-2.72,17.46-2.64,26.3c0.08,9.05,1.24,18.05,1.3,27.1c0.02,3.25-0.2,7.27,2.35,9.67c2.5,2.36,6.27,2.08,7.83,1.99
						c3.12-0.18,6.24-0.1,9.35,0.14c7.34,0.55,14.68,1.9,22.03,2.35C117.59,247.16,121.65,247.41,125.11,247.62z"/>
					<path class="st305" d="M90.73,245.45c0.04-0.32,0.07-0.63,0.1-0.94c1.13-10.87,1.47-19.65,1.57-25.55
						c0.26-14.7-0.76-20.88,3.66-24.4c2.08-1.64,6.71-1.94,15.97-2.52c8.27-0.52,9.92,0.21,11.03,1.07c2.2,1.7,3.1,4.53,3.48,13.2
						c0.43,9.76-0.21,17.27-0.55,21.82c-0.35,4.62-0.74,11.28-0.88,19.48c-0.01,0.18-0.01,0.36-0.01,0.55"/>
				</g>
			</g>
		</g>
		<path id="XMLID_21097_" class="st307" d="M32.48,214.25c0.06-0.05,0.13-0.1,0.21-0.14c0.18-0.08,0.39-0.1,0.59-0.11
			c0.84-0.05,1.69-0.08,2.54-0.07c0.59,0,1.39-0.12,1.94,0.15c0.85,0.45,1.05,1.58,0.9,2.45c-0.06,0.33-0.16,0.68-0.42,0.89
			c-0.26,0.22-0.62,0.26-0.96,0.29c-1.49,0.13-3,0.11-4.49,0.04c-0.32-0.02-0.68-0.05-0.9-0.29c-0.51-0.56-0.1-1.83,0.12-2.43
			C32.11,214.73,32.25,214.44,32.48,214.25z"/>
		
			<rect id="XMLID_21096_" x="96.45" y="217.12" transform="matrix(0.9663 0.2574 -0.2574 0.9663 59.9536 -18.9552)" class="st308" width="11.84" height="4.77"/>
		
			<rect id="XMLID_21095_" x="97.77" y="225.07" transform="matrix(0.9663 0.2574 -0.2574 0.9663 62.0452 -19.0277)" class="st308" width="11.84" height="4.77"/>
		
			<rect id="XMLID_21094_" x="95.2" y="231.92" transform="matrix(0.9724 -0.2334 0.2334 0.9724 -51.8929 30.0714)" class="st308" width="11.84" height="4.77"/>
		
			<rect id="XMLID_21037_" x="100.86" y="239.45" transform="matrix(0.9663 0.2574 -0.2574 0.9663 65.85 -19.3375)" class="st308" width="11.84" height="4.77"/>
		
			<rect id="XMLID_20981_" x="106.99" y="213.94" transform="matrix(0.9948 -0.1019 0.1019 0.9948 -21.4626 12.6364)" class="st308" width="11.84" height="4.77"/>
		
			<rect id="XMLID_20941_" x="110.24" y="220.45" transform="matrix(0.956 0.2935 -0.2935 0.956 70.515 -24.2783)" class="st308" width="11.84" height="4.77"/>
		
			<rect id="XMLID_20939_" x="106.99" y="227.93" transform="matrix(0.9513 -0.3084 0.3084 0.9513 -65.5267 46.0493)" class="st308" width="11.84" height="4.77"/>
		
			<rect id="XMLID_20938_" x="108.72" y="234.89" transform="matrix(0.9662 0.2578 -0.2578 0.9662 65.0397 -21.5326)" class="st308" width="11.84" height="4.77"/>
		
			<rect id="XMLID_20937_" x="173.37" y="205.42" transform="matrix(0.9663 0.2574 -0.2574 0.9663 59.5349 -39.1493)" class="st309" width="11.84" height="4.77"/>
		
			<rect id="XMLID_20936_" x="174.69" y="213.37" transform="matrix(0.9663 0.2574 -0.2574 0.9663 61.6265 -39.2218)" class="st309" width="11.84" height="4.77"/>
		
			<rect id="XMLID_20935_" x="172.11" y="220.23" transform="matrix(0.9724 -0.2334 0.2334 0.9724 -47.0388 47.7005)" class="st309" width="11.84" height="4.77"/>
		
			<rect id="XMLID_20934_" x="177.78" y="227.75" transform="matrix(0.9663 0.2574 -0.2574 0.9663 65.4314 -39.5316)" class="st309" width="11.84" height="4.77"/>
		
			<rect id="XMLID_20933_" x="183.91" y="202.24" transform="matrix(0.9948 -0.1019 0.1019 0.9948 -19.8697 20.4161)" class="st309" width="11.84" height="4.77"/>
		
			<rect id="XMLID_20932_" x="187.16" y="208.75" transform="matrix(0.956 0.2935 -0.2935 0.956 70.4697 -47.368)" class="st309" width="11.84" height="4.77"/>
		
			<rect id="XMLID_20931_" x="183.91" y="216.24" transform="matrix(0.9513 -0.3084 0.3084 0.9513 -58.1702 69.2009)" class="st309" width="11.84" height="4.77"/>
		
			<rect id="XMLID_20930_" x="185.64" y="223.2" transform="matrix(0.9662 0.2578 -0.2578 0.9662 64.6242 -41.7555)" class="st309" width="11.84" height="4.77"/>
		
			<rect id="XMLID_20929_" x="207.6" y="211.24" transform="matrix(0.9663 0.2574 -0.2574 0.9663 62.1869 -47.7656)" class="st309" width="11.84" height="4.77"/>
		
			<rect id="XMLID_20928_" x="208.92" y="219.19" transform="matrix(0.9663 0.2574 -0.2574 0.9663 64.2785 -47.838)" class="st309" width="11.84" height="4.77"/>
		
			<rect id="XMLID_20927_" x="206.35" y="226.05" transform="matrix(0.9724 -0.2334 0.2334 0.9724 -47.4518 55.8512)" class="st309" width="11.84" height="4.77"/>
		
			<rect id="XMLID_20926_" x="212.01" y="233.57" transform="matrix(0.9663 0.2574 -0.2574 0.9663 68.0834 -48.1478)" class="st309" width="11.84" height="4.77"/>
		
			<rect id="XMLID_20925_" x="218.14" y="208.06" transform="matrix(0.9948 -0.1019 0.1019 0.9948 -20.2847 23.936)" class="st309" width="11.84" height="4.77"/>
		
			<rect id="XMLID_20924_" x="221.39" y="214.57" transform="matrix(0.956 0.2935 -0.2935 0.956 73.6856 -57.1589)" class="st309" width="11.84" height="4.77"/>
		
			<rect id="XMLID_20923_" x="218.14" y="222.06" transform="matrix(0.9513 -0.3084 0.3084 0.9513 -58.2966 80.0424)" class="st309" width="11.84" height="4.77"/>
		
			<rect id="XMLID_20922_" x="219.87" y="229.02" transform="matrix(0.9662 0.2578 -0.2578 0.9662 67.2816 -50.3835)" class="st309" width="11.84" height="4.77"/>
		<g id="XMLID_20920_">
			<path d="M36.35,253.85c5.98-0.28,11.97-0.41,17.97-0.39c5.99,0.08,11.98,0.33,17.97,0.72c5.99,0.37,11.95,1.06,17.9,1.81
				c5.94,0.76,11.87,1.57,17.8,2.42c5.92,0.9,11.83,1.89,17.73,2.89c5.9,0.99,11.79,2.02,17.69,2.42c5.91,0.35,11.88-0.15,17.75-1.1
				c5.89-0.92,11.69-2.41,17.33-4.41c0.03-0.01,0.05,0,0.06,0.03c0.01,0.03,0,0.05-0.03,0.06c-5.59,2.14-11.38,3.77-17.27,4.83
				c-2.95,0.54-5.92,0.93-8.9,1.17c-2.98,0.26-5.99,0.33-8.98,0.19c-5.99-0.29-11.9-1.35-17.8-2.3c-5.9-0.97-11.81-1.93-17.73-2.8
				c-11.84-1.71-23.69-3.51-35.62-4.45c-11.93-0.95-23.91-1.3-35.87-1.01c-0.03,0-0.05-0.02-0.05-0.05
				C36.3,253.88,36.32,253.85,36.35,253.85z"/>
		</g>
	</g>
</g>
<g id="NATURALEZA" class="st0">
</g>
<g id="Oficios" class="st0">
</g>
<g id="comunidades" class="st0">
</g>
<g id="zona" class="st0">
</g>
<g id="EQUIPAMIENTO" class="st0">
</g>
<g id="texto_mapa" class="st0">
</g>
<g id="nombre_reserva" class="st0">
</g>
</svg>
