<?xml version="1.0" encoding="utf-8"?>
<!-- Generator: Adobe Illustrator 23.0.2, SVG Export Plug-In . SVG Version: 6.00 Build 0)  -->
<svg version="1.1" xmlns="http://www.w3.org/2000/svg" xmlns:xlink="http://www.w3.org/1999/xlink" x="0px" y="0px"
	 viewBox="0 0 275.74 352.34" style="enable-background:new 0 0 275.74 352.34;" xml:space="preserve">
<style type="text/css">
	.st0{display:none;}
	.st1{display:inline;}
	.st2{fill:#FFFFFF;}
	.st3{fill:none;stroke:#1D1D1B;stroke-width:0.25;stroke-miterlimit:10;}
	.st4{fill:#CABA9F;stroke:#1D1D1B;stroke-width:0.25;stroke-miterlimit:10;}
	.st5{fill:#1D1D1B;stroke:#1D1D1B;stroke-width:0.25;stroke-miterlimit:10;}
	.st6{fill:#E20613;stroke:#1D1D1B;stroke-width:0.25;stroke-miterlimit:10;}
	.st7{fill:#35A8E0;stroke:#1D1D1B;stroke-width:0.25;stroke-miterlimit:10;}
	.st8{fill:#C6C6C5;stroke:#1D1D1B;stroke-width:0.25;stroke-miterlimit:10;}
	.st9{fill:#1D1D1B;}
	.st10{fill:#E5007E;}
	.st11{fill:#E84E1B;}
	.st12{display:inline;opacity:0.77;fill:#E1BF80;}
	.st13{display:inline;opacity:0.81;fill:#BBD5DE;}
	.st14{display:inline;opacity:0.85;fill:#E3F3C1;}
	.st15{display:inline;opacity:0.83;fill:#DDBDEE;}
	.st16{display:inline;opacity:0.73;fill:#A2CAA3;}
	.st17{display:inline;opacity:0.44;fill:#39B54A;stroke:#39B54A;stroke-width:8;stroke-miterlimit:10;}
	.st18{display:inline;fill:none;stroke:#0000FF;stroke-width:3;stroke-miterlimit:10;}
	.st19{display:inline;fill:none;}
	.st20{display:inline;fill:#CCCCCC;stroke:#CCCCCC;stroke-width:3;stroke-miterlimit:10;}
	.st21{display:inline;opacity:0.94;fill:#FFFF00;}
	.st22{display:inline;fill:#8CC63F;}
	.st23{fill:#63D0F7;}
	.st24{fill:#D9E021;}
	.st25{fill:#39B54A;}
	.st26{fill:#FFFF00;}
	.st27{fill:#8CC63F;}
	.st28{fill:#F4BE78;}
	.st29{display:inline;opacity:0.53;fill:#8CC63F;}
	.st30{display:inline;fill:#16905C;stroke:#009245;stroke-miterlimit:10;}
	.st31{display:inline;fill:#009245;stroke:#009245;stroke-miterlimit:10;}
	.st32{display:inline;fill:#168F54;stroke:#009245;stroke-miterlimit:10;}
	.st33{display:inline;opacity:0.99;fill:#FFFF00;}
	.st34{display:inline;fill:#A67C52;stroke:#A67C52;stroke-miterlimit:10;}
	.st35{fill:#A67C52;stroke:#A67C52;stroke-miterlimit:10;}
	.st36{fill:none;stroke:#FFFFFF;stroke-miterlimit:10;}
	.st37{fill:none;stroke:#FFFFFF;stroke-width:0.5;stroke-miterlimit:10;}
	.st38{fill:#80AD28;}
	.st39{fill:#67A32E;}
	.st40{display:inline;opacity:0.65;fill:#8CC63F;stroke:#8CC63F;stroke-miterlimit:10;}
	.st41{display:inline;opacity:0.69;}
	.st42{fill:#6FA62D;}
	.st43{fill:none;stroke:#DBDBDB;stroke-width:7;stroke-miterlimit:10;}
	.st44{display:inline;fill:none;stroke:#999999;stroke-width:7;stroke-miterlimit:10;}
	.st45{display:inline;fill:#F2F20A;stroke:#999999;stroke-width:7;stroke-miterlimit:10;}
	.st46{fill:none;stroke:#999999;stroke-width:7;stroke-miterlimit:10;}
	.st47{fill:none;stroke:#1A1A1A;stroke-width:7;stroke-miterlimit:10;}
	.st48{fill:none;stroke:#000000;stroke-width:7;stroke-miterlimit:10;}
	.st49{display:inline;fill:none;stroke:#FBB03B;stroke-width:3;stroke-miterlimit:10;}
	.st50{fill:none;stroke:#0000FF;stroke-width:7;stroke-miterlimit:10;}
	.st51{fill:#603813;}
	.st52{display:inline;fill:none;stroke:#0000FF;stroke-width:5;stroke-miterlimit:10;}
	.st53{fill:none;stroke:#0000FF;stroke-width:5;stroke-miterlimit:10;}
	.st54{display:inline;opacity:0.94;fill:#603813;}
	.st55{display:inline;fill:none;stroke:#F15A24;stroke-width:3;stroke-miterlimit:10;}
	.st56{fill:none;stroke:#FBB03B;stroke-width:3;stroke-miterlimit:10;}
	.st57{display:inline;fill:none;stroke:#D85C4C;stroke-width:6;stroke-miterlimit:10;}
	.st58{display:inline;fill:none;stroke:#40CCC8;stroke-width:6;stroke-miterlimit:10;}
	.st59{display:inline;fill:none;stroke:#1FC11F;stroke-width:6;stroke-miterlimit:10;}
	.st60{display:inline;fill:none;stroke:#1FC11F;stroke-width:4;stroke-miterlimit:10;}
	.st61{display:inline;fill:none;stroke:#9B5F10;stroke-width:6;stroke-miterlimit:10;}
	.st62{display:inline;opacity:0.47;}
	.st63{display:inline;opacity:0.45;}
	.st64{fill:#20FFFF;}
	.st65{fill:#52BE61;}
	.st66{fill:#5A3D2A;}
	.st67{fill:#928772;}
	.st68{fill:#C79924;}
	.st69{display:inline;fill:none;stroke:#000000;stroke-miterlimit:10;}
	.st70{display:inline;opacity:0.45;fill:none;stroke:#67200A;stroke-width:3;stroke-miterlimit:10;}
	.st71{display:inline;opacity:0.64;fill:none;stroke:#67200A;stroke-width:4;stroke-miterlimit:10;}
	.st72{display:inline;opacity:0.64;fill:none;stroke:#67200A;stroke-width:7;stroke-miterlimit:10;}
	.st73{display:inline;opacity:0.64;fill:none;stroke:#67200A;stroke-width:2;stroke-miterlimit:10;}
	.st74{display:inline;opacity:0.4;fill:#F2F2F2;}
	.st75{display:inline;opacity:0.39;fill:#F2F2F2;}
	.st76{display:inline;opacity:0.45;fill:#F2F2F2;stroke:#FFFFFF;stroke-width:3;stroke-miterlimit:10;}
	.st77{display:inline;opacity:0.45;fill:#F2F2F2;}
	.st78{display:inline;opacity:0.31;fill:#F2F2F2;}
	.st79{display:inline;opacity:0.48;fill:#F2F2F2;}
	.st80{display:inline;opacity:0.43;}
	.st81{fill:#F2F2F2;}
	.st82{fill:#217D47;}
	.st83{fill:#20A05D;}
	.st84{fill:#79CFD6;}
	.st85{fill:#C94248;}
	.st86{fill:#F8A13B;}
	.st87{display:inline;fill:none;stroke:#FFFF00;stroke-width:2;stroke-miterlimit:10;}
	.st88{display:inline;fill:none;stroke:#009245;stroke-width:3;stroke-miterlimit:10;}
	.st89{display:inline;fill:none;stroke:#000000;stroke-width:2;stroke-miterlimit:10;}
	.st90{display:inline;fill:none;stroke:#F4E12F;stroke-width:5;stroke-miterlimit:10;}
	.st91{fill:#F4E12F;stroke:#000000;stroke-width:2;stroke-miterlimit:10;}
	.st92{fill:#F4E12F;stroke:#000000;stroke-miterlimit:10;}
	.st93{display:inline;fill:none;stroke:#736357;stroke-width:0.75;stroke-miterlimit:10;}
	.st94{display:inline;fill:none;stroke:#736357;stroke-width:0.5;stroke-miterlimit:10;}
	.st95{fill:none;stroke:#F94B4B;stroke-width:9;stroke-miterlimit:10;}
	.st96{fill:none;stroke:#F94B4B;stroke-width:9;stroke-miterlimit:10;stroke-dasharray:1.017,1.017,1.017,1.017;}
	.st97{fill:none;stroke:#F94B4B;stroke-width:9;stroke-miterlimit:10;stroke-dasharray:5.0679,5.0679,5.0679,5.0679;}
	.st98{fill:none;stroke:#F94B4B;stroke-width:9;stroke-miterlimit:10;stroke-dasharray:5.0679,5.0679,5.0679,5.0679,5.0679,5.0679;}
	.st99{display:inline;fill:none;stroke:#FF0000;stroke-width:6;stroke-miterlimit:10;stroke-dasharray:5,5,5,5,5,5;}
	.st100{display:inline;fill:none;stroke:#F94B4B;stroke-width:9;stroke-miterlimit:10;stroke-dasharray:5,5,5,5,5,5;}
	.st101{display:inline;fill:none;stroke:#0000FF;stroke-miterlimit:10;}
	.st102{fill:#0000FF;}
	.st103{fill:#2121C1;}
	.st104{display:inline;fill:none;stroke:#0000FF;stroke-width:2;stroke-miterlimit:10;}
	.st105{display:inline;opacity:0.54;}
	.st106{display:inline;fill:none;stroke:#000000;stroke-width:0.25;stroke-miterlimit:10;}
	.st107{display:inline;fill:#EDB03B;stroke:#FBB03B;stroke-width:0.25;stroke-miterlimit:10;}
	.st108{display:inline;fill:#F0B03B;stroke:#FBB03B;stroke-width:0.25;stroke-miterlimit:10;}
	.st109{display:inline;fill:#EEB03B;stroke:#FBB03B;stroke-width:0.25;stroke-miterlimit:10;}
	.st110{display:inline;fill:#E8B03B;stroke:#FBB03B;stroke-width:0.25;stroke-miterlimit:10;}
	.st111{display:inline;fill:#E9B03B;stroke:#FBB03B;stroke-width:0.25;stroke-miterlimit:10;}
	.st112{display:inline;fill:#FBB03B;stroke:#FBB03B;stroke-width:0.25;stroke-miterlimit:10;}
	.st113{display:inline;fill:#EBB03B;stroke:#FBB03B;stroke-width:0.25;stroke-miterlimit:10;}
	.st114{display:inline;fill:#EAB03B;stroke:#FBB03B;stroke-width:0.25;stroke-miterlimit:10;}
	.st115{display:inline;fill:#F6B03B;stroke:#FBB03B;stroke-width:0.25;stroke-miterlimit:10;}
	.st116{display:inline;fill:#F2B03B;stroke:#FBB03B;stroke-width:0.25;stroke-miterlimit:10;}
	.st117{display:inline;fill:#F4B03B;stroke:#FBB03B;stroke-width:0.25;stroke-miterlimit:10;}
	.st118{display:inline;fill:none;stroke:#FCEE21;stroke-width:10;stroke-miterlimit:10;}
	.st119{display:inline;fill:none;stroke:#000000;stroke-width:8;stroke-miterlimit:10;}
	.st120{display:inline;fill:none;stroke:#736357;stroke-width:4;stroke-miterlimit:10;}
	.st121{display:inline;fill:none;stroke:#0000FF;stroke-width:8;stroke-miterlimit:10;}
	.st122{display:inline;fill:none;stroke:#0071BC;stroke-width:5;stroke-miterlimit:10;}
	.st123{display:inline;fill:none;stroke:#0071BC;stroke-width:5;stroke-miterlimit:10;stroke-dasharray:8,8;}
	.st124{display:inline;fill:none;stroke:#C1272D;stroke-width:2;stroke-miterlimit:10;}
	.st125{display:inline;fill:none;stroke:#FF0000;stroke-width:3;stroke-miterlimit:10;}
	.st126{display:inline;fill:none;stroke:#F92010;stroke-width:2;stroke-miterlimit:10;}
	.st127{display:inline;fill:none;stroke:#ED2207;stroke-width:5;stroke-miterlimit:10;}
	.st128{display:inline;fill:#EF220C;}
	.st129{fill:#26120B;}
	.st130{fill:#12491D;}
	.st131{fill:none;stroke:#FFFFFF;stroke-width:0.5;stroke-linecap:round;stroke-linejoin:round;stroke-miterlimit:10;}
	.st132{fill:#2E3192;}
	.st133{fill:url(#XMLID_2396_);}
	.st134{opacity:0.26;}
	.st135{fill:none;stroke:#FFFFFF;stroke-width:9;stroke-miterlimit:10;}
	.st136{fill:#FFFFFF;stroke:#FFFFFF;stroke-width:9;stroke-miterlimit:10;}
	.st137{fill:none;stroke:#000000;stroke-width:0.25;stroke-miterlimit:10;}
	.st138{fill:#FF8000;}
	.st139{fill:#80C41C;stroke:#000000;stroke-width:0.1;stroke-miterlimit:10;}
	.st140{fill:none;stroke:#FF8000;stroke-miterlimit:10;}
	.st141{fill:#8C6239;stroke:#42210B;stroke-width:0.25;stroke-miterlimit:10;}
	.st142{fill:#603813;stroke:#42210B;stroke-width:0.25;stroke-miterlimit:10;}
	.st143{fill:#C69C6D;}
	.st144{fill:#42210B;stroke:#42210B;stroke-width:0.25;stroke-miterlimit:10;}
	.st145{fill:#F7931E;}
	.st146{fill:#F15A24;}
	.st147{fill:#D4145A;}
	.st148{fill:#006837;}
	.st149{fill:#662D91;}
	.st150{fill:#ED1C24;}
	.st151{fill:#C1272D;}
	.st152{fill:#1B1464;}
	.st153{fill:#BEAC83;}
	.st154{fill:#C2000B;}
	.st155{fill:#C7B299;}
	.st156{opacity:0.32;}
	.st157{fill:#F5F5F5;}
	.st158{fill:#006837;stroke:#FFFFFF;stroke-width:0.5;stroke-miterlimit:10;}
	.st159{fill:none;stroke:#000000;stroke-width:6;stroke-miterlimit:10;}
	.st160{fill:none;stroke:#FFFFFF;stroke-width:8;stroke-linecap:round;stroke-linejoin:round;stroke-miterlimit:10;}
	.st161{opacity:0.72;}
	.st162{fill:#FFFF00;stroke:#000000;stroke-miterlimit:10;}
	.st163{fill:none;stroke:#4D4D4D;stroke-width:4;stroke-miterlimit:10;}
	.st164{fill:none;stroke:#110B79;stroke-width:5;stroke-miterlimit:10;}
	.st165{fill:none;stroke:#110B79;stroke-width:3;stroke-miterlimit:10;}
	.st166{fill:none;stroke:#2E58A6;stroke-width:2;stroke-miterlimit:10;}
	.st167{fill:#FEA812;stroke:#63300F;stroke-width:0.7087;stroke-linecap:round;stroke-linejoin:round;stroke-miterlimit:10;}
	.st168{fill:#FCEE21;}
	.st169{fill:none;stroke:#000000;stroke-width:0.05;stroke-miterlimit:10;}
	.st170{fill:#F62700;}
	.st171{fill:none;stroke:#000000;stroke-width:0.5;stroke-miterlimit:10;}
	.st172{fill:#4D1F03;stroke:#000000;stroke-width:0.5;stroke-miterlimit:10;}
	.st173{fill:none;stroke:#FFFFFF;stroke-width:0.25;stroke-miterlimit:10;}
	.st174{fill:url(#XMLID_2397_);stroke:#000000;stroke-width:0.5;stroke-miterlimit:10;}
	.st175{fill:#8E2E0B;}
	.st176{fill:#2E58A6;}
	.st177{fill:#93583A;}
	.st178{fill:#C6B491;}
	.st179{fill:#534741;}
	.st180{fill:#FD1A16;}
	.st181{fill:#F2F91C;}
	.st182{fill:#6B1687;}
	.st183{fill:none;stroke:#000000;stroke-width:0.1;stroke-linecap:round;stroke-linejoin:round;}
	.st184{fill:#42210B;}
	.st185{fill:#237D26;}
	.st186{fill:#80C41C;}
	.st187{fill:#40A629;}
	.st188{fill:#009245;}
	.st189{fill:#BE894A;}
	.st190{fill:#4FA0CA;}
	.st191{fill:#F0047F;}
	.st192{fill:#F487BC;}
	.st193{fill:#FEA621;}
	.st194{fill:#63300F;}
	.st195{fill:#0B0146;}
	.st196{fill:none;stroke:#000000;stroke-width:0.25;stroke-linecap:round;stroke-linejoin:round;}
	.st197{fill:#4D1F03;stroke:#000000;stroke-width:0.25;stroke-linecap:round;stroke-linejoin:round;}
	.st198{fill:#333333;}
	.st199{fill:#1A1A1A;stroke:#000000;stroke-width:0.25;stroke-linecap:round;stroke-linejoin:round;}
	.st200{fill:#333333;stroke:#000000;stroke-width:0.25;stroke-linecap:round;stroke-linejoin:round;}
	.st201{fill:#C1272D;stroke:#000000;stroke-width:0.1;stroke-linecap:round;stroke-linejoin:round;}
	.st202{fill:#DD7808;}
	.st203{fill:none;stroke:#63300F;stroke-width:0.25;stroke-miterlimit:10;}
	.st204{fill:#40A629;stroke:#12491D;stroke-width:0.25;stroke-miterlimit:10;}
	.st205{fill:#12491D;stroke:#000000;stroke-width:0.25;stroke-miterlimit:10;}
	.st206{fill:#237D26;stroke:#000000;stroke-width:0.25;stroke-miterlimit:10;}
	.st207{fill:#40A629;stroke:#000000;stroke-width:0.25;stroke-miterlimit:10;}
	.st208{fill:#CCE70B;stroke:#000000;stroke-width:0.25;stroke-miterlimit:10;}
	.st209{fill-rule:evenodd;clip-rule:evenodd;fill:none;stroke:#FFFFFF;stroke-miterlimit:2.4142;}
	
		.st210{fill-rule:evenodd;clip-rule:evenodd;fill:#111183;stroke:#FFFFFF;stroke-width:0.6;stroke-linecap:round;stroke-linejoin:round;stroke-miterlimit:10;}
	.st211{fill:#111183;}
	.st212{fill:#FFFFFF;stroke:#FFFFFF;stroke-miterlimit:10;}
	.st213{fill:#452F27;}
	.st214{fill:#F36F40;}
	.st215{fill:#207B50;}
	.st216{fill:#FFFFFF;stroke:#000000;stroke-width:2;stroke-miterlimit:10;}
	.st217{fill:none;}
	.st218{clip-path:url(#SVGID_10_);fill:#2E3192;}
	.st219{clip-path:url(#SVGID_10_);fill:#39B54A;}
	.st220{fill:none;stroke:#C1272D;stroke-width:3;stroke-miterlimit:10;}
	.st221{fill:url(#SVGID_11_);}
	.st222{clip-path:url(#SVGID_13_);}
	.st223{fill:none;stroke:#FFFF00;stroke-miterlimit:10;}
	.st224{fill:#FFFFFF;stroke:#FFFFFF;stroke-width:0.75;stroke-miterlimit:10;}
	.st225{fill:none;stroke:#FFFFFF;stroke-width:0.75;stroke-miterlimit:10;}
	.st226{fill:#4D1F03;}
	.st227{fill:url(#SVGID_20_);}
	.st228{fill:#D1D117;}
	.st229{fill:#7E4E24;stroke:#1D1D1B;stroke-width:0.25;stroke-miterlimit:10;}
	.st230{fill:#FFEC00;}
	.st231{fill:#7C411E;}
	.st232{fill:none;stroke:#000000;stroke-miterlimit:10;}
	.st233{fill:#2C5B20;}
	.st234{fill:none;stroke:#A0642F;stroke-width:0.25;stroke-miterlimit:10;}
	.st235{fill:#999999;}
	.st236{fill:#008D36;}
	.st237{fill:#93C01F;}
	.st238{fill:#683B11;}
	.st239{fill:#FCEA0D;}
	.st240{fill:#ECECEC;}
	.st241{fill:#F29100;}
	.st242{fill:#81358A;}
	.st243{fill:#BD1622;}
	.st244{fill:#006633;}
	.st245{fill:#925F36;}
	.st246{fill:#422918;}
	.st247{fill:#FE330A;}
	.st248{stroke:#000000;stroke-width:0.25;stroke-linecap:round;stroke-linejoin:round;}
	.st249{fill:none;stroke:#000000;stroke-width:0.27;stroke-linecap:round;stroke-linejoin:round;}
	.st250{fill:#63300F;stroke:#000000;stroke-width:0.25;stroke-linecap:round;stroke-linejoin:round;}
	.st251{fill:#4A007D;}
	.st252{stroke:#000000;stroke-width:0.25;stroke-miterlimit:10;}
	.st253{fill:#63300F;stroke:#000000;stroke-width:0.25;stroke-miterlimit:10;}
	.st254{fill:#BE894A;stroke:#000000;stroke-width:0.25;stroke-miterlimit:10;}
	.st255{fill:#FFFF00;stroke:#000000;stroke-width:0.25;stroke-miterlimit:10;}
	.st256{fill:#26120B;stroke:#000000;stroke-width:0.25;stroke-miterlimit:10;}
	.st257{fill:#F0047F;stroke:#000000;stroke-width:0.25;stroke-miterlimit:10;}
	.st258{fill:#A0642F;stroke:#000000;stroke-width:0.1;stroke-miterlimit:10;}
	.st259{stroke:#000000;stroke-width:0.1;stroke-miterlimit:10;}
	.st260{fill:#BEAC83;stroke:#000000;stroke-width:0.1;stroke-miterlimit:10;}
	.st261{fill:#63300F;stroke:#000000;stroke-width:0.1;stroke-miterlimit:10;}
	.st262{fill:none;stroke:#000000;stroke-width:0.1;stroke-miterlimit:10;}
	.st263{fill:#237D26;stroke:#000000;stroke-width:0.1;stroke-miterlimit:10;}
	.st264{fill:#F8B133;}
	.st265{fill:#CABA9F;}
	.st266{fill:#E20613;}
	.st267{fill:none;stroke:#1D1D1B;stroke-width:0.5;stroke-miterlimit:10;}
	.st268{fill:#BEAC83;stroke:#000000;stroke-width:0.25;stroke-miterlimit:10;}
	.st269{fill:#808080;}
	.st270{fill:#7C411E;stroke:#000000;stroke-width:0.25;stroke-miterlimit:10;}
	.st271{fill:#FF8000;stroke:#000000;stroke-width:0.25;stroke-miterlimit:10;}
	.st272{fill:none;stroke:#237D26;stroke-width:0.25;stroke-miterlimit:10;}
	.st273{fill:#00FFFF;}
	.st274{fill:#F0047F;stroke:#FFFFFF;stroke-width:0.25;stroke-miterlimit:10;}
	.st275{fill:#82027E;stroke:#FFFFFF;stroke-width:0.25;stroke-miterlimit:10;}
	.st276{fill:#808080;stroke:#000000;stroke-width:0.25;stroke-miterlimit:10;}
	.st277{fill:#ED1E79;}
	.st278{fill:#93278F;}
	.st279{fill:#42210B;stroke:#000000;stroke-width:0.25;stroke-miterlimit:10;}
	.st280{fill:#603813;stroke:#42210B;stroke-miterlimit:10;}
	.st281{opacity:0.48;fill:#F2F2F2;}
	.st282{fill:#FBB03B;}
	.st283{fill:#F4136B;}
	.st284{fill:#80C41C;stroke:#000000;stroke-width:0.5;stroke-miterlimit:10;}
	.st285{fill:#4D1F03;stroke:#000000;stroke-miterlimit:10;}
	.st286{fill:url(#XMLID_2453_);stroke:#000000;stroke-width:0.5;stroke-miterlimit:10;}
	.st287{fill:none;stroke:#A0642F;stroke-miterlimit:10;}
	.st288{fill:none;stroke:#FFFFFF;stroke-width:2;stroke-miterlimit:10;}
	.st289{fill:#BE894A;stroke:#26120B;stroke-width:0.25;stroke-miterlimit:10;}
	.st290{fill:none;stroke:#26120B;stroke-width:0.5;stroke-miterlimit:10;}
	.st291{fill:#4D1F03;stroke:#000000;stroke-width:0.5;stroke-linecap:round;stroke-linejoin:round;}
	.st292{fill:none;stroke:#000000;stroke-width:0.5;stroke-linecap:round;stroke-linejoin:round;}
	.st293{stroke:#000000;stroke-width:0.5;stroke-linecap:round;stroke-linejoin:round;}
	.st294{fill:#63300F;stroke:#000000;stroke-width:0.5;stroke-linecap:round;stroke-linejoin:round;}
	.st295{stroke:#000000;stroke-width:0.75;stroke-miterlimit:10;}
	.st296{fill:#63300F;stroke:#000000;stroke-width:0.75;stroke-miterlimit:10;}
	.st297{fill:#BE894A;stroke:#000000;stroke-width:0.75;stroke-miterlimit:10;}
	.st298{fill:#FFFF00;stroke:#000000;stroke-width:0.75;stroke-miterlimit:10;}
	.st299{fill:#26120B;stroke:#000000;stroke-width:0.75;stroke-miterlimit:10;}
	.st300{fill:none;stroke:#000000;stroke-width:0.75;stroke-miterlimit:10;}
	.st301{fill:#F0047F;stroke:#000000;stroke-width:0.75;stroke-miterlimit:10;}
	.st302{fill:#A0642F;stroke:#000000;stroke-width:0.75;stroke-miterlimit:10;}
	.st303{fill:#BEAC83;stroke:#000000;stroke-width:0.75;stroke-miterlimit:10;}
	.st304{fill:#237D26;stroke:#000000;stroke-width:0.75;stroke-miterlimit:10;}
	.st305{fill:none;stroke:#000000;stroke-linecap:round;stroke-linejoin:round;}
	.st306{fill:#4D1F03;stroke:#000000;stroke-linecap:round;stroke-linejoin:round;}
	.st307{fill:#1A1A1A;stroke:#000000;stroke-linecap:round;stroke-linejoin:round;}
	.st308{fill:#333333;stroke:#000000;stroke-linecap:round;stroke-linejoin:round;}
	.st309{fill:#C1272D;stroke:#000000;stroke-linecap:round;stroke-linejoin:round;}
	.st310{fill:#7E4E24;stroke:#1D1D1B;stroke-width:0.75;stroke-miterlimit:10;}
	.st311{fill:none;stroke:#1D1D1B;stroke-width:0.75;stroke-miterlimit:10;}
	.st312{fill:none;stroke:#1D1D1B;stroke-width:4;stroke-miterlimit:10;}
	.st313{fill:#CABA9F;stroke:#1D1D1B;stroke-miterlimit:10;}
	.st314{fill:#1D1D1B;stroke:#1D1D1B;stroke-miterlimit:10;}
	.st315{fill:#E20613;stroke:#1D1D1B;stroke-miterlimit:10;}
	.st316{fill:#35A8E0;stroke:#1D1D1B;stroke-miterlimit:10;}
	.st317{fill:#C6C6C5;stroke:#1D1D1B;stroke-miterlimit:10;}
	.st318{fill:none;stroke:#1D1D1B;stroke-miterlimit:10;}
	.st319{fill:none;stroke:#000000;stroke-width:2;stroke-miterlimit:10;}
	.st320{fill:#808080;stroke:#000000;stroke-width:2;stroke-miterlimit:10;}
	.st321{fill:#42210B;stroke:#000000;stroke-miterlimit:10;}
	.st322{fill:#BE894A;stroke:#26120B;stroke-miterlimit:10;}
	.st323{fill:none;stroke:#26120B;stroke-width:3;stroke-miterlimit:10;}
	.st324{fill:url(#SVGID_23_);}
	.st325{filter:url(#Adobe_OpacityMaskFilter);}
	.st326{mask:url(#SVGID_24_);}
	.st327{fill:#390D81;}
	.st328{fill:#1D0134;}
	.st329{fill:#006837;stroke:#000000;stroke-width:0.25;stroke-miterlimit:10;}
	.st330{fill:#754C24;}
	.st331{fill:none;stroke:#000000;stroke-width:0.08;stroke-miterlimit:10;}
	.st332{fill:#80C41C;stroke:#000000;stroke-width:0.05;stroke-miterlimit:10;}
	.st333{fill:#916F5D;}
	.st334{fill:#40A629;stroke:#000000;stroke-width:0.05;stroke-miterlimit:10;}
	.st335{fill:#E0013F;stroke:#000000;stroke-width:0.05;stroke-miterlimit:10;}
	.st336{fill:#93014A;stroke:#000000;stroke-width:0.05;stroke-miterlimit:10;}
	.st337{fill:#237D26;stroke:#000000;stroke-width:0.05;stroke-miterlimit:10;}
	.st338{fill:#298333;}
	.st339{fill:#154D22;}
	.st340{fill:#250F09;}
	.st341{fill:#615153;}
	.st342{fill:url(#SVGID_25_);}
	.st343{fill:url(#XMLID_2458_);stroke:#000000;stroke-width:0.25;stroke-miterlimit:10;}
	.st344{fill:none;stroke:#26120B;stroke-width:0.25;stroke-miterlimit:10;}
	.st345{fill:url(#SVGID_26_);}
	.st346{fill:url(#XMLID_2463_);stroke:#000000;stroke-width:0.25;stroke-miterlimit:10;}
	.st347{fill:url(#SVGID_27_);}
	.st348{fill:url(#XMLID_2519_);stroke:#000000;stroke-width:0.25;stroke-miterlimit:10;}
	.st349{fill:url(#SVGID_28_);}
	.st350{fill:url(#XMLID_21018_);stroke:#000000;stroke-width:0.25;stroke-miterlimit:10;}
	.st351{fill:url(#SVGID_29_);}
	.st352{fill:url(#XMLID_21019_);stroke:#000000;stroke-width:0.25;stroke-miterlimit:10;}
	.st353{fill:url(#SVGID_30_);}
	.st354{fill:url(#XMLID_21020_);stroke:#000000;stroke-width:0.25;stroke-miterlimit:10;}
	.st355{fill:url(#SVGID_31_);}
	.st356{fill:url(#XMLID_21021_);stroke:#000000;stroke-width:0.25;stroke-miterlimit:10;}
	.st357{fill:#5F9931;}
	.st358{fill:#13007C;}
	.st359{fill:url(#SVGID_32_);}
	.st360{fill:url(#SVGID_33_);}
	.st361{fill:#1A1A1A;}
	.st362{fill:url(#SVGID_34_);}
	.st363{fill:#C4C4C4;}
	.st364{fill:#BE894A;stroke:#C4C4C4;stroke-width:0.1;stroke-miterlimit:10;}
	.st365{fill:none;stroke:#C4C4C4;stroke-width:0.1;stroke-miterlimit:10;}
	.st366{fill:#A0642F;}
	.st367{fill:#40A629;stroke:#000000;stroke-width:0.1;stroke-miterlimit:10;}
	.st368{fill:#604B3B;}
	.st369{fill:#FFFFFF;stroke:#000000;stroke-width:0.25;stroke-miterlimit:10;}
	.st370{fill:#BEAC83;stroke:#000000;stroke-width:0.01;stroke-miterlimit:10;}
	.st371{fill:#1B3F26;}
	.st372{fill:#12491D;stroke:#000000;stroke-width:0.1;stroke-miterlimit:10;}
	.st373{fill:#008837;stroke:#000000;stroke-width:0.1;stroke-miterlimit:10;}
	.st374{fill:#41AA54;}
	.st375{fill:#F2F91C;stroke:#000000;stroke-width:0.1;stroke-miterlimit:10;}
	.st376{fill:#BEAC83;stroke:#000000;stroke-width:0.09;stroke-miterlimit:10;}
	.st377{fill:#CCE70B;}
	.st378{fill:none;stroke:#000000;stroke-width:0.09;stroke-miterlimit:10;}
	.st379{fill:url(#SVGID_35_);}
	.st380{fill:#110B79;}
	.st381{fill:url(#SVGID_36_);}
	.st382{fill:url(#SVGID_37_);}
	.st383{fill:#110B79;stroke:#000000;stroke-width:0.25;stroke-miterlimit:10;}
	.st384{fill:#ED1C24;stroke:#000000;stroke-width:0.25;stroke-miterlimit:10;}
	.st385{fill:url(#XMLID_21022_);stroke:#000000;stroke-width:0.25;stroke-linecap:round;stroke-linejoin:round;}
	.st386{opacity:0.59;}
	.st387{fill:#4D4D4D;stroke:#26120B;stroke-width:0.25;stroke-linecap:round;stroke-linejoin:round;}
	.st388{fill:#F34C31;}
	.st389{fill:none;stroke:#26120B;stroke-width:0.25;stroke-linecap:round;stroke-linejoin:round;}
	.st390{fill:#BE894A;stroke:#000000;stroke-width:0.1;stroke-miterlimit:10;}
	.st391{fill:#FEA621;stroke:#000000;stroke-width:0.1;stroke-miterlimit:10;}
	.st392{fill:#FF8000;stroke:#000000;stroke-width:0.1;stroke-miterlimit:10;}
	.st393{fill:url(#XMLID_21023_);stroke:#000000;stroke-width:0.1;stroke-miterlimit:10;}
	.st394{fill:url(#XMLID_21024_);stroke:#000000;stroke-width:0.1;stroke-miterlimit:10;}
	.st395{fill:url(#XMLID_21025_);stroke:#000000;stroke-width:0.1;stroke-miterlimit:10;}
	.st396{fill:url(#XMLID_21026_);stroke:#000000;stroke-width:0.1;stroke-miterlimit:10;}
	.st397{fill:url(#XMLID_21027_);stroke:#000000;stroke-width:0.1;stroke-miterlimit:10;}
	.st398{fill:url(#XMLID_21028_);stroke:#000000;stroke-width:0.1;stroke-miterlimit:10;}
	.st399{fill:#12491D;stroke:#000000;stroke-width:0.15;stroke-miterlimit:10;}
	.st400{fill:#E9E923;stroke:#000000;stroke-width:0.15;stroke-miterlimit:10;}
	.st401{fill:#F2F91C;stroke:#000000;stroke-width:0.15;stroke-miterlimit:10;}
	.st402{fill:#FFFF00;stroke:#000000;stroke-width:0.15;stroke-miterlimit:10;}
	.st403{fill:#26120B;stroke:#000000;stroke-width:0.15;stroke-miterlimit:10;}
	.st404{fill:#40A629;stroke:#000000;stroke-width:0.15;stroke-miterlimit:10;}
	.st405{fill:#237D26;stroke:#000000;stroke-width:0.15;stroke-miterlimit:10;}
	.st406{fill:#E0013F;stroke:#000000;stroke-width:0.1;stroke-miterlimit:10;}
	.st407{fill:#93014A;}
	.st408{fill:none;stroke:#FFFFFF;stroke-width:0.1;stroke-miterlimit:10;}
	.st409{fill:#603813;stroke:#000000;stroke-width:0.1;stroke-miterlimit:10;}
	.st410{fill:#63300F;stroke:#26120B;stroke-width:0.25;stroke-miterlimit:10;}
	.st411{fill:#4D4D4D;stroke:#4D4D4D;stroke-width:0.25;stroke-miterlimit:10;}
	.st412{fill:#010102;}
	.st413{fill:#734421;}
	.st414{fill:#431D08;}
	.st415{fill:#926036;}
	.st416{fill:#7C411E;stroke:#000000;stroke-width:0.1;stroke-miterlimit:10;}
	.st417{fill:#531B1E;}
	.st418{fill:#916F5D;stroke:#000000;stroke-width:0.1;stroke-miterlimit:10;}
	.st419{fill:#4D4D4D;stroke:#000000;stroke-width:0.1;stroke-miterlimit:10;}
	.st420{fill:#0F3212;}
	.st421{fill:#597816;}
	.st422{fill:none;stroke:#364B11;stroke-width:0.25;stroke-miterlimit:10;}
	.st423{fill:#4E6C16;}
	.st424{fill:#45731A;}
	.st425{fill:#547417;}
	.st426{fill:#486B17;}
	.st427{fill:#30651B;}
	.st428{fill:#3C5814;}
	.st429{fill:#26360D;}
	.st430{fill:#486B17;stroke:#80C41C;stroke-miterlimit:10;}
	.st431{fill:url(#XMLID_21029_);stroke:#000000;stroke-width:0.2;stroke-miterlimit:10;}
	.st432{fill:#808080;stroke:#000000;stroke-width:0.2;stroke-miterlimit:10;}
	.st433{fill:#666666;stroke:#000000;stroke-width:0.2;stroke-miterlimit:10;}
	.st434{fill:#4D4D4D;stroke:#000000;stroke-width:0.2;stroke-miterlimit:10;}
	.st435{fill:#999999;stroke:#000000;stroke-width:0.2;stroke-miterlimit:10;}
	.st436{opacity:0.48;}
	.st437{fill:#17208B;}
	.st438{fill:#333333;stroke:#000000;stroke-width:0.1;stroke-miterlimit:10;}
	.st439{fill:#6B1687;stroke:#000000;stroke-width:0.1;stroke-miterlimit:10;}
	.st440{fill:url(#XMLID_21030_);stroke:#000000;stroke-width:0.25;stroke-miterlimit:10;}
	.st441{fill:#452F27;stroke:#000000;stroke-width:0.25;stroke-miterlimit:10;}
	.st442{opacity:0.42;}
	.st443{opacity:0.42;fill:none;stroke:#FFFFFF;stroke-width:0.25;stroke-miterlimit:10;}
	.st444{fill:#1A5A1E;}
	.st445{fill:url(#SVGID_38_);}
	.st446{fill:#B9854F;}
	.st447{fill:url(#SVGID_39_);}
	.st448{fill:url(#SVGID_40_);}
	.st449{fill:#FEA621;stroke:#000000;stroke-width:0.25;stroke-miterlimit:10;}
	.st450{fill:#666666;stroke:#000000;stroke-width:0.25;stroke-miterlimit:10;}
	.st451{opacity:0.8;fill:#4FA0CA;stroke:#000000;stroke-width:0.25;stroke-miterlimit:10;}
	.st452{fill:#4D1F03;stroke:#4D1F03;stroke-width:0.1;stroke-miterlimit:10;}
	.st453{fill:#666666;}
	.st454{opacity:0.5;fill:#4FA0CA;stroke:#000000;stroke-width:0.25;stroke-miterlimit:10;}
	.st455{opacity:0.39;fill:#4FA0CA;stroke:#000000;stroke-width:0.25;stroke-miterlimit:10;}
	.st456{opacity:0.5;fill:none;stroke:#000000;stroke-width:0.25;stroke-miterlimit:10;}
	.st457{fill:#FFFFFF;stroke:#000000;stroke-width:0.1;stroke-miterlimit:10;}
	.st458{fill:#666666;stroke:#000000;stroke-width:0.1;stroke-miterlimit:10;}
	.st459{fill:#FF0000;}
	.st460{fill:none;stroke:#000000;stroke-width:0.2;stroke-miterlimit:10;}
	.st461{fill:#FFFFFF;stroke:#000000;stroke-width:0.2;stroke-miterlimit:10;}
	.st462{fill:#63300F;stroke:#000000;stroke-width:0.2;stroke-miterlimit:10;}
	.st463{fill:#686461;}
	.st464{fill:#343031;}
	.st465{fill:#4D4D4D;}
	.st466{fill:#412312;}
	.st467{fill:#0971B7;}
	.st468{fill:#009145;}
	.st469{fill:#47AD4C;}
	.st470{fill:#F29222;}
	.st471{fill:#DDDB00;}
	.st472{fill:#E97BAB;}
	.st473{fill:#008D36;stroke:#006633;stroke-width:0.25;stroke-miterlimit:10;}
	.st474{fill:#422918;stroke:#1D1D1B;stroke-width:0.25;stroke-miterlimit:10;}
	.st475{fill:#925F36;stroke:#1D1D1B;stroke-width:0.25;stroke-miterlimit:10;}
	.st476{fill:#FFFFFF;stroke:#1D1D1B;stroke-width:0.25;stroke-miterlimit:10;}
	.st477{fill:#B17F49;}
	.st478{fill:#7F8080;}
	.st479{fill:#4E4D4D;}
	.st480{fill:#6F6F6E;}
	.st481{fill:url(#SVGID_41_);}
	.st482{fill:url(#SVGID_42_);}
	.st483{fill:#C99D66;}
	.st484{fill:#7E4E24;}
	.st485{fill:url(#SVGID_43_);}
	.st486{fill:url(#SVGID_44_);}
	.st487{fill:url(#SVGID_45_);}
	.st488{fill:url(#SVGID_46_);}
	.st489{fill:#634E42;}
	.st490{fill:#B3B3B3;}
	.st491{fill:none;stroke:#422918;stroke-width:0.25;stroke-miterlimit:10;}
	.st492{fill:none;stroke:#1D1D1B;stroke-width:0.1;stroke-miterlimit:10;}
	.st493{fill:#1D1D1B;stroke:#1D1D1B;stroke-width:0.1;stroke-miterlimit:10;}
	.st494{fill:#C1272D;stroke:#FFFFFF;stroke-width:0.25;stroke-miterlimit:10;}
	.st495{fill:#ED1C24;stroke:#FFFFFF;stroke-width:0.25;stroke-miterlimit:10;}
	.st496{fill:#F7931E;stroke:#FFFFFF;stroke-width:0.25;stroke-miterlimit:10;}
	.st497{fill:#D17C10;}
	.st498{fill:#E5332A;}
	.st499{fill:#014C26;}
	.st500{fill:#81171E;}
	.st501{fill:#231F20;}
	.st502{fill:#58595B;}
	.st503{fill:#C1B49A;}
	.st504{fill:url(#SVGID_47_);}
	.st505{fill:url(#SVGID_48_);}
	.st506{fill:url(#SVGID_49_);}
	.st507{fill:url(#SVGID_50_);}
	.st508{fill:#8C6239;}
	.st509{fill:#9C9B9B;stroke:#1D1D1B;stroke-width:0.1;stroke-miterlimit:10;}
	.st510{fill:#39A935;stroke:#1D1D1B;stroke-width:0.1;stroke-miterlimit:10;}
	.st511{fill:#FFEC00;stroke:#1D1D1B;stroke-width:0.1;stroke-miterlimit:10;}
	.st512{fill:none;stroke:#DDDB00;stroke-width:0.1;stroke-miterlimit:10;}
	.st513{fill:none;stroke:#E20613;stroke-width:0.1;stroke-miterlimit:10;}
	.st514{fill:#39A935;stroke:#1D1D1B;stroke-width:0.25;stroke-miterlimit:10;}
	.st515{fill:#FFEC00;stroke:#1D1D1B;stroke-width:0.25;stroke-miterlimit:10;}
	.st516{fill:#006633;stroke:#1D1D1B;stroke-width:0.25;stroke-miterlimit:10;}
	.st517{fill:#B17F49;stroke:#1D1D1B;stroke-width:0.25;stroke-miterlimit:10;}
	.st518{fill:#FCEA0D;stroke:#1D1D1B;stroke-width:0.25;stroke-miterlimit:10;}
	.st519{fill:#93C01F;stroke:#1D1D1B;stroke-width:0.25;stroke-miterlimit:10;}
	.st520{fill:url(#XMLID_21031_);stroke:#1D1D1B;stroke-width:0.5;stroke-miterlimit:10;}
	.st521{fill:#3D3D3D;}
	.st522{fill:#F84F10;}
	.st523{fill:#575756;}
	.st524{fill:#F29100;stroke:#1D1D1B;stroke-width:0.25;stroke-miterlimit:10;}
	.st525{fill:#E84E1B;stroke:#1D1D1B;stroke-width:0.25;stroke-miterlimit:10;}
	.st526{fill:#E34846;stroke:#1D1D1B;stroke-width:0.25;stroke-miterlimit:10;}
	.st527{fill:#575756;stroke:#1D1D1B;stroke-width:0.25;stroke-miterlimit:10;}
	.st528{fill:#6F6F6E;stroke:#1D1D1B;stroke-width:0.25;stroke-miterlimit:10;}
	.st529{fill:#634E42;stroke:#1D1D1B;stroke-width:0.25;stroke-miterlimit:10;}
	.st530{fill:#C99D66;stroke:#1D1D1B;stroke-width:0.25;stroke-miterlimit:10;}
	.st531{fill:#E5332A;stroke:#1D1D1B;stroke-width:0.25;stroke-miterlimit:10;}
	.st532{fill:#A3897A;stroke:#1D1D1B;stroke-width:0.25;stroke-miterlimit:10;}
	.st533{fill:#868686;stroke:#1D1D1B;stroke-width:0.25;stroke-miterlimit:10;}
	.st534{fill:#868686;}
	.st535{fill:#7A6A58;}
	.st536{fill:#37B34A;}
	.st537{fill:#006838;}
	.st538{fill:#009345;}
	.st539{fill:#006838;stroke:#009345;stroke-miterlimit:10;}
	.st540{fill:url(#SVGID_51_);}
	.st541{fill:url(#XMLID_21032_);stroke:#000000;stroke-width:0.25;stroke-miterlimit:10;}
	.st542{fill:#FEA327;}
	.st543{fill:#FE4113;}
	.st544{fill:#FE8012;}
	.st545{fill:#7AC235;}
	.st546{fill:#791385;}
	.st547{fill:#EEF72B;}
	.st548{fill:#4D1F03;stroke:#000000;stroke-width:0.25;stroke-miterlimit:10;}
	.st549{fill:url(#XMLID_21033_);stroke:#000000;stroke-width:0.25;stroke-miterlimit:10;}
	.st550{fill:url(#XMLID_21034_);stroke:#000000;stroke-width:0.25;stroke-miterlimit:10;}
	.st551{fill:url(#XMLID_21035_);stroke:#000000;stroke-width:0.25;stroke-miterlimit:10;}
	.st552{opacity:0.76;fill:#FFFFFF;}
	.st553{fill:#12491D;stroke:#000000;stroke-width:0.09;stroke-miterlimit:10;}
	.st554{fill:#237D26;stroke:#000000;stroke-width:0.09;stroke-miterlimit:10;}
	.st555{fill:#40A629;stroke:#000000;stroke-width:0.09;stroke-miterlimit:10;}
	.st556{fill:#CCE70B;stroke:#000000;stroke-width:0.2;stroke-miterlimit:10;}
	.st557{opacity:0.71;fill:#FFFFFF;}
	.st558{fill:#63300F;stroke:#000000;stroke-width:0.09;stroke-miterlimit:10;}
	.st559{fill:#F0047F;stroke:#000000;stroke-width:0.09;stroke-miterlimit:10;}
	.st560{fill:#7C411E;stroke:#000000;stroke-width:0.09;stroke-miterlimit:10;}
	.st561{fill:#FF8000;stroke:#000000;stroke-width:0.09;stroke-miterlimit:10;}
	.st562{fill:none;stroke:#237D26;stroke-width:0.09;stroke-miterlimit:10;}
	.st563{fill:#FFFF00;stroke:#000000;stroke-width:0.09;stroke-miterlimit:10;}
	.st564{fill:#F0047F;stroke:#FFFFFF;stroke-width:0.09;stroke-miterlimit:10;}
	.st565{fill:#82027E;stroke:#FFFFFF;stroke-width:0.09;stroke-miterlimit:10;}
	.st566{fill:#999999;stroke:#FFFFFF;stroke-width:0.9;stroke-linecap:round;stroke-linejoin:round;stroke-miterlimit:10;}
	.st567{fill:#F7931E;stroke:#FFFFFF;stroke-width:0.5;stroke-miterlimit:10;}
	.st568{fill:none;stroke:#000000;stroke-width:0.15;stroke-miterlimit:10;}
	.st569{fill:none;stroke:#999999;stroke-width:0.15;stroke-miterlimit:10;}
	.st570{display:inline;fill:url(#SVGID_52_);}
	.st571{display:inline;fill:url(#SVGID_53_);}
	.st572{display:inline;fill:url(#SVGID_54_);}
	.st573{display:inline;stroke:#FFFFFF;stroke-width:0.5;stroke-miterlimit:10;}
	.st574{display:inline;fill:none;stroke:#FBB03B;stroke-width:0.25;stroke-miterlimit:10;}
	.st575{display:inline;fill:#ECB03B;stroke:#FBB03B;stroke-width:0.25;stroke-miterlimit:10;}
	.st576{fill-rule:evenodd;clip-rule:evenodd;fill:none;stroke:#FFFFFF;stroke-width:0.5;stroke-miterlimit:2.4142;}
	
		.st577{fill-rule:evenodd;clip-rule:evenodd;fill:#111183;stroke:#FFFFFF;stroke-width:0.5;stroke-linecap:round;stroke-linejoin:round;stroke-miterlimit:10;}
	.st578{fill:#FFFFFF;stroke:#FFFFFF;stroke-width:0.5;stroke-miterlimit:10;}
	.st579{fill:#006837;stroke:#FFFFFF;stroke-miterlimit:10;}
</style>
<g id="Layer_1" class="st0">
	<g id="Layer_2" class="st1">
	</g>
</g>
<g id="FONDO">
</g>
<g id="Capa_48" class="st0">
</g>
<g id="Layer_7" class="st0">
</g>
<g id="Layer_11" class="st0">
</g>
<g id="Layer_17" class="st0">
</g>
<g id="CUENCAS" class="st0">
</g>
<g id="CORREDOR_VERDE" class="st0">
</g>
<g id="CORREDOR_PASTO" class="st0">
</g>
<g id="LIMITE_copia" class="st0">
</g>
<g id="Microregiones_colores" class="st0">
</g>
<g id="LIMITE" class="st0">
</g>
<g id="BOSQUE" class="st0">
</g>
<g id="casco" class="st0">
</g>
<g id="CAFE" class="st0">
</g>
<g id="NODOS_ECOLOGICOS" class="st0">
</g>
<g id="limite_afuera" class="st0">
</g>
<g id="Layer_5" class="st0">
</g>
<g id="MICROREGIONES" class="st0">
</g>
<g id="CALLES" class="st0">
</g>
<g id="RUTAS_TURIMO" class="st0">
</g>
<g id="EJES" class="st0">
</g>
<g id="nombres_ejes" class="st0">
</g>
<g id="Layer_9" class="st0">
</g>
<g id="zonas" class="st0">
</g>
<g id="NODOS_BIOCULTURALES" class="st0">
</g>
<g id="EJES_TURIST" class="st0">
</g>
<g id="sistema_vial" class="st0">
</g>
<g id="limites_municipales" class="st0">
</g>
<g id="rios" class="st0">
</g>
<g id="topografia" class="st0">
</g>
<g id="turismo_plan" class="st0">
</g>
<g id="_x31_2_zonas" class="st0">
</g>
<g id="CUADRICULA" class="st0">
</g>
<g id="MUNICIPIOS_VECINOS" class="st0">
</g>
<g id="nucleos__urbanos" class="st0">
</g>
<g id="LEYENDA" class="st0">
</g>
<g id="calle" class="st0">
</g>
<g id="Puntos" class="st0">
</g>
<g id="Sitios_Arqueológicos" class="st0">
</g>
<g id="Sitios_Naturales" class="st0">
</g>
<g id="CAJA_DE_LEYENDAS">
	<g id="XMLID_21127_">
		<path class="st2" d="M28.88,270.45c0.91,0.29,1.71-0.33,2.22-0.34c2.82-0.02,5.65,1.35,8.49,0.71c2.52-0.57,4.73-3.29,3.77-5.69
			c-0.87-2.18-3.8-3.05-4.5-5.29c-0.41-1.33,0.09-2.76,0.71-4c3.1-6.22,9.49-10.68,16.39-11.46c1.82-0.2,3.74-0.15,5.39,0.66
			c1.89,0.94,3.19,2.76,4.2,4.62c3.63,6.67,2.92,8.6,5.57,11.22c3.07,3.04,7.26,3.18,7.92,3.19c4.88,0.08,9.9-3.02,11.24-7.27
			c0.18-0.58,1.05-3.23-0.31-5.01c-1.29-1.7-3.78-1.64-5.86-2.11c-6.3-1.45-9.47-10.21-5.56-15.35c0.9-1.19,2.08-2.17,2.81-3.48
			c2.49-4.48-1.37-9.74-4.96-13.4c-3.9-3.97-7.79-7.94-11.69-11.91c-0.85-0.87-1.76-1.88-1.71-3.09c0.06-1.62,1.74-2.62,3.23-3.26
			c10.31-4.42,29.6-7.77,43.39-15.9c2.98-1.75,4.62-3.13,7.77-3.51c7.27-0.87,11.84,4.81,18.33,8.22
			c8.25,4.33,11.55,1.75,29.66,1.43c13.86-0.24,27.32,6.09,41.15,5.19c8.58-0.56,16.7-3.85,25.03-5.97
			c11.63-2.96,23.84-3.61,35.72-1.91c3.52,0.5,8.68-0.15,8.47-3.69c-0.06-0.93-0.55-1.77-1.09-2.53
			c-5.93-8.39-17.73-10.42-27.88-8.81c-10.15,1.61-19.67,6.05-29.79,7.86c-0.71,0.13-1.45,0.24-2.14,0.03
			c-2.15-0.64-0.57-6.55-0.27-7.82c2.54-10.89,4.95-49.35,4.21-62.55c-1.33-23.58-17.34-48.39-39.78-59.93
			c-4.43-2.28-24.09-11.74-47.75-5.37c-23.78,6.41-36.09,24.63-39.79,30.12c-5.53,8.2-8.53,16.3-9.73,19.61
			c-3.83,10.57-5,19.56-6.02,27.43c-1.82,14.04-2.73,21.05-2.45,24.75c0.3,3.99,1,8.48-1.69,12.59c-2.23,3.4-6.77,6.61-9.12,5.04
			c-2.7-1.8-2.73-5.63-3.67-8.74c-1.44-4.78-5.81-8.54-10.75-9.24c-6.55-0.93-12.16,3.15-12.92,3.78
			c-4.35,3.59-6.44,10.66-10.63,24.8c-1.29,4.36-1.54,5.67-2.83,7.85c-3.79,6.39-8.81,11.29-8.81,11.29
			c-0.6,0.62-1.19,1.29-1.43,2.12c-0.96,3.35,3.92,5.15,5.2,7.77c2.13,4.4-0.36,7.6,1.84,9.51c1.86,1.61,5.68,1.1,7.98-0.61
			c3.12-2.34,2.28-6.06,4.6-6.75c2.02-0.6,4.63,1.63,5.83,3.68c1.98,3.38,0.57,7.29,0,8.9c-1.09,3.07-2.28,3.45-6.14,8.74
			c-3.62,4.97-5.41,7.49-4.91,9.66c0.79,3.4,5.2,3.04,6.29,6.52c0.99,3.16-2.29,4.58-4.83,12.12c0,0-2.83,8.39-0.08,13.88
			C27.37,269.11,27.88,270.13,28.88,270.45z"/>
		<g id="XMLID_21171_">
			<g id="XMLID_21172_">
				<g id="XMLID_21173_">
					<g id="XMLID_21180_">
						<path d="M209.67,99.91c7.07,26,7,53.49-0.21,79.45c-1.22,4.43-3.05,7.28-5.61,8.68c-1.33,0.75-2.9,1.12-4.77,1.12
							c-1.87,0-4.04-0.39-6.56-1.14c-6.81-2.02-14.5-2.34-21.9-2.62c-1.68-0.07-3.35-0.13-4.96-0.22c-2.88-0.15-5.84-0.21-8.68-0.26
							c-7.35-0.15-14.96-0.28-22.31-2.11c-3.33-0.82-6.25-2.15-9.35-3.53c-0.97-0.45-1.95-0.88-2.94-1.31
							c-9.88-4.23-20.78-4.73-29.22-4.68c-0.82,0-1.74,0.04-2.69,0.07c-5.11,0.21-11.48,0.45-14.55-3.98
							c-1.35-1.95-1.81-4.02-1.81-6.15c0-2.45,0.62-4.98,1.23-7.46c0.28-1.16,0.54-2.26,0.75-3.33c1.12-5.97,1.98-12.08,2.82-17.97
							l0.24-1.72c1.78-12.44,3.8-26.52,8.68-39.45C92,82.25,98.42,71.82,106.37,63.1c6.6-7.28,13.09-11.84,19.81-13.99
							c9.07-2.9,18.95-1.48,27.49,0.07c11.32,2.08,23.1,4.92,32.54,11.8C196.85,68.71,204.75,81.8,209.67,99.91z M209.01,179.25
							c8.55-30.82,7.91-67.26-6.45-96.3c-3.53-7.14-8.01-13.93-13.84-19.36c-8.83-8.19-20.11-10.87-31.55-13.34
							c-9.59-2.08-19.68-3.55-29.14-0.95c-7.74,2.13-14.55,6.86-20.22,12.55c-13,13.07-20.18,30.92-24.33,48.89
							c-2.28,9.86-3.76,19.86-5.2,29.87c-0.75,5.12-1.48,10.25-2.3,15.37c-0.75,4.58-2.54,8.98,0.34,13.13
							c2.92,4.23,9.15,3.98,14.14,3.78c0.97-0.04,1.87-0.07,2.71-0.07c0.3,0,0.6,0,0.9,0c6.04,0,13.24,0.32,20.41,2.06
							c2.71,0.65,5.44,1.51,8.1,2.66c0.99,0.43,1.96,0.88,2.94,1.31c3.09,1.38,5.99,2.69,9.28,3.52c7.29,1.81,14.89,1.95,22.22,2.09
							c2.84,0.06,5.8,0.11,8.68,0.26c1.14,0.07,2.3,0.11,3.48,0.15c0.49,0.04,0.97,0.06,1.48,0.07c7.44,0.3,15.15,0.6,22.01,2.64
							c4.92,1.46,8.42,1.48,10.98,0.06C206.06,186.28,207.81,183.53,209.01,179.25z"/>
						<path class="st179" d="M202.56,82.94c14.36,29.05,15,65.48,6.45,96.3c-1.2,4.28-2.96,7.03-5.39,8.38
							c-2.56,1.42-6.06,1.4-10.98-0.06c-6.86-2.04-14.57-2.34-22.01-2.64c-0.51-0.02-0.99-0.04-1.48-0.07l0.02-0.3
							c1.55-6.49,2.66-13.2,3.29-19.94c1.35-14.27,2.32-24.6-3.33-34.15c-1.59-2.71-6.47-10.98-15.22-12.48
							c-8.02-1.37-14.93,3.78-19.51,7.2c-6.79,5.05-10.21,10.94-11.86,13.78c-4.56,7.87-5.89,15.15-6.7,19.49
							c-0.88,4.86-1.16,9.82-1.2,10.77c-0.09,1.76-0.13,3.55-0.11,5.33l-0.07,0.3c-7.16-1.74-14.36-2.06-20.41-2.06
							c-0.3,0-0.6,0-0.9,0c-0.84,0-1.74,0.04-2.71,0.07c-4.99,0.21-11.22,0.45-14.14-3.78c-2.88-4.15-1.08-8.55-0.34-13.13
							c0.82-5.12,1.55-10.25,2.3-15.37c1.44-10.01,2.92-20.01,5.2-29.87c4.15-17.97,11.33-35.82,24.33-48.89
							c5.67-5.69,12.48-10.42,20.22-12.55c9.46-2.6,19.55-1.12,29.14,0.95c11.45,2.47,22.72,5.14,31.55,13.34
							C194.55,69.01,199.02,75.8,202.56,82.94z"/>
						<path d="M169.14,130.47c5.65,9.56,4.68,19.88,3.33,34.15c-0.64,6.73-1.74,13.45-3.29,19.94l-0.47-0.09
							c1.55-6.49,2.66-13.19,3.29-19.88c1.33-14.2,2.3-24.45-3.25-33.87c-1.57-2.67-6.36-10.79-14.91-12.25
							c-7.82-1.33-14.36,3.53-19.15,7.11c-6.71,4.99-10.1,10.83-11.73,13.65c-4.53,7.8-5.85,15.02-6.64,19.34
							c-0.88,4.83-1.16,9.76-1.2,10.7c-0.09,1.76-0.13,3.55-0.11,5.29l-0.47,0.02c-0.02-1.78,0.02-3.57,0.11-5.33
							c0.04-0.95,0.32-5.91,1.2-10.77c0.8-4.34,2.13-11.61,6.7-19.49c1.65-2.84,5.07-8.73,11.86-13.78
							c4.58-3.42,11.48-8.57,19.51-7.2C162.66,119.49,167.55,127.76,169.14,130.47z"/>
						<path class="st180" d="M168.74,130.71c5.55,9.43,4.58,19.68,3.25,33.87c-0.64,6.7-1.74,13.39-3.29,19.88l0.47,0.09l-0.02,0.3
							c-1.18-0.04-2.34-0.07-3.48-0.15c-2.88-0.15-5.84-0.21-8.68-0.26c-7.33-0.15-14.93-0.28-22.22-2.09
							c-3.29-0.82-6.19-2.13-9.28-3.52c-0.97-0.43-1.95-0.88-2.94-1.31c-2.66-1.14-5.39-2-8.1-2.66l0.07-0.3l0.47-0.02
							c-0.02-1.74,0.02-3.53,0.11-5.29c0.04-0.94,0.32-5.87,1.2-10.7c0.79-4.32,2.11-11.54,6.64-19.34
							c1.63-2.82,5.01-8.66,11.73-13.65c4.79-3.57,11.33-8.44,19.15-7.11C162.38,119.92,167.17,128.04,168.74,130.71z"/>
					</g>
				</g>
			</g>
		</g>
		<path id="XMLID_21170_" class="st181" d="M135.41,157.67c-4.3-3.29-2.41-18.57,7.6-22.82c4.78-2.02,11.98-1.78,15.99,2.34
			c3.54,3.64,3.03,8.72,2.71,11.87c-0.29,2.9-0.76,7.5-4.07,9.3c-2.54,1.38-4.3-0.22-11.07-0.63
			C138.94,157.29,137.26,159.09,135.41,157.67z"/>
		<g id="XMLID_21168_">
			<path class="st129" d="M26.86,175.62c9.8-3.05,19.91-5.15,30.13-6.26c5.12-0.52,10.23-0.93,15.37-1.16
				c5.14-0.2,10.29-0.12,15.42,0.3c10.25,0.9,20.41,3.05,29.99,6.8c4.79,1.86,9.27,4.46,14.15,5.99c4.87,1.57,10.01,2.01,15.12,2.26
				c10.24,0.49,20.49,0.49,30.76,0.66c5.16,0.06,10.33,0.92,15.29,2.29c2.49,0.68,4.9,1.37,7.42,1.44c2.52,0.1,5.01-0.19,7.39-1.01
				c2.38-0.8,4.72-1.9,7.12-2.83c2.39-0.97,4.87-1.76,7.34-2.44c4.97-1.36,10.02-2.4,15.12-3.09c10.18-1.37,20.61-1.42,30.7,0.56
				l-0.02,0.1c-2.53-0.41-5.08-0.71-7.63-0.9c-1.28-0.1-2.55-0.16-3.83-0.18c-1.28-0.04-2.56-0.09-3.84-0.06
				c-5.12,0.02-10.22,0.44-15.28,1.2c-5.06,0.75-10.06,1.86-14.96,3.29c-2.45,0.73-4.87,1.49-7.23,2.46
				c-2.38,0.93-4.69,2.02-7.17,2.86c-2.48,0.86-5.15,1.19-7.76,1.08c-2.64-0.07-5.21-0.79-7.65-1.48
				c-4.91-1.39-9.94-2.26-15.04-2.36c-10.24-0.22-20.51-0.44-30.76-1.06c-5.12-0.31-10.28-0.88-15.2-2.47
				c-2.46-0.78-4.81-1.84-7.13-2.93c-2.32-1.09-4.66-2.14-7.04-3.07c-2.38-0.95-4.82-1.71-7.27-2.44c-2.47-0.67-4.96-1.28-7.46-1.79
				c-5.01-1.03-10.09-1.69-15.19-2.06c-10.2-0.78-20.45-0.15-30.65,0.8c-10.19,0.99-20.29,2.87-30.18,5.59L26.86,175.62z"/>
		</g>
		
			<rect x="124.74" y="159.03" transform="matrix(0.9997 0.026 -0.026 0.9997 4.3581 -3.7101)" class="st51" width="39.73" height="12.84"/>
		<g>
			<path d="M136.09,148.17c1.15-2.37,2.83-4.5,4.93-6.11c1.04-0.81,2.21-1.46,3.41-2.02c1.2-0.56,2.44-1.04,3.75-1.29
				c2.59-0.56,5.45-0.04,7.58,1.58c2.13,1.62,3.53,4.06,4.13,6.62l-0.02,0c-0.71-2.52-2.1-4.92-4.23-6.46
				c-2.09-1.59-4.87-2.12-7.43-1.58c-1.29,0.24-2.53,0.7-3.72,1.25c-1.2,0.54-2.36,1.18-3.4,1.98c-2.1,1.58-3.8,3.69-4.97,6.04
				L136.09,148.17z"/>
		</g>
		<g>
			<path d="M142.07,150.16c0.48-1.24,1.31-2.34,2.38-3.15c1.06-0.81,2.36-1.31,3.7-1.41c1.34-0.11,2.71,0.19,3.89,0.83
				c1.17,0.66,2.16,1.63,2.79,2.81l-0.02,0.01c-0.72-1.11-1.7-2.05-2.87-2.64c-1.15-0.62-2.47-0.92-3.78-0.84
				c-2.64,0.14-5.07,1.95-6.07,4.41L142.07,150.16z"/>
		</g>
		<g>
			<path d="M144.52,153.84c0.96-1.1,2.41-1.82,3.91-1.76c0.75,0.01,1.49,0.22,2.14,0.58c0.64,0.38,1.22,0.87,1.63,1.48l-0.02,0.01
				c-0.5-0.53-1.07-1-1.71-1.32c-0.63-0.34-1.33-0.56-2.05-0.6c-1.44-0.1-2.89,0.55-3.89,1.61L144.52,153.84z"/>
		</g>
		<g id="XMLID_21129_">
			<g id="XMLID_21143_">
				<g id="XMLID_21144_">
					<g id="XMLID_21167_">
						<path d="M89.16,182.62c0.89,0.94,1.29,2.3,1.24,3.14c-0.02,0.42-0.16,0.75-0.4,0.94c-0.49,0.4-1.26,0.14-1.66-0.02
							c-0.84-0.3-1.24-0.8-1.57-1.24c-0.26-0.35-0.52-0.66-0.96-0.89c-0.49-0.26-0.82-0.21-1.41-0.16
							c-0.47,0.07-1.05,0.12-1.97,0.05c-0.8-0.07-1.45-0.3-2.01-0.49c-0.4-0.14-0.77-0.26-1.15-0.33
							c-5.43-0.87-10.4-2.01-15.18-3.49c-2.27-0.7-3.63-0.73-4.52-0.12c-0.33,0.23-0.94,0.89-1.24,2.69
							c-0.28,1.59-0.05,2.44,0.28,3.7c0.23,0.91,0.54,2.06,0.7,3.79c0.09,0.77,0.09,1.15,0.09,2.23c0,0.96,0,2.39,0.05,5.15v0.09
							c0,0.37,0.02,0.91,0,1.59c-0.02,0.47-0.07,0.82-0.09,1.19c-0.07,0.87-0.14,1.69-0.05,3.42c0.02,0.4,0.07,0.8,0.09,1.22
							c-0.16-0.09-0.33-0.16-0.52-0.23c-0.02,0-0.07-0.02-0.09-0.02c-0.02-0.33-0.05-0.63-0.07-0.94c-0.09-1.78-0.02-2.6,0.05-3.49
							c0.02-0.35,0.07-0.73,0.09-1.17c0.02-0.68,0-1.19,0-1.57v-0.09c-0.05-2.76-0.05-4.19-0.05-5.15c0-1.05,0-1.41-0.09-2.16
							c-0.07-0.63-0.14-1.17-0.23-1.66c-0.14-0.82-0.3-1.48-0.45-2.04c-0.35-1.31-0.59-2.25-0.3-3.96c0.35-1.92,1.01-2.72,1.5-3.07
							c1.31-0.94,3.28-0.52,5.04,0.02c0.33,0.09,0.66,0.21,1.01,0.3l0.28,0.35c0.07-0.07,0.14-0.12,0.21-0.21
							c4.26,1.26,8.74,2.25,13.59,3.05c0.42,0.05,0.82,0.19,1.24,0.33c0.56,0.21,1.15,0.4,1.9,0.47c0.82,0.07,1.38,0.02,1.85-0.05
							c0.59-0.07,1.08-0.12,1.71,0.23c0.56,0.28,0.87,0.68,1.17,1.05c0.3,0.4,0.61,0.8,1.29,1.05c0.26,0.09,0.87,0.3,1.1,0.12
							c0.09-0.09,0.16-0.28,0.19-0.52c0.05-0.7-0.33-1.9-1.1-2.72c-0.61-0.68-1.29-0.82-2.48-1.05c-0.49-0.12-1.05-0.23-1.76-0.4
							c-2.88-0.75-4.94-1.85-6.07-2.46c-1.19-0.63-1.76-1.05-2.41-1.55c-0.59-0.47-1.26-0.98-2.65-1.83
							c-2.62-1.59-3.94-2.39-5.51-2.81c-0.16-0.05-0.33-0.09-0.52-0.12c0.02-0.21,0.05-0.4,0.09-0.59c0.21,0.05,0.4,0.09,0.59,0.14
							c1.64,0.45,2.98,1.24,5.62,2.88c1.43,0.87,2.11,1.38,2.74,1.85c0.63,0.49,1.15,0.89,2.32,1.5c1.08,0.59,3.12,1.66,5.93,2.39
							c0.68,0.19,1.26,0.3,1.76,0.4C87.64,181.64,88.39,181.8,89.16,182.62z"/>
						<path class="st153" d="M88.72,183.02c0.77,0.82,1.15,2.01,1.1,2.72c-0.02,0.23-0.09,0.42-0.19,0.52
							c-0.23,0.19-0.84-0.02-1.1-0.12c-0.68-0.26-0.98-0.66-1.29-1.05c-0.3-0.37-0.61-0.77-1.17-1.05c-0.63-0.35-1.12-0.3-1.71-0.23
							c-0.47,0.07-1.03,0.12-1.85,0.05c-0.75-0.07-1.34-0.26-1.9-0.47c-0.42-0.14-0.82-0.28-1.24-0.33
							c-4.85-0.8-9.32-1.78-13.59-3.05c0.96-0.84,1.5-1.76,1.64-2.72c0.07-0.54,0-0.96-0.07-1.48c-0.07-0.52-0.16-1.12-0.12-2.01
							c0.02-0.33,0.05-0.66,0.09-0.98c0.19,0.02,0.35,0.07,0.52,0.12c1.57,0.42,2.88,1.22,5.51,2.81c1.38,0.84,2.06,1.36,2.65,1.83
							c0.66,0.49,1.22,0.91,2.41,1.55c1.12,0.61,3.19,1.71,6.07,2.46c0.7,0.16,1.26,0.28,1.76,0.4
							C87.43,182.2,88.11,182.34,88.72,183.02z"/>
						<path d="M87.19,253.62c0.21,0.66,0.56,2.23-0.21,3.51c-0.54,0.91-1.48,1.29-2.41,1.64c-0.4,0.16-0.8,0.3-1.12,0.49
							c-0.37,0.23-0.75,0.49-1.1,0.75c-1.1,0.8-2.25,1.64-3.87,1.17c-1.12-0.3-1.9-1.03-2.37-1.59c-1.83-2.27-4.31-6.72-6.93-11.43
							c-1.76-3.19-3.58-6.47-5.27-9.16c0.16-0.07,0.35-0.16,0.54-0.26c1.66,2.67,3.47,5.95,5.25,9.11
							c2.62,4.71,5.08,9.14,6.89,11.36c0.4,0.49,1.08,1.15,2.06,1.41c1.34,0.37,2.32-0.33,3.35-1.08c0.37-0.28,0.75-0.54,1.15-0.77
							c0.37-0.21,0.82-0.4,1.22-0.54c0.87-0.35,1.69-0.66,2.13-1.38c0.66-1.1,0.33-2.48,0.14-3.02l-0.02-0.09
							c-0.16-0.37-1.38-0.19-2.48-0.02c-1.17,0.19-2.53,0.4-3.61,0.16c-2.41-0.56-3.23-3.19-4.61-7.54
							c-0.96-2.98-2.13-6.68-4.22-11.03c-0.02-0.05-0.05-0.12-0.07-0.16c0.16-0.07,0.33-0.16,0.52-0.28
							c0.02,0.05,0.07,0.12,0.09,0.19c2.11,4.4,3.28,8.13,4.22,11.1c1.34,4.17,2.13,6.68,4.19,7.14c0.98,0.23,2.27,0.02,3.4-0.16
							c1.55-0.23,2.76-0.42,3.12,0.37C87.15,253.51,87.17,253.53,87.19,253.62z"/>
						<path class="st153" d="M86.63,253.83c0.19,0.54,0.52,1.92-0.14,3.02c-0.45,0.73-1.26,1.03-2.13,1.38
							c-0.4,0.14-0.84,0.33-1.22,0.54c-0.4,0.23-0.77,0.49-1.15,0.77c-1.03,0.75-2.01,1.45-3.35,1.08
							c-0.98-0.26-1.66-0.91-2.06-1.41c-1.8-2.23-4.26-6.65-6.89-11.36c-1.78-3.16-3.58-6.44-5.25-9.11
							c1.97-0.91,4.29-2.11,7.17-3.61c0.02,0.05,0.05,0.12,0.07,0.16c2.08,4.36,3.26,8.06,4.22,11.03c1.38,4.36,2.2,6.98,4.61,7.54
							c1.08,0.23,2.44,0.02,3.61-0.16c1.1-0.16,2.32-0.35,2.48,0.02L86.63,253.83z"/>
						<path d="M74.8,224.58c2.58,3,3.87,4.5,3.35,6.14c-0.37,1.19-1.5,1.8-2.34,2.23c-1.31,0.7-2.55,1.34-3.68,1.92
							c-0.05-0.09-0.09-0.19-0.12-0.26c1.12-0.59,2.34-1.22,3.65-1.92c0.89-0.47,1.87-1.01,2.2-2.04c0.59-1.83-1.36-3.54-5.13-8.06
							c-3.19-3.82-4.78-5.74-6.58-8.5c-0.68-1.03-1.99-2.79-4.61-6.28l0.26-0.16c2.62,3.51,3.94,5.25,4.61,6.3
							c1.78,2.72,3.37,4.61,6.54,8.41C73.65,223.19,74.26,223.92,74.8,224.58z"/>
						<path d="M72.74,222.58c3.77,4.52,5.72,6.23,5.13,8.06c-0.33,1.03-1.31,1.57-2.2,2.04c-1.31,0.7-2.53,1.34-3.65,1.92
							c-0.07-0.09-0.09-0.16-0.14-0.26c1.15-0.59,2.37-1.24,3.68-1.92c0.77-0.4,1.73-0.91,2.04-1.87c0.42-1.34-0.8-2.76-3.23-5.6
							c-0.54-0.66-1.15-1.38-1.83-2.18c-3.21-3.84-4.8-5.76-6.61-8.53c-0.68-1.01-1.99-2.76-4.59-6.25l-0.02-0.02
							c-0.87-1.15-1.34-1.78-1.83-2.16c0-0.14-0.02-0.26-0.02-0.37c0.61,0.4,1.15,1.08,2.08,2.37c2.62,3.49,3.94,5.25,4.61,6.28
							C67.96,216.84,69.55,218.77,72.74,222.58z"/>
						<path class="st26" d="M74.36,224.95c2.44,2.83,3.65,4.26,3.23,5.6c-0.3,0.96-1.26,1.48-2.04,1.87
							c-1.31,0.68-2.53,1.34-3.68,1.92c-0.14-0.26-0.26-0.45-0.47-0.8c-0.45-0.77-1.26-2.18-3.58-6.42
							c-5.22-9.53-6.35-12.11-7.24-15.51c-0.52-1.9-0.87-3.89-1.1-5.81c0.49,0.37,0.96,1.01,1.83,2.16l0.02,0.02
							c2.6,3.49,3.91,5.25,4.59,6.25c1.8,2.76,3.4,4.69,6.61,8.53C73.21,223.57,73.82,224.29,74.36,224.95z"/>
						<path d="M72.13,234.86c-0.19,0.12-0.35,0.21-0.52,0.28c-0.05-0.09-0.09-0.19-0.14-0.26c0.16-0.07,0.35-0.16,0.54-0.28
							C72.04,234.67,72.08,234.77,72.13,234.86z"/>
						<path d="M72.01,234.6c-0.19,0.12-0.37,0.21-0.54,0.28c-0.05-0.09-0.09-0.19-0.12-0.26c0.16-0.09,0.33-0.19,0.52-0.28
							C71.92,234.44,71.94,234.51,72.01,234.6z"/>
						<path class="st26" d="M71.87,234.34c-0.19,0.09-0.35,0.19-0.52,0.28c-0.14-0.26-0.26-0.45-0.45-0.8
							c-0.47-0.75-1.29-2.18-3.61-6.42c-5.25-9.58-6.37-12.2-7.29-15.65c-0.54-2.08-0.94-4.22-1.15-6.3
							c0.23,0.09,0.42,0.21,0.61,0.35c0.23,1.92,0.59,3.91,1.1,5.81c0.89,3.4,2.01,5.97,7.24,15.51c2.32,4.24,3.14,5.65,3.58,6.42
							C71.62,233.9,71.73,234.09,71.87,234.34z"/>
						<path d="M71.48,234.88c0.05,0.07,0.09,0.16,0.14,0.26c-2.88,1.5-5.2,2.69-7.17,3.61c-0.07-0.09-0.12-0.16-0.16-0.23
							C66.2,237.62,68.55,236.43,71.48,234.88z"/>
						<path d="M71.36,234.63c0.02,0.07,0.07,0.16,0.12,0.26c-2.93,1.55-5.27,2.74-7.19,3.63c-0.05-0.07-0.09-0.16-0.14-0.23
							C66.09,237.34,68.45,236.15,71.36,234.63z"/>
						<path class="st26" d="M70.91,233.83c0.19,0.35,0.3,0.54,0.45,0.8c-2.9,1.52-5.27,2.72-7.22,3.65
							c-0.33-0.52-0.66-1.01-0.96-1.48c-2.48-3.65-7.07-9.63-10-8.6c-0.77,0.28-0.98,0.94-1.36,2.27c-0.26,0.91-0.61,2.18-1.31,3.89
							c-0.61,1.5-1.87,4.64-4.19,7.71c-0.02,0.02-0.02,0.02-0.02,0.05c-2.79,0.14-5.83,0.16-8.46-0.37
							c0.98-1.92,1.71-4.03,1.97-6.79c0.12-1.29,0.07-2.13,0.05-2.95c-0.07-1.12-0.09-2.08,0.23-3.91c0.42-2.18,1.31-4.08,2.18-5.9
							c0.82-1.71,1.59-3.3,1.92-5.06c0.35-1.8-0.4-4.43-1.99-9.49c0.54-0.23,1.29-0.28,3.16-0.35c0.45-0.02,0.96-0.05,1.57-0.07
							c3.23-0.16,4.85-0.26,5.72-0.42c1.55-0.3,2.58-0.7,3.42-1.03c0.75-0.28,1.29-0.49,1.85-0.49c0.26,0,0.52,0.02,0.8,0.12
							c0.05,0.02,0.12,0.05,0.16,0.07c0.21,2.08,0.61,4.22,1.15,6.3c0.91,3.44,2.04,6.07,7.29,15.65
							C69.63,231.65,70.44,233.08,70.91,233.83z"/>
						<path d="M67.35,175.8c0.07,0.52,0.14,0.94,0.07,1.48c-0.14,0.96-0.68,1.87-1.64,2.72c-0.16-0.05-0.33-0.09-0.49-0.14
							l-0.09-0.12c0.96-0.8,1.52-1.66,1.64-2.55c0.07-0.42,0.02-0.8-0.07-1.29c-0.07-0.52-0.19-1.19-0.12-2.16
							c0.02-0.35,0.05-0.73,0.09-1.08c0.21,0.05,0.4,0.09,0.59,0.14c-0.05,0.33-0.07,0.66-0.09,0.98
							C67.19,174.68,67.28,175.29,67.35,175.8z"/>
						<path d="M67.42,172.17c0,0.02,0,0.02,0,0.05c-0.19-0.05-0.37-0.09-0.59-0.12c0-0.02,0-0.02,0-0.05L67.42,172.17z"/>
						<path d="M67.42,172.22c-0.05,0.19-0.07,0.37-0.09,0.59c-0.19-0.05-0.37-0.09-0.59-0.14c0.02-0.19,0.05-0.37,0.09-0.56
							C67.05,172.13,67.24,172.17,67.42,172.22z"/>
						<path class="st182" d="M66.77,175.9c0.09,0.49,0.14,0.87,0.07,1.29c-0.12,0.89-0.68,1.76-1.64,2.55l0.09,0.12
							c-0.35-0.09-0.68-0.21-1.01-0.3c-1.76-0.54-3.72-0.96-5.04-0.02c-0.49,0.35-1.15,1.15-1.5,3.07c-0.28,1.71-0.05,2.65,0.3,3.96
							c0.14,0.56,0.3,1.22,0.45,2.04l-1.73,0.3l-0.59-0.07c-0.02,0.3-0.21,1.29-1.05,1.87c-0.96,0.66-2.34,0.49-3.37-0.4l-0.37,0.45
							h-2.13l-0.52-0.28c-0.19,0.33-0.87,1.48-2.18,1.78c-1.5,0.35-3.14-0.52-3.98-2.08l-0.52,0.28l-3.05,0.4
							c-0.02-0.21-0.07-0.42-0.09-0.66c-0.28-2.27-0.66-5.08-2.34-5.62c-0.7-0.23-1.97-0.09-3.82,1.83
							c-0.47,0.49-0.8,0.96-1.01,1.41c-0.33-0.21-0.68-0.4-1.01-0.56c-0.35-0.19-0.54-0.26-0.68-0.3c-0.12-0.05-0.23-0.09-0.4-0.19
							c-0.42-0.23-0.77-0.59-1.5-1.34c-0.21-0.23-0.52-0.56-0.87-0.94l-0.16,0.14c0.23-0.56,0.52-1.22,0.91-1.97
							c0.47-0.91,1.1-2.08,2.04-3.28c0.87,0.59,1.87,0.91,2.81,0.91c0.33,0,0.63-0.05,0.94-0.14c1.59-0.45,2.23-1.85,3.82-5.62
							c0.98-0.05,1.87,0.12,2.69,0.26c1.36,0.26,2.67,0.49,3.98-0.42c0.21-0.14,0.4-0.3,0.56-0.47c0.35,0.75,1.17,2.08,2.76,2.98
							c0.61,0.35,1.8,0.89,3.4,0.89c0.12,0,0.26,0,0.37-0.02c0.75-0.05,1.9-0.21,3.02-0.87c2.51-1.41,3.28-4.08,3.47-4.87l0.02-0.07
							c0.75,0.19,1.41,0.16,1.59,0.16c1.55-0.07,4.78,0.09,7.22,0.59c-0.05,0.35-0.07,0.73-0.09,1.08
							C66.58,174.7,66.7,175.38,66.77,175.9z"/>
						<path d="M66.84,172.1c-0.05,0.19-0.07,0.37-0.09,0.56c-2.44-0.49-5.67-0.66-7.22-0.59c-0.19,0-0.84,0.02-1.59-0.16
							c-0.49-0.12-1.03-0.33-1.48-0.68c-0.59-0.23-0.94-0.42-1.22-0.59c-0.09-0.05-0.16-0.09-0.23-0.12
							c0.19-0.12,0.35-0.26,0.45-0.45c0.02,0.02,0.05,0.02,0.07,0.05c0.07,0.05,0.14,0.09,0.26,0.14c0.23,0.14,0.54,0.28,0.94,0.45
							l0.09,0.05c0.94,0.77,2.39,0.73,2.67,0.73C61.1,171.42,64.35,171.61,66.84,172.1z"/>
						<path d="M65.78,180c-0.07,0.09-0.14,0.14-0.21,0.21l-0.28-0.35C65.46,179.9,65.62,179.95,65.78,180z"/>
						<path d="M64.28,238.51c0.05,0.07,0.09,0.14,0.16,0.23c-0.19,0.09-0.37,0.19-0.54,0.26c-0.05-0.09-0.09-0.16-0.16-0.23
							C63.91,238.7,64.1,238.61,64.28,238.51z"/>
						<path d="M64.14,238.28c0.05,0.07,0.09,0.16,0.14,0.23c-0.19,0.09-0.37,0.19-0.54,0.26c-0.02-0.09-0.09-0.16-0.14-0.23
							C63.77,238.44,63.96,238.37,64.14,238.28z"/>
						<path class="st26" d="M64.14,238.28c-0.19,0.09-0.37,0.16-0.54,0.26c-0.3-0.49-0.61-0.96-0.91-1.41
							c-4.01-5.9-7.47-9.04-9.32-8.39c-0.47,0.19-0.61,0.61-0.98,1.9c-0.26,0.94-0.61,2.2-1.34,3.96c-0.59,1.45-1.8,4.45-4.01,7.45
							c-0.23,0.02-0.49,0.05-0.75,0.07c0-0.02,0-0.02,0.02-0.05c2.32-3.07,3.58-6.21,4.19-7.71c0.7-1.71,1.05-2.98,1.31-3.89
							c0.37-1.34,0.59-1.99,1.36-2.27c2.93-1.03,7.52,4.94,10,8.6C63.49,237.27,63.82,237.76,64.14,238.28z"/>
						<path d="M63.75,238.77c0.07,0.07,0.12,0.14,0.16,0.23c-1.97,0.91-3.51,1.52-4.85,1.87c-3.75,0.94-6.86,1.34-8.39,1.48
							c-1.22,0.12-2.62,0.23-4.08,0.3c0.07-0.07,0.12-0.14,0.19-0.23c0.02-0.02,0.05-0.05,0.05-0.07c1.38-0.07,2.67-0.21,3.82-0.3
							c1.01-0.09,4.24-0.42,8.34-1.45C60.25,240.25,61.78,239.66,63.75,238.77z"/>
						<path d="M63.6,238.54c0.05,0.07,0.12,0.14,0.14,0.23c-1.97,0.89-3.49,1.48-4.76,1.83c-4.1,1.03-7.33,1.36-8.34,1.45
							c-1.15,0.09-2.44,0.23-3.82,0.3c0.09-0.09,0.16-0.21,0.21-0.3c1.29-0.07,2.48-0.19,3.56-0.28c1.52-0.14,4.59-0.52,8.32-1.45
							C60.18,239.99,61.71,239.4,63.6,238.54z"/>
						<path class="st26" d="M62.69,237.13c0.3,0.45,0.61,0.91,0.91,1.41c-1.9,0.87-3.42,1.45-4.69,1.78
							c-3.72,0.94-6.79,1.31-8.32,1.45c-1.08,0.09-2.27,0.21-3.56,0.28c2.2-3,3.42-6,4.01-7.45c0.73-1.76,1.08-3.02,1.34-3.96
							c0.37-1.29,0.52-1.71,0.98-1.9C55.22,228.09,58.69,231.23,62.69,237.13z"/>
						<path d="M61.78,207.62l-0.23,0.19c-0.94-1.29-1.48-1.97-2.08-2.37c-0.02-0.12-0.02-0.23-0.05-0.35
							C60.18,205.48,60.75,206.23,61.78,207.62z"/>
						<path d="M59.46,205.44c0,0.12,0.02,0.23,0.02,0.37c-0.19-0.14-0.37-0.26-0.61-0.35c-0.02-0.12-0.02-0.21-0.02-0.3
							C59.06,205.23,59.27,205.32,59.46,205.44z"/>
						<path d="M59.41,205.09c0.02,0.12,0.02,0.23,0.05,0.35c-0.19-0.12-0.4-0.21-0.61-0.28l-0.02-0.02c0-0.12-0.02-0.21-0.02-0.3
							c0.02,0,0.07,0.02,0.09,0.02C59.08,204.92,59.25,204.99,59.41,205.09z"/>
						<path class="st182" d="M58.87,197.66c0,0.37,0.02,0.89,0,1.57c-0.02,0.45-0.07,0.82-0.09,1.17c-0.07,0.89-0.14,1.71-0.05,3.49
							c0.02,0.3,0.05,0.61,0.07,0.94c-1.08-0.33-1.85-0.02-2.95,0.4c-0.82,0.3-1.83,0.7-3.33,1.01c-0.82,0.14-2.44,0.23-5.62,0.4
							c-0.61,0.02-1.12,0.05-1.59,0.07c-1.83,0.07-2.67,0.09-3.28,0.4c-0.02-0.09-0.07-0.19-0.09-0.28
							c-0.73-2.37-1.34-3.89-1.83-5.11c-0.75-1.87-1.15-2.9-1.17-4.97c-0.02-0.77,0.02-1.41,0.07-2.08c0.09-1.08,0.16-2.18,0-3.82
							l3.05-0.4c0.82,1.52,2.32,2.46,3.82,2.46c0.28,0,0.54-0.02,0.82-0.09c1.55-0.35,2.34-1.69,2.55-2.06h2.13
							c0.7,0.61,1.57,0.94,2.39,0.94c0.61,0,1.19-0.16,1.69-0.52c1.05-0.7,1.26-1.92,1.31-2.27l1.73-0.3
							c0.09,0.49,0.16,1.03,0.23,1.66c0.09,0.75,0.09,1.1,0.09,2.16c0,0.96,0,2.39,0.05,5.15V197.66z"/>
						<path d="M58.85,205.16c0,0.09,0,0.19,0.02,0.3c-0.05-0.02-0.12-0.05-0.16-0.07c-0.28-0.09-0.54-0.12-0.8-0.12
							c-0.56,0-1.1,0.21-1.85,0.49c-0.84,0.33-1.87,0.73-3.42,1.03c-0.87,0.16-2.48,0.26-5.72,0.42c-0.61,0.02-1.12,0.05-1.57,0.07
							c-1.87,0.07-2.62,0.12-3.16,0.35c-0.02-0.09-0.07-0.19-0.09-0.28c0.73-0.33,1.78-0.28,4.8-0.45c3.23-0.16,4.83-0.23,5.67-0.4
							c3.58-0.7,4.45-1.99,6.23-1.38h0.02L58.85,205.16z"/>
						<path d="M58.8,204.83c0,0.09,0.02,0.19,0.02,0.3H58.8c-1.78-0.61-2.65,0.68-6.23,1.38c-0.84,0.16-2.44,0.23-5.67,0.4
							c-3.02,0.16-4.08,0.12-4.8,0.45c-0.02-0.09-0.05-0.16-0.07-0.26c0.61-0.3,1.45-0.33,3.28-0.4c0.47-0.02,0.98-0.05,1.59-0.07
							c3.19-0.16,4.8-0.26,5.62-0.4c1.5-0.3,2.51-0.7,3.33-1.01C56.95,204.8,57.72,204.5,58.8,204.83z"/>
						<path class="st153" d="M57.94,171.91l-0.02,0.07l-0.59-0.12c-0.16,0.73-0.87,3.19-3.16,4.5c-1.03,0.59-2.08,0.75-2.76,0.77
							c-1.62,0.09-2.86-0.45-3.44-0.77c-1.5-0.87-2.27-2.13-2.58-2.81l-0.33,0.16c0.54-0.56,0.84-1.22,1.12-1.8
							c0.3-0.59,0.54-1.08,0.96-1.38c0.33,0.19,0.75,0.33,1.26,0.47c1.78,0.45,5.08,0.63,6.61-0.47c0.07,0.02,0.14,0.07,0.23,0.12
							c0.28,0.16,0.63,0.35,1.22,0.59C56.9,171.59,57.44,171.8,57.94,171.91z"/>
						<path d="M57.33,171.87l0.59,0.12c-0.19,0.8-0.96,3.47-3.47,4.87c-1.12,0.66-2.27,0.82-3.02,0.87
							c-0.12,0.02-0.26,0.02-0.37,0.02c-1.59,0-2.79-0.54-3.4-0.89c-1.59-0.89-2.41-2.23-2.76-2.98c0.07-0.05,0.12-0.09,0.16-0.16
							l0.33-0.16c0.3,0.68,1.08,1.94,2.58,2.81c0.59,0.33,1.83,0.87,3.44,0.77c0.68-0.02,1.73-0.19,2.76-0.77
							C56.46,175.05,57.16,172.59,57.33,171.87z"/>
						<path d="M56.18,188.83l0.59,0.07c-0.05,0.35-0.26,1.57-1.31,2.27c-0.49,0.35-1.08,0.52-1.69,0.52c-0.82,0-1.69-0.33-2.39-0.94
							l0.37-0.45c1.03,0.89,2.41,1.05,3.37,0.4C55.97,190.12,56.16,189.13,56.18,188.83z"/>
						<path d="M55.36,167.93c0.35,0.68,0.59,1.15,0.33,1.78c-0.05,0.14-0.12,0.26-0.23,0.37c-0.19-0.14-0.21-0.21-0.3-0.21
							c-0.19-0.02-0.28,0.19-0.52,0.37c-0.05,0.05-0.09,0.07-0.12,0.09c-0.09-0.02-0.14-0.05-0.21-0.05c0.4-0.21,0.7-0.47,0.84-0.8
							c0.16-0.37,0.02-0.66-0.3-1.29c-0.3-0.59-0.7-1.38-1.03-2.62c-0.07-0.3-0.14-0.59-0.21-0.84c-0.28-0.89-0.49-1.62-0.02-2.08
							c0.23-0.26,0.52-0.3,0.75-0.33c0.19-0.02,0.28-0.05,0.35-0.12c0.19-0.23-0.05-0.75-0.28-1.31c-0.14-0.28-0.26-0.61-0.37-0.94
							c-0.42-1.36-0.07-2.37,0.26-3.26c0.28-0.75,0.54-1.45,0.3-2.34c-0.33-1.22-1.45-2.34-2.79-2.83c0.05-0.02,0.07-0.05,0.12-0.09
							c-0.59-0.47-1.66-1.17-3.14-1.52c-0.19-0.05-0.84-0.21-1.66-0.21c-2.32,0-4.22,1.1-5.01,1.57c-2.23,1.26-3.47,3.05-6.04,6.93
							c-1.17,1.76-2.51,3.72-3.94,6.7c-2.79,5.74-4.83,9.89-3.09,12.6c0.23,0.4,0.56,0.73,0.94,1.03c-0.14,0.16-0.26,0.3-0.37,0.47
							c-0.42-0.35-0.77-0.75-1.05-1.19c-1.9-2.98,0.16-7.26,3.05-13.17c1.48-3,2.81-5.01,3.98-6.77c2.46-3.68,3.79-5.72,6.25-7.12
							c1.03-0.61,3.82-2.2,7.07-1.43c1.15,0.28,2.23,0.8,3.19,1.57c0.37,0.35,0.75,0.7,1.1,1.03c1.57,0.89,1.9,1.92,1.97,2.27
							c0.23,1.05-0.16,2.37-0.3,2.72c-0.33,0.87-0.63,1.69-0.26,2.88c0.09,0.28,0.23,0.59,0.35,0.87c0.3,0.73,0.61,1.41,0.21,1.9
							c-0.21,0.28-0.52,0.3-0.73,0.35c-0.21,0.02-0.33,0.05-0.42,0.14c-0.23,0.23-0.05,0.84,0.16,1.52
							c0.07,0.28,0.16,0.56,0.23,0.87C54.68,166.64,55.08,167.39,55.36,167.93z"/>
						<path class="st153" d="M54.84,168.21c0.33,0.63,0.47,0.91,0.3,1.29c-0.14,0.33-0.45,0.59-0.84,0.8
							c-0.07,0.02-0.14,0.05-0.23,0.07c-1.41,0.54-3.79,0.47-5.48,0.05c-0.02,0-0.02,0-0.05,0s-0.02,0-0.05-0.02
							c-0.14-0.05-0.26-0.09-0.4-0.09c-0.02,0-0.02-0.02-0.05-0.02c-0.94-0.28-1.43-0.66-1.59-0.84c-0.26-0.21-0.7-0.91-1.57-2.23
							l-0.19-0.28c-0.4-0.63-0.63-0.98-1.08-1.41l-0.19-0.19c-0.14-0.12-0.23-0.23-0.35-0.37c-0.28-0.4-0.42-0.89-0.42-1.5h-0.35
							c0.61-1.48,0.68-1.76,0.8-2.27c0.23-0.94,0.37-1.69,0.52-2.37c0.26-1.36,0.45-2.3,0.98-3.28c0.42-0.12,0.87-0.23,1.31-0.4
							c2.65-0.91,4.57-2.37,5.88-3.61c1.34,0.49,2.46,1.62,2.79,2.83c0.23,0.89-0.02,1.59-0.3,2.34c-0.33,0.89-0.68,1.9-0.26,3.26
							c0.12,0.33,0.23,0.66,0.37,0.94c0.23,0.56,0.47,1.08,0.28,1.31c-0.07,0.07-0.16,0.09-0.35,0.12
							c-0.23,0.02-0.52,0.07-0.75,0.33c-0.47,0.47-0.26,1.19,0.02,2.08c0.07,0.26,0.14,0.54,0.21,0.84
							C54.14,166.83,54.54,167.63,54.84,168.21z M53.98,167.35l-0.26-0.54c0,0.16-1.1,0.4-1.22,0.42c-0.52,0.09-1.01,0.19-1.52,0.19
							c-1.01-0.02-1.92-0.47-2.34-1.41c0.3,0.68,0.49,1.31,1.24,1.64c0.66,0.28,1.41,0.4,2.13,0.33
							C52.17,167.96,53.98,167.49,53.98,167.35z M53.18,158.4c0-0.33-0.42-0.61-0.94-0.61c-0.54,0-0.96,0.28-0.96,0.61
							c0,0.35,0.42,0.63,0.96,0.63C52.76,159.03,53.18,158.75,53.18,158.4z M44.65,164.79l0.02-0.59c-0.33,0-0.56-0.07-0.77-0.23
							c-0.54-0.45-0.37-1.52-0.28-2.16c0.09-0.42,0.19-0.82,0.3-1.1c0.02,0.19,0.05,0.45,0.07,0.8l0.56-0.02
							c-0.02-1.22-0.19-1.64-0.52-1.66c-0.66-0.12-0.94,1.57-0.98,1.92c-0.12,0.68-0.35,1.99,0.45,2.67
							C43.83,164.68,44.21,164.82,44.65,164.79z"/>
						<path d="M55.15,169.88c0.09,0,0.12,0.07,0.3,0.21c-0.09,0.19-0.26,0.33-0.45,0.45c-0.14-0.07-0.23-0.12-0.37-0.16
							c-0.05-0.02-0.09-0.02-0.12-0.02c0.02-0.02,0.07-0.05,0.12-0.09C54.87,170.06,54.96,169.85,55.15,169.88z"/>
						<path d="M54.63,170.37c0.14,0.05,0.23,0.09,0.37,0.16c-1.52,1.1-4.83,0.91-6.61,0.47c-0.52-0.14-0.94-0.28-1.26-0.47
							c0.12-0.07,0.23-0.14,0.37-0.19c0.02,0.02,0.07,0.02,0.12,0.05c0.45,0.14,0.4,0.19,0.73,0.28c0.35,0.09,0.47,0.05,0.87,0.14
							c0.05,0.02,0.16,0.07,0.33,0.07c0.02,0,0.05,0,0.07,0h0.02c0.35,0.14,0.8,0.23,1.41,0.21c0.21-0.02,0.42-0.05,0.61-0.07
							c0.09-0.02,0.16-0.05,0.21-0.07c0.05-0.02,0.09-0.05,0.16-0.05c0.02,0,0.02,0,0.05-0.02c0.05,0,0.09-0.02,0.12-0.02
							c0.19,0,0.33,0.02,0.59,0.02c0.37,0.02,0.61,0.02,0.82-0.09c0.14-0.07,0.21-0.16,0.28-0.23c0.19-0.02,0.35-0.07,0.56-0.19
							c0.02,0,0.05-0.02,0.07-0.02S54.59,170.34,54.63,170.37z"/>
						<path d="M54.52,170.34c-0.02,0-0.05,0.02-0.07,0.02c-0.21,0.12-0.37,0.16-0.56,0.19c0.07-0.07,0.12-0.14,0.19-0.19
							c0.09-0.02,0.16-0.05,0.23-0.07C54.37,170.3,54.42,170.32,54.52,170.34z"/>
						<path d="M53.72,166.81l0.26,0.54c0,0.14-1.8,0.61-1.97,0.63c-0.73,0.07-1.48-0.05-2.13-0.33c-0.75-0.33-0.94-0.96-1.24-1.64
							c0.42,0.94,1.34,1.38,2.34,1.41c0.52,0,1.01-0.09,1.52-0.19C52.62,167.21,53.72,166.97,53.72,166.81z"/>
						<path d="M54.07,170.37c-0.07,0.05-0.12,0.12-0.19,0.19c-0.09,0.02-0.19,0.02-0.28,0.05c-0.66,0.12-0.77,0.26-0.91,0.23
							c-0.05,0-0.05-0.02-0.09-0.02c-0.16-0.05-0.4,0.05-0.4,0.05c-0.02,0-0.07,0.02-0.12,0.02h-0.02l-0.02,0.02
							c-0.07,0-0.12,0.02-0.16,0.05c-0.09,0.02-0.19,0.02-0.26,0.02c-0.35,0.02-0.42,0.05-0.47,0.02c0,0,0,0-0.02,0
							c-0.09-0.07-0.21-0.09-0.26-0.12h-0.02c-0.3-0.05-0.52-0.02-0.98,0.02c-0.02,0-0.09,0-0.21-0.02h-0.02
							c-0.26-0.09-0.47-0.19-0.68-0.28c-0.12-0.07-0.23-0.12-0.35-0.19C50.28,170.84,52.66,170.91,54.07,170.37z"/>
						<path d="M53.6,170.6c0.09-0.02,0.19-0.02,0.28-0.05c-0.07,0.07-0.14,0.16-0.28,0.23c-0.21,0.12-0.45,0.12-0.82,0.09
							c-0.26,0-0.4-0.02-0.59-0.02c0,0,0.23-0.09,0.4-0.05c0.05,0,0.05,0.02,0.09,0.02C52.83,170.86,52.95,170.72,53.6,170.6z"/>
						<path d="M52.24,157.79c0.52,0,0.94,0.28,0.94,0.61c0,0.35-0.42,0.63-0.94,0.63c-0.54,0-0.96-0.28-0.96-0.63
							C51.28,158.07,51.7,157.79,52.24,157.79z"/>
						<path d="M52.08,170.88c-0.02,0.02-0.02,0.02-0.05,0.02l0.02-0.02H52.08z"/>
						<path d="M51.92,151.44c-0.05,0.05-0.07,0.07-0.12,0.09c-0.26-0.12-0.54-0.19-0.82-0.23c-2.76-0.45-5.01,2.23-5.86,3.4
							c-0.21,0.28-0.37,0.56-0.52,0.84c-0.26,0.07-0.52,0.14-0.75,0.19c-0.42,0.89-0.59,1.76-0.82,2.98
							c-0.12,0.68-0.28,1.43-0.49,2.34c-0.21,0.94-0.3,1.12-4.33,10.61l-0.96,2.3c-0.66,0.07-1.38,0.26-2.13,0.59
							c-1.5,0.66-2.95,1.69-4.31,3.07c-0.3,0.3-0.59,0.63-0.84,0.94c-0.37-0.3-0.7-0.63-0.94-1.03c-1.73-2.72,0.3-6.86,3.09-12.6
							c1.43-2.98,2.76-4.94,3.94-6.7c2.58-3.89,3.82-5.67,6.04-6.93c0.8-0.47,2.69-1.57,5.01-1.57c0.82,0,1.48,0.16,1.66,0.21
							C50.25,150.27,51.33,150.97,51.92,151.44z"/>
						<path d="M51.61,170.98c0.07,0,0.16,0,0.26-0.02c-0.05,0.02-0.12,0.05-0.21,0.07c-0.19,0.02-0.4,0.05-0.61,0.07
							c-0.61,0.02-1.05-0.07-1.41-0.21c0.12,0.02,0.19,0.02,0.21,0.02c0.47-0.05,0.68-0.07,0.98-0.02h0.02
							c0.05,0.02,0.16,0.05,0.26,0.12c0.02,0,0.02,0,0.02,0C51.19,171.02,51.26,171,51.61,170.98z"/>
						<path d="M50.98,151.3c0.28,0.05,0.56,0.12,0.82,0.23c-1.31,1.24-3.23,2.69-5.88,3.61c-0.45,0.16-0.89,0.28-1.31,0.4
							c0.14-0.28,0.3-0.56,0.52-0.84C45.97,153.53,48.21,150.85,50.98,151.3z"/>
						<path d="M49.62,170.88c-0.02,0-0.05,0-0.07,0c-0.16,0-0.28-0.05-0.33-0.07c-0.4-0.09-0.52-0.05-0.87-0.14
							c-0.33-0.09-0.28-0.14-0.73-0.28c-0.05-0.02-0.09-0.02-0.12-0.05c0.07-0.02,0.14-0.02,0.21-0.05
							c0.12-0.02,0.21-0.02,0.33-0.02c0.02,0,0.02,0.02,0.05,0.02c0.12,0.02,0.26,0.07,0.4,0.09c0.02,0.02,0.02,0.02,0.05,0.02
							s0.02,0,0.05,0c0.12,0.07,0.23,0.12,0.35,0.19C49.15,170.7,49.36,170.79,49.62,170.88z"/>
						<path d="M48.73,190.47l0.52,0.28c-0.21,0.37-1.01,1.71-2.55,2.06c-0.28,0.07-0.54,0.09-0.82,0.09c-1.5,0-3-0.94-3.82-2.46
							l0.52-0.28c0.84,1.57,2.48,2.44,3.98,2.08C47.86,191.94,48.54,190.8,48.73,190.47z"/>
						<path d="M48.05,170.27c-0.12,0-0.21,0-0.33,0.02c-0.07,0.02-0.14,0.02-0.21,0.05c-0.3-0.12-0.47-0.16-0.61-0.16
							c-0.12,0.02-0.21,0.05-0.28,0.12c-0.26-0.16-0.45-0.3-0.56-0.42c-0.3-0.26-0.73-0.91-1.64-2.34l-0.21-0.3
							c-0.4-0.61-0.61-0.91-0.98-1.29l-0.19-0.19c-0.14-0.14-0.28-0.26-0.42-0.47c-0.28-0.37-0.45-0.82-0.52-1.34
							c-0.59,1.45-1.59,3.84-3.35,7.94l-0.84,2.01c-0.21,0-0.42,0.02-0.66,0.05l0.96-2.3c4.03-9.49,4.12-9.67,4.33-10.61
							c0.21-0.91,0.37-1.66,0.49-2.34c0.23-1.22,0.4-2.08,0.82-2.98c0.23-0.05,0.49-0.12,0.75-0.19c-0.54,0.98-0.73,1.92-0.98,3.28
							c-0.14,0.68-0.28,1.43-0.52,2.37c-0.12,0.52-0.19,0.8-0.8,2.27h0.35c0,0.61,0.14,1.1,0.42,1.5c0.12,0.14,0.21,0.26,0.35,0.37
							l0.19,0.19c0.45,0.42,0.68,0.77,1.08,1.41l0.19,0.28c0.87,1.31,1.31,2.01,1.57,2.23C46.62,169.62,47.11,169.99,48.05,170.27z"
							/>
						<path d="M47.51,170.34c-0.14,0.05-0.26,0.12-0.37,0.19c-0.21-0.07-0.37-0.16-0.52-0.23c0.07-0.07,0.16-0.09,0.28-0.12
							C47.04,170.18,47.21,170.23,47.51,170.34z"/>
						<path d="M47.04,242.05c-0.05,0.09-0.12,0.21-0.21,0.3c-0.26,0.02-0.52,0.05-0.77,0.05c0.07-0.09,0.14-0.19,0.23-0.28
							C46.55,242.1,46.81,242.07,47.04,242.05z"/>
						<path d="M46.83,242.36c0,0.02-0.02,0.05-0.05,0.07c-0.07,0.09-0.12,0.16-0.19,0.23c-0.26,0.02-0.52,0.05-0.77,0.05
							c0.07-0.09,0.14-0.19,0.23-0.3C46.32,242.4,46.57,242.38,46.83,242.36z"/>
						<path d="M46.62,170.3c0.14,0.07,0.3,0.16,0.52,0.23c-0.42,0.3-0.66,0.8-0.96,1.38c-0.28,0.59-0.59,1.24-1.12,1.8l-0.21,0.09
							c0,0.02,0.02,0.05,0.05,0.07c-0.16,0.16-0.35,0.33-0.56,0.47c-1.31,0.91-2.62,0.68-3.98,0.42c-0.82-0.14-1.71-0.3-2.69-0.26
							c0.02-0.02,0.02-0.07,0.05-0.09l0.21-0.52c0.91-0.02,1.76,0.14,2.53,0.28c1.36,0.26,2.44,0.47,3.56-0.3
							c0.45-0.3,0.84-0.94,1.66-2.2C46.04,171.09,46.27,170.53,46.62,170.3z"/>
						<path d="M45.82,242.71c0.26,0,0.52-0.02,0.77-0.05c-0.73,0.91-1.22,1.41-1.76,1.92c-0.63,0.63-1.36,1.34-2.65,3.02
							c-0.47,0.59-1.34,1.83-3.07,4.29l-0.05,0.09c-2.25,3.19-2.62,3.94-2.9,4.54c-0.3,0.59-0.37,0.82-0.52,1.19
							c-0.16,0.45-0.4,1.08-1.05,2.6c-0.16,0.37-0.3,0.7-0.42,0.98c-0.56,1.26-0.68,1.57-0.56,1.78c0.16,0.28,0.61,0.28,1.41,0.28
							c0.96-0.02,2.25-0.05,3.65,0.68c0.35,0.19,2.18,1.15,1.99,2.06c-0.12,0.63-1.03,1.24-5.97,1.24c-1.62,0-3.65-0.07-6.23-0.21
							l-0.28-0.02v-0.28c0.07-5.36,1.08-10.33,3-14.76c1.22-2.74,2.6-4.87,3.82-6.77c0.7-1.08,1.38-2.13,1.97-3.21
							c0.19,0.07,0.4,0.12,0.61,0.16c-0.63,1.12-1.34,2.23-2.08,3.37c-1.26,1.94-2.58,3.98-3.77,6.68
							c-1.87,4.26-2.86,9.07-2.95,14.24c10.31,0.59,11.29-0.28,11.34-0.56c0.05-0.26-0.77-0.96-1.71-1.43
							c-1.26-0.66-2.41-0.63-3.37-0.61c-0.82,0-1.57,0-1.92-0.59c-0.26-0.47-0.09-0.84,0.54-2.3c0.12-0.28,0.26-0.61,0.42-0.98
							c0.66-1.5,0.87-2.11,1.03-2.55c0.16-0.42,0.23-0.66,0.54-1.26c0.4-0.8,0.87-1.64,2.95-4.64l0.07-0.07
							c1.73-2.48,2.6-3.72,3.07-4.33c1.31-1.69,2.06-2.41,2.72-3.07C44.86,243.74,45.29,243.34,45.82,242.71z"/>
						<path d="M46.29,242.12c-0.09,0.09-0.16,0.19-0.23,0.28c-2.76,0.14-5.76,0.14-8.36-0.4c0.05-0.09,0.09-0.16,0.14-0.26
							C40.46,242.29,43.51,242.26,46.29,242.12z"/>
						<path d="M46.06,242.4c-0.09,0.12-0.16,0.21-0.23,0.3c-0.84,0.05-1.69,0.07-2.55,0.07c-1.94,0-3.91-0.14-5.69-0.52
							c0.02-0.09,0.07-0.16,0.12-0.26C40.3,242.54,43.29,242.54,46.06,242.4z"/>
						<path class="st153" d="M43.27,242.78c0.87,0,1.71-0.02,2.55-0.07c-0.54,0.63-0.96,1.03-1.38,1.45
							c-0.66,0.66-1.41,1.38-2.72,3.07c-0.47,0.61-1.34,1.85-3.07,4.33l-0.07,0.07c-2.08,3-2.55,3.84-2.95,4.64
							c-0.3,0.61-0.37,0.84-0.54,1.26c-0.16,0.45-0.37,1.05-1.03,2.55c-0.16,0.37-0.3,0.7-0.42,0.98c-0.63,1.45-0.8,1.83-0.54,2.3
							c0.35,0.59,1.1,0.59,1.92,0.59c0.96-0.02,2.11-0.05,3.37,0.61c0.94,0.47,1.76,1.17,1.71,1.43c-0.05,0.28-1.03,1.15-11.34,0.56
							c0.09-5.18,1.08-9.98,2.95-14.24c1.19-2.69,2.51-4.73,3.77-6.68c0.75-1.15,1.45-2.25,2.08-3.37
							C39.36,242.64,41.33,242.78,43.27,242.78z"/>
						<path d="M44.84,173.81l0.21-0.09c-0.05,0.07-0.09,0.12-0.16,0.16C44.86,173.86,44.84,173.84,44.84,173.81z"/>
						<path d="M44.68,164.21l-0.02,0.59c-0.45,0.02-0.82-0.12-1.15-0.37c-0.8-0.68-0.56-1.99-0.45-2.67
							c0.05-0.35,0.33-2.04,0.98-1.92c0.33,0.02,0.49,0.45,0.52,1.66L44,161.51c-0.02-0.35-0.05-0.61-0.07-0.8
							c-0.12,0.28-0.21,0.68-0.3,1.1c-0.09,0.63-0.26,1.71,0.28,2.16C44.11,164.14,44.35,164.21,44.68,164.21z"/>
						<path class="st26" d="M42.19,207.64c1.59,5.06,2.34,7.68,1.99,9.49c-0.33,1.76-1.1,3.35-1.92,5.06
							c-0.87,1.83-1.76,3.72-2.18,5.9c-0.33,1.83-0.3,2.79-0.23,3.91c0.02,0.82,0.07,1.66-0.05,2.95c-0.26,2.76-0.98,4.87-1.97,6.79
							c-0.21-0.05-0.4-0.07-0.59-0.14c0.98-1.9,1.73-3.98,1.97-6.7c0.12-1.26,0.07-2.08,0.05-2.88c-0.07-1.1-0.12-2.16,0.26-4.03
							c0.42-2.27,1.34-4.19,2.23-6.07c0.8-1.66,1.55-3.23,1.87-4.92c0.3-1.64-0.42-4.19-1.92-9.02c0.02-0.05,0.07-0.09,0.12-0.12
							C41.94,207.78,42.05,207.71,42.19,207.64z"/>
						<path class="st26" d="M41.7,207.99c1.5,4.83,2.23,7.38,1.92,9.02c-0.33,1.69-1.08,3.26-1.87,4.92
							c-0.89,1.87-1.8,3.79-2.23,6.07c-0.37,1.87-0.33,2.93-0.26,4.03c0.02,0.8,0.07,1.62-0.05,2.88c-0.23,2.72-0.98,4.8-1.97,6.7
							c-2.34-0.54-4.31-1.57-5.39-3.37c-1.12-1.85-0.96-3.96-0.89-4.73c0.16-2.06,0.98-3.07,2.18-4.59c0.8-0.98,1.78-2.23,2.81-4.08
							c1.17-2.08,3.63-6.42,4.36-12.18c0.05-0.33,0.07-0.63,0.12-0.94C40.6,210.1,40.74,208.81,41.7,207.99z"/>
						<path d="M42.1,207.36c0.02,0.09,0.07,0.19,0.09,0.28c-0.14,0.07-0.26,0.14-0.37,0.23c-0.05,0.02-0.09,0.07-0.12,0.12
							c-0.02-0.12-0.07-0.21-0.12-0.33c0,0,0.02,0,0.05-0.02C41.8,207.52,41.94,207.43,42.1,207.36z"/>
						<path d="M42.03,207.1c0.02,0.09,0.05,0.16,0.07,0.26c-0.16,0.07-0.3,0.16-0.47,0.28c-0.02,0.02-0.05,0.02-0.05,0.02
							c0-0.09-0.05-0.16-0.07-0.26C41.68,207.26,41.84,207.15,42.03,207.1z"/>
						<path d="M41.94,206.82c0.02,0.09,0.07,0.19,0.09,0.28c-0.19,0.05-0.35,0.16-0.52,0.3c-0.02-0.14-0.07-0.26-0.12-0.4
							c-0.75-2.34-1.36-3.87-1.83-5.08c-0.77-1.94-1.19-3-1.22-5.15c-0.02-0.8,0.02-1.48,0.07-2.16c0.09-1.17,0.19-2.41-0.07-4.36
							c-0.26-1.99-0.61-4.71-1.94-5.13c-0.8-0.26-1.94,0.35-3.23,1.69c-1.05,1.1-1.31,2.08-1.64,3.3c-0.28,1.03-0.59,2.18-1.43,3.72
							c-0.56,1.03-0.91,1.43-1.38,1.92c-0.47,0.54-1.05,1.19-2.13,2.86c-1.71,2.65-2.55,3.96-2.67,5.58
							c-0.07,0.91,0.05,1.69,0.16,2.34c0.16,0.94,0.28,1.73-0.33,2.34c-0.63,0.61-1.83,0.7-2.6,0.23c-1.34-0.82-1.1-3.09-0.96-4.43
							c0.21-2.23,0.8-3.58,1.55-5.32c0.21-0.49,0.42-1.01,0.66-1.59c0.89-2.25,1.26-3.79,1.69-5.46c0.42-1.78,0.91-3.82,2.13-6.98
							c0.26-0.75,0.68-1.73,1.31-2.95c0.49-0.94,1.1-2.13,2.06-3.37c0.16,0.12,0.33,0.23,0.49,0.35c-0.94,1.19-1.57,2.37-2.04,3.28
							c-0.4,0.75-0.68,1.41-0.91,1.97l-0.28,0.23c0.05,0.05,0.09,0.09,0.14,0.14c-0.09,0.19-0.16,0.4-0.23,0.56
							c-1.19,3.14-1.66,5.06-2.11,6.91c-0.42,1.66-0.8,3.26-1.71,5.53c-0.23,0.59-0.45,1.12-0.66,1.62
							c-0.73,1.69-1.29,3.02-1.5,5.13c-0.12,1.15-0.33,3.26,0.68,3.87c0.56,0.35,1.45,0.28,1.9-0.14c0.37-0.37,0.3-0.87,0.14-1.8
							c-0.09-0.68-0.23-1.52-0.16-2.51c0.14-1.76,1.01-3.14,2.76-5.83c1.1-1.73,1.71-2.39,2.2-2.93c0.45-0.49,0.77-0.84,1.29-1.83
							c0.82-1.48,1.1-2.6,1.38-3.61c0.14-0.56,0.28-1.1,0.52-1.62c0.05,0.02,0.07,0.05,0.12,0.07l0.33-0.49
							c-0.07-0.05-0.12-0.07-0.19-0.12c0.21-0.45,0.54-0.91,1.01-1.41c1.85-1.92,3.12-2.06,3.82-1.83c1.69,0.54,2.06,3.35,2.34,5.62
							c0.02,0.23,0.07,0.45,0.09,0.66c0.16,1.64,0.09,2.74,0,3.82c-0.05,0.68-0.09,1.31-0.07,2.08c0.02,2.06,0.42,3.09,1.17,4.97
							C40.6,202.93,41.21,204.45,41.94,206.82z"/>
						<path d="M41.58,207.66c0.05,0.12,0.09,0.21,0.12,0.33c-0.96,0.82-1.1,2.11-1.26,3.72c-0.05,0.3-0.07,0.61-0.12,0.94
							c-0.73,5.76-3.19,10.1-4.36,12.18c-1.03,1.85-2.01,3.09-2.81,4.08c-1.19,1.52-2.01,2.53-2.18,4.59
							c-0.07,0.77-0.23,2.88,0.89,4.73c1.08,1.8,3.05,2.83,5.39,3.37c-0.05,0.07-0.09,0.16-0.14,0.26
							c-2.39-0.56-4.38-1.62-5.51-3.47c-1.17-1.94-0.98-4.12-0.91-4.94c0.28-3.51,2.41-4.15,5.01-8.76
							c1.15-2.01,3.58-6.37,4.33-12.06C40.3,210.52,40.27,208.74,41.58,207.66z"/>
						<path d="M41.51,207.4c0.02,0.09,0.07,0.16,0.07,0.26c-1.31,1.08-1.29,2.86-1.55,4.97c-0.75,5.69-3.19,10.05-4.33,12.06
							c-2.6,4.61-4.73,5.25-5.01,8.76c-0.07,0.82-0.26,3,0.91,4.94c1.12,1.85,3.12,2.9,5.51,3.47c-0.05,0.07-0.09,0.14-0.14,0.23
							c-2.41-0.56-4.47-1.66-5.62-3.56c-1.22-2.01-1.03-4.26-0.96-5.11c0.19-2.2,1.08-3.33,2.32-4.87c0.77-0.98,1.73-2.2,2.74-4.01
							c1.17-2.06,3.56-6.32,4.29-11.97c0.05-0.33,0.07-0.63,0.12-0.94c0.19-1.76,0.35-3.26,1.62-4.22
							C41.49,207.4,41.49,207.4,41.51,207.4z"/>
						<path d="M37.91,173.91l-0.21,0.52c-0.02,0.02-0.02,0.07-0.05,0.09c-0.21,0-0.45,0.02-0.68,0.07c0.05-0.12,0.12-0.23,0.16-0.37
							l0.12-0.26C37.48,173.93,37.7,173.91,37.91,173.91z"/>
						<path d="M37.84,241.75c-0.05,0.09-0.09,0.16-0.14,0.26c-0.21-0.05-0.4-0.07-0.59-0.14c0.05-0.09,0.09-0.19,0.14-0.26
							C37.44,241.68,37.63,241.7,37.84,241.75z"/>
						<path d="M37.7,242c-0.05,0.09-0.09,0.16-0.12,0.26c-0.21-0.05-0.42-0.09-0.61-0.16c0.05-0.09,0.09-0.16,0.14-0.23
							C37.3,241.93,37.48,241.96,37.7,242z"/>
						<path d="M36.97,174.58c0.23-0.05,0.47-0.07,0.68-0.07c-1.59,3.77-2.23,5.18-3.82,5.62c-0.3,0.09-0.61,0.14-0.94,0.14
							c-0.94,0-1.94-0.33-2.81-0.91c0.09-0.16,0.23-0.3,0.37-0.47c1.01,0.66,2.23,0.96,3.21,0.68
							C34.95,179.22,35.54,177.93,36.97,174.58z"/>
						<path d="M37.25,173.95l-0.12,0.26c-0.05,0.14-0.12,0.26-0.16,0.37c-0.52,0.07-1.05,0.23-1.62,0.49
							c-1.43,0.63-2.81,1.62-4.12,2.95c-0.28,0.28-0.54,0.59-0.77,0.87c-0.19-0.09-0.35-0.21-0.49-0.35
							c0.26-0.3,0.54-0.63,0.84-0.94c1.36-1.38,2.81-2.41,4.31-3.07C35.87,174.21,36.59,174.02,37.25,173.95z"/>
						<path d="M35.35,175.08c0.56-0.26,1.1-0.42,1.62-0.49c-1.43,3.35-2.01,4.64-3.3,4.99c-0.98,0.28-2.2-0.02-3.21-0.68
							c0.23-0.28,0.49-0.59,0.77-0.87C32.54,176.69,33.92,175.71,35.35,175.08z"/>
						<path d="M31.93,187.91l-0.33,0.49c-0.05-0.02-0.07-0.05-0.12-0.07c0.07-0.19,0.14-0.35,0.26-0.54
							C31.82,187.84,31.86,187.87,31.93,187.91z"/>
						<path d="M31.75,187.8c-0.12,0.19-0.19,0.35-0.26,0.54c-0.33-0.23-0.68-0.42-1.01-0.59c-0.33-0.16-0.49-0.23-0.63-0.28
							c-0.14-0.05-0.28-0.09-0.49-0.23c-0.52-0.28-0.91-0.7-1.59-1.43c-0.21-0.21-0.47-0.47-0.77-0.82
							c0.02-0.12,0.09-0.23,0.14-0.37l0.16-0.14c0.35,0.37,0.66,0.7,0.87,0.94c0.73,0.75,1.08,1.1,1.5,1.34
							c0.16,0.09,0.28,0.14,0.4,0.19c0.14,0.05,0.33,0.12,0.68,0.3C31.07,187.4,31.42,187.59,31.75,187.8z"/>
						<path class="st153" d="M31.49,188.34c-0.23,0.52-0.37,1.05-0.52,1.62c-0.28,1.01-0.56,2.13-1.38,3.61
							c-0.52,0.98-0.84,1.34-1.29,1.83c-0.49,0.54-1.1,1.19-2.2,2.93c-1.76,2.69-2.62,4.08-2.76,5.83
							c-0.07,0.98,0.07,1.83,0.16,2.51c0.16,0.94,0.23,1.43-0.14,1.8c-0.45,0.42-1.34,0.49-1.9,0.14c-1.01-0.61-0.8-2.72-0.68-3.87
							c0.21-2.11,0.77-3.44,1.5-5.13c0.21-0.49,0.42-1.03,0.66-1.62c0.91-2.27,1.29-3.87,1.71-5.53c0.45-1.85,0.91-3.77,2.11-6.91
							c0.07-0.16,0.14-0.37,0.23-0.56c0.3,0.35,0.56,0.61,0.77,0.82c0.68,0.73,1.08,1.15,1.59,1.43c0.21,0.14,0.35,0.19,0.49,0.23
							c0.14,0.05,0.3,0.12,0.63,0.28C30.81,187.91,31.16,188.1,31.49,188.34z"/>
						<path d="M29.97,178.54c0.14,0.14,0.3,0.26,0.49,0.35c-0.14,0.16-0.28,0.3-0.37,0.47c-0.16-0.12-0.33-0.23-0.49-0.35
							C29.71,178.85,29.82,178.71,29.97,178.54z"/>
						<path d="M26.85,184.85l0.28-0.23c-0.05,0.14-0.12,0.26-0.14,0.37C26.94,184.94,26.9,184.89,26.85,184.85z"/>
					</g>
					<g id="XMLID_21166_">
						<path class="st183" d="M49.34,156.92c0.56-0.33,1.55-0.77,2.79-0.8c0.4,0,0.75,0.02,1.05,0.07"/>
					</g>
				</g>
			</g>
			<g id="XMLID_21131_">
				<g id="XMLID_21142_">
					<path class="st184" d="M136.39,166.97l-0.21,0.33c-1.78,3.23-6.18,4.4-9.72,5.34l-0.91,0.23c-3.82,1.03-7.57,2.81-11.22,4.52
						c-0.84,0.4-1.69,0.8-2.51,1.17l-2.39,1.1c-9.18,4.24-18.69,8.62-28.46,11.6c-10.21,3.09-21.29,4.87-34.9,5.62
						c-0.3,0.02-0.84,0.07-1.55,0.12c-5.95,0.4-13,0.8-18.69,0.8c-5.2,0-9.28-0.35-10.28-1.31c-0.26-0.26-0.3-0.52-0.3-0.68
						c0.02-0.47,0.54-0.84,1.19-1.26c1.19-0.75,2.51-0.94,3.61-0.94c1.01,0,1.83,0.16,2.25,0.23c2.37,0.45,8.46,0.26,20.54-0.14
						c3-0.12,6.09-0.49,12.25-1.26l0.09-0.02l4.76-0.59c10.14-1.26,15.74-1.97,21.04-3.44c2.98-0.82,7.94-3,17.83-7.38l0.19-0.07
						c0.16-0.07,16.98-7.47,32-12.81c0.28-0.09,0.59-0.21,0.91-0.35c1.36-0.54,2.93-1.12,4.1-0.89L136.39,166.97z M135.43,167.42
						c0,0,0,0-0.02,0c-0.96,0-2.25,0.49-3.3,0.91c-0.33,0.12-0.63,0.23-0.91,0.33c-15.02,5.36-31.81,12.74-31.98,12.81l-0.16,0.07
						c-9.93,4.38-14.92,6.58-17.92,7.4c-5.34,1.5-10.96,2.2-21.13,3.47L55.15,193c-6.18,0.8-9.28,1.17-12.32,1.29
						c-12.11,0.4-18.23,0.59-20.59,0.14c-0.89-0.19-3.44-0.68-5.48,0.61h-0.02c-0.23,0.16-0.91,0.59-0.91,0.77
						c0,0.07,0,0.14,0.12,0.26c1.45,1.38,11.06,1.5,28.53,0.35c0.73-0.05,1.26-0.09,1.57-0.12c13.56-0.75,24.6-2.53,34.76-5.6
						c9.72-2.95,19.21-7.33,28.39-11.55l2.37-1.1c0.84-0.4,1.69-0.8,2.53-1.19c3.65-1.71,7.45-3.49,11.29-4.54l0.94-0.23
						C129.59,171.21,133.62,170.13,135.43,167.42z"/>
					<path class="st184" d="M135.4,167.42c0.02,0,0.02,0,0.02,0c-1.8,2.72-5.83,3.79-9.11,4.66l-0.94,0.23
						c-3.84,1.05-7.64,2.83-11.29,4.54c-0.84,0.4-1.69,0.8-2.53,1.19l-2.37,1.1c-9.18,4.22-18.67,8.6-28.39,11.55
						c-10.17,3.07-21.2,4.85-34.76,5.6c-0.3,0.02-0.84,0.07-1.57,0.12c-17.48,1.15-27.08,1.03-28.53-0.35
						c-0.12-0.12-0.12-0.19-0.12-0.26c0-0.19,0.68-0.61,0.91-0.77h0.02c2.04-1.29,4.59-0.8,5.48-0.61
						c2.37,0.45,8.48,0.26,20.59-0.14c3.05-0.12,6.14-0.49,12.32-1.29l4.85-0.59c10.17-1.26,15.79-1.97,21.13-3.47
						c3-0.82,7.99-3.02,17.92-7.4l0.16-0.07c0.16-0.07,16.96-7.45,31.98-12.81c0.28-0.09,0.59-0.21,0.91-0.33
						C133.16,167.91,134.44,167.42,135.4,167.42z"/>
				</g>
			</g>
		</g>
	</g>
</g>
<g id="NATURALEZA" class="st0">
</g>
<g id="Oficios" class="st0">
</g>
<g id="comunidades" class="st0">
</g>
<g id="zona" class="st0">
</g>
<g id="EQUIPAMIENTO" class="st0">
</g>
<g id="texto_mapa" class="st0">
</g>
<g id="nombre_reserva" class="st0">
</g>
</svg>
