<svg xmlns="http://www.w3.org/2000/svg" viewBox="0 0 230 230" width="256" height="256"><style>tspan { white-space:pre }.shp0 { fill: #26120b } .shp1 { fill: #ffffff } </style><g ></g><g ><g ><g ><g ><path class="shp0" d="M37.64 204.08C32.77 202.8 28.88 199.15 27.32 194.35L27.32 35.45C28.87 30.67 32.77 26.98 37.64 25.72L195.35 25.72C200.23 26.98 204.11 30.67 205.68 35.45L205.68 194.34C204.11 199.14 200.22 202.79 195.35 204.07L37.64 204.07L37.64 204.08Z" /><path fill-rule="evenodd" class="shp0" d="M195.35 206.5L37.64 206.5C37.43 206.5 37.22 206.47 37.02 206.42C31.31 204.91 26.82 200.68 25.01 195.09C24.93 194.85 24.9 194.59 24.9 194.34L24.9 35.45C24.9 35.19 24.94 34.94 25.02 34.7C26.84 29.08 31.33 24.85 37.03 23.37C37.23 23.32 37.43 23.29 37.64 23.29L195.35 23.29C195.56 23.29 195.76 23.32 195.96 23.37C201.64 24.85 206.14 29.08 207.99 34.69C208.08 34.94 208.11 35.19 208.11 35.45L208.11 194.34C208.11 194.6 208.07 194.85 207.99 195.09C206.16 200.68 201.67 204.92 195.97 206.41C195.76 206.47 195.55 206.5 195.35 206.5ZM37.97 201.65L195.02 201.65C198.87 200.54 201.91 197.69 203.26 193.94L203.26 35.86C201.9 32.09 198.86 29.23 195.03 28.15L37.96 28.15C34.13 29.24 31.09 32.1 29.75 35.86L29.75 193.95C31.08 197.69 34.11 200.54 37.97 201.65Z" /></g></g><g ><g ><path class="shp1" d="M195.98 162.96L33.85 162.96C31.44 162.96 29.48 161 29.48 158.59C29.48 156.18 31.44 154.22 33.85 154.22L195.98 154.22C198.39 154.22 200.35 156.18 200.35 158.59C200.35 161 198.39 162.96 195.98 162.96Z" /></g></g><g ><g ><path class="shp1" d="M50.17 158.6L50.05 133.43L53.49 127.63L53.63 119.63L58.73 103.28L65.88 94.56L78.55 84.02L91.9 71.12L97.41 64.94L113.53 61.11L123.58 63.65L129.92 67.5L136.12 67.11L141.35 68.93L145.76 73.3L155.53 74.04L163.79 77.65L168.33 83.13L172.2 88.92L173.57 100.01L174.8 108.19L174.11 116.36L177.55 127.27L180.86 142.53L181.87 158.6" /><path class="shp1" d="M181.87 159.57C181.36 159.57 180.93 159.17 180.9 158.66L179.9 142.59L176.6 127.47L173.18 116.66C173.14 116.54 173.13 116.41 173.14 116.29L173.83 108.12L172.61 100.16L171.26 89.27L167.53 83.67L163.2 78.45L155.29 75L145.69 74.27C145.46 74.26 145.24 74.16 145.08 74L140.82 69.78L135.99 68.09L129.98 68.46C129.75 68.52 129.59 68.43 129.42 68.32L123.2 64.55L113.52 62.11L97.94 65.81L92.63 71.76L79.23 84.71L66.52 95.3L59.61 103.74L54.61 119.78L54.47 127.65C54.47 127.82 54.42 127.98 54.34 128.12L51.04 133.69L51.14 158.59C51.15 159.13 50.71 159.56 50.17 159.57L50.17 159.57C49.64 159.57 49.2 159.14 49.2 158.6L49.09 133.43C49.09 133.25 49.13 133.08 49.22 132.93L52.53 127.35L52.67 119.6C52.67 119.51 52.68 119.42 52.71 119.33L57.81 102.98C57.85 102.86 57.9 102.75 57.99 102.65L65.14 93.94L77.93 83.27L91.24 70.42L96.71 64.3C96.84 64.15 97.01 64.04 97.2 64L113.31 60.17C113.46 60.13 113.62 60.13 113.77 60.17L123.82 62.7C123.91 62.72 124 62.76 124.09 62.81L130.18 66.5L136.07 66.13C136.18 66.08 136.33 66.14 136.45 66.18L141.68 68C141.81 68.05 141.94 68.12 142.04 68.22L146.2 72.34L155.62 73.06C155.72 73.07 155.83 73.09 155.93 73.14L164.2 76.75C164.34 76.81 164.47 76.91 164.56 77.02L169.1 82.49L173.02 88.36C173.11 88.49 173.16 88.63 173.18 88.78L174.55 99.88L175.77 108.04L175.11 116.24L178.49 126.96L181.82 142.31L182.84 158.52C182.88 159.06 182.47 159.51 181.93 159.55C181.9 159.57 181.89 159.57 181.87 159.57Z" /></g></g><g ><g ><path class="shp0" d="M80.96 158.6L80.92 148.78L84.05 144.17L84.29 132.02L84.62 131.11C84.68 131.03 95.87 122.91 95.87 122.91L111 110.14C111.03 110.14 113.34 109.64 113.34 109.64L114.15 109.83L123.87 114.92L129.66 114.62L134.73 119.01L143.33 119.56L142.62 126.94L148.44 143.01L150.43 150.99L150.97 158.6" /><path class="shp1" d="M150.96 161.51C149.44 161.51 148.17 160.34 148.06 158.81L147.52 151.2L145.61 143.72L139.88 127.93C139.74 127.52 139.68 127.09 139.72 126.66L140.15 122.27L134.54 121.91C133.91 121.87 133.31 121.62 132.83 121.2L128.64 117.58L124.03 117.82C123.51 117.78 122.99 117.73 122.52 117.49L113.24 112.63C112.87 112.71 112.57 112.78 112.32 112.83L97.76 125.12C97.62 125.24 89.74 130.95 87.2 132.82L86.97 144.22C86.96 144.78 86.79 145.33 86.47 145.8L83.85 149.67L83.88 158.59C83.89 160.2 82.59 161.5 80.98 161.51L80.97 161.51C79.37 161.51 78.06 160.22 78.06 158.61L78.02 148.79C78.02 148.2 78.19 147.63 78.52 147.15L81.17 143.25L81.39 131.96C81.4 131.64 81.46 131.33 81.56 131.03L81.89 130.12C81.99 129.85 82.13 129.59 82.3 129.36C82.62 128.93 82.62 128.93 94.18 120.56L109.13 107.92C109.65 107.47 110.31 107.23 111.01 107.23L112.73 106.79C113.17 106.7 113.6 106.7 114.02 106.8L114.83 106.99L124.51 111.97L129.51 111.7C130.25 111.7 131 111.92 131.57 112.41L135.9 116.16L143.52 116.65C144.31 116.7 145.04 117.07 145.55 117.67C146.06 118.27 146.31 119.05 146.23 119.83L145.58 126.56L151.18 142.01L153.25 150.27L153.87 158.37C153.98 159.98 152.78 161.37 151.18 161.48C151.09 161.51 151.03 161.51 150.96 161.51Z" /></g></g><g ><g ><path fill-rule="evenodd" class="shp1" d="M212.46 229.6L17.37 229.6C16.99 229.6 16.61 229.55 16.24 229.45C8.79 227.46 2.88 221.88 0.45 214.53C0.31 214.09 0.23 213.63 0.23 213.16L0.23 16.61C0.23 16.14 0.31 15.68 0.46 15.23C2.9 7.88 8.8 2.32 16.26 0.36C16.62 0.27 17 0.21 17.37 0.21L212.47 0.21C212.85 0.21 213.22 0.26 213.58 0.36C221.05 2.32 226.96 7.89 229.39 15.24C229.53 15.68 229.61 16.14 229.61 16.6L229.61 213.15C229.61 213.61 229.53 214.07 229.39 214.5C226.98 221.86 221.08 227.44 213.6 229.44C213.22 229.55 212.84 229.6 212.46 229.6ZM17.97 220.87L211.85 220.87C216.02 219.59 219.32 216.49 220.86 212.42L220.86 17.36C219.32 13.3 216.01 10.21 211.85 8.95L17.97 8.95C13.83 10.2 10.52 13.29 8.96 17.36L8.96 212.41C10.52 216.49 13.82 219.59 17.97 220.87Z" /></g></g></g></g></svg>