<svg xmlns="http://www.w3.org/2000/svg" viewBox="0 0 238 239" width="256" height="257"><style>tspan { white-space:pre }.shp0 { fill: #26120b } .shp1 { fill: #ffffff } </style><g ></g><g ><g ><g ><g ><path class="shp0" d="M38.68 212.19C33.63 210.85 29.58 207.07 27.96 202.08L27.96 37.18C29.59 32.22 33.63 28.39 38.68 27.08L202.35 27.08C207.39 28.39 211.44 32.22 213.06 37.18L213.06 202.09C211.43 207.08 207.39 210.86 202.35 212.2L38.68 212.2L38.68 212.19Z" /><path fill-rule="evenodd" class="shp1" d="M202.35 214.17L38.68 214.17C38.51 214.17 38.34 214.15 38.17 214.1C32.43 212.57 27.92 208.31 26.08 202.7C26.02 202.5 25.98 202.3 25.98 202.09L25.98 37.18C25.98 36.97 26.02 36.77 26.08 36.56C27.94 30.91 32.46 26.66 38.19 25.17C38.34 25.13 38.52 25.11 38.68 25.11L202.35 25.11C202.51 25.11 202.69 25.13 202.84 25.18C208.56 26.66 213.08 30.92 214.94 36.57C215 36.77 215.04 36.98 215.04 37.19L215.04 202.1C215.04 202.31 215 202.51 214.94 202.71C213.1 208.33 208.59 212.59 202.86 214.11C202.69 214.14 202.52 214.17 202.35 214.17ZM38.95 210.22L202.08 210.22C206.3 209.02 209.64 205.88 211.09 201.76L211.09 37.5C209.65 33.41 206.23 30.21 202.09 29.05L38.94 29.05C34.73 30.22 31.39 33.35 29.93 37.5L29.93 201.76C31.37 205.88 34.71 209.02 38.95 210.22Z" /></g></g><g ><g ><g ><path class="shp1" d="M47.12 118.34L41.67 114.58L41.33 104.37L40.98 90.4L45.08 85.66L48.83 85.31L58.03 85.99L69.61 85.31L81.54 85.31L88.7 86.67L97.56 89.73L105.05 94.84L107.43 99.26L109.47 104.37L111.52 110.84L109.14 116.63L101.98 118.68L94.49 119.69L87.33 120.03L76.43 120.36L62.81 120.36L47.12 118.34" /><path fill-rule="evenodd" class="shp1" d="M46.99 119.31C46.84 119.29 46.68 119.23 46.56 119.15L41.11 115.4C40.85 115.22 40.7 114.93 40.69 114.62L40.34 104.41L40 90.43C39.99 90.18 40.08 89.95 40.23 89.76L44.33 85.01C44.5 84.82 44.73 84.7 44.99 84.67L48.74 84.32L58.09 85L69.54 84.32L81.52 84.32L88.86 85.7L97.86 88.8C97.95 88.83 98.02 88.87 98.1 88.92L105.59 94.03C105.72 94.12 105.82 94.24 105.9 94.38L108.29 98.81L110.38 104.02L112.46 110.55C112.53 110.77 112.52 111.01 112.43 111.22L110.04 117.01C109.92 117.29 109.68 117.5 109.4 117.58L102.24 119.63L94.62 120.66L87.37 121.01L76.45 121.35L62.8 121.35L46.99 119.31ZM47.48 117.39L62.93 119.39L76.42 119.38L94.44 118.7L101.84 117.7L108.4 115.81L110.47 110.79L108.53 104.66L106.52 99.62L104.3 95.51L97.12 90.62L88.38 87.6L81.35 86.28L69.61 86.3L58.08 86.98L48.75 86.3L45.56 86.61L41.96 90.77L42.63 114.06L47.48 117.39Z" /></g></g><g ><g ><path class="shp1" d="M112.83 144.68L109.17 142.15L108.93 135.27L108.69 125.84L111.46 122.64L113.98 122.39L120.19 122.87L127.99 122.39L136.05 122.39L140.88 123.32L146.84 125.38L151.9 128.85L153.51 131.81L154.89 135.27L156.27 139.63L154.66 143.53L149.83 144.9L144.77 145.61L139.95 145.83L132.59 146.07L123.4 146.07L112.83 144.68" /><path fill-rule="evenodd" class="shp1" d="M123.4 147.06L112.71 145.65C112.56 145.63 112.4 145.57 112.28 145.49L108.61 142.96C108.35 142.78 108.2 142.49 108.19 142.18L107.72 125.86C107.71 125.61 107.8 125.38 107.96 125.19L110.73 121.99C110.89 121.8 111.12 121.68 111.37 121.65L113.88 121.4L120.26 121.87L127.93 121.4L136.04 121.4L141.05 122.35L147.15 124.44C147.24 124.47 147.31 124.51 147.39 124.56L152.44 128.02C152.57 128.11 152.67 128.23 152.75 128.36L154.37 131.32L155.79 134.89L157.2 139.32C157.27 139.54 157.26 139.78 157.17 139.99L155.56 143.89C155.44 144.17 155.2 144.38 154.92 144.46L150.09 145.83L144.9 146.57L132.61 147.04L123.4 147.04L123.4 147.06ZM113.19 143.73L123.52 145.1L132.59 145.09L144.73 144.63L149.7 143.93L153.93 142.72L155.22 139.59L153.95 135.57L152.6 132.18L151.15 129.53L146.4 126.28L140.57 124.26L135.87 123.36L128 123.38L120.25 123.85L113.91 123.38L111.97 123.58L109.7 126.2L110.15 141.62L113.19 143.73Z" /></g></g><g ><g ><path class="shp1" d="M162.77 164.99L160 163.09L159.82 157.87L159.63 150.77L161.72 148.35L163.63 148.17L168.32 148.5L174.22 148.17L180.3 148.17L183.95 148.86L188.46 150.42L192.27 153.02L193.49 155.27L194.54 157.87L195.58 161.17L194.36 164.13L190.71 165.18L186.9 165.69L183.25 165.85L177.69 166.04L170.75 166.04L162.77 164.99" /><path fill-rule="evenodd" class="shp1" d="M170.75 167.03L162.64 165.97C162.49 165.95 162.33 165.89 162.21 165.81L159.44 163.9C159.18 163.72 159.03 163.43 159.02 163.12L158.65 150.79C158.64 150.54 158.73 150.31 158.88 150.12L160.97 147.69C161.14 147.5 161.37 147.38 161.63 147.35L163.54 147.18L168.39 147.51L174.16 147.18L180.29 147.18L184.13 147.89L188.78 149.49C188.86 149.51 188.93 149.56 189.01 149.61L192.82 152.2C192.95 152.29 193.05 152.41 193.13 152.54L194.35 154.79L195.45 157.49L196.52 160.87C196.59 161.09 196.58 161.33 196.49 161.54L195.27 164.49C195.15 164.77 194.91 164.98 194.63 165.06L190.98 166.11L187.03 166.65L177.73 167.02L170.75 167.02L170.75 167.03ZM163.13 164.04L170.88 165.06L177.69 165.05L186.84 164.69L190.56 164.19L193.61 163.3L194.51 161.12L193.58 158.16L192.56 155.63L191.5 153.69L188 151.3L183.61 149.77L180.1 149.12L174.21 149.14L168.37 149.47L163.55 149.14L162.2 149.27L160.61 151.11L160.96 162.54L163.13 164.04Z" /></g></g><g ><g ><path class="shp1" d="M38.51 122.52L107.2 122.52L107.2 125.16L38.51 125.16L38.51 122.52Z" /><path fill-rule="evenodd" class="shp1" d="M107.19 126.15L38.5 126.15C37.95 126.15 37.52 125.71 37.52 125.16L37.52 122.52C37.52 121.98 37.95 121.53 38.5 121.53L107.19 121.53C107.74 121.53 108.17 121.97 108.17 122.52L108.17 125.16C108.17 125.7 107.74 126.15 107.19 126.15ZM39.48 124.17L106.2 124.17L106.2 123.5L39.48 123.5L39.48 124.17Z" /></g></g><g ><g ><path class="shp1" d="M106.97 147.08L157.02 147.08L157.02 149.73L106.97 149.73L106.97 147.08Z" /><path fill-rule="evenodd" class="shp1" d="M157.02 150.72L106.97 150.72C106.42 150.72 105.99 150.28 105.99 149.73L105.99 147.08C105.99 146.54 106.42 146.09 106.97 146.09L157.02 146.09C157.57 146.09 158 146.53 158 147.08L158 149.73C158 150.27 157.57 150.72 157.02 150.72ZM156.04 148.74L156.04 148.07L107.95 148.07L107.95 148.74L156.04 148.74Z" /></g></g><g ><g ><path class="shp1" d="M159.29 167.2L199.24 167.2L199.24 169.86L159.29 169.86L159.29 167.2Z" /><path fill-rule="evenodd" class="shp1" d="M199.23 170.84L159.28 170.84C158.73 170.84 158.3 170.4 158.3 169.85L158.3 167.19C158.3 166.65 158.73 166.2 159.28 166.2L199.23 166.2C199.78 166.2 200.21 166.64 200.21 167.19L200.21 169.85C200.21 170.4 199.78 170.84 199.23 170.84ZM160.26 168.87L198.25 168.87L198.25 168.19L160.26 168.19L160.26 168.87Z" /></g></g></g><g ><g ><path fill-rule="evenodd" class="shp1" d="M220.11 238.57L17.64 238.57C17.26 238.57 16.88 238.52 16.5 238.42C8.77 236.38 2.67 230.62 0.17 223C0.03 222.56 -0.05 222.09 -0.05 221.62L-0.05 17.63C-0.05 17.16 0.03 16.69 0.17 16.24C2.69 8.62 8.8 2.87 16.52 0.86C16.89 0.76 17.26 0.72 17.64 0.72L220.11 0.72C220.49 0.72 220.86 0.77 221.23 0.86C228.95 2.87 235.06 8.62 237.58 16.24C237.72 16.69 237.8 17.16 237.8 17.63L237.8 221.62C237.8 222.09 237.72 222.56 237.58 223C235.08 230.62 228.98 236.38 221.25 238.42C220.87 238.52 220.49 238.57 220.11 238.57ZM18.25 229.7L219.49 229.7C223.85 228.38 227.31 225.13 228.92 220.87L228.92 18.39C227.3 14.12 223.84 10.88 219.5 9.58L18.25 9.58C13.91 10.88 10.45 14.12 8.83 18.39L8.83 220.86C10.43 225.13 13.9 228.38 18.25 229.7Z" /></g></g></g></g></svg>