<svg xmlns="http://www.w3.org/2000/svg" viewBox="0 0 230 230" width="256" height="256"><style>tspan { white-space:pre }.shp0 { fill: #26120b } .shp1 { fill: #ffffff } </style><g ></g><g ><g ><g ><g ><g ><path class="shp0" d="M35.17 205.57C30.22 204.27 26.27 200.54 24.67 195.65L24.67 33.89C26.26 29.03 30.21 25.29 35.17 24.01L195.72 24.01C200.67 25.29 204.63 29.04 206.22 33.89L206.22 195.65C204.64 200.53 200.67 204.26 195.72 205.57L35.17 205.57Z" /><path fill-rule="evenodd" class="shp1" d="M195.73 208L35.18 208C34.97 208 34.76 207.97 34.56 207.92C28.78 206.4 24.22 202.1 22.37 196.41C22.28 196.17 22.25 195.91 22.25 195.66L22.25 33.89C22.25 33.63 22.29 33.38 22.37 33.13C24.24 27.44 28.8 23.15 34.57 21.65C34.77 21.6 34.97 21.57 35.18 21.57L195.73 21.57C195.94 21.57 196.14 21.6 196.34 21.65C202.12 23.15 206.69 27.44 208.54 33.13C208.63 33.37 208.66 33.63 208.66 33.88L208.66 195.64C208.66 195.9 208.62 196.15 208.54 196.39C206.7 202.07 202.14 206.38 196.35 207.91C196.14 207.97 195.94 208 195.73 208ZM35.51 203.14L195.4 203.14C199.33 202.01 202.43 199.09 203.8 195.25L203.8 34.3C202.43 30.52 199.26 27.55 195.41 26.44L35.5 26.44C31.6 27.55 28.49 30.45 27.11 34.3L27.11 195.25C28.48 199.09 31.59 202.01 35.51 203.14Z" /></g></g><g ><g ><path fill-rule="evenodd" class="shp1" d="M212.22 229.98L17.61 229.98C17.19 229.98 16.77 229.93 16.37 229.82C8.74 227.81 2.72 222.12 0.26 214.6C0.11 214.11 0.02 213.6 0.02 213.09L0.02 17.04C0.02 16.53 0.11 16.01 0.27 15.53C2.75 7.98 8.78 2.3 16.4 0.34C16.8 0.24 17.21 0.19 17.62 0.19L212.22 0.19C212.63 0.19 213.04 0.24 213.44 0.35C221.06 2.32 227.1 8 229.57 15.54C229.73 16.03 229.82 16.54 229.82 17.05L229.82 213.1C229.82 213.61 229.73 214.12 229.58 214.61C227.12 222.12 221.1 227.81 213.47 229.83C213.05 229.93 212.63 229.98 212.22 229.98ZM18.3 220.26L211.54 220.26C215.48 219.04 218.61 216.1 220.09 212.26L220.09 17.88C218.61 14.07 215.42 11.09 211.56 9.9L18.28 9.9C14.37 11.09 11.24 14.01 9.75 17.87L9.75 212.25C11.22 216.11 14.36 219.04 18.3 220.26Z" /></g></g></g><g ><g ><path class="shp1" d="M190 166.62L39.84 166.62C37.43 166.62 35.46 164.66 35.46 162.24C35.46 159.82 37.43 157.86 39.84 157.86L190 157.86C192.41 157.86 194.38 159.82 194.38 162.24C194.38 164.66 192.41 166.62 190 166.62Z" /></g></g><g ><path class="shp1" d="M50.14 162.25L50.01 134.12L53.54 127.63L53.68 118.71L58.87 100.44L66.21 90.69L79.15 78.91L92.78 64.49L98.4 57.59L114.88 53.31L125.15 56.14L131.61 60.46L137.95 60.01L143.28 62.06L147.8 66.93L157.79 67.77L166.23 71.8L170.86 77.91L174.8 84.38L176.21 96.78L177.48 105.92L176.79 115.05L180.28 127.24L183.68 144.3L184.69 162.25" /><path class="shp1" d="M184.7 163.46C184.06 163.46 183.52 162.96 183.48 162.31L182.46 144.36L179.08 127.47L175.61 115.38C175.57 115.24 175.55 115.1 175.56 114.95L176.25 105.83L174.99 96.94L173.61 84.78L169.81 78.53L165.42 72.76L157.45 68.95L147.68 68.14C147.39 68.12 147.1 67.98 146.89 67.76L142.56 63.1L137.75 61.24L131.67 61.67C131.4 61.72 131.14 61.62 130.91 61.47L124.62 57.25L114.85 54.55L99.07 58.66L93.7 65.24L80.01 79.74L67 91.58L59.96 100.98L54.87 118.88L54.74 127.64C54.74 127.83 54.68 128.03 54.59 128.2L51.21 134.42L51.33 162.24C51.33 162.91 50.79 163.46 50.12 163.46C50.11 163.46 50.11 163.46 50.11 163.46C49.45 163.46 48.89 162.92 48.89 162.25L48.77 134.12C48.77 133.92 48.82 133.71 48.92 133.54L52.3 127.31L52.43 118.69C52.43 118.59 52.45 118.48 52.48 118.38L57.67 100.11C57.71 99.97 57.77 99.83 57.87 99.71L65.21 89.97L78.3 78.03L91.87 63.66L97.43 56.83C97.59 56.63 97.81 56.49 98.07 56.42L114.55 52.13C114.74 52.08 114.97 52.08 115.18 52.13L125.45 54.96C125.57 55 125.7 55.05 125.8 55.12L131.91 59.21L137.83 58.79C138 58.78 138.18 58.8 138.35 58.87L143.69 60.92C143.86 60.99 144.02 61.09 144.15 61.23L148.35 65.75L157.87 66.54C158.01 66.55 158.15 66.59 158.29 66.65L166.73 70.68C166.91 70.77 167.06 70.89 167.18 71.04L171.81 77.15L175.82 83.73C175.91 83.88 175.97 84.05 175.99 84.22L177.4 96.61L178.67 105.73L178 114.89L181.44 126.87L184.87 144.03L185.9 162.15C185.94 162.82 185.43 163.39 184.75 163.43C184.74 163.46 184.71 163.46 184.7 163.46Z" /></g><g ><g ><path class="shp0" d="M57.28 157.05L57.2 137.56L62.7 128.38L63.1 104.28L63.69 102.47C63.79 102.32 83.4 86.2 83.4 86.2L109.89 60.86C109.93 60.86 113.99 59.86 113.99 59.86L115.42 60.25L132.42 70.36L142.58 69.75L151.43 78.47L166.52 79.56L165.28 94.21L175.46 126.1L178.94 141.93L179.89 157.04" /><path class="shp1" d="M179.87 158.26C179.23 158.26 178.7 157.77 178.65 157.12L177.7 142.01L174.25 126.36L164.1 94.58C164.05 94.43 164.03 94.27 164.04 94.11L165.18 80.69L151.33 79.69C151.04 79.67 150.77 79.55 150.56 79.34L142.1 71L132.48 71.58C132.26 71.59 132 71.54 131.79 71.41L114.92 61.38L113.95 61.11C111.95 61.6 110.97 61.84 110.47 61.96L84.22 87.07C77.01 93 66.43 101.72 64.73 103.16L64.3 104.48L63.9 128.39C63.9 128.6 63.83 128.81 63.73 129L58.4 137.88L58.48 157.03C58.48 157.7 57.94 158.25 57.26 158.25L57.26 158.25C56.6 158.25 56.04 157.71 56.04 157.04L55.96 137.55C55.96 137.33 56.02 137.11 56.13 136.92L61.47 128.02L61.86 104.25C61.86 104.13 61.88 104.01 61.92 103.89L62.51 102.08C62.55 101.96 62.6 101.85 62.68 101.75C62.8 101.57 62.88 101.47 82.61 85.25L109.03 59.97C109.25 59.75 109.55 59.63 109.87 59.63C109.92 59.59 113.68 58.66 113.68 58.66C113.88 58.61 114.09 58.61 114.3 58.67L115.73 59.06C115.83 59.09 115.94 59.13 116.02 59.19L132.71 69.12L142.49 68.53C142.79 68.53 143.17 68.63 143.42 68.88L151.95 77.28L166.59 78.34C166.91 78.36 167.22 78.52 167.43 78.76C167.65 79.01 167.74 79.32 167.72 79.65L166.5 94.06L176.6 125.72L180.1 141.66L181.08 156.96C181.12 157.63 180.61 158.21 179.94 158.25C179.92 158.26 179.9 158.26 179.87 158.26Z" /></g></g><g ><path class="shp1" d="M111.4 149.57C83.87 146.38 86.78 98.81 86.93 96.79C86.97 96.27 87.11 95.77 87.36 95.31C100.17 71.48 135.27 83.47 136.77 83.99C138.67 84.65 139.67 86.73 139 88.63C138.34 90.53 136.25 91.53 134.36 90.87C134.07 90.77 104.42 80.68 94.17 98.06C93.96 103.89 93.41 140.15 111.79 142.3C111.55 142.27 135.55 141.8 143.86 130.7C146.59 127.05 147.25 122.61 145.86 117.16C143.97 114.58 134.52 102.46 124.02 101.52C119.76 101.13 115.76 102.7 111.98 106.32C110.76 109.67 108.7 117.56 111.44 120.99C113.2 123.17 117.07 123.14 120.23 122.68C123.47 121.12 127.84 118.09 128.26 116.02C128.3 115.84 128.36 115.51 127.71 114.8C126.57 113.38 123.96 110.85 121.99 110.75C121.53 110.71 121.05 110.81 120.32 111.55C119.14 112.76 117.97 114.6 117.95 115.27C119.44 116.63 119.39 118.63 118.04 120.12C116.69 121.6 114.24 121.41 112.75 120.04C111.43 118.83 110.71 117.25 110.67 115.45C110.57 111.28 114.35 107.22 115.12 106.45C117.16 104.37 119.71 103.35 122.4 103.48C128.19 103.8 132.77 109.45 133.27 110.1C135.71 112.73 135.8 115.6 135.42 117.5C134.05 124.16 124.68 128.7 122.81 129.54C122.52 129.67 122.21 129.76 121.9 129.82C114.44 131.06 108.98 129.61 105.74 125.55C99.64 117.88 104.88 104.42 105.49 102.91C105.67 102.47 105.94 102.07 106.27 101.72C111.77 96.17 117.84 93.69 124.71 94.27C139.83 95.65 151.73 112.8 152.23 113.53C152.46 113.86 152.63 114.23 152.73 114.61C154.94 122.56 153.92 129.45 149.69 135.09C139.21 149.05 112.53 149.56 111.4 149.57Z" /></g></g></g></svg>