<svg xmlns="http://www.w3.org/2000/svg" viewBox="0 0 256 204" width="256" height="204"><style>tspan { white-space:pre }.shp0 { fill: #ffffff } .shp1 { fill: #008d36 } .shp2 { fill: #1d1d1b } .shp3 { fill: #93c01f } .shp4 { fill: #683b11 } .shp5 { fill: #fcea0d } .shp6 { fill: #ececec } .shp7 { fill: #f29100 } .shp8 { fill: #81358a } .shp9 { fill: #e5007e } .shp10 { fill: #e84e1b } .shp11 { fill: #bd1622 } .shp12 { fill: #006633 } .shp13 { fill: #925f36 } .shp14 { fill: #422918 } </style><g ></g><g ><g ><path class="shp0" d="M11.69 154.62C15.17 157.84 19.08 160.79 22.37 163.79C28.65 169.51 34.92 175.23 41.2 180.95C45.06 184.47 48.98 188.03 53.67 190.31C57.69 192.27 62.11 193.21 66.48 194.14C85.61 198.19 104.85 202.25 124.38 203.16C148.25 204.27 172.27 200.61 194.93 193.03C207.71 188.76 220.2 183.17 230.9 174.96C241.59 166.75 250.44 155.76 254.52 142.91C255.87 138.66 256.58 133.69 254.03 130.03C250.91 125.56 244.56 125.18 239.11 125.24C230.24 125.33 221.36 125.43 212.49 125.52C207.88 125.57 196.99 125.91 194.88 120.43C193.54 116.94 198.22 114.74 200.09 107.65C202.09 100.02 199.17 93.08 195.83 85.16C192.42 77.07 190.96 77.38 185.41 67.17C178.84 55.08 180.52 53.99 173.1 39.95C170.49 35.01 167.26 28.96 162.21 21.96C159.73 18.52 158.85 17.69 154.4 11.54C149.65 4.98 149.66 4.58 148.24 3.49C143.32 -0.28 135.4 -1.28 129.78 1.6C127.14 2.95 128.03 3.6 121.26 9.18C116.99 12.69 116.14 12.84 113.92 15.1C110.79 18.29 110.4 20.12 107.53 24.57C101.83 33.42 99.73 31.83 96.4 38.3C93.29 44.34 94.92 46.12 91.19 51.85C88.56 55.9 87.33 55.67 84.98 59.48C82 64.31 82.56 66.99 80.72 73.15C78.75 79.76 76.22 88.23 70.6 90.19C64.36 92.37 60.42 84.42 52.96 86.58C47.6 88.14 44.03 93.89 42.78 98.3C41.69 102.16 42.26 105.39 42.42 106.23C42.77 108.01 43.43 111.35 46.09 113.81C48.11 115.67 49.56 115.44 50.11 117.01C50.8 118.96 49.36 121.67 47.39 122.93C45.11 124.38 42.34 123.77 41.25 123.54C41.25 123.54 31.21 121.48 16.74 123.76C11 124.66 3.89 125.78 1.47 130.87C-1.45 137.04 4.16 145.55 5.6 147.73C7.24 150.22 9.37 152.48 11.69 154.62Z" /><g ><g ><path class="shp1" d="M108.71 183.05C92.24 180.89 85.39 188.76 72.69 188.94C62.9 189.08 55.8 184.16 41.61 174.34C38.63 172.28 -0.71 144.71 4.88 132.19C7.37 126.6 17.7 126.5 36.2 126.3C55.17 126.1 71.66 125.93 88.71 136.19C90.79 137.44 101.2 143.86 109.9 156.2C115.45 164.08 123.56 178.99 119.32 183.28C117.41 185.2 114.27 183.78 108.71 183.05Z" /><path fill-rule="evenodd" class="shp2" d="M72.29 189.29C62.59 189.29 55.44 184.35 41.4 174.62C37.03 171.6 -1.11 144.73 4.55 132.04C7.13 126.25 17.45 126.14 36.17 125.94C55.26 125.75 71.74 125.57 88.88 135.88C92.6 138.12 102.12 144.56 110.18 155.99C114.42 162 124.36 178.67 119.56 183.52C118.05 185.05 115.9 184.65 112.63 184.04C111.47 183.82 110.15 183.58 108.67 183.38C99.22 182.14 92.96 184.23 86.9 186.25C82.38 187.76 78.1 189.19 72.7 189.27C72.55 189.29 72.42 189.29 72.29 189.29ZM43.77 126.61C41.29 126.61 38.76 126.64 36.19 126.66C17.74 126.85 7.59 126.96 5.19 132.34C-0.33 144.72 40.08 172.86 41.8 174.05C55.72 183.69 62.8 188.59 72.29 188.59C72.42 188.59 72.55 188.59 72.67 188.59C77.97 188.52 82.19 187.11 86.66 185.61C92.79 183.56 99.14 181.45 108.75 182.7C110.26 182.9 111.58 183.14 112.75 183.36C115.9 183.94 117.8 184.3 119.05 183.04C123.01 179.04 115.35 164.58 109.59 156.41C101.61 145.09 92.19 138.71 88.51 136.5C73.84 127.67 59.61 126.61 43.77 126.61Z" /></g><g ><path class="shp1" d="M148.64 185.68C165.11 183.52 171.96 191.39 184.66 191.57C194.45 191.71 201.55 186.79 215.74 176.97C218.72 174.91 258.06 147.34 252.47 134.82C249.98 129.23 239.65 129.13 221.15 128.93C202.18 128.73 185.69 128.56 168.64 138.82C166.56 140.07 156.15 146.49 147.45 158.83C141.9 166.71 133.79 181.62 138.03 185.91C139.93 187.83 143.07 186.41 148.64 185.68Z" /><path fill-rule="evenodd" class="shp2" d="M185.06 191.92C184.93 191.92 184.79 191.92 184.66 191.92C179.25 191.84 174.98 190.42 170.46 188.9C164.4 186.88 158.15 184.78 148.69 186.03C147.2 186.22 145.89 186.47 144.73 186.69C141.47 187.29 139.31 187.7 137.8 186.17C133 181.32 142.94 164.65 147.18 158.64C155.24 147.21 164.76 140.76 168.48 138.53C185.61 128.22 202.08 128.39 221.17 128.59C239.91 128.79 250.22 128.89 252.8 134.69C258.45 147.36 220.31 174.25 215.95 177.27C201.9 186.98 194.76 191.92 185.06 191.92ZM154.22 184.95C160.85 184.95 165.83 186.61 170.68 188.23C175.15 189.72 179.37 191.14 184.67 191.21C184.8 191.21 184.93 191.21 185.06 191.21C194.54 191.21 201.62 186.31 215.53 176.68C217.26 175.48 257.67 147.32 252.15 134.96C249.75 129.58 239.6 129.48 221.17 129.28C202.18 129.09 185.8 128.91 168.83 139.12C165.15 141.34 155.72 147.71 147.75 159.03C141.99 167.2 134.34 181.65 138.3 185.66C139.55 186.92 141.45 186.57 144.6 185.98C145.77 185.76 147.1 185.52 148.6 185.32C150.6 185.07 152.47 184.95 154.22 184.95Z" /></g><g ><path class="shp3" d="M95.93 138.6C95.6 136.84 93.72 134.64 92.86 133.1C90.99 129.72 89.1 126.35 87.22 122.98C83.75 116.77 80.39 110.48 76.79 104.34C75.21 101.64 73.72 99.87 73.62 96.55C73.51 93.21 74.54 89.87 75.96 86.89C78.19 82.17 81.39 77.89 83.03 72.93C84.8 67.57 84.9 62.6 88.94 58.12C90.23 56.69 91.72 55.45 92.88 53.92C95.39 50.63 94.48 49.06 96.74 45.49C98.81 42.2 99.75 42.92 101.56 39.71C103.62 36.07 102.63 34.78 104.62 32.65C106.72 30.4 108.31 31.3 110.27 28.88C110.76 28.28 110.81 28.04 112.62 23.46C114.42 18.92 114.62 18.54 114.97 18.04C116.54 15.86 118.07 15.87 121.09 14.04C126.37 10.84 125.63 8.41 130.69 5.43C133.01 4.06 135.24 2.93 138.21 2.85C143.14 2.72 147.57 6.31 149.86 10.68C150.98 12.81 151.78 15.25 153.69 16.7C154.94 17.65 156.63 18.17 157.33 19.57C157.98 20.88 157.51 22.51 158.04 23.87C158.82 25.85 161.3 26.45 162.85 27.91C165.03 29.97 165.07 33.41 166.55 36.02C167.62 37.9 169.42 39.32 170.28 41.31C171.01 42.99 170.99 44.9 171.47 46.67C172.27 49.61 174.39 51.99 175.84 54.66C178.15 58.91 178.75 63.87 180.69 68.3C185.27 78.73 197.29 86.73 193.22 99.5C191.99 103.38 189.12 107.3 187.22 110.9C185.13 114.87 183.04 118.85 180.95 122.82C172.77 138.37 164.6 153.91 156.42 169.46C147.74 181.05 138.86 182.37 136.58 182.61C120.63 184.28 101.36 167.16 95.93 138.6Z" /><path fill-rule="evenodd" class="shp2" d="M134.44 183.07C126.97 183.07 118.93 179.19 112.07 172.19C103.99 163.95 98.14 152.04 95.59 138.67C95.37 137.54 94.44 136.15 93.62 134.93C93.22 134.34 92.84 133.78 92.56 133.27C90.69 129.89 88.8 126.52 86.92 123.15C85.76 121.07 84.61 118.99 83.46 116.9C81.21 112.82 78.89 108.6 76.5 104.51C76.23 104.05 75.97 103.62 75.71 103.21C74.45 101.17 73.37 99.4 73.28 96.56C73.18 93.56 73.98 90.26 75.65 86.73C76.51 84.9 77.53 83.12 78.52 81.39C80.08 78.65 81.7 75.83 82.7 72.81C83.19 71.32 83.56 69.85 83.91 68.43C84.84 64.69 85.71 61.17 88.68 57.88C89.18 57.32 89.73 56.78 90.25 56.26C91.06 55.45 91.9 54.62 92.6 53.7C93.89 52 94.25 50.77 94.63 49.47C94.98 48.26 95.35 47.01 96.43 45.29C97.47 43.64 98.22 42.98 98.95 42.34C99.67 41.71 100.34 41.11 101.24 39.53C102.19 37.86 102.47 36.72 102.71 35.71C102.99 34.58 103.23 33.6 104.35 32.4C105.42 31.26 106.35 30.89 107.26 30.53C108.17 30.17 109.03 29.83 109.99 28.65C110.37 28.18 110.46 27.95 111.57 25.16L112.29 23.33C114.13 18.7 114.31 18.37 114.69 17.84C115.78 16.33 116.84 15.82 118.31 15.12C119.05 14.76 119.9 14.36 120.92 13.74C123.52 12.16 124.64 10.77 125.73 9.42C126.82 8.06 127.96 6.65 130.53 5.13C132.7 3.85 135.08 2.59 138.21 2.5C138.3 2.5 138.39 2.5 138.48 2.5C143.05 2.5 147.62 5.62 150.19 10.52C150.44 11 150.68 11.5 150.92 12.01C151.7 13.65 152.51 15.35 153.92 16.43C154.3 16.72 154.75 16.98 155.18 17.23C156.15 17.79 157.15 18.38 157.67 19.42C158.05 20.18 158.08 21.01 158.11 21.81C158.14 22.5 158.16 23.16 158.39 23.74C158.84 24.87 159.92 25.53 161.07 26.22C161.77 26.64 162.5 27.08 163.11 27.65C164.49 28.96 165.06 30.78 165.6 32.55C165.95 33.68 166.31 34.84 166.88 35.85C167.34 36.66 167.95 37.4 168.55 38.12C169.33 39.05 170.13 40.02 170.63 41.17C171.09 42.22 171.26 43.36 171.43 44.45C171.54 45.15 171.65 45.88 171.84 46.57C172.35 48.46 173.42 50.09 174.54 51.82C175.1 52.68 175.68 53.57 176.18 54.49C177.49 56.91 178.27 59.58 179.02 62.16C179.6 64.16 180.2 66.23 181.05 68.15C182.5 71.45 184.75 74.57 186.92 77.59C191.58 84.06 196.41 90.75 193.59 99.6C192.75 102.24 191.17 104.88 189.64 107.44C188.89 108.7 188.18 109.89 187.56 111.06L156.76 169.62C148.52 180.62 139.95 182.61 136.64 182.96C135.9 183.04 135.17 183.07 134.44 183.07ZM136.56 182.26C139.77 181.92 148.11 179.98 156.16 169.25L186.93 110.74C187.56 109.55 188.27 108.35 189.03 107.08C190.54 104.56 192.09 101.95 192.91 99.39C195.62 90.87 191.11 84.62 186.34 78C184.15 74.95 181.87 71.81 180.39 68.43C179.53 66.47 178.92 64.38 178.33 62.35C177.59 59.8 176.82 57.17 175.55 54.82C175.06 53.93 174.49 53.05 173.94 52.2C172.83 50.51 171.69 48.75 171.15 46.75C170.95 46.03 170.84 45.28 170.73 44.55C170.56 43.45 170.4 42.41 169.98 41.44C169.52 40.38 168.78 39.5 168.01 38.56C167.39 37.82 166.75 37.05 166.27 36.18C165.66 35.11 165.29 33.91 164.93 32.74C164.39 30.98 163.88 29.33 162.63 28.15C162.08 27.63 161.39 27.22 160.72 26.81C159.52 26.09 158.28 25.34 157.74 23.98C157.46 23.28 157.44 22.54 157.41 21.82C157.38 21.06 157.35 20.34 157.04 19.71C156.61 18.85 155.75 18.35 154.83 17.81C154.38 17.55 153.92 17.28 153.5 16.96C151.95 15.78 151.11 14 150.29 12.28C150.06 11.79 149.82 11.3 149.57 10.82C147.08 6.06 142.64 3.06 138.24 3.18C135.28 3.26 133.07 4.42 130.89 5.71C128.43 7.16 127.39 8.46 126.28 9.83C125.16 11.23 124 12.68 121.29 14.32C120.24 14.96 119.38 15.37 118.62 15.73C117.19 16.41 116.25 16.86 115.27 18.23C114.94 18.68 114.76 19.04 112.96 23.57L112.24 25.4C111.1 28.29 111 28.53 110.56 29.08C109.48 30.4 108.5 30.79 107.54 31.17C106.67 31.51 105.85 31.84 104.89 32.87C103.9 33.93 103.7 34.74 103.42 35.87C103.17 36.87 102.87 38.11 101.87 39.87C100.91 41.56 100.19 42.2 99.43 42.87C98.74 43.48 98.03 44.11 97.04 45.67C96.01 47.3 95.66 48.51 95.32 49.67C94.92 51.04 94.54 52.33 93.17 54.13C92.44 55.08 91.58 55.94 90.75 56.76C90.23 57.27 89.7 57.8 89.21 58.35C86.36 61.51 85.51 64.96 84.6 68.6C84.24 70.04 83.88 71.52 83.37 73.03C82.35 76.12 80.71 78.98 79.13 81.74C78.15 83.45 77.14 85.23 76.28 87.03C74.66 90.45 73.89 93.65 73.98 96.53C74.07 99.19 75.05 100.8 76.31 102.84C76.57 103.26 76.84 103.69 77.11 104.16C79.51 108.25 81.83 112.48 84.08 116.56C85.23 118.64 86.38 120.73 87.54 122.8C89.43 126.17 91.31 129.55 93.19 132.93C93.45 133.4 93.82 133.95 94.21 134.53C95.06 135.82 96.04 137.27 96.28 138.54C101.81 167.58 121.48 183.87 136.56 182.26Z" /></g><g ><path class="shp4" d="M172.63 174.62C171.76 174.07 170.64 173.72 169.24 173.63C166.74 173.47 164.3 174.33 161.92 175.1C138.77 182.63 113.01 182.55 90 174.87C87.54 174.05 85.09 173.14 82.51 172.72C81.5 172.56 80.41 172.48 79.48 172.91C77.48 173.83 77.27 176.46 77.71 178.52C79.39 186.42 86.33 192.54 94.14 195.63C101.95 198.72 110.59 199.24 119.05 199.52C132.22 199.95 145.59 199.85 158.33 196.56C162.91 195.38 167.51 193.71 170.93 190.57C174.72 187.1 177.59 177.72 172.63 174.62Z" /><path fill-rule="evenodd" class="shp4" d="M128.82 201.11C125.51 201.11 122.23 201.04 119 200.93C110.56 200.66 101.64 200.12 93.61 196.95C84.43 193.32 77.97 186.54 76.32 178.82C75.75 176.17 76.13 172.89 78.88 171.63C80.19 171.03 81.62 171.16 82.73 171.33C85.04 171.71 87.24 172.45 89.36 173.17L90.43 173.53C113.26 181.14 138.49 181.22 161.47 173.75L161.91 173.61C164.27 172.84 166.71 172.06 169.32 172.22C170.89 172.32 172.25 172.73 173.37 173.42C175.27 174.61 176.39 176.6 176.63 179.19C177.01 183.37 174.92 188.83 171.87 191.62C167.96 195.2 162.76 196.88 158.67 197.93C148.94 200.44 138.76 201.11 128.82 201.11ZM81.11 174.01C80.73 174.01 80.37 174.06 80.06 174.2C78.74 174.81 78.82 177.02 79.08 178.24C80.51 184.93 86.47 191.1 94.65 194.33C102.26 197.34 110.89 197.85 119.09 198.12C131.82 198.53 145.34 198.46 157.97 195.2C161.74 194.22 166.52 192.7 169.97 189.54C172.1 187.59 174.15 183.07 173.82 179.45C173.67 177.75 173.01 176.53 171.87 175.82C171.16 175.38 170.24 175.11 169.14 175.04C167.06 174.9 164.99 175.58 162.8 176.3L162.35 176.45C138.8 184.11 112.95 184.03 89.54 176.22L88.45 175.85C86.34 175.13 84.35 174.46 82.27 174.12C81.92 174.06 81.51 174.01 81.11 174.01Z" /></g><g ><path class="shp5" d="M57.64 184C57.61 184.23 57.23 187.02 59.05 188.5C60.78 189.91 63.2 189.15 64.7 188.5C65.59 188.12 67.51 187.49 67.88 186.03C68.09 185.19 67.73 184.31 67.88 184.26C68.04 184.21 68.2 185.42 69.12 186.03C69.56 186.32 70 186.36 71.68 186.29C73.46 186.22 74.35 186.19 74.59 186.11C76.87 185.44 78 183.38 78.3 182.84C78.76 182.01 79.2 181.21 79.01 180.28C78.75 179.03 77.52 178.3 77.69 178.07C77.81 177.9 78.41 178.39 79.28 178.42C80.54 178.47 81.69 177.53 82.28 176.65C82.81 175.87 82.89 175.14 82.99 174.09C83.12 172.78 83.4 169.79 81.84 168.7C81.38 168.38 80.31 167.91 79.63 167.64C79.02 167.4 78.59 167.28 78.57 167.02C78.54 166.7 79.12 166.45 79.81 165.96C79.81 165.96 80.71 165.32 81.66 164.15C82.7 162.86 83.09 160.88 82.72 159.16C82.34 157.41 81.26 156.36 80.34 155.45C78.73 153.88 77.05 153.31 76.54 153.15C75.69 152.89 74.9 152.64 73.89 152.8C72.35 153.04 71.45 154.02 71.2 153.77C71 153.57 71.59 152.93 71.95 151.56C72.13 150.86 72.36 149.99 72.04 149.18C71.83 148.65 71.39 148.14 70.27 147.59C67.33 146.15 64.18 146.62 64.18 146.62C61.88 146.96 57.4 148.35 56.85 151.3C56.67 152.26 56.89 153.51 57.29 154.48C57.84 155.8 58.72 156.59 58.61 156.69C58.51 156.78 57.77 156.08 56.52 155.16C55.08 154.11 54.37 153.58 53.52 153.39C52.02 153.06 50.72 153.68 50.11 153.98C49.34 154.35 47.9 155.22 47.05 156.98C46.32 158.5 46.04 160.63 46.93 162.28C47.32 163 47.93 163.62 48.99 164.69C49.91 165.63 50.68 166.24 50.58 166.4C50.49 166.54 49.85 166.07 48.93 165.93C47.62 165.73 46.52 166.32 45.72 166.75C45.21 167.03 43.72 167.86 42.72 169.66C42.28 170.46 41.32 172.18 41.93 174.16C42.42 175.79 43.67 176.65 44.05 176.9C46.07 178.24 48.28 177.72 48.73 177.61C50.97 177.07 52.19 175.08 52.35 175.23C52.48 175.35 51.42 176.4 50.58 178.23C50.23 178.99 49.79 179.99 49.7 181.32C49.64 182.24 49.5 184.28 50.94 185.65C51.13 185.83 52.29 186.89 53.77 186.71C55.2 186.54 56.05 185.31 57.04 183.88C57.58 183.09 58.25 181.92 58.72 180.35" /><path fill-rule="evenodd" class="shp5" d="M61.44 189.65C60.41 189.65 59.54 189.36 58.83 188.78C57.11 187.38 57.18 184.99 57.26 184.19C56.29 185.59 55.36 186.9 53.8 187.09C52.23 187.27 51.02 186.25 50.69 185.94C49.13 184.47 49.28 182.27 49.34 181.34C49.44 179.92 49.93 178.84 50.25 178.12C50.43 177.73 50.61 177.38 50.79 177.06C50.25 177.44 49.58 177.8 48.8 177.99C46.99 178.43 45.23 178.16 43.84 177.23C42.42 176.29 41.83 175.12 41.58 174.3C40.94 172.17 41.96 170.32 42.4 169.53C43.11 168.24 44.17 167.22 45.54 166.48C46.33 166.05 47.54 165.39 48.97 165.62C49.16 165.65 49.33 165.69 49.49 165.73C49.26 165.51 49 165.26 48.72 164.98C47.66 163.9 47.01 163.25 46.6 162.49C45.58 160.62 46.02 158.29 46.71 156.87C47.6 155.03 49.11 154.1 49.94 153.7C50.54 153.41 51.96 152.74 53.58 153.09C54.5 153.29 55.24 153.83 56.72 154.92C56.92 155.07 57.11 155.21 57.28 155.34C57.16 155.13 57.05 154.91 56.95 154.66C56.48 153.55 56.31 152.25 56.49 151.28C57.07 148.17 61.56 146.7 64.11 146.32C64.25 146.3 67.41 145.85 70.41 147.32C71.47 147.84 72.07 148.39 72.35 149.1C72.71 150.02 72.46 150.99 72.28 151.7C72.09 152.41 71.84 152.94 71.67 153.3C71.67 153.31 71.66 153.32 71.65 153.33C71.68 153.32 71.7 153.3 71.73 153.29C72.2 153.03 72.9 152.64 73.82 152.5C74.91 152.33 75.74 152.59 76.62 152.86C77.44 153.11 79.04 153.76 80.56 155.24C81.49 156.14 82.64 157.27 83.04 159.13C83.44 161 83 163.07 81.91 164.42C80.94 165.62 80.02 166.27 79.99 166.3C79.8 166.43 79.63 166.55 79.47 166.65C79.28 166.77 79.04 166.93 78.94 167.03C79.05 167.1 79.3 167.19 79.5 167.27L79.74 167.36C80.34 167.59 81.49 168.09 82.02 168.46C83.75 169.67 83.45 172.82 83.32 174.16C83.22 175.2 83.14 176.02 82.55 176.89C81.93 177.81 80.68 178.84 79.24 178.81C78.97 178.8 78.73 178.75 78.52 178.69C78.84 179.07 79.2 179.59 79.33 180.24C79.55 181.3 79.06 182.19 78.59 183.04C77.35 185.29 75.78 186.15 74.67 186.48C74.38 186.57 73.59 186.6 71.67 186.67C69.97 186.73 69.44 186.7 68.9 186.35C68.64 186.18 68.43 185.97 68.27 185.75C68.26 185.88 68.24 186.01 68.2 186.14C67.83 187.62 66.14 188.31 65.13 188.72L64.82 188.85C63.57 189.38 62.43 189.65 61.44 189.65ZM57.41 183.97L57.99 184.06C57.97 184.17 57.59 186.86 59.28 188.24C60.47 189.2 62.25 189.19 64.57 188.19L64.89 188.06C65.78 187.7 67.26 187.09 67.54 185.96C67.65 185.52 67.58 185.05 67.53 184.73C67.48 184.41 67.43 184.04 67.78 183.94C68.14 183.84 68.28 184.19 68.4 184.47C68.56 184.85 68.8 185.42 69.31 185.75C69.65 185.97 69.97 186.02 71.66 185.96C73.24 185.9 74.28 185.86 74.49 185.8C75.47 185.51 76.87 184.74 77.99 182.7C78.44 181.89 78.82 181.19 78.66 180.38C78.52 179.72 78.07 179.21 77.73 178.85C77.44 178.53 77.16 178.22 77.39 177.9C77.61 177.6 77.95 177.74 78.25 177.85C78.51 177.95 78.86 178.09 79.28 178.11C80.38 178.17 81.42 177.33 81.98 176.5C82.44 175.81 82.52 175.17 82.63 174.1C82.75 172.87 83.02 170.01 81.63 169.04C81.24 168.77 80.26 168.32 79.5 168.02L79.27 167.93C78.71 167.71 78.26 167.55 78.22 167.11C78.18 166.66 78.59 166.39 79.11 166.06C79.26 165.96 79.43 165.85 79.61 165.73C79.62 165.72 80.49 165.11 81.39 163.99C82.35 162.81 82.74 160.96 82.38 159.3C82.02 157.65 81 156.65 80.09 155.77C78.68 154.39 77.19 153.79 76.44 153.56C75.6 153.3 74.88 153.08 73.95 153.22C73.16 153.34 72.54 153.68 72.09 153.93C71.64 154.18 71.25 154.39 70.95 154.1C70.67 153.82 70.84 153.47 71.05 153.02C71.21 152.67 71.44 152.2 71.61 151.55C71.79 150.86 71.99 150.09 71.71 149.38C71.57 149.02 71.26 148.54 70.12 147.98C67.32 146.61 64.26 147.04 64.24 147.04C62.03 147.37 57.71 148.71 57.21 151.44C57.05 152.27 57.22 153.44 57.63 154.42C57.95 155.18 58.38 155.75 58.66 156.13C58.93 156.49 59.14 156.77 58.87 157.02C58.59 157.29 58.33 157.09 57.57 156.48C57.24 156.22 56.83 155.89 56.33 155.52C54.94 154.5 54.24 153.98 53.46 153.81C52.07 153.5 50.86 154.09 50.27 154.37C49.53 154.72 48.17 155.56 47.37 157.21C46.75 158.48 46.35 160.54 47.25 162.18C47.62 162.85 48.2 163.45 49.25 164.51C49.54 164.81 49.82 165.07 50.05 165.3C50.82 166.04 51.11 166.31 50.88 166.66C50.68 166.96 50.34 166.83 50.01 166.69C49.73 166.57 49.34 166.42 48.89 166.35C47.68 166.16 46.66 166.73 45.9 167.14C44.65 167.82 43.68 168.75 43.04 169.91C42.61 170.69 41.72 172.3 42.27 174.14C42.48 174.85 43 175.86 44.25 176.69C45.48 177.5 47.04 177.73 48.65 177.35C50.13 176.99 51.14 175.96 51.69 175.4C52.02 175.06 52.3 174.78 52.6 175.05C52.88 175.31 52.68 175.59 52.32 176.1C51.98 176.58 51.4 177.39 50.92 178.46C50.6 179.17 50.16 180.14 50.07 181.43C50.01 182.34 49.88 184.23 51.2 185.48C51.4 185.67 52.46 186.58 53.74 186.45C55.01 186.3 55.78 185.18 56.76 183.77C57.48 182.73 58.03 181.58 58.39 180.34L59.07 180.54C58.67 181.74 58.12 182.91 57.41 183.97Z" /></g><g ><g ><g ><path class="shp6" d="M66.57 165.28C67.56 166.11 68.14 167.18 68.14 168.18C68.14 169.26 67.56 170.25 66.48 171C65.24 171.91 63.66 172.32 62.42 171.99C61.01 171.58 59.6 170.33 59.44 168.59C59.44 168.42 59.44 168.34 59.44 168.18C59.44 166.19 61.01 164.7 62.59 164.29C62.92 164.21 63.25 164.12 63.5 164.12C64.58 164.12 65.66 164.54 66.57 165.28Z" /></g></g></g><g ><g ><g ><path fill-rule="evenodd" class="shp7" d="M79.42 153.09C78.74 154.08 78.09 154.98 76.96 155.1C75.86 155.24 75.01 154.51 74.78 154.28C73.68 153.26 73.76 151.71 73.82 151.03C73.88 150.04 74.24 149.28 74.47 148.77C74.58 148.49 74.72 148.23 74.84 148.01C74.47 148.29 73.99 148.55 73.43 148.66C72.16 148.97 70.92 148.8 69.93 148.12C68.94 147.47 68.52 146.65 68.35 146.06C67.87 144.56 68.6 143.23 68.92 142.7C69.43 141.77 70.19 141.06 71.15 140.52C71.72 140.21 72.56 139.76 73.58 139.9C73.69 139.93 73.83 139.96 73.95 139.98C73.78 139.84 73.61 139.64 73.41 139.44C72.65 138.68 72.2 138.23 71.91 137.69C71.18 136.36 71.49 134.72 71.97 133.71C72.62 132.41 73.69 131.76 74.26 131.48C74.68 131.28 75.7 130.8 76.83 131.03C77.48 131.17 78.02 131.57 79.06 132.33C79.2 132.44 79.34 132.53 79.46 132.64C79.38 132.5 79.29 132.33 79.23 132.16C78.89 131.37 78.78 130.44 78.89 129.76C79.31 127.56 82.48 126.51 84.29 126.26C84.37 126.23 86.64 125.92 88.75 126.97C89.48 127.34 89.91 127.73 90.11 128.21C90.36 128.86 90.19 129.57 90.08 130.07C89.94 130.55 89.77 130.95 89.63 131.2C89.66 131.2 89.66 131.2 89.69 131.17C90.03 131 90.51 130.72 91.16 130.63C91.95 130.49 92.52 130.69 93.14 130.88C93.73 131.05 94.86 131.5 95.94 132.55C96.59 133.2 97.41 133.99 97.69 135.32C98 136.65 97.66 138.09 96.9 139.05C96.22 139.9 95.57 140.35 95.54 140.38C95.4 140.46 95.29 140.55 95.17 140.63C95.03 140.71 94.86 140.83 94.77 140.88C94.85 140.94 95.02 140.99 95.19 141.05L95.36 141.13C95.78 141.3 96.6 141.64 96.97 141.89C98.18 142.74 97.96 144.97 97.87 145.93C97.81 146.66 97.76 147.26 97.33 147.85C96.88 148.5 96 149.23 94.98 149.23C94.81 149.2 94.61 149.17 94.47 149.15C94.7 149.4 94.95 149.77 95.06 150.22C95.2 150.98 94.86 151.6 94.52 152.23C93.64 153.81 92.51 154.41 91.75 154.66C91.55 154.72 90.99 154.72 89.63 154.77C88.42 154.83 88.05 154.8 87.65 154.54C87.48 154.43 87.34 154.29 87.2 154.12C87.2 154.2 87.2 154.32 87.17 154.4C86.92 155.45 85.7 155.93 84.99 156.24L84.76 156.32C83.86 156.72 83.06 156.89 82.36 156.89C81.63 156.89 81 156.69 80.5 156.3C79.34 155.32 79.37 153.66 79.42 153.09ZM97.62 145.91C97.73 144.98 97.93 142.89 96.83 142.1C96.49 141.87 95.73 141.56 95.25 141.37C94.83 141.2 94.52 141.12 94.52 140.92C94.49 140.69 94.92 140.52 95.4 140.19C95.4 140.19 96.02 139.74 96.7 138.92C97.43 137.99 97.72 136.6 97.46 135.39C97.18 134.15 96.41 133.38 95.76 132.76C94.63 131.63 93.44 131.23 93.08 131.12C92.49 130.95 91.92 130.75 91.22 130.87C90.12 131.04 89.47 131.75 89.3 131.58C89.16 131.44 89.58 130.99 89.84 130C89.98 129.52 90.12 128.9 89.9 128.33C89.76 127.93 89.45 127.6 88.66 127.2C86.57 126.18 84.34 126.52 84.34 126.52C82.73 126.75 79.56 127.73 79.17 129.83C79.03 130.51 79.2 131.38 79.48 132.06C79.88 132.99 80.5 133.56 80.41 133.64C80.3 133.64 79.76 133.16 78.94 132.54C77.92 131.81 77.41 131.44 76.79 131.3C75.74 131.07 74.81 131.5 74.39 131.72C73.85 131.97 72.84 132.6 72.21 133.84C71.7 134.91 71.5 136.41 72.13 137.6C72.41 138.11 72.86 138.53 73.6 139.3C74.25 139.98 74.79 140.4 74.73 140.51C74.65 140.59 74.22 140.28 73.54 140.17C72.64 140.03 71.84 140.45 71.28 140.76C70.91 140.96 69.87 141.52 69.16 142.82C68.85 143.39 68.17 144.6 68.59 146.01C68.93 147.14 69.83 147.76 70.09 147.93C71.53 148.89 73.09 148.52 73.4 148.44C75.01 148.04 75.86 146.63 75.97 146.74C76.05 146.82 75.32 147.56 74.73 148.86C74.48 149.4 74.16 150.1 74.11 151.06C74.05 151.71 73.97 153.15 74.99 154.11C75.1 154.25 75.92 154.99 76.97 154.87C77.99 154.73 78.58 153.88 79.29 152.86C79.66 152.32 80.13 151.54 80.44 150.48L79.94 152.21C79.86 152.44 79.71 152.66 79.57 152.89L79.74 152.92C79.71 153.09 79.43 155.07 80.73 156.11C81.94 157.1 83.67 156.56 84.74 156.11C85.36 155.83 86.72 155.38 86.97 154.36C87.14 153.77 86.89 153.15 86.97 153.12C87.08 153.12 87.22 153.94 87.85 154.36C88.16 154.56 88.47 154.59 89.66 154.56C90.93 154.5 91.55 154.48 91.72 154.42C93.33 153.94 94.15 152.5 94.35 152.1C94.69 151.51 95 150.94 94.86 150.29C94.66 149.41 93.81 148.91 93.93 148.74C94.01 148.63 94.44 148.97 95.03 148.99C95.93 149.02 96.75 148.34 97.18 147.72C97.51 147.19 97.56 146.68 97.62 145.91ZM80.44 150.48L80.45 150.46C80.45 150.47 80.45 150.48 80.44 150.48Z" /><path class="shp7" d="M96.83 142.1C97.93 142.89 97.73 144.98 97.62 145.91C97.56 146.67 97.51 147.18 97.14 147.72C96.72 148.34 95.9 149.02 94.99 148.99C94.4 148.96 93.97 148.62 93.89 148.74C93.78 148.91 94.62 149.42 94.82 150.29C94.96 150.94 94.65 151.5 94.31 152.1C94.11 152.5 93.29 153.94 91.68 154.42C91.51 154.48 90.89 154.5 89.62 154.56C88.43 154.59 88.12 154.56 87.81 154.36C87.19 153.94 87.05 153.12 86.93 153.12C86.85 153.15 87.1 153.77 86.93 154.36C86.68 155.38 85.32 155.83 84.7 156.11C83.63 156.56 81.9 157.1 80.69 156.11C79.39 155.06 79.67 153.09 79.7 152.92L79.93 152.95C79.93 153.03 79.65 154.96 80.86 155.92C81.68 156.6 82.95 156.6 84.59 155.89L84.82 155.78C85.44 155.53 86.52 155.1 86.71 154.31C86.77 154 86.74 153.66 86.68 153.43C86.65 153.2 86.62 152.95 86.88 152.86C87.13 152.8 87.22 153.03 87.3 153.23C87.41 153.51 87.58 153.91 87.95 154.13C88.18 154.3 88.43 154.33 89.62 154.3C90.75 154.24 91.48 154.22 91.63 154.19C92.31 153.96 93.3 153.43 94.09 151.99C94.43 151.42 94.68 150.92 94.57 150.35C94.49 149.87 94.15 149.53 93.92 149.28C93.72 149.03 93.52 148.83 93.69 148.6C93.83 148.37 94.06 148.49 94.28 148.54C94.48 148.62 94.7 148.71 95.01 148.74C95.77 148.77 96.51 148.17 96.9 147.61C97.24 147.1 97.3 146.65 97.38 145.89C97.46 145.04 97.63 143.01 96.67 142.33C96.39 142.13 95.68 141.82 95.14 141.6L94.97 141.54C94.57 141.37 94.26 141.26 94.24 140.95C94.21 140.64 94.49 140.44 94.86 140.22C94.97 140.14 95.09 140.08 95.23 139.99C95.23 139.99 95.85 139.54 96.47 138.75C97.15 137.9 97.43 136.6 97.18 135.42C96.93 134.26 96.19 133.56 95.57 132.93C94.55 131.94 93.51 131.55 92.97 131.38C92.38 131.18 91.87 131.04 91.22 131.13C90.65 131.21 90.23 131.47 89.89 131.64C89.58 131.81 89.3 131.95 89.1 131.75C88.9 131.55 89.02 131.3 89.16 130.99C89.27 130.74 89.44 130.4 89.56 129.94C89.7 129.46 89.84 128.92 89.64 128.41C89.53 128.16 89.33 127.82 88.51 127.42C86.53 126.43 84.36 126.74 84.36 126.74C82.78 126.99 79.73 127.93 79.36 129.85C79.28 130.44 79.39 131.26 79.67 131.97C79.9 132.51 80.21 132.9 80.4 133.18C80.6 133.43 80.74 133.63 80.54 133.8C80.34 134 80.17 133.86 79.64 133.43C79.39 133.23 79.1 133.01 78.74 132.72C77.78 132.01 77.27 131.65 76.73 131.53C75.74 131.3 74.87 131.73 74.47 131.93C73.93 132.18 72.97 132.78 72.41 133.94C71.99 134.84 71.7 136.29 72.33 137.44C72.58 137.92 73.01 138.34 73.74 139.11C73.97 139.31 74.14 139.51 74.31 139.68C74.88 140.19 75.07 140.39 74.9 140.64C74.76 140.84 74.5 140.75 74.28 140.64C74.08 140.58 73.83 140.47 73.49 140.41C72.64 140.27 71.91 140.66 71.37 140.98C70.49 141.46 69.82 142.11 69.36 142.93C69.05 143.47 68.43 144.63 68.79 145.92C68.96 146.43 69.33 147.13 70.2 147.73C71.08 148.3 72.18 148.46 73.31 148.18C74.36 147.93 75.09 147.19 75.46 146.8C75.71 146.57 75.91 146.38 76.11 146.57C76.31 146.74 76.17 146.94 75.91 147.3C75.66 147.64 75.26 148.2 74.92 148.97C74.69 149.48 74.38 150.16 74.3 151.06C74.27 151.71 74.19 153.04 75.12 153.94C75.26 154.05 76 154.7 76.9 154.62C77.8 154.51 78.37 153.72 79.05 152.73C79.56 152 79.95 151.18 80.21 150.3L80.44 150.36L80.41 150.47C80.1 151.54 79.62 152.33 79.25 152.87C78.54 153.89 77.95 154.73 76.93 154.88C75.88 154.99 75.07 154.26 74.95 154.12C73.93 153.16 74.02 151.72 74.07 151.07C74.13 150.11 74.44 149.4 74.69 148.87C75.28 147.57 76.02 146.84 75.93 146.75C75.82 146.64 74.97 148.05 73.36 148.45C73.05 148.53 71.5 148.9 70.05 147.94C69.8 147.77 68.89 147.15 68.55 146.02C68.13 144.61 68.8 143.39 69.12 142.83C69.83 141.53 70.87 140.97 71.24 140.77C71.81 140.46 72.6 140.04 73.5 140.18C74.18 140.29 74.6 140.6 74.69 140.52C74.75 140.41 74.21 139.98 73.56 139.31C72.83 138.55 72.37 138.12 72.09 137.61C71.47 136.42 71.67 134.93 72.17 133.85C72.79 132.61 73.81 131.99 74.35 131.73C74.77 131.5 75.71 131.08 76.75 131.31C77.37 131.45 77.88 131.82 78.9 132.55C79.72 133.17 80.26 133.65 80.37 133.65C80.45 133.57 79.83 133 79.44 132.07C79.16 131.39 78.99 130.52 79.13 129.84C79.53 127.75 82.69 126.76 84.3 126.53C84.3 126.53 86.53 126.19 88.62 127.21C89.41 127.61 89.72 127.94 89.86 128.34C90.09 128.91 89.94 129.53 89.8 130.01C89.55 131 89.12 131.45 89.26 131.59C89.43 131.76 90.08 131.05 91.18 130.88C91.89 130.77 92.45 130.96 93.04 131.13C93.41 131.24 94.59 131.64 95.72 132.77C96.37 133.39 97.13 134.15 97.42 135.4C97.67 136.61 97.39 138 96.66 138.93C95.98 139.75 95.36 140.2 95.36 140.2C94.88 140.54 94.46 140.71 94.48 140.93C94.48 141.13 94.79 141.21 95.21 141.38C95.73 141.56 96.49 141.87 96.83 142.1Z" /><path class="shp7" d="M96.69 142.33C97.65 143.01 97.48 145.04 97.4 145.89C97.32 146.65 97.26 147.1 96.92 147.61C96.52 148.18 95.79 148.77 95.03 148.74C94.72 148.71 94.49 148.63 94.3 148.54C94.07 148.48 93.85 148.37 93.71 148.6C93.54 148.83 93.74 149.02 93.94 149.28C94.17 149.53 94.51 149.87 94.59 150.35C94.7 150.92 94.45 151.42 94.11 151.99C93.32 153.43 92.33 153.97 91.65 154.19C91.51 154.22 90.77 154.25 89.64 154.3C88.45 154.33 88.2 154.3 87.97 154.13C87.6 153.9 87.43 153.51 87.32 153.23C87.24 153.03 87.15 152.81 86.9 152.86C86.65 152.94 86.67 153.2 86.7 153.43C86.76 153.66 86.78 154 86.73 154.31C86.53 155.1 85.46 155.52 84.84 155.78L84.61 155.89C82.97 156.6 81.7 156.6 80.88 155.92C79.67 154.96 79.95 153.04 79.95 152.95L79.72 152.92L79.92 152.21C80.26 151.64 80.51 151.05 80.71 150.43L80.46 150.35L80.23 150.29C79.98 151.17 79.58 151.99 79.07 152.72C78.39 153.71 77.83 154.5 76.92 154.61C76.02 154.69 75.28 154.04 75.14 153.93C74.21 153.03 74.29 151.7 74.32 151.05C74.4 150.15 74.72 149.47 74.94 148.96C75.28 148.2 75.67 147.63 75.93 147.29C76.18 146.92 76.33 146.72 76.13 146.56C75.93 146.36 75.73 146.56 75.48 146.79C75.11 147.19 74.38 147.92 73.33 148.17C72.2 148.45 71.1 148.28 70.22 147.72C69.34 147.13 68.98 146.42 68.81 145.91C68.44 144.61 69.06 143.45 69.38 142.92C69.83 142.1 70.51 141.45 71.39 140.97C71.93 140.66 72.66 140.26 73.51 140.4C73.85 140.46 74.1 140.57 74.3 140.63C74.53 140.74 74.78 140.83 74.92 140.63C75.09 140.38 74.89 140.18 74.33 139.67C74.16 139.5 73.99 139.3 73.76 139.1C73.03 138.34 72.6 137.91 72.35 137.43C71.73 136.27 72.01 134.83 72.43 133.93C73 132.77 73.96 132.18 74.49 131.92C74.89 131.72 75.76 131.3 76.75 131.52C77.29 131.63 77.8 132 78.76 132.71C79.13 132.99 79.41 133.22 79.66 133.42C80.2 133.84 80.37 133.99 80.56 133.79C80.76 133.62 80.62 133.42 80.42 133.17C80.22 132.89 79.91 132.49 79.69 131.96C79.41 131.25 79.29 130.43 79.38 129.84C79.75 127.92 82.8 126.99 84.38 126.73C84.38 126.73 86.56 126.42 88.53 127.41C89.35 127.81 89.55 128.14 89.66 128.4C89.86 128.91 89.72 129.45 89.58 129.93C89.47 130.38 89.3 130.72 89.18 130.98C89.04 131.29 88.93 131.55 89.12 131.74C89.31 131.93 89.6 131.8 89.91 131.63C90.25 131.46 90.67 131.21 91.24 131.12C91.89 131.04 92.4 131.18 92.99 131.37C93.53 131.54 94.57 131.94 95.59 132.92C96.21 133.54 96.95 134.25 97.2 135.41C97.45 136.6 97.17 137.9 96.49 138.74C95.87 139.53 95.25 139.98 95.25 139.98C95.11 140.06 95 140.12 94.88 140.21C94.51 140.44 94.23 140.63 94.26 140.94C94.29 141.25 94.6 141.36 94.99 141.53L95.16 141.59C95.7 141.82 96.4 142.13 96.69 142.33Z" /><path class="shp7" d="M80.44 150.35L80.69 150.43C80.49 151.05 80.24 151.64 79.9 152.21L80.41 150.46L80.44 150.35Z" /></g></g></g><g ><g ><g ><path class="shp6" d="M86.54 140.81C87.07 141.26 87.37 141.79 87.37 142.32C87.37 142.85 87.07 143.37 86.54 143.75C85.94 144.28 85.11 144.43 84.43 144.28C83.75 144.05 83 143.45 82.85 142.55C82.85 142.47 82.85 142.47 82.85 142.4C82.85 141.35 83.68 140.52 84.51 140.29C84.66 140.29 84.89 140.21 85.04 140.21C85.57 140.21 86.09 140.44 86.54 140.81Z" /></g></g></g><g ><path class="shp8" d="M68.59 125.57C68.38 125.57 68.98 128.96 67.3 131.81C66 134.01 63.87 134.99 62.94 135.34C59.94 136.48 56.21 135.99 53.64 133.69C51.39 131.68 50.93 129.09 50.81 128.39C50.36 125.63 51.34 123.42 52.11 121.68C52.37 121.09 53.09 119.56 54.46 117.91C54.86 117.42 55.77 116.39 57.17 115.32C58.53 114.28 60.05 113.59 61.52 112.72C58.49 113.91 55.14 114.57 51.96 113.85C48.78 113.13 45.84 110.83 45.01 107.68C44.54 105.91 44.75 104.03 45.13 102.23C45.81 99 47.08 95.82 49.29 93.38C51.97 90.41 55.68 89 59.65 89.91C62.98 90.67 65.87 92.73 68.46 94.96C69.54 95.89 70.63 96.92 71.13 98.26C72.12 100.92 70.67 103.82 70.72 106.54C70.71 104.35 71.74 102.01 73.18 100.37C73.91 99.53 74.66 99.03 75.3 98.6C76 98.13 77.89 96.96 80.48 96.48C81.56 96.28 85.75 95.58 89.78 98.13C90.82 98.79 94.03 100.82 94.84 104.72C95.47 107.76 94.29 110.25 93.9 111.08C92.92 113.14 91.57 114.29 89.54 116.02C87.58 117.69 86.6 118.53 85.18 118.85C83.55 119.21 81.8 118.3 78.35 116.73C77.06 116.14 76.1 115.54 76.05 115.61C76.19 115.39 83.73 121.68 84.28 122.32C84.9 123.05 85.49 123.84 85.74 124.76C86.18 126.37 85.5 128.09 84.49 129.42C81.35 133.57 73.19 135.34 69.81 130.44C68.35 128.32 68.78 125.57 68.59 125.57Z" /><path fill-rule="evenodd" class="shp8" d="M59.65 136.29C57.36 136.29 55.11 135.48 53.4 133.95C51.86 132.57 50.82 130.62 50.46 128.45C49.99 125.59 50.98 123.35 51.78 121.54C52.38 120.19 53.21 118.86 54.19 117.68C54.98 116.73 55.94 115.81 56.95 115.04C57.42 114.68 57.9 114.37 58.39 114.07C56.05 114.61 53.87 114.64 51.88 114.2C48.32 113.39 45.48 110.87 44.66 107.78C44.13 105.79 44.44 103.73 44.78 102.17C45.57 98.43 47 95.39 49.02 93.15C51.89 89.98 55.79 88.68 59.72 89.57C63.36 90.4 66.42 92.75 68.68 94.69C69.74 95.6 70.91 96.7 71.45 98.13C71.9 99.33 71.88 100.57 71.71 101.8C72.05 101.2 72.45 100.64 72.9 100.13C73.66 99.26 74.45 98.73 75.09 98.31C76.01 97.69 77.93 96.59 80.41 96.13C83.83 95.51 87.23 96.11 89.96 97.83C91.04 98.51 94.34 100.59 95.18 104.65C95.83 107.8 94.61 110.38 94.21 111.23C93.2 113.36 91.83 114.53 89.76 116.3C87.76 118.01 86.76 118.87 85.25 119.2C83.66 119.55 82.05 118.82 79.16 117.5C81.58 119.48 84.51 122.06 84.55 122.1C85.15 122.8 85.81 123.66 86.08 124.68C86.49 126.2 86.02 128.01 84.77 129.65C82.92 132.1 79.32 133.77 75.96 133.77C75.89 133.77 75.81 133.77 75.74 133.77C73.07 133.71 70.86 132.61 69.51 130.66C69.12 130.09 68.85 129.49 68.67 128.9C68.5 129.88 68.18 130.97 67.57 131.99C66.26 134.2 64.17 135.24 63.04 135.67C61.96 136.09 60.8 136.29 59.65 136.29ZM61.39 112.4L61.7 113.03C61.24 113.3 60.76 113.56 60.29 113.82C59.26 114.38 58.29 114.91 57.38 115.61C56.4 116.36 55.49 117.23 54.73 118.15C53.79 119.27 53 120.55 52.43 121.83C51.67 123.55 50.73 125.68 51.16 128.34C51.49 130.35 52.45 132.16 53.87 133.43C56.24 135.55 59.75 136.17 62.81 135.01C63.86 134.61 65.79 133.65 66.99 131.63C68.18 129.61 68.18 127.31 68.18 126.2C68.18 125.59 68.18 125.22 68.58 125.22L68.59 125.22C68.98 125.22 68.99 125.61 69.01 126.09C69.04 126.96 69.09 128.78 70.12 130.25C71.33 132.01 73.34 133 75.78 133.06C78.95 133.12 82.46 131.55 84.23 129.22C85.34 127.76 85.77 126.17 85.42 124.86C85.18 123.98 84.59 123.2 84.03 122.56C83.54 121.99 76.67 116.24 75.99 115.95L76.12 115.65L75.77 115.43C75.77 115.43 75.77 115.43 75.77 115.42L75.86 115.28L75.93 115.27C76.12 115.19 76.39 115.34 76.92 115.62C77.32 115.83 77.87 116.12 78.5 116.41L79.38 116.81C82.19 118.1 83.74 118.81 85.11 118.5C86.44 118.2 87.4 117.39 89.31 115.75C91.31 114.04 92.63 112.91 93.58 110.92C93.96 110.12 95.1 107.71 94.49 104.79C93.71 101.03 90.61 99.07 89.59 98.42C87.01 96.79 83.8 96.22 80.54 96.82C78.18 97.25 76.37 98.3 75.49 98.89C74.86 99.31 74.14 99.8 73.44 100.6C71.97 102.27 71.06 104.55 71.07 106.53L70.36 106.54C70.34 105.47 70.54 104.37 70.74 103.31C71.06 101.57 71.37 99.93 70.79 98.38C70.31 97.1 69.26 96.12 68.22 95.23C66.02 93.34 63.05 91.06 59.56 90.26C55.88 89.41 52.23 90.64 49.54 93.62C47.6 95.76 46.23 98.69 45.46 102.31C45.15 103.8 44.85 105.74 45.34 107.59C46.09 110.43 48.72 112.75 52.03 113.5C54.79 114.14 57.93 113.76 61.39 112.4Z" /></g><g ><g ><g ><path class="shp5" d="M74.01 109.68C74.34 110.08 75.51 111.46 75.4 113.11C75.29 115.15 73.45 116.34 72.51 117C71.68 117.46 69.67 118.58 67.39 117.86C66.67 117.6 66 117.2 65.39 116.67C64.78 116.08 64 115.42 63.83 114.36C63.5 112.78 64.78 111.2 65.44 110.41C65.89 109.82 67 108.43 68.89 108.04C70.06 107.84 71 108.17 71.67 108.44C72.5 108.69 73.28 108.95 74.01 109.68Z" /></g></g></g><g ><path class="shp9" d="M173.83 122.28C173.73 123.05 173.19 127.61 176.42 131.52C176.97 132.18 179.75 135.42 184.43 135.76C185.37 135.83 189.43 136.12 192.32 133.17C192.78 132.7 194.67 130.78 194.67 127.99C194.68 124.99 192.5 122.92 191.02 121.51C188.43 119.05 185.33 117.91 182.66 116.92C180.73 116.21 179.09 115.79 179.13 115.63C179.18 115.39 182.6 116.38 187.25 116.22C190.28 116.12 191.79 116.07 193.14 115.16C196.37 112.99 196.96 107.61 195.73 103.74C194.56 100.08 191.86 98.08 190.79 97.38C187.26 95.09 183.7 95.38 182.55 95.5C181.56 95.6 179.19 95.86 176.78 97.5C175.7 98.24 174.7 98.85 174.07 100.09C173.5 101.22 173.66 101.97 173.22 104.09C172.81 106.02 172.39 107.19 172.34 107.18C172.23 107.15 174.04 103.01 172.78 98.7C172.47 97.62 172 96.04 170.57 94.99C168.78 93.67 166.58 94 164.04 94.37C162.32 94.62 160.15 94.94 157.86 96.49C156.83 97.18 154.26 98.91 153.27 102.23C152.11 106.1 153.9 109.42 154.59 110.71C155.25 111.94 157.08 115.33 160.33 116.01C161.14 116.18 162.72 116.51 164.3 116.01C164.42 115.97 165.45 115.64 166.86 115.44C167.45 115.35 167.88 115.29 167.92 115.4C168 115.63 165.94 116.33 163.42 117.87C162.03 118.72 161.34 119.14 160.68 119.81C158.54 121.99 158.27 124.91 158.21 125.73C158.16 126.33 157.93 130.02 160.42 132.97C161 133.65 161.82 134.6 163.25 135.09C165.45 135.84 167.42 134.91 167.93 134.65C168.54 134.34 169.67 133.62 171.2 130.94C172.12 129.33 173.32 126.75 173.94 123.21" /><path fill-rule="evenodd" class="shp9" d="M185.44 136.15C185.11 136.15 184.77 136.14 184.41 136.11C179.94 135.79 177.15 132.95 176.15 131.74C174.61 129.87 173.9 127.86 173.59 126.14C173.07 127.89 172.37 129.55 171.49 131.1C169.98 133.75 168.82 134.57 168.08 134.95C167.33 135.34 165.34 136.16 163.13 135.41C161.58 134.88 160.68 133.82 160.15 133.18C157.71 130.28 157.78 126.71 157.86 125.68C158.05 123.18 158.94 121.06 160.43 119.54C161.12 118.84 161.82 118.41 163.23 117.54C164.45 116.8 165.57 116.24 166.38 115.85C165.44 116.02 164.72 116.23 164.42 116.32C162.73 116.85 161.06 116.5 160.25 116.33C156.84 115.62 154.97 112.16 154.27 110.85C153.57 109.55 151.71 106.11 152.92 102.1C153.95 98.67 156.64 96.85 157.65 96.17C160.01 94.58 162.21 94.25 163.98 93.99C164.51 93.91 168.02 94.58 168.52 94.52C167.21 94.28 165.72 94.5 164.07 94.74C162.37 94.99 160.26 95.3 158.04 96.8C156.99 97.51 154.55 99.16 153.59 102.35C152.47 106.08 154.23 109.33 154.89 110.56C155.55 111.79 157.3 115.04 160.39 115.68C161.19 115.85 162.69 116.16 164.19 115.69C164.57 115.57 165.55 115.29 166.81 115.1C167.71 114.96 168.12 114.91 168.25 115.29C168.39 115.7 168.05 115.86 166.91 116.41C166.11 116.79 164.91 117.38 163.6 118.18C162.24 119.01 161.56 119.43 160.93 120.07C159.56 121.47 158.74 123.44 158.56 125.77C158.49 126.73 158.42 130.06 160.69 132.76C161.21 133.38 162 134.31 163.36 134.77C165.32 135.43 167.09 134.7 167.77 134.35C168.43 134.01 169.48 133.27 170.89 130.78C172.05 128.75 172.89 126.51 173.4 124.12C173.38 123.29 173.44 122.63 173.49 122.26L174.19 122.35C174.16 122.57 174.13 122.88 174.11 123.26L174.28 123.29C174.22 123.57 174.16 123.87 174.1 124.17C174.15 126.04 174.64 128.81 176.7 131.3C177.64 132.44 180.27 135.11 184.46 135.41C188.47 135.69 190.81 134.21 192.07 132.92C193.93 131.03 194.32 129.19 194.32 127.99C194.33 125.14 192.28 123.19 190.78 121.77C188.25 119.37 185.22 118.25 182.55 117.26C181.76 116.97 181.03 116.73 180.44 116.53C178.99 116.06 178.69 115.96 178.79 115.55C178.88 115.15 179.19 115.2 180.37 115.38C181.72 115.59 184.24 115.97 187.25 115.87C190.21 115.77 191.69 115.72 192.95 114.87C196.02 112.8 196.61 107.64 195.4 103.85C194.33 100.5 191.94 98.55 190.6 97.68C188.28 96.17 185.58 95.56 182.59 95.85C181.71 95.93 179.38 96.16 176.98 97.79L176.73 97.96C175.76 98.62 174.93 99.18 174.39 100.25C174.07 100.89 174 101.38 173.89 102.2C173.82 102.71 173.74 103.34 173.56 104.17C173.53 104.29 172.91 107.24 172.52 107.49L172.39 107.57L172.09 107.5L172.01 107.37C171.92 107.22 171.95 107.12 172.07 106.72C172.41 105.62 173.43 102.27 172.42 98.81C172.11 97.74 171.68 96.27 170.34 95.29C169.78 94.88 166.19 93.9 165.53 93.77C167.51 93.54 169.26 93.55 170.78 94.67C172.31 95.79 172.79 97.46 173.12 98.56C173.31 99.21 173.43 99.86 173.5 100.49C173.57 100.29 173.65 100.09 173.76 99.88C174.38 98.65 175.33 98.01 176.33 97.33L176.58 97.16C179.12 95.42 181.59 95.19 182.52 95.1C185.69 94.79 188.53 95.45 190.99 97.04C192.41 97.96 194.95 100.03 196.08 103.59C197.37 107.63 196.7 113.16 193.35 115.41C191.92 116.37 190.37 116.43 187.28 116.53C185.24 116.61 183.44 116.45 182.05 116.28C182.29 116.36 182.55 116.45 182.8 116.55C185.55 117.57 188.65 118.71 191.28 121.22C192.78 122.65 195.05 124.8 195.04 127.95C195.04 129.29 194.61 131.32 192.58 133.37C191.31 134.7 189.09 136.15 185.44 136.15Z" /></g><g ><path class="shp9" d="M178.21 181.43C178.22 181.4 178.23 181.36 178.24 181.33C179.05 182.7 179.14 184.46 180.17 185.67C181.06 186.71 182.51 187.14 183.88 187.05C185.25 186.96 186.54 186.41 187.75 185.76C190.06 184.52 192.37 182.45 192.26 179.83C192.19 178.22 191.21 176.82 190.64 175.31C190.54 175.04 190.45 174.73 190.57 174.47C190.82 173.92 191.62 174.07 192.23 174.1C194.12 174.2 195.48 172.22 195.87 170.37C196.67 166.61 195.02 162.44 191.86 160.25C191.49 160 191.1 159.76 190.86 159.38C190.18 158.28 191.22 156.96 191.81 155.8C193 153.43 192.03 150.31 189.89 148.75C187.75 147.19 184.71 147.14 182.34 148.31C181.47 148.74 180.44 149.32 179.61 148.81C179.31 148.63 179.11 148.33 178.9 148.05C176.41 144.79 171.38 143.95 167.81 145.98C164.24 148.01 162.39 152.52 163.19 156.54C163.5 158.11 164.21 159.65 165.41 160.7C166.62 161.75 168.38 162.24 169.88 161.69C167.69 162.46 165.46 163.3 163.72 164.83C160.85 167.35 159.73 171.67 161.02 175.26C161.61 176.91 162.8 178.44 164.37 179.26C165.11 179.65 166.07 179.97 166.92 179.84C167.86 179.7 168.57 178.88 169.51 178.77C169.49 179.33 168.57 179.98 168.36 180.66C168.11 181.48 168.17 182.4 168.49 183.19C169.08 184.6 170.37 185.61 171.75 186.28C172.65 186.72 173.63 187.04 174.63 187.01C175.63 186.98 176.65 186.56 177.23 185.74C178.09 184.53 177.76 182.85 178.21 181.43Z" /><path fill-rule="evenodd" class="shp9" d="M183.52 187.42C182.06 187.42 180.73 186.87 179.9 185.9C179.26 185.16 178.96 184.23 178.67 183.34C178.57 183.02 178.47 182.71 178.35 182.42C178.31 182.68 178.29 182.94 178.26 183.21C178.17 184.16 178.08 185.14 177.5 185.96C176.9 186.81 175.82 187.34 174.62 187.38C173.74 187.41 172.7 187.16 171.58 186.61C170.4 186.04 168.84 185 168.15 183.34C167.79 182.47 167.73 181.46 168.01 180.58C168.13 180.2 168.4 179.86 168.67 179.53C168.7 179.49 168.73 179.45 168.76 179.41C168.62 179.48 168.49 179.56 168.35 179.64C167.92 179.89 167.48 180.14 166.95 180.22C165.87 180.38 164.76 179.9 164.19 179.6C162.61 178.77 161.33 177.25 160.67 175.41C159.33 171.67 160.48 167.22 163.47 164.6C164.67 163.55 166.07 162.82 167.57 162.21C166.71 162.03 165.87 161.62 165.16 161.01C163.69 159.73 163.08 157.93 162.82 156.65C161.97 152.38 163.98 147.78 167.61 145.71C171.42 143.54 176.59 144.52 179.15 147.87L179.23 147.97C179.4 148.2 179.56 148.41 179.77 148.54C180.37 148.91 181.22 148.48 181.98 148.11L182.15 148.02C184.74 146.74 187.92 146.92 190.07 148.48C192.41 150.18 193.32 153.54 192.1 155.98C191.99 156.21 191.86 156.44 191.72 156.67C191.19 157.61 190.69 158.49 191.14 159.21C191.31 159.48 191.6 159.68 191.91 159.89L192.04 159.98C195.32 162.25 197.03 166.56 196.2 170.46C195.76 172.53 194.24 174.59 192.19 174.47L191.92 174.45C191.37 174.41 190.97 174.4 190.87 174.63C190.81 174.77 190.87 175 190.95 175.2C191.12 175.66 191.34 176.12 191.55 176.57C192.03 177.59 192.54 178.65 192.59 179.83C192.73 183.12 189.35 185.3 187.89 186.09C186.84 186.65 185.43 187.32 183.88 187.42C183.77 187.42 183.64 187.42 183.52 187.42ZM178.14 180.5L178.54 181.15C178.9 181.77 179.13 182.46 179.34 183.12C179.62 183.98 179.89 184.8 180.43 185.44C181.18 186.32 182.45 186.78 183.85 186.7C185.27 186.61 186.58 185.99 187.57 185.45C188.91 184.73 192.02 182.74 191.89 179.84C191.85 178.81 191.4 177.86 190.92 176.86C190.7 176.4 190.48 175.92 190.29 175.44C190.16 175.1 190.06 174.71 190.23 174.33C190.55 173.63 191.38 173.69 191.98 173.74L192.23 173.76C193.88 173.88 195.13 172.09 195.51 170.31C196.29 166.68 194.7 162.67 191.64 160.56L191.51 160.47C191.17 160.24 190.79 159.98 190.54 159.58C189.88 158.51 190.53 157.35 191.11 156.33C191.24 156.11 191.36 155.88 191.47 155.67C192.54 153.53 191.73 150.57 189.65 149.06C187.71 147.65 184.82 147.49 182.46 148.66L182.29 148.75C181.42 149.19 180.33 149.73 179.39 149.15C179.07 148.95 178.85 148.66 178.66 148.4L178.58 148.3C176.22 145.21 171.45 144.33 167.95 146.32C164.58 148.24 162.71 152.52 163.5 156.51C163.73 157.68 164.29 159.32 165.61 160.47C166.78 161.49 168.35 161.86 169.64 161.42C169.67 161.41 169.7 161.4 169.73 161.39L169.97 162.05C169.94 162.06 169.9 162.07 169.87 162.09C167.67 162.86 165.56 163.69 163.92 165.13C161.14 167.57 160.07 171.7 161.32 175.18C161.91 176.83 163.1 178.25 164.5 178.98C165.34 179.42 166.18 179.61 166.83 179.53C167.23 179.47 167.59 179.26 167.98 179.04C168.42 178.79 168.88 178.53 169.43 178.46L169.84 178.41L169.82 178.83C169.8 179.24 169.51 179.61 169.19 179.99C168.97 180.27 168.73 180.55 168.66 180.8C168.44 181.53 168.48 182.36 168.78 183.09C169.39 184.55 170.79 185.48 171.87 186C172.88 186.49 173.73 186.73 174.58 186.7C175.56 186.67 176.42 186.25 176.9 185.58C177.37 184.92 177.45 184.07 177.53 183.17C177.59 182.57 177.65 181.95 177.83 181.35L177.86 181.26L178.14 180.5Z" /></g><g ><path class="shp0" d="M180.35 169.27C182.98 169.02 184.61 166.35 184.01 164.29C183.62 162.94 182.1 161.24 179.89 161.2C177.29 161.15 175.86 163.45 175.77 163.61C175.61 163.88 174.73 165.43 175.77 167.05C176.57 168.28 178.42 169.46 180.35 169.27Z" /></g><g ><path class="shp7" d="M163.77 148.19C163.77 148.17 163.78 148.16 163.78 148.14C164.16 148.79 164.2 149.61 164.69 150.19C165.11 150.68 165.79 150.88 166.44 150.84C167.08 150.8 167.69 150.54 168.26 150.23C169.35 149.64 170.44 148.67 170.39 147.43C170.36 146.67 169.89 146.01 169.63 145.3C169.58 145.17 169.54 145.03 169.6 144.9C169.72 144.64 170.1 144.71 170.38 144.73C171.27 144.78 171.91 143.84 172.1 142.97C172.48 141.2 171.7 139.23 170.21 138.2C170.04 138.08 169.85 137.97 169.74 137.79C169.42 137.27 169.91 136.65 170.19 136.1C170.75 134.98 170.29 133.51 169.28 132.78C168.27 132.05 166.84 132.02 165.72 132.57C165.31 132.77 164.82 133.05 164.43 132.81C164.29 132.72 164.2 132.58 164.1 132.45C162.93 130.91 160.56 130.52 158.87 131.48C157.18 132.44 156.32 134.56 156.69 136.46C156.84 137.2 157.17 137.93 157.74 138.42C158.31 138.92 159.14 139.15 159.85 138.89C158.82 139.25 157.77 139.65 156.95 140.37C155.6 141.56 155.07 143.59 155.68 145.29C155.96 146.07 156.52 146.79 157.26 147.17C157.61 147.35 158.06 147.5 158.46 147.45C158.9 147.39 159.24 147 159.68 146.95C159.67 147.22 159.24 147.52 159.14 147.84C159.02 148.22 159.05 148.66 159.2 149.03C159.48 149.7 160.09 150.17 160.73 150.49C161.15 150.7 161.61 150.85 162.09 150.84C162.56 150.83 163.04 150.63 163.31 150.24C163.72 149.65 163.57 148.86 163.77 148.19Z" /><path fill-rule="evenodd" class="shp7" d="M166.28 151.01C165.59 151.01 164.96 150.75 164.58 150.29C164.28 149.94 164.14 149.5 164 149.08C163.95 148.93 163.9 148.78 163.85 148.64C163.83 148.76 163.82 148.89 163.81 149.01C163.77 149.46 163.72 149.92 163.45 150.31C163.17 150.71 162.66 150.96 162.1 150.98C161.68 150.99 161.19 150.87 160.67 150.62C160.11 150.35 159.38 149.86 159.05 149.08C158.88 148.67 158.85 148.19 158.98 147.78C159.04 147.6 159.17 147.44 159.29 147.28C159.3 147.26 159.32 147.24 159.33 147.23C159.27 147.26 159.2 147.3 159.14 147.34C158.94 147.46 158.73 147.58 158.48 147.61C157.97 147.69 157.45 147.46 157.18 147.32C156.44 146.93 155.83 146.21 155.52 145.35C154.89 143.59 155.43 141.49 156.84 140.25C157.4 139.76 158.06 139.41 158.77 139.12C158.36 139.04 157.97 138.84 157.64 138.55C156.95 137.95 156.66 137.1 156.54 136.5C156.14 134.49 157.09 132.32 158.8 131.35C160.59 130.33 163.03 130.79 164.24 132.37L164.28 132.42C164.36 132.53 164.44 132.63 164.53 132.69C164.81 132.87 165.22 132.66 165.57 132.49L165.65 132.45C166.87 131.85 168.37 131.93 169.38 132.67C170.48 133.47 170.91 135.06 170.34 136.2C170.29 136.31 170.22 136.42 170.16 136.53C169.91 136.97 169.68 137.39 169.89 137.73C169.97 137.86 170.11 137.95 170.25 138.05L170.31 138.09C171.86 139.16 172.66 141.19 172.27 143.03C172.06 144.01 171.35 144.97 170.38 144.92L170.25 144.91C169.99 144.89 169.8 144.88 169.75 145C169.72 145.07 169.75 145.17 169.79 145.27C169.87 145.49 169.97 145.7 170.07 145.92C170.3 146.4 170.53 146.9 170.56 147.45C170.63 149 169.03 150.03 168.35 150.4C167.86 150.67 167.19 150.98 166.46 151.03C166.4 151.01 166.34 151.01 166.28 151.01ZM163.75 147.75L163.94 148.06C164.11 148.35 164.22 148.68 164.32 148.99C164.45 149.4 164.58 149.78 164.83 150.08C165.18 150.49 165.78 150.71 166.44 150.67C167.11 150.63 167.73 150.33 168.19 150.08C168.82 149.74 170.29 148.8 170.23 147.44C170.21 146.95 170 146.51 169.77 146.03C169.67 145.81 169.56 145.59 169.47 145.36C169.41 145.2 169.36 145.02 169.44 144.84C169.59 144.51 169.98 144.54 170.26 144.56L170.38 144.57C171.16 144.63 171.75 143.78 171.93 142.94C172.3 141.23 171.55 139.34 170.11 138.34L170.05 138.3C169.89 138.19 169.71 138.07 169.59 137.88C169.28 137.38 169.59 136.83 169.86 136.35C169.92 136.24 169.98 136.14 170.03 136.04C170.54 135.03 170.15 133.63 169.17 132.92C168.26 132.25 166.89 132.18 165.78 132.73L165.7 132.77C165.29 132.98 164.78 133.23 164.33 132.96C164.18 132.87 164.08 132.73 163.99 132.61L163.95 132.56C162.84 131.1 160.59 130.69 158.94 131.63C157.35 132.54 156.47 134.55 156.85 136.43C156.96 136.98 157.22 137.76 157.84 138.3C158.39 138.78 159.13 138.95 159.74 138.75C159.75 138.74 159.77 138.74 159.78 138.73L159.89 139.04C159.87 139.05 159.86 139.05 159.84 139.06C158.8 139.42 157.81 139.81 157.04 140.49C155.73 141.64 155.23 143.59 155.81 145.23C156.09 146.01 156.65 146.68 157.31 147.02C157.71 147.23 158.1 147.32 158.41 147.28C158.6 147.25 158.77 147.15 158.95 147.05C159.16 146.93 159.37 146.81 159.63 146.78L159.83 146.76L159.82 146.96C159.81 147.16 159.67 147.33 159.52 147.51C159.41 147.64 159.31 147.77 159.27 147.89C159.16 148.23 159.18 148.63 159.33 148.97C159.62 149.66 160.28 150.09 160.78 150.34C161.26 150.57 161.66 150.69 162.06 150.67C162.52 150.66 162.93 150.46 163.15 150.14C163.37 149.83 163.41 149.43 163.45 149.01C163.48 148.73 163.5 148.43 163.59 148.15L163.6 148.11L163.75 147.75Z" /></g><g ><path class="shp10" d="M114.5 54.14C113.83 53.51 112.29 52.04 111.72 50.56C110.91 48.45 112.08 46.27 112.15 46.14C113.69 43.36 117.04 43.17 117.43 43.16C119.4 43.08 121.54 43.9 122.71 45.46C123.8 46.91 123.75 48.59 124.2 48.58C124.61 48.56 124.42 46.93 125.55 45.46C126.42 44.34 127.61 43.92 128.03 43.78C128.59 43.59 131.02 42.87 132.87 44.38C133.23 44.67 134.07 45.46 134.31 46.69C134.67 48.5 133.48 50.1 133.69 50.21C133.9 50.32 134.65 48.31 136.47 47.7C136.76 47.6 137.91 47.22 138.91 47.84C139.86 48.42 140.06 49.53 140.13 49.94C140.38 51.33 139.37 52.27 139.66 52.51C139.94 52.75 140.78 51.82 142.43 51.18C143.39 50.81 144.54 50.36 145.8 50.77C145.89 50.8 147.43 51.33 147.99 52.78C148.17 53.24 148.19 53.65 148.19 53.78C148.21 54.26 148.1 54.69 147.68 55.67C147.05 57.14 146.74 57.41 146.9 57.66C147.08 57.95 147.59 57.73 148.95 57.75C150.17 57.77 150.79 57.77 151.48 58.02C152.45 58.37 153.06 58.97 153.47 59.37C154.01 59.91 154.56 60.45 154.82 61.36C155.09 62.28 154.91 63.05 154.73 63.8C154.56 64.49 154.33 65.48 153.65 65.88C153.56 65.93 153.16 66.15 152.59 66.27C152.44 66.3 152.33 66.32 152.2 66.33C151.87 66.37 151.27 66.44 150.57 66.32C150.28 66.27 150.13 66.22 150.13 66.24C150.1 66.33 153.49 66.82 154.28 68.77C154.63 69.64 154.35 70.53 154.28 70.76C153.94 71.83 153.13 72.39 152.47 72.84C152 73.16 150.99 73.85 149.67 73.83C148.43 73.81 147.56 73.18 147.5 73.29C147.45 73.4 148.34 73.87 149.49 74.83C150.06 75.31 150.42 75.6 150.75 76C151.47 76.86 152.48 78.69 151.83 80.15C151.55 80.79 150.98 81.15 149.84 81.87C148.41 82.77 147.73 83.28 147.04 83.22C145.98 83.13 145.78 82.24 143.89 81.22C142.96 80.72 142.25 80.43 142.21 80.51C142.14 80.62 143.53 81.31 144.59 82.86C145.01 83.48 145.35 83.99 145.27 84.62C145.18 85.35 144.58 85.8 143.71 86.45C142.67 87.23 141.93 87.78 140.87 87.8C140.2 87.81 139.56 87.49 138.3 86.85C136.47 85.92 136.05 85.23 135.93 85.02C135.58 84.4 135.5 83.74 135.52 83.73C135.56 83.72 136.53 85.86 136.4 88.34C136.36 89.18 136.32 89.71 135.93 90.17C135.34 90.86 134.31 90.86 132.27 90.85C131.36 90.84 130.46 90.8 129.59 90.5C128.79 90.22 128.26 89.47 128.04 88.66C127.84 87.93 127.89 87.15 128.06 86.41C128.12 86.14 128.2 85.86 128.21 85.58C128.22 85.3 128.16 85 127.96 84.8C127.64 86.45 127.32 88.24 126.03 89.43C125.76 89.68 125.26 90.15 124.53 90.22C124.12 90.26 123.71 90.14 123.32 90.01C122.62 89.79 121.94 89.53 121.27 89.23C120.55 88.92 119.8 88.52 119.42 87.83C119.06 87.18 119.1 86.37 119.35 85.67C119.44 85.42 121.33 82.29 121.49 82.44C121.48 82.43 120.51 83.78 118.92 84.88C117.82 85.64 116.83 86 116.01 86.3C114.83 86.73 114.24 86.95 113.57 86.84C112.55 86.68 111.83 86.01 111.2 85.42C110.55 84.81 110.22 84.5 110.05 84C109.48 82.31 111.27 80.38 111.61 80C112.08 79.49 112.28 79.42 114.05 78.1C115.55 76.98 116.41 76.44 116.35 76.34C116.27 76.19 114.5 77.46 112.02 77.69C110.09 77.87 109.38 77.61 109.18 77.49C107.96 76.79 107.67 75.39 107.6 75.07C107.5 74.59 107.28 73.12 108.14 72.09C109.01 71.05 110.52 71 110.49 70.83C110.46 70.68 109.42 71.01 108.32 70.56C107.38 70.18 106.87 69.42 106.69 69.12C105.85 67.71 106.33 66.24 106.42 65.96C106.67 65.18 107.1 64.68 107.32 64.42C108.05 63.58 108.87 63.23 109.04 63.16C110.57 62.52 112.1 62.99 112.11 62.89C112.13 62.78 110.33 62.77 108.86 61.63C108.07 61.01 107.79 60.16 107.51 59.46C107.07 58.35 106.68 57.4 107.04 56.43C107.54 55.07 109.2 54.46 110.25 54.34C111.17 54.23 112.02 54.46 113.51 54.85C114.71 55.17 115.44 55.49 115.54 55.31C115.63 55.14 115.06 54.68 114.5 54.14Z" /><path fill-rule="evenodd" class="shp10" d="M132.98 91.39C132.75 91.39 132.51 91.39 132.25 91.39C131.33 91.38 130.36 91.35 129.39 91.01C128.49 90.69 127.78 89.86 127.5 88.8C127.47 88.69 127.44 88.58 127.43 88.47C127.16 88.97 126.83 89.43 126.39 89.83C126.08 90.12 125.47 90.68 124.57 90.76C124.04 90.81 123.58 90.67 123.15 90.53C122.45 90.3 121.74 90.03 121.05 89.73C120.22 89.37 119.4 88.92 118.94 88.1C118.56 87.41 118.5 86.51 118.79 85.62C117.81 86.23 116.92 86.55 116.2 86.82C114.96 87.27 114.3 87.51 113.48 87.39C112.29 87.21 111.48 86.44 110.82 85.83C110.14 85.2 109.74 84.82 109.52 84.19C109.09 82.91 109.68 81.3 111.19 79.66C111.55 79.27 111.78 79.1 112.45 78.61C112.65 78.47 112.88 78.3 113.17 78.08C112.81 78.16 112.43 78.22 112.04 78.26C110.12 78.44 109.26 78.21 108.87 77.99C107.95 77.46 107.3 76.48 107.03 75.22C106.89 74.58 106.69 72.97 107.69 71.78C107.89 71.54 108.12 71.35 108.35 71.19C108.26 71.16 108.17 71.13 108.08 71.09C107.05 70.67 106.45 69.86 106.19 69.42C105.35 68.01 105.63 66.56 105.87 65.82C106.16 64.92 106.66 64.34 106.88 64.1C107.64 63.23 108.47 62.83 108.8 62.69C108.93 62.63 109.06 62.59 109.2 62.55C108.96 62.42 108.73 62.26 108.5 62.09C107.66 61.44 107.32 60.57 107.05 59.88L106.98 59.7C106.51 58.54 106.08 57.45 106.51 56.28C107.12 54.62 109.1 53.96 110.17 53.84C111.19 53.71 112.1 53.96 113.61 54.36C113.74 54.4 113.87 54.43 113.99 54.46C113.25 53.76 111.78 52.31 111.2 50.79C110.32 48.47 111.52 46.17 111.66 45.92C113.29 42.96 116.72 42.68 117.4 42.66C119.67 42.55 121.92 43.56 123.14 45.18C123.67 45.88 123.95 46.63 124.14 47.22C124.3 46.62 124.57 45.88 125.12 45.17C125.78 44.32 126.7 43.69 127.85 43.31C128.6 43.05 131.19 42.36 133.2 44C133.7 44.4 134.57 45.28 134.83 46.62C134.93 47.12 134.93 47.6 134.87 48.04C135.26 47.71 135.72 47.41 136.28 47.23C137.67 46.77 138.62 47.08 139.17 47.42C140.33 48.13 140.56 49.45 140.64 49.89C140.76 50.56 140.63 51.15 140.47 51.6C140.91 51.33 141.48 51 142.21 50.72C143.23 50.32 144.5 49.83 145.94 50.3C146.01 50.32 147.8 50.91 148.47 52.63C148.66 53.13 148.7 53.58 148.71 53.8C148.73 54.39 148.59 54.91 148.16 55.92C147.92 56.48 147.73 56.87 147.59 57.15C147.56 57.2 147.54 57.25 147.52 57.3C147.58 57.3 147.64 57.29 147.7 57.29C148.01 57.27 148.42 57.26 148.96 57.25C150.2 57.26 150.88 57.27 151.66 57.55C152.75 57.94 153.44 58.62 153.85 59.03C154.41 59.58 155.04 60.21 155.34 61.25C155.65 62.32 155.44 63.2 155.26 63.97C155.08 64.73 154.81 65.88 153.92 66.39C153.75 66.49 153.43 66.65 153 66.77C153.75 67.19 154.45 67.78 154.78 68.61C154.98 69.09 155.14 69.89 154.79 70.97C154.39 72.22 153.46 72.86 152.78 73.33C152.31 73.65 151.23 74.39 149.8 74.42C149.81 74.43 149.83 74.44 149.84 74.46C150.42 74.94 150.81 75.26 151.17 75.7C151.96 76.65 153.09 78.71 152.33 80.42C151.98 81.21 151.33 81.62 150.15 82.37L149.62 82.71C148.44 83.46 147.81 83.88 147.01 83.81C146.26 83.75 145.84 83.38 145.34 82.95C145.28 82.9 145.23 82.85 145.17 82.81C145.55 83.38 145.9 83.98 145.8 84.74C145.68 85.7 144.95 86.24 144.03 86.93C142.95 87.74 142.1 88.37 140.87 88.39C140.09 88.4 139.34 88.04 138.04 87.38C137.6 87.16 137.21 86.93 136.87 86.71C136.94 87.26 136.96 87.84 136.93 88.42C136.88 89.29 136.85 89.97 136.32 90.57C135.66 91.3 134.62 91.39 132.98 91.39ZM127.61 83.75L128.36 84.43C128.63 84.72 128.77 85.13 128.75 85.6C128.74 85.87 128.68 86.12 128.62 86.38L128.58 86.53C128.41 87.28 128.4 87.94 128.56 88.51C128.75 89.23 129.21 89.78 129.77 89.98C130.58 90.26 131.45 90.29 132.28 90.3C134.2 90.33 135.11 90.3 135.52 89.81C135.79 89.5 135.82 89.1 135.86 88.31C135.92 87.24 135.75 86.22 135.55 85.45C135.51 85.4 135.48 85.34 135.45 85.29C135.18 84.81 134.87 83.88 135.01 83.54L135.28 82.88L135.85 83.32C136.01 83.44 136.31 84.08 136.55 84.99C136.9 85.42 137.59 85.9 138.54 86.38C139.7 86.97 140.3 87.27 140.83 87.27C140.84 87.27 140.85 87.27 140.86 87.27C141.74 87.25 142.4 86.76 143.39 86.03C144.26 85.38 144.67 85.05 144.74 84.57C144.79 84.15 144.55 83.77 144.15 83.18C143.48 82.19 142.66 81.58 142.22 81.25C141.91 81.02 141.49 80.7 141.76 80.25C142.04 79.77 142.49 79.86 144.16 80.76C145.09 81.26 145.65 81.74 146.06 82.1C146.53 82.5 146.73 82.67 147.11 82.7C147.47 82.75 148.06 82.39 149.05 81.76L149.57 81.43C150.65 80.75 151.13 80.44 151.35 79.95C151.9 78.72 150.93 77.07 150.34 76.36C150.04 76 149.7 75.72 149.15 75.26C148.58 74.79 148.08 74.44 147.73 74.19C147.18 73.81 146.79 73.53 147.03 73.06C147.28 72.57 147.79 72.79 148.04 72.9C148.39 73.05 148.97 73.3 149.68 73.31C149.7 73.31 149.71 73.31 149.73 73.31C150.86 73.31 151.74 72.7 152.17 72.41C152.79 71.99 153.48 71.51 153.77 70.62C154.02 69.86 153.91 69.32 153.78 69C153.24 67.67 151.02 67.08 150.3 66.89C149.95 66.8 149.77 66.75 149.65 66.52L149.54 66.31L149.77 65.62L150.37 65.75C150.44 65.76 150.53 65.79 150.66 65.81C151.31 65.92 151.85 65.85 152.14 65.82C152.28 65.8 152.36 65.79 152.48 65.77C152.93 65.67 153.26 65.51 153.38 65.44C153.85 65.16 154.06 64.29 154.2 63.71C154.37 63.01 154.53 62.34 154.3 61.55C154.08 60.78 153.59 60.3 153.09 59.8C152.7 59.41 152.16 58.88 151.3 58.57C150.69 58.35 150.14 58.35 148.95 58.33C148.46 58.33 148.07 58.35 147.78 58.37C147.22 58.41 146.73 58.44 146.44 57.99C146.18 57.58 146.36 57.22 146.63 56.67C146.76 56.4 146.95 56.03 147.18 55.5C147.59 54.55 147.66 54.21 147.65 53.84C147.65 53.69 147.62 53.37 147.48 53.02C147 51.79 145.64 51.34 145.63 51.33C144.56 50.97 143.53 51.37 142.63 51.73C141.86 52.03 141.27 52.4 140.84 52.67C140.26 53.03 139.74 53.34 139.31 52.97C138.89 52.61 139.12 52.09 139.29 51.72C139.48 51.29 139.72 50.75 139.61 50.08C139.55 49.73 139.39 48.81 138.64 48.35C138.12 48.03 137.45 48 136.66 48.27C135.58 48.63 134.92 49.59 134.53 50.16C134.27 50.54 133.95 51 133.45 50.74C132.96 50.47 133.17 49.95 133.35 49.53C133.6 48.93 134.02 47.92 133.81 46.85C133.6 45.81 132.87 45.11 132.56 44.86C130.99 43.57 128.86 44.15 128.24 44.35C127.88 44.47 126.81 44.83 126.01 45.85C125.42 46.61 125.23 47.42 125.1 48.02C124.97 48.57 124.84 49.15 124.25 49.17C124.24 49.17 124.22 49.17 124.21 49.17C123.62 49.17 123.44 48.57 123.25 47.94C123.08 47.36 122.84 46.55 122.3 45.84C121.29 44.5 119.38 43.63 117.47 43.75C117.12 43.76 114.02 43.95 112.64 46.45C112.6 46.53 111.52 48.52 112.24 50.42C112.76 51.79 114.25 53.2 114.89 53.8L115.22 54.11C115.86 54.7 116.32 55.12 116.02 55.63C115.74 56.11 115.22 55.96 114.38 55.71C114.1 55.63 113.77 55.52 113.39 55.42C111.93 55.04 111.14 54.83 110.33 54.92C109.56 55.01 107.99 55.49 107.56 56.66C107.27 57.44 107.6 58.26 108.02 59.3L108.09 59.49C108.34 60.12 108.6 60.77 109.2 61.25C110.18 62.02 111.34 62.22 111.89 62.32C112.18 62.37 112.73 62.47 112.65 63.01C112.57 63.56 112.01 63.49 111.75 63.47C111.26 63.41 110.25 63.29 109.25 63.71C109.05 63.79 108.36 64.11 107.73 64.83C107.54 65.04 107.16 65.49 106.94 66.18C106.76 66.75 106.54 67.85 107.16 68.9C107.35 69.22 107.79 69.81 108.53 70.12C109.13 70.37 109.72 70.34 110.09 70.31C110.4 70.29 110.92 70.27 111.02 70.78C111.12 71.33 110.58 71.49 110.25 71.59C109.79 71.72 109.04 71.94 108.56 72.51C107.85 73.35 108.05 74.65 108.13 75.03C108.33 75.98 108.8 76.71 109.45 77.09C109.51 77.12 110.05 77.39 111.98 77.22C113.61 77.07 114.91 76.45 115.61 76.11C116.08 75.89 116.57 75.65 116.84 76.14C117.12 76.63 116.82 76.85 115.7 77.65C115.35 77.9 114.91 78.22 114.39 78.61C113.84 79.02 113.43 79.32 113.13 79.54C112.48 80.01 112.31 80.13 112.03 80.44C110.82 81.76 110.29 83.02 110.59 83.9C110.71 84.26 110.94 84.49 111.6 85.1C112.2 85.67 112.83 86.25 113.68 86.38C114.19 86.47 114.69 86.29 115.85 85.87C116.68 85.57 117.6 85.23 118.64 84.51C119.12 84.18 119.79 83.65 120.48 82.9C120.72 82.57 120.95 82.28 121.14 82.12L121.26 82.03C121.3 82.01 121.34 81.99 121.37 81.98L121.65 81.91L122.81 82.99L121.78 83.04C121.63 83.22 121.49 83.39 121.34 83.54C120.8 84.35 119.98 85.68 119.87 85.93C119.65 86.55 119.66 87.17 119.91 87.62C120.21 88.16 120.85 88.5 121.5 88.78C122.15 89.06 122.82 89.32 123.5 89.54C123.83 89.65 124.19 89.74 124.49 89.72C125.02 89.67 125.4 89.32 125.65 89.09C126.8 88.03 127.11 86.41 127.41 84.85L127.61 83.75Z" /></g><g ><path class="shp11" d="M94.37 89.73C90.65 90.05 88.8 90.21 87.54 89.14C86.72 88.44 86.55 86.27 86.25 81.96C85.8 75.53 86.68 77.89 86.49 72.66C86.48 72.45 86.43 71 86.84 70.89C87.28 70.77 87.59 72.33 88.96 73.01C90.39 73.72 92.1 73.01 92.37 72.89C93.95 72.2 94.22 71.01 94.84 71.12C95.69 71.27 95.54 73.56 96.25 76.65C97.27 81.11 98.9 82.1 98.72 85.6C98.63 87.3 98.19 88.13 97.66 88.66C97.06 89.27 96.26 89.57 94.37 89.73Z" /><path fill-rule="evenodd" class="shp2" d="M90.59 90.33C89.12 90.33 88.12 90.11 87.31 89.42C86.4 88.64 86.22 86.7 85.89 81.99C85.64 78.44 85.79 77.54 85.95 76.58C86.08 75.82 86.21 75.03 86.12 72.68C86.04 70.74 86.55 70.61 86.74 70.56C87.19 70.45 87.44 70.85 87.71 71.28C88.01 71.74 88.41 72.36 89.1 72.71C90.36 73.34 91.91 72.72 92.22 72.58C93 72.24 93.42 71.78 93.76 71.41C94.1 71.05 94.41 70.7 94.89 70.79C95.68 70.93 95.83 71.95 96.07 73.63C96.19 74.45 96.33 75.48 96.59 76.59C97.01 78.43 97.54 79.67 98 80.76C98.66 82.31 99.18 83.53 99.07 85.63C98.99 87.17 98.62 88.21 97.91 88.92C97.22 89.61 96.3 89.92 94.39 90.08C92.84 90.22 91.6 90.33 90.59 90.33ZM86.9 71.33C86.86 71.52 86.8 71.98 86.83 72.65C86.92 75.07 86.78 75.89 86.65 76.69C86.5 77.61 86.35 78.48 86.6 81.94C86.88 85.88 87.05 88.26 87.77 88.88C88.91 89.85 90.73 89.7 94.34 89.38C96.28 89.21 96.94 88.9 97.42 88.42C97.82 88.02 98.29 87.34 98.38 85.59C98.48 83.65 98.01 82.55 97.37 81.03C96.9 79.91 96.36 78.65 95.92 76.74C95.66 75.6 95.51 74.56 95.39 73.72C95.24 72.64 95.08 71.53 94.79 71.47C94.71 71.44 94.51 71.65 94.3 71.87C93.93 72.27 93.43 72.81 92.52 73.21C92.03 73.42 90.31 74.06 88.81 73.32C87.94 72.89 87.46 72.14 87.14 71.65C87.06 71.55 86.97 71.42 86.9 71.33Z" /></g><g ><path class="shp11" d="M165.45 70.62C164.47 71.11 159.63 73.55 156.78 76.46C154.24 79.06 152.35 82.98 153.01 86.26C153.15 86.96 153.48 88.59 154.89 89.84C155.12 90.04 155.94 90.77 156.96 90.97C158.81 91.34 160.06 89.76 163.74 86.83C168.12 83.33 169.08 83.39 171.28 80.8C172.22 79.69 171.85 79.9 173.92 77.22C175.7 74.9 176.36 74.25 176.37 73.08C176.38 71.72 175.51 70.64 175.05 70.07C173.82 68.55 172.94 68.86 171.85 67.43C170.69 65.91 170.8 64.41 170.34 64.42C169.82 64.43 169.91 66.39 168.64 68.19C167.68 69.55 166.41 70.13 165.45 70.62Z" /><path fill-rule="evenodd" class="shp2" d="M157.5 91.58C157.29 91.58 157.08 91.56 156.86 91.51C156.09 91.36 155.31 90.93 154.53 90.26C152.96 88.88 152.6 87.05 152.46 86.36C151.68 82.51 154.08 78.4 156.38 76.06C158.26 74.14 161.39 72.03 165.2 70.11L165.45 70.61L165.2 70.1L165.36 70.02C166.25 69.57 167.36 69.02 168.19 67.83C168.83 66.92 169.1 65.95 169.29 65.24C169.5 64.48 169.68 63.83 170.34 63.82L170.35 63.82C170.97 63.82 171.15 64.41 171.32 64.98C171.49 65.54 171.72 66.3 172.3 67.05C172.77 67.67 173.19 67.91 173.68 68.18C174.21 68.48 174.81 68.83 175.5 69.67C176.01 70.31 176.96 71.48 176.94 73.04C176.93 74.24 176.38 74.95 175.05 76.65L174.37 77.52C173.27 78.94 172.88 79.53 172.59 79.96C172.33 80.34 172.17 80.58 171.71 81.12C170.35 82.73 169.4 83.38 167.97 84.37C167.02 85.03 165.83 85.85 164.1 87.23C163.3 87.86 162.62 88.44 162.02 88.94C160.09 90.59 158.9 91.58 157.5 91.58ZM170.35 65.67C170.14 66.41 169.83 67.48 169.12 68.49C168.12 69.91 166.82 70.56 165.87 71.04L165.71 71.12C162.01 72.98 158.99 75.02 157.19 76.85C154.92 79.17 152.93 82.94 153.57 86.14C153.7 86.78 154 88.28 155.27 89.41C155.9 89.96 156.51 90.3 157.08 90.41C158.27 90.64 159.21 89.85 161.3 88.1C161.9 87.59 162.59 87.02 163.4 86.38C165.16 84.97 166.37 84.14 167.34 83.47C168.74 82.5 169.59 81.92 170.86 80.42C171.28 79.93 171.43 79.71 171.66 79.36C171.96 78.92 172.36 78.32 173.48 76.86L174.16 75.98C175.46 74.31 175.8 73.84 175.81 73.05C175.82 71.89 175.04 70.92 174.62 70.4C174.07 69.71 173.6 69.45 173.11 69.17C172.57 68.86 172.01 68.55 171.4 67.75C170.83 67 170.53 66.25 170.35 65.67Z" /></g><g ><path class="shp12" d="M125.9 124.93C124.41 121.47 122.76 117.65 118.65 115.42C115.67 113.8 110.64 112.61 109.08 114.66C107.5 116.74 110.25 121.14 110.93 122.23C113.74 126.73 118.02 128.39 120.54 129.37C122.6 130.17 125.73 131.38 126.82 130.17C127.7 129.17 126.82 127.06 125.9 124.93Z" /><path fill-rule="evenodd" class="shp2" d="M125.33 131.03C123.86 131.03 121.94 130.29 120.41 129.69C117.83 128.69 113.5 127.01 110.63 122.41C108.27 118.63 107.65 115.95 108.8 114.44C110.55 112.14 115.82 113.48 118.82 115.1C123.04 117.39 124.74 121.32 126.23 124.78C127.17 126.96 128.14 129.21 127.08 130.38C126.66 130.85 126.04 131.03 125.33 131.03ZM112.01 113.92C110.84 113.92 109.87 114.19 109.35 114.87C108.81 115.57 108.34 117.44 111.22 122.04C113.97 126.44 118.15 128.06 120.66 129.03C122.52 129.75 125.62 130.95 126.55 129.92C127.3 129.08 126.34 126.86 125.57 125.07C124.12 121.71 122.48 117.9 118.47 115.73C116.68 114.75 114.05 113.92 112.01 113.92Z" /></g><g ><path class="shp12" d="M124.63 105.77C123.38 102.58 121.99 99.06 118.28 96.91C115.59 95.35 111 94.11 109.49 95.92C107.96 97.75 110.34 101.84 110.93 102.85C113.36 107.02 117.25 108.67 119.53 109.63C121.4 110.42 124.24 111.62 125.29 110.55C126.14 109.67 125.4 107.73 124.63 105.77Z" /><path fill-rule="evenodd" class="shp2" d="M124.03 111.32C122.65 111.32 120.84 110.56 119.4 109.95C117.05 108.96 113.12 107.29 110.62 103.02C108.57 99.49 108.1 97.03 109.22 95.69C110.93 93.64 115.74 95.03 118.46 96.61C122.28 98.83 123.71 102.45 124.96 105.65C125.75 107.67 126.57 109.75 125.54 110.8C125.17 111.17 124.64 111.32 124.03 111.32ZM111.99 95.36C111.02 95.36 110.21 95.58 109.75 96.14C109.24 96.75 108.75 98.41 111.22 102.66C113.6 106.74 117.39 108.34 119.66 109.3C121.34 110.01 124.15 111.2 125.03 110.3C125.74 109.58 124.97 107.62 124.3 105.9C123.08 102.81 121.71 99.31 118.1 97.21C116.41 96.23 113.9 95.36 111.99 95.36Z" /></g><g ><path class="shp12" d="M130.5 100.08C132.88 98.74 135.51 97.26 136.81 94.09C137.75 91.79 138.22 88.03 136.63 87.03C135.01 86.02 132.05 88.35 131.31 88.93C128.28 91.31 127.41 94.56 126.9 96.47C126.48 98.04 125.84 100.41 126.8 101.12C127.58 101.7 129.03 100.91 130.5 100.08Z" /><path fill-rule="evenodd" class="shp2" d="M127.46 101.68C127.14 101.68 126.84 101.6 126.59 101.41C125.44 100.55 126.08 98.15 126.55 96.39C127.08 94.41 127.96 91.11 131.09 88.65C133.68 86.62 135.6 85.97 136.81 86.73C138.65 87.88 138.09 91.87 137.13 94.22C135.79 97.51 133.07 99.04 130.67 100.39C129.54 101.03 128.38 101.68 127.46 101.68ZM135.67 87.14C134.9 87.14 133.61 87.57 131.52 89.21C128.58 91.52 127.73 94.68 127.23 96.57C126.88 97.87 126.24 100.28 127.01 100.85C127.62 101.31 129.12 100.46 130.32 99.78C132.73 98.42 135.22 97.02 136.47 93.96C137.37 91.77 137.79 88.18 136.43 87.34C136.27 87.23 136.03 87.14 135.67 87.14Z" /></g><g ><path class="shp12" d="M101.63 103.78C103.2 102.9 104.93 101.92 105.79 99.83C106.41 98.31 106.72 95.84 105.67 95.18C104.6 94.51 102.65 96.05 102.17 96.43C100.17 98 99.6 100.14 99.26 101.4C98.98 102.43 98.56 104 99.2 104.47C99.7 104.85 100.66 104.33 101.63 103.78Z" /><path fill-rule="evenodd" class="shp2" d="M99.62 104.96C99.38 104.96 99.17 104.9 98.98 104.76C98.15 104.14 98.59 102.51 98.91 101.32C99.26 100.01 99.85 97.81 101.94 96.16C103.68 94.79 105 94.36 105.85 94.89C107.12 95.68 106.75 98.39 106.11 99.97C105.21 102.17 103.4 103.19 101.8 104.09C101.04 104.52 100.26 104.96 99.62 104.96ZM105.04 95.38C104.58 95.38 103.76 95.63 102.38 96.71C100.47 98.21 99.92 100.27 99.59 101.49C99.38 102.26 98.96 103.85 99.4 104.18C99.74 104.43 100.77 103.85 101.45 103.47C103.02 102.59 104.64 101.67 105.45 99.7C106.09 98.14 106.24 95.96 105.47 95.48C105.4 95.43 105.26 95.38 105.04 95.38Z" /></g><g ><path class="shp12" d="M150.62 89.85C151.47 88.26 152.42 86.51 152.02 84.29C151.73 82.68 150.67 80.42 149.44 80.42C148.18 80.43 147.35 82.77 147.15 83.35C146.3 85.74 146.96 87.86 147.35 89.1C147.67 90.12 148.15 91.67 148.94 91.72C149.56 91.79 150.09 90.83 150.62 89.85Z" /><path fill-rule="evenodd" class="shp2" d="M148.98 92.09C148.96 92.09 148.93 92.09 148.91 92.09C147.88 92.01 147.38 90.4 147.01 89.22C146.6 87.92 145.93 85.74 146.81 83.24C147.55 81.15 148.44 80.08 149.43 80.08L149.44 80.08C150.93 80.08 152.07 82.56 152.37 84.24C152.79 86.58 151.8 88.41 150.93 90.03C150.38 91.04 149.81 92.09 148.98 92.09ZM149.44 80.78C149.13 80.78 148.34 81.05 147.48 83.47C146.67 85.75 147.3 87.79 147.68 89C147.92 89.76 148.41 91.34 148.95 91.38C149.36 91.39 149.93 90.37 150.3 89.68C151.15 88.09 152.04 86.45 151.66 84.35C151.38 82.7 150.34 80.78 149.44 80.78Z" /></g><g ><path class="shp12" d="M145.86 102.29C147.31 102.5 148.91 102.74 150.5 101.82C151.65 101.15 153.09 99.72 152.74 98.77C152.39 97.81 150.36 97.82 149.86 97.83C147.79 97.84 146.36 98.93 145.51 99.58C144.82 100.11 143.77 100.9 143.94 101.52C144.09 102.01 144.97 102.15 145.86 102.29Z" /><path fill-rule="evenodd" class="shp2" d="M147.88 102.83C147.16 102.83 146.47 102.73 145.81 102.63L145.8 102.63C144.82 102.49 143.81 102.33 143.6 101.6C143.36 100.75 144.48 99.9 145.3 99.28C146.13 98.65 147.67 97.48 149.86 97.46C149.88 97.46 149.91 97.46 149.93 97.46C151.73 97.46 152.78 97.85 153.07 98.63C153.51 99.82 151.93 101.38 150.67 102.11C149.73 102.67 148.79 102.83 147.88 102.83ZM150.32 101.52C151.48 100.85 152.65 99.56 152.41 98.9C152.33 98.68 151.93 98.19 149.94 98.19C149.92 98.19 149.89 98.19 149.87 98.19C147.92 98.2 146.55 99.24 145.73 99.86C145.31 100.18 144.18 101.04 144.29 101.42C144.37 101.71 145.33 101.85 145.91 101.94C147.35 102.15 148.84 102.37 150.32 101.52Z" /></g><g ><path class="shp12" d="M101.88 115.54C100.55 114.32 99.09 112.98 96.84 112.81C95.21 112.69 92.75 113.16 92.46 114.36C92.16 115.58 94.22 116.96 94.73 117.3C96.84 118.71 99.05 118.6 100.36 118.53C101.43 118.47 103.04 118.39 103.29 117.64C103.49 117.04 102.7 116.29 101.88 115.54Z" /><path fill-rule="evenodd" class="shp2" d="M99.25 118.93C97.93 118.93 96.21 118.73 94.53 117.61C92.68 116.37 91.87 115.26 92.11 114.29C92.47 112.84 95.17 112.35 96.86 112.47C99.23 112.64 100.76 114.05 102.11 115.28L102.12 115.29C103 116.1 103.91 116.93 103.63 117.77C103.3 118.74 101.62 118.83 100.38 118.9C100.05 118.91 99.67 118.93 99.25 118.93ZM96.32 113.15C94.75 113.15 93 113.66 92.8 114.45C92.73 114.74 92.79 115.58 94.93 117.01C96.94 118.36 99.07 118.24 100.34 118.18C101.13 118.14 102.78 118.05 102.96 117.53C103.1 117.13 102.22 116.33 101.65 115.8L101.64 115.79C100.31 114.57 98.94 113.31 96.82 113.16C96.65 113.16 96.49 113.15 96.32 113.15Z" /></g><g ><path class="shp12" d="M132.66 118.76C135.86 117.29 139.39 115.67 141.38 111.77C142.82 108.95 143.82 104.23 141.88 102.82C139.91 101.39 135.85 104.06 134.85 104.71C130.71 107.43 129.26 111.47 128.4 113.84C127.7 115.78 126.64 118.73 127.8 119.72C128.74 120.54 130.69 119.66 132.66 118.76Z" /><path fill-rule="evenodd" class="shp2" d="M128.8 120.4C128.32 120.4 127.91 120.28 127.57 119.99C126.22 118.84 127.29 115.88 128.07 113.72C128.95 111.28 130.42 107.2 134.66 104.41C138.15 102.11 140.65 101.48 142.09 102.53C144.29 104.12 143.16 109.08 141.7 111.93C139.65 115.93 136.02 117.6 132.81 119.08C131.39 119.73 129.93 120.4 128.8 120.4ZM140.43 102.76C139.39 102.76 137.71 103.25 135.05 105C131.01 107.66 129.58 111.6 128.74 113.96C128.11 115.7 127.06 118.62 128.03 119.45C128.82 120.12 130.87 119.18 132.51 118.43C135.61 117.01 139.13 115.39 141.06 111.6C142.42 108.93 143.42 104.37 141.66 103.1C141.42 102.93 141.04 102.76 140.43 102.76Z" /></g><g ><path class="shp2" d="M125.79 142.6L125.11 142.41C126.15 138.71 126.86 134.9 127.22 131.08C127.58 127.22 127.42 125.21 126.98 119.84C126.77 117.24 126.48 113.67 126.16 108.71C125.58 99.64 125.45 94.68 126.85 88.44C127.26 86.6 127.78 84.76 128.39 82.97L129.06 83.2C128.46 84.96 127.95 86.78 127.54 88.59C126.16 94.74 126.29 99.65 126.87 108.66C127.19 113.61 127.48 117.18 127.69 119.78C128.13 125.2 128.3 127.23 127.93 131.14C127.56 135.01 126.84 138.86 125.79 142.6Z" /></g><g ><path class="shp2" d="M117.05 138.7C115.68 137.06 114.37 135.35 113.15 133.62C111.91 131.86 111.12 130.6 110.21 129.13C109.49 127.97 108.67 126.65 107.49 124.89C106.29 123.09 105.64 122.22 105.12 121.52C104.7 120.96 104.34 120.48 103.84 119.71C101.57 116.24 100.76 113.5 99.54 109.35C98.82 106.92 97.93 103.9 96.51 99.98C95.4 96.91 94.3 93.85 93.21 90.8L93.87 90.56C94.95 93.61 96.05 96.67 97.17 99.74C98.6 103.69 99.5 106.72 100.22 109.15C101.43 113.24 102.22 115.94 104.44 119.32C104.93 120.07 105.27 120.53 105.7 121.1C106.23 121.81 106.88 122.69 108.09 124.5C109.27 126.26 110.09 127.59 110.82 128.75C111.73 130.2 112.51 131.46 113.74 133.2C114.95 134.92 116.25 136.61 117.61 138.24L117.05 138.7Z" /></g><g ><path class="shp2" d="M129.32 136.57L128.64 136.38C133.59 118.51 141.35 102.24 151.7 88.04C152.67 86.71 153.68 85.38 154.7 84.07L155.25 84.51C154.23 85.81 153.23 87.13 152.27 88.46C141.97 102.59 134.25 118.77 129.32 136.57Z" /></g><g ><path class="shp13" d="M114.03 155.78C113.99 155.09 107.25 156.6 102.02 153.31C98.81 151.28 96.76 148.04 96.38 144.47C96.27 143.47 96.44 142.37 96.74 140.16C97.2 136.71 97.43 134.98 98.25 133.76C99.66 131.66 101.97 130.88 104.96 129.87C107.38 129.06 108.59 128.65 110.12 128.73C117.17 129.11 122.4 138.78 123.05 140.56C123.21 141.01 123.37 141.48 123.71 141.81C124.05 142.14 124.64 142.27 125 141.96C125.19 141.79 125.27 141.54 125.35 141.29C125.87 139.59 126.31 137.85 127.09 136.25C129.41 131.48 134.41 128.54 139.51 127.08C142.12 126.33 144.91 125.91 147.55 126.57C151.74 127.62 154.95 131.49 155.59 135.76C156.22 140.03 154.42 144.49 151.26 147.42C148.1 150.35 143.7 151.8 139.39 151.73C137.32 151.7 135.27 151.34 133.24 150.98C133.28 152.01 134.1 152.81 134.87 153.51C136.52 155 138.17 156.5 139.82 157.99C141.18 159.22 142.56 160.47 143.59 161.99C144.62 163.51 145.28 165.35 145.05 167.18C144.85 168.76 143.99 170.2 142.94 171.4C139.36 175.46 133.18 176.98 128.12 175.06C126.9 174.6 125.72 173.93 124.91 172.91C123.77 171.48 123.49 169.55 123.54 167.73C123.59 165.91 123.92 164.09 123.84 162.26C123.17 164.83 122.49 167.42 121.27 169.78C120.06 172.14 118.26 174.29 115.86 175.42C113.08 176.74 109.62 176.53 107.03 174.87C105.14 173.67 103.71 171.69 103.39 169.48C103.15 167.81 103.54 166.1 104.2 164.54C105.11 162.37 106.56 160.44 108.34 158.91C108.83 158.47 114.03 155.72 114.03 155.78Z" /><path fill-rule="evenodd" class="shp13" d="M111.95 176.63C110.14 176.63 108.33 176.14 106.81 175.17C104.75 173.85 103.33 171.75 103.01 169.53C102.79 167.97 103.07 166.25 103.84 164.41C104.76 162.22 106.23 160.23 108.08 158.65C108.11 158.62 111.17 156.81 112.94 155.93C112.72 155.93 112.48 155.92 112.26 155.93C112.21 155.93 112.15 155.93 112.1 155.93C109.7 155.93 105.41 155.88 101.82 153.62C98.53 151.54 96.41 148.23 96.02 144.52C95.92 143.56 96.06 142.53 96.31 140.66L96.38 140.12C96.85 136.62 97.08 134.86 97.95 133.57C99.43 131.37 101.82 130.56 104.84 129.55C107.31 128.72 108.53 128.31 110.13 128.39C117.47 128.78 122.82 138.93 123.37 140.45L123.4 140.54C123.54 140.94 123.68 141.32 123.94 141.57C124.16 141.78 124.55 141.88 124.75 141.71C124.86 141.61 124.93 141.43 124.99 141.2L125.26 140.29C125.67 138.9 126.09 137.45 126.75 136.11C129.57 130.31 135.88 127.76 139.39 126.76C142.67 125.83 145.28 125.66 147.61 126.25C151.83 127.31 155.24 131.21 155.91 135.73C156.54 139.99 154.84 144.58 151.47 147.71C148.44 150.52 144.15 152.12 139.65 152.12C139.55 152.12 139.45 152.12 139.35 152.12C137.41 152.09 135.5 151.78 133.64 151.45C133.85 152.13 134.46 152.72 135.07 153.28L140.03 157.76C141.39 158.99 142.79 160.26 143.85 161.82C145.05 163.59 145.59 165.52 145.37 167.25C145.18 168.73 144.44 170.21 143.17 171.66C139.52 175.8 133.12 177.38 127.96 175.41C126.45 174.84 125.35 174.1 124.6 173.15C123.58 171.87 123.09 170.05 123.15 167.73C123.17 166.97 123.24 166.21 123.31 165.47C123.31 165.46 123.31 165.44 123.31 165.43C122.85 166.97 122.31 168.5 121.56 169.95C120.58 171.85 118.82 174.41 115.99 175.75C114.73 176.34 113.34 176.63 111.95 176.63ZM123.31 165.43C123.32 165.42 123.32 165.41 123.32 165.4C123.32 165.41 123.31 165.42 123.31 165.43ZM114 156.18C113.12 156.6 108.95 158.84 108.55 159.18C106.78 160.69 105.38 162.59 104.5 164.68C103.77 166.4 103.51 168 103.71 169.43C104 171.44 105.3 173.37 107.19 174.57C109.68 176.16 113.02 176.36 115.68 175.1C118.34 173.84 120 171.42 120.93 169.61C122.13 167.28 122.81 164.68 123.47 162.16L124.06 159.9L124.16 162.23C124.21 163.33 124.11 164.44 124.01 165.51C123.94 166.24 123.88 166.99 123.86 167.72C123.8 169.86 124.24 171.53 125.16 172.67C125.84 173.52 126.84 174.19 128.22 174.71C133.11 176.57 139.18 175.08 142.65 171.15C143.83 169.82 144.51 168.46 144.68 167.12C144.88 165.56 144.38 163.81 143.28 162.18C142.27 160.69 140.9 159.45 139.57 158.24L134.61 153.76C133.75 152.98 132.92 152.13 132.87 150.99L132.85 150.55L133.28 150.63C135.27 150.98 137.33 151.34 139.38 151.37C143.78 151.46 148.04 149.9 151.01 147.15C154.21 144.18 155.83 139.83 155.23 135.8C154.6 131.55 151.4 127.89 147.46 126.9C145.25 126.35 142.76 126.51 139.61 127.41C136.21 128.38 130.11 130.84 127.41 136.39C126.78 137.68 126.37 139.09 125.97 140.46L125.7 141.38C125.62 141.63 125.52 141.97 125.25 142.21C124.74 142.67 123.93 142.49 123.48 142.05C123.1 141.68 122.92 141.19 122.77 140.75L122.74 140.67C122.21 139.21 117.09 129.44 110.13 129.07C108.67 128.98 107.48 129.39 105.12 130.18C102.09 131.2 99.92 131.93 98.58 133.93C97.81 135.08 97.58 136.78 97.13 140.18L97.06 140.72C96.81 142.54 96.68 143.54 96.77 144.41C97.14 147.9 99.13 151.03 102.24 152.98C105.66 155.14 109.82 155.18 112.14 155.18C112.25 155.18 112.35 155.18 112.45 155.18C113.81 155.18 114.38 155.2 114.41 155.73L114.45 156.42L114 156.18Z" /></g><g ><path class="shp5" d="M116.9 146.53C117.26 146.08 112.19 143.22 110.77 138.22C109.9 135.14 110.44 131.95 112.21 129.51C112.71 128.83 113.43 128.23 114.86 127.01C117.09 125.11 118.21 124.15 119.41 123.85C121.48 123.33 123.36 124.14 125.8 125.19C127.77 126.04 128.76 126.47 129.67 127.38C133.88 131.59 131.71 140.59 131.11 142.07C130.96 142.44 130.79 142.82 130.82 143.22C130.85 143.62 131.14 144.03 131.54 144.04C131.75 144.04 131.95 143.93 132.13 143.82C133.41 143.04 134.67 142.21 136.06 141.64C140.2 139.96 144.99 140.93 149.01 142.89C151.07 143.89 153.06 145.2 154.33 147.1C156.36 150.11 156.2 154.35 154.19 157.39C152.18 160.42 148.54 162.2 144.91 162.26C141.27 162.32 137.71 160.75 135.04 158.28C133.76 157.09 132.68 155.72 131.61 154.35C131.06 155.02 131.12 155.99 131.21 156.85C131.4 158.72 131.6 160.58 131.79 162.45C131.95 163.99 132.11 165.55 131.9 167.08C131.69 168.61 131.07 170.14 129.9 171.15C128.88 172.03 127.54 172.45 126.2 172.6C121.67 173.13 116.94 170.6 114.86 166.55C114.36 165.57 113.99 164.49 114.06 163.39C114.15 161.85 115.06 160.48 116.12 159.37C117.18 158.25 118.41 157.3 119.39 156.11C117.52 157.34 115.64 158.58 113.55 159.38C111.46 160.18 109.12 160.51 106.98 159.87C104.49 159.13 102.45 157.05 101.75 154.55C101.25 152.73 101.46 150.69 102.51 149.12C103.3 147.94 104.51 147.09 105.8 146.48C107.59 145.64 109.59 145.24 111.57 145.29C112.13 145.29 116.93 146.49 116.9 146.53Z" /><path fill-rule="evenodd" class="shp5" d="M103.86 158.42C102.73 157.4 101.87 156.07 101.46 154.61C100.91 152.62 101.21 150.5 102.26 148.94C103 147.84 104.14 146.92 105.67 146.2C107.48 145.35 109.52 144.93 111.57 144.98C111.61 144.98 114.54 145.57 116.15 146.01C116.02 145.88 115.87 145.75 115.73 145.62C115.7 145.59 115.66 145.56 115.63 145.53C114.13 144.18 111.47 141.73 110.49 138.29C109.6 135.13 110.14 131.87 111.98 129.32C112.46 128.66 113.12 128.1 114.33 127.07L114.68 126.77C116.95 124.84 118.08 123.87 119.35 123.55C121.52 123 123.47 123.84 125.93 124.91C127.95 125.78 128.94 126.21 129.9 127.17C134.28 131.55 131.91 140.92 131.4 142.19L131.37 142.26C131.24 142.59 131.11 142.91 131.13 143.21C131.15 143.46 131.34 143.75 131.56 143.75C131.69 143.75 131.83 143.67 132 143.57L132.68 143.15C133.72 142.51 134.8 141.84 135.96 141.37C141 139.32 146.39 141.28 149.15 142.63C151.73 143.89 153.46 145.26 154.59 146.94C156.64 149.98 156.58 154.34 154.45 157.56C152.45 160.59 148.8 162.5 144.92 162.56C141.44 162.61 137.85 161.2 135.03 158.67C134.97 158.61 134.9 158.56 134.84 158.5C133.64 157.39 132.62 156.12 131.64 154.86C131.39 155.41 131.43 156.12 131.51 156.81L132.09 162.41C132.25 163.95 132.41 165.53 132.2 167.11C131.95 168.9 131.21 170.41 130.1 171.37C129.15 172.19 127.85 172.71 126.24 172.89C121.62 173.43 116.72 170.82 114.6 166.68C113.98 165.47 113.7 164.39 113.77 163.37C113.85 161.99 114.57 160.57 115.91 159.16C116.35 158.7 116.82 158.26 117.28 157.83C117.29 157.82 117.31 157.8 117.32 157.79C116.15 158.5 114.94 159.16 113.66 159.65C111.98 160.29 109.44 160.9 106.9 160.15C105.77 159.81 104.73 159.21 103.86 158.42ZM116.66 146.76C115.87 146.53 112 145.59 111.55 145.57C109.59 145.52 107.64 145.92 105.92 146.73C104.49 147.4 103.43 148.25 102.75 149.26C101.8 150.68 101.53 152.62 102.04 154.44C102.71 156.84 104.68 158.85 107.06 159.56C109.44 160.27 111.84 159.69 113.44 159.08C115.5 158.29 117.4 157.05 119.22 155.84L120.86 154.76L119.61 156.28C119.02 157 118.33 157.63 117.67 158.25C117.22 158.67 116.75 159.1 116.33 159.55C115.09 160.86 114.43 162.15 114.35 163.39C114.3 164.3 114.55 165.29 115.12 166.4C117.14 170.32 121.78 172.8 126.17 172.29C127.66 172.12 128.85 171.65 129.71 170.91C130.71 170.05 131.39 168.66 131.61 167.02C131.82 165.52 131.66 163.96 131.5 162.46L130.92 156.86C130.82 155.89 130.78 154.89 131.39 154.14L131.63 153.86L131.86 154.15C132.91 155.49 133.99 156.87 135.26 158.05C137.97 160.58 141.51 162.01 144.92 161.95C148.6 161.89 152.06 160.08 153.96 157.21C155.96 154.19 156.02 150.1 154.1 147.25C153.03 145.66 151.37 144.36 148.89 143.15C146.21 141.84 141.01 139.95 136.18 141.91C135.06 142.36 134.01 143.02 132.98 143.65L132.29 144.07C132.1 144.18 131.84 144.34 131.54 144.34C130.96 144.34 130.56 143.77 130.52 143.25C130.49 142.81 130.66 142.4 130.8 142.04L130.83 141.97C131.32 140.75 133.61 131.75 129.46 127.6C128.59 126.72 127.62 126.31 125.69 125.48C123.22 124.41 121.45 123.65 119.48 124.15C118.35 124.44 117.25 125.38 115.05 127.25L114.7 127.55C113.52 128.55 112.87 129.1 112.44 129.7C110.71 132.09 110.2 135.18 111.04 138.16C111.97 141.44 114.55 143.81 116 145.12C116.07 145.18 116.13 145.24 116.2 145.29C117.05 146.06 117.4 146.39 117.12 146.74L116.76 147.19L116.66 146.76Z" /></g><g ><path class="shp14" d="M129.2 152.12C129.2 154.45 127.27 156.35 124.88 156.35C122.5 156.35 120.56 154.46 120.56 152.12C120.56 149.79 122.49 147.89 124.88 147.89C127.26 147.89 129.2 149.78 129.2 152.12Z" /><path fill-rule="evenodd" class="shp14" d="M124.88 156.77C122.26 156.77 120.13 154.68 120.13 152.11C120.13 149.54 122.26 147.45 124.88 147.45C127.5 147.45 129.63 149.54 129.63 152.11C129.63 154.69 127.5 156.77 124.88 156.77ZM124.88 148.33C122.74 148.33 120.99 150.03 120.99 152.12C120.99 154.21 122.73 155.91 124.88 155.91C127.02 155.91 128.77 154.21 128.77 152.12C128.77 150.03 127.02 148.33 124.88 148.33Z" /></g><g ><path class="shp14" d="M135.7 67C135.7 70.4 132.88 73.15 129.41 73.15C125.94 73.15 123.12 70.39 123.12 67C123.12 63.6 125.94 60.85 129.41 60.85C132.88 60.85 135.7 63.6 135.7 67Z" /><path fill-rule="evenodd" class="shp14" d="M129.41 73.78C125.59 73.78 122.49 70.74 122.49 67C122.49 63.26 125.59 60.22 129.41 60.22C133.23 60.22 136.33 63.26 136.33 67C136.33 70.74 133.23 73.78 129.41 73.78ZM129.41 61.47C126.29 61.47 123.75 63.95 123.75 67C123.75 70.05 126.29 72.52 129.41 72.52C132.53 72.52 135.07 70.04 135.07 67C135.08 63.95 132.53 61.47 129.41 61.47Z" /></g><g ><path class="shp0" d="M163.8 143.79C165.1 143.67 165.9 142.34 165.61 141.33C165.42 140.66 164.67 139.82 163.57 139.8C162.28 139.78 161.58 140.91 161.53 140.99C161.45 141.12 161.02 141.89 161.53 142.69C161.93 143.3 162.85 143.89 163.8 143.79Z" /></g><g ><g ><g ><path class="shp5" d="M178.77 109.08C179.1 109.48 180.27 110.86 180.16 112.51C180.05 114.55 178.21 115.74 177.27 116.4C176.44 116.86 174.43 117.98 172.15 117.26C171.43 117 170.76 116.6 170.15 116.07C169.54 115.48 168.76 114.82 168.59 113.76C168.26 112.18 169.54 110.6 170.2 109.81C170.65 109.22 171.76 107.83 173.65 107.44C174.82 107.24 175.76 107.57 176.43 107.84C177.27 108.09 178.05 108.36 178.77 109.08Z" /></g></g></g></g></g></g></svg>