<svg xmlns="http://www.w3.org/2000/svg" viewBox="0 0 217 239" width="256" height="282"><defs><linearGradient id="grd1" gradientUnits="userSpaceOnUse"  x1="12.804" y1="145.536" x2="54.108" y2="124.47"><stop offset="0.015" stop-color="#646464"  /><stop offset="0.427" stop-color="#666666"  /><stop offset="0.941" stop-color="#333333"  /></linearGradient></defs><style>tspan { white-space:pre }.shp0 { fill: #ffffff } .shp1 { fill: #ed1c24 } .shp2 { fill: #f62700 } .shp3 { fill: #f15a24 } .shp4 { fill: none;stroke: #000000 } .shp5 { fill: none;stroke: #ffffff } .shp6 { fill: url(#grd1);stroke: #000000;stroke-width: 0.5 } </style><g ></g><g ><g ><path class="shp0" d="M62.18 117.17C63.82 117.08 64.96 115.59 65.39 115.03C68.74 110.69 77.47 84.7 67.55 78.5C61.44 74.69 51.24 80.24 44.64 76.3C43.67 75.72 41.12 74.2 40.34 71.37C40.07 70.4 40.05 69.43 40.23 68.24C40.89 63.77 43.7 60.48 44.24 59.83C49.86 53.04 45.19 47.86 50.07 36.16C51.29 33.23 52.68 30.88 51.92 28.13C51.65 27.15 50.89 25.34 51.33 23.06C51.33 23.06 51.54 22.18 51.92 21.27C54.81 14.34 61.61 9.77 72.16 5.89C72.16 5.89 116.03 -9.05 171.78 12.33C177.11 14.38 182.94 17.34 184.5 22.84C186.32 29.23 181.42 35.87 182.37 42.45C183.4 49.56 190.52 53.78 196.21 58.16C206.14 65.8 213.55 76.98 215.55 89.34C217.54 101.71 213.74 115.13 204.72 123.82C198.34 129.96 189.26 134.27 186.62 142.72C184.31 150.11 187.85 157.88 189.37 165.47C194.59 191.53 171.73 215.74 170.27 217.28C147.24 241.55 114.31 238.55 109.55 238.04C107.07 237.77 72.91 233.61 56.81 208.21C47.9 194.15 50.3 185.85 38.73 171.86C32.7 164.56 24.33 159.69 16.71 154.07C10.66 149.61 1.48 142.38 0.11 134.39C-1.16 126.96 10.12 115.71 14.74 110.13C19.39 104.5 25.13 98.8 32.41 98.22C41.87 97.46 56.23 112.7 58.62 115.25C59.05 115.75 60.44 117.27 62.18 117.17Z" /><g ><g ><g ><path class="shp1" d="M168.87 66.02C168.86 66.02 168.8 66.03 168.67 66.06C169.65 63.66 170.54 61.64 171.37 59.91C171.52 59.89 171.73 59.88 171.96 59.86C180.61 59.27 188.04 62.85 192.15 64.85C193.07 65.3 193.78 65.69 194.28 65.96C202.58 70.49 205.8 75.95 207.56 79.05C213.9 90.23 210.08 100.39 208.11 105.61C204.8 114.39 198.96 120.44 195.67 123.79C189.73 129.84 183.34 134.2 178.53 137.07L177.21 137.58C176.75 136.38 176.27 135.1 175.75 133.75C174.35 130.08 173.13 126.86 172.05 124.04L173.15 123.62C180.16 120.35 185.19 116.54 188.4 113.74C192.36 110.28 196.61 106.57 199.48 100.2C201.23 96.32 204.64 88.77 198.98 80.45C197.42 78.14 194.56 74.07 187.17 70.71C186.42 70.36 185.85 70.12 185.37 69.93C177.55 66.71 169.74 66.57 168.6 66.26C168.63 66.2 168.65 66.14 168.68 66.09C168.76 66.04 168.85 66.03 168.87 66.02Z" /><path class="shp2" d="M168.67 66.06L168.67 66.06C168.56 66.09 168.45 66.13 168.45 66.17C168.45 66.2 168.5 66.23 168.59 66.25C168.52 66.43 168.45 66.62 168.37 66.81C167.82 68.17 161.99 83.01 163.88 100.12C164.27 103.65 164.73 104.86 172.04 124.03C173.12 126.85 174.34 130.07 175.74 133.74C176.26 135.09 176.74 136.37 177.2 137.57C182.9 152.61 184.06 156.09 184.7 161.92C185.24 166.75 186.21 176.49 182.46 187.86C176.74 205.21 163.95 214.55 160.03 217.33C146.47 226.95 133.04 228.19 122.24 229.18C110.4 230.28 96.42 231.56 81.89 223.74C69.62 217.14 63.1 207.36 59.79 202.28C56.28 196.89 50.13 187.18 49.22 173.46C48.17 157.71 54.62 145.37 56.91 141.12C61.13 133.28 64.27 131.52 69.72 120.46C72.06 115.7 74.39 110.99 76.13 104.28C76.37 103.35 76.61 102.42 76.83 101.47C78.94 92.61 79.77 82.98 76.7 74.26C76.49 73.65 76.26 73.04 76 72.43C75.65 71.6 75.27 70.8 74.86 70.01C72.59 65.67 69.47 61.66 67.15 57.37C65.3 53.92 63.58 50.38 62.03 46.78C61.33 45.15 60.49 43.45 59.78 41.71C59.07 39.98 58.47 38.21 58.23 36.42C58.07 35.18 58.12 33.91 58.43 32.71C63.34 41.64 88.13 48.43 117.97 48.43C146.96 48.43 171.18 42.02 177.03 33.47C177.14 34.97 177.36 36.46 177.67 37.93C178.05 39.65 178.54 40.94 178.33 42.68C178.13 44.32 177.9 45.9 177.41 47.49C176.33 50.99 174.38 53.5 171.36 59.92C170.55 61.64 169.65 63.66 168.67 66.06Z" /><path class="shp3" d="M177.29 25.84C178.02 27.01 178.39 28.21 178.39 29.45C178.39 30.82 177.93 32.16 177.04 33.46C176.95 32.27 176.93 31.08 176.98 29.89C177.04 28.58 177.42 27.13 177.29 25.84Z" /><path class="shp3" d="M177.29 25.84C177.41 27.13 177.04 28.58 176.98 29.89C176.93 31.08 176.95 32.27 177.04 33.46C171.19 42.01 146.97 48.42 117.98 48.42C88.14 48.42 63.35 41.63 58.44 32.7C58.9 30.88 59.92 29.24 61.56 28.17C64.16 26.46 66.82 25.99 68.04 22.67C68.65 21.01 68.64 19.26 70.1 18.06C70.3 17.9 70.51 17.74 70.73 17.61C80.49 13.78 94.89 11.15 111.27 10.59C111.31 10.59 111.35 10.59 111.39 10.59C115.61 10.59 119.82 10.73 124.02 10.94C138.54 11.65 153.28 13.23 166.63 19.37C168.23 20.11 169.8 20.92 171.42 21.63C172.33 22.02 173.39 22.28 174.36 22.64C175.64 23.66 176.62 24.73 177.29 25.84Z" /><path class="shp2" d="M175.66 23.21C176.79 23.88 177.21 24.8 177.29 25.84C176.62 24.74 175.64 23.66 174.37 22.63C174.83 22.79 175.26 22.98 175.66 23.21Z" /><path class="shp3" d="M174.37 22.63C173.4 22.27 172.34 22.02 171.43 21.62C169.81 20.91 168.24 20.1 166.64 19.36C153.28 13.22 138.55 11.64 124.03 10.93C119.82 10.73 115.61 10.58 111.4 10.58C113.56 10.5 115.76 10.46 117.99 10.46C143.68 10.48 165.65 15.52 174.37 22.63Z" /><path class="shp2" d="M168.67 66.07C168.64 66.13 168.62 66.19 168.59 66.24C168.49 66.22 168.45 66.19 168.45 66.16C168.45 66.13 168.57 66.09 168.67 66.07Z" /><path class="shp2" d="M96.74 11.32C101.56 10.8 106.41 10.6 111.26 10.59C94.89 11.16 80.48 13.78 70.72 17.61C71.57 17.07 72.53 16.74 73.48 16.42C81.03 13.89 88.84 12.17 96.74 11.32Z" /><path class="shp2" d="M76 72.43C76.26 73.04 76.49 73.64 76.7 74.26C75.27 72.95 73.63 71.87 71.73 71.13C62.56 67.57 53.47 74.44 48.58 70.02C47.56 69.1 47.07 67.99 46.82 67.29C47.92 65.87 49.45 63.59 50.54 60.51C51.23 58.56 51.44 58.27 52.03 54.49C52.83 49.23 54.73 45.13 58.91 41.76L59.77 41.72C60.48 43.46 61.32 45.16 62.02 46.79C63.57 50.39 65.29 53.93 67.14 57.38C69.46 61.67 72.58 65.68 74.85 70.02C75.27 70.8 75.65 71.6 76 72.43Z" /><path class="shp3" d="M70.73 17.61C70.51 17.74 70.3 17.9 70.1 18.06C68.64 19.26 68.66 21.01 68.04 22.67C66.82 25.98 64.17 26.46 61.56 28.17C59.92 29.24 58.9 30.88 58.44 32.7C57.86 31.64 57.56 30.56 57.56 29.45C57.55 24.98 62.48 20.87 70.73 17.61Z" /></g><g ><path class="shp4" d="M171.1 59.94C171.16 59.93 171.25 59.92 171.37 59.91C171.52 59.89 171.73 59.88 171.96 59.86C180.61 59.27 188.04 62.85 192.15 64.85C193.07 65.3 193.78 65.69 194.28 65.96C202.58 70.49 205.8 75.95 207.56 79.05C213.9 90.23 210.08 100.39 208.11 105.61C204.8 114.39 198.96 120.44 195.67 123.79C189.73 129.84 183.34 134.2 178.53 137.07" /><path class="shp4" d="M168.88 66.02L168.88 66.02C168.84 66.03 168.76 66.04 168.67 66.07C168.56 66.09 168.45 66.13 168.45 66.17C168.45 66.2 168.5 66.23 168.59 66.25C169.72 66.56 177.54 66.7 185.36 69.92C185.84 70.11 186.41 70.35 187.16 70.7C194.55 74.06 197.41 78.14 198.97 80.44C204.63 88.76 201.22 96.31 199.47 100.19C196.6 106.56 192.35 110.27 188.39 113.73C185.18 116.53 180.16 120.34 173.14 123.61" /><path class="shp4" d="M167.95 66.23C168.31 66.14 168.54 66.09 168.67 66.06C168.8 66.03 168.86 66.02 168.87 66.02" /><path class="shp4" d="M58.44 32.7C58.13 33.9 58.07 35.17 58.24 36.41C58.48 38.21 59.08 39.97 59.79 41.7C60.5 43.44 61.34 45.14 62.04 46.77C63.59 50.37 65.31 53.91 67.16 57.36C69.48 61.65 72.6 65.66 74.87 70C75.28 70.79 75.67 71.59 76.01 72.42C76.27 73.03 76.5 73.63 76.71 74.25C79.78 82.97 78.96 92.6 76.84 101.46C76.62 102.4 76.38 103.33 76.14 104.27C74.4 110.98 72.08 115.69 69.73 120.45C64.28 131.51 61.14 133.27 56.92 141.11C54.63 145.36 48.19 157.7 49.23 173.45C50.14 187.17 56.29 196.88 59.8 202.27C63.11 207.35 69.63 217.13 81.9 223.73C96.44 231.55 110.42 230.26 122.25 229.17C133.05 228.18 146.48 226.94 160.04 217.32C163.96 214.54 176.75 205.2 182.47 187.85C186.22 176.47 185.25 166.74 184.71 161.91C184.07 156.09 182.9 152.6 177.21 137.56C176.75 136.36 176.27 135.08 175.75 133.73C174.35 130.06 173.13 126.84 172.05 124.02C164.74 104.84 164.29 103.63 163.89 100.11C162 83 167.83 68.16 168.38 66.8C168.46 66.61 168.53 66.43 168.6 66.24C168.63 66.18 168.65 66.12 168.68 66.07L168.68 66.06C169.66 63.66 170.55 61.64 171.38 59.91C174.41 53.49 176.36 50.97 177.43 47.48C177.92 45.89 178.15 44.31 178.35 42.67C178.56 40.93 178.07 39.64 177.69 37.92C177.37 36.45 177.15 34.96 177.05 33.46" /><path class="shp4" d="M111.26 10.59C106.41 10.6 101.57 10.8 96.74 11.32C88.83 12.17 81.02 13.89 73.48 16.42C72.53 16.74 71.57 17.07 70.72 17.61" /><path class="shp4" d="M177.29 25.84C177.2 24.8 176.79 23.88 175.66 23.21C175.27 22.98 174.83 22.8 174.37 22.63" /><path class="shp4" d="M58.92 41.74C54.74 45.11 52.84 49.22 52.04 54.47C51.45 58.26 51.24 58.54 50.55 60.49C49.46 63.57 47.94 65.85 46.83 67.27C47.08 67.97 47.57 69.08 48.59 70C53.48 74.43 62.57 67.55 71.74 71.11C73.63 71.85 75.28 72.94 76.71 74.24C77.15 74.64 77.58 75.08 77.99 75.52" /><path class="shp4" d="M111.39 10.59C113.55 10.51 115.75 10.47 117.98 10.47C143.68 10.47 165.65 15.51 174.37 22.62C175.64 23.65 176.62 24.72 177.29 25.83C178.02 27 178.39 28.2 178.39 29.44C178.39 30.81 177.93 32.15 177.04 33.45C171.19 42 146.97 48.41 117.98 48.41C88.14 48.41 63.35 41.62 58.44 32.69C57.86 31.63 57.56 30.55 57.56 29.44C57.56 24.97 62.49 20.86 70.73 17.6C80.49 13.77 94.89 11.14 111.27 10.58" /></g></g><path class="shp5" d="M81.17 81.9C83.02 80.04 85.94 77.72 89.61 77.61C95.72 77.43 98.1 83.53 103.78 83.05C108.9 82.62 109.1 77.46 114.23 76.9C120.55 76.2 122.98 83.75 129.4 83.05C134.34 82.52 134.48 77.88 139.42 77.33C145.94 76.6 149.26 84.28 154.73 83.2C156.7 82.81 159.23 81.22 161.6 75.9" /><path class="shp5" d="M81.17 85.6C83.02 83.74 85.94 81.42 89.61 81.31C95.72 81.13 98.1 87.23 103.78 86.75C108.9 86.32 109.1 81.16 114.23 80.6C120.55 79.9 122.98 87.45 129.4 86.75C134.34 86.22 134.48 81.58 139.42 81.03C145.94 80.3 149.26 87.98 154.73 86.9C156.7 86.51 159.23 84.92 161.6 79.6" /><path class="shp5" d="M68.39 135.67C70.69 133.81 74.32 131.49 78.89 131.38C86.5 131.2 89.46 137.3 96.52 136.82C102.9 136.39 103.14 131.23 109.52 130.67C117.38 129.97 120.41 137.52 128.39 136.82C134.53 136.29 134.71 131.65 140.85 131.1C148.96 130.37 153.09 138.05 159.9 136.97C162.35 136.58 165.5 134.99 168.45 129.67" /><path class="shp5" d="M49.12 175.49C52.15 173.63 56.94 171.31 62.97 171.2C73 171.02 76.9 177.12 86.21 176.64C94.62 176.21 94.94 171.05 103.35 170.49C113.72 169.79 117.7 177.34 128.23 176.64C136.33 176.11 136.56 171.47 144.66 170.92C155.36 170.19 160.8 177.87 169.78 176.79C173.01 176.4 177.17 174.81 181.05 169.49" /><path class="shp5" d="M71.01 160.32C67.61 160.32 64.86 157.57 64.86 154.17C64.86 150.77 67.61 148.02 71.01 148.02C74.41 148.02 77.16 150.77 77.16 154.17C77.16 157.57 74.41 160.32 71.01 160.32Z" /><path class="shp5" d="M100.2 160.32C96.8 160.32 94.05 157.57 94.05 154.17C94.05 150.77 96.8 148.02 100.2 148.02C103.6 148.02 106.35 150.77 106.35 154.17C106.35 157.57 103.6 160.32 100.2 160.32Z" /><path class="shp5" d="M129.19 160.32C125.79 160.32 123.04 157.57 123.04 154.17C123.04 150.77 125.79 148.02 129.19 148.02C132.59 148.02 135.34 150.77 135.34 154.17C135.34 157.57 132.59 160.32 129.19 160.32Z" /><path class="shp5" d="M157.1 160.32C153.7 160.32 150.95 157.57 150.95 154.17C150.95 150.77 153.7 148.02 157.1 148.02C160.5 148.02 163.25 150.77 163.25 154.17C163.25 157.57 160.5 160.32 157.1 160.32Z" /></g><path class="shp6" d="M6.45 131.74C6.32 133.95 7.27 136.84 22.05 148.6C31.16 155.85 33.19 156.65 34.77 157.15C41.7 159.31 47.97 157.93 51.15 157.23C55.12 156.36 57.11 155.92 58.73 154.21C62.78 149.93 60.96 142.21 60.01 138.22C58.84 133.29 56.81 129.7 55.66 127.88C52.52 122.91 50.24 122.05 41.02 113.79C32.24 105.93 32.22 104.83 30.1 104.79C25.75 104.69 24.68 109.26 11.43 124.3C7.74 128.5 6.58 129.56 6.45 131.74Z" /></g></g></svg>