<svg xmlns="http://www.w3.org/2000/svg" viewBox="0 0 158 300" width="256" height="486"><style>tspan { white-space:pre }.shp0 { fill: #ffffff } .shp1 { fill: #ffff00 } .shp2 { fill: none;stroke: #000000;stroke-width: 0.5 } .shp3 { fill: #80c41c;stroke: #000000;stroke-width: 0.5 } </style><g ></g><g ><g ><path class="shp0" d="M73.43 289.51C79.78 288.46 86.23 287.85 92.65 287.52C100.57 287.11 108.51 287.1 116.43 287.2C118.94 287.23 123.35 288.28 124.54 285.68C125.65 283.25 122.13 280.1 120.32 278.84C114.8 275 101.8 280.28 98.7 274.83C97.81 273.26 97.81 271.41 97.85 269.64C98.24 255.02 100.48 240.5 101.81 225.92C103.8 204.01 103.71 181.96 101.9 160.03C101.03 149.57 99.77 139.14 99.24 128.66C98.79 119.82 96.94 108.56 105.13 102.04C108.87 99.06 112.2 98.79 118.03 93.31C126.34 85.51 132.07 76.5 132.07 76.5C133.61 74.08 134.97 71.46 138.32 69.67C141 68.24 144.25 68.12 147.21 67.26C155.73 64.78 160.73 54.68 156.33 47.58C153.77 43.45 148.85 40.87 146.35 36.71C143.74 32.35 143.78 26.33 139.25 23.55C135.75 21.4 131.03 22.24 126.97 21.2C120.8 19.63 116.92 14.05 111.24 11.36C106.3 9.02 100.31 9.07 94.98 10.53C89.65 11.99 84.87 14.75 80.32 17.67C79.37 18.28 78.37 18.92 77.22 19.02C75.09 19.2 73.29 17.45 72.6 15.6C71.91 13.75 71.95 11.75 71.42 9.86C69.57 3.21 60.88 -0.29 53.43 0.72C45.98 1.73 39.64 6.07 33.95 10.56C31.45 12.53 28.91 14.6 25.79 15.58C21.56 16.91 16.94 16.05 12.47 16.01C8 15.97 2.85 17.24 1.05 20.97C-1.03 25.26 2.6 30.15 6.86 32.79C11.12 35.43 16.27 37.02 19.67 40.55C20.27 41.17 20.82 41.9 20.83 42.72C20.85 43.8 19.95 44.69 19.07 45.41C16.02 47.93 12.51 49.98 8.72 51.45C7.22 52.03 5.63 52.55 4.51 53.63C2.72 55.36 2.67 58.07 3.29 60.38C4.41 64.56 7.42 68.29 11.47 70.51C15.27 72.59 19.75 73.3 23.92 74.67C36.59 78.83 45.25 90.77 48.56 96.24C54.19 105.52 52.81 116.97 53.05 127.21C53.35 140.01 53.65 152.81 53.95 165.62C54.54 190.95 55.13 216.27 55.72 241.6C55.92 250 56.12 258.46 57.89 266.7C59.12 272.42 60.75 279.27 56.14 283.31C53.85 285.32 50.58 286 47.7 287.22C43.25 289.12 39.57 292.49 37.52 296.56C37.1 297.39 36.8 298.48 37.51 299.13C37.92 299.5 38.53 299.58 39.1 299.59C41.99 299.65 44.66 298.31 47.25 297.14C55.55 293.38 64.39 291 73.43 289.51Z" /><g ><g ><path class="shp1" d="M95.03 130.24C95.64 173.64 95.95 195.82 95.03 216.48C94.34 232.4 92.82 254.89 89 282.06L89 282.24C86.94 282.42 84.8 282.73 82.59 283.03L82.59 282.91C83.28 274.1 84.04 261.64 84.57 246.57C85.56 217.15 84.95 195.15 84.19 169.08C83.66 150.42 82.74 126.35 81.06 98.21L81.06 97.6C83.35 97.54 85.41 97.24 87.39 96.81C90.37 96.2 92.65 95.47 94.41 94.8C94.57 103.38 94.8 115.6 95.03 130.24Z" /><path class="shp1" d="M84.19 169.08C84.95 195.15 85.56 217.15 84.57 246.57C84.04 261.64 83.27 274.1 82.59 282.91L82.59 283.03C81.98 283.15 81.37 283.21 80.76 283.33C77.33 283.88 74.05 284.61 70.99 285.4C72.36 271.24 73.28 256.71 74.04 242C76.56 190.64 75.03 142.14 70.91 96.86C72.89 96.19 74.88 97.29 79 97.53C79.69 97.59 80.37 97.59 81.06 97.59L81.06 98.2C82.75 126.35 83.66 150.42 84.19 169.08Z" /><path class="shp1" d="M70.92 96.88C75.04 142.16 76.57 190.66 74.05 242.02C73.29 256.73 72.37 271.25 71 285.42C68.86 285.91 66.88 286.51 64.97 287.12C66.04 282.32 67.34 242.75 68.33 98.77C69.09 98.41 69.17 97.62 70.39 97.07C70.54 97 70.77 96.88 70.92 96.88Z" /><path class="shp1" d="M67.87 99.07C68.02 99.01 68.18 98.95 68.33 98.77C67.34 242.75 66.04 282.32 64.97 287.12C64.82 287.18 64.66 287.18 64.51 287.24C63.21 282.32 61.76 235.4 60.7 198.99C60.32 187.32 59.33 151.1 58.87 103.69C58.87 100.65 58.79 98.1 58.79 96.03L59.1 96.03C64.05 99.43 66.49 99.55 67.87 99.07Z" /></g><g ><path class="shp2" d="M58.79 94.63C58.79 95.06 58.79 95.54 58.79 96.03C58.79 98.1 58.87 100.65 58.87 103.69C59.33 151.1 60.32 187.32 60.7 198.99C61.77 235.4 63.22 282.32 64.51 287.24C64.59 287.54 64.66 287.67 64.74 287.67C64.82 287.67 64.89 287.49 64.97 287.12C66.04 282.32 67.34 242.75 68.33 98.77L68.33 98.71" /><path class="shp2" d="M70.84 96.15C70.84 96.39 70.92 96.64 70.92 96.88C75.04 142.16 76.57 190.66 74.05 242.02C73.29 256.73 72.37 271.25 71 285.42C71 285.72 70.92 286.09 70.92 286.39" /><path class="shp2" d="M81.07 98.21C82.75 126.35 83.66 150.42 84.2 169.08C84.96 195.15 85.57 217.15 84.58 246.57C84.05 261.64 83.28 274.1 82.6 282.91" /><path class="shp2" d="M94.42 93.66C94.42 94.02 94.42 94.45 94.42 94.81C94.57 103.38 94.8 115.6 95.03 130.24C95.64 173.64 95.95 195.82 95.03 216.48C94.34 232.4 92.82 254.89 89 282.06" /><path class="shp2" d="M45.44 295.5C49.86 293.07 56.27 289.91 64.51 287.23C64.66 287.17 64.82 287.17 64.97 287.11C66.88 286.5 68.86 285.89 71 285.41C74.05 284.62 77.33 283.89 80.77 283.34C81.38 283.22 81.99 283.16 82.6 283.04C84.81 282.74 86.95 282.43 89.01 282.25C97.63 281.4 105.11 281.7 110.75 282.19" /><path class="shp2" d="M59.09 96.03C64.05 99.43 66.49 99.56 67.86 99.07C68.01 99.01 68.17 98.95 68.32 98.77C69.08 98.41 69.16 97.62 70.38 97.07C70.53 97.01 70.76 96.89 70.91 96.89C72.89 96.22 74.88 97.32 79 97.56C79.69 97.62 80.37 97.62 81.06 97.62C83.35 97.56 85.41 97.26 87.39 96.83C90.37 96.22 92.65 95.49 94.41 94.82C94.49 94.82 94.49 94.76 94.56 94.76" /></g></g><path class="shp2" d="M12.57 56.53C16.34 56.81 36.69 58.6 51.19 72.86C63.76 85.22 63.73 98.89 63.59 102.49" /><path class="shp2" d="M76.95 105.91C73.93 89.01 67.96 75.89 63.12 67.16C59.33 60.33 54.37 51.55 44.52 41.71C35.32 32.52 25.74 26.28 18.77 22.34" /><path class="shp2" d="M53.1 10.57C62.36 29.06 71.43 50.94 78.37 75.91C82.98 92.49 85.99 108.04 87.91 122.25" /><path class="shp2" d="M90.3 138.2C89.85 128.53 90.07 99 116.05 72.86C127.85 61 141.14 53.67 150.86 49.31" /><path class="shp2" d="M129.87 26.52C119.51 36.11 106.72 49.96 96.01 68.3C83.47 89.79 78.53 109.31 76.46 123" /><path class="shp2" d="M111.28 17.78C102.91 23.5 90.72 33.24 81.24 47.79C79.16 50.99 73.19 60.59 68.37 79.7C64.95 93.27 61.59 113.69 64.08 139.34" /><path class="shp2" d="M73.77 273.68C73.94 272.49 74.55 269.59 77.42 266.97C79.15 265.39 81.06 264.5 82.31 264.03" /><path class="shp2" d="M68.07 261.86C68.25 261.22 68.58 260.37 69.2 259.47C70.03 258.24 71.06 257.41 71.79 256.91" /><path class="shp2" d="M76.11 251.21C76.48 250.21 77.12 248.89 78.26 247.51C79.9 245.5 81.85 244.23 83.15 243.52" /><path class="shp2" d="M86.6 241.61C86.88 240.83 87.53 239.38 89.1 238C90.4 236.86 91.8 236.23 92.68 235.91" /><path class="shp2" d="M77.38 228.32C77.44 226.79 77.81 223.82 79.99 220.72C81.44 218.67 83.17 217.29 84.41 216.45" /><path class="shp2" d="M69.08 236.77C69.26 235.62 69.8 233.65 71.58 231.74C72.25 231.02 72.96 230.46 73.61 230.03" /><path class="shp2" d="M63.81 244.81C63.84 244.46 64.15 244.16 64.57 244.06C64.98 243.97 65.42 244.08 65.69 244.35" /><path class="shp2" d="M62.9 206.71C62.84 206.2 62.58 203.61 64.39 201.56C65.15 200.7 66.01 200.24 66.59 199.99" /><path class="shp2" d="M86.8 193.78C87.25 192.1 88.04 189.94 89.5 187.57C91.04 185.08 92.82 183.18 94.28 181.84" /><path class="shp2" d="M77.14 194.36C76.98 193.63 76.39 190.51 78.86 187.58C80.43 185.71 82.5 184.81 83.52 184.43" /><path class="shp2" d="M85.69 156.56C86.08 154.62 86.72 152.39 87.75 149.97C89.33 146.29 91.35 143.33 93.16 141.11" /><path class="shp2" d="M76.47 169.35C76.96 167.92 77.67 166.28 78.69 164.54C79.36 163.41 80.06 162.39 80.76 161.5" /><path class="shp2" d="M66.3 168.08C65.16 169.48 63.7 171.61 62.73 174.41C61.49 178.01 61.59 181.12 61.84 183.02" /><path class="shp2" d="M82.03 139.72C81.22 140.03 78.73 141.08 77.14 143.65C75.84 145.75 75.83 147.75 75.88 148.59" /><path class="shp2" d="M67.09 142.25C66.08 143.02 64.34 144.58 63.09 147.19C61.17 151.2 61.69 155.03 61.91 156.31" /><path class="shp2" d="M80.28 123.13C79.17 124.5 78.01 126.1 76.94 127.94C76.24 129.14 75.67 130.28 75.19 131.36" /><path class="shp2" d="M85.84 126.55C85.15 122.2 84.85 114.83 89.18 107.05C90.34 104.97 91.66 103.16 92.99 101.6" /><g ><path class="shp3" d="M17.1 59.76C12.98 59.69 9.44 62.93 9.95 63.75C10.23 64.21 11.66 63.71 17.1 63.37C21.54 63.09 22.86 63.29 23.06 62.8C23.4 61.98 20.41 59.81 17.1 59.76Z" /><path class="shp3" d="M29.86 62.04C25.74 61.97 22.2 65.21 22.71 66.03C22.99 66.49 24.42 65.99 29.86 65.65C34.3 65.37 35.62 65.57 35.82 65.08C36.15 64.26 33.16 62.1 29.86 62.04Z" /><path class="shp3" d="M45.4 10.57C41.28 10.5 37.74 13.74 38.25 14.56C38.53 15.02 39.96 14.52 45.4 14.18C49.84 13.9 51.16 14.1 51.36 13.61C51.69 12.79 48.7 10.62 45.4 10.57Z" /><path class="shp3" d="M50.6 20.25C46.48 20.18 42.94 23.42 43.45 24.24C43.73 24.7 45.16 24.2 50.6 23.86C55.04 23.58 56.36 23.78 56.56 23.29C56.89 22.48 53.9 20.31 50.6 20.25Z" /><path class="shp3" d="M56.46 28.73C53.68 28.68 51.3 30.87 51.64 31.42C51.83 31.73 52.8 31.39 56.46 31.16C59.45 30.97 60.34 31.11 60.48 30.78C60.71 30.23 58.69 28.77 56.46 28.73Z" /><path class="shp3" d="M41.87 69.82C37.75 69.75 34.21 72.99 34.72 73.81C35 74.27 36.43 73.77 41.87 73.43C46.31 73.15 47.63 73.35 47.83 72.86C48.17 72.05 45.18 69.88 41.87 69.82Z" /><path class="shp3" d="M47.17 80.61C43.05 80.73 39.46 77.53 39.94 76.71C40.21 76.25 41.65 76.73 47.1 77C51.55 77.22 52.86 77.01 53.07 77.5C53.43 78.31 50.48 80.51 47.17 80.61Z" /><path class="shp3" d="M37.46 45.13C33.34 45.25 29.75 42.05 30.23 41.23C30.5 40.77 31.94 41.25 37.39 41.52C41.84 41.74 43.15 41.53 43.36 42.02C43.72 42.83 40.77 45.03 37.46 45.13Z" /><path class="shp3" d="M27.93 36.77C23.81 36.89 20.22 33.69 20.7 32.87C20.97 32.41 22.41 32.89 27.86 33.16C32.31 33.38 33.62 33.17 33.83 33.66C34.18 34.47 31.23 36.67 27.93 36.77Z" /><path class="shp3" d="M101.61 45.13C99.51 42.3 101.32 38.26 102.46 38.21C103.1 38.18 103.26 39.42 105.55 43.36C107.43 46.58 108.29 47.4 107.85 47.78C107.13 48.41 103.29 47.39 101.61 45.13Z" /><path class="shp3" d="M95.55 55.49C93.45 52.66 95.26 48.62 96.4 48.57C97.04 48.54 97.2 49.78 99.49 53.72C101.37 56.94 102.23 57.76 101.79 58.14C101.07 58.77 97.23 57.75 95.55 55.49Z" /><path class="shp3" d="M88.88 63.89C86.78 61.06 88.59 57.02 89.73 56.97C90.37 56.94 90.53 58.18 92.82 62.12C94.7 65.34 95.56 66.16 95.12 66.54C94.4 67.17 90.56 66.15 88.88 63.89Z" /><path class="shp3" d="M95.55 84.21C93.45 81.38 95.26 77.34 96.4 77.29C97.04 77.26 97.2 78.5 99.49 82.44C101.37 85.66 102.23 86.48 101.79 86.86C101.07 87.49 97.23 86.48 95.55 84.21Z" /><path class="shp3" d="M128.63 52.98C126.53 50.15 128.34 46.11 129.48 46.06C130.12 46.03 130.28 47.27 132.57 51.21C134.45 54.43 135.31 55.25 134.87 55.63C134.15 56.26 130.31 55.25 128.63 52.98Z" /><path class="shp3" d="M136.95 48.1C134.85 45.27 136.66 41.23 137.8 41.18C138.44 41.15 138.6 42.39 140.89 46.33C142.77 49.55 143.63 50.37 143.19 50.75C142.47 51.38 138.63 50.37 136.95 48.1Z" /><path class="shp3" d="M104.57 71.87C102.47 69.04 104.28 65 105.42 64.95C106.06 64.92 106.22 66.16 108.51 70.1C110.39 73.32 111.25 74.14 110.81 74.52C110.09 75.15 106.25 74.13 104.57 71.87Z" /><path class="shp3" d="M110.08 36.77C107.98 33.94 109.79 29.9 110.93 29.85C111.57 29.82 111.73 31.06 114.02 35C115.9 38.22 116.76 39.04 116.32 39.42C115.6 40.05 111.77 39.04 110.08 36.77Z" /><path class="shp3" d="M84.06 31.35C81.96 28.52 83.77 24.48 84.91 24.43C85.55 24.4 85.71 25.64 88 29.58C89.88 32.8 90.74 33.62 90.3 34C89.58 34.63 85.74 33.62 84.06 31.35Z" /><path class="shp3" d="M94.28 20.29C92.18 17.46 93.99 13.42 95.13 13.37C95.77 13.34 95.93 14.58 98.22 18.52C100.1 21.74 100.96 22.56 100.52 22.94C99.8 23.57 95.97 22.55 94.28 20.29Z" /><path class="shp3" d="M13.24 27.22C9.12 27.34 5.53 24.14 6.01 23.32C6.28 22.86 7.72 23.34 13.17 23.61C17.62 23.83 18.93 23.62 19.14 24.11C19.5 24.92 16.55 27.12 13.24 27.22Z" /><path class="shp3" d="M43.06 52.33C38.94 52.45 35.35 49.25 35.83 48.43C36.1 47.97 37.54 48.45 42.99 48.72C47.44 48.94 48.75 48.73 48.96 49.22C49.32 50.04 46.37 52.24 43.06 52.33Z" /><path class="shp3" d="M29.02 52.97C27.94 49.8 23.04 48.01 22.2 48.63C21.73 48.98 22.73 49.93 24.68 53.99C26.27 57.31 26.4 58.37 27.05 58.38C28.12 58.4 29.88 55.51 29.02 52.97Z" /><path class="shp3" d="M39.15 56.43C38.07 53.26 33.17 51.47 32.33 52.09C31.86 52.44 32.86 53.39 34.81 57.45C36.4 60.77 36.53 61.83 37.18 61.84C38.25 61.87 40.01 58.97 39.15 56.43Z" /><path class="shp3" d="M50.73 64.28C49.8 61.57 45.61 60.03 44.88 60.56C44.47 60.86 45.34 61.67 47 65.15C48.36 67.99 48.48 68.9 49.03 68.92C49.96 68.94 51.48 66.46 50.73 64.28Z" /><path class="shp3" d="M61.58 74.84C63.36 72.41 61.79 68.95 60.81 68.91C60.26 68.89 60.13 69.95 58.19 73.33C56.6 76.09 55.86 76.8 56.24 77.12C56.87 77.67 60.15 76.79 61.58 74.84Z" /><path class="shp3" d="M31.56 21.83C33.34 19.4 31.77 15.94 30.79 15.9C30.24 15.88 30.11 16.94 28.17 20.32C26.58 23.08 25.84 23.79 26.22 24.11C26.85 24.66 30.13 23.78 31.56 21.83Z" /><path class="shp3" d="M40.41 29.05C42.19 26.62 40.62 23.16 39.64 23.12C39.09 23.1 38.96 24.16 37.02 27.54C35.43 30.3 34.69 31.01 35.07 31.33C35.7 31.88 38.98 31 40.41 29.05Z" /><path class="shp3" d="M50.17 37.42C51.95 34.99 50.38 31.53 49.4 31.49C48.85 31.47 48.72 32.53 46.78 35.91C45.19 38.67 44.45 39.38 44.83 39.7C45.46 40.25 48.74 39.37 50.17 37.42Z" /><path class="shp3" d="M57.14 45.79C58.92 43.36 57.35 39.9 56.37 39.86C55.82 39.84 55.69 40.9 53.75 44.28C52.16 47.04 51.42 47.75 51.8 48.07C52.43 48.62 55.71 47.74 57.14 45.79Z" /><path class="shp3" d="M63.39 53.37C65.17 50.94 63.6 47.48 62.62 47.44C62.07 47.42 61.94 48.48 60 51.86C58.41 54.62 57.67 55.33 58.05 55.65C58.68 56.2 61.96 55.32 63.39 53.37Z" /><path class="shp3" d="M61.14 10.94C62.92 8.51 61.35 5.05 60.37 5.01C59.82 4.99 59.69 6.05 57.75 9.43C56.16 12.19 55.42 12.9 55.8 13.22C56.43 13.77 59.71 12.89 61.14 10.94Z" /><path class="shp3" d="M65.93 19.52C67.71 17.09 66.14 13.63 65.16 13.59C64.61 13.57 64.48 14.63 62.54 18.01C60.95 20.77 60.21 21.48 60.59 21.8C61.22 22.35 64.5 21.47 65.93 19.52Z" /><path class="shp3" d="M69.7 28.96C71.48 26.53 69.91 23.07 68.93 23.03C68.38 23.01 68.25 24.07 66.31 27.45C64.72 30.21 63.98 30.92 64.36 31.24C64.98 31.79 68.27 30.91 69.7 28.96Z" /><path class="shp3" d="M72.82 37.88C74.6 35.45 73.03 31.99 72.05 31.95C71.5 31.93 71.37 32.99 69.43 36.37C67.84 39.13 67.1 39.84 67.48 40.16C68.11 40.71 71.39 39.82 72.82 37.88Z" /><path class="shp3" d="M77.88 45.79C79.66 43.36 78.09 39.9 77.11 39.86C76.56 39.84 76.43 40.9 74.49 44.28C72.9 47.04 72.16 47.75 72.54 48.07C73.17 48.62 76.45 47.74 77.88 45.79Z" /><path class="shp3" d="M111.08 26.25C114.38 27.25 118.4 25.45 118.29 24.68C118.23 24.24 116.89 24.32 112.38 23.34C108.7 22.54 107.7 22.08 107.37 22.43C106.81 23.01 108.44 25.44 111.08 26.25Z" /><path class="shp3" d="M132.43 33.37C135.73 34.37 139.75 32.57 139.64 31.8C139.58 31.36 138.24 31.44 133.73 30.46C130.05 29.66 129.05 29.2 128.72 29.55C128.15 30.12 129.78 32.56 132.43 33.37Z" /><path class="shp3" d="M122.66 42.85C125.96 43.85 129.98 42.05 129.87 41.28C129.81 40.84 128.47 40.92 123.96 39.94C120.28 39.14 119.28 38.68 118.95 39.03C118.38 39.61 120.01 42.05 122.66 42.85Z" /><path class="shp3" d="M117.92 49.26C121.22 50.26 125.24 48.46 125.13 47.69C125.07 47.25 123.73 47.33 119.22 46.35C115.54 45.55 114.54 45.09 114.21 45.44C113.65 46.02 115.28 48.46 117.92 49.26Z" /><path class="shp3" d="M112.41 58.35C115.71 59.35 119.73 57.55 119.62 56.78C119.56 56.34 118.22 56.42 113.71 55.44C110.03 54.64 109.03 54.18 108.7 54.53C108.13 55.11 109.76 57.54 112.41 58.35Z" /><path class="shp3" d="M109.23 92.37C112.53 93.37 116.55 91.57 116.44 90.8C116.38 90.36 115.04 90.44 110.53 89.46C106.85 88.66 105.85 88.2 105.52 88.55C104.95 89.13 106.58 91.57 109.23 92.37Z" /><path class="shp3" d="M118.83 79.11C122.13 80.11 126.15 78.31 126.04 77.54C125.98 77.1 124.64 77.18 120.13 76.2C116.45 75.4 115.45 74.94 115.12 75.29C114.56 75.87 116.19 78.31 118.83 79.11Z" /><path class="shp3" d="M141.61 62.28C144.91 63.28 148.93 61.48 148.82 60.71C148.76 60.27 147.42 60.35 142.91 59.37C139.23 58.57 138.23 58.11 137.9 58.46C137.33 59.04 138.96 61.47 141.61 62.28Z" /><path class="shp3" d="M98.95 36.55C102.25 37.55 106.27 35.75 106.16 34.98C106.1 34.54 104.76 34.62 100.25 33.64C96.57 32.84 95.57 32.38 95.24 32.73C94.67 33.31 96.3 35.74 98.95 36.55Z" /><path class="shp3" d="M82.38 64.31C84.16 61.88 82.59 58.42 81.61 58.38C81.06 58.36 80.93 59.42 78.99 62.8C77.4 65.56 76.66 66.27 77.04 66.59C77.67 67.13 80.95 66.25 82.38 64.31Z" /><path class="shp3" d="M76.83 86.11C77.96 84.57 76.97 82.38 76.34 82.35C75.99 82.34 75.91 83.01 74.68 85.15C73.67 86.9 73.21 87.35 73.45 87.55C73.84 87.9 75.92 87.34 76.83 86.11Z" /></g></g></g></svg>