<svg xmlns="http://www.w3.org/2000/svg" viewBox="0 0 250 262" width="256" height="268"><style>tspan { white-space:pre }.shp0 { fill: #ffffff } .shp1 { fill: #333333 } .shp2 { fill: #000000 } .shp3 { fill: none;stroke: #000000;stroke-width: 0.25 } .shp4 { fill: none;stroke: #ffffff;stroke-width: 2 } .shp5 { fill: none;stroke: #ffffff;stroke-width: 0.25 } .shp6 { fill: none;stroke: #ffffff } </style><g ></g><g ><g ><path class="shp0" d="M1.1 194.47C2.52 188.15 9.86 183.2 24.46 173.56C34.52 166.92 44.44 159.54 55.72 155.08C67.09 150.58 79.47 148.6 91.67 149.48C97.42 149.89 103.71 150.8 108.54 147.65C111.9 145.46 113.85 141.71 115.75 138.18C119.36 131.49 123.43 124.84 129.07 119.65C133.89 115.22 140.59 112.84 144.14 107.16C152.6 93.61 145.44 74.65 143.32 69.04C137.73 54.23 131.11 52.87 119.96 30.1C112.34 14.54 113.57 11.37 114.63 10.02C117.24 6.7 123.83 10.88 137.88 12.57C145.34 13.47 157.5 14.92 170.18 10.89C183.42 6.68 187.5 -0.43 198.16 1.05C200.2 1.33 205.56 2.08 207.84 5.97C210.99 11.33 206.45 19.53 204.1 23.77C201.35 28.75 198.33 31.85 197.7 32.62C182.7 51.07 184.16 80.06 199.97 97.68C209.66 108.47 220.57 117.35 229.07 129.3C237.43 141.06 244 154.19 247.36 168.27C252.8 191.08 249.06 216.73 234.21 234.89C221.75 250.12 202.48 258.93 182.9 260.9C170.21 262.18 156.97 260.67 145.71 254.69C137.92 250.55 131.32 244.4 125.84 237.48C121.97 232.59 117.15 226.63 111.01 227.76C104.97 228.87 102.55 235.97 98.9 240.9C93.21 248.58 82.93 251.72 73.39 251.22C59.15 250.47 44.17 243.87 32.24 236.29C28.91 234.16 -3.24 213.74 1.1 194.47Z" /><g ><g ><path class="shp1" d="M242.06 177.2C242.55 183.89 241.96 190.14 240.68 195.84L231.48 196.04C222.72 200.76 207.28 207.7 186.13 210.65C152.24 215.32 125.33 206.76 115.25 203.07L114.22 202.73C114.32 202.34 114.47 201.99 114.56 201.65C120.17 184.48 121.5 160.04 113.77 153.79C116.18 148.92 118.39 145.43 119.38 143.85C132.56 123.04 144.81 124.52 151.06 105.63C158.14 84.13 148.94 62.05 146.19 56.1C136.45 35.1 119.87 25.26 122.58 21.13C124.45 18.38 132.22 22.8 144.52 24.38C173.69 28.17 193.51 11.69 197.5 17.2C200.45 21.28 188.35 28.22 182.74 47.99C182.3 49.56 176.3 73.91 186.77 95.06C192.82 107.26 198.23 106.28 212 121.08C222.63 132.54 240.14 151.48 242.06 177.2Z" /><path class="shp1" d="M231.48 196.04L240.68 195.84C236.5 214.68 225.23 227.22 224.2 228.4C199.75 254.91 164.44 249.94 161.58 249.5C159.56 249.16 124.25 243.01 110.13 213.64C111.85 209.75 113.13 205.97 114.21 202.72L115.24 203.06C125.32 206.75 152.23 215.31 186.12 210.64C207.28 207.7 222.73 200.77 231.48 196.04Z" /><path class="shp1" d="M113.77 153.79C121.49 160.04 120.16 184.48 114.56 201.65C114.46 201.99 114.31 202.34 114.22 202.73C113.14 205.98 111.86 209.76 110.14 213.65C109.65 212.62 109.21 211.58 108.76 210.5C99.85 188.47 107.48 166.43 113.77 153.79Z" /><path class="shp1" d="M112.15 152.81C112.74 153.06 113.28 153.4 113.77 153.79C107.47 166.43 99.85 188.47 108.75 210.5C109.19 211.58 109.64 212.62 110.13 213.65C106.24 222.55 100 232 88.73 237.36C69.69 246.36 50.31 237.02 43.43 233.72C32.21 228.31 21.49 219.75 14.51 209.32C12.39 206.12 9.1 201.15 9.69 197.07C9.89 195.99 10.23 195.1 10.72 194.41C11.11 193.87 11.61 193.38 12.2 192.98C12.1 193.28 12.15 193.52 12.2 193.62C12.64 194.65 14.86 194.6 16.33 194.55C28.87 194.06 49.09 188.84 56.42 186.88C82.15 173.45 111.86 156.97 109.99 152.45C109.99 152.45 109.99 152.4 109.94 152.4L109.94 152.35C110.67 152.36 111.41 152.46 112.15 152.81Z" /><path class="shp2" d="M109.99 152.46C111.86 156.99 82.15 173.46 56.42 186.89C49.09 188.86 28.87 194.07 16.33 194.56L23.91 191.17C24.5 191.22 24.99 191.27 25.34 191.32C39.9 192.8 58.94 183.3 75.81 174.89C91.85 166.87 99.42 158.81 104.63 154.87L109.99 152.46Z" /><path class="shp2" d="M109.94 152.41C109.99 152.41 109.99 152.46 109.99 152.46L104.63 154.87C106.64 153.35 108.26 152.41 109.94 152.41Z" /><path class="shp2" d="M109.94 152.36L109.94 152.41C108.27 152.41 106.64 153.34 104.63 154.87L23.91 191.17C20.96 190.92 15.45 190.68 12.2 192.99C12.59 191.66 15.2 188.32 29.22 179.51C49.04 167.07 69.16 154.77 98.08 152.16C108.12 151.28 109.59 151.87 109.94 152.36Z" /><path class="shp2" d="M23.91 191.17L104.63 154.87C99.42 158.81 91.84 166.87 75.81 174.89C58.94 183.3 39.9 192.79 25.34 191.32C24.99 191.27 24.5 191.22 23.91 191.17Z" /><path class="shp2" d="M23.91 191.17L16.33 194.56C14.85 194.61 12.64 194.66 12.2 193.63C12.15 193.53 12.1 193.29 12.2 192.99C15.44 190.68 20.95 190.93 23.91 191.17Z" /></g><g ><path class="shp3" d="M110.13 213.65C124.25 243.02 159.56 249.16 161.58 249.51C164.43 249.95 199.75 254.92 224.2 228.41C225.23 227.23 236.5 214.69 240.68 195.85C241.96 190.14 242.55 183.9 242.06 177.21C240.14 151.48 222.63 132.55 212.01 121.09C198.24 106.28 192.83 107.27 186.78 95.07C176.3 73.92 182.3 49.57 182.75 48C188.36 28.23 200.46 21.29 197.51 17.21C193.53 11.7 173.7 28.18 144.53 24.39C132.23 22.82 124.46 18.39 122.59 21.14C119.88 25.27 136.46 35.11 146.2 56.11C148.95 62.06 158.15 84.15 151.07 105.64C144.82 124.53 132.58 123.05 119.39 143.86C118.41 145.43 116.19 148.93 113.78 153.8" /><path class="shp4" d="M129.07 176.12C137.68 179.81 160.8 188.37 189.87 183.65C208.02 180.75 221.3 173.76 228.78 169.04" /><path class="shp5" d="M129.07 182.27C137.68 185.96 160.8 194.52 189.87 189.8C208.02 186.9 221.3 179.91 228.78 175.19" /><path class="shp6" d="M115.25 203.08C125.33 206.77 152.24 215.33 186.13 210.66C207.28 207.71 222.73 200.77 231.48 196.05" /><path class="shp3" d="M109.94 152.41C109.99 152.41 109.99 152.46 109.99 152.46C111.86 156.99 82.15 173.46 56.42 186.89C49.09 188.86 28.87 194.07 16.33 194.56C14.85 194.61 12.64 194.66 12.2 193.63C12.15 193.53 12.1 193.29 12.2 192.99C12.59 191.66 15.2 188.32 29.22 179.51C49.04 167.07 69.16 154.77 98.08 152.16C108.11 151.27 109.59 151.86 109.93 152.36" /><path class="shp3" d="M12.2 192.99C11.61 193.38 11.12 193.88 10.72 194.42C10.23 195.11 9.88 195.99 9.69 197.08C9.1 201.16 12.4 206.13 14.51 209.33C21.49 219.76 32.22 228.32 43.43 233.73C50.32 237.03 69.7 246.37 88.73 237.37C99.99 232.01 106.24 222.56 110.13 213.66C111.85 209.77 113.13 205.99 114.21 202.74C114.31 202.35 114.46 202 114.55 201.66C120.16 184.49 121.49 160.05 113.76 153.8C113.27 153.41 112.73 153.06 112.14 152.82C111.4 152.48 110.66 152.38 109.93 152.38L109.93 152.43C108.26 152.43 106.63 153.36 104.62 154.89C99.41 158.83 91.83 166.89 75.8 174.91C58.93 183.32 39.89 192.81 25.33 191.34C24.99 191.29 24.49 191.24 23.9 191.19" /><path class="shp6" d="M30.15 200.86C37.43 200.96 63.3 200.61 83.72 186.25C91.34 180.89 96.02 175.08 98.92 170.56" /><path class="shp5" d="M33.99 205.49C41.27 205.59 67.14 205.24 87.56 190.88C95.18 185.52 99.86 179.71 102.76 175.19" /><path class="shp6" d="M127.45 24.57C132.12 27.23 142.4 32.24 156.13 32.05C175.17 31.8 188.05 21.82 191.89 18.62" /></g></g></g></g></svg>