<svg xmlns="http://www.w3.org/2000/svg" viewBox="0 0 230 213" width="256" height="237"><style>tspan { white-space:pre }.shp0 { fill: #ffffff } .shp1 { fill: #4d1f03;stroke: #000000;stroke-linecap:round;stroke-linejoin:round;stroke-width: 0.5 } .shp2 { fill: #beac83 } .shp3 { fill: none;stroke: #000000;stroke-linecap:round;stroke-linejoin:round;stroke-width: 0.5 } .shp4 { fill: #000000 } .shp5 { fill: #80c41c } .shp6 { fill: #fe330a } .shp7 { fill: #fea621 } .shp8 { fill: #000000;stroke: #000000;stroke-linecap:round;stroke-linejoin:round;stroke-width: 0.5 } .shp9 { fill: #63300f;stroke: #000000;stroke-linecap:round;stroke-linejoin:round;stroke-width: 0.5 } .shp10 { fill: #4a007d } </style><g ></g><g ><g ><path class="shp0" d="M33.81 203.97C52.77 218.25 68.66 197.37 75.61 181.7C79.69 172.5 82.72 162.85 87.2 153.84C91.18 161.62 92.94 170.52 92.22 179.22C91.72 185.34 90.05 191.66 92 197.49C94.58 205.22 102.76 209.64 110.67 211.58C116.31 212.96 122.4 213.44 127.81 211.34C133.22 209.24 137.73 204.07 137.63 198.26C137.47 188.13 124.9 182.48 122.27 172.7C121.26 168.93 121.84 164.94 121.8 161.04C121.71 153.77 119.32 146.54 115.06 140.65C114.27 139.56 113.39 138.14 114.09 137C114.72 135.97 116.2 135.96 117.39 136.14C124.52 137.26 127.8 140.76 132.11 140.11C133.32 139.93 134.02 139.45 139 134.37C148.07 125.11 147.65 124.76 150.94 121.9C156.98 116.67 158.59 117.69 163.63 112.6C168.62 107.56 167.43 106.16 170.79 103.28C175.92 98.87 179.6 101.38 197.66 98.71C212.47 96.52 209.84 94.86 217.34 94.71C219.82 94.66 223.61 94.77 226.29 92.22C226.47 92.05 229.38 89.19 229.1 85.55C228.91 83.15 227.51 82.52 227.52 79.93C227.54 77.32 228.97 76.79 228.75 75.36C228.46 73.54 225.74 72.08 209.61 69.56C201.4 68.28 198.56 68.1 196.97 69.91C195.02 72.12 197.21 74.69 195.39 77.11C192.05 81.55 180.56 78.4 175.19 76.93C171.72 75.98 169.73 75.44 167.25 74.02C160.29 70.03 160.05 64.32 155.37 60.4C143.6 50.53 128.83 55.04 127.42 49.57C126.26 45.05 136.33 41.95 138.6 30.36C138.92 28.7 139.62 24.91 138.25 20.58C136.27 14.3 131.26 11 126.72 8C122.79 5.4 116.73 1.41 107.86 0.66C104.92 0.41 90.45 -0.42 80.26 10.44C73.46 17.69 72.34 26.14 71.88 29.65C71.14 35.28 70.09 43.16 74.67 48.16C78.43 52.26 83.72 51.97 84.8 56.19C85.57 59.22 83.53 61.96 83.4 62.13C80.2 66.3 72.99 65.57 67.33 64.92C60.86 64.18 58.68 62.81 50.91 60.73C39.52 57.67 29.21 55.36 18.18 61.42C11.6 65.04 6.29 70.93 3.37 77.85C-1.31 88.96 0.28 101.56 1.03 113.6C1.59 122.55 1.64 131.59 3.53 140.35C7.08 156.8 20.22 171.82 37.63 173.91C43.1 174.57 48.57 173.75 48.81 174.96C49.04 176.11 44.42 178.67 39.38 179.5C31.63 180.77 27.5 177.19 25.06 179.5C22.79 181.65 24.31 186.68 25.41 190.33C26.53 194 28.28 199.81 33.81 203.97Z" /><path class="shp1" d="M89.69 46.85C89.52 46.97 86.23 49.31 82.92 47.82C81.31 47.09 79.41 45.33 79.53 43.55C79.63 42.13 80.92 41.65 80.71 40.31C80.54 39.28 79.75 39.3 79.24 37.95C78.68 36.47 79.1 35.04 79.24 34.56C79.67 33.09 80.25 33.2 80.86 31.76C81.57 30.08 80.92 29.6 81.45 26.75C81.68 25.5 81.86 24.53 82.48 23.36C83.27 21.86 83.86 21.8 84.4 20.41C85.03 18.77 84.47 18.17 85.14 17.46C85.96 16.58 86.95 17.34 88.82 16.58C90.15 16.03 90.99 15.1 91.91 14.08C93.24 12.61 92.93 12.31 93.68 11.72C95.64 10.18 97.63 12.26 100.46 11.13C103.07 10.09 103.19 7.58 105.17 7.59C106.75 7.6 107.21 9.2 108.85 9.06C110.33 8.94 110.42 7.61 111.94 7.14C113.94 6.53 114.77 8.53 118.72 9.64C121.69 10.48 123.39 9.95 124.17 11.26C124.74 12.22 123.99 12.75 124.46 13.91C125.4 16.19 128.9 15.65 129.62 17.74C130 18.87 129.08 19.29 129.47 20.69C129.98 22.49 131.68 22.35 132.27 23.93C133.02 25.96 130.58 27.22 131.09 29.82C131.5 31.88 133.29 32.34 133.01 33.65C132.73 34.96 130.92 34.64 129.33 36.45C127.61 38.4 128.81 39.79 126.97 41.9C125.75 43.3 124.88 43.08 123.88 44.7C122.99 46.12 123.27 46.92 122.55 47.5C121.88 48.05 120.46 48.3 117.1 46.62" /><g ><g ><path class="shp2" d="M106.95 50.95C105.63 51.19 104.26 51.28 102.85 51.23C102.1 51.18 100.3 51.09 98.14 50.66C93.94 49.76 88.19 47.6 85.46 42.08C82.07 35.24 85.55 27.94 86.64 25.58C89.56 19.36 94.37 16.29 96.07 15.26C97.96 14.08 105.88 9.18 115.21 12.01C116.86 12.53 124.78 14.93 127.61 22.33C130.77 30.72 124.78 38.69 123.18 40.9C122.45 41.9 116.61 49.44 106.95 50.95Z" /><path class="shp2" d="M106.66 56.56C106.75 64.81 108.92 66.98 107.37 69.48C105.86 71.88 102.04 72.21 94.5 72.87C93.18 72.96 90.59 74.28 88.8 73.01C88.66 72.92 88.05 72.49 87.76 71.83C86.72 69.52 90.07 66.03 91.96 63.63C94.03 60.99 96.53 56.89 98.14 50.67C100.31 51.09 102.1 51.19 102.85 51.24C104.26 51.29 105.63 51.19 106.95 50.96C106.8 52.27 106.62 54.2 106.66 56.56Z" /></g><g ><path class="shp3" d="M106.95 50.95C105.63 51.19 104.26 51.28 102.85 51.23C102.1 51.18 100.3 51.09 98.14 50.66C93.94 49.76 88.19 47.6 85.46 42.08C82.07 35.24 85.55 27.94 86.64 25.58C89.56 19.36 94.37 16.29 96.07 15.26C97.96 14.08 105.88 9.18 115.21 12.01C116.86 12.53 124.78 14.93 127.61 22.33C130.77 30.72 124.78 38.69 123.18 40.9C122.45 41.9 116.61 49.44 106.95 50.95Z" /><path class="shp3" d="M98.13 50.67C96.53 56.89 94.03 60.99 91.95 63.63C90.06 66.03 86.72 69.52 87.75 71.83C88.03 72.49 88.65 72.91 88.79 73.01C90.58 74.28 93.17 72.96 94.49 72.87C102.03 72.21 105.85 71.88 107.36 69.48C108.92 66.98 106.75 64.81 106.65 56.56C106.6 54.2 106.79 52.27 106.93 50.95C106.93 50.9 106.93 50.9 106.93 50.86" /></g></g><g ><g ><path class="shp4" d="M125.09 189.92C127.59 190.44 129.8 194.63 128.81 197.42C128.2 199.02 125.32 199.87 119.57 201.71C119.15 201.85 112.4 203.97 107.31 203.69C106.65 203.64 105.8 203.55 105.42 203.5C102.4 203.26 100.94 203.08 100.33 202.32C99.29 201 100.33 198.31 101.08 196.95C101.83 195.59 102.87 194.78 103.34 194.26L103.95 194.4C105.08 194.82 107.25 195.39 109.89 194.92C111.16 194.68 112.2 194.26 113 193.88L113.09 193.17C114.03 193.41 115.59 193.31 117 193.08C121.75 192.23 122.83 189.5 125.09 189.92Z" /><path class="shp5" d="M59.9 189.83C59.15 189.97 58.06 190.02 56.84 189.88C54.25 189.46 52.36 188.32 51.42 187.62C51.7 187.43 51.94 187.2 51.99 186.87C52.23 185.93 51 185.22 50.43 183.99C49.63 181.92 51.04 179.42 54.11 175.32C60.47 166.79 64.43 164.24 66.7 156.94C66.7 156.89 66.7 156.94 66.75 156.75C67.36 154.82 75.85 134.74 75.85 134.74C76.46 132.9 77.17 131.49 77.69 130.5C79.76 126.73 82.17 124.09 82.97 123.38C87.02 119.7 96.45 120.17 106.21 124.79C105.08 135.21 106.26 143.13 107.62 148.5C109.6 156.04 112.29 160.1 112.85 169.24C113.09 172.92 112.61 176.78 113.6 180.46C114.4 183.52 117.42 187.44 114.73 190.5C113.74 191.63 112.23 192.2 112.37 192.76C112.42 192.95 112.7 193.09 113.12 193.18L113.03 193.89C112.23 194.27 111.19 194.69 109.92 194.93C107.28 195.4 105.11 194.84 103.98 194.41L103.37 194.27C103.56 194.03 103.65 193.85 103.56 193.66C103.28 193.09 101.63 193.99 100.45 193.28C99.18 192.48 99.51 190.36 99.7 183.62C99.89 177.92 99.7 176.69 99.32 175.51C99.08 174.71 98.66 173.67 98.33 171.93C97.86 169.43 98.14 168.11 96.49 162.03C94.84 156 94.09 155.62 92.95 150.53C92.81 149.82 92.57 148.88 92.38 147.8C91.72 143.98 91.53 140.82 91.48 139.41C91.43 138.7 91.43 137.71 91.43 136.53C90.91 137.28 90.2 138.32 89.59 139.64C89.02 140.96 88.88 141.86 88.51 142.75C87.66 145.11 86.11 148.74 83.65 152.89C80.96 157.37 80.16 157.46 76.72 162.65C73.18 167.93 73.04 169.3 71.82 171.47C70.97 173.07 70.22 173.92 69.75 174.63C69.09 175.62 68.52 176.7 66.87 182.17C64.94 188.63 64.61 190.8 63.15 191.13C61.83 191.46 60.56 190.05 60.09 190.52C60.04 190.57 60 190.66 60 190.76L59.9 189.83Z" /><path class="shp4" d="M61.36 194.4C61.69 195.91 61.83 198.83 60.37 199.73C59.62 200.25 58.11 199.97 55.23 199.26C53.67 198.93 49.71 197.89 41.56 197.33C37.36 197.05 35.05 197.19 33.73 195.44C32.08 193.32 32.55 188.89 34.86 187.28C37.5 185.35 41.04 189.59 48.01 188.69C48.72 188.6 50.51 188.31 51.4 187.61C52.34 188.32 54.23 189.45 56.82 189.87C58.05 190.01 59.13 189.96 59.88 189.82L59.97 190.72C59.99 191.33 60.98 192.51 61.36 194.4Z" /></g><g ><path class="shp3" d="M106.33 124.82C106.28 124.82 106.24 124.77 106.19 124.77C96.43 120.15 87 119.68 82.95 123.36C82.15 124.07 79.74 126.71 77.67 130.48C77.15 131.47 76.44 132.88 75.83 134.72C75.83 134.72 67.34 154.8 66.73 156.73C66.68 156.92 66.68 156.87 66.68 156.92C64.42 164.23 60.46 166.77 54.09 175.3C51.03 179.4 49.61 181.9 50.41 183.97C50.98 185.2 52.2 185.9 51.97 186.85C51.92 187.18 51.69 187.42 51.4 187.6C50.5 188.31 48.71 188.59 48.01 188.68C41.03 189.58 37.5 185.33 34.86 187.27C32.55 188.87 32.08 193.3 33.73 195.43C35.05 197.17 37.36 197.03 41.56 197.32C49.72 197.89 53.68 198.92 55.23 199.25C58.11 199.96 59.61 200.24 60.37 199.72C61.83 198.82 61.69 195.9 61.36 194.39C60.98 192.5 59.99 191.33 59.99 190.71C59.99 190.62 60.04 190.52 60.08 190.47C60.55 190 61.82 191.41 63.14 191.08C64.6 190.75 64.93 188.58 66.86 182.12C68.51 176.65 69.08 175.57 69.74 174.58C70.21 173.87 70.97 173.02 71.81 171.42C73.04 169.25 73.18 167.88 76.71 162.6C80.15 157.41 80.95 157.32 83.64 152.84C86.09 148.69 87.65 145.06 88.5 142.7C88.88 141.8 89.02 140.91 89.58 139.59C90.19 138.27 90.9 137.23 91.42 136.48C91.56 136.29 91.7 136.1 91.8 135.96" /><path class="shp3" d="M106.33 123.64C106.28 124.02 106.24 124.39 106.19 124.77C105.06 135.19 106.24 143.11 107.6 148.48C109.58 156.02 112.27 160.08 112.83 169.22C113.07 172.9 112.59 176.76 113.58 180.44C114.38 183.5 117.4 187.42 114.71 190.48C113.72 191.61 112.21 192.18 112.35 192.74C112.4 192.93 112.68 193.07 113.1 193.16C114.04 193.4 115.6 193.3 117.01 193.07C121.72 192.22 122.81 189.49 125.07 189.91C127.57 190.43 129.78 194.62 128.79 197.41C128.18 199.01 125.3 199.86 119.55 201.7C119.13 201.84 112.38 203.96 107.29 203.68C106.63 203.63 105.78 203.54 105.4 203.49C102.38 203.25 100.92 203.07 100.31 202.31C99.27 200.99 100.31 198.3 101.06 196.94C101.81 195.58 102.85 194.77 103.32 194.25C103.51 194.01 103.6 193.83 103.51 193.64C103.23 193.07 101.58 193.97 100.4 193.26C99.13 192.46 99.46 190.34 99.65 183.6C99.84 177.9 99.65 176.67 99.27 175.49C99.03 174.69 98.61 173.65 98.28 171.91C97.81 169.41 98.09 168.09 96.44 162.01C94.79 155.98 94.04 155.6 92.9 150.51C92.76 149.8 92.52 148.86 92.33 147.78C91.67 143.96 91.48 140.8 91.43 139.39C91.38 138.68 91.38 137.69 91.38 136.51C91.38 136.37 91.38 136.27 91.38 136.13" /><path class="shp3" d="M51.32 187.52C51.37 187.52 51.37 187.57 51.41 187.61C52.35 188.32 54.24 189.45 56.83 189.87C58.06 190.01 59.14 189.96 59.89 189.82C59.94 189.82 59.98 189.82 60.03 189.82" /><path class="shp3" d="M103.98 194.4C105.11 194.82 107.28 195.39 109.92 194.92C111.19 194.68 112.23 194.26 113.03 193.88" /></g></g><g ><g ><path class="shp6" d="M226.67 88.66C227.04 92.22 186.43 97.19 186.43 97.19C166.65 99.6 152.52 101.17 152.52 101.64L152.26 101.64C152.21 99.29 151.95 97.19 151.74 95.67C151.32 92.63 150.54 86.98 147.03 80.96L147.34 80.8C154.09 80.43 161.16 80.22 168.53 80.17C175.65 80.12 182.5 80.22 189.04 80.48C189.04 80.48 198.36 80.74 207.67 81.37C207.67 81.37 226.04 81.89 226.3 84.61C226.35 84.98 226.09 85.6 226.2 86.81C226.3 87.88 226.61 88.51 226.67 88.66Z" /><path class="shp7" d="M152.25 101.64C152.35 105.77 151.83 110.96 149.11 116.24C146.34 121.73 141.73 127.12 135.97 129.95C129.64 133.04 124.46 131.31 118.07 129.69C109.38 127.44 108.86 127.13 106.24 126.71C101.53 125.98 97.45 125.35 93.16 126.71C91.69 127.18 87.98 128.33 82.38 135.87C73.01 148.59 76.57 154.5 70.08 160.83C61.29 169.41 46.22 166.95 42.19 166.32C38.84 165.74 28.69 163.97 20.58 155.49C15.5 150.2 13.52 144.76 11.74 139.79C8.65 131.16 8.44 124.2 8.18 114.93C7.97 108.7 7.76 100.17 10.12 89.44C12.21 79.81 14.1 73.9 19.28 69.5C31.94 58.67 55.18 67.15 56.8 67.72C70.98 73.11 75.69 82.16 83.38 79.49C87.1 78.18 91.75 74.1 98.4 71.12C99.81 70.49 100.91 70.02 103.01 69.03C106.88 67.15 107.77 66.36 111.17 65.52C113.68 64.94 120.01 63.48 127.55 65.52C137.34 68.19 142.78 75.04 144.56 77.35C145.5 78.55 146.29 79.76 147.02 80.96C150.53 86.98 151.31 92.63 151.73 95.67C151.94 97.19 152.2 99.29 152.25 101.64Z" /></g><g ><path class="shp3" d="M152.25 101.64C152.35 105.77 151.83 110.96 149.11 116.24C146.34 121.73 141.73 127.12 135.97 129.95C129.64 133.04 124.46 131.31 118.07 129.69C109.38 127.44 108.86 127.13 106.24 126.71C101.53 125.98 97.45 125.35 93.16 126.71C91.69 127.18 87.98 128.33 82.38 135.87C73.01 148.59 76.57 154.5 70.08 160.83C61.29 169.41 46.22 166.95 42.19 166.32C38.84 165.74 28.69 163.97 20.58 155.49C15.5 150.2 13.52 144.76 11.74 139.79C8.65 131.16 8.44 124.2 8.18 114.93C7.97 108.7 7.76 100.17 10.12 89.44C12.21 79.81 14.1 73.9 19.28 69.5C31.94 58.67 55.18 67.15 56.8 67.72C70.98 73.11 75.69 82.16 83.38 79.49C87.1 78.18 91.75 74.1 98.4 71.12C99.81 70.49 100.91 70.02 103.01 69.03C106.88 67.15 107.77 66.36 111.17 65.52C113.68 64.94 120.01 63.48 127.55 65.52C137.34 68.19 142.78 75.04 144.56 77.35C145.5 78.55 146.29 79.76 147.02 80.96C150.53 86.98 151.31 92.63 151.73 95.67C151.94 97.19 152.2 99.29 152.25 101.64Z" /><path class="shp3" d="M147.33 80.81C154.08 80.44 161.15 80.23 168.52 80.18C175.64 80.13 182.49 80.23 189.03 80.49C189.03 80.49 198.35 80.75 207.66 81.38C207.66 81.38 226.03 81.9 226.29 84.62C226.34 84.99 226.08 85.61 226.19 86.82C226.29 87.87 226.61 88.49 226.66 88.65C227.03 92.21 186.42 97.18 186.42 97.18C166.64 99.59 152.51 101.16 152.51 101.63C152.51 101.79 153.71 101.79 154.71 101.73" /></g></g><path class="shp4" d="M96.92 29.85C95.45 29.85 94.26 28.95 94.26 27.83C94.26 26.71 95.45 25.81 96.92 25.81C98.39 25.81 99.58 26.71 99.58 27.83C99.58 28.95 98.39 29.85 96.92 29.85Z" /><path class="shp4" d="M117.37 31.18C115.98 31.18 114.85 30.33 114.85 29.27C114.85 28.21 115.98 27.36 117.37 27.36C118.76 27.36 119.89 28.21 119.89 29.27C119.89 30.33 118.76 31.18 117.37 31.18Z" /><g ><path class="shp4" d="M107.09 29.85C106.94 30.67 106.71 31.48 106.36 32.25C106.01 33.01 105.53 33.73 104.97 34.36C104.41 34.99 103.88 35.58 103.65 36.31C103.38 37.04 103.42 37.85 103.55 38.68C103.55 38.69 103.54 38.71 103.53 38.71C103.52 38.71 103.51 38.71 103.5 38.7C103.09 37.96 102.94 37.05 103.16 36.17C103.38 35.26 104.1 34.65 104.66 34.09C105.83 32.95 106.61 31.45 107.03 29.85C107.03 29.84 107.05 29.83 107.06 29.83C107.08 29.82 107.09 29.83 107.09 29.85Z" /></g><g ><path class="shp4" d="M96.04 42.34C98.54 43.64 101.26 44.44 103.99 45.01C105.36 45.29 106.73 45.17 107.97 44.61C109.23 44.09 110.27 43.13 111.17 42.05C111.18 42.04 111.19 42.04 111.21 42.05C111.22 42.06 111.22 42.07 111.22 42.08C110.55 43.33 109.5 44.41 108.18 45.06C107.52 45.38 106.8 45.58 106.06 45.62C105.32 45.66 104.6 45.55 103.9 45.4C102.51 45.06 101.17 44.67 99.83 44.19C98.51 43.69 97.23 43.08 96 42.39C95.99 42.38 95.98 42.37 95.99 42.36C96.02 42.34 96.03 42.33 96.04 42.34Z" /></g><path class="shp8" d="M98.24 108.54C93.36 108.54 89.41 104.59 89.41 99.71C89.41 94.83 93.36 90.88 98.24 90.88C103.12 90.88 107.07 94.83 107.07 99.71C107.07 104.59 103.12 108.54 98.24 108.54Z" /><path class="shp3" d="M201.43 72.84C201.17 75.78 200.92 78.73 200.67 81.67" /><path class="shp3" d="M211.9 73.6C211.86 76.22 211.83 78.83 211.79 81.45" /><path class="shp3" d="M221.27 75.35C220.51 77.64 219.74 79.93 218.98 82.22" /><path class="shp3" d="M156.72 84.34C157.05 89.1 157.37 93.86 157.7 98.62" /><path class="shp3" d="M165.05 83.88C164.65 87.99 164.25 92.09 163.85 96.2" /><path class="shp3" d="M170.43 84.4C170.54 88.03 170.65 91.67 170.76 95.3" /><path class="shp3" d="M177.12 84.83C177.12 88.17 177.12 91.52 177.12 94.86" /><path class="shp3" d="M184.32 83.2C184.25 86.76 184.17 90.32 184.1 93.89" /><path class="shp3" d="M191.73 83.85C191.51 86.79 191.29 89.74 191.08 92.68" /><path class="shp3" d="M198.6 83.85C198.38 86.14 198.16 88.43 197.95 90.72" /><path class="shp3" d="M203.94 83.85C203.94 85.81 203.94 87.77 203.94 89.74" /><path class="shp3" d="M215.01 83.85C214.9 85.3 214.79 86.76 214.68 88.21" /><path class="shp3" d="M208.52 84.78C208.74 86.12 208.96 87.47 209.17 88.81" /><path class="shp9" d="M44.53 97.18C45.76 97.75 44.45 101.84 44.05 106.87C43.57 113.01 43.3 116.5 44.28 119.89C44.48 120.57 45.15 122.73 44.21 123.58C43.92 123.85 43.55 123.9 42.8 124.01C42.1 124.11 40.55 124.35 39.88 123.51C39.68 123.26 39.55 122.94 39.52 122.52C39.38 120.58 39.6 118.55 39.64 116.6C39.72 112.74 39.8 108.89 39.88 105.03C39.92 103 39.53 100.35 40.04 98.39C40.11 98.11 40.26 97.74 40.6 97.48C41.03 97.15 41.51 97.22 42.48 97.23C44.19 97.25 44.26 97.06 44.53 97.18Z" /><path class="shp3" d="M44.27 99.71C69.65 94.78 97.72 90.5 128.16 87.61C159.68 84.62 188.98 83.58 215.6 83.74" /><path class="shp3" d="M42.48 104.13C69.14 100.18 96.79 96.6 125.39 93.5C157.17 90.05 187.95 87.42 217.62 85.49" /><path class="shp3" d="M41.66 110.02C70.36 106.27 99.14 102.46 128.01 98.57C155.69 94.85 183.27 91.09 210.76 87.29" /><path class="shp3" d="M42.15 118.03C65.4 113.1 89.45 108.44 114.27 104.13C148.96 98.1 182.49 93.22 214.73 89.3" /><g ><g ><path class="shp2" d="M98.93 106.06C99.02 106.25 99.54 107.66 98.55 108.79C96.99 110.49 93.55 109.45 88.04 110.25C86.81 110.44 85.82 110.63 85.07 110.86L85.02 110.67C84.78 110.48 84.45 110.15 84.27 109.68C83.99 109.02 84.18 108.36 84.32 107.94L84.37 107.94C85.6 107.85 85.64 105.68 87.53 104.36C90.68 102.24 97.75 103.14 98.93 106.06Z" /><path class="shp10" d="M81.82 69.24C85.36 69.33 89.69 70.89 89.65 72.78C89.65 74.52 86.02 74.76 81.97 78.25C78.01 81.74 79.52 83.29 75.28 87.82C71.37 91.92 68.26 92.58 68.44 94.66C68.49 95.51 69.1 95.65 73.34 99.61C75.89 102.01 75.65 101.97 76.5 102.53C79.05 104.37 80.37 104.13 82.2 105.97C83.38 107.1 83.61 107.95 84.32 107.95C84.18 108.37 83.99 109.03 84.27 109.69C84.46 110.16 84.79 110.49 85.02 110.68L85.07 110.87C82.29 111.67 81.96 112.66 79.51 112.57C75.41 112.48 71.64 108.23 64.28 99.7C62.49 97.63 61.59 96.59 61.26 95.98C57.96 88.96 64.42 80.57 67.06 77.12C68.8 74.86 70.12 73.73 71.4 72.83C72.72 71.88 76.68 69.05 81.82 69.24Z" /></g><g ><path class="shp3" d="M84.32 107.94C83.61 107.94 83.38 107.09 82.2 105.96C80.36 104.12 79.04 104.36 76.5 102.52C75.65 101.95 75.89 102 73.34 99.6C69.1 95.64 68.48 95.5 68.44 94.65C68.25 92.58 71.36 91.92 75.28 87.81C79.52 83.28 78.01 81.73 81.97 78.24C86.02 74.75 89.65 74.52 89.65 72.77C89.7 70.88 85.36 69.33 81.82 69.23C76.68 69.04 72.72 71.87 71.4 72.81C70.13 73.71 68.81 74.84 67.06 77.1C64.42 80.54 57.96 88.93 61.26 95.96C61.59 96.57 62.49 97.61 64.28 99.68C71.63 108.21 75.41 112.45 79.51 112.55C81.96 112.64 82.29 111.65 85.07 110.85C85.82 110.61 86.81 110.43 88.04 110.24C93.56 109.44 97 110.48 98.55 108.78C99.54 107.65 99.02 106.23 98.93 106.05C97.75 103.13 90.68 102.23 87.52 104.35C85.63 105.67 85.59 107.84 84.36 107.93" /><path class="shp3" d="M84.51 107.52C84.51 107.61 84.42 107.76 84.37 107.94L84.32 107.94C84.18 108.36 83.99 109.02 84.27 109.68C84.46 110.15 84.79 110.48 85.02 110.67" /></g></g><g ><g ><path class="shp10" d="M167.8 94.65C167.94 96.91 167.94 99.18 167.52 101.39C166.77 101.15 166.06 101.01 165.21 100.87C164.88 100.82 164.55 100.78 164.27 100.73L164.18 100.73C164.32 99.36 163 97.52 161.82 95.83C154.09 84.89 151.35 78.77 149.75 77.16C148.9 76.36 147.96 75.27 148.29 74.14C148.29 74 144.57 72.44 144.05 72.3C142.35 71.88 140.51 71.73 138.77 72.06C137.26 72.39 135.85 73.05 134.39 73.47C130.24 74.7 126.28 73.52 122.18 72.76C115.96 71.68 114.59 71.35 113.13 70.87C108.42 69.36 106.06 68.61 105.87 67.33C105.3 63.46 114.21 60.26 116.71 59.41C122.46 57.48 128.73 57.76 134.48 59.46C140.09 61.16 145.23 64.03 150.37 66.96C154.94 69.55 159.66 72.29 162.81 76.58C166.53 81.69 167.57 88.29 167.8 94.65Z" /><path class="shp2" d="M167.52 101.39C167.47 101.81 167.38 102.19 167.28 102.57C166.62 105.12 165.3 107.57 163.18 109.08C161.06 110.59 158.14 110.97 155.92 109.6C155.59 109.41 155.26 109.08 155.26 108.66C155.31 108.42 155.5 108.19 155.64 108C157.01 106.44 157.67 104.61 160.26 103.05C162.43 101.78 163.47 102.34 163.98 101.35C164.07 101.16 164.12 100.97 164.17 100.74L164.26 100.74C164.54 100.79 164.87 100.83 165.2 100.88C166.06 101.01 166.77 101.16 167.52 101.39Z" /></g><g ><path class="shp3" d="M164.17 100.73C164.31 99.36 162.99 97.52 161.81 95.83C154.08 84.89 151.34 78.77 149.74 77.16C148.89 76.36 147.95 75.27 148.28 74.14C148.28 74 144.56 72.44 144.04 72.3C142.34 71.88 140.5 71.73 138.76 72.06C137.25 72.39 135.84 73.05 134.38 73.47C130.23 74.7 126.27 73.52 122.17 72.76C115.95 71.68 114.58 71.35 113.12 70.87C108.41 69.36 106.05 68.61 105.86 67.33C105.29 63.46 114.2 60.26 116.7 59.41C122.45 57.48 128.72 57.76 134.47 59.46C140.08 61.16 145.22 64.03 150.36 66.96C154.93 69.55 159.65 72.29 162.8 76.58C166.52 81.67 167.56 88.27 167.8 94.63C167.94 96.89 167.94 99.16 167.52 101.37C167.47 101.79 167.38 102.17 167.28 102.55C166.62 105.1 165.3 107.55 163.18 109.06C161.06 110.57 158.14 110.95 155.92 109.58C155.59 109.39 155.26 109.06 155.26 108.64C155.31 108.4 155.5 108.17 155.64 107.98C157.01 106.42 157.67 104.59 160.26 103.03C162.43 101.76 163.47 102.32 163.98 101.33C164.08 101.16 164.13 100.97 164.17 100.73Z" /><path class="shp3" d="M164.27 100.73C164.55 100.78 164.88 100.82 165.21 100.87C166.06 101.01 166.77 101.15 167.52 101.39C167.57 101.39 167.66 101.44 167.71 101.44" /></g></g><path class="shp9" d="M219.31 72.84C218.23 73.44 217.93 75.47 218.66 76.22C219.31 76.88 220.28 76.05 222.04 76.77C223 77.16 223.18 77.6 223.79 77.53C224.73 77.43 225.68 76.21 225.53 75.24C225.34 74 223.41 73.48 221.39 72.95C219.95 72.57 219.54 72.72 219.31 72.84Z" /><path class="shp9" d="M209.27 71.96C208.19 72.56 207.89 74.59 208.62 75.34C209.27 76 210.24 75.17 212 75.89C212.96 76.28 213.14 76.72 213.75 76.65C214.69 76.55 215.64 75.33 215.49 74.36C215.3 73.12 213.37 72.6 211.35 72.07C209.91 71.69 209.5 71.84 209.27 71.96Z" /><path class="shp9" d="M199.14 71.09C198.06 71.69 197.76 73.72 198.49 74.47C199.14 75.13 200.11 74.3 201.87 75.02C202.83 75.41 203.01 75.85 203.62 75.78C204.56 75.68 205.51 74.46 205.36 73.49C205.17 72.25 203.24 71.73 201.22 71.2C199.77 70.82 199.36 70.97 199.14 71.09Z" /></g></g></svg>