<svg xmlns="http://www.w3.org/2000/svg" viewBox="0 0 219 281" width="256" height="328"><style>tspan { white-space:pre }.shp0 { fill: #ffffff } .shp1 { fill: #be894a;stroke: #26120b } .shp2 { fill: #000000 } .shp3 { fill: none;stroke: #26120b;stroke-width: 3 } </style><g ></g><g ><g ><path class="shp0" d="M38.65 157.03C40.6 168.4 24.73 174.27 12.93 192.25C10.63 195.75 -6.1 222.07 3.43 246.48C9.71 262.56 24.44 270.27 30.27 273.32C46.9 282.02 62.63 280.86 72.2 280.03C85.65 278.86 111.49 276.61 123.64 259.34C140.96 234.71 113.64 203.37 132.03 181.63C140.24 171.93 146.94 176.69 166.14 165.42C171.15 162.48 198.08 146.07 210.87 114.54C212.19 111.28 231.82 60.8 204.16 28.44C189.4 11.17 168.93 8.13 143.78 4.4C118.51 0.65 65.01 -7.3 36.41 25.64C20.52 43.95 19.11 67.06 17.96 86.02C16.81 104.91 15.3 129.78 30.26 145.84C34.24 150.11 37.8 152.06 38.65 157.03Z" /><path class="shp1" d="M71.98 272.21C71.31 272.18 70.64 272.15 69.97 272.12C59.23 271.57 48.35 270.63 38.23 266.99C31.31 264.5 24.67 260.61 20.36 254.65C14.54 246.59 13.78 235.92 14.85 226.03C16.85 207.48 24.65 189.6 36.89 175.52C43.15 168.32 50.98 161.88 60.35 160.06C63.02 159.54 66.02 159.28 67.84 157.27C69.54 155.39 69.63 152.58 69.46 150.06C68.97 142.94 67.11 135.95 67.06 128.81C66.99 118.73 71.43 109.41 81.85 106.96C88.91 105.3 92.76 108.63 95.46 106C98.51 103.03 94.82 97.24 97.81 94.83C99.55 93.42 102.78 94.79 104.71 95.14C108.95 95.9 113.24 96.42 117.5 97.06C118.08 97.15 118.7 97.25 119.12 97.67C119.8 98.35 119.6 99.51 119.16 100.37C117.48 103.68 113.19 105.61 112.83 109.3C112.39 113.82 117.83 116.17 121.69 118.55C129.7 123.47 133.48 133.86 131.72 143.1C129.96 152.33 123.29 160.2 115.03 164.69C112.13 166.26 108.5 168.39 108.96 171.65C109.13 172.84 109.86 173.87 110.62 174.8C114.53 179.62 119.86 183.52 122.12 189.3C124.13 194.45 123.34 200.22 122.35 205.66C119.55 221 115.34 236.15 108.67 250.24C105.23 257.5 100.82 264.78 93.8 268.7C87.27 272.31 79.49 272.52 71.98 272.21Z" /><g ><path class="shp2" d="M72.24 154.27C67.12 154.26 61.95 153.77 57.01 152.29C52.08 150.8 47.45 148.17 43.83 144.47C40.2 140.76 37.61 136.18 35.65 131.43C33.7 126.65 32.41 121.65 31.36 116.63C29.3 106.58 28.13 96.29 28.51 85.99C28.86 75.71 30.76 65.4 34.69 55.82C36.64 51.03 39.13 46.46 42.06 42.19C45 37.93 48.38 33.95 52.28 30.51C56.16 27.06 60.49 24.09 65.16 21.79C67.49 20.63 69.91 19.67 72.36 18.81C74.82 17.97 77.33 17.3 79.86 16.72C90.01 14.49 100.49 14.36 110.74 15.3C121.02 16.23 131.12 18.15 141.2 19.9C151.23 21.71 161.49 22.85 171.47 25.91C176.44 27.44 181.31 29.49 185.8 32.25C190.27 35.01 194.37 38.54 197.53 42.87C200.69 47.2 202.77 52.21 203.99 57.34C205.21 62.48 205.66 67.75 205.57 72.96C205.36 83.4 203.36 93.69 200.16 103.55C196.88 113.39 192.36 122.8 186.67 131.46C180.96 140.09 174.06 148.03 165.78 154.31C157.55 160.6 147.91 165.23 137.68 166.98C127.45 168.74 116.89 167.67 107.15 164.48L107.24 164.19C117.07 166.92 127.5 167.7 137.43 165.63C147.38 163.67 156.63 158.97 164.5 152.66C172.38 146.33 179.05 138.56 184.5 130.04C189.95 121.52 194.25 112.25 197.31 102.62C200.39 93 202.29 82.96 202.45 72.91C202.52 67.89 202.15 62.87 201.02 58.04C199.9 53.21 197.99 48.58 195.12 44.61C192.27 40.63 188.5 37.3 184.3 34.65C180.09 32 175.46 29.99 170.67 28.47C161.06 25.41 150.86 24.17 140.78 22.26C130.7 20.42 120.67 18.45 110.54 17.46C100.44 16.46 90.18 16.52 80.28 18.62C77.81 19.17 75.37 19.81 72.98 20.6C70.6 21.42 68.24 22.33 65.98 23.44C61.45 25.63 57.23 28.47 53.44 31.79C49.63 35.1 46.3 38.96 43.4 43.1C40.51 47.25 38.03 51.71 36.09 56.39C32.15 65.74 30.17 75.87 29.73 86.03C29.25 96.21 30.31 106.43 32.27 116.44C33.27 121.44 34.5 126.41 36.38 131.14C38.27 135.85 40.78 140.38 44.3 144.04C47.82 147.7 52.33 150.33 57.19 151.85C62.06 153.36 67.19 153.91 72.29 153.96L72.24 154.27Z" /></g><path class="shp3" d="M99.07 268.16C72.91 268.09 46.84 260.84 24.38 247.44C21.5 245.72 13.53 241.06 17.16 237.03C19.54 234.39 24.93 234.99 28.1 234.96C34.67 234.88 41.25 234.66 47.83 234.87C64.16 235.39 80.35 237.67 96.13 241.88C100.41 243.02 105.43 245.42 109.8 245.61C108.86 241.94 103.86 239.19 100.91 237.16C91.77 230.88 83.25 223.58 76.47 214.8C64.22 198.93 60.04 179.5 63.37 159.83" /><path class="shp3" d="M13.7 223.01C49.69 214.64 84.37 200.5 115.84 181.11" /></g></g></svg>