<svg xmlns="http://www.w3.org/2000/svg" viewBox="0 0 224 301" width="256" height="344"><style>tspan { white-space:pre }.shp0 { fill: #ffffff } .shp1 { fill: #4d1f03 } .shp2 { fill: #26120b } .shp3 { fill: none;stroke: #000000;stroke-width: 0.5 } .shp4 { fill: #333333 } .shp5 { fill: #000000 } .shp6 { fill: none;stroke: #000000 } .shp7 { fill: #2c5b20 } .shp8 { fill: none;stroke: #a0642f } .shp9 { fill: #999999 } </style><g ></g><g ><g ><path class="shp0" d="M21.79 220.53C19.28 211.06 16.6 207.83 17.42 200.64C18.35 192.55 22.36 191.31 24.7 183.66C28.79 170.23 19.18 165.07 20.33 151.16C21.89 132.4 40.91 123.52 37.31 117.2C34.33 111.97 21.97 119.21 11.6 111.86C1.08 104.4 0.95 87.84 0.93 85.18C0.83 72.5 6.76 72.21 7.24 58.98C7.74 45.18 1.41 41.79 3.36 27.93C4.09 22.71 4.96 16.5 9.67 11.68C18.98 2.13 36.12 5.42 42.17 6.59C59.32 9.88 60.7 17.68 71.04 16.54C85.32 14.95 88.86 -0.63 99.42 0.77C108.94 2.03 108.99 15.06 118.83 17.02C132.43 19.73 144.08 -2.85 153.27 1.25C155.61 2.3 157.26 6.07 160.55 13.62C164.73 23.21 163.64 25.48 166.86 30.11C170.32 35.1 177.91 41.58 183.6 39.81C191.09 37.49 187.69 23.25 198.4 16.28C198.89 15.96 206.81 10.98 214.41 14.34C219.94 16.79 222.95 22.62 223.63 27.44C224.64 34.63 220.12 37.19 218.78 46.6C217.55 55.27 220.96 56.06 220.72 64.31C220.26 80.29 208.34 81.87 205.68 99.24C203.78 111.66 207.06 114.2 204.22 131.75C199.68 159.83 190.49 172.84 190.69 197.84C190.73 203 191.2 207.07 190.63 215.03C189.85 226.01 188.3 227.38 187.07 238.32C185.27 254.33 188.02 256.37 185.13 265.97C184.07 269.49 181.78 276.83 175.59 283.43C170.49 288.87 160.47 291.93 140.63 297.82C130.89 300.71 126.73 301.54 122.88 299.28C116.93 295.78 116.01 287.41 115.93 286.5C115.39 280.88 117.8 279.28 120.78 267.9C122.98 259.51 124.04 255.25 121.91 252.21C120.26 249.85 118.35 250.32 109.94 247.36C99.35 243.63 98.94 241.66 95.87 242.35C90.38 243.57 87.26 250.85 83.42 259.81C79.64 268.63 80.29 271.23 76.95 273.88C71.86 277.93 62.2 278.34 58.92 274.12C54.01 267.81 67.14 256 61.83 242.34C60.76 239.6 58.18 234.78 55.77 235.06C49.49 235.8 55.88 269.83 39.52 280.42C33.45 284.35 24.43 284.93 20.84 281.15C16.6 276.67 23.08 269.35 24.36 251.19C24.67 246.5 25.51 234.57 21.79 220.53Z" /><g ><g ><g ><path class="shp1" d="M75.64 228.29C75.61 228.29 75.56 228.26 75.53 228.26C72.73 227.41 69.93 226.57 67.13 225.75C60.55 223.82 53.99 221.89 47.57 219.57C46.09 219.07 44.61 218.51 43.16 217.93C41.44 217.27 39.75 216.56 38.09 215.82C37.01 215.34 35.92 214.84 34.87 214.31C32.83 213.33 30.72 212.2 29.53 210.27C26.01 204.69 30.9 196.74 35.42 193.38C42.98 187.78 54.16 192.22 62.03 194.83C96.47 206.3 133.18 208.36 169.36 211.14C173.75 211.46 179.11 212.49 180.54 216.69C181.31 218.96 180.59 221.47 179.59 223.67C178.14 226.79 176.1 229.59 173.67 232.05C172.11 233.61 170.39 235.04 168.54 236.28C165.82 238.16 162.83 239.64 159.77 240.75C154.33 242.71 148.56 243.58 142.75 243.71C140.69 243.76 138.6 243.71 136.54 243.58C135.46 243.55 134.35 243.47 133.26 243.37C113.44 241.53 94.67 234.13 75.64 228.29Z" /><path class="shp2" d="M176.95 244.65C177.21 247.06 177.66 251.18 177.06 256.46C176.5 261.32 175.87 267.11 171.75 271.82C170.03 273.75 166.73 276.68 165.06 275.78C163.55 274.99 163.98 271.5 164.16 269.99C164.69 265.55 167.97 262.19 169.08 257.86C170.72 251.28 169.5 243.3 168.55 236.27C170.4 235.03 172.12 233.6 173.68 232.04L174.39 232.78C175.34 235.72 176.42 239.76 176.95 244.65Z" /><path class="shp2" d="M136.54 243.57C138.6 243.7 140.69 243.75 142.75 243.7C142.54 247.45 142.25 252.1 141.72 257.47C141.09 264 140.53 267.43 139.42 274.33C137.28 287.47 136.17 289.82 133.95 291.01C130.91 292.68 126.39 291.75 125.55 289.87C125.1 288.89 125.76 287.99 127.69 283.74C128.48 281.94 129.2 280.09 129.99 278.3C131.97 273.75 132.32 269.66 132.82 265.75C133.38 261.1 134.41 254.41 136.44 244.95L136.54 243.57Z" /><path class="shp2" d="M78.21 240.95C79.19 249.7 79.88 257.18 74.85 263.26C71.92 266.8 67.45 269.39 66.26 268.68C65.04 267.94 68.06 264.13 69.62 257.5C70.7 252.9 70.47 249.54 69.96 242.78C69.62 238.39 68.88 232.55 67.13 225.76C69.93 226.58 72.73 227.43 75.53 228.27C75.56 228.27 75.61 228.3 75.64 228.3C77.15 233.31 77.84 237.68 78.21 240.95Z" /><path class="shp2" d="M47.52 219.73C49.63 226.6 49.82 232.34 49.66 236.06C49.4 242.06 46.41 249.09 40.41 263.15C37.9 269.04 36.02 272.98 32.98 273.25C31.31 273.38 29.44 272.4 28.67 270.92C27.24 268.09 30.34 264.37 32.98 259.85C36.28 254.25 37.55 249.52 40.09 240.03C41.39 235.22 42.76 228.14 42.73 219.07L43.15 217.93C44.6 218.51 46.08 219.07 47.56 219.57L47.52 219.73Z" /></g><g ><path class="shp3" d="M173.67 232.05C176.1 229.59 178.14 226.79 179.59 223.67C180.59 221.48 181.31 218.97 180.54 216.69C179.11 212.49 173.75 211.46 169.36 211.14C133.18 208.36 96.47 206.3 62.03 194.83C54.15 192.21 42.97 187.77 35.42 193.38C30.9 196.74 26.01 204.69 29.53 210.27C30.72 212.2 32.83 213.34 34.87 214.31C35.93 214.84 37.01 215.34 38.09 215.82C39.76 216.56 41.45 217.27 43.16 217.93C44.61 218.51 46.09 219.07 47.57 219.57C53.99 221.9 60.55 223.83 67.13 225.75C69.93 226.57 72.73 227.42 75.53 228.26C75.56 228.26 75.61 228.29 75.64 228.29C94.67 234.13 113.43 241.53 133.26 243.36C134.34 243.47 135.45 243.54 136.54 243.57C138.6 243.7 140.69 243.75 142.75 243.7C148.56 243.57 154.33 242.7 159.77 240.74C162.84 239.63 165.82 238.15 168.54 236.27C170.4 235.03 172.11 233.61 173.67 232.05Z" /><path class="shp3" d="M42.74 219.07C42.77 228.14 41.39 235.22 40.1 240.03C37.56 249.52 36.29 254.25 32.99 259.85C30.35 264.37 27.25 268.1 28.68 270.92C29.45 272.4 31.32 273.38 32.99 273.25C36.03 272.99 37.91 269.05 40.42 263.15C46.42 249.09 49.41 242.06 49.67 236.06C49.83 232.33 49.64 226.6 47.53 219.73" /><path class="shp3" d="M67.03 225.31C67.08 225.47 67.11 225.63 67.14 225.76C68.88 232.55 69.62 238.39 69.97 242.78C70.47 249.55 70.71 252.9 69.63 257.5C68.07 264.13 65.06 267.94 66.27 268.68C67.46 269.39 71.93 266.8 74.86 263.26C79.88 257.18 79.19 249.7 78.22 240.95C77.85 237.67 77.16 233.31 75.66 228.29C75.63 228.21 75.61 228.13 75.58 228.05" /><path class="shp3" d="M136.43 244.94C134.39 254.4 133.36 261.09 132.81 265.74C132.31 269.65 131.96 273.75 129.98 278.29C129.19 280.09 128.47 281.94 127.68 283.73C125.75 287.99 125.09 288.88 125.54 289.86C126.39 291.74 130.91 292.66 133.94 291C136.16 289.81 137.27 287.46 139.41 274.32C140.52 267.42 141.08 263.99 141.71 257.46C142.24 252.09 142.53 247.44 142.74 243.69C142.79 242.66 142.82 241.68 142.87 240.78" /><path class="shp3" d="M174.39 232.79C175.34 235.72 176.43 239.77 176.95 244.66C177.21 247.07 177.66 251.19 177.06 256.47C176.5 261.33 175.87 267.12 171.75 271.83C170.03 273.76 166.73 276.69 165.06 275.79C163.55 275 163.98 271.51 164.16 270C164.69 265.56 167.97 262.2 169.08 257.87C170.72 251.29 169.5 243.31 168.55 236.28C168.36 235.04 168.21 233.82 168.07 232.66" /></g></g></g><g ><g ><g ><path class="shp4" d="M179.99 152.73C184.38 159.58 184.3 167.98 182.84 175.7C181.28 184.05 178.85 192.88 175.49 200.68C172.98 206.42 169.46 211.86 164.55 215.75C158.97 220.16 151.92 222.36 144.86 223.12C130.69 224.71 117.08 221.9 103.31 219.02C95.06 217.28 86.76 215.66 78.44 214.32C68.16 212.65 54.42 212.05 47.17 203.62C44.37 200.37 43.07 195.9 40.56 187.1C35.14 167.99 30.07 150.15 38.82 139.63C41.65 141.45 45.35 143.57 49.81 145.47C58.37 149.14 65.51 150.28 72.06 151.21C87.18 153.32 96.22 154.59 111.04 155.17C124.15 155.67 137.95 156.15 155.97 153.85C164.64 152.74 172.04 151.26 177.72 149.96C178.62 150.83 179.36 151.73 179.99 152.73Z" /><path class="shp5" d="M176.64 148.9L180.87 149.22C179.89 149.46 178.86 149.7 177.75 149.96C177.4 149.58 177.03 149.24 176.64 148.9Z" /><path class="shp5" d="M176.64 148.9C177.04 149.24 177.41 149.59 177.75 149.96C172.07 151.26 164.67 152.74 156 153.85C137.97 156.15 124.18 155.67 111.07 155.17C96.24 154.59 87.2 153.32 72.09 151.21C65.54 150.28 58.4 149.15 49.84 145.47C45.37 143.57 41.67 141.45 38.85 139.63C38.88 139.6 38.9 139.55 38.93 139.52C39.3 139.1 39.67 138.67 40.09 138.28L176.64 148.9Z" /><path class="shp5" d="M176.64 148.9L40.07 138.27C48.5 129.71 63.14 129.05 74.35 129.89C84.02 130.63 93.54 132.72 103.18 133.8C116.21 135.28 129.4 134.91 142.4 136.52C149.54 137.42 156.62 138.93 163.31 141.57C167.68 143.29 172.83 145.57 176.64 148.9Z" /><path class="shp5" d="M40.07 138.27C39.65 138.67 39.28 139.09 38.91 139.51C38.88 139.54 38.86 139.59 38.83 139.62C37.93 139.04 37.11 138.48 36.4 137.98L40.07 138.27Z" /></g><g ><path class="shp6" d="M176.64 148.9C172.83 145.57 167.68 143.3 163.32 141.58C156.63 138.94 149.55 137.43 142.41 136.53C129.41 134.92 116.22 135.29 103.19 133.81C93.54 132.73 84.03 130.64 74.36 129.9C63.15 129.05 48.51 129.71 40.08 138.28" /><path class="shp6" d="M38.83 139.62C30.08 150.14 35.16 167.98 40.57 187.09C43.08 195.89 44.38 200.36 47.18 203.61C54.42 212.04 68.17 212.65 78.45 214.31C86.78 215.66 95.07 217.27 103.32 219.01C117.09 221.89 130.7 224.69 144.87 223.11C151.93 222.34 158.98 220.15 164.56 215.74C169.48 211.85 172.99 206.41 175.5 200.67C178.86 192.87 181.29 184.05 182.85 175.69C184.3 167.97 184.38 159.57 180 152.72C179.37 151.72 178.63 150.82 177.75 149.94" /><path class="shp6" d="M36.4 137.98C37.11 138.48 37.93 139.04 38.83 139.62C41.66 141.44 45.36 143.56 49.82 145.46C58.38 149.13 65.52 150.27 72.07 151.2C87.19 153.31 96.23 154.58 111.05 155.16C124.16 155.66 137.96 156.14 155.98 153.84C164.65 152.73 172.05 151.25 177.73 149.95C178.84 149.69 179.87 149.45 180.85 149.21" /></g></g></g><g ><g ><g ><path class="shp7" d="M181.53 125.43C184.17 131.17 180.71 138.8 176.24 143.03C174.76 144.46 171.88 146.7 160.83 148.77C158.35 149.25 155.83 149.7 153.24 150.07L152.68 146.34C150.25 145.94 146.42 144.89 143.43 141.71C142.4 140.6 141.53 139.33 140.87 137.96C146.53 136.98 152.55 135.53 158.84 133.36C165.18 131.17 170.76 128.63 175.57 126.09L178.77 122.34C180.73 123.82 181.29 124.9 181.53 125.43Z" /><path class="shp7" d="M178.78 122.34L175.58 126.09C170.77 128.63 165.19 131.16 158.85 133.36C152.56 135.53 146.53 136.98 140.88 137.96C138.16 132.25 138.66 124.43 142.78 117.27L142.65 112.57C147.57 112.46 158.72 112.81 171.19 118.17C174.92 119.75 177.27 121.17 178.78 122.34Z" /><path class="shp7" d="M177.35 90.41C177.38 90.99 177.35 91.55 177.27 92.1L174.49 91.94C170.68 91.83 165.37 91.52 159.05 90.62C153.05 89.77 146.42 88.85 138.91 86.36C142.13 80.23 146.97 75.39 149.59 72.99L150.09 67.1C154.19 67.6 157.17 67.89 161.9 70.59C167.64 73.81 170.89 77.67 172.47 79.84C174.76 82.9 177.19 86.21 177.35 90.41Z" /><path class="shp7" d="M174.5 91.94L177.28 92.1C176.49 98.89 169.93 105 163.7 107.59C161.22 108.59 158.65 109.15 138.94 105.05L139.5 102.3C138.6 101.51 137.33 100.13 136.62 98.1C136.04 96.36 135.8 93.9 137.52 89.51C137.94 88.43 138.42 87.37 138.95 86.36C146.46 88.84 153.09 89.77 159.09 90.62C165.38 91.52 170.69 91.84 174.5 91.94Z" /><path class="shp7" d="M152.69 146.33L153.25 150.06C144.74 151.33 135.49 151.73 125.16 148.32C118.79 146.23 114.59 144.86 112.61 140.84L119.01 139.73C125.14 139.78 132.59 139.41 140.89 137.96C141.55 139.33 142.42 140.6 143.45 141.71C146.43 144.88 150.26 145.94 152.69 146.33Z" /><path class="shp7" d="M150.1 67.1L149.6 72.99C146.98 75.4 142.15 80.23 138.92 86.36C137.39 85.88 135.8 85.3 134.19 84.67C128.72 82.5 120.82 78.62 112.39 71.67L104.51 70.96C105.83 69.24 107.05 68 107.52 67.5C109.26 65.7 114.05 60.81 121.18 60.02C126.33 59.44 127.66 61.55 137.04 64.41C142.99 66.2 146.88 66.73 150.1 67.1Z" /><path class="shp7" d="M142.65 112.56L142.78 117.26C138.66 124.42 138.15 132.25 140.88 137.95C132.58 139.4 125.13 139.77 119 139.72L112.6 140.83C108.93 133.32 115.4 121.46 124.04 116.17C128.69 113.34 132.79 113.1 140.8 112.63C141.25 112.61 141.86 112.58 142.65 112.56Z" /><path class="shp7" d="M139.48 102.3L138.92 105.05C137.76 104.81 136.54 104.55 135.27 104.28C121.84 101.4 114.58 99.47 107.07 93.92C102.29 90.38 100.86 87.92 100.25 85.78C98.64 80.15 101.81 74.52 104.51 70.95L112.39 71.66C120.82 78.61 128.72 82.5 134.19 84.66C135.8 85.29 137.39 85.88 138.92 86.35C138.39 87.35 137.92 88.41 137.49 89.5C135.77 93.89 136.01 96.35 136.59 98.09C137.31 100.13 138.58 101.51 139.48 102.3Z" /><path class="shp7" d="M78.29 122.92C78 121.97 77.76 120.96 77.58 119.91C76.1 111.56 78.95 105.08 80.01 102.97L79.22 100.38C89.05 97.34 95.21 96.05 100.05 97.02C101.74 97.34 117.15 100.43 119 109.57C120.3 116.05 114.11 122.18 111.73 124.53C107.18 129.02 103.93 129.58 84.03 133.33C82.26 131.27 79.72 127.78 78.29 122.92Z" /><path class="shp7" d="M91.32 71.62C92.4 76.3 93.36 81.32 91.06 86.18C88.63 91.33 83.79 93.61 78.29 96.09C71.6 99.1 65.74 100.08 57.81 100.93C55.14 101.22 52.63 101.49 50.3 101.72L49.82 96.78C48.58 94.9 46.41 91.02 46.09 85.68C49.98 85.34 54.1 84.73 58.41 83.8C70.81 81.1 80.48 76.53 87.03 72.78L91.32 71.62Z" /><path class="shp7" d="M91.06 70.53C91.14 70.9 91.25 71.24 91.32 71.61L87.04 72.77C80.49 76.52 70.81 81.1 58.42 83.79C54.11 84.72 49.99 85.32 46.1 85.67C46.07 85.62 46.07 85.59 46.07 85.54C45.57 77.03 50.11 71.03 51.36 69.47L50.88 66.54C51.28 66.49 51.67 66.43 52.07 66.35C70.86 62.89 78.68 53.35 85.35 57.97C88.63 60.25 89.66 64.59 91.06 70.53Z" /><path class="shp7" d="M78.29 122.92C79.72 127.78 82.25 131.27 84.03 133.33C80.09 134.07 75.49 134.94 70.1 136C67.93 136.42 63.97 137.19 59.95 135.34C54.4 132.75 52.23 126.75 51.6 124.98C50.75 122.65 49.09 118.08 50.81 113.85C52.66 109.41 57.34 107.56 64.58 105.15C70.24 103.27 75.07 101.66 79.22 100.37L80.01 102.96C78.95 105.07 76.1 111.55 77.58 119.9C77.76 120.96 78 121.97 78.29 122.92Z" /><path class="shp7" d="M50.88 66.54L51.36 69.47C50.12 71.03 45.57 77.03 46.07 85.54C46.07 85.59 46.07 85.62 46.1 85.67C36.08 86.57 27.63 85.8 21.63 84.88L17.5 84.88C17.5 84.72 17.5 84.56 17.5 84.4C17.53 80.73 17.55 75.1 20.59 71.19C25.72 64.59 34.55 69.26 50.88 66.54Z" /><path class="shp7" d="M49.83 96.78L50.31 101.72C33.76 103.39 25.02 103.68 21.03 98.94C17.59 94.84 17.49 88.79 17.51 84.88L21.63 84.88C27.63 85.81 36.09 86.57 46.1 85.67C46.42 91.02 48.59 94.9 49.83 96.78Z" /></g><g ><path class="shp6" d="M79.22 100.37C75.07 101.67 70.23 103.28 64.58 105.15C57.34 107.56 52.66 109.41 50.81 113.85C49.09 118.08 50.76 122.65 51.6 124.98C52.23 126.75 54.4 132.75 59.95 135.34C63.97 137.19 67.93 136.42 70.1 136C75.49 134.94 80.09 134.07 84.03 133.33C103.93 129.58 107.18 129.02 111.73 124.53C114.11 122.18 120.29 116.05 119 109.57C117.15 100.43 101.74 97.33 100.05 97.02C95.21 96.04 89.05 97.33 79.22 100.37Z" /><path class="shp6" d="M91.32 71.62C92.4 76.3 93.36 81.32 91.06 86.18C88.63 91.33 83.79 93.61 78.29 96.09C71.6 99.1 65.74 100.08 57.81 100.93C55.14 101.22 52.63 101.49 50.3 101.72C33.75 103.39 25.01 103.68 21.02 98.94C17.58 94.84 17.48 88.79 17.5 84.88C17.5 84.72 17.5 84.56 17.5 84.4C17.53 80.73 17.55 75.1 20.59 71.19C25.72 64.58 34.54 69.26 50.88 66.54C51.28 66.49 51.67 66.43 52.07 66.35C70.86 62.89 78.68 53.35 85.35 57.97C88.63 60.24 89.66 64.58 91.06 70.52C91.14 70.9 91.24 71.25 91.32 71.62Z" /><path class="shp6" d="M138.92 105.05C137.76 104.81 136.54 104.55 135.27 104.28C121.84 101.4 114.58 99.47 107.07 93.92C102.29 90.38 100.86 87.92 100.25 85.78C98.64 80.15 101.81 74.52 104.51 70.95C105.83 69.23 107.05 67.99 107.52 67.49C109.26 65.69 114.05 60.8 121.18 60.01C126.33 59.43 127.66 61.54 137.04 64.4C142.99 66.2 146.87 66.73 150.1 67.1C154.2 67.6 157.18 67.89 161.91 70.59C167.65 73.81 170.9 77.67 172.48 79.84C174.75 82.91 177.18 86.21 177.34 90.41C177.37 90.99 177.34 91.55 177.26 92.1C176.47 98.89 169.91 105 163.68 107.59C161.2 108.59 158.64 109.15 138.92 105.05Z" /><path class="shp6" d="M112.6 140.84C108.93 133.33 115.4 121.47 124.04 116.18C128.69 113.35 132.79 113.11 140.8 112.64C141.25 112.61 141.86 112.59 142.65 112.56C147.57 112.45 158.72 112.8 171.19 118.16C174.92 119.75 177.27 121.17 178.78 122.34C180.74 123.82 181.29 124.9 181.53 125.43C184.17 131.17 180.71 138.8 176.24 143.03C174.76 144.46 171.88 146.7 160.83 148.77C158.35 149.25 155.83 149.7 153.24 150.07C144.73 151.34 135.48 151.74 125.15 148.33C118.78 146.23 114.58 144.85 112.6 140.84Z" /><path class="shp8" d="M51.36 69.48C50.12 71.04 45.57 77.04 46.07 85.55C46.07 85.6 46.07 85.63 46.1 85.68C46.42 91.02 48.58 94.9 49.83 96.78" /><path class="shp8" d="M21.63 84.88C27.63 85.81 36.09 86.57 46.1 85.67C49.99 85.33 54.11 84.72 58.42 83.79C70.82 81.09 80.49 76.52 87.04 72.77" /><path class="shp8" d="M80.01 102.96C78.95 105.07 76.1 111.55 77.58 119.9C77.77 120.96 78 121.96 78.29 122.91C79.72 127.77 82.25 131.26 84.03 133.32C84.64 134.01 85.14 134.54 85.51 134.88" /><path class="shp8" d="M65.47 123.21C68.25 123.5 72.82 123.74 78.29 122.92C82.41 122.29 87.09 121.07 91.9 118.82C99.12 115.44 104.08 110.97 107.1 107.8" /><path class="shp8" d="M112.39 71.67C120.82 78.62 128.72 82.51 134.19 84.67C135.8 85.3 137.39 85.89 138.92 86.36C146.43 88.84 153.06 89.77 159.06 90.62C165.38 91.52 170.69 91.84 174.5 91.94" /><path class="shp8" d="M149.6 72.99C146.98 75.4 142.15 80.23 138.92 86.36C138.39 87.36 137.92 88.42 137.49 89.51C135.77 93.9 136.01 96.36 136.59 98.1C137.3 100.14 138.57 101.51 139.47 102.3" /><path class="shp8" d="M118.99 139.73C125.12 139.78 132.57 139.41 140.87 137.96C146.53 136.98 152.55 135.53 158.84 133.36C165.18 131.17 170.76 128.63 175.57 126.09" /><path class="shp8" d="M142.78 117.26C138.66 124.42 138.15 132.25 140.88 137.95C141.54 139.32 142.41 140.59 143.44 141.7C146.43 144.87 150.26 145.93 152.69 146.33" /></g></g></g><g ><path class="shp9" d="M217.24 23.48C214.75 23.32 212.18 23.28 209.82 23.97C208.66 24.32 207.55 24.91 206.91 25.86C206.23 26.8 206.2 27.97 206.43 29.16C206.64 30.35 206.99 31.57 207.27 32.81C207.56 34.05 207.8 35.31 207.98 36.58C208.33 39.14 208.33 41.69 208.28 44.24C208.24 45.52 208.13 46.85 207.79 48.17C207.46 49.48 206.93 50.72 206.24 51.9C205.52 53.06 204.59 54.1 203.62 54.97C202.63 55.84 201.64 56.59 200.71 57.4C196.9 60.49 193.85 64.42 191.35 68.81L191.17 68.73C192.65 63.88 195.54 59.36 199.39 55.9C201.32 54.16 203.31 52.76 204.57 50.84C205.21 49.88 205.74 48.81 206.08 47.7C206.42 46.58 206.59 45.4 206.68 44.17C206.83 41.69 206.92 39.19 206.69 36.74C206.57 35.51 206.38 34.29 206.15 33.06C205.92 31.83 205.62 30.61 205.45 29.32C205.36 28.68 205.34 27.99 205.45 27.3C205.54 26.61 205.87 25.95 206.28 25.4C207.13 24.28 208.43 23.72 209.68 23.41C212.21 22.82 214.78 23.02 217.28 23.3L217.24 23.48Z" /></g><g ><path class="shp9" d="M129.6 56.93C127.11 56.77 124.54 56.73 122.18 57.42C121.02 57.77 119.91 58.36 119.27 59.31C118.59 60.25 118.56 61.42 118.79 62.61C119 63.8 119.35 65.02 119.63 66.26C119.92 67.5 120.16 68.76 120.34 70.03C120.69 72.59 120.69 75.14 120.64 77.69C120.6 78.97 120.49 80.3 120.15 81.62C119.82 82.93 119.29 84.17 118.6 85.35C117.88 86.51 116.95 87.55 115.98 88.42C114.99 89.29 114 90.04 113.07 90.85C109.26 93.94 106.21 97.87 103.71 102.26L103.53 102.18C105.01 97.33 107.9 92.81 111.75 89.35C113.68 87.61 115.67 86.21 116.92 84.29C117.56 83.33 118.09 82.26 118.43 81.15C118.77 80.03 118.94 78.85 119.03 77.62C119.18 75.14 119.27 72.64 119.04 70.19C118.92 68.96 118.73 67.74 118.5 66.51C118.27 65.28 117.97 64.06 117.8 62.77C117.71 62.13 117.69 61.44 117.8 60.75C117.89 60.06 118.22 59.4 118.63 58.85C119.48 57.73 120.78 57.17 122.03 56.86C124.56 56.27 127.13 56.47 129.63 56.75L129.6 56.93Z" /></g><g ><path class="shp9" d="M205.14 77.22C202.44 77.44 199.74 77.72 197.1 78.27C195.78 78.54 194.48 78.88 193.23 79.33C191.99 79.78 190.79 80.38 189.88 81.23C189.44 81.66 189.1 82.16 188.94 82.7C188.75 83.23 188.87 83.71 189.09 84.34C189.54 85.55 190.14 86.8 190.67 88.04C191.76 90.54 192.8 93.04 193.82 95.57C194.33 96.84 194.83 98.12 195.23 99.48C195.43 100.16 195.6 100.87 195.69 101.61C195.78 102.38 195.76 103.11 195.7 103.84C195.55 105.31 195.11 106.75 194.51 108.04C193.91 109.33 193.21 110.52 192.52 111.7C189.77 116.41 186.27 120.82 182.08 124.31L181.94 124.17C182.77 123.09 183.62 122.04 184.4 120.94C185.21 119.86 185.98 118.76 186.72 117.64C188.2 115.39 189.51 113.1 190.79 110.7C191.45 109.53 192.1 108.36 192.62 107.18C193.17 106.01 193.57 104.84 193.73 103.61C193.81 103 193.85 102.36 193.81 101.78C193.77 101.18 193.65 100.55 193.5 99.92C193.19 98.66 192.77 97.39 192.33 96.12C191.42 93.59 190.46 91.04 189.48 88.52C188.99 87.25 188.46 86.03 188.01 84.68C187.9 84.34 187.8 83.97 187.76 83.57C187.72 83.16 187.79 82.71 187.92 82.35C188.17 81.6 188.66 80.97 189.21 80.47C190.35 79.51 191.66 78.96 192.98 78.55C194.3 78.15 195.65 77.86 197 77.66C199.7 77.24 202.42 77.09 205.13 77L205.14 77.22Z" /></g><g ><path class="shp9" d="M145.67 49.33C147.39 48.87 149.05 48.12 150.47 47.08C151.89 46.05 153.06 44.68 153.63 43.08C154.26 41.51 154.28 39.74 153.88 38.11C153.44 36.49 152.59 35.04 151.28 33.99C150 32.9 148.42 32.12 146.82 31.18C145.26 30.22 143.58 28.95 142.67 27.09C141.7 25.29 141.53 23.19 141.85 21.32C142.15 19.43 142.9 17.71 143.83 16.14L144.01 16.22C143.59 17.98 143.26 19.74 143.25 21.45C143.24 23.15 143.56 24.8 144.42 26.13C145.21 27.49 146.47 28.54 147.9 29.53C149.32 30.54 150.95 31.47 152.35 32.81C153.8 34.11 154.77 35.96 155.15 37.84C155.5 39.72 155.36 41.73 154.55 43.47C153.77 45.23 152.37 46.61 150.8 47.58C149.23 48.56 147.49 49.19 145.7 49.53L145.67 49.33Z" /></g><g ><path class="shp9" d="M98.89 9.43C96.99 10.65 95.13 11.91 93.37 13.31C91.63 14.71 89.94 16.23 88.74 18.03C88.15 18.92 87.71 19.91 87.69 20.88C87.65 21.86 88.13 22.71 88.88 23.4C90.42 24.76 92.58 25.74 94.4 27.25C95.31 28 96.17 28.85 96.9 29.82C97.61 30.79 98.23 31.86 98.69 32.96C99.14 34.07 99.47 35.25 99.64 36.46C99.79 37.67 99.76 38.91 99.54 40.13C99.08 42.56 97.77 44.78 96 46.38C94.23 47.99 92.07 49.04 89.84 49.55L89.78 49.36C91.79 48.35 93.6 47.01 95 45.39C96.38 43.77 97.31 41.84 97.58 39.8C97.84 37.77 97.58 35.66 96.86 33.68C96.5 32.67 96.04 31.74 95.47 30.86C94.88 29.99 94.17 29.21 93.38 28.48C92.58 27.77 91.68 27.13 90.76 26.49C89.84 25.84 88.86 25.22 87.99 24.34C87.11 23.49 86.43 22.16 86.57 20.85C86.66 19.55 87.26 18.43 87.95 17.48C89.38 15.6 91.19 14.17 93.04 12.85C94.9 11.54 96.84 10.38 98.82 9.28L98.89 9.43Z" /></g><g ><path class="shp9" d="M23.28 12.26C20.93 13.81 18.59 15.43 16.56 17.36C15.56 18.32 14.6 19.37 14.02 20.56C13.74 21.15 13.6 21.79 13.73 22.35C13.85 22.92 14.21 23.36 14.76 23.72C15.85 24.42 17.21 24.93 18.49 25.53C19.79 26.12 21.07 26.76 22.32 27.47C23.58 28.17 24.78 28.96 25.96 29.77C27.12 30.59 28.29 31.39 29.43 32.31C30.54 33.23 31.77 34.27 32.35 35.96C32.61 36.79 32.65 37.69 32.45 38.53C32.26 39.37 31.87 40.14 31.43 40.78C30.53 42.05 29.5 43.04 28.79 44.07C28.44 44.58 28.19 45.09 28.07 45.6C27.97 46.1 28.01 46.67 28.16 47.14C28.31 47.6 28.66 48.05 29.13 48.65C29.59 49.23 30.05 49.94 30.33 50.68C30.89 52.16 31.09 53.68 30.97 55.19C30.86 56.68 30.45 58.18 29.71 59.47C28.95 60.74 27.95 61.85 26.76 62.65L26.63 62.5C28.6 60.49 29.71 57.82 29.57 55.16C29.51 53.85 29.25 52.51 28.71 51.39C28.44 50.83 28.11 50.34 27.66 49.84C27.24 49.35 26.63 48.72 26.28 47.85C26.13 47.42 26.01 46.98 26 46.54C25.95 46.1 25.99 45.65 26.06 45.21C26.24 44.33 26.63 43.56 27.07 42.9C27.99 41.61 29.06 40.67 29.81 39.64C30.58 38.64 30.91 37.56 30.63 36.48C30.35 35.42 29.41 34.43 28.4 33.54C27.37 32.64 26.24 31.8 25.11 30.95C23.99 30.13 22.85 29.32 21.66 28.6C20.47 27.87 19.25 27.21 17.99 26.58C16.74 25.93 15.44 25.41 14.17 24.54C13.55 24.11 12.96 23.37 12.84 22.52C12.7 21.68 12.95 20.88 13.3 20.21C14.03 18.88 15.08 17.86 16.15 16.92C18.32 15.05 20.74 13.55 23.17 12.1L23.28 12.26Z" /></g><g ><path class="shp9" d="M43.99 21.71C45.31 24.5 46.72 27.24 48.21 29.93C48.94 31.28 49.7 32.62 50.48 33.94C51.25 35.28 52.1 36.53 52.79 38.06C53.14 38.83 53.34 39.75 53.37 40.6C53.4 41.46 53.33 42.33 53.13 43.16C52.91 43.99 52.6 44.78 52.24 45.5C51.88 46.23 51.46 46.89 51.12 47.52C50.38 48.78 50.1 49.88 50.74 51.04C51.38 52.17 52.68 53.08 54.01 53.85L53.94 54.04C52.41 53.75 50.78 53.25 49.59 51.85C49 51.16 48.65 50.19 48.65 49.21C48.67 48.23 49.01 47.37 49.33 46.63C50.03 45.14 50.81 43.94 51.22 42.62C51.63 41.32 51.77 39.9 51.3 38.63C50.81 37.31 50.01 35.93 49.34 34.55C48.64 33.16 47.97 31.77 47.32 30.36C46.05 27.53 44.89 24.66 43.81 21.77L43.99 21.71Z" /></g></g></g></svg>