<svg xmlns="http://www.w3.org/2000/svg" viewBox="0 0 247 176" width="256" height="182"><style>tspan { white-space:pre }.shp0 { fill: #ffffff } .shp1 { fill: #d4145a } .shp2 { fill: none;stroke: #000000;stroke-width: 2 } .shp3 { fill: #808080;stroke: #000000;stroke-width: 2 } .shp4 { fill: #000000 } .shp5 { fill: #f7931e } .shp6 { fill: #c1272d } </style><g ></g><g ><g ><path class="shp0" d="M2.08 68.02C0.57 61.75 -1.41 56.18 1.45 51.12C4.28 46.11 10.12 44.4 17.1 42.36C19.39 41.69 26.88 39.63 40.89 39.23C53.63 38.86 58.3 40.25 60.61 37.04C62.87 33.89 59.79 30.59 60.92 23.89C62.06 17.13 66.51 12.67 69.06 10.12C74.17 5 81 2.49 115.38 0.73C141.11 -0.59 147.78 0.28 154.82 4.49C160.92 8.14 164.9 12.86 167.34 16.38C168.69 21.49 167.7 23.47 169.22 25.46C172.51 29.79 179.47 26.31 191.44 25.15C208.43 23.5 221.67 27.23 234.32 30.78C241.39 32.77 242.51 33.69 243.08 34.22C250.6 41.16 243.82 53.72 242.14 78.98C240.75 99.92 243.08 121.23 243.08 121.23C244.39 137.25 245.5 139.63 243.39 144.39C237.21 158.33 217.03 161.89 213.34 162.54C185.55 167.44 178.39 148.52 149.81 153.46C138.23 155.46 132.84 159.7 120.39 158.15C110.64 156.94 105.64 153.16 98.48 155.96C91.23 158.8 91.46 164.06 84.71 169.42C75.09 177.06 62.75 175.79 43.4 173.8C26.78 172.09 17.84 171.03 12.1 163.78C8.05 158.66 7.52 152.9 6.78 143.44C5.58 128.19 8.97 126.28 8.97 112.46C8.97 96.58 4.51 78.08 2.08 68.02Z" /><g ><g ><g ><path class="shp0" d="M157.89 17.85C165.53 23.44 161.52 35.83 159.01 58.1L157.43 58.19C154.36 58.84 149.7 59.77 144.01 60.99C131.43 63.51 125.09 64.72 123.14 64.81C110.56 65.37 108.32 60.06 95.93 59.41C90.53 59.13 82.61 59.69 72.64 64.07L71.52 64.26C67.42 41.71 60.71 31.18 68.17 22.89C74.69 15.72 86.99 15.34 108.98 14.69C110.94 14.69 118.39 14.97 133.39 15.53C154.72 16.27 156.11 16.55 157.89 17.85Z" /><path class="shp1" d="M157.42 58.2L159 58.11C158.53 62.3 158.16 66.87 157.88 71.81C155.64 112.62 165.8 126.32 154.43 138.81C146.23 147.66 133.46 148.5 120.61 149.25C110.17 149.9 87.25 151.39 76.35 138.25C67.31 127.25 75.51 117.38 74.02 85.79C73.65 77.59 72.62 70.42 71.5 64.27L72.62 64.08C82.59 59.7 90.51 59.14 95.91 59.42C108.3 60.07 110.54 65.38 123.12 64.82C125.08 64.73 131.41 63.52 143.99 61C149.69 59.79 154.34 58.85 157.42 58.2Z" /></g><g ><path class="shp2" d="M159 58.11C161.52 35.84 165.52 23.45 157.88 17.86C156.11 16.56 154.71 16.28 133.37 15.53C118.37 14.97 110.91 14.69 108.96 14.69C86.97 15.34 74.67 15.71 68.15 22.89C60.7 31.18 67.4 41.71 71.5 64.26C72.62 70.41 73.64 77.58 74.02 85.78C75.51 117.37 67.31 127.24 76.35 138.24C87.25 151.38 110.17 149.89 120.61 149.24C133.47 148.49 146.23 147.66 154.43 138.8C165.8 126.31 155.64 112.62 157.88 71.8C158.16 66.87 158.54 62.3 159 58.11Z" /><path class="shp2" d="M72.63 64.07C82.6 59.69 90.52 59.13 95.92 59.41C108.31 60.06 110.55 65.37 123.13 64.81C125.09 64.72 131.42 63.51 144 60.99C149.68 59.78 154.34 58.85 157.42 58.19" /></g></g><path class="shp3" d="M65.29 30.26C67.03 33.92 71.53 37.18 92.66 38.9C110.52 40.36 121.83 39.21 138.38 37.44C143.27 36.92 161.88 34.81 162.74 29.09C162.92 27.92 162.63 24.73 162.55 23.85C162.35 21.69 161.95 18.83 161.58 17.64C159.9 12.32 149.29 10.71 146.83 10.36C121.85 6.82 99.37 9.78 99.37 9.78C70.42 13.59 66.47 18.14 65.11 21.52C65.01 21.75 63.32 26.12 65.29 30.26Z" /><path class="shp2" d="M63.83 24.89C76.08 28.4 95.98 32.47 120.34 30.23C138.05 28.6 152.42 24.15 162.54 20.14" /><path class="shp2" d="M71.22 28.31C70.46 28.94 70.02 30.03 70.09 31.08C70.16 32.15 70.75 33 71.59 33.25" /><path class="shp2" d="M75.68 29.58C74.92 30.21 74.48 31.3 74.55 32.35C74.62 33.42 75.21 34.27 76.05 34.52" /><path class="shp2" d="M81.81 30.78C81.05 31.41 80.61 32.5 80.68 33.55C80.75 34.62 81.34 35.47 82.18 35.72" /><path class="shp2" d="M87.77 31.7C87.01 32.33 86.57 33.42 86.64 34.47C86.71 35.54 87.3 36.39 88.14 36.64" /><path class="shp2" d="M94.84 32.05C94.08 32.68 93.64 33.77 93.71 34.82C93.78 35.89 94.37 36.74 95.21 36.99" /><path class="shp2" d="M101.85 32.64C101.09 33.27 100.65 34.36 100.72 35.41C100.79 36.48 101.38 37.33 102.22 37.58" /><path class="shp2" d="M109.26 32.64C108.5 33.27 108.06 34.36 108.13 35.41C108.2 36.48 108.79 37.33 109.63 37.58" /><path class="shp2" d="M117.48 32.05C116.72 32.68 116.28 33.77 116.35 34.82C116.42 35.89 117.01 36.74 117.85 36.99" /><path class="shp2" d="M126.59 31.7C125.83 32.33 125.39 33.42 125.46 34.47C125.53 35.54 126.12 36.39 126.96 36.64" /><path class="shp2" d="M135.99 30.17C135.23 30.8 134.79 31.89 134.86 32.94C134.93 34.01 135.52 34.86 136.36 35.11" /><path class="shp2" d="M144.23 28.4C143.47 29.03 143.03 30.12 143.1 31.17C143.17 32.24 143.76 33.09 144.6 33.34" /><path class="shp2" d="M154.19 25.83C153.43 26.46 152.99 27.55 153.06 28.6C153.13 29.67 153.72 30.52 154.56 30.77" /><g ><path class="shp4" d="M85.28 137.72C89.61 134.05 94.49 130.76 100.16 129.32C102.98 128.63 105.99 128.51 108.88 129.11C110.32 129.4 111.69 129.83 113.05 130.18C114.41 130.54 115.77 130.85 117.15 131.07C122.69 131.93 128.34 131.69 133.89 131.08C136.67 130.77 139.43 130.26 142.18 129.62C143.55 129.3 144.92 128.93 146.27 128.52C147.64 128.14 148.98 127.68 150.33 127.23L150.41 127.41C149.17 128.14 147.88 128.76 146.58 129.38C145.26 129.96 143.92 130.48 142.56 130.96C139.84 131.92 137.01 132.6 134.16 133.06C128.43 133.97 122.56 133.76 116.87 132.65C115.45 132.37 114.04 132 112.66 131.58C111.28 131.16 109.95 130.7 108.6 130.38C105.92 129.73 103.11 129.73 100.38 130.3C94.89 131.42 89.88 134.42 85.41 137.88L85.28 137.72Z" /></g><g ><path class="shp4" d="M86.57 119.71C90.9 116.04 95.78 112.75 101.45 111.31C104.27 110.62 107.28 110.5 110.17 111.1C111.61 111.39 112.98 111.82 114.34 112.17C115.7 112.53 117.06 112.84 118.44 113.06C123.98 113.92 129.63 113.68 135.18 113.07C137.96 112.76 140.72 112.25 143.47 111.61C144.84 111.29 146.21 110.92 147.56 110.51C148.93 110.13 150.27 109.67 151.62 109.22L151.7 109.4C150.46 110.13 149.17 110.75 147.87 111.37C146.55 111.95 145.21 112.47 143.85 112.95C141.13 113.91 138.3 114.59 135.45 115.05C129.72 115.96 123.85 115.75 118.16 114.64C116.74 114.36 115.33 113.99 113.95 113.57C112.57 113.15 111.24 112.69 109.89 112.37C107.21 111.72 104.4 111.72 101.67 112.29C96.18 113.41 91.17 116.41 86.7 119.87L86.57 119.71Z" /></g><g ><path class="shp4" d="M83.77 106.54C88.1 102.87 92.98 99.58 98.65 98.14C101.47 97.45 104.48 97.33 107.37 97.93C108.81 98.22 110.18 98.65 111.54 99C112.9 99.36 114.26 99.67 115.64 99.89C121.18 100.75 126.83 100.51 132.38 99.9C135.16 99.59 137.92 99.08 140.67 98.44C142.04 98.12 143.41 97.75 144.76 97.34C146.13 96.96 147.47 96.5 148.82 96.05L148.9 96.23C147.66 96.96 146.37 97.58 145.07 98.2C143.75 98.78 142.41 99.3 141.05 99.78C138.33 100.74 135.5 101.42 132.65 101.88C126.92 102.79 121.05 102.58 115.36 101.47C113.94 101.19 112.53 100.82 111.15 100.4C109.77 99.98 108.44 99.52 107.09 99.2C104.41 98.55 101.6 98.55 98.87 99.12C93.38 100.24 88.37 103.24 83.9 106.7L83.77 106.54Z" /></g></g><g ><g ><g ><path class="shp0" d="M234.65 38.95C241.33 43.84 237.83 54.68 235.63 74.15L234.24 74.23C231.55 74.8 227.48 75.62 222.51 76.67C211.51 78.87 205.97 79.93 204.26 80.01C193.26 80.5 191.3 75.85 180.47 75.28C175.74 75.04 168.82 75.52 160.1 79.35L159.12 79.51C155.53 59.79 149.67 50.58 156.19 43.33C161.89 37.06 172.65 36.73 191.88 36.16C193.59 36.16 200.11 36.4 213.23 36.89C231.88 37.56 233.1 37.81 234.65 38.95Z" /><path class="shp5" d="M234.24 74.23L235.63 74.15C235.22 77.82 234.9 81.81 234.65 86.13C232.69 121.82 241.58 133.8 231.64 144.72C224.47 152.46 213.31 153.19 202.06 153.85C192.93 154.42 172.89 155.72 163.36 144.23C155.46 134.61 162.63 125.98 161.32 98.35C160.99 91.18 160.1 84.91 159.12 79.53L160.1 79.37C168.82 75.54 175.74 75.05 180.47 75.3C191.31 75.87 193.26 80.51 204.26 80.03C205.97 79.95 211.51 78.89 222.51 76.69C227.48 75.61 231.55 74.8 234.24 74.23Z" /></g><g ><path class="shp2" d="M235.62 74.15C237.82 54.68 241.32 43.84 234.64 38.95C233.09 37.81 231.87 37.56 213.21 36.91C200.09 36.42 193.57 36.18 191.86 36.18C172.63 36.75 161.87 37.08 156.17 43.35C149.65 50.6 155.52 59.81 159.1 79.53C160.08 84.91 160.97 91.18 161.3 98.35C162.6 125.97 155.43 134.61 163.34 144.23C172.87 155.72 192.92 154.42 202.04 153.85C213.28 153.2 224.45 152.46 231.62 144.72C241.56 133.8 232.68 121.82 234.63 86.13C234.89 81.81 235.22 77.81 235.62 74.15Z" /><path class="shp2" d="M160.09 79.36C168.81 75.53 175.73 75.04 180.46 75.29C191.3 75.86 193.25 80.5 204.25 80.02C205.96 79.94 211.5 78.88 222.5 76.68C227.47 75.62 231.54 74.81 234.23 74.24" /></g></g><path class="shp3" d="M153.67 49.8C155.19 53 159.12 55.85 177.61 57.35C193.23 58.62 203.12 57.62 217.59 56.08C221.87 55.62 238.14 53.78 238.89 48.78C239.05 47.75 238.79 44.97 238.72 44.2C238.55 42.31 238.2 39.81 237.87 38.77C236.4 34.12 227.13 32.71 224.97 32.4C203.13 29.3 183.46 31.89 183.46 31.89C158.15 35.22 154.69 39.2 153.5 42.16C153.43 42.35 151.95 46.18 153.67 49.8Z" /><path class="shp2" d="M152.4 45.1C163.11 48.17 180.52 51.73 201.81 49.77C217.29 48.34 229.87 44.45 238.72 40.94" /><path class="shp2" d="M158.86 48.09C158.2 48.64 157.81 49.59 157.87 50.51C157.93 51.45 158.45 52.19 159.18 52.41" /><path class="shp2" d="M162.76 49.2C162.1 49.75 161.71 50.7 161.77 51.62C161.83 52.56 162.35 53.3 163.08 53.52" /><path class="shp2" d="M168.12 50.25C167.46 50.8 167.07 51.75 167.13 52.67C167.19 53.61 167.71 54.35 168.44 54.57" /><path class="shp2" d="M173.33 51.06C172.67 51.61 172.28 52.56 172.34 53.48C172.4 54.42 172.92 55.16 173.65 55.38" /><path class="shp2" d="M179.52 51.36C178.86 51.91 178.47 52.86 178.53 53.78C178.59 54.72 179.11 55.46 179.84 55.68" /><path class="shp2" d="M185.65 51.87C184.99 52.42 184.6 53.37 184.66 54.29C184.72 55.23 185.24 55.97 185.97 56.19" /><path class="shp2" d="M192.12 51.87C191.46 52.42 191.07 53.37 191.13 54.29C191.19 55.23 191.71 55.97 192.44 56.19" /><path class="shp2" d="M199.31 51.36C198.65 51.91 198.26 52.86 198.32 53.78C198.38 54.72 198.9 55.46 199.63 55.68" /><path class="shp2" d="M207.28 51.06C206.62 51.61 206.23 52.56 206.29 53.48C206.35 54.42 206.87 55.16 207.6 55.38" /><path class="shp2" d="M215.5 49.71C214.84 50.26 214.45 51.21 214.51 52.13C214.57 53.07 215.09 53.81 215.82 54.03" /><path class="shp2" d="M222.71 48.17C222.05 48.72 221.66 49.67 221.72 50.59C221.78 51.53 222.3 52.27 223.03 52.49" /><path class="shp2" d="M231.41 45.92C230.75 46.47 230.36 47.42 230.42 48.34C230.48 49.28 231 50.02 231.73 50.24" /><g ><path class="shp4" d="M171.15 143.76C174.92 140.53 179.19 137.64 184.16 136.36C186.63 135.75 189.28 135.64 191.81 136.16C193.08 136.41 194.28 136.78 195.47 137.09C196.66 137.4 197.84 137.66 199.05 137.85C201.46 138.22 203.91 138.36 206.35 138.31C207.57 138.3 208.79 138.24 210.01 138.16C211.23 138.1 212.44 137.99 213.65 137.83C218.51 137.3 223.29 136.12 228.04 134.57L228.12 134.75C223.8 137.32 218.93 138.99 213.92 139.81C208.9 140.63 203.75 140.39 198.76 139.42C197.51 139.17 196.28 138.85 195.07 138.48C193.86 138.11 192.7 137.7 191.53 137.42C189.2 136.85 186.75 136.84 184.37 137.33C179.58 138.29 175.19 140.89 171.27 143.91L171.15 143.76Z" /></g><g ><path class="shp4" d="M172.28 128C176.05 124.77 180.32 121.88 185.29 120.6C187.76 119.99 190.41 119.88 192.94 120.4C194.21 120.65 195.41 121.02 196.6 121.33C197.79 121.64 198.97 121.9 200.18 122.09C202.59 122.46 205.04 122.6 207.48 122.55C208.7 122.54 209.92 122.48 211.14 122.4C212.36 122.33 213.57 122.23 214.78 122.07C219.64 121.54 224.42 120.37 229.17 118.81L229.25 118.99C224.93 121.56 220.06 123.23 215.05 124.05C210.03 124.87 204.88 124.63 199.89 123.66C198.64 123.41 197.41 123.09 196.2 122.72C194.99 122.35 193.83 121.94 192.66 121.66C190.33 121.09 187.88 121.08 185.5 121.57C180.71 122.53 176.32 125.13 172.4 128.15L172.28 128Z" /></g><g ><path class="shp4" d="M169.83 116.49C173.6 113.26 177.87 110.37 182.84 109.09C185.31 108.48 187.96 108.37 190.49 108.89C191.76 109.14 192.96 109.51 194.15 109.82C195.34 110.13 196.52 110.39 197.73 110.58C200.14 110.95 202.59 111.09 205.03 111.04C206.25 111.03 207.47 110.97 208.69 110.89C209.91 110.82 211.12 110.72 212.33 110.56C217.19 110.03 221.97 108.86 226.72 107.3L226.8 107.48C222.48 110.05 217.61 111.72 212.6 112.54C207.58 113.36 202.43 113.12 197.44 112.15C196.19 111.9 194.96 111.58 193.75 111.21C192.54 110.84 191.38 110.43 190.21 110.15C187.88 109.58 185.43 109.57 183.05 110.06C178.26 111.02 173.87 113.63 169.95 116.64L169.83 116.49Z" /></g></g><g ><g ><g ><path class="shp0" d="M89.32 53.03C96 57.92 92.5 68.76 90.3 88.23L88.91 88.31C86.22 88.88 82.15 89.7 77.18 90.75C66.18 92.95 60.64 94.01 58.93 94.09C47.93 94.58 45.97 89.93 35.14 89.36C30.41 89.12 23.49 89.6 14.77 93.43L13.79 93.59C10.2 73.87 4.34 64.66 10.86 57.41C16.56 51.14 27.32 50.81 46.55 50.24C48.26 50.24 54.78 50.48 67.9 50.97C86.55 51.64 87.77 51.89 89.32 53.03Z" /><path class="shp6" d="M88.91 88.31L90.3 88.23C89.89 91.9 89.57 95.89 89.32 100.21C87.36 135.9 96.25 147.88 86.31 158.8C79.14 166.54 67.98 167.27 56.73 167.93C47.6 168.5 27.56 169.8 18.03 158.31C10.13 148.69 17.3 140.06 15.99 112.43C15.66 105.26 14.77 98.99 13.79 93.61L14.77 93.45C23.49 89.62 30.41 89.13 35.14 89.38C45.98 89.95 47.93 94.59 58.93 94.11C60.64 94.03 66.18 92.97 77.18 90.77C82.15 89.69 86.23 88.88 88.91 88.31Z" /></g><g ><path class="shp2" d="M90.3 88.23C92.5 68.76 96 57.92 89.32 53.03C87.77 51.89 86.55 51.64 67.89 50.99C54.77 50.5 48.25 50.26 46.54 50.26C27.31 50.83 16.55 51.16 10.85 57.43C4.33 64.68 10.2 73.89 13.78 93.61C14.76 98.99 15.65 105.26 15.98 112.43C17.28 140.05 10.11 148.69 18.02 158.31C27.55 169.8 47.6 168.5 56.72 167.93C67.96 167.28 79.13 166.54 86.3 158.8C96.24 147.88 87.36 135.9 89.31 100.21C89.57 95.89 89.89 91.89 90.3 88.23Z" /><path class="shp2" d="M14.76 93.44C23.48 89.61 30.4 89.12 35.13 89.37C45.97 89.94 47.92 94.58 58.92 94.1C60.63 94.02 66.17 92.96 77.17 90.76C82.14 89.7 86.21 88.89 88.9 88.32" /></g></g><path class="shp3" d="M8.35 63.88C9.87 67.08 13.8 69.93 32.29 71.43C47.91 72.7 57.8 71.7 72.27 70.16C76.55 69.7 92.82 67.86 93.57 62.86C93.73 61.83 93.47 59.05 93.4 58.28C93.23 56.39 92.88 53.89 92.55 52.85C91.08 48.2 81.81 46.79 79.65 46.48C57.81 43.38 38.14 45.97 38.14 45.97C12.83 49.3 9.37 53.28 8.18 56.24C8.1 56.43 6.63 60.26 8.35 63.88Z" /><path class="shp2" d="M7.07 59.18C17.78 62.25 35.19 65.81 56.48 63.85C71.96 62.42 84.54 58.53 93.39 55.02" /><path class="shp2" d="M13.54 62.16C12.88 62.71 12.49 63.66 12.55 64.58C12.61 65.52 13.13 66.26 13.86 66.48" /><path class="shp2" d="M17.43 63.28C16.77 63.83 16.38 64.78 16.44 65.7C16.5 66.64 17.02 67.38 17.75 67.6" /><path class="shp2" d="M22.8 64.33C22.14 64.88 21.75 65.83 21.81 66.75C21.87 67.69 22.39 68.43 23.12 68.65" /><path class="shp2" d="M28.01 65.13C27.35 65.68 26.96 66.63 27.02 67.55C27.08 68.49 27.6 69.23 28.33 69.45" /><path class="shp2" d="M34.19 65.44C33.53 65.99 33.14 66.94 33.2 67.86C33.26 68.8 33.78 69.54 34.51 69.76" /><path class="shp2" d="M40.32 65.95C39.66 66.5 39.27 67.45 39.33 68.37C39.39 69.31 39.91 70.05 40.64 70.27" /><path class="shp2" d="M46.8 65.95C46.14 66.5 45.75 67.45 45.81 68.37C45.87 69.31 46.39 70.05 47.12 70.27" /><path class="shp2" d="M53.99 65.44C53.33 65.99 52.94 66.94 53 67.86C53.06 68.8 53.58 69.54 54.31 69.76" /><path class="shp2" d="M61.96 65.13C61.3 65.68 60.91 66.63 60.97 67.55C61.03 68.49 61.55 69.23 62.28 69.45" /><path class="shp2" d="M70.17 63.79C69.51 64.34 69.12 65.29 69.18 66.21C69.24 67.15 69.76 67.89 70.49 68.11" /><path class="shp2" d="M77.38 62.25C76.72 62.8 76.33 63.75 76.39 64.67C76.45 65.61 76.97 66.35 77.7 66.57" /><path class="shp2" d="M86.09 60C85.43 60.55 85.04 61.5 85.1 62.42C85.16 63.36 85.68 64.1 86.41 64.32" /><g ><path class="shp4" d="M25.82 157.83C29.59 154.6 33.86 151.71 38.83 150.43C41.3 149.82 43.95 149.71 46.48 150.23C47.75 150.48 48.95 150.85 50.14 151.16C51.33 151.47 52.51 151.73 53.72 151.92C56.13 152.29 58.58 152.43 61.02 152.38C62.24 152.37 63.46 152.31 64.68 152.23C65.9 152.17 67.11 152.06 68.32 151.9C73.18 151.37 77.96 150.19 82.71 148.64L82.79 148.82C78.47 151.39 73.6 153.06 68.59 153.88C63.57 154.7 58.42 154.46 53.43 153.49C52.18 153.24 50.95 152.92 49.74 152.55C48.53 152.18 47.37 151.77 46.2 151.49C43.87 150.92 41.42 150.91 39.04 151.4C34.25 152.36 29.86 154.96 25.94 157.98L25.82 157.83Z" /></g><g ><path class="shp4" d="M26.95 142.08C30.72 138.85 34.99 135.96 39.96 134.68C42.43 134.07 45.08 133.96 47.61 134.48C48.88 134.73 50.08 135.1 51.27 135.41C52.46 135.72 53.64 135.98 54.85 136.17C57.26 136.54 59.71 136.68 62.15 136.63C63.37 136.62 64.59 136.56 65.81 136.48C67.03 136.41 68.24 136.31 69.45 136.15C74.31 135.62 79.09 134.45 83.84 132.89L83.92 133.07C79.6 135.64 74.73 137.31 69.72 138.13C64.7 138.95 59.55 138.71 54.56 137.74C53.31 137.49 52.08 137.17 50.87 136.8C49.66 136.43 48.5 136.02 47.33 135.74C45 135.17 42.55 135.16 40.17 135.65C35.38 136.61 30.99 139.21 27.07 142.23L26.95 142.08Z" /></g><g ><path class="shp4" d="M24.5 130.57C28.27 127.34 32.54 124.45 37.51 123.17C39.98 122.56 42.63 122.45 45.16 122.97C46.43 123.22 47.63 123.59 48.82 123.9C50.01 124.21 51.19 124.47 52.4 124.66C54.81 125.03 57.26 125.17 59.7 125.12C60.92 125.11 62.14 125.05 63.36 124.97C64.58 124.9 65.79 124.8 67 124.64C71.86 124.11 76.64 122.94 81.39 121.38L81.47 121.56C77.15 124.13 72.28 125.8 67.27 126.62C62.25 127.44 57.1 127.2 52.11 126.23C50.86 125.98 49.63 125.66 48.42 125.29C47.21 124.92 46.05 124.51 44.88 124.23C42.55 123.66 40.1 123.65 37.72 124.14C32.93 125.1 28.54 127.7 24.62 130.72L24.5 130.57Z" /></g></g></g></g></svg>