<svg xmlns="http://www.w3.org/2000/svg" viewBox="0 0 205 332" width="256" height="415"><style>tspan { white-space:pre }.shp0 { fill: #ffffff } .shp1 { fill: #1d1d1b } .shp2 { fill: #009245 } .shp3 { fill: #008d36 } .shp4 { fill: #925f36 } .shp5 { fill: #f8b133 } .shp6 { fill: #caba9f } .shp7 { fill: #683b11 } .shp8 { fill: #ffec00 } .shp9 { fill: #81358a } .shp10 { fill: #bd1622 } .shp11 { fill: #e84e1b } .shp12 { fill: #fcea0d } .shp13 { fill: #e20613 } </style><g ></g><g ><g ><path class="shp0" d="M17.6 201.06C21.15 198.94 24.47 198.37 27.79 197.83C40.63 195.74 44.92 200.69 49.92 198.08C52.77 196.59 54.54 193.33 56.39 167.25C57.7 148.72 58.32 139.35 56.39 133.93C53.18 124.93 48.83 122.64 46.94 112.05C46.2 107.89 45.13 101.92 47.19 95.08C49.72 86.65 54.28 85.93 62.36 72.27C65.69 66.65 67.35 63.84 68.33 60.33C70.67 51.95 68.4 47.47 72.31 39.94C73.68 37.29 74.49 36.83 75.54 33.97C77.52 28.6 76.18 26.15 77.53 22.28C78.48 19.55 81.16 17.35 86.48 13.08C93.62 7.34 97.2 4.47 101.9 2.64C105.05 1.41 110.63 -0.68 117.81 0.15C125.9 1.09 131.3 5.2 134.47 7.61C137.45 9.88 142.43 13.66 145.41 20.04C149.03 27.79 145.96 32.78 146.9 47.39C147.62 58.53 147.97 64.1 148.89 67.78C153.78 87.42 166.25 88.63 168.28 104.58C168.89 109.37 167.28 116.06 164.05 129.44C159.81 147.05 156.06 152.43 159.33 158.78C162.01 163.99 167.63 166.41 174.75 169.47C185.48 174.09 188.79 171.48 194.14 175.93C199.68 180.54 201.12 187.5 202.59 194.58C204.5 203.75 203.85 210.98 203.58 214.47C202.34 230.5 204.05 246.63 204.08 262.71C204.12 283.82 204.09 290.68 202.84 301.25C202.11 307.42 201.24 312.49 200.6 315.92C199.42 317.6 197.4 320.15 194.38 322.63C182.61 332.33 167.21 331.42 160.81 331.08C130.92 329.49 100.97 329.7 71.05 328.84C28.14 327.61 17.25 332.04 8.89 322.13C-1.69 309.59 0.14 284 0.93 272.9C1.52 264.68 2.36 265.51 3.17 254.87C4.72 234.48 1.86 228.23 6.4 216.21C10.31 205.9 15.52 202.3 17.6 201.06Z" /><g ><g ><g ><g ><g ><path class="shp1" d="M158.13 98.6C161 106.29 160.12 113.14 159.23 119.74C158.93 121.94 158.6 123.71 158.22 125.28L157.75 124.94C157.5 125.32 157.2 125.7 156.9 126.12C157.37 124.34 157.79 122.32 158.17 119.65C159.1 112.8 159.95 106.42 157.16 98.93C155.76 95.29 153.61 91.7 150.73 88.19C149.17 86.29 146.54 83.16 142.23 80.54C136.1 76.86 131.53 75.8 128.66 77.37C126.88 78.34 126.21 80.24 125.53 82.23L125.36 82.74C122.27 91.66 115.3 104.22 110.65 104.22C110.52 104.22 110.44 104.22 110.35 104.22C109.04 104.09 108.36 103.42 103.25 90.52L102.19 87.9C99.02 79.78 98.05 77.33 95.38 75.98C94.32 75.47 93.27 75.22 92.08 75.22C90.35 75.22 88.32 75.69 85.53 76.4C79.82 77.8 71.96 79.7 65.36 86.8C62.74 89.59 54.45 99.48 56.31 110.31C56.94 113.78 58.34 116.02 59.95 118.55C60.8 119.9 61.68 121.3 62.53 123.03L62.19 123.37C62.49 123.67 62.78 123.96 63.12 124.3C64.01 126.29 64.77 128.65 65.32 131.7C66.08 136.01 66.38 140.96 66.38 141C66.55 143.87 66.51 145.78 66.42 147.98C66.42 149.38 66.38 150.85 66.38 152.8C66.38 156.44 66.55 158.38 66.68 160.28C66.76 161.55 66.89 162.77 66.89 164.42C67.02 168.69 66.64 172.58 66.04 176.05C65.96 176.01 65.83 176.01 65.74 175.97L65.44 176.94C65.57 176.98 65.74 177.02 65.86 177.07C65.18 181.09 64.21 184.6 63.37 187.68C62.23 191.82 61.34 193.89 60.54 195.88C60.16 196.77 59.78 197.7 59.36 198.8C59.36 198.84 58.3 201.67 57.37 205.31C56.14 210.09 56.48 214.78 56.86 220.19C56.94 221.33 57.03 222.52 57.11 223.7C57.11 223.78 57.53 230.51 57.41 239.34C57.24 248.73 56.01 255.74 53.94 267.45C53.22 271.47 52.67 274.21 52.16 276.88C51.4 280.64 50.68 284.19 49.62 290.87C48.82 295.77 48.61 300.26 48.9 304.36C48.69 304.4 48.52 304.44 48.31 304.49L48.56 305.5C48.73 305.46 48.86 305.42 49.03 305.42C49.37 308.51 50.04 311.3 51.02 313.83C51.53 315.18 52.29 316.75 53.77 318.1C57.15 321.06 61.93 320.64 67 320.21C73.68 319.62 77.02 319.32 79.39 317C81.55 314.89 81.93 312.05 82.22 305.29L82.35 304.28C82.31 304.28 82.31 304.28 82.27 304.28C82.27 303.77 82.31 303.27 82.31 302.76L82.39 300.98C82.6 296.37 82.56 292.99 82.56 290.03C82.52 287.03 82.48 284.45 82.77 281.57C84.29 264.57 85.01 256.92 85.56 253.33C87.12 243.78 87.97 238.49 90.55 232.44C93.89 224.62 100.61 213.63 104.59 214.85C106.58 215.48 106.75 218.32 107.42 230.15C108.39 247.02 108.9 256.32 108.82 260.46C108.74 264.56 108.44 272.93 107.42 283.42C107.38 283.84 107.29 284.35 107.25 284.94C106.83 288.83 105.98 296.52 106.32 305.99C106.19 305.99 106.11 306.03 105.98 306.07L106.28 307.08L106.32 307.08C106.32 307.38 106.36 307.67 106.36 307.97C106.61 313.47 107.12 316.34 109.23 318.03C110.5 319.04 112.1 319.43 121.96 318.58C129.1 317.99 133.42 317.61 134.52 316.59C137.14 314.22 136.55 309.91 135.2 303.57L135.24 303.57L135.11 302.51C135.07 302.51 134.98 302.51 134.94 302.51C134.86 302 134.73 301.45 134.6 300.9C134.26 299.29 133.88 297.6 133.5 295.78C129.91 278.28 133.12 263.1 135.23 253.04C137.09 244.16 140.01 236.09 142.33 229.62C143.34 226.66 144.32 224.21 145.16 222.05C147.74 215.29 149.18 211.57 149.3 205.48C149.38 202.39 149.09 201 148.67 198.93C148.2 196.86 147.66 194.28 147.23 188.95C147.06 186.96 146.89 185.06 146.76 183.2C146.93 183.2 147.1 183.16 147.27 183.16L147.14 182.1C146.97 182.1 146.84 182.14 146.67 182.14C146.33 176.6 146.37 171.66 147.56 166.24C147.73 165.56 148.03 164.8 148.41 163.83C148.83 162.69 149.42 161.25 149.93 159.39C150.48 157.4 150.9 155.54 151.83 150.17C152.42 146.66 152.76 144.93 153.27 141.33C154.2 135.37 155.17 132.07 156.02 129.15C156.65 128.26 157.25 127.37 157.88 126.49C157.58 127.5 157.33 128.48 157.03 129.45C156.14 132.45 155.21 135.58 154.32 141.46C153.77 145.1 153.47 146.83 152.88 150.34C152.03 155.2 151.57 157.4 150.94 159.68C150.39 161.58 149.84 163.06 149.38 164.2C149 165.13 148.75 165.85 148.62 166.48C146.97 173.84 147.56 180.47 148.24 188.84C148.71 194.08 149.25 196.62 149.68 198.69C150.15 200.76 150.48 202.28 150.4 205.45C150.19 211.75 148.67 215.77 146.13 222.4C145.28 224.56 144.35 227.01 143.3 229.93C141.02 236.4 138.14 244.39 136.28 253.14C134.17 263.2 130.95 278.25 134.5 295.54C134.88 297.32 135.26 299.01 135.6 300.61C137.42 308.81 138.64 314.18 135.22 317.35C133.91 318.53 130.44 318.87 122.03 319.59C112.31 320.39 110.23 320.14 108.54 318.83C106.09 316.89 105.54 313.8 105.28 308.01C104.77 297.57 105.7 288.94 106.17 284.8C106.25 284.21 106.3 283.7 106.34 283.28C107.35 272.84 107.65 264.47 107.74 260.41C107.82 256.27 107.32 247.01 106.34 230.14C105.75 219.57 105.49 216.19 104.23 215.81C104.15 215.77 104.02 215.77 103.85 215.77C100.98 215.77 94.97 224.61 91.5 232.81C89.05 238.48 88.24 243.25 86.6 253.44C86.05 256.99 85.33 264.64 83.77 281.6C83.52 284.43 83.56 286.88 83.6 289.97C83.6 292.93 83.64 296.31 83.43 300.96L83.35 302.74C82.97 311.7 82.84 315.04 80.09 317.71C77.47 320.29 74 320.58 67.07 321.18C65.29 321.35 63.52 321.52 61.79 321.52C58.53 321.52 55.49 320.97 53.04 318.81C51.39 317.33 50.59 315.64 50 314.16C47.55 307.82 47.08 299.91 48.56 290.65C49.66 283.93 50.38 280.38 51.1 276.61C51.65 273.95 52.2 271.2 52.88 267.18C54.99 255.17 56.18 248.54 56.3 239.28C56.47 230.44 56.05 223.81 56.05 223.72C55.97 222.49 55.88 221.31 55.8 220.21C55.42 214.71 55.08 209.94 56.35 204.99C57.28 201.27 58.38 198.39 58.38 198.35C58.8 197.25 59.18 196.32 59.56 195.39C60.41 193.36 61.21 191.42 62.35 187.36C64 181.4 66.07 173.96 65.86 164.36C65.82 162.75 65.73 161.57 65.61 160.3C65.48 158.48 65.31 156.41 65.31 152.73C65.31 150.79 65.35 149.26 65.35 147.91C65.43 145.71 65.48 143.81 65.31 141.02C65.31 140.98 65.01 136.07 64.25 131.8C63.11 125.5 60.95 122.08 59.05 119.07C57.44 116.49 55.92 114.08 55.29 110.4C53.3 99.11 61.89 88.88 64.55 86.01C70.13 80.05 76.47 77.64 81.8 76.2C83.03 75.82 84.17 75.52 85.27 75.27C89.62 74.21 92.8 73.41 95.84 74.97C96.14 75.14 96.43 75.27 96.69 75.48L96.9 75.86C96.94 75.82 97.03 75.78 97.07 75.73C99.23 77.42 100.41 80.47 103.16 87.4L104.22 90.02C108.62 101.18 109.67 103 110.48 103.08C110.52 103.08 110.61 103.08 110.65 103.08C114.24 103.08 121.05 91.88 124.39 82.32L124.56 81.81C124.98 80.54 125.41 79.23 126.17 78.17C126.25 78.25 126.34 78.3 126.42 78.34L126.93 77.41C126.89 77.41 126.89 77.37 126.85 77.37C127.19 76.99 127.65 76.65 128.16 76.36C131.63 74.5 136.28 76.11 139.57 77.76L139.57 77.8C139.57 77.97 139.57 78.14 139.57 78.27L140.5 78.27C141.43 78.78 142.23 79.24 142.74 79.58C147.26 82.29 149.93 85.5 151.53 87.44C154.5 91.11 156.74 94.83 158.13 98.6Z" /><path class="shp1" d="M158.6 125.57C158.39 125.91 158.13 126.2 157.92 126.54C158 126.12 158.13 125.69 158.22 125.27L158.6 125.57Z" /><path fill-rule="evenodd" class="shp2" d="M157.16 98.93C159.95 106.41 159.1 112.8 158.17 119.65C157.79 122.31 157.37 124.34 156.9 126.12C156.9 126.12 156.9 126.12 156.9 126.16C156.9 126.2 156.9 126.2 156.86 126.24L156.86 126.28C155.3 128.44 153.77 130.68 152.21 132.96L152.04 133.21C150.39 135.62 149.88 136.34 149.25 136.38L149.21 136.38C148.7 136.38 147.86 135.7 145.7 131.94C145.78 131.77 145.87 131.6 145.91 131.47L145.44 131.26L145.19 130.92L144.81 130.29C144.43 129.53 144.01 128.68 143.5 127.75C142.61 126.06 141.94 124.66 141.34 123.52C139.44 119.67 138.72 118.24 136.69 116.97C136.31 116.72 135.93 116.55 135.55 116.34C134.62 115.87 133.94 115.54 133.52 114.65C133.05 113.64 133.44 112.62 134.24 110.21L134.62 109.15C134.62 109.11 136.31 104.2 137.37 99.76C137.84 97.82 138.17 95.79 138.43 93.8L137.37 93.67C137.16 95.66 136.78 97.6 136.31 99.5C135.3 103.9 133.65 108.72 133.6 108.8L133.26 109.86C132.33 112.48 131.91 113.66 132.58 115.06C133.13 116.29 134.06 116.75 135.07 117.3C135.15 117.34 135.2 117.38 135.28 117.43C135.2 117.6 135.11 117.77 135.03 117.98C134.56 119.08 134.18 119.84 133.89 120.35L133.81 120.56C133.22 121.74 132.84 122.67 132.54 123.48L132.24 124.2C131.65 125.64 130.34 128.43 127.59 133.42L127.46 133.63C124.75 138.66 122.98 142.8 120.36 149.48L109.75 149.35C109.79 149.1 109.83 148.8 109.83 148.5C109.83 146.13 107.93 144.19 105.6 144.19C103.27 144.19 101.37 146.13 101.37 148.5C101.37 148.8 101.41 149.09 101.45 149.35L92.66 150.15C91.05 143.17 89.91 138.82 88.01 133.45L87.76 132.73C86.66 129.73 84.84 124.7 83.28 117.64C83.24 117.56 83.24 117.39 83.2 117.09C83.12 116.08 82.95 113.88 82.06 111.38C82.02 111.21 81.93 111.04 81.93 110.96C82.14 110.83 82.35 110.75 82.52 110.62C83.79 109.9 84.89 109.31 85.14 107.83C85.39 106.35 84.59 105.29 83.66 104.07C82.81 103.01 81.8 101.66 81.12 99.55C80.57 97.69 80.4 95.66 80.74 93.55L79.68 93.38C79.34 95.66 79.51 97.86 80.15 99.89C80.83 102.17 81.93 103.57 82.81 104.71C83.66 105.85 84.25 106.61 84.08 107.63C83.91 108.6 83.28 108.98 82.01 109.7C80.83 110.38 79.18 111.31 77.57 113.29C76.72 114.35 76.51 114.98 76.01 116.16C75.63 117.13 75.08 118.57 73.9 121.06C71.62 125.75 69.93 128.25 69.04 128.25C69 128.25 69 128.25 69 128.25C68.75 128.21 68.41 127.95 66.46 126.09C65.06 124.69 63.84 123.51 62.95 122.62L62.53 123C61.68 121.27 60.8 119.87 59.95 118.52C58.34 115.98 56.95 113.74 56.31 110.28C54.45 99.46 62.74 89.56 65.36 86.77C71.96 79.67 79.82 77.76 85.53 76.37C88.32 75.65 90.35 75.19 92.08 75.19C93.26 75.19 94.32 75.44 95.38 75.95C98.04 77.3 99.02 79.75 102.19 87.87L103.25 90.49C108.37 103.38 109.04 104.06 110.35 104.19C110.43 104.19 110.52 104.19 110.65 104.19C115.3 104.19 122.28 91.63 125.36 82.71L125.53 82.2C126.21 80.21 126.88 78.31 128.66 77.34C131.53 75.78 136.1 76.83 142.23 80.51C146.54 83.13 149.16 86.26 150.73 88.16C153.61 91.7 155.77 95.3 157.16 98.93ZM111.04 118.38C111.04 115.59 108.88 113.31 106.22 113.31C103.56 113.31 101.4 115.59 101.4 118.38C101.4 121.17 103.56 123.45 106.22 123.45C108.88 123.45 111.04 121.17 111.04 118.38Z" /><path class="shp1" d="M158.22 125.27C158.14 125.69 158.01 126.12 157.92 126.54C157.29 127.43 156.69 128.32 156.06 129.2C156.36 128.23 156.65 127.3 156.86 126.28L156.86 126.24C156.9 126.2 156.9 126.2 156.9 126.16C156.9 126.12 156.9 126.12 156.9 126.12C157.2 125.7 157.49 125.32 157.75 124.94L158.22 125.27Z" /><path class="shp1" d="M156.87 126.29C156.66 127.3 156.36 128.23 156.07 129.21C155.1 130.65 154.08 132.13 153.11 133.56L152.94 133.81C151.16 136.39 150.53 137.36 149.3 137.45C149.26 137.45 149.22 137.45 149.17 137.45C148.32 137.45 147.44 136.94 145.24 133.22C145.24 133.18 145.24 133.18 145.24 133.18C145.41 132.71 145.58 132.33 145.71 131.95C147.87 135.71 148.71 136.39 149.22 136.39L149.26 136.39C149.89 136.35 150.4 135.63 152.05 133.22L152.22 132.97C153.78 130.68 155.3 128.44 156.87 126.29Z" /><path class="shp3" d="M153.1 133.56C154.07 132.12 155.09 130.64 156.06 129.21C155.21 132.13 154.24 135.42 153.31 141.39C152.8 144.98 152.46 146.72 151.87 150.23C150.94 155.6 150.52 157.46 149.97 159.45C149.46 161.31 148.87 162.75 148.45 163.89C148.07 164.86 147.77 165.62 147.6 166.3C146.42 171.71 146.37 176.66 146.71 182.2C141.81 182.79 136.73 183.13 131.79 183.34C128.79 183.47 126.04 183.47 123.46 183.47C124.94 180.85 126.97 176.96 129.84 170.7C132.63 164.61 135.89 156.58 142.31 140.56L142.39 140.39C143.49 137.56 144.46 135.15 145.22 133.25C147.42 136.97 148.31 137.48 149.15 137.48C149.19 137.48 149.23 137.48 149.28 137.48C150.51 137.4 151.14 136.42 152.92 133.84L153.1 133.56Z" /><path class="shp4" d="M148.71 198.96C149.13 201.03 149.43 202.43 149.34 205.51C149.21 211.6 147.78 215.32 145.2 222.08C144.35 224.24 143.38 226.69 142.37 229.65C140.04 236.12 137.13 244.19 135.27 253.07C133.16 263.13 129.94 278.31 133.54 295.81C133.92 297.63 134.3 299.32 134.64 300.93C134.77 301.48 134.89 302.03 134.98 302.54C132.4 302.79 129.74 302.75 127.16 302.67C124.92 302.59 122.64 302.54 120.35 302.67C116.42 302.88 112.66 304.07 109.06 305.16C108.17 305.46 107.24 305.71 106.35 306.01C106.01 296.54 106.86 288.85 107.28 284.96C107.32 284.37 107.41 283.86 107.45 283.44C108.46 272.96 108.76 264.58 108.85 260.48C108.93 256.34 108.43 247.04 107.45 230.17C106.77 218.33 106.6 215.5 104.62 214.87C100.65 213.64 93.92 224.64 90.58 232.46C88 238.51 87.16 243.79 85.59 253.35C85.04 256.94 84.32 264.6 82.8 281.59C82.5 284.46 82.55 287.04 82.59 290.05C82.59 293.01 82.63 296.39 82.42 301L82.34 302.78C82.34 303.29 82.3 303.79 82.3 304.3C71.77 302.74 60.48 301.55 48.94 304.38C48.64 300.28 48.86 295.8 49.66 290.89C50.72 284.21 51.44 280.66 52.2 276.9C52.71 274.24 53.26 271.49 53.98 267.47C56.05 255.76 57.28 248.74 57.45 239.36C57.58 230.52 57.15 223.8 57.15 223.72C57.07 222.54 56.98 221.35 56.9 220.21C56.52 214.8 56.18 210.11 57.41 205.33C58.34 201.69 59.4 198.86 59.4 198.82C59.82 197.72 60.2 196.79 60.58 195.9C61.38 193.91 62.27 191.84 63.41 187.7C64.26 184.61 65.23 181.1 65.9 177.09C69.96 178.36 74.1 179.42 78.25 180.3C80.19 180.72 82.05 181.06 83.87 181.36C85.01 184.49 85.86 186.31 86.45 187.66C87.42 189.86 87.8 190.75 88.1 193.96L88.14 194.55C88.35 197.47 88.69 202.37 91.82 203.89C92.5 204.23 93.3 204.4 94.1 204.4C95.5 204.4 97.02 203.93 98.16 203.05C99.43 202.12 100.23 200.77 100.74 198.82C101.08 197.51 101.21 196.2 101.21 194.89C101.21 190.49 99.69 186.35 98.88 184.45C98.67 183.98 98.5 183.56 98.37 183.14C100.91 183.35 103.53 183.56 106.28 183.73C107 183.77 107.68 183.81 108.39 183.9C106.99 186.44 105.13 190.66 105.13 195.02C105.13 195.49 105.13 195.91 105.17 196.37C105.38 198.4 105.97 199.84 107.07 200.98C108.34 202.25 110.16 202.97 111.81 202.97C112.32 202.97 112.78 202.89 113.25 202.76C116.55 201.7 117.65 196.93 118.28 194.09L118.45 193.5C119.17 190.37 119.68 189.53 120.99 187.5C121.5 186.74 122.09 185.81 122.89 184.5C123.48 184.54 124.07 184.54 124.67 184.54C126.95 184.54 129.32 184.5 131.86 184.41C136.85 184.2 141.88 183.86 146.83 183.27C146.96 185.13 147.13 187.03 147.3 189.02C147.69 194.31 148.24 196.89 148.71 198.96Z" /><path class="shp1" d="M147.19 182.14L147.32 183.2C147.15 183.2 146.98 183.24 146.81 183.24C146.77 182.9 146.77 182.52 146.73 182.18C146.89 182.18 147.02 182.14 147.19 182.14Z" /><path class="shp1" d="M146.72 182.18C146.76 182.52 146.76 182.9 146.8 183.24C141.85 183.83 136.82 184.17 131.83 184.38C129.29 184.46 126.93 184.51 124.64 184.51C124.05 184.51 123.46 184.51 122.86 184.47C123.03 184.17 123.2 183.84 123.45 183.46C126.03 183.46 128.78 183.46 131.78 183.33C136.74 183.11 141.82 182.77 146.72 182.18Z" /><path class="shp1" d="M145.92 131.49C145.88 131.62 145.79 131.79 145.71 131.96C145.63 131.79 145.54 131.58 145.41 131.37C145.41 131.33 145.45 131.33 145.45 131.29L145.92 131.49Z" /><path class="shp1" d="M145.41 131.36C145.54 131.57 145.62 131.78 145.71 131.95C145.58 132.33 145.41 132.71 145.24 133.18C145.11 133.01 145.03 132.84 144.9 132.63C145.11 132.16 145.28 131.74 145.41 131.36Z" /><path class="shp5" d="M145.2 130.94L145.45 131.28L145.32 131.24C145.28 131.15 145.24 131.06 145.2 130.94Z" /><path class="shp1" d="M145.45 131.28C145.45 131.32 145.41 131.32 145.41 131.36C145.41 131.32 145.37 131.28 145.33 131.23L145.45 131.28Z" /><path class="shp1" d="M145.32 131.23C145.36 131.27 145.4 131.31 145.4 131.36C145.27 131.74 145.1 132.16 144.89 132.63C144.76 132.42 144.64 132.21 144.55 132C144.68 131.66 144.8 131.37 144.93 131.07L145.32 131.23Z" /><path class="shp5" d="M145.2 130.94C145.24 131.07 145.28 131.15 145.33 131.24L144.95 131.07C144.82 131.37 144.7 131.66 144.57 132C143.98 130.94 143.3 129.72 142.54 128.24C141.69 126.55 140.98 125.15 140.43 124.01C140.13 123.42 139.88 122.87 139.63 122.4L144.83 130.31L145.2 130.94Z" /><path class="shp1" d="M145.24 133.18C145.24 133.18 145.24 133.18 145.24 133.22C144.48 135.12 143.51 137.53 142.41 140.36L142.33 140.53C135.9 156.55 132.65 164.59 129.86 170.67C126.99 176.93 124.96 180.82 123.48 183.44C123.27 183.44 123.06 183.44 122.85 183.4C124.37 180.78 126.44 176.85 129.4 170.46C132.19 164.37 135.45 156.3 141.91 140.15C143.14 137.15 144.15 134.61 144.91 132.62C145.03 132.84 145.11 133.01 145.24 133.18Z" /><path class="shp1" d="M144.56 132C144.64 132.21 144.77 132.42 144.9 132.63C144.14 134.62 143.12 137.15 141.9 140.16C135.43 156.31 132.18 164.39 129.39 170.47C126.43 176.85 124.36 180.79 122.84 183.41C122.63 183.45 122.42 183.45 122.21 183.41C123.77 180.79 125.89 176.81 128.89 170.26C131.68 164.17 134.94 156.14 141.36 140.16L141.4 139.99C142.7 136.77 143.8 134.02 144.56 132Z" /><path class="shp1" d="M144.82 130.3L139.62 122.39C138.61 120.36 137.97 119.3 137.04 118.54L137 118.5L136.41 117.53C136.45 117.4 136.49 117.28 136.54 117.19L136.03 117.02L135.52 116.81C135.48 116.98 135.39 117.19 135.31 117.44C135.23 117.4 135.18 117.36 135.1 117.31C134.09 116.76 133.16 116.3 132.61 115.07C131.93 113.67 132.36 112.49 133.29 109.87L133.63 108.81C133.67 108.73 135.32 103.91 136.34 99.51C136.81 97.61 137.19 95.66 137.4 93.68L138.46 93.81C138.21 95.8 137.87 97.83 137.4 99.77C136.34 104.21 134.65 109.11 134.65 109.16L134.27 110.22C133.47 112.63 133.09 113.64 133.55 114.66C133.97 115.55 134.65 115.89 135.58 116.35C135.96 116.56 136.34 116.73 136.72 116.98C138.75 118.25 139.47 119.69 141.37 123.53C141.96 124.67 142.64 126.07 143.53 127.76C144.01 128.7 144.44 129.54 144.82 130.3Z" /><path class="shp6" d="M142.53 128.23C143.29 129.71 143.97 130.94 144.56 131.99C143.8 134.02 142.7 136.77 141.39 139.98L141.35 140.15C134.92 156.13 131.67 164.16 128.88 170.25C125.88 176.8 123.76 180.78 122.2 183.4C117.8 183.36 113.87 183.15 110.11 182.89C112.39 179.17 112.73 177.52 113.32 174.56C114 171.26 114.97 166.32 119.41 154.9C123.21 145.13 125.12 140.23 128.42 134.14L128.55 133.93C131.34 128.9 132.65 126.07 133.24 124.59L133.54 123.87C133.84 123.07 134.17 122.18 134.77 121.04L134.9 120.83C135.15 120.32 135.53 119.52 136.04 118.42C136.12 118.25 136.17 118.08 136.25 117.91C136.55 118.08 136.8 118.29 137.01 118.5L137.05 118.54L139.63 122.39C139.88 122.86 140.14 123.4 140.43 124C140.97 125.15 141.69 126.54 142.53 128.23Z" /><path class="shp1" d="M140 33.74C140.97 36.36 141.78 38.43 141.27 40.93C140.97 42.2 140.51 42.87 140.09 43.51C139.67 44.15 139.24 44.74 138.95 45.88C138.65 47.06 138.65 48.04 139.33 51.63C139.96 55.22 140.47 57.04 140.77 58.27C141.15 59.58 141.32 60.21 141.28 61.61C141.2 63.51 140.81 64.53 140.48 65.46C140.06 66.43 139.76 67.28 139.85 69.14C139.89 69.82 139.98 70.37 140.1 71.04C140.23 72.01 140.4 73.24 140.52 75.1C140.6 76.5 140.65 77.59 140.65 78.36L140.52 78.36C140.22 78.19 139.93 78.02 139.59 77.89L139.59 77.85C139.59 77.17 139.55 76.24 139.46 75.14C139.33 73.32 139.16 72.14 139.04 71.21C138.96 70.49 138.87 69.9 138.83 69.22C138.66 67.11 139.08 66.05 139.46 65.03C139.8 64.18 140.14 63.3 140.22 61.56C140.26 60.33 140.14 59.83 139.75 58.52C139.45 57.34 138.95 55.48 138.27 51.84C137.64 48.25 137.55 47.06 137.93 45.63C138.27 44.32 138.78 43.56 139.2 42.92C139.62 42.33 140 41.78 140.21 40.72C140.68 38.52 139.91 36.58 139.03 34.12C138.35 32.39 137.8 31.5 137.34 30.82C136.83 30.02 136.41 29.38 136.16 28.03C135.78 26.09 136.16 24.86 136.46 23.84C136.76 22.91 136.97 22.23 136.54 21.26C136.07 20.12 135.27 19.74 134.05 19.15C132.78 18.56 131.22 17.8 129.44 15.98C128.3 14.84 127.92 14.08 127.54 13.36C127.2 12.68 126.86 12.05 125.93 11.03C124.66 9.72 121.32 6.68 117.31 6.46C115.37 6.33 114.48 6.97 112.96 7.94C111.65 8.83 110 9.88 107.13 10.98C104.04 12.12 101.85 12.46 100.03 12.67C97.83 13.01 96.48 13.18 95 14.74C94.07 15.67 93.82 16.39 93.52 17.32C93.14 18.33 92.72 19.52 91.32 21.21C89.76 23.11 88.49 23.87 87.43 24.47C86.46 25.02 85.7 25.48 85.02 26.63C84.17 28.03 84.3 28.96 84.55 30.86C84.76 32.38 85.06 34.5 84.93 37.84C84.68 43.08 84.51 46.55 82.18 49.93C81.71 50.56 81.25 51.11 80.87 51.54C80.07 52.47 79.56 53.06 79.47 54.16C79.43 55.05 79.72 55.64 80.15 56.65C80.57 57.5 81.08 58.55 81.5 60.24C81.71 61.04 82.13 62.52 82.18 64.38C82.26 66.28 81.97 67.55 81.76 68.69C81.46 69.87 81.25 70.89 81.46 72.33C81.67 73.47 82.05 74.57 82.69 75.63L81.8 76.18C81.08 75 80.62 73.77 80.45 72.5C80.2 70.85 80.45 69.71 80.7 68.48C80.95 67.34 81.21 66.15 81.12 64.42C81.08 62.69 80.7 61.33 80.49 60.49C80.07 58.93 79.6 57.91 79.22 57.07C78.75 56.06 78.37 55.25 78.42 54.07C78.55 52.63 79.27 51.79 80.07 50.86C80.45 50.44 80.87 49.93 81.3 49.3C83.46 46.21 83.63 42.87 83.84 37.8C84.01 34.54 83.71 32.52 83.5 30.99C83.25 29.09 83.08 27.82 84.09 26.09C84.94 24.69 85.91 24.15 86.88 23.6C87.89 22.97 89.08 22.29 90.47 20.56C91.78 19 92.16 17.98 92.5 16.97C92.84 16.04 93.18 15.15 94.23 14.05C95.96 12.19 97.61 11.98 99.9 11.68C101.63 11.43 103.79 11.13 106.75 10.03C109.54 8.97 111.1 7.92 112.37 7.07C113.93 6.06 115.03 5.29 117.36 5.42C121.8 5.63 125.35 8.93 126.7 10.32C127.76 11.46 128.14 12.18 128.48 12.86C128.86 13.58 129.2 14.21 130.21 15.27C131.86 16.92 133.34 17.64 134.48 18.19C135.79 18.82 136.93 19.37 137.52 20.9C138.07 22.21 137.77 23.14 137.48 24.16C137.23 25.09 136.89 26.15 137.23 27.88C137.44 29.02 137.78 29.53 138.24 30.25C138.69 30.99 139.28 31.92 140 33.74Z" /><path class="shp1" d="M140.51 78.34L139.58 78.34C139.58 78.21 139.58 78.04 139.58 77.87C139.91 78.01 140.21 78.18 140.51 78.34Z" /><path class="shp7" d="M139.03 34.12C139.92 36.57 140.68 38.52 140.21 40.72C140 41.78 139.62 42.33 139.2 42.92C138.78 43.55 138.27 44.32 137.93 45.63C137.55 47.07 137.63 48.25 138.27 51.84C138.95 55.48 139.45 57.34 139.75 58.52C140.13 59.83 140.26 60.34 140.22 61.56C140.14 63.29 139.8 64.18 139.46 65.03C139.08 66.04 138.66 67.1 138.83 69.22C138.87 69.9 138.96 70.49 139.04 71.21C139.17 72.14 139.34 73.32 139.46 75.14C139.54 76.24 139.59 77.17 139.59 77.85C136.29 76.2 131.64 74.59 128.18 76.45C127.67 76.75 127.21 77.08 126.87 77.46C126.02 76.99 125.26 76.45 124.63 75.85C124.29 75.51 124 75.17 123.74 74.84C123.32 74.29 122.98 73.78 122.73 73.19C124.72 71.2 126.11 68.67 127.55 66.09C129.96 61.69 130.93 58.06 132.33 52.56C134.32 44.99 135.29 41.15 134.82 36.71C134.61 34.64 133.93 28.3 129.07 22.67C127.46 20.81 124.46 17.34 119.43 16.16C113 14.68 107.38 18.06 104.08 20.09C99.13 23.13 96.51 26.9 95.62 28.38C95.03 29.31 94.31 30.71 93.46 33.07C92.32 36.28 89.32 44.78 91.52 55.39C92.24 58.98 93.38 64.4 97.78 69.51C98.2 70.02 98.75 70.65 99.43 71.33L99.43 71.37C99.26 72.09 98.92 72.68 98.5 73.27C97.95 73.99 97.23 74.58 96.43 75L96.73 75.55C96.48 75.34 96.18 75.21 95.88 75.04C92.84 73.48 89.67 74.28 85.31 75.34C84.21 75.59 83.07 75.89 81.84 76.27L81.8 76.19L82.69 75.64C82.06 74.58 81.68 73.48 81.46 72.34C81.25 70.9 81.46 69.89 81.76 68.7C81.97 67.56 82.27 66.29 82.18 64.39C82.14 62.53 81.71 61.05 81.5 60.25C81.08 58.56 80.57 57.5 80.15 56.66C79.73 55.65 79.43 55.05 79.47 54.17C79.55 53.07 80.06 52.48 80.87 51.55C81.25 51.13 81.72 50.58 82.18 49.94C84.51 46.56 84.67 43.09 84.93 37.85C85.06 34.51 84.76 32.4 84.55 30.87C84.3 28.97 84.17 28.04 85.02 26.64C85.7 25.5 86.46 25.03 87.43 24.48C88.49 23.89 89.76 23.13 91.32 21.22C92.72 19.53 93.14 18.35 93.52 17.33C93.82 16.4 94.07 15.68 95 14.75C96.48 13.19 97.83 13.02 100.03 12.68C101.85 12.47 104.05 12.13 107.13 10.99C110 9.89 111.65 8.83 112.96 7.95C114.48 6.98 115.37 6.34 117.31 6.47C121.33 6.68 124.67 9.73 125.93 11.04C126.86 12.05 127.2 12.69 127.54 13.37C127.92 14.09 128.3 14.85 129.44 15.99C131.22 17.81 132.78 18.57 134.05 19.16C135.28 19.75 136.08 20.13 136.54 21.27C136.96 22.24 136.75 22.92 136.46 23.85C136.16 24.86 135.78 26.09 136.16 28.04C136.41 29.39 136.84 30.03 137.34 30.83C137.8 31.5 138.35 32.39 139.03 34.12Z" /><path class="shp5" d="M136.4 117.54L136.99 118.51C136.78 118.3 136.52 118.09 136.23 117.92C136.28 117.79 136.36 117.66 136.4 117.54Z" /><path class="shp1" d="M136.53 117.2C136.49 117.28 136.45 117.41 136.4 117.54L136.02 117.03L136.53 117.2Z" /><path class="shp1" d="M136.02 117.03L136.4 117.54C136.36 117.67 136.27 117.79 136.23 117.92C136.19 117.92 136.19 117.88 136.15 117.88C136.02 117.8 135.9 117.75 135.77 117.67C135.85 117.41 135.94 117.2 136.02 117.03Z" /><path class="shp1" d="M136.24 117.92C136.16 118.09 136.11 118.26 136.03 118.43C135.52 119.53 135.14 120.33 134.89 120.84L134.76 121.05C134.17 122.19 133.83 123.08 133.53 123.88L133.23 124.6C132.64 126.08 131.33 128.91 128.54 133.94L128.41 134.15C125.11 140.24 123.21 145.14 119.4 154.91C114.96 166.32 113.99 171.27 113.31 174.57C112.72 177.53 112.38 179.18 110.1 182.9C109.89 182.9 109.72 182.9 109.51 182.86C109.55 182.82 109.59 182.78 109.59 182.73C114.41 174.87 110.48 176.39 118.89 154.74C122.74 144.93 124.64 140.03 127.94 133.9C128.15 133.48 131.28 127.94 132.72 124.43C133.14 123.42 133.52 122.36 134.28 120.79C134.53 120.32 135 119.48 135.51 118.21C135.59 118 135.68 117.83 135.76 117.66C135.89 117.74 136.01 117.79 136.14 117.87C136.19 117.87 136.19 117.92 136.24 117.92Z" /><path class="shp1" d="M136.02 117.03C135.94 117.2 135.85 117.41 135.77 117.66C135.6 117.58 135.43 117.49 135.3 117.45C135.38 117.2 135.47 116.98 135.51 116.82L136.02 117.03Z" /><path class="shp1" d="M135.77 117.66C135.69 117.83 135.6 118 135.52 118.21C135.01 119.48 134.55 120.32 134.29 120.79C133.53 122.35 133.15 123.41 132.73 124.43C131.29 127.94 128.16 133.48 127.95 133.9C124.65 140.03 122.75 144.93 118.9 154.74C110.49 176.39 114.42 174.86 109.6 182.73C109.6 182.77 109.56 182.81 109.52 182.86C109.31 182.86 109.1 182.86 108.93 182.86C109.01 182.73 109.06 182.61 109.14 182.48C111.38 178.84 111.72 177.24 112.31 174.36C112.94 171.02 113.96 166.03 118.44 154.53C119.16 152.71 119.79 151.02 120.38 149.5C123 142.82 124.78 138.68 127.48 133.65L127.61 133.44C130.36 128.45 131.67 125.66 132.26 124.22L132.56 123.5C132.86 122.7 133.24 121.77 133.83 120.58L133.91 120.37C134.21 119.86 134.59 119.1 135.05 118C135.13 117.79 135.22 117.62 135.3 117.45C135.43 117.49 135.6 117.58 135.77 117.66Z" /><path class="shp1" d="M135.22 303.6C136.57 309.94 137.16 314.25 134.54 316.62C133.44 317.63 129.13 318.02 121.98 318.61C112.13 319.46 110.52 319.08 109.25 318.06C107.14 316.37 106.63 313.49 106.38 308C106.38 307.7 106.34 307.41 106.34 307.11C107.35 306.81 108.33 306.48 109.34 306.18C113.06 305.04 116.57 303.94 120.37 303.73C122.61 303.6 124.89 303.65 127.09 303.73C129.77 303.81 132.51 303.85 135.22 303.6Z" /><path class="shp1" d="M135.14 302.54L135.27 303.6L135.23 303.6C135.15 303.26 135.06 302.92 134.98 302.54C135.01 302.54 135.09 302.54 135.14 302.54Z" /><path class="shp1" d="M134.97 302.54C135.05 302.92 135.14 303.26 135.22 303.6C132.51 303.85 129.77 303.81 127.1 303.73C124.9 303.65 122.62 303.6 120.38 303.73C116.58 303.94 113.07 305.04 109.35 306.18C108.34 306.48 107.36 306.81 106.35 307.11C106.35 306.73 106.35 306.35 106.35 306.01C107.24 305.71 108.17 305.46 109.06 305.16C112.65 304.06 116.42 302.88 120.35 302.67C122.63 302.54 124.92 302.59 127.16 302.67C129.72 302.75 132.39 302.8 134.97 302.54Z" /><path fill-rule="evenodd" class="shp1" d="M134.8 36.7C135.27 41.14 134.29 44.99 132.31 52.55C130.91 58.05 129.94 61.68 127.53 66.08C126.09 68.66 124.7 71.2 122.71 73.18C122.67 73.18 122.67 73.14 122.67 73.14L121.74 73.61C121.78 73.69 121.82 73.82 121.91 73.91C120.9 74.84 119.71 75.6 118.27 76.19C116.24 76.99 114.3 77.25 112.69 77.25C111.17 77.25 109.94 77.04 109.35 76.91C105.25 76.15 102.29 74.08 100.26 72.17C100.34 72 100.43 71.79 100.47 71.62L99.41 71.32C98.73 70.64 98.18 70.01 97.76 69.5C93.36 64.38 92.22 58.97 91.5 55.38C89.3 44.77 92.3 36.27 93.44 33.06C94.29 30.69 95 29.3 95.6 28.37C96.49 26.89 99.11 23.13 104.06 20.08C107.36 18.05 112.98 14.67 119.41 16.15C124.44 17.33 127.44 20.8 129.05 22.66C133.91 28.29 134.59 34.63 134.8 36.7ZM131.29 52.3C133.23 44.82 134.21 41.05 133.74 36.83C133.53 34.8 132.89 28.75 128.24 23.39C126.72 21.61 123.84 18.27 119.19 17.22C113.14 15.78 107.99 18.91 104.6 21.02C99.86 23.89 97.37 27.53 96.48 28.93C95.97 29.82 95.21 31.13 94.41 33.41C93.31 36.54 90.35 44.82 92.51 55.14C93.23 58.65 94.33 63.89 98.56 68.84C100.21 70.78 103.68 74.8 109.51 75.9C110.69 76.11 114.16 76.75 117.88 75.22C122.23 73.4 124.35 69.6 126.59 65.58C128.96 61.31 129.89 57.71 131.29 52.3Z" /><path fill-rule="evenodd" class="shp6" d="M133.74 36.83C134.21 41.06 133.23 44.82 131.29 52.3C129.89 57.71 128.96 61.31 126.6 65.58C124.36 69.6 122.25 73.4 117.89 75.22C114.17 76.74 110.7 76.11 109.52 75.9C103.69 74.8 100.22 70.78 98.57 68.84C94.34 63.89 93.24 58.65 92.52 55.14C90.36 44.82 93.32 36.54 94.42 33.41C95.22 31.13 95.98 29.82 96.49 28.93C97.38 27.53 99.87 23.9 104.61 21.02C107.99 18.91 113.15 15.78 119.2 17.22C123.85 18.28 126.73 21.62 128.25 23.39C132.9 28.75 133.53 34.8 133.74 36.83ZM124.95 37.59L125.63 36.83C124.74 36.03 123.69 35.35 122.59 34.89C121.45 34.38 120.48 33.96 119.25 34.13C117.56 34.38 116.46 35.61 115.95 36.29L116.84 36.92C117.22 36.37 118.11 35.4 119.38 35.19C120.35 35.06 121.11 35.4 122.17 35.87C123.17 36.28 124.1 36.87 124.95 37.59ZM117.25 65.49C119.79 64.14 121.01 62.07 121.52 60.97L120.59 60.5C120.12 61.51 118.98 63.37 116.74 64.56C115.89 65.03 114.08 65.79 111.96 65.57C107.48 65.1 105.2 60.96 104.94 60.5L104.01 60.97C104.31 61.48 106.84 66.13 111.83 66.64C112.13 66.68 112.42 66.68 112.72 66.68C114.76 66.68 116.41 65.96 117.25 65.49ZM122.71 41.86C122.71 40.85 121.7 40 120.43 40C119.16 40 118.15 40.85 118.15 41.86C118.15 42.92 119.16 43.72 120.43 43.72C121.7 43.72 122.71 42.92 122.71 41.86ZM114.97 63.84L115.69 63.08C115.22 62.66 114.21 61.94 112.82 61.85C110.88 61.81 109.56 62.99 109.23 63.37L109.99 64.09C110.2 63.88 111.17 62.82 112.78 62.91C113.87 62.96 114.63 63.55 114.97 63.84ZM115.14 53.65C116.28 52.68 116.15 50.52 114.93 48.15L114 48.67C115.1 50.74 115.06 52.35 114.47 52.86C114.13 53.11 113.62 53.11 112.74 53.07C111.56 53.03 109.78 52.94 109.1 51.84C108.42 50.74 108.93 48.92 110.24 47.61L109.52 46.89C107.83 48.54 107.28 50.82 108.21 52.39C109.14 53.95 111.34 54.08 112.69 54.12C112.94 54.12 113.2 54.16 113.41 54.16C114.08 54.16 114.67 54.04 115.14 53.65ZM109.3 35.48L110.1 34.8C109.68 34.33 109.25 33.95 108.75 33.62C107.31 32.77 105.92 32.77 105.24 32.77C103 32.77 101.22 33.74 100.12 34.55L100.75 35.4C101.72 34.68 103.29 33.84 105.23 33.84C105.86 33.8 107.01 33.84 108.19 34.56C108.59 34.8 108.97 35.09 109.3 35.48ZM106.13 41.31C106.13 40.3 105.12 39.45 103.85 39.45C102.58 39.45 101.57 40.3 101.57 41.31C101.57 42.37 102.58 43.17 103.85 43.17C105.12 43.17 106.13 42.37 106.13 41.31Z" /><path class="shp1" d="M126.93 77.5L126.42 78.43C126.34 78.39 126.25 78.35 126.17 78.26C126.38 77.96 126.59 77.71 126.85 77.46C126.89 77.46 126.89 77.5 126.93 77.5Z" /><path class="shp1" d="M126.85 77.46C126.6 77.71 126.38 77.97 126.17 78.26C125.32 77.79 124.52 77.25 123.89 76.57C123.51 76.23 123.17 75.85 122.88 75.47C122.54 74.96 122.16 74.46 121.91 73.91C122.21 73.7 122.46 73.44 122.71 73.19C122.96 73.78 123.3 74.29 123.72 74.84C123.97 75.18 124.27 75.52 124.61 75.85C125.24 76.44 126 76.99 126.85 77.46Z" /><path class="shp1" d="M125.62 36.83L124.94 37.59C124.09 36.87 123.16 36.28 122.15 35.86C121.09 35.39 120.33 35.06 119.36 35.18C118.09 35.39 117.2 36.36 116.82 36.91L115.93 36.28C116.44 35.6 117.54 34.38 119.23 34.12C120.46 33.95 121.43 34.37 122.57 34.88C123.68 35.35 124.74 36.03 125.62 36.83Z" /><path class="shp6" d="M123.89 76.57C124.52 77.25 125.33 77.8 126.17 78.26C125.41 79.32 124.99 80.63 124.56 81.9L124.39 82.41C121.05 91.96 114.24 103.17 110.65 103.17C110.61 103.17 110.52 103.17 110.48 103.17C109.68 103.09 108.62 101.27 104.22 90.11L103.16 87.49C100.41 80.56 99.23 77.51 97.07 75.82C97.96 75.35 98.72 74.72 99.31 73.92C99.69 73.41 100.03 72.82 100.24 72.19C102.27 74.09 105.23 76.16 109.33 76.93C109.92 77.06 111.15 77.27 112.67 77.27C114.28 77.27 116.22 77.02 118.25 76.21C119.69 75.62 120.87 74.86 121.89 73.93C122.14 74.48 122.52 74.99 122.86 75.49C123.17 75.85 123.51 76.23 123.89 76.57Z" /><path class="shp1" d="M122.83 183.4C123.04 183.44 123.25 183.44 123.46 183.44C123.21 183.82 123.04 184.16 122.87 184.45C122.66 184.49 122.45 184.49 122.24 184.45C122.41 184.17 122.62 183.78 122.83 183.4Z" /><path class="shp1" d="M122.24 184.46C122.45 184.5 122.66 184.5 122.87 184.46C122.07 185.77 121.47 186.7 120.97 187.46C119.66 189.49 119.15 190.33 118.43 193.46L118.26 194.05C117.63 196.88 116.53 201.66 113.23 202.72C112.76 202.85 112.3 202.93 111.79 202.93C110.14 202.93 108.32 202.21 107.05 200.94C105.95 199.8 105.36 198.36 105.15 196.33C105.11 195.86 105.11 195.44 105.11 194.98C105.11 190.63 106.97 186.4 108.37 183.86C108.54 183.86 108.75 183.86 108.92 183.9C107.61 186.23 105.2 191.3 105.71 196.29C105.84 197.81 106.26 199.38 107.44 200.56C108.92 202.04 111.29 202.76 113.06 202.21C116.32 201.2 117.25 196.04 117.88 193.33C118.9 188.99 119.58 188.9 122.24 184.46Z" /><path class="shp1" d="M122.2 183.4C122.41 183.44 122.62 183.44 122.83 183.4C122.62 183.78 122.41 184.16 122.24 184.46C122.03 184.5 121.82 184.5 121.61 184.46C121.78 184.17 121.99 183.78 122.2 183.4Z" /><path class="shp1" d="M122.71 73.19C122.46 73.44 122.2 73.7 121.91 73.91C121.83 73.83 121.78 73.7 121.74 73.61L122.67 73.14C122.66 73.14 122.66 73.19 122.71 73.19Z" /><path class="shp1" d="M121.61 184.46C121.82 184.5 122.03 184.5 122.24 184.46C119.58 188.9 118.9 188.98 117.89 193.34C117.26 196.05 116.33 201.2 113.07 202.22C111.29 202.77 108.93 202.05 107.45 200.57C106.27 199.39 105.84 197.82 105.72 196.3C105.21 191.31 107.62 186.24 108.93 183.91C109.14 183.91 109.31 183.91 109.52 183.95C108.04 186.57 105.76 191.48 106.22 196.25C106.39 197.98 106.9 199.25 107.83 200.18C109.18 201.53 111.38 202.21 112.95 201.7C115.66 200.85 116.67 196.42 117.26 193.79L117.39 193.2C118.15 189.9 118.79 188.97 120.1 186.9C120.51 186.28 120.97 185.48 121.61 184.46Z" /><path class="shp6" d="M122.2 183.4C121.99 183.78 121.78 184.16 121.61 184.46C117.21 184.42 113.28 184.21 109.52 183.95C109.73 183.57 109.9 183.23 110.07 182.98C110.07 182.94 110.11 182.94 110.11 182.9C113.87 183.15 117.8 183.36 122.2 183.4Z" /><path class="shp1" d="M121.52 60.97C121.01 62.07 119.79 64.14 117.25 65.49C116.4 65.96 114.76 66.67 112.73 66.67C112.43 66.67 112.14 66.67 111.84 66.63C106.85 66.12 104.31 61.47 104.02 60.96L104.95 60.49C105.2 60.96 107.49 65.1 111.97 65.56C114.08 65.77 115.9 65.01 116.75 64.55C118.99 63.37 120.13 61.51 120.6 60.49L121.52 60.97Z" /><path class="shp1" d="M120.42 43.72C119.16 43.72 118.14 42.89 118.14 41.86C118.14 40.83 119.16 40 120.42 40C121.68 40 122.7 40.83 122.7 41.86C122.7 42.89 121.68 43.72 120.42 43.72Z" /><path class="shp6" d="M121.61 184.46C120.98 185.47 120.51 186.28 120.09 186.91C118.78 188.98 118.15 189.91 117.38 193.21L117.25 193.8C116.66 196.42 115.64 200.86 112.94 201.71C111.38 202.22 109.18 201.54 107.82 200.19C106.89 199.26 106.38 197.99 106.21 196.26C105.74 191.48 108.03 186.58 109.51 183.96C113.28 184.21 117.21 184.42 121.61 184.46Z" /><path class="shp2" d="M109.77 149.37L120.38 149.5C119.79 151.02 119.15 152.71 118.44 154.53C113.96 166.03 112.94 171.02 112.31 174.36C111.72 177.23 111.38 178.84 109.14 182.48C109.06 182.61 109.01 182.73 108.93 182.86C108.04 182.78 107.2 182.73 106.35 182.65C103.39 182.44 100.64 182.27 97.94 182.02C97.18 179.69 97.09 178.22 96.97 175.97C96.8 172.59 96.59 167.51 93.88 155.47C93.46 153.57 93.08 151.79 92.7 150.19L101.49 149.39C101.87 151.38 103.6 152.81 105.63 152.81C107.66 152.8 109.39 151.36 109.77 149.37Z" /><path class="shp1" d="M115.69 63.08L114.97 63.84C114.63 63.54 113.87 62.95 112.77 62.91C111.16 62.83 110.19 63.88 109.98 64.09L109.22 63.37C109.56 62.99 110.87 61.81 112.81 61.85C114.21 61.94 115.22 62.66 115.69 63.08Z" /><path class="shp1" d="M114.93 48.16C116.16 50.53 116.28 52.68 115.14 53.66C114.67 54.04 114.08 54.17 113.41 54.17C113.2 54.17 112.94 54.13 112.69 54.13C111.34 54.09 109.14 53.96 108.21 52.4C107.28 50.84 107.83 48.55 109.52 46.9L110.24 47.62C108.93 48.93 108.42 50.75 109.1 51.85C109.78 52.95 111.55 53.03 112.74 53.08C113.63 53.12 114.14 53.12 114.47 52.87C115.06 52.36 115.1 50.76 114 48.68L114.93 48.16Z" /><path class="shp1" d="M110.11 182.9C110.11 182.94 110.07 182.94 110.07 182.98C109.9 183.23 109.73 183.57 109.52 183.95C109.31 183.91 109.14 183.91 108.93 183.91C109.18 183.44 109.4 183.06 109.52 182.85C109.73 182.9 109.9 182.9 110.11 182.9Z" /><path class="shp1" d="M110.11 34.8L109.31 35.48C108.97 35.1 108.59 34.8 108.21 34.55C107.03 33.83 105.88 33.79 105.25 33.83C103.31 33.83 101.74 34.68 100.77 35.39L100.14 34.54C101.24 33.74 103.01 32.76 105.26 32.76C105.94 32.76 107.33 32.76 108.77 33.61C109.26 33.95 109.68 34.33 110.11 34.8Z" /><path fill-rule="evenodd" class="shp1" d="M109.85 148.53C109.85 148.83 109.81 149.12 109.77 149.38C109.39 151.37 107.66 152.8 105.63 152.8C103.6 152.8 101.87 151.36 101.49 149.38C101.45 149.13 101.41 148.83 101.41 148.53C101.41 146.16 103.31 144.22 105.64 144.22C107.95 144.21 109.85 146.16 109.85 148.53ZM109.35 148.53C109.35 146.42 107.66 144.77 105.63 144.77C103.6 144.77 101.95 146.42 101.95 148.53C101.95 150.6 103.6 152.29 105.63 152.29C107.66 152.29 109.35 150.6 109.35 148.53Z" /><path class="shp1" d="M108.92 182.85C109.09 182.85 109.3 182.85 109.51 182.85C109.38 183.06 109.17 183.44 108.92 183.91C108.75 183.87 108.54 183.87 108.37 183.87C108.54 183.49 108.75 183.15 108.92 182.85Z" /><path class="shp8" d="M108.8 148.53C108.8 150.31 107.36 151.74 105.63 151.74C103.9 151.74 102.46 150.3 102.46 148.53C102.46 146.71 103.9 145.27 105.63 145.27C107.36 145.27 108.8 146.71 108.8 148.53Z" /><path class="shp1" d="M108.92 182.85C108.75 183.15 108.54 183.48 108.37 183.86C107.65 183.78 106.97 183.73 106.26 183.69C103.51 183.52 100.89 183.31 98.35 183.1C98.18 182.72 98.05 182.34 97.93 182C100.64 182.25 103.38 182.42 106.34 182.63C107.19 182.73 108.04 182.77 108.92 182.85Z" /><path fill-rule="evenodd" class="shp1" d="M106.22 113.31C108.88 113.31 111.04 115.59 111.04 118.38C111.04 121.17 108.88 123.45 106.22 123.45C103.56 123.45 101.4 121.17 101.4 118.38C101.4 115.59 103.55 113.31 106.22 113.31ZM110.53 118.38C110.53 115.89 108.59 113.81 106.22 113.81C103.85 113.81 101.95 115.88 101.95 118.38C101.95 120.92 103.85 122.95 106.22 122.95C108.59 122.95 110.53 120.92 110.53 118.38Z" /><path fill-rule="evenodd" class="shp1" d="M106.22 113.82C108.59 113.82 110.53 115.89 110.53 118.39C110.53 120.93 108.59 122.96 106.22 122.96C103.85 122.96 101.95 120.93 101.95 118.39C101.95 115.89 103.85 113.82 106.22 113.82ZM109.98 118.38C109.98 116.18 108.29 114.36 106.22 114.36C104.15 114.36 102.46 116.18 102.46 118.38C102.46 120.62 104.15 122.4 106.22 122.4C108.29 122.4 109.98 120.62 109.98 118.38Z" /><path class="shp8" d="M106.22 122.4C104.14 122.4 102.46 120.6 102.46 118.38C102.46 116.16 104.14 114.36 106.22 114.36C108.3 114.36 109.98 116.16 109.98 118.38C109.98 120.6 108.3 122.4 106.22 122.4Z" /><path fill-rule="evenodd" class="shp1" d="M105.63 144.76C107.66 144.76 109.35 146.41 109.35 148.52C109.35 150.59 107.66 152.28 105.63 152.28C103.6 152.28 101.95 150.59 101.95 148.52C101.95 146.41 103.6 144.76 105.63 144.76ZM105.63 151.74C107.36 151.74 108.8 150.3 108.8 148.53C108.8 146.71 107.36 145.27 105.63 145.27C103.9 145.27 102.46 146.71 102.46 148.53C102.46 150.3 103.89 151.74 105.63 151.74Z" /><path class="shp1" d="M106.35 306.01C106.35 306.35 106.35 306.73 106.35 307.11L106.31 307.11L106.01 306.1C106.13 306.05 106.22 306.01 106.35 306.01Z" /><path class="shp1" d="M103.85 43.17C102.59 43.17 101.57 42.34 101.57 41.31C101.57 40.28 102.59 39.45 103.85 39.45C105.11 39.45 106.13 40.28 106.13 41.31C106.13 42.34 105.11 43.17 103.85 43.17Z" /><path class="shp1" d="M101.19 194.86C101.19 196.17 101.06 197.48 100.72 198.79C100.21 200.73 99.41 202.09 98.14 203.02C97 203.91 95.48 204.37 94.08 204.37C93.28 204.37 92.47 204.2 91.8 203.86C88.67 202.34 88.33 197.43 88.12 194.52L88.08 193.93C87.78 190.72 87.4 189.83 86.43 187.63C85.84 186.28 84.99 184.46 83.85 181.33C84.27 181.41 84.65 181.5 85.03 181.54C86.04 184.29 86.81 185.94 87.36 187.21C88.37 189.45 88.84 190.47 89.09 193.85L89.17 194.44C89.34 197.15 89.68 201.67 92.26 202.94C93.74 203.66 95.98 203.32 97.5 202.18C98.56 201.42 99.28 200.24 99.7 198.5C101.01 193.22 98.9 187.21 97.88 184.89C97.58 184.21 97.33 183.58 97.12 183.03C97.5 183.07 97.92 183.11 98.35 183.11C98.48 183.53 98.65 183.96 98.86 184.42C99.67 186.32 101.19 190.46 101.19 194.86Z" /><path class="shp1" d="M100.47 71.62C100.43 71.79 100.34 72 100.26 72.17C99.96 71.87 99.67 71.62 99.41 71.37L99.41 71.33L100.47 71.62Z" /><path class="shp1" d="M99.41 71.37C99.66 71.62 99.96 71.88 100.26 72.17C100.05 72.8 99.71 73.4 99.33 73.9C98.74 74.7 97.98 75.34 97.09 75.8C96.96 75.72 96.84 75.63 96.71 75.55L96.41 75C97.21 74.58 97.93 73.99 98.48 73.27C98.9 72.68 99.24 72.09 99.41 71.37Z" /><path class="shp6" d="M97.89 184.88C98.9 187.21 101.02 193.21 99.71 198.49C99.29 200.22 98.57 201.41 97.51 202.17C95.99 203.31 93.75 203.65 92.27 202.93C89.69 201.66 89.35 197.14 89.18 194.43L89.1 193.84C88.85 190.46 88.38 189.44 87.37 187.2C86.82 185.93 86.06 184.28 85.04 181.53C89.23 182.21 93.12 182.67 97.13 183.01C97.34 183.57 97.59 184.21 97.89 184.88Z" /><path class="shp1" d="M98.35 183.11C97.93 183.11 97.5 183.07 97.12 183.03C96.99 182.65 96.87 182.27 96.78 181.93C97.16 181.97 97.54 182.01 97.92 182.01C98.06 182.35 98.19 182.73 98.35 183.11Z" /><path class="shp1" d="M97.93 182.01C97.55 182.01 97.17 181.97 96.79 181.93C96.11 179.73 96.03 178.25 95.9 176.01C95.77 172.67 95.52 167.64 92.81 155.67C90.53 145.48 89.39 140.37 87.02 133.81L86.77 133.09C85.67 130.09 83.81 125.02 82.25 117.91C82.25 117.78 82.21 117.53 82.17 117.23C82.09 116.22 81.92 114.1 81.11 111.73C81.07 111.65 81.07 111.6 81.03 111.52C81.37 111.35 81.66 111.14 81.96 110.97C81.96 111.05 82.04 111.22 82.09 111.39C82.98 113.88 83.15 116.08 83.23 117.1C83.27 117.4 83.27 117.57 83.31 117.65C84.87 124.71 86.69 129.74 87.79 132.74L88.04 133.46C89.94 138.83 91.08 143.18 92.69 150.16C93.07 151.77 93.45 153.54 93.87 155.44C96.58 167.49 96.79 172.56 96.96 175.94C97.09 178.2 97.17 179.68 97.93 182.01Z" /><path class="shp1" d="M97.09 75.81C97.05 75.85 96.96 75.89 96.92 75.94L96.71 75.56C96.83 75.64 96.96 75.72 97.09 75.81Z" /><path class="shp6" d="M96.79 181.92C96.87 182.26 97 182.64 97.13 183.02C93.11 182.68 89.22 182.22 85.04 181.54C84.91 181.2 84.79 180.82 84.62 180.4C88.84 181.12 92.77 181.54 96.79 181.92Z" /><path class="shp6" d="M95.9 176.01C96.03 178.25 96.11 179.73 96.79 181.93C92.77 181.55 88.84 181.13 84.61 180.41C83.68 177.79 82.54 174.28 81.19 169.46C79.29 162.99 77.3 154.54 73.33 137.63C72.4 133.7 71.64 130.49 71.13 128.33L70.71 128.41C71.64 127.52 72.91 125.54 74.85 121.56C76.08 119.02 76.67 117.59 77.05 116.57C77.52 115.43 77.68 114.92 78.45 113.99C79.34 112.85 80.23 112.13 81.03 111.54C81.07 111.62 81.07 111.67 81.11 111.75C81.91 114.12 82.08 116.23 82.17 117.25C82.21 117.55 82.25 117.8 82.25 117.93C83.81 125.03 85.67 130.11 86.77 133.11L87.02 133.83C89.39 140.38 90.53 145.5 92.81 155.69C95.52 167.63 95.78 172.67 95.9 176.01Z" /><path class="shp1" d="M83.68 104.09C84.61 105.32 85.41 106.37 85.16 107.85C84.91 109.33 83.81 109.92 82.54 110.64C82.37 110.77 82.16 110.85 81.95 110.98L81.91 110.94L80.94 111.32C80.98 111.36 80.98 111.45 81.02 111.53C80.22 112.12 79.33 112.84 78.44 113.98C77.68 114.91 77.51 115.42 77.04 116.56C76.66 117.57 76.07 119.01 74.84 121.55C72.9 125.52 71.63 127.51 70.7 128.4L70.11 128.53C70.15 128.66 70.15 128.74 70.19 128.87C69.72 129.25 69.39 129.34 69.05 129.34C69.05 129.34 69.01 129.34 68.97 129.34C68.29 129.3 67.91 128.96 65.76 126.89C64.75 125.92 63.86 125.03 63.14 124.31C62.97 123.84 62.76 123.42 62.55 123.04L62.97 122.66C63.86 123.55 65.08 124.73 66.48 126.13C68.42 127.99 68.76 128.24 69.02 128.29C69.02 128.29 69.02 128.29 69.06 128.29C69.95 128.29 71.64 125.8 73.92 121.1C75.1 118.61 75.65 117.17 76.03 116.2C76.54 115.02 76.75 114.38 77.59 113.33C79.2 111.34 80.85 110.41 82.03 109.74C83.3 109.02 83.93 108.64 84.1 107.67C84.27 106.66 83.68 105.89 82.83 104.75C81.94 103.61 80.84 102.21 80.17 99.93C79.54 97.9 79.37 95.7 79.7 93.42L80.76 93.59C80.42 95.7 80.59 97.73 81.14 99.59C81.82 101.68 82.84 103.03 83.68 104.09Z" /><path class="shp1" d="M85.04 181.54C84.66 181.5 84.28 181.41 83.86 181.33C83.73 180.99 83.61 180.61 83.48 180.19C83.86 180.27 84.24 180.32 84.62 180.4C84.78 180.83 84.91 181.21 85.04 181.54Z" /><path class="shp1" d="M84.61 180.4C84.23 180.32 83.85 180.27 83.47 180.19C82.54 177.61 81.44 174.23 80.13 169.71C78.27 163.24 76.28 154.79 72.27 137.88C71.38 134.16 70.71 131.03 70.2 128.87C70.37 128.79 70.54 128.62 70.71 128.4L71.13 128.32C71.64 130.48 72.4 133.69 73.33 137.62C77.3 154.53 79.29 162.99 81.19 169.45C82.54 174.27 83.68 177.78 84.61 180.4Z" /><path class="shp1" d="M83.47 180.19C83.6 180.61 83.72 180.99 83.85 181.33C82.03 181.03 80.17 180.7 78.23 180.27C74.09 179.38 69.94 178.33 65.88 177.06C65.96 176.72 66.05 176.38 66.05 176.05C70.11 177.28 74.29 178.33 78.48 179.22C80.22 179.6 81.87 179.9 83.47 180.19Z" /><path class="shp1" d="M82.37 304.28L82.24 305.29C82.24 304.95 82.24 304.61 82.28 304.28C82.33 304.28 82.33 304.28 82.37 304.28Z" /><path class="shp1" d="M82.29 304.28C82.25 304.62 82.25 304.96 82.25 305.29C71.72 303.77 60.52 302.58 49.06 305.42C49.02 305.08 48.98 304.7 48.93 304.36C60.47 301.53 71.76 302.71 82.29 304.28Z" /><path class="shp3" d="M83.47 180.19C81.86 179.89 80.21 179.6 78.48 179.22C74.29 178.33 70.11 177.28 66.05 176.05C66.64 172.58 67.02 168.69 66.9 164.42C66.9 162.77 66.77 161.55 66.69 160.28C66.56 158.38 66.39 156.43 66.39 152.8C66.39 150.86 66.43 149.38 66.43 147.98C66.51 145.78 66.56 143.88 66.39 141C66.39 140.96 66.09 136.01 65.33 131.7C64.78 128.66 64.02 126.29 63.13 124.3C63.85 125.02 64.74 125.91 65.75 126.88C67.91 128.95 68.29 129.29 68.96 129.33C69 129.33 69.04 129.33 69.04 129.33C69.38 129.33 69.72 129.25 70.18 128.86C70.69 131.02 71.36 134.14 72.25 137.87C76.27 154.78 78.25 163.24 80.11 169.7C81.44 174.23 82.54 177.61 83.47 180.19Z" /><path class="shp1" d="M81.95 110.98C81.65 111.15 81.36 111.36 81.02 111.53C80.98 111.45 80.98 111.36 80.94 111.32L81.91 110.94L81.95 110.98Z" /><path class="shp1" d="M82.25 305.29C81.95 312.05 81.57 314.89 79.42 317C77.05 319.33 73.71 319.62 67.03 320.21C61.96 320.63 57.18 321.06 53.8 318.1C52.32 316.75 51.56 315.18 51.05 313.83C50.08 311.29 49.4 308.5 49.06 305.42C60.52 302.58 71.72 303.77 82.25 305.29Z" /><path class="shp1" d="M70.11 128.53L70.7 128.4C70.53 128.61 70.36 128.78 70.19 128.87C70.16 128.74 70.16 128.66 70.11 128.53Z" /><path class="shp1" d="M66.05 176.05C66.05 176.39 65.97 176.73 65.88 177.06C65.75 177.02 65.58 176.98 65.46 176.93L65.76 175.96C65.84 176.01 65.97 176.01 66.05 176.05Z" /><path class="shp1" d="M62.55 123.03C62.76 123.41 62.97 123.83 63.14 124.3C62.8 123.96 62.51 123.67 62.21 123.37L62.55 123.03Z" /><path class="shp1" d="M48.93 304.36C48.97 304.7 49.01 305.08 49.06 305.42C48.89 305.42 48.76 305.46 48.59 305.5L48.34 304.49C48.55 304.44 48.72 304.4 48.93 304.36Z" /></g></g></g></g><g ><g ><g ><g ><path class="shp1" d="M199.4 204.8L197.58 207.84L197.62 205.94L193.39 205.79L193.14 215.22L190.98 218.81L189.46 217.51L189.46 217.21L189.08 217.21L187.52 215.91L191.28 209.68L28.64 207.88C27.24 209.78 23.95 214.26 22.04 216.91L18.49 216.91L17.31 215.81C17.86 215.01 26.06 203.74 26.06 203.74L26.74 202.84L199.4 204.8Z" /><path class="shp1" d="M197.62 205.94L197.58 207.84L193.14 215.22L193.39 205.79L197.62 205.94Z" /><path class="shp1" d="M197.58 207.84L195.21 295.72L190.98 295.57L193.14 215.22L197.58 207.84Z" /><path class="shp1" d="M191.28 209.68L187.52 215.91L189.08 217.21L22.04 216.91C23.94 214.27 27.24 209.78 28.64 207.88L191.28 209.68Z" /><path class="shp1" d="M189.46 217.21L189.46 217.51L189.08 217.21L189.46 217.21Z" /><path class="shp1" d="M189.46 217.51L185.49 323.3L181.26 323.05L185.02 222.2L32.06 221.9L32.06 221.35L27.83 221.2L27.83 221.9L20.85 221.9L16.71 322.4L12.48 322.15L16.79 216.91L18.48 216.91L20.59 218.91C20.72 218.76 21.27 217.96 22.03 216.91L189.07 217.21L189.46 217.51Z" /><path class="shp1" d="M32.06 221.35L32.06 221.9L27.84 221.9L27.84 221.2L32.06 221.35Z" /><path class="shp1" d="M32.06 221.9L29.65 311.13L25.43 310.98L27.84 221.9L32.06 221.9Z" /><path class="shp1" d="M18.49 216.92L22.04 216.92C21.28 217.97 20.73 218.77 20.6 218.92L18.49 216.92Z" /></g></g></g></g><g ><path class="shp5" d="M88.41 187.48L109.84 187.48L109.84 210.49L88.41 210.49L88.41 187.48Z" /><path class="shp5" d="M113.5 201.84L125.06 201.84L125.06 213.59L113.5 213.59L113.5 201.84Z" /><path class="shp9" d="M119.28 201.84C116.94 201.84 115.05 199.95 115.05 197.61C115.05 195.27 116.94 193.38 119.28 193.38C121.62 193.38 123.51 195.27 123.51 197.61C123.51 199.95 121.62 201.84 119.28 201.84Z" /><path class="shp9" d="M99.12 188.21C96.47 188.21 94.33 186.07 94.33 183.42C94.33 180.77 96.47 178.63 99.12 178.63C101.77 178.63 103.91 180.77 103.91 183.42C103.91 186.07 101.77 188.21 99.12 188.21Z" /><path class="shp10" d="M99.12 180.07C97.42 180.07 96.04 178.69 96.04 176.99C96.04 175.29 97.42 173.91 99.12 173.91C100.82 173.91 102.2 175.29 102.2 176.99C102.2 178.69 100.82 180.07 99.12 180.07Z" /><path class="shp10" d="M106.72 186.5C105.02 186.5 103.64 185.12 103.64 183.42C103.64 181.72 105.02 180.34 106.72 180.34C108.42 180.34 109.8 181.72 109.8 183.42C109.8 185.12 108.42 186.5 106.72 186.5Z" /><path class="shp10" d="M111.53 184.28C110.44 184.28 109.56 183.4 109.56 182.31C109.56 181.22 110.44 180.34 111.53 180.34C112.62 180.34 113.5 181.22 113.5 182.31C113.5 183.4 112.62 184.28 111.53 184.28Z" /><path class="shp11" d="M81.08 207.72L131.27 207.72L131.27 215.29L81.08 215.29L81.08 207.72Z" /></g><path class="shp12" d="M163.37 215.28C159.34 215.28 156.08 207.68 156.08 198.28C156.08 188.88 159.34 181.28 163.37 181.28C167.4 181.28 170.66 188.88 170.66 198.28C170.66 207.68 167.4 215.28 163.37 215.28Z" /><path class="shp12" d="M183.63 215.28C180.39 215.28 177.78 207.44 177.78 197.75C177.78 188.06 180.39 180.22 183.63 180.22C186.87 180.22 189.48 188.06 189.48 197.75C189.48 207.44 186.87 215.28 183.63 215.28Z" /><path class="shp13" d="M162.27 183.82C159.54 183.82 157.34 181.81 157.34 179.33C157.34 176.85 159.54 174.84 162.27 174.84C165 174.84 167.2 176.85 167.2 179.33C167.2 181.81 165 183.82 162.27 183.82Z" /><path class="shp13" d="M183.65 184.5C181.55 184.5 179.85 182.59 179.85 180.23C179.85 177.87 181.55 175.96 183.65 175.96C185.75 175.96 187.45 177.87 187.45 180.23C187.45 182.59 185.75 184.5 183.65 184.5Z" /></g></g></g></svg>