<svg xmlns="http://www.w3.org/2000/svg" viewBox="0 0 265 230" width="256" height="222"><style>tspan { white-space:pre }.shp0 { fill: #ffffff } .shp1 { fill: #000000 } .shp2 { fill: #534741 } .shp3 { fill: #fd1a16 } .shp4 { fill: #f2f91c } .shp5 { fill: #26120b } .shp6 { fill: #603813 } .shp7 { fill: #beac83 } .shp8 { fill: #ffff00 } .shp9 { fill: #6b1687 } .shp10 { fill: none;stroke: #000000;stroke-linecap:round;stroke-linejoin:round;stroke-width: 0.1 } .shp11 { fill: #42210b } </style><g ></g><g ><g ><path class="shp0" d="M17.88 229.45C18.79 229.74 19.59 229.12 20.1 229.11C22.92 229.09 25.75 230.46 28.59 229.82C31.11 229.25 33.32 226.53 32.36 224.13C31.49 221.95 28.56 221.08 27.86 218.84C27.45 217.51 27.95 216.08 28.57 214.84C31.67 208.62 38.06 204.16 44.96 203.38C46.78 203.18 48.7 203.23 50.35 204.04C52.24 204.98 53.54 206.8 54.55 208.66C58.18 215.33 57.47 217.26 60.12 219.88C63.19 222.92 67.38 223.06 68.04 223.07C72.92 223.15 77.94 220.05 79.28 215.8C79.46 215.22 80.33 212.57 78.97 210.79C77.68 209.09 75.19 209.15 73.11 208.68C66.81 207.23 63.64 198.47 67.55 193.33C68.45 192.14 69.63 191.16 70.36 189.85C72.85 185.37 68.99 180.11 65.4 176.45C61.5 172.48 57.61 168.51 53.71 164.54C52.86 163.67 51.95 162.66 52 161.45C52.06 159.83 53.74 158.83 55.23 158.19C65.54 153.77 84.83 150.42 98.62 142.29C101.6 140.54 103.24 139.16 106.39 138.78C113.66 137.91 118.23 143.59 124.72 147C132.97 151.33 136.27 148.75 154.38 148.43C168.24 148.19 181.7 154.52 195.53 153.62C204.11 153.06 212.23 149.77 220.56 147.65C232.19 144.69 244.4 144.04 256.28 145.74C259.8 146.24 264.96 145.59 264.75 142.05C264.69 141.12 264.2 140.28 263.66 139.52C257.73 131.13 245.93 129.1 235.78 130.71C225.63 132.32 216.11 136.76 205.99 138.57C205.28 138.7 204.54 138.81 203.85 138.6C201.7 137.96 203.28 132.05 203.58 130.78C206.12 119.89 208.53 81.43 207.79 68.23C206.46 44.65 190.45 19.84 168.01 8.3C163.58 6.02 143.92 -3.44 120.26 2.93C96.48 9.34 84.17 27.56 80.47 33.05C74.94 41.25 71.94 49.35 70.74 52.66C66.91 63.23 65.74 72.22 64.72 80.09C62.9 94.13 61.99 101.14 62.27 104.84C62.57 108.83 63.27 113.32 60.58 117.43C58.35 120.83 53.81 124.04 51.46 122.47C48.76 120.67 48.73 116.84 47.79 113.73C46.35 108.95 41.98 105.19 37.04 104.49C30.49 103.56 24.88 107.64 24.12 108.27C19.77 111.86 17.68 118.93 13.49 133.07C12.2 137.43 11.95 138.74 10.66 140.92C6.87 147.31 1.85 152.21 1.85 152.21C1.25 152.83 0.66 153.5 0.42 154.33C-0.54 157.68 4.34 159.48 5.62 162.1C7.75 166.5 5.26 169.7 7.46 171.61C9.32 173.22 13.14 172.71 15.44 171C18.56 168.66 17.72 164.94 20.04 164.25C22.06 163.65 24.67 165.88 25.87 167.93C27.85 171.31 26.44 175.22 25.87 176.83C24.78 179.9 23.59 180.28 19.73 185.57C16.11 190.54 14.32 193.06 14.82 195.23C15.61 198.63 20.02 198.27 21.11 201.75C22.1 204.91 18.82 206.33 16.28 213.87C16.28 213.87 13.45 222.26 16.2 227.75C16.37 228.11 16.88 229.13 17.88 229.45Z" /><g ><g ><g ><g ><path fill-rule="evenodd" class="shp1" d="M198.67 58.91C205.74 84.91 205.67 112.4 198.46 138.36C197.24 142.79 195.41 145.64 192.85 147.04C191.52 147.79 189.95 148.16 188.08 148.16C186.21 148.16 184.04 147.77 181.52 147.02C174.71 145 167.02 144.68 159.62 144.4C157.94 144.33 156.27 144.27 154.66 144.18C151.78 144.03 148.82 143.97 145.98 143.92C138.63 143.77 131.02 143.64 123.67 141.81C120.34 140.99 117.42 139.66 114.32 138.28C113.35 137.83 112.37 137.4 111.38 136.97C101.5 132.74 90.6 132.24 82.16 132.29C81.34 132.29 80.42 132.33 79.47 132.36C74.36 132.57 67.99 132.81 64.92 128.38C63.57 126.43 63.11 124.36 63.11 122.23C63.11 119.78 63.73 117.25 64.34 114.77C64.62 113.61 64.88 112.51 65.09 111.44C66.21 105.47 67.07 99.36 67.91 93.47L68.15 91.75C69.93 79.31 71.95 65.23 76.83 52.3C81 41.25 87.42 30.82 95.37 22.1C101.97 14.82 108.46 10.26 115.18 8.11C124.25 5.21 134.13 6.63 142.67 8.18C153.99 10.26 165.77 13.1 175.21 19.98C185.85 27.71 193.75 40.8 198.67 58.91ZM198.01 138.25C206.56 107.43 205.92 70.99 191.56 41.95C188.03 34.81 183.55 28.02 177.72 22.59C168.89 14.4 157.61 11.72 146.17 9.25C136.58 7.17 126.49 5.7 117.03 8.3C109.29 10.43 102.48 15.16 96.81 20.85C83.81 33.92 76.63 51.77 72.48 69.74C70.2 79.6 68.72 89.6 67.28 99.61C66.53 104.73 65.8 109.86 64.98 114.98C64.23 119.56 62.44 123.96 65.32 128.11C68.24 132.34 74.47 132.09 79.46 131.89C80.43 131.85 81.33 131.82 82.17 131.82C82.47 131.82 82.77 131.82 83.07 131.82C89.11 131.82 96.31 132.14 103.48 133.88C106.19 134.53 108.92 135.39 111.58 136.54C112.57 136.97 113.54 137.42 114.52 137.85C117.61 139.23 120.51 140.54 123.8 141.37C131.09 143.18 138.69 143.32 146.02 143.46C148.86 143.52 151.82 143.57 154.7 143.72C155.84 143.79 157 143.83 158.18 143.87C158.67 143.91 159.15 143.93 159.66 143.94C167.1 144.24 174.81 144.54 181.67 146.58C186.59 148.04 190.09 148.06 192.65 146.64C195.06 145.28 196.81 142.53 198.01 138.25Z" /><path class="shp2" d="M191.56 41.94C205.92 70.99 206.56 107.42 198.01 138.24C196.81 142.52 195.05 145.27 192.62 146.62C190.06 148.04 186.56 148.02 181.64 146.56C174.78 144.52 167.07 144.22 159.63 143.92C159.12 143.9 158.64 143.88 158.15 143.85L158.17 143.55C159.72 137.06 160.83 130.35 161.46 123.61C162.81 109.34 163.78 99.01 158.13 89.46C156.54 86.75 151.66 78.48 142.91 76.98C134.89 75.61 127.98 80.76 123.4 84.18C116.61 89.23 113.19 95.12 111.54 97.96C106.98 105.83 105.65 113.11 104.84 117.45C103.96 122.31 103.68 127.27 103.64 128.22C103.55 129.98 103.51 131.77 103.53 133.55L103.46 133.85C96.3 132.11 89.1 131.79 83.05 131.79C82.75 131.79 82.45 131.79 82.15 131.79C81.31 131.79 80.41 131.83 79.44 131.86C74.45 132.07 68.22 132.31 65.3 128.08C62.42 123.93 64.22 119.53 64.96 114.95C65.78 109.83 66.51 104.7 67.26 99.58C68.7 89.57 70.18 79.57 72.46 69.71C76.61 51.74 83.79 33.89 96.79 20.82C102.46 15.13 109.27 10.4 117.01 8.27C126.47 5.67 136.56 7.15 146.15 9.22C157.6 11.69 168.87 14.36 177.7 22.56C183.55 28.01 188.02 34.8 191.56 41.94Z" /><path class="shp1" d="M158.14 89.47C163.79 99.03 162.82 109.35 161.47 123.62C160.83 130.35 159.73 137.07 158.18 143.56L157.71 143.47C159.26 136.98 160.37 130.28 161 123.59C162.33 109.39 163.3 99.14 157.75 89.72C156.18 87.05 151.39 78.93 142.84 77.47C135.02 76.14 128.48 81 123.69 84.58C116.98 89.57 113.59 95.41 111.96 98.23C107.43 106.03 106.11 113.25 105.32 117.57C104.44 122.4 104.16 127.33 104.12 128.27C104.03 130.03 103.99 131.82 104.01 133.56L103.54 133.58C103.52 131.8 103.56 130.01 103.65 128.25C103.69 127.3 103.97 122.34 104.85 117.48C105.65 113.14 106.98 105.87 111.55 97.99C113.2 95.15 116.62 89.26 123.41 84.21C127.99 80.79 134.89 75.64 142.92 77.01C151.66 78.49 156.55 86.76 158.14 89.47Z" /><path class="shp3" d="M157.74 89.71C163.29 99.14 162.32 109.39 160.99 123.58C160.35 130.28 159.25 136.97 157.7 143.46L158.17 143.55L158.15 143.85C156.97 143.81 155.81 143.78 154.67 143.7C151.79 143.55 148.83 143.49 145.99 143.44C138.66 143.29 131.06 143.16 123.77 141.35C120.48 140.53 117.58 139.22 114.49 137.83C113.52 137.4 112.54 136.95 111.55 136.52C108.89 135.38 106.16 134.52 103.45 133.86L103.52 133.56L103.99 133.54C103.97 131.8 104.01 130.01 104.1 128.25C104.14 127.31 104.42 122.38 105.3 117.55C106.09 113.23 107.41 106.01 111.94 98.21C113.57 95.39 116.95 89.55 123.67 84.56C128.46 80.99 135 76.12 142.82 77.45C151.38 78.92 156.17 87.04 157.74 89.71Z" /></g></g></g></g><path class="shp4" d="M124.41 116.67C120.11 113.38 122 98.1 132.01 93.85C136.79 91.83 143.99 92.07 148 96.19C151.54 99.83 151.03 104.91 150.71 108.06C150.42 110.96 149.95 115.56 146.64 117.36C144.1 118.74 142.34 117.14 135.57 116.73C127.94 116.29 126.26 118.09 124.41 116.67Z" /><g ><path class="shp5" d="M15.86 134.62C25.66 131.57 35.77 129.47 45.99 128.36C51.11 127.84 56.22 127.43 61.36 127.2C66.5 127 71.65 127.08 76.78 127.5C87.03 128.4 97.19 130.55 106.77 134.3C111.56 136.16 116.04 138.76 120.92 140.29C125.79 141.86 130.93 142.3 136.04 142.55C146.28 143.04 156.53 143.04 166.8 143.21C171.96 143.27 177.13 144.13 182.09 145.5C184.58 146.18 186.99 146.87 189.51 146.94C192.03 147.04 194.52 146.75 196.9 145.93C199.28 145.13 201.62 144.03 204.02 143.1C206.41 142.13 208.89 141.34 211.36 140.66C216.33 139.3 221.38 138.26 226.48 137.57C236.66 136.2 247.09 136.15 257.18 138.13L257.16 138.23C254.63 137.82 252.08 137.52 249.53 137.33C248.25 137.23 246.98 137.17 245.7 137.15C244.42 137.11 243.14 137.06 241.86 137.09C236.74 137.11 231.64 137.53 226.58 138.29C221.52 139.04 216.52 140.15 211.62 141.58C209.17 142.31 206.75 143.07 204.39 144.04C202.01 144.97 199.7 146.06 197.22 146.9C194.74 147.76 192.07 148.09 189.46 147.98C186.82 147.91 184.25 147.19 181.81 146.5C176.9 145.11 171.87 144.24 166.77 144.14C156.53 143.92 146.26 143.7 136.01 143.08C130.89 142.77 125.73 142.2 120.81 140.61C118.35 139.83 116 138.77 113.68 137.68C111.36 136.59 109.02 135.54 106.64 134.61C104.26 133.66 101.82 132.9 99.37 132.17C96.9 131.5 94.41 130.89 91.91 130.38C86.9 129.35 81.82 128.69 76.72 128.32C66.52 127.54 56.27 128.17 46.07 129.12C35.88 130.11 25.78 131.99 15.89 134.71L15.86 134.62Z" /></g><path class="shp6" d="M113.93 117.52L153.64 118.55L153.31 131.38L113.59 130.35L113.93 117.52Z" /><g ><path class="shp1" d="M125.09 107.17C126.24 104.8 127.92 102.67 130.02 101.06C131.06 100.25 132.23 99.6 133.43 99.04C134.63 98.48 135.87 98 137.18 97.75C139.77 97.19 142.63 97.71 144.76 99.33C146.89 100.95 148.29 103.39 148.89 105.95L148.87 105.95C148.16 103.43 146.77 101.03 144.64 99.49C142.55 97.9 139.77 97.37 137.21 97.91C135.92 98.15 134.68 98.61 133.49 99.16C132.29 99.7 131.13 100.34 130.09 101.14C127.99 102.72 126.29 104.83 125.12 107.18L125.09 107.17Z" /></g><g ><path class="shp1" d="M131.07 109.16C131.55 107.92 132.38 106.82 133.45 106.01C134.51 105.2 135.81 104.7 137.15 104.6C138.49 104.49 139.86 104.79 141.04 105.43C142.21 106.09 143.2 107.06 143.83 108.24L143.81 108.25C143.09 107.14 142.11 106.2 140.94 105.61C139.79 104.99 138.47 104.69 137.16 104.77C134.52 104.91 132.09 106.72 131.09 109.18L131.07 109.16Z" /></g><g ><path class="shp1" d="M133.52 112.84C134.48 111.74 135.93 111.02 137.43 111.08C138.18 111.09 138.92 111.3 139.57 111.66C140.21 112.04 140.79 112.53 141.2 113.14L141.18 113.15C140.68 112.62 140.11 112.15 139.47 111.83C138.84 111.49 138.14 111.27 137.42 111.23C135.98 111.13 134.53 111.78 133.53 112.84L133.52 112.84Z" /></g><g ><g ><g ><g ><path class="shp1" d="M78.16 141.62C79.05 142.56 79.45 143.92 79.4 144.76C79.38 145.18 79.24 145.51 79 145.7C78.51 146.1 77.74 145.84 77.34 145.68C76.5 145.38 76.1 144.88 75.77 144.44C75.51 144.09 75.25 143.78 74.81 143.55C74.32 143.29 73.99 143.34 73.4 143.39C72.93 143.46 72.35 143.51 71.43 143.44C70.63 143.37 69.98 143.14 69.42 142.95C69.02 142.81 68.65 142.69 68.27 142.62C62.84 141.75 57.87 140.61 53.09 139.13C50.82 138.43 49.46 138.4 48.57 139.01C48.24 139.24 47.63 139.9 47.33 141.7C47.05 143.29 47.28 144.14 47.61 145.4C47.84 146.31 48.15 147.46 48.31 149.19C48.4 149.96 48.4 150.34 48.4 151.42C48.4 152.38 48.4 153.81 48.45 156.57L48.45 156.66C48.45 157.03 48.47 157.57 48.45 158.25C48.43 158.72 48.38 159.07 48.36 159.44C48.29 160.31 48.22 161.13 48.31 162.86C48.33 163.26 48.38 163.66 48.4 164.08C48.24 163.99 48.07 163.92 47.88 163.85C47.86 163.85 47.81 163.83 47.79 163.83C47.77 163.5 47.74 163.2 47.72 162.89C47.63 161.11 47.7 160.29 47.77 159.4C47.79 159.05 47.84 158.67 47.86 158.23C47.88 157.55 47.86 157.04 47.86 156.66L47.86 156.57C47.81 153.81 47.81 152.38 47.81 151.42C47.81 150.37 47.81 150.01 47.72 149.26C47.65 148.63 47.58 148.09 47.49 147.6C47.35 146.78 47.19 146.12 47.04 145.56C46.69 144.25 46.45 143.31 46.74 141.6C47.09 139.68 47.75 138.88 48.24 138.53C49.55 137.59 51.52 138.01 53.28 138.55C53.61 138.64 53.94 138.76 54.29 138.85L54.57 139.2C54.64 139.13 54.71 139.08 54.78 138.99C59.04 140.25 63.52 141.24 68.37 142.04C68.79 142.09 69.19 142.23 69.61 142.37C70.17 142.58 70.76 142.77 71.51 142.84C72.33 142.91 72.89 142.86 73.36 142.79C73.95 142.72 74.44 142.67 75.07 143.02C75.63 143.3 75.94 143.7 76.24 144.07C76.54 144.47 76.85 144.87 77.53 145.12C77.79 145.21 78.4 145.42 78.63 145.24C78.72 145.15 78.79 144.96 78.82 144.72C78.87 144.02 78.49 142.82 77.72 142C77.11 141.32 76.43 141.18 75.24 140.95C74.75 140.83 74.19 140.72 73.48 140.55C70.6 139.8 68.54 138.7 67.41 138.09C66.22 137.46 65.65 137.04 65 136.54C64.41 136.07 63.74 135.56 62.35 134.71C59.73 133.12 58.41 132.32 56.84 131.9C56.68 131.85 56.51 131.81 56.32 131.78C56.34 131.57 56.37 131.38 56.41 131.19C56.62 131.24 56.81 131.28 57 131.33C58.64 131.78 59.98 132.57 62.62 134.21C64.05 135.08 64.73 135.59 65.36 136.06C65.99 136.55 66.51 136.95 67.68 137.56C68.76 138.15 70.8 139.22 73.61 139.95C74.29 140.14 74.87 140.25 75.37 140.35C76.64 140.64 77.39 140.8 78.16 141.62Z" /><path class="shp7" d="M77.72 142.02C78.49 142.84 78.87 144.03 78.82 144.74C78.8 144.97 78.73 145.16 78.63 145.26C78.4 145.45 77.79 145.24 77.53 145.14C76.85 144.88 76.55 144.48 76.24 144.09C75.94 143.72 75.63 143.32 75.07 143.04C74.44 142.69 73.95 142.74 73.36 142.81C72.89 142.88 72.33 142.93 71.51 142.86C70.76 142.79 70.17 142.6 69.61 142.39C69.19 142.25 68.79 142.11 68.37 142.06C63.52 141.26 59.05 140.28 54.78 139.01C55.74 138.17 56.28 137.25 56.42 136.29C56.49 135.75 56.42 135.33 56.35 134.81C56.28 134.29 56.19 133.69 56.23 132.8C56.25 132.47 56.28 132.14 56.32 131.82C56.51 131.84 56.67 131.89 56.84 131.94C58.41 132.36 59.72 133.16 62.35 134.75C63.73 135.59 64.41 136.11 65 136.58C65.66 137.07 66.22 137.49 67.41 138.13C68.53 138.74 70.6 139.84 73.48 140.59C74.18 140.75 74.74 140.87 75.24 140.99C76.43 141.2 77.11 141.34 77.72 142.02Z" /><path class="shp1" d="M76.19 212.62C76.4 213.28 76.75 214.85 75.98 216.13C75.44 217.04 74.5 217.42 73.57 217.77C73.17 217.93 72.77 218.07 72.45 218.26C72.08 218.49 71.7 218.75 71.35 219.01C70.25 219.81 69.1 220.65 67.48 220.18C66.36 219.88 65.58 219.15 65.11 218.59C63.28 216.32 60.8 211.87 58.18 207.16C56.42 203.97 54.6 200.69 52.91 198C53.07 197.93 53.26 197.84 53.45 197.74C55.11 200.41 56.92 203.69 58.7 206.85C61.32 211.56 63.78 215.99 65.59 218.21C65.99 218.7 66.67 219.36 67.65 219.62C68.99 219.99 69.97 219.29 71 218.54C71.37 218.26 71.75 218 72.15 217.77C72.52 217.56 72.97 217.37 73.37 217.23C74.24 216.88 75.06 216.57 75.5 215.85C76.16 214.75 75.83 213.37 75.64 212.83L75.62 212.74C75.46 212.37 74.24 212.55 73.14 212.72C71.97 212.91 70.61 213.12 69.53 212.88C67.12 212.32 66.3 209.69 64.92 205.34C63.96 202.36 62.79 198.66 60.7 194.31C60.68 194.26 60.65 194.19 60.63 194.15C60.79 194.08 60.96 193.99 61.15 193.87C61.17 193.92 61.22 193.99 61.24 194.06C63.35 198.46 64.52 202.19 65.46 205.16C66.8 209.33 67.59 211.84 69.65 212.3C70.63 212.53 71.92 212.32 73.05 212.14C74.6 211.91 75.81 211.72 76.17 212.51C76.15 212.51 76.17 212.53 76.19 212.62Z" /><path class="shp7" d="M75.63 212.83C75.82 213.37 76.15 214.75 75.49 215.85C75.04 216.58 74.23 216.88 73.36 217.23C72.96 217.37 72.52 217.56 72.14 217.77C71.74 218 71.37 218.26 70.99 218.54C69.96 219.29 68.98 219.99 67.64 219.62C66.66 219.36 65.98 218.71 65.58 218.21C63.78 215.98 61.32 211.56 58.69 206.85C56.91 203.69 55.11 200.41 53.44 197.74C55.41 196.83 57.73 195.63 60.61 194.13C60.63 194.18 60.66 194.25 60.68 194.29C62.76 198.65 63.94 202.35 64.9 205.32C66.28 209.68 67.1 212.3 69.51 212.86C70.59 213.09 71.95 212.88 73.12 212.7C74.22 212.54 75.44 212.35 75.6 212.72L75.63 212.83Z" /><path class="shp1" d="M63.8 183.58C66.38 186.58 67.67 188.08 67.15 189.72C66.78 190.91 65.65 191.52 64.81 191.95C63.5 192.65 62.26 193.29 61.13 193.87C61.08 193.78 61.04 193.68 61.01 193.61C62.13 193.02 63.35 192.39 64.66 191.69C65.55 191.22 66.53 190.68 66.86 189.65C67.45 187.82 65.5 186.11 61.73 181.59C58.54 177.77 56.95 175.85 55.15 173.09C54.47 172.06 53.16 170.3 50.54 166.81L50.8 166.65C53.42 170.16 54.74 171.9 55.41 172.95C57.19 175.67 58.78 177.56 61.95 181.36C62.65 182.19 63.26 182.92 63.8 183.58Z" /><path class="shp1" d="M61.74 181.58C65.51 186.1 67.46 187.81 66.87 189.64C66.54 190.67 65.56 191.21 64.67 191.68C63.36 192.38 62.14 193.02 61.02 193.6C60.95 193.51 60.93 193.44 60.88 193.34C62.03 192.75 63.25 192.1 64.56 191.42C65.33 191.02 66.29 190.51 66.6 189.55C67.02 188.21 65.8 186.79 63.37 183.95C62.83 183.29 62.22 182.57 61.54 181.77C58.33 177.93 56.74 176.01 54.93 173.24C54.25 172.23 52.94 170.48 50.34 166.99L50.32 166.97C49.45 165.82 48.98 165.19 48.49 164.81C48.49 164.67 48.47 164.55 48.47 164.44C49.08 164.84 49.62 165.52 50.55 166.81C53.17 170.3 54.49 172.06 55.16 173.09C56.96 175.84 58.55 177.77 61.74 181.58Z" /><path class="shp8" d="M63.36 183.95C65.8 186.78 67.01 188.21 66.59 189.55C66.29 190.51 65.33 191.03 64.55 191.42C63.24 192.1 62.02 192.76 60.87 193.34C60.73 193.08 60.61 192.89 60.4 192.54C59.95 191.77 59.14 190.36 56.82 186.12C51.6 176.59 50.47 174.01 49.58 170.61C49.06 168.71 48.71 166.72 48.48 164.8C48.97 165.17 49.44 165.81 50.31 166.96L50.33 166.98C52.93 170.47 54.24 172.23 54.92 173.23C56.72 175.99 58.32 177.92 61.53 181.76C62.21 182.57 62.82 183.29 63.36 183.95Z" /><path class="shp1" d="M61.13 193.86C60.94 193.98 60.78 194.07 60.61 194.14C60.56 194.05 60.52 193.95 60.47 193.88C60.63 193.81 60.82 193.72 61.01 193.6C61.04 193.67 61.08 193.77 61.13 193.86Z" /><path class="shp1" d="M61.01 193.6C60.82 193.72 60.64 193.81 60.47 193.88C60.42 193.79 60.38 193.69 60.35 193.62C60.51 193.53 60.68 193.43 60.87 193.34C60.92 193.44 60.94 193.51 61.01 193.6Z" /><path class="shp8" d="M60.87 193.34C60.68 193.43 60.52 193.53 60.35 193.62C60.21 193.36 60.09 193.17 59.9 192.82C59.43 192.07 58.61 190.64 56.29 186.4C51.04 176.82 49.92 174.2 49 170.75C48.46 168.67 48.06 166.53 47.85 164.45C48.08 164.54 48.27 164.66 48.46 164.8C48.69 166.72 49.05 168.71 49.56 170.61C50.45 174.01 51.57 176.58 56.8 186.12C59.12 190.36 59.94 191.77 60.38 192.54C60.62 192.9 60.73 193.09 60.87 193.34Z" /><path class="shp1" d="M60.48 193.88C60.53 193.95 60.57 194.04 60.62 194.14C57.74 195.64 55.42 196.83 53.45 197.75C53.38 197.66 53.33 197.59 53.29 197.52C55.2 196.62 57.55 195.43 60.48 193.88Z" /><path class="shp1" d="M60.36 193.63C60.38 193.7 60.43 193.79 60.48 193.89C57.55 195.44 55.21 196.63 53.29 197.52C53.24 197.45 53.2 197.36 53.15 197.29C55.09 196.34 57.45 195.15 60.36 193.63Z" /><path class="shp8" d="M59.91 192.83C60.1 193.18 60.21 193.37 60.36 193.63C57.46 195.15 55.09 196.35 53.14 197.28C52.81 196.76 52.48 196.27 52.18 195.8C49.7 192.15 45.11 186.17 42.18 187.2C41.41 187.48 41.2 188.14 40.82 189.47C40.56 190.38 40.21 191.65 39.51 193.36C38.9 194.86 37.64 198 35.32 201.07C35.3 201.09 35.3 201.09 35.3 201.12C32.51 201.26 29.47 201.28 26.84 200.75C27.82 198.83 28.55 196.72 28.81 193.96C28.93 192.67 28.88 191.83 28.86 191.01C28.79 189.89 28.77 188.93 29.09 187.1C29.51 184.92 30.4 183.02 31.27 181.2C32.09 179.49 32.86 177.9 33.19 176.14C33.54 174.34 32.79 171.71 31.2 166.65C31.74 166.42 32.49 166.37 34.36 166.3C34.81 166.28 35.32 166.25 35.93 166.23C39.16 166.07 40.78 165.97 41.65 165.81C43.2 165.51 44.23 165.11 45.07 164.78C45.82 164.5 46.36 164.29 46.92 164.29C47.18 164.29 47.44 164.31 47.72 164.41C47.77 164.43 47.84 164.46 47.88 164.48C48.09 166.56 48.49 168.7 49.03 170.78C49.94 174.22 51.07 176.85 56.32 186.43C58.63 190.65 59.44 192.08 59.91 192.83Z" /><path class="shp1" d="M56.35 134.8C56.42 135.32 56.49 135.74 56.42 136.28C56.28 137.24 55.74 138.15 54.78 139C54.62 138.95 54.45 138.91 54.29 138.86L54.2 138.74C55.16 137.94 55.72 137.08 55.84 136.19C55.91 135.77 55.86 135.39 55.77 134.9C55.7 134.38 55.58 133.71 55.65 132.74C55.67 132.39 55.7 132.01 55.74 131.66C55.95 131.71 56.14 131.75 56.33 131.8C56.28 132.13 56.26 132.46 56.24 132.78C56.19 133.68 56.28 134.29 56.35 134.8Z" /><path class="shp1" d="M56.42 131.17C56.42 131.19 56.42 131.19 56.42 131.22C56.23 131.17 56.05 131.13 55.83 131.1C55.83 131.08 55.83 131.08 55.83 131.05L56.42 131.17Z" /><path class="shp1" d="M56.42 131.22C56.37 131.41 56.35 131.59 56.33 131.81C56.14 131.76 55.96 131.72 55.74 131.67C55.76 131.48 55.79 131.3 55.83 131.11C56.05 131.13 56.24 131.17 56.42 131.22Z" /><path class="shp9" d="M55.77 134.9C55.86 135.39 55.91 135.77 55.84 136.19C55.72 137.08 55.16 137.95 54.2 138.74L54.29 138.86C53.94 138.77 53.61 138.65 53.28 138.56C51.52 138.02 49.56 137.6 48.24 138.54C47.75 138.89 47.09 139.69 46.74 141.61C46.46 143.32 46.69 144.26 47.04 145.57C47.18 146.13 47.34 146.79 47.49 147.61L45.76 147.91L45.17 147.84C45.15 148.14 44.96 149.13 44.12 149.71C43.16 150.37 41.78 150.2 40.75 149.31L40.38 149.76L38.25 149.76L37.73 149.48C37.54 149.81 36.86 150.96 35.55 151.26C34.05 151.61 32.41 150.74 31.57 149.18L31.05 149.46L28 149.86C27.98 149.65 27.93 149.44 27.91 149.2C27.63 146.93 27.25 144.12 25.57 143.58C24.87 143.35 23.6 143.49 21.75 145.41C21.28 145.9 20.95 146.37 20.74 146.82C20.41 146.61 20.06 146.42 19.73 146.26C19.38 146.07 19.19 146 19.05 145.96C18.93 145.91 18.82 145.87 18.65 145.77C18.23 145.54 17.88 145.18 17.15 144.43C16.94 144.2 16.63 143.87 16.28 143.49L16.12 143.63C16.35 143.07 16.64 142.41 17.03 141.66C17.5 140.75 18.13 139.58 19.07 138.38C19.94 138.97 20.94 139.29 21.88 139.29C22.21 139.29 22.51 139.24 22.82 139.15C24.41 138.7 25.05 137.3 26.64 133.53C27.62 133.48 28.51 133.65 29.33 133.79C30.69 134.05 32 134.28 33.31 133.37C33.52 133.23 33.71 133.07 33.87 132.9C34.22 133.65 35.04 134.98 36.63 135.88C37.24 136.23 38.43 136.77 40.03 136.77C40.15 136.77 40.29 136.77 40.4 136.75C41.15 136.7 42.3 136.54 43.42 135.88C45.93 134.47 46.7 131.8 46.89 131.01L46.91 130.94C47.66 131.13 48.32 131.1 48.5 131.1C50.05 131.03 53.28 131.19 55.72 131.69C55.67 132.04 55.65 132.42 55.63 132.77C55.58 133.7 55.7 134.38 55.77 134.9Z" /><path class="shp1" d="M55.84 131.1C55.79 131.29 55.77 131.47 55.75 131.66C53.31 131.17 50.08 131 48.53 131.07C48.34 131.07 47.69 131.09 46.94 130.91C46.45 130.79 45.91 130.58 45.46 130.23C44.87 130 44.52 129.81 44.24 129.64C44.15 129.59 44.08 129.55 44.01 129.52C44.2 129.4 44.36 129.26 44.46 129.07C44.48 129.09 44.51 129.09 44.53 129.12C44.6 129.17 44.67 129.21 44.79 129.26C45.02 129.4 45.33 129.54 45.73 129.71L45.82 129.76C46.76 130.53 48.21 130.49 48.49 130.49C50.1 130.42 53.35 130.61 55.84 131.1Z" /><path class="shp1" d="M54.78 139C54.71 139.09 54.64 139.14 54.57 139.21L54.29 138.86C54.46 138.9 54.62 138.95 54.78 139Z" /><path class="shp1" d="M53.28 197.51C53.33 197.58 53.37 197.65 53.44 197.74C53.25 197.83 53.07 197.93 52.9 198C52.85 197.91 52.81 197.84 52.74 197.77C52.91 197.7 53.1 197.61 53.28 197.51Z" /><path class="shp1" d="M53.14 197.28C53.19 197.35 53.23 197.44 53.28 197.51C53.09 197.6 52.91 197.7 52.74 197.77C52.72 197.68 52.65 197.61 52.6 197.54C52.77 197.44 52.96 197.37 53.14 197.28Z" /><path class="shp8" d="M53.14 197.28C52.95 197.37 52.77 197.44 52.6 197.54C52.3 197.05 51.99 196.58 51.69 196.13C47.68 190.23 44.22 187.09 42.37 187.74C41.9 187.93 41.76 188.35 41.39 189.64C41.13 190.58 40.78 191.84 40.05 193.6C39.46 195.05 38.25 198.05 36.04 201.05C35.81 201.07 35.55 201.1 35.29 201.12C35.29 201.1 35.29 201.1 35.31 201.07C37.63 198 38.89 194.86 39.5 193.36C40.2 191.65 40.55 190.38 40.81 189.47C41.18 188.13 41.4 187.48 42.17 187.2C45.1 186.17 49.69 192.14 52.17 195.8C52.49 196.27 52.82 196.76 53.14 197.28Z" /><path class="shp1" d="M52.75 197.77C52.82 197.84 52.87 197.91 52.91 198C50.94 198.91 49.4 199.52 48.06 199.87C44.31 200.81 41.2 201.21 39.67 201.35C38.45 201.47 37.05 201.58 35.59 201.65C35.66 201.58 35.71 201.51 35.78 201.42C35.8 201.4 35.83 201.37 35.83 201.35C37.21 201.28 38.5 201.14 39.65 201.05C40.66 200.96 43.89 200.63 47.99 199.6C49.25 199.25 50.78 198.66 52.75 197.77Z" /><path class="shp1" d="M52.6 197.54C52.65 197.61 52.72 197.68 52.74 197.77C50.77 198.66 49.25 199.25 47.98 199.6C43.88 200.63 40.65 200.96 39.64 201.05C38.49 201.14 37.2 201.28 35.82 201.35C35.91 201.26 35.98 201.14 36.03 201.05C37.32 200.98 38.51 200.86 39.59 200.77C41.11 200.63 44.18 200.25 47.91 199.32C49.18 198.99 50.71 198.4 52.6 197.54Z" /><path class="shp8" d="M51.69 196.13C51.99 196.58 52.3 197.04 52.6 197.54C50.7 198.41 49.18 198.99 47.91 199.32C44.19 200.26 41.12 200.63 39.59 200.77C38.51 200.86 37.32 200.98 36.03 201.05C38.23 198.05 39.45 195.05 40.04 193.6C40.77 191.84 41.12 190.58 41.38 189.64C41.75 188.35 41.9 187.93 42.36 187.74C44.22 187.09 47.69 190.23 51.69 196.13Z" /><path class="shp1" d="M50.78 166.62L50.55 166.81C49.61 165.52 49.07 164.84 48.47 164.44C48.45 164.32 48.45 164.21 48.42 164.09C49.18 164.48 49.75 165.23 50.78 166.62Z" /><path class="shp1" d="M48.46 164.44C48.46 164.56 48.48 164.67 48.48 164.81C48.29 164.67 48.11 164.55 47.87 164.46C47.85 164.34 47.85 164.25 47.85 164.16C48.06 164.23 48.27 164.32 48.46 164.44Z" /><path class="shp1" d="M48.41 164.09C48.43 164.21 48.43 164.32 48.46 164.44C48.27 164.32 48.06 164.23 47.85 164.16L47.83 164.14C47.83 164.02 47.81 163.93 47.81 163.84C47.83 163.84 47.88 163.86 47.9 163.86C48.08 163.92 48.25 163.99 48.41 164.09Z" /><path class="shp9" d="M47.87 156.66C47.87 157.03 47.89 157.55 47.87 158.23C47.85 158.68 47.8 159.05 47.78 159.4C47.71 160.29 47.64 161.11 47.73 162.89C47.75 163.19 47.78 163.5 47.8 163.83C46.72 163.5 45.95 163.81 44.85 164.23C44.03 164.53 43.02 164.93 41.52 165.24C40.7 165.38 39.08 165.47 35.9 165.64C35.29 165.66 34.78 165.69 34.31 165.71C32.48 165.78 31.64 165.8 31.03 166.11C31.01 166.02 30.96 165.92 30.94 165.83C30.21 163.46 29.6 161.94 29.11 160.72C28.36 158.85 27.96 157.82 27.94 155.75C27.92 154.98 27.96 154.34 28.01 153.67C28.1 152.59 28.17 151.49 28.01 149.85L31.06 149.45C31.88 150.97 33.38 151.91 34.88 151.91C35.16 151.91 35.42 151.89 35.7 151.82C37.25 151.47 38.04 150.13 38.25 149.76L40.38 149.76C41.08 150.37 41.95 150.7 42.77 150.7C43.38 150.7 43.96 150.54 44.46 150.18C45.51 149.48 45.72 148.26 45.77 147.91L47.5 147.61C47.59 148.1 47.66 148.64 47.73 149.27C47.82 150.02 47.82 150.37 47.82 151.43C47.82 152.39 47.82 153.82 47.87 156.58L47.87 156.66L47.87 156.66Z" /><path class="shp1" d="M47.85 164.16C47.85 164.25 47.85 164.35 47.87 164.46C47.82 164.44 47.75 164.41 47.71 164.39C47.43 164.3 47.17 164.27 46.91 164.27C46.35 164.27 45.81 164.48 45.06 164.76C44.22 165.09 43.19 165.49 41.64 165.79C40.77 165.95 39.16 166.05 35.92 166.21C35.31 166.23 34.8 166.26 34.35 166.28C32.48 166.35 31.73 166.4 31.19 166.63C31.17 166.54 31.12 166.44 31.1 166.35C31.83 166.02 32.88 166.07 35.9 165.9C39.13 165.74 40.73 165.67 41.57 165.5C45.15 164.8 46.02 163.51 47.8 164.12L47.82 164.12L47.85 164.16Z" /><path class="shp1" d="M47.8 163.83C47.8 163.92 47.82 164.02 47.82 164.13L47.8 164.13C46.02 163.52 45.15 164.81 41.57 165.51C40.73 165.67 39.13 165.74 35.9 165.91C32.88 166.07 31.82 166.03 31.1 166.36C31.08 166.27 31.05 166.2 31.03 166.1C31.64 165.8 32.48 165.77 34.31 165.7C34.78 165.68 35.29 165.65 35.9 165.63C39.09 165.47 40.7 165.37 41.52 165.23C43.02 164.93 44.03 164.53 44.85 164.22C45.95 163.8 46.72 163.5 47.8 163.83Z" /><path class="shp7" d="M46.94 130.91L46.92 130.98L46.33 130.86C46.17 131.59 45.46 134.05 43.17 135.36C42.14 135.95 41.09 136.11 40.41 136.13C38.79 136.22 37.55 135.68 36.97 135.36C35.47 134.49 34.7 133.23 34.39 132.55L34.06 132.71C34.6 132.15 34.9 131.49 35.18 130.91C35.48 130.32 35.72 129.83 36.14 129.53C36.47 129.72 36.89 129.86 37.4 130C39.18 130.45 42.48 130.63 44.01 129.53C44.08 129.55 44.15 129.6 44.24 129.65C44.52 129.81 44.87 130 45.46 130.24C45.9 130.59 46.44 130.8 46.94 130.91Z" /><path class="shp1" d="M46.33 130.87L46.92 130.99C46.73 131.79 45.96 134.46 43.45 135.86C42.33 136.52 41.18 136.68 40.43 136.73C40.31 136.75 40.17 136.75 40.06 136.75C38.47 136.75 37.27 136.21 36.66 135.86C35.07 134.97 34.25 133.63 33.9 132.88C33.97 132.83 34.02 132.79 34.06 132.72L34.39 132.56C34.69 133.24 35.47 134.5 36.97 135.37C37.56 135.7 38.8 136.24 40.41 136.14C41.09 136.12 42.14 135.95 43.17 135.37C45.46 134.05 46.16 131.59 46.33 130.87Z" /><path class="shp1" d="M45.18 147.83L45.77 147.9C45.72 148.25 45.51 149.47 44.46 150.17C43.97 150.52 43.38 150.69 42.77 150.69C41.95 150.69 41.08 150.36 40.38 149.75L40.75 149.3C41.78 150.19 43.16 150.35 44.12 149.7C44.97 149.12 45.16 148.13 45.18 147.83Z" /><path class="shp1" d="M44.36 126.93C44.71 127.61 44.95 128.08 44.69 128.71C44.64 128.85 44.57 128.97 44.46 129.08C44.27 128.94 44.25 128.87 44.16 128.87C43.97 128.85 43.88 129.06 43.64 129.24C43.59 129.29 43.55 129.31 43.52 129.33C43.43 129.31 43.38 129.28 43.31 129.28C43.71 129.07 44.01 128.81 44.15 128.48C44.31 128.11 44.17 127.82 43.85 127.19C43.55 126.6 43.15 125.81 42.82 124.57C42.75 124.27 42.68 123.98 42.61 123.73C42.33 122.84 42.12 122.11 42.59 121.65C42.82 121.39 43.11 121.35 43.34 121.32C43.53 121.3 43.62 121.27 43.69 121.2C43.88 120.97 43.64 120.45 43.41 119.89C43.27 119.61 43.15 119.28 43.04 118.95C42.62 117.59 42.97 116.58 43.3 115.69C43.58 114.94 43.84 114.24 43.6 113.35C43.27 112.13 42.15 111.01 40.81 110.52C40.86 110.5 40.88 110.47 40.93 110.43C40.34 109.96 39.27 109.26 37.79 108.91C37.6 108.86 36.95 108.7 36.13 108.7C33.81 108.7 31.91 109.8 31.12 110.27C28.89 111.53 27.65 113.32 25.08 117.2C23.91 118.96 22.57 120.92 21.14 123.9C18.35 129.64 16.31 133.79 18.05 136.5C18.28 136.9 18.61 137.23 18.99 137.53C18.85 137.69 18.73 137.83 18.62 138C18.2 137.65 17.85 137.25 17.57 136.81C15.67 133.83 17.73 129.55 20.62 123.64C22.1 120.64 23.43 118.63 24.6 116.87C27.06 113.19 28.39 111.15 30.85 109.75C31.88 109.14 34.67 107.55 37.92 108.32C39.07 108.6 40.15 109.12 41.11 109.89C41.48 110.24 41.86 110.59 42.21 110.92C43.78 111.81 44.11 112.84 44.18 113.19C44.41 114.24 44.02 115.56 43.88 115.91C43.55 116.78 43.25 117.6 43.62 118.79C43.71 119.07 43.85 119.38 43.97 119.66C44.27 120.39 44.58 121.07 44.18 121.56C43.97 121.84 43.66 121.86 43.45 121.91C43.24 121.93 43.12 121.96 43.03 122.05C42.8 122.28 42.98 122.89 43.19 123.57C43.26 123.85 43.35 124.13 43.42 124.44C43.68 125.64 44.08 126.39 44.36 126.93Z" /><path fill-rule="evenodd" class="shp7" d="M43.84 127.21C44.17 127.84 44.31 128.12 44.14 128.5C44 128.83 43.69 129.09 43.3 129.3C43.23 129.32 43.16 129.35 43.07 129.37C41.66 129.91 39.28 129.84 37.59 129.42C37.57 129.42 37.57 129.42 37.54 129.42C37.51 129.42 37.52 129.42 37.49 129.4C37.35 129.35 37.23 129.31 37.09 129.31C37.07 129.31 37.07 129.29 37.04 129.29C36.1 129.01 35.61 128.63 35.45 128.45C35.19 128.24 34.75 127.54 33.88 126.22L33.69 125.94C33.29 125.31 33.06 124.96 32.61 124.53L32.42 124.34C32.28 124.22 32.19 124.11 32.07 123.97C31.79 123.57 31.65 123.08 31.65 122.47L31.3 122.47C31.91 120.99 31.98 120.71 32.1 120.2C32.33 119.26 32.47 118.51 32.62 117.83C32.88 116.47 33.07 115.53 33.6 114.55C34.02 114.43 34.47 114.32 34.91 114.15C37.56 113.24 39.48 111.78 40.79 110.54C42.13 111.03 43.25 112.16 43.58 113.37C43.81 114.26 43.56 114.96 43.28 115.71C42.95 116.6 42.6 117.61 43.02 118.97C43.14 119.3 43.25 119.63 43.39 119.91C43.62 120.47 43.86 120.99 43.67 121.22C43.6 121.29 43.51 121.31 43.32 121.34C43.09 121.36 42.8 121.41 42.57 121.67C42.1 122.14 42.31 122.86 42.59 123.75C42.66 124.01 42.73 124.29 42.8 124.59C43.14 125.83 43.54 126.63 43.84 127.21ZM42.98 126.35L42.72 125.81C42.72 125.97 41.62 126.21 41.5 126.23C40.98 126.32 40.49 126.42 39.98 126.42C38.97 126.4 38.06 125.95 37.64 125.01C37.94 125.69 38.13 126.32 38.88 126.65C39.54 126.93 40.29 127.05 41.01 126.98C41.17 126.96 42.98 126.49 42.98 126.35ZM42.18 117.4C42.18 117.07 41.76 116.79 41.24 116.79C40.7 116.79 40.28 117.07 40.28 117.4C40.28 117.75 40.7 118.03 41.24 118.03C41.76 118.03 42.18 117.75 42.18 117.4ZM33.65 123.79L33.67 123.2C33.34 123.2 33.11 123.13 32.9 122.97C32.36 122.52 32.53 121.45 32.62 120.81C32.71 120.39 32.81 119.99 32.92 119.71C32.94 119.9 32.97 120.16 32.99 120.51L33.55 120.49C33.53 119.27 33.36 118.85 33.03 118.83C32.37 118.71 32.09 120.4 32.05 120.75C31.93 121.43 31.7 122.74 32.5 123.42C32.83 123.68 33.21 123.82 33.65 123.79Z" /><path class="shp1" d="M44.15 128.88C44.24 128.88 44.27 128.95 44.45 129.09C44.36 129.28 44.19 129.42 44 129.54C43.86 129.47 43.77 129.42 43.63 129.38C43.58 129.36 43.54 129.36 43.51 129.36C43.53 129.34 43.58 129.31 43.63 129.27C43.87 129.06 43.96 128.85 44.15 128.88Z" /><path class="shp1" d="M43.63 129.37C43.77 129.42 43.86 129.46 44 129.53C42.48 130.63 39.17 130.44 37.39 130C36.87 129.86 36.45 129.72 36.13 129.53C36.25 129.46 36.36 129.39 36.5 129.34C36.52 129.36 36.57 129.36 36.62 129.39C37.07 129.53 37.02 129.58 37.35 129.67C37.7 129.76 37.82 129.72 38.22 129.81C38.27 129.83 38.38 129.88 38.55 129.88C38.57 129.88 38.6 129.88 38.62 129.88L38.64 129.88C38.99 130.02 39.44 130.11 40.05 130.09C40.26 130.07 40.47 130.04 40.66 130.02C40.75 130 40.82 129.97 40.87 129.95C40.92 129.93 40.96 129.9 41.03 129.9C41.05 129.9 41.05 129.9 41.08 129.88C41.13 129.88 41.17 129.86 41.2 129.86C41.39 129.86 41.53 129.88 41.79 129.88C42.16 129.9 42.4 129.9 42.61 129.79C42.75 129.72 42.82 129.63 42.89 129.56C43.08 129.54 43.24 129.49 43.45 129.37C43.47 129.37 43.5 129.35 43.52 129.35C43.54 129.35 43.59 129.34 43.63 129.37Z" /><path class="shp1" d="M43.52 129.34C43.5 129.34 43.47 129.36 43.45 129.36C43.24 129.48 43.08 129.52 42.89 129.55C42.96 129.48 43.01 129.41 43.08 129.36C43.17 129.34 43.24 129.31 43.31 129.29C43.37 129.3 43.42 129.32 43.52 129.34Z" /><path class="shp1" d="M42.72 125.81L42.98 126.35C42.98 126.49 41.18 126.96 41.01 126.98C40.28 127.05 39.53 126.93 38.88 126.65C38.13 126.32 37.94 125.69 37.64 125.01C38.06 125.95 38.98 126.39 39.98 126.42C40.5 126.42 40.99 126.33 41.5 126.23C41.62 126.21 42.72 125.97 42.72 125.81Z" /><path class="shp1" d="M43.07 129.37C43 129.42 42.95 129.49 42.88 129.56C42.79 129.58 42.69 129.58 42.6 129.61C41.94 129.73 41.83 129.87 41.69 129.84C41.64 129.84 41.64 129.82 41.6 129.82C41.44 129.77 41.2 129.87 41.2 129.87C41.18 129.87 41.13 129.89 41.08 129.89L41.06 129.89L41.04 129.91C40.97 129.91 40.92 129.93 40.88 129.96C40.79 129.98 40.69 129.98 40.62 129.98C40.27 130 40.2 130.03 40.15 130C40.15 130 40.15 130 40.13 130C40.04 129.93 39.92 129.91 39.87 129.88L39.85 129.88C39.55 129.83 39.33 129.86 38.87 129.9C38.85 129.9 38.78 129.9 38.66 129.88L38.64 129.88C38.38 129.79 38.17 129.69 37.96 129.6C37.84 129.53 37.73 129.48 37.61 129.41C39.28 129.84 41.66 129.91 43.07 129.37Z" /><path class="shp1" d="M42.6 129.6C42.69 129.58 42.79 129.58 42.88 129.55C42.81 129.62 42.74 129.71 42.6 129.78C42.39 129.9 42.15 129.9 41.78 129.87C41.52 129.87 41.38 129.85 41.19 129.85C41.19 129.85 41.42 129.76 41.59 129.8C41.64 129.8 41.64 129.82 41.68 129.82C41.83 129.86 41.95 129.72 42.6 129.6Z" /><path class="shp1" d="M41.24 116.79C41.76 116.79 42.18 117.07 42.18 117.4C42.18 117.75 41.76 118.03 41.24 118.03C40.7 118.03 40.28 117.75 40.28 117.4C40.28 117.07 40.7 116.79 41.24 116.79Z" /><path class="shp1" d="M41.08 129.88C41.06 129.9 41.06 129.9 41.03 129.9L41.05 129.88L41.08 129.88Z" /><path class="shp1" d="M40.92 110.44C40.87 110.49 40.85 110.51 40.8 110.53C40.54 110.41 40.26 110.34 39.98 110.3C37.22 109.85 34.97 112.53 34.12 113.7C33.91 113.98 33.75 114.26 33.6 114.54C33.34 114.61 33.08 114.68 32.85 114.73C32.43 115.62 32.26 116.49 32.03 117.71C31.91 118.39 31.75 119.14 31.54 120.05C31.33 120.99 31.24 121.17 27.21 130.66L26.25 132.96C25.59 133.03 24.87 133.22 24.12 133.55C22.62 134.21 21.17 135.24 19.81 136.62C19.51 136.92 19.22 137.25 18.97 137.56C18.6 137.26 18.27 136.93 18.03 136.53C16.3 133.81 18.33 129.67 21.12 123.93C22.55 120.95 23.88 118.99 25.06 117.23C27.64 113.34 28.88 111.56 31.1 110.3C31.9 109.83 33.79 108.73 36.11 108.73C36.93 108.73 37.59 108.89 37.77 108.94C39.25 109.27 40.33 109.97 40.92 110.44Z" /><path class="shp1" d="M40.61 129.98C40.68 129.98 40.77 129.98 40.87 129.96C40.82 129.98 40.75 130.01 40.66 130.03C40.47 130.05 40.26 130.08 40.05 130.1C39.44 130.12 39 130.03 38.64 129.89C38.76 129.91 38.83 129.91 38.85 129.91C39.32 129.86 39.53 129.84 39.83 129.89L39.85 129.89C39.9 129.91 40.01 129.94 40.11 130.01C40.13 130.01 40.13 130.01 40.13 130.01C40.19 130.02 40.26 130 40.61 129.98Z" /><path class="shp1" d="M39.98 110.3C40.26 110.35 40.54 110.42 40.8 110.53C39.49 111.77 37.57 113.22 34.92 114.14C34.47 114.3 34.03 114.42 33.61 114.54C33.75 114.26 33.91 113.98 34.13 113.7C34.97 112.53 37.21 109.85 39.98 110.3Z" /><path class="shp1" d="M38.62 129.88C38.6 129.88 38.57 129.88 38.55 129.88C38.39 129.88 38.27 129.83 38.22 129.81C37.82 129.72 37.7 129.76 37.35 129.67C37.02 129.58 37.07 129.53 36.62 129.39C36.57 129.37 36.53 129.37 36.5 129.34C36.57 129.32 36.64 129.32 36.71 129.29C36.83 129.27 36.92 129.27 37.04 129.27C37.06 129.27 37.06 129.29 37.09 129.29C37.21 129.31 37.35 129.36 37.49 129.38C37.51 129.4 37.51 129.4 37.54 129.4C37.57 129.4 37.56 129.4 37.59 129.4C37.71 129.47 37.82 129.52 37.94 129.59C38.15 129.7 38.36 129.79 38.62 129.88Z" /><path class="shp1" d="M37.73 149.47L38.25 149.75C38.04 150.12 37.24 151.46 35.7 151.81C35.42 151.88 35.16 151.9 34.88 151.9C33.38 151.9 31.88 150.96 31.06 149.44L31.58 149.16C32.42 150.73 34.06 151.6 35.56 151.24C36.86 150.94 37.54 149.8 37.73 149.47Z" /><path class="shp1" d="M37.05 129.27C36.93 129.27 36.84 129.27 36.72 129.29C36.65 129.31 36.58 129.31 36.51 129.34C36.21 129.22 36.04 129.18 35.9 129.18C35.78 129.2 35.69 129.23 35.62 129.3C35.36 129.14 35.17 129 35.06 128.88C34.76 128.62 34.33 127.97 33.42 126.54L33.21 126.24C32.81 125.63 32.6 125.33 32.23 124.95L32.04 124.76C31.9 124.62 31.76 124.5 31.62 124.29C31.34 123.92 31.17 123.47 31.1 122.95C30.51 124.4 29.51 126.79 27.75 130.89L26.91 132.9C26.7 132.9 26.49 132.92 26.25 132.95L27.21 130.65C31.24 121.16 31.33 120.98 31.54 120.04C31.75 119.13 31.91 118.38 32.03 117.7C32.26 116.48 32.43 115.62 32.85 114.72C33.08 114.67 33.34 114.6 33.6 114.53C33.06 115.51 32.87 116.45 32.62 117.81C32.48 118.49 32.34 119.24 32.1 120.18C31.98 120.7 31.91 120.98 31.3 122.45L31.65 122.45C31.65 123.06 31.79 123.55 32.07 123.95C32.19 124.09 32.28 124.21 32.42 124.32L32.61 124.51C33.06 124.93 33.29 125.28 33.69 125.92L33.88 126.2C34.75 127.51 35.19 128.21 35.45 128.43C35.62 128.62 36.11 128.99 37.05 129.27Z" /><path class="shp1" d="M36.51 129.34C36.37 129.39 36.25 129.46 36.14 129.53C35.93 129.46 35.77 129.37 35.62 129.3C35.69 129.23 35.78 129.21 35.9 129.18C36.04 129.18 36.21 129.23 36.51 129.34Z" /><path class="shp1" d="M36.04 201.05C35.99 201.14 35.92 201.26 35.83 201.35C35.57 201.37 35.31 201.4 35.06 201.4C35.13 201.31 35.2 201.21 35.29 201.12C35.55 201.1 35.81 201.07 36.04 201.05Z" /><path class="shp1" d="M35.83 201.36C35.83 201.38 35.81 201.41 35.78 201.43C35.71 201.52 35.66 201.59 35.59 201.66C35.33 201.68 35.07 201.71 34.82 201.71C34.89 201.62 34.96 201.52 35.05 201.41C35.32 201.4 35.57 201.38 35.83 201.36Z" /><path class="shp1" d="M35.62 129.3C35.76 129.37 35.92 129.46 36.14 129.53C35.72 129.83 35.48 130.33 35.18 130.91C34.9 131.5 34.59 132.15 34.06 132.71L33.85 132.8C33.85 132.82 33.87 132.85 33.9 132.87C33.74 133.03 33.55 133.2 33.34 133.34C32.03 134.25 30.72 134.02 29.36 133.76C28.54 133.62 27.65 133.46 26.67 133.5C26.69 133.48 26.69 133.43 26.72 133.41L26.93 132.89C27.84 132.87 28.69 133.03 29.46 133.17C30.82 133.43 31.9 133.64 33.02 132.87C33.47 132.57 33.86 131.93 34.68 130.67C35.04 130.09 35.27 129.53 35.62 129.3Z" /><path class="shp1" d="M34.82 201.71C35.08 201.71 35.34 201.69 35.59 201.66C34.86 202.57 34.37 203.07 33.83 203.58C33.2 204.21 32.47 204.92 31.18 206.6C30.71 207.19 29.84 208.43 28.11 210.89L28.06 210.98C25.81 214.17 25.44 214.92 25.16 215.52C24.86 216.11 24.79 216.34 24.64 216.71C24.48 217.16 24.24 217.79 23.59 219.31C23.43 219.68 23.29 220.01 23.17 220.29C22.61 221.55 22.49 221.86 22.61 222.07C22.77 222.35 23.22 222.35 24.02 222.35C24.98 222.33 26.27 222.3 27.67 223.03C28.02 223.22 29.85 224.18 29.66 225.09C29.54 225.72 28.63 226.33 23.69 226.33C22.07 226.33 20.04 226.26 17.46 226.12L17.18 226.1L17.18 225.82C17.25 220.46 18.26 215.49 20.18 211.06C21.4 208.32 22.78 206.19 24 204.29C24.7 203.21 25.38 202.16 25.97 201.08C26.16 201.15 26.37 201.2 26.58 201.24C25.95 202.36 25.24 203.47 24.5 204.61C23.24 206.55 21.92 208.59 20.73 211.29C18.86 215.55 17.87 220.36 17.78 225.53C28.09 226.12 29.07 225.25 29.12 224.97C29.17 224.71 28.35 224.01 27.41 223.54C26.15 222.88 25 222.91 24.04 222.93C23.22 222.93 22.47 222.93 22.12 222.34C21.86 221.87 22.03 221.5 22.66 220.04C22.78 219.76 22.92 219.43 23.08 219.06C23.74 217.56 23.95 216.95 24.11 216.51C24.27 216.09 24.34 215.85 24.65 215.25C25.05 214.45 25.52 213.61 27.6 210.61L27.67 210.54C29.4 208.06 30.27 206.82 30.74 206.21C32.05 204.52 32.8 203.8 33.46 203.14C33.86 202.74 34.29 202.34 34.82 201.71Z" /><path class="shp1" d="M35.29 201.12C35.2 201.21 35.13 201.31 35.06 201.4C32.3 201.54 29.3 201.54 26.7 201C26.75 200.91 26.79 200.84 26.84 200.74C29.46 201.29 32.51 201.26 35.29 201.12Z" /><path class="shp1" d="M35.06 201.4C34.97 201.52 34.9 201.61 34.83 201.7C33.99 201.75 33.14 201.77 32.28 201.77C30.34 201.77 28.37 201.63 26.59 201.25C26.61 201.16 26.66 201.09 26.71 200.99C29.3 201.54 32.29 201.54 35.06 201.4Z" /><path class="shp7" d="M32.27 201.78C33.14 201.78 33.98 201.76 34.82 201.71C34.28 202.34 33.86 202.74 33.44 203.16C32.78 203.82 32.03 204.54 30.72 206.23C30.25 206.84 29.38 208.08 27.65 210.56L27.58 210.63C25.5 213.63 25.03 214.47 24.63 215.27C24.33 215.88 24.26 216.11 24.09 216.53C23.93 216.98 23.72 217.58 23.06 219.08C22.9 219.45 22.76 219.78 22.64 220.06C22.01 221.51 21.84 221.89 22.1 222.36C22.45 222.95 23.2 222.95 24.02 222.95C24.98 222.93 26.13 222.9 27.39 223.56C28.33 224.03 29.15 224.73 29.1 224.99C29.05 225.27 28.07 226.14 17.76 225.55C17.85 220.37 18.84 215.57 20.71 211.31C21.9 208.62 23.22 206.58 24.48 204.63C25.23 203.48 25.93 202.38 26.56 201.26C28.36 201.64 30.33 201.78 32.27 201.78Z" /><path class="shp1" d="M33.84 132.81L34.05 132.72C34 132.79 33.96 132.84 33.89 132.88C33.86 132.86 33.84 132.84 33.84 132.81Z" /><path class="shp1" d="M33.68 123.21L33.66 123.8C33.21 123.82 32.84 123.68 32.51 123.43C31.71 122.75 31.95 121.44 32.06 120.76C32.11 120.41 32.39 118.72 33.04 118.84C33.37 118.86 33.53 119.29 33.56 120.5L33 120.51C32.98 120.16 32.95 119.9 32.93 119.71C32.81 119.99 32.72 120.39 32.63 120.81C32.54 121.44 32.37 122.52 32.91 122.97C33.11 123.14 33.35 123.21 33.68 123.21Z" /><path class="shp8" d="M31.19 166.64C32.78 171.7 33.53 174.32 33.18 176.13C32.85 177.89 32.08 179.48 31.26 181.19C30.39 183.02 29.5 184.91 29.08 187.09C28.75 188.92 28.78 189.88 28.85 191C28.87 191.82 28.92 192.66 28.8 193.95C28.54 196.71 27.82 198.82 26.83 200.74C26.62 200.69 26.43 200.67 26.24 200.6C27.22 198.7 27.97 196.62 28.21 193.9C28.33 192.64 28.28 191.82 28.26 191.02C28.19 189.92 28.14 188.86 28.52 186.99C28.94 184.72 29.86 182.8 30.75 180.92C31.55 179.26 32.3 177.69 32.62 176C32.92 174.36 32.2 171.81 30.7 166.98C30.72 166.93 30.77 166.89 30.82 166.86C30.94 166.78 31.05 166.71 31.19 166.64Z" /><path class="shp8" d="M30.7 166.99C32.2 171.82 32.93 174.37 32.62 176.01C32.29 177.7 31.54 179.27 30.75 180.93C29.86 182.8 28.95 184.72 28.52 187C28.15 188.87 28.19 189.93 28.26 191.03C28.28 191.83 28.33 192.65 28.21 193.91C27.98 196.63 27.23 198.71 26.24 200.61C23.9 200.07 21.93 199.04 20.85 197.24C19.73 195.39 19.89 193.28 19.96 192.51C20.12 190.45 20.94 189.44 22.14 187.92C22.94 186.94 23.92 185.69 24.95 183.84C26.12 181.76 28.58 177.42 29.31 171.66C29.36 171.33 29.38 171.03 29.43 170.72C29.6 169.1 29.74 167.81 30.7 166.99Z" /><path class="shp1" d="M31.1 166.36C31.12 166.45 31.17 166.55 31.19 166.64C31.05 166.71 30.93 166.78 30.82 166.87C30.77 166.89 30.73 166.94 30.7 166.99C30.68 166.87 30.63 166.78 30.58 166.66C30.58 166.66 30.6 166.66 30.63 166.64C30.8 166.52 30.94 166.43 31.1 166.36Z" /><path class="shp1" d="M31.03 166.1C31.05 166.19 31.08 166.26 31.1 166.36C30.94 166.43 30.8 166.52 30.63 166.64C30.61 166.66 30.58 166.66 30.58 166.66C30.58 166.57 30.53 166.5 30.51 166.4C30.68 166.26 30.84 166.15 31.03 166.1Z" /><path class="shp1" d="M30.94 165.82C30.96 165.91 31.01 166.01 31.03 166.1C30.84 166.15 30.68 166.26 30.51 166.4C30.49 166.26 30.44 166.14 30.39 166C29.64 163.66 29.03 162.13 28.56 160.92C27.79 158.98 27.37 157.92 27.34 155.77C27.32 154.97 27.36 154.29 27.41 153.61C27.5 152.44 27.6 151.2 27.34 149.25C27.08 147.26 26.73 144.54 25.4 144.12C24.6 143.86 23.46 144.47 22.17 145.81C21.12 146.91 20.86 147.89 20.53 149.11C20.25 150.14 19.94 151.29 19.1 152.83C18.54 153.86 18.19 154.26 17.72 154.75C17.25 155.29 16.67 155.94 15.59 157.61C13.88 160.26 13.04 161.57 12.92 163.19C12.85 164.1 12.97 164.88 13.08 165.53C13.24 166.47 13.36 167.26 12.75 167.87C12.12 168.48 10.92 168.57 10.15 168.1C8.81 167.28 9.05 165.01 9.19 163.67C9.4 161.44 9.99 160.09 10.74 158.35C10.95 157.86 11.16 157.34 11.4 156.76C12.29 154.51 12.66 152.97 13.09 151.3C13.51 149.52 14 147.48 15.22 144.32C15.48 143.57 15.9 142.59 16.53 141.37C17.02 140.43 17.63 139.24 18.59 138C18.75 138.12 18.92 138.23 19.08 138.35C18.14 139.54 17.51 140.72 17.04 141.63C16.64 142.38 16.36 143.04 16.13 143.6L15.85 143.83C15.9 143.88 15.94 143.92 15.99 143.97C15.9 144.16 15.83 144.37 15.76 144.53C14.57 147.67 14.1 149.59 13.65 151.44C13.23 153.1 12.85 154.7 11.94 156.97C11.71 157.56 11.49 158.09 11.28 158.59C10.55 160.28 9.99 161.61 9.78 163.72C9.66 164.87 9.45 166.98 10.46 167.59C11.02 167.94 11.91 167.87 12.36 167.45C12.73 167.08 12.66 166.58 12.5 165.65C12.41 164.97 12.27 164.13 12.34 163.14C12.48 161.38 13.35 160 15.1 157.31C16.2 155.58 16.81 154.92 17.3 154.38C17.75 153.89 18.07 153.54 18.59 152.55C19.41 151.07 19.69 149.95 19.97 148.94C20.11 148.38 20.25 147.84 20.49 147.32C20.54 147.34 20.56 147.37 20.61 147.39L20.94 146.9C20.87 146.85 20.82 146.83 20.75 146.78C20.96 146.33 21.29 145.87 21.76 145.37C23.61 143.45 24.88 143.31 25.58 143.54C27.27 144.08 27.64 146.89 27.92 149.16C27.94 149.39 27.99 149.61 28.01 149.82C28.17 151.46 28.1 152.56 28.01 153.64C27.96 154.32 27.92 154.95 27.94 155.72C27.96 157.78 28.36 158.81 29.11 160.69C29.6 161.93 30.21 163.45 30.94 165.82Z" /><path class="shp1" d="M30.58 166.66C30.63 166.78 30.67 166.87 30.7 166.99C29.74 167.81 29.6 169.1 29.44 170.71C29.39 171.01 29.37 171.32 29.32 171.65C28.59 177.41 26.13 181.75 24.96 183.83C23.93 185.68 22.95 186.92 22.15 187.91C20.96 189.43 20.14 190.44 19.97 192.5C19.9 193.27 19.74 195.38 20.86 197.23C21.94 199.03 23.91 200.06 26.25 200.6C26.2 200.67 26.16 200.76 26.11 200.86C23.72 200.3 21.73 199.24 20.6 197.39C19.43 195.45 19.62 193.27 19.69 192.45C19.97 188.94 22.1 188.3 24.7 183.69C25.85 181.68 28.28 177.32 29.03 171.63C29.3 169.52 29.27 167.74 30.58 166.66Z" /><path class="shp1" d="M30.51 166.4C30.53 166.49 30.58 166.56 30.58 166.66C29.27 167.74 29.29 169.52 29.03 171.63C28.28 177.32 25.84 181.68 24.7 183.69C22.1 188.3 19.97 188.94 19.69 192.45C19.62 193.27 19.43 195.45 20.6 197.39C21.72 199.24 23.72 200.29 26.11 200.86C26.06 200.93 26.02 201 25.97 201.09C23.56 200.53 21.5 199.43 20.35 197.53C19.13 195.52 19.32 193.27 19.39 192.42C19.58 190.22 20.47 189.09 21.71 187.55C22.48 186.57 23.44 185.35 24.45 183.54C25.62 181.48 28.01 177.22 28.74 171.57C28.79 171.24 28.81 170.94 28.86 170.63C29.05 168.87 29.21 167.37 30.48 166.41C30.49 166.4 30.49 166.4 30.51 166.4Z" /><path class="shp1" d="M26.91 132.91L26.7 133.43C26.68 133.45 26.68 133.5 26.65 133.52C26.44 133.52 26.2 133.54 25.97 133.59C26.02 133.47 26.09 133.36 26.13 133.22L26.25 132.96C26.48 132.93 26.7 132.91 26.91 132.91Z" /><path class="shp1" d="M26.84 200.75C26.79 200.84 26.75 200.91 26.7 201.01C26.49 200.96 26.3 200.94 26.11 200.87C26.16 200.78 26.2 200.68 26.25 200.61C26.44 200.68 26.63 200.7 26.84 200.75Z" /><path class="shp1" d="M26.7 201C26.65 201.09 26.61 201.16 26.58 201.26C26.37 201.21 26.16 201.17 25.97 201.1C26.02 201.01 26.06 200.94 26.11 200.87C26.3 200.93 26.48 200.96 26.7 201Z" /><path class="shp1" d="M25.97 133.58C26.2 133.53 26.44 133.51 26.65 133.51C25.06 137.28 24.42 138.69 22.83 139.13C22.53 139.22 22.22 139.27 21.89 139.27C20.95 139.27 19.95 138.94 19.08 138.36C19.17 138.2 19.31 138.06 19.45 137.89C20.46 138.55 21.68 138.85 22.66 138.57C23.95 138.22 24.54 136.93 25.97 133.58Z" /><path class="shp1" d="M26.25 132.95L26.13 133.21C26.08 133.35 26.01 133.47 25.97 133.58C25.45 133.65 24.92 133.81 24.35 134.07C22.92 134.7 21.54 135.69 20.23 137.02C19.95 137.3 19.69 137.61 19.46 137.89C19.27 137.8 19.11 137.68 18.97 137.54C19.23 137.24 19.51 136.91 19.81 136.6C21.17 135.22 22.62 134.19 24.12 133.53C24.87 133.21 25.59 133.02 26.25 132.95Z" /><path class="shp1" d="M24.35 134.08C24.91 133.82 25.45 133.66 25.97 133.59C24.54 136.94 23.96 138.23 22.67 138.58C21.69 138.86 20.47 138.56 19.46 137.9C19.69 137.62 19.95 137.31 20.23 137.03C21.54 135.69 22.92 134.71 24.35 134.08Z" /><path class="shp1" d="M20.93 146.91L20.6 147.4C20.55 147.38 20.53 147.35 20.48 147.33C20.55 147.14 20.62 146.98 20.74 146.79C20.82 146.84 20.86 146.87 20.93 146.91Z" /><path class="shp1" d="M20.75 146.8C20.63 146.99 20.56 147.15 20.49 147.34C20.16 147.11 19.81 146.92 19.48 146.75C19.15 146.59 18.99 146.52 18.85 146.47C18.71 146.42 18.57 146.38 18.36 146.24C17.84 145.96 17.45 145.54 16.77 144.81C16.56 144.6 16.3 144.34 16 143.99C16.02 143.87 16.09 143.76 16.14 143.62L16.3 143.48C16.65 143.85 16.96 144.18 17.17 144.42C17.9 145.17 18.25 145.52 18.67 145.76C18.83 145.85 18.95 145.9 19.07 145.95C19.21 146 19.4 146.07 19.75 146.25C20.07 146.4 20.42 146.59 20.75 146.8Z" /><path class="shp7" d="M20.49 147.34C20.26 147.86 20.12 148.39 19.97 148.96C19.69 149.97 19.41 151.09 18.59 152.57C18.07 153.55 17.75 153.91 17.3 154.4C16.81 154.94 16.2 155.59 15.1 157.33C13.34 160.02 12.48 161.41 12.34 163.16C12.27 164.14 12.41 164.99 12.5 165.67C12.66 166.61 12.73 167.1 12.36 167.47C11.91 167.89 11.02 167.96 10.46 167.61C9.45 167 9.66 164.89 9.78 163.74C9.99 161.63 10.55 160.3 11.28 158.61C11.49 158.12 11.7 157.58 11.94 156.99C12.85 154.72 13.23 153.12 13.65 151.46C14.1 149.61 14.56 147.69 15.76 144.55C15.83 144.39 15.9 144.18 15.99 143.99C16.29 144.34 16.55 144.6 16.76 144.81C17.44 145.54 17.84 145.96 18.35 146.24C18.56 146.38 18.7 146.43 18.84 146.47C18.98 146.52 19.14 146.59 19.47 146.75C19.81 146.91 20.16 147.1 20.49 147.34Z" /><path class="shp1" d="M18.97 137.54C19.11 137.68 19.27 137.8 19.46 137.89C19.32 138.05 19.18 138.19 19.09 138.36C18.93 138.24 18.76 138.13 18.6 138.01C18.71 137.85 18.82 137.71 18.97 137.54Z" /><path class="shp1" d="M15.85 143.85L16.13 143.62C16.08 143.76 16.01 143.88 15.99 143.99C15.94 143.94 15.9 143.89 15.85 143.85Z" /></g><g ><path class="shp10" d="M38.34 115.92C38.9 115.59 39.89 115.15 41.13 115.12C41.53 115.12 41.88 115.14 42.18 115.19" /></g></g></g><g ><g ><path fill-rule="evenodd" class="shp11" d="M125.39 125.97L125.18 126.3C123.4 129.53 119 130.7 115.46 131.64L114.55 131.87C110.73 132.9 106.98 134.68 103.33 136.39C102.49 136.79 101.64 137.19 100.82 137.56L98.43 138.66C89.25 142.9 79.74 147.28 69.97 150.26C59.76 153.35 48.68 155.13 35.07 155.88C34.77 155.9 34.23 155.95 33.52 156C27.57 156.4 20.52 156.8 14.83 156.8C9.63 156.8 5.55 156.45 4.55 155.49C4.29 155.23 4.25 154.97 4.25 154.81C4.27 154.34 4.79 153.97 5.44 153.55C6.63 152.8 7.95 152.61 9.05 152.61C10.06 152.61 10.88 152.77 11.3 152.84C13.67 153.29 19.76 153.1 31.84 152.7C34.84 152.58 37.93 152.21 44.09 151.44L44.18 151.42L48.94 150.83C59.08 149.57 64.68 148.86 69.98 147.39C72.96 146.57 77.92 144.39 87.81 140.01L88 139.94C88.16 139.87 104.98 132.47 120 127.13C120.28 127.04 120.59 126.92 120.91 126.78C122.27 126.24 123.84 125.66 125.01 125.89L125.39 125.97ZM124.43 126.42C124.43 126.42 124.43 126.42 124.41 126.42C123.45 126.42 122.16 126.91 121.11 127.33C120.78 127.45 120.48 127.56 120.2 127.66C105.18 133.02 88.39 140.4 88.22 140.47L88.06 140.54C78.13 144.92 73.14 147.12 70.14 147.94C64.8 149.44 59.18 150.14 49.01 151.41L44.15 152C37.97 152.8 34.87 153.17 31.83 153.29C19.72 153.69 13.6 153.88 11.24 153.43C10.35 153.24 7.8 152.75 5.76 154.04L5.74 154.04C5.51 154.2 4.83 154.63 4.83 154.81C4.83 154.88 4.83 154.95 4.95 155.07C6.4 156.45 16.01 156.57 33.48 155.42C34.21 155.37 34.74 155.33 35.05 155.3C48.61 154.55 59.65 152.77 69.81 149.7C79.53 146.75 89.02 142.37 98.2 138.15L100.57 137.05C101.41 136.65 102.26 136.25 103.1 135.86C106.75 134.15 110.55 132.37 114.39 131.32L115.33 131.09C118.59 130.21 122.62 129.13 124.43 126.42Z" /><path class="shp11" d="M124.4 126.42C124.42 126.42 124.42 126.42 124.42 126.42C122.62 129.14 118.59 130.21 115.31 131.08L114.37 131.31C110.53 132.36 106.73 134.14 103.08 135.85C102.24 136.25 101.39 136.65 100.55 137.04L98.18 138.14C89 142.36 79.51 146.74 69.79 149.69C59.62 152.76 48.59 154.54 35.03 155.29C34.73 155.31 34.19 155.36 33.46 155.41C15.98 156.56 6.38 156.44 4.93 155.06C4.81 154.94 4.81 154.87 4.81 154.8C4.81 154.61 5.49 154.19 5.72 154.03L5.74 154.03C7.78 152.74 10.33 153.23 11.22 153.42C13.59 153.87 19.7 153.68 31.81 153.28C34.86 153.16 37.95 152.79 44.13 151.99L48.98 151.4C59.15 150.14 64.77 149.43 70.11 147.93C73.11 147.11 78.1 144.91 88.03 140.53L88.19 140.46C88.35 140.39 105.15 133.01 120.17 127.65C120.45 127.56 120.76 127.44 121.08 127.32C122.16 126.91 123.44 126.42 124.4 126.42Z" /></g></g></g></g></g></svg>