<svg xmlns="http://www.w3.org/2000/svg" viewBox="0 0 254 210" width="256" height="212"><style>tspan { white-space:pre }.shp0 { fill: #ffffff } .shp1 { fill: #000000;stroke: #000000;stroke-width: 0.75 } .shp2 { fill: #63300f;stroke: #000000;stroke-width: 0.75 } .shp3 { fill: #be894a;stroke: #000000;stroke-width: 0.75 } .shp4 { fill: #ffff00;stroke: #000000;stroke-width: 0.75 } .shp5 { fill: #000000 } .shp6 { fill: #26120b;stroke: #000000;stroke-width: 0.75 } .shp7 { fill: #26120b;stroke: #000000;stroke-width: 0.25 } .shp8 { fill: #be894a } .shp9 { fill: none;stroke: #000000;stroke-width: 0.75 } .shp10 { fill: #f0047f;stroke: #000000;stroke-width: 0.75 } </style><g ></g><g ><g ><path class="shp0" d="M0.9 123.7C0.84 122.75 0.87 121.81 0.99 120.91C1.75 115.39 4.92 110.55 7.93 105.86C14.4 95.81 20.55 85.56 26.37 75.12C28.41 71.45 30.44 67.73 33.27 64.63C35.12 62.6 37.35 60.82 39.9 59.75C42.2 58.78 45.81 58.92 46.85 56.11C48.31 52.16 42.15 49.31 39.42 41.25C35.63 30.08 41.88 19.13 42.6 17.89C47.04 10.37 53.6 7.04 57.46 5.15C59.49 4.16 79.04 -5.06 93.91 5.15C95.72 6.4 102.88 11.31 104.17 19.3C105.12 25.14 102.63 30.73 99.22 38.41C95.45 46.9 92.43 49.94 93.91 52.56C95.4 55.21 99.36 53.69 105.23 55.39C116.18 58.57 122.2 69.63 125.05 74.85C126.38 77.3 128.18 82.61 131.77 93.25C134.22 100.5 135.45 104.13 136.37 107.4C140.12 120.69 139.62 124.94 143.45 127.22C146.27 128.9 147.74 127.31 154.42 127.57C163.92 127.94 166.25 131.36 173.88 132.52C180.38 133.51 180.94 131.37 196.53 128.27C210.14 125.56 217.11 124.25 225.19 126.15C232.25 127.81 242.71 132.31 243.59 138.89C243.93 141.47 242.6 142.79 243.59 145.61C245.08 149.85 248.98 149.41 251.73 153.4C255.18 158.4 254.29 166.72 250.31 170.74C248.27 172.81 247.31 171.81 244.65 173.92C239.34 178.13 238.47 185.79 237.93 190.55C237.09 197.9 238.72 199.62 236.87 201.87C233.26 206.25 222.26 205.63 219.18 200.81C217.08 197.53 220.02 194.43 219.53 184.18C219.32 179.74 219.22 177.53 218.47 176.04C213.5 166.18 185.91 179.98 148.76 175.33C130.9 173.1 115.42 167.17 111.25 173.56C109.16 176.76 111.76 180.23 109.48 189.13C108.63 192.43 107.21 197.96 103.11 202.22C94.86 210.78 78.15 211.73 72.68 205.05C70.97 202.96 70.56 200.38 69.85 195.85C68.68 188.41 70.62 186.88 69.14 182.4C67.84 178.48 64.42 173.82 58.88 172.14C55.24 171.03 48.89 170.66 45.79 174.26C40.88 179.96 49.15 189.78 44.02 196.2C41.01 199.96 35.42 200.05 32.34 200.09C25.66 200.19 16.85 197.18 15.71 191.95C15.13 189.3 17.04 188.43 20.31 181.33C23.22 175.02 26.17 168.62 23.85 163.64C22.28 160.26 20.03 161.28 17.83 157.98C14.34 152.73 17.07 145.65 18.02 139.96C18.27 138.48 18.45 136.77 17.45 135.66C16.35 134.45 14.43 134.59 12.83 134.96C5.79 136.64 1.31 130.02 0.9 123.7Z" /><path class="shp1" d="M207.03 147.67C208.9 149.54 212.36 152.49 217.47 154.15C219.61 154.84 232.79 158.8 238.48 151.11C241.67 146.81 241.6 140.1 238.61 135.78C234.54 129.89 226.07 129.93 220.11 129.96C214.92 129.99 211 130.77 205.44 132.07C198.39 133.72 192.71 135.75 188.73 137.35" /><path class="shp2" d="M99.74 167.5C97.52 168.56 97.5 171.87 96.91 177.41C95.37 191.79 92.68 195.63 95.49 198.29C97.2 199.9 100.21 200.39 102.21 199.35C104.86 197.97 104.29 194.67 105.75 182.36C106.73 174.06 107.52 171.07 105.4 168.91C103.97 167.46 101.47 166.67 99.74 167.5Z" /><path class="shp2" d="M229.11 168.86C226.89 169.92 226.87 173.23 226.28 178.77C224.74 193.15 222.05 196.99 224.86 199.65C226.57 201.26 229.58 201.75 231.58 200.71C234.23 199.33 233.66 196.03 235.12 183.72C236.1 175.42 236.89 172.43 234.77 170.27C233.33 168.82 230.83 168.03 229.11 168.86Z" /><path class="shp3" d="M208.88 142.25C208.62 137.3 215.65 132.57 221.57 131.41C223.26 131.08 229 129.96 232.14 133.26C236.23 137.55 234.25 147.5 228.44 150.97C221.11 155.35 209.21 148.49 208.88 142.25Z" /><path class="shp4" d="M205.17 142.95C198.93 135.61 184.41 137.37 181.91 137.66C176.55 138.29 174.02 139.63 170.39 138C166.97 136.47 166.79 134.2 162.96 132.81C159.48 131.54 156.27 132.2 153.29 132.81C150.74 133.33 146.81 134.14 143.62 137.17C140.7 139.95 141.46 141.68 139.37 144.25C136.15 148.22 132.79 146.02 117.25 149.03C117.25 149.03 105.2 151.16 100.57 148.46C100.38 148.35 100.22 148.24 100.09 148.14C97.86 146.52 96.99 144.52 95.48 144.79C93.39 145.16 91.17 149.68 92.31 152.39C94.47 157.54 108 154.35 141.74 154.31C146.35 154.3 150.96 154.51 157.32 154.46C170.1 154.36 182.89 153.87 195.66 154.05C198.6 154.09 205.92 154.21 207.55 150.61C208.96 147.52 205.41 143.23 205.17 142.95Z" /><path class="shp5" d="M227.64 134.85C227.14 134.74 225.94 136.11 226.32 137.49C226.55 138.32 227.34 139.1 227.77 138.94C228.58 138.66 228.38 135.02 227.64 134.85Z" /><path class="shp5" d="M227.64 143.97C227.21 143.77 225.69 145.2 226.05 146.22C226.05 146.22 226.2 146.63 227.22 147.27C227.22 147.27 227.23 147.28 227.24 147.28C227.5 147.29 228.18 144.22 227.64 143.97Z" /><path class="shp3" d="M226.85 141.2C225.36 140.84 224.11 140.52 223.15 140.27C221.45 139.83 220.96 139.69 220.24 139.74C219.5 139.79 218.24 140.08 216.8 141.46" /><path class="shp3" d="M199.7 144.97C193.46 137.96 179.18 149.43 165.37 143.38C163.53 142.57 160.08 140.75 158.29 142.14C157.01 143.13 156.74 145.63 157.76 146.92C159.18 148.7 162.88 147.89 164.31 147.63C179.22 144.85 199.21 154.07 201.29 149.4C202.06 147.67 199.9 145.19 199.7 144.97Z" /><path class="shp3" d="M213.21 138.48C211.75 140.17 211.39 142.38 212.27 144.02C212.88 145.16 213.91 145.7 214.39 145.91" /><path class="shp6" d="M84.65 155.78L247.43 155.78L247.43 168.52L84.65 168.52L84.65 155.78Z" /><path class="shp7" d="M53.48 60.61C54.28 58.9 55.15 56.35 54.76 53.43C54.29 49.9 52.18 48.28 50.29 44.65C47.86 40 46.91 35.52 46.62 33C46.51 32.02 45.55 22.7 51.09 15.29C60.22 3.07 79.21 6.43 82.36 6.99C87.57 7.91 97.19 9.62 100.71 17.04C103.59 23.11 101.01 30.07 99.27 34.75C96.98 40.94 92.98 41.72 91.61 47.2C90.42 51.93 91.71 56.33 92.89 59.17" /><path class="shp3" d="M36.49 156.58C34.66 165.41 34.29 172.4 34.34 177.4C34.37 181.07 34.66 186.21 31.79 187.93C29.71 189.18 27.41 187.78 25.57 189.53C24.17 190.86 23.66 193.42 24.61 194.95C25.41 196.24 27.65 196.41 32.11 196.71C38.03 197.1 38.84 196.39 39.13 196.07C40.39 194.71 39.63 192.59 39.29 189.53C39.01 186.98 39.29 186.14 40.57 177.4C41.25 172.76 42.12 166.5 43.23 157.83" /><path class="shp3" d="M86.51 163.28C86.25 171.82 85.18 178.48 84.15 183.25C83.33 187.07 82.05 191.84 84.45 194.08C86.22 195.73 88.77 194.84 90.2 196.94C91.3 198.53 91.26 201.14 90.01 202.44C88.96 203.53 86.73 203.24 82.31 202.59C76.44 201.74 75.8 200.87 75.58 200.5C74.63 198.9 75.82 196.99 76.79 194.07C77.6 191.63 77.5 190.75 78.07 181.94C78.37 177.26 78.82 170.96 79.55 162.24" /><g ><g ><path class="shp8" d="M98.11 24.42C98.9 29.63 95.38 34.68 93.31 37.62C89.68 42.8 86.95 43.24 85.98 47.63C85.85 48.14 85.78 48.65 85.75 49.11C84.32 50.23 80.13 53.25 74.06 53.53C66.71 53.86 61.65 50.03 60.4 49.01L60.3 49.01C59.99 46.94 59.23 44.98 58.54 43.16C56.11 36.8 54.33 37.06 53.43 32.72C53.23 31.85 52.18 26.41 55.11 21.03C55.42 20.49 56.85 17.92 60.01 15.49C67 10.13 78.6 8.55 87.89 13.37C90.35 14.65 97.14 18.17 98.11 24.42Z" /><path class="shp8" d="M89.92 60.06C91.17 60.83 92.47 61.92 92.47 63.2C92.44 66.8 81.93 71.06 72.84 70.04C63.85 69.07 57.91 63.12 55.56 60.49C57.19 59.16 59.49 56.79 60.23 53.37C60.56 51.86 60.54 50.41 60.31 49L60.41 49C61.66 50.02 66.72 53.85 74.07 53.52C80.15 53.24 84.33 50.23 85.76 49.1C85.38 52.7 86.68 55.58 86.83 55.92C87.77 57.94 89.05 59.3 89.92 60.06Z" /></g><g ><path class="shp9" d="M85.76 49.11C85.38 52.71 86.68 55.59 86.83 55.93C87.77 57.95 89.05 59.3 89.92 60.07C91.17 60.84 92.47 61.93 92.47 63.21C92.44 66.81 81.93 71.07 72.84 70.05C63.85 69.08 57.91 63.13 55.56 60.5C57.19 59.17 59.49 56.8 60.23 53.38C60.56 51.87 60.54 50.42 60.31 49.01C60 46.94 59.24 44.98 58.55 43.16C56.12 36.8 54.34 37.06 53.44 32.72C53.24 31.85 52.19 26.41 55.12 21.03C55.43 20.49 56.86 17.92 60.02 15.49C67.01 10.13 78.61 8.55 87.9 13.37C90.35 14.65 97.14 18.17 98.11 24.42C98.9 29.63 95.38 34.68 93.31 37.62C89.68 42.8 86.95 43.24 85.98 47.63C85.86 48.14 85.78 48.65 85.76 49.11Z" /><path class="shp9" d="M60.4 49.01C61.65 50.03 66.71 53.86 74.06 53.53C80.14 53.25 84.32 50.24 85.75 49.11C85.78 49.08 85.78 49.06 85.8 49.06" /></g></g><path class="shp3" d="M47.55 65.7C42.92 63.71 34.09 73.89 30.42 78.95C27.61 82.83 28.24 83.14 24.36 88.58C19.16 95.89 17.87 95.55 15.65 100.17C13.92 103.78 14.11 105.22 11.18 111.78C9.99 114.44 9.38 115.8 8.34 117.35C6.9 119.51 6.02 120.13 5.21 122.14C4.58 123.71 3.83 125.58 4.66 127.27C5.71 129.41 8.62 129.9 10.31 129.81C12.36 129.7 14.99 128.63 15.22 127.05C15.38 125.99 14.34 125.61 14 124.35C13.34 121.85 16.39 119.32 18.79 116.59C20.62 114.5 19.46 115.26 25.11 105.88C28.53 100.2 30.24 97.36 32.73 93.95C36.61 88.62 38.55 85.95 41.92 82.97C46.57 78.86 49 78.45 50.07 75.26C51.26 71.78 50.17 66.83 47.55 65.7Z" /><path class="shp3" d="M107.11 62.92C112 61.75 118.95 73.26 121.7 78.85C123.81 83.14 123.13 83.34 126.02 89.34C129.89 97.41 131.21 97.29 132.61 102.2C133.7 106.04 133.26 107.42 135.03 114.36C135.75 117.17 136.12 118.62 136.87 120.32C137.92 122.69 138.68 123.45 139.13 125.56C139.48 127.21 139.9 129.17 138.8 130.69C137.41 132.62 134.46 132.6 132.81 132.23C130.82 131.78 128.41 130.28 128.45 128.68C128.47 127.62 129.56 127.41 130.1 126.24C131.17 123.9 128.6 120.89 126.71 117.8C125.26 115.43 126.28 116.38 122.32 106.21C119.92 100.05 118.73 96.97 116.86 93.19C113.95 87.29 112.5 84.34 109.69 80.84C105.82 76.01 103.5 75.2 102.99 71.88C102.44 68.26 104.34 63.58 107.11 62.92Z" /><path class="shp1" d="M68.22 27.95L65.76 27.95C65.59 27.95 65.45 27.81 65.45 27.64L65.45 25.07C65.45 24.9 65.59 24.76 65.76 24.76L68.22 24.76C68.39 24.76 68.53 24.9 68.53 25.07L68.53 27.64C68.53 27.81 68.39 27.95 68.22 27.95Z" /><path class="shp1" d="M86.83 28.16C86.07 28.16 85.45 27.54 85.45 26.78C85.45 26.02 86.07 25.4 86.83 25.4C87.59 25.4 88.21 26.02 88.21 26.78C88.21 27.54 87.59 28.16 86.83 28.16Z" /><path class="shp9" d="M75.66 32.1C74.61 32.54 74.2 33.09 74.02 33.52C73.72 34.24 74.04 34.68 73.61 35.65C73.34 36.26 73.04 36.45 73.13 36.77C73.24 37.21 73.96 37.41 74.59 37.52" /><path class="shp9" d="M64.86 42.36C65.7 43.22 69.08 46.48 74.43 46.83C78.28 47.08 81.19 45.7 82.41 45.02" /><path class="shp10" d="M49.38 86.78C48.63 94.42 42.42 96.48 37.47 104.65C36.65 106 34.36 113.09 29.81 127.2C25.8 139.64 23.86 145.95 26.83 150.39C27.76 151.77 28.75 152.5 30.23 153.58C36.2 157.94 42.05 157.47 52.14 158.47C57.28 158.98 62.35 160.05 67.46 160.81C88.68 163.98 90.77 164.45 93.63 162.94C99.03 160.09 100.36 153.75 102.99 141.24C105.68 128.45 108.79 113.67 104.9 99.33C104.51 97.9 104.64 94.81 104.47 88.69C104.3 82.3 104.38 79.34 105.86 78.68C107.24 78.07 108.33 80.14 110.75 80.17C114.39 80.22 118.73 75.64 118.84 71.23C119.01 64.05 107.86 60.1 106.81 59.75C105.63 59.35 100.8 58.21 94.26 59.11C84.05 60.52 80.93 68.35 75.33 66.56C72.42 65.63 73.11 63.47 68.95 61.45C67.73 60.86 64.53 59.39 57.25 60.17C49.9 60.96 39.91 62.04 38.22 67.82C36.55 73.49 43.53 81.46 46.04 80.74C47.14 80.42 47.31 78.45 47.95 78.51C48.91 78.61 49.74 83.12 49.38 86.78Z" /></g></g></svg>