<svg xmlns="http://www.w3.org/2000/svg" viewBox="0 0 257 126" width="256" height="126"><style>tspan { white-space:pre }.shp0 { fill: #ffffff } .shp1 { fill: #c7b299 } .shp2 { fill: #000000 } .shp3 { fill: #c1272d } .shp4 { fill: #ffff00 } .shp5 { fill: #ed1e79 } .shp6 { fill: #39b54a } .shp7 { fill: #93278f } .shp8 { fill: #42210b;stroke: #000000 } </style><g ></g><g ><g ><path class="shp0" d="M0.71 39.68C4.08 24.87 17.48 17.07 23.42 13.6C57.23 -6.11 108.34 -1.36 141.75 16.6C151.62 21.9 161.22 28.72 172.56 30.39C183.64 32.03 193.15 24.09 202.17 18.65C221.43 7.02 223.21 4.91 229.51 3.93C239.52 2.37 252.53 5.1 255.59 11.92C258.68 18.8 250.99 28.32 247.6 32.53C234.71 48.5 218.72 51.17 195.03 69.54C190.51 73.05 186.17 76.76 184.94 82.58C183.52 89.26 187.4 93.06 186.2 101.09C186.2 101.09 185.31 107.07 180.31 113.71C169.34 128.29 133.54 125.67 121.01 124.64C103.03 123.17 70.74 120.01 37.74 99.41C24.12 90.9 15.93 82.82 9.98 73.33C5.02 65.45 -2.45 53.54 0.71 39.68Z" /><g ><path class="shp1" d="M82.6 17.45C68.97 16.83 55.19 16.96 41.92 20.41C30.77 23.31 19.21 29.67 15.78 40.67C14.15 45.88 14.58 51.55 15.9 56.85C18.08 65.57 22.66 73.68 29.02 80.04C40.08 91.11 55.34 96.21 70.19 99.83C91.31 104.98 112.58 110.26 133.94 114.29C147.59 116.87 166.04 118.31 173.76 103.94C173.83 103.81 173.9 103.68 173.97 103.55C178.28 95.18 175.72 84.8 171.03 76.63C165.06 66.22 155.69 57.87 144.82 52.84C139.44 50.36 133.9 49.39 128.27 47.8C125.12 46.91 118.09 44.67 120.26 40.08C122.37 35.61 130.54 34.54 134.53 32.54C135.93 31.84 137.45 30.97 137.9 29.47C138.82 26.44 134.94 24.34 131.86 23.61C117.1 20.12 102.41 18.53 87.3 17.68C85.74 17.61 84.17 17.53 82.6 17.45Z" /><path fill-rule="evenodd" class="shp2" d="M82.61 17.4C91.97 17.8 101.32 18.44 110.62 19.62C115.27 20.21 119.9 20.92 124.51 21.81C126.81 22.25 129.11 22.74 131.39 23.26C132.54 23.5 133.7 23.86 134.77 24.38C135.83 24.91 136.89 25.57 137.62 26.59C137.98 27.09 138.25 27.69 138.3 28.34C138.33 28.98 138.2 29.62 137.9 30.19C137.27 31.32 136.18 32 135.15 32.56C133.03 33.69 130.74 34.29 128.55 35.07C126.36 35.84 124.15 36.67 122.37 38.08C121.5 38.79 120.77 39.68 120.43 40.7C120.07 41.71 120.23 42.82 120.94 43.65C121.62 44.49 122.58 45.13 123.59 45.65C124.6 46.17 125.68 46.58 126.78 46.94C128.98 47.64 131.27 48.18 133.54 48.75C138.08 49.86 142.69 51.13 146.9 53.32C155.33 57.57 162.75 63.84 168.28 71.5C171.05 75.32 173.38 79.5 174.9 84C176.41 88.48 177.14 93.34 176.3 98.08C175.88 100.43 175.06 102.74 173.81 104.79C173.17 105.8 172.59 106.85 171.77 107.73C171.38 108.18 171.02 108.67 170.6 109.09L169.27 110.3C169.05 110.5 168.83 110.71 168.6 110.9L166.38 112.43L164.8 113.27L164.01 113.68L163.18 114.01L161.52 114.66L159.8 115.15C158.67 115.52 157.48 115.65 156.32 115.9C151.63 116.61 146.87 116.47 142.2 115.99C137.51 115.49 132.91 114.54 128.32 113.63C109.94 109.96 91.74 105.47 73.54 101.01C64.44 98.83 55.31 96.4 46.78 92.42C38.25 88.53 30.35 82.9 24.61 75.4C21.75 71.66 19.41 67.53 17.7 63.14C16.01 58.76 14.81 54.15 14.59 49.44C14.48 47.09 14.65 44.72 15.16 42.41C15.66 40.1 16.61 37.91 17.8 35.88C20.2 31.8 23.86 28.63 27.83 26.15C31.84 23.71 36.22 21.91 40.74 20.65C45.26 19.38 49.88 18.56 54.53 17.99C63.85 16.89 73.26 16.97 82.61 17.4ZM82.6 17.5C73.25 17.09 63.85 17.03 54.55 18.14C49.91 18.72 45.29 19.55 40.79 20.82C36.29 22.08 31.93 23.89 27.94 26.32C24.01 28.8 20.39 31.97 18.04 36.01C16.87 38.01 15.95 40.18 15.47 42.46C14.98 44.73 14.82 47.07 14.94 49.4C15.18 54.06 16.4 58.63 18.09 62.96C19.81 67.29 22.15 71.38 25 75.07C30.7 82.48 38.53 88.02 47.01 91.87C55.5 95.8 64.59 98.19 73.69 100.35C91.89 104.77 110.1 109.2 128.47 112.82C133.07 113.71 137.65 114.64 142.29 115.12C146.92 115.58 151.61 115.7 156.18 114.99C157.31 114.74 158.47 114.61 159.56 114.25L161.22 113.77L163.62 112.81L164.38 112.41L165.9 111.6L167.31 110.62L168.01 110.13C168.24 109.95 168.43 109.75 168.65 109.56L169.91 108.4C170.31 107.99 170.65 107.53 171.02 107.09C171.8 106.25 172.35 105.23 172.97 104.27C174.15 102.31 174.92 100.13 175.32 97.88C176.12 93.36 175.42 88.66 173.95 84.29C172.47 79.91 170.2 75.81 167.47 72.05C162.03 64.52 154.73 58.36 146.44 54.18C142.33 52 137.85 50.72 133.31 49.57C131.04 48.98 128.77 48.42 126.51 47.69C125.39 47.31 124.27 46.88 123.21 46.33C122.15 45.77 121.11 45.09 120.32 44.09C120.11 43.86 119.98 43.55 119.81 43.28C119.7 42.98 119.57 42.67 119.52 42.35C119.5 42.02 119.42 41.69 119.5 41.38C119.54 41.06 119.58 40.74 119.71 40.45C120.13 39.25 120.96 38.27 121.91 37.52C123.84 36.02 126.11 35.21 128.32 34.45C130.54 33.68 132.82 33.1 134.86 32.03C135.87 31.5 136.87 30.87 137.39 29.92C137.65 29.45 137.75 28.91 137.74 28.38C137.7 27.85 137.48 27.34 137.17 26.9C136.53 26 135.54 25.35 134.53 24.84C133.5 24.33 132.41 23.97 131.27 23.73C128.99 23.19 126.71 22.69 124.42 22.23C119.83 21.31 115.21 20.56 110.57 19.93C101.3 18.69 91.95 17.98 82.6 17.5Z" /></g><path class="shp3" d="M58.63 52.44C56.78 58.09 47.15 60 37.08 56.71C27.01 53.42 20.36 46.19 22.21 40.54C24.05 34.89 33.69 32.98 43.76 36.28C53.83 39.57 60.48 46.79 58.63 52.44Z" /><path class="shp4" d="M162.59 101.58C161.88 107.84 151.23 111.76 138.77 110.34C126.31 108.92 116.81 102.71 117.52 96.45C118.24 90.18 128.89 86.27 141.35 87.69C153.81 89.1 163.31 95.31 162.59 101.58Z" /><path class="shp5" d="M108.21 40.85C106.98 46.86 98.29 50.17 88.79 48.23C79.29 46.29 72.59 39.85 73.81 33.84C75.04 27.83 83.73 24.52 93.23 26.46C102.73 28.39 109.43 34.84 108.21 40.85Z" /><path class="shp6" d="M144.71 67.32C143.52 71.83 136.52 73.88 129.04 71.91C121.57 69.94 116.48 64.71 117.67 60.2C118.86 55.69 125.86 53.64 133.34 55.61C140.81 57.57 145.9 62.81 144.71 67.32Z" /><path class="shp7" d="M90.85 82.02C89.66 86.52 82.66 88.58 75.18 86.61C67.7 84.64 62.62 79.41 63.81 74.9C64.99 70.39 72 68.34 79.47 70.3C86.95 72.27 92.03 77.51 90.85 82.02Z" /><g ><path class="shp8" d="M180.67 53.7C180.67 53.7 180.72 53.08 180.83 52.48C182.08 45.97 201.64 35.54 211.92 29.47C219.31 25.11 227.09 19.94 239.12 16.83C242.68 15.91 245.35 15.49 245.92 16.49C247.28 18.85 236.31 27.94 230.05 33.03C220.2 41.03 218.48 41.63 205.73 51.11C192.14 61.23 187.84 65.21 184.34 63.49C181.34 62.01 180.45 57.08 180.67 53.7Z" /><path class="shp2" d="M182.38 58.01C179.65 54.59 172.39 56.27 169.96 56.94C169.96 56.94 169.64 57.03 169.32 57.12C161.27 59.57 149.99 72.8 152 75.16C153.53 76.96 162.22 71.88 162.4 72.28C162.6 72.71 151.59 76.62 151.91 79.38C152.18 81.69 162.67 84.67 171.05 80.61C180.71 75.95 186.1 62.67 182.38 58.01Z" /></g></g></g></svg>