<svg xmlns="http://www.w3.org/2000/svg" viewBox="0 0 173 322" width="256" height="476"><style>tspan { white-space:pre }.shp0 { fill: #ffffff } .shp1 { fill: #a0642f;stroke: #000000;stroke-width: 0.75 } .shp2 { fill: #000000;stroke: #000000;stroke-width: 0.75 } .shp3 { fill: #beac83;stroke: #000000;stroke-width: 0.75 } .shp4 { fill: #63300f;stroke: #000000;stroke-width: 0.75 } .shp5 { fill: none;stroke: #000000;stroke-width: 0.75 } .shp6 { fill: #000000 } .shp7 { fill: #237d26;stroke: #000000;stroke-width: 0.75 } </style><g ></g><g ><g ><path class="shp0" d="M13.63 319.33C17.34 320.32 38.35 325.93 45.42 316.64C48.75 312.26 45.37 309.34 46.5 296.16C47.75 281.56 53.03 271.91 54.58 269.22C58.86 261.81 63.18 254.34 70.75 253.05C80.57 251.38 92.08 260.79 95 270.83C96.91 277.4 93.7 279.3 93.92 297.23C94.03 306.27 94.89 309.59 97.15 312.32C100.52 316.39 105.43 317.25 111.16 318.25C117.94 319.43 129.21 321.39 134.33 315.02C137.71 310.81 136.92 304.84 136.49 301.55C135.65 295.17 132.87 291.99 131.1 288.08C127.4 279.88 130.58 273.91 132.72 260.06C137.04 232.04 128.95 224.42 137.57 211.02C141.62 204.72 143.15 206.8 149.42 199.17C158.39 188.24 169.74 166.83 161.81 151.21C158.4 144.5 151.9 139.77 149.6 138.1C144.35 134.29 142.42 134.62 134.87 130.2C127.4 125.82 118.05 120.34 118.7 115.65C119.29 111.44 127.38 110.22 130.47 109.07C136.2 106.96 141.46 104.2 146.42 100.62C156.41 93.39 164.62 83.49 168.9 71.85C174.62 56.31 172.68 37.73 162.39 24.75C155.77 16.41 146.27 10.78 136.37 6.87C118.61 -0.14 98.57 -2.07 80.25 3.29C69.03 6.57 58.47 12.67 50.98 21.64C44.82 29.02 40.9 38.17 39.27 47.65C38.13 54.27 38.12 61.28 40.67 67.5C44.9 77.83 54.92 83.94 62.88 91.12C66 93.94 72.72 99.39 72.61 103.97C72.49 109.19 65.14 111.84 61.21 113.31C41.3 120.77 31.59 111.81 18.46 118.88C11.74 122.5 5.42 129.61 3.91 137.74C1.91 148.53 9.69 154.17 14.15 168.99C15.48 173.4 16.47 178.48 15.23 203.48C12.72 254.02 11.47 279.29 6.07 290.77C3.53 296.16 -2.04 306.62 2.3 313.4C4.52 316.84 8.35 317.92 13.63 319.33Z" /><path class="shp1" d="M110.13 310.09C115.19 310.83 115.87 312.49 119.32 312.8C125.09 313.31 131.65 309.41 131.58 306.34C131.55 305.44 130.96 304.62 122.39 299.86C113.69 295.04 112.58 294.93 111.49 295.1C105.01 296.09 100.38 306.74 102.63 309.41C103.63 310.6 105.28 309.4 110.13 310.09Z" /><path class="shp1" d="M34.68 310.09C29.62 310.83 28.94 312.49 25.49 312.8C19.72 313.31 13.16 309.41 13.23 306.34C13.26 305.44 13.85 304.62 22.42 299.86C31.12 295.04 32.23 294.93 33.32 295.1C39.8 296.09 44.43 306.74 42.18 309.41C41.18 310.6 39.53 309.4 34.68 310.09Z" /><path class="shp2" d="M33.47 195.63C27.02 199.52 26.68 205.71 20.87 252.86C17.42 280.84 15.86 292.01 23.26 298.51C27.43 302.17 34.6 304.49 39.26 301.9C47.21 297.5 39.5 283.58 49.48 266.82C50.44 265.19 49.52 266.99 65.48 248.77C70.15 243.44 72.17 241.06 75.36 240.94C78.78 240.8 82.34 244.47 89.33 251.84C97.25 260.18 101.21 264.35 101.25 264.44C110.13 279.91 95 299.07 101.25 303.96C104.88 306.8 113.71 303.25 118.97 297.82C126.46 290.1 125.16 280.1 125.11 260.01C125 217.65 129.49 213.69 123.74 207.54C115.45 198.68 105.53 206.21 70.95 200.74C45.83 196.77 40.84 191.17 33.47 195.63Z" /><path class="shp3" d="M110.13 106.03C108.05 115.47 106.92 127.82 113.88 134.65C117.54 138.24 122.33 139.2 122.05 140.45C121.71 141.95 114.54 141.65 95.48 139.77C66.27 136.89 61.31 135.43 61.07 133.29C60.86 131.4 64.53 130.36 68.56 127.15C77.16 120.31 79.88 109.55 80.82 101.26" /><path class="shp4" d="M62.39 80.78C59.01 79.44 51.49 75.86 47.91 68.11C42.58 56.57 49.83 44.13 53.79 37.34C56.09 33.4 66.74 16.22 88.17 9.74C114.71 1.72 148.24 12.96 159.65 36.43C160.91 39.02 168.01 54.34 161.46 69.46C156.84 80.15 147.83 85.08 138.39 90.27C129.38 95.22 113.77 103.77 94.05 99.77C77.15 96.35 66.54 85.57 62.39 80.78Z" /><path class="shp3" d="M78.68 30.56C62.27 45.18 57.32 72.69 69.18 89.38C74.11 96.32 80.59 99.47 84.11 101.14C97.27 107.38 114.17 107.16 128 98.88C129.63 97.9 150.98 84.64 150.62 61.78C150.25 38.28 127.19 19.44 105.38 19.7C90.96 19.88 81.15 28.35 78.68 30.56Z" /><path class="shp5" d="M106.37 55.85C106.34 58.8 105.89 63.61 103.42 68.8C102.15 71.47 100.66 73.58 99.33 75.16" /><path class="shp5" d="M110.9 60.17C110.07 61.57 108.21 65.1 108.4 69.93C108.56 73.97 110.07 76.94 110.9 78.34" /><path class="shp6" d="M81.51 43.69C81.21 45.03 85.95 48.38 90.88 48.7C95.05 48.97 99.75 47.07 99.68 45.75C99.54 43.21 82.05 41.25 81.51 43.69Z" /><path class="shp6" d="M120.83 50.04C120.57 51.38 124.67 54.73 128.93 55.05C132.53 55.32 136.6 53.42 136.54 52.1C136.42 49.56 121.3 47.6 120.83 50.04Z" /><path class="shp6" d="M83.96 83.08C83.07 84.65 90.96 93.65 101.68 95.66C112.2 97.63 122.2 92.28 121.97 90.85C121.75 89.52 112.14 88.27 106.52 89.45C105.77 89.61 103.63 90.11 101.26 89.3C99.55 88.71 98.5 87.71 98.09 87.33C94.06 83.71 84.76 81.66 83.96 83.08Z" /><path class="shp7" d="M14.74 136.58C14.98 141.66 25.85 146.72 27.01 147.25C28.42 147.9 29.54 148.31 30.45 148.59C32.47 149.2 34.65 150.23 34.84 150.32C39.5 152.57 21.77 187.14 30.87 201.32C35.78 208.98 45.08 205.3 82.06 209.94C112.42 213.75 119.8 217.94 125.98 212.36C138.5 201.06 127.1 166.84 129.88 166.32C131.11 166.09 131.9 173.01 136.02 174.15C141.9 175.78 153.14 165.34 152.03 156.09C151.12 148.64 142.5 144.47 136.02 141.44C120.45 134.16 111.7 136.97 93.43 134.63C62.4 130.64 57.29 118.61 36.76 122.94C26.04 125.22 14.49 131.22 14.74 136.58Z" /><path class="shp3" d="M151.04 163.33C154.75 164.71 149.46 191.39 141.7 194.49C141.12 194.72 138.23 195.74 134.69 197.9C132.84 199.03 131.62 200.06 131.28 200.24C123.46 204.24 98.01 217.25 85.44 209.55C84.01 208.67 81.22 206.59 76.84 205.82C73.5 205.23 72.57 206 69.46 205.4C68.13 205.14 62.81 204.12 59.99 200C56.37 194.73 58.06 186.08 61.52 184.69C64.69 183.43 69.64 188.11 70.53 187.01C70.97 186.46 69.8 185.29 70.27 184.62C71 183.58 75.27 184.21 77.68 186.74C80.8 190.01 78.19 193.56 80.81 196.55C83.53 199.65 89.23 199.05 95.66 198.36C97.29 198.19 96.29 198.2 104.82 196.74C110.24 195.81 111.38 195.68 113.98 195.12C119.32 193.97 121.99 193.4 123.01 192.7C127.65 189.48 125.8 184.69 131.9 177.48C133.32 175.8 134.24 174.77 135 174.11C137.88 171.59 140.03 171.12 142.95 169.53C148.96 166.26 149.71 162.84 151.04 163.33Z" /><path class="shp3" d="M18.81 141.48C15.88 138.93 15.47 137.7 14.98 137.89C13.01 138.63 15.36 156.7 23.89 173.28C34.81 194.51 53.74 209.13 62.45 207.44C63.65 207.21 67.24 206.16 71.81 207.04C75.14 207.69 75.74 208.74 78.85 209.29C80.18 209.53 85.51 210.48 89.62 207.65C94.89 204.02 96.41 195.35 93.68 192.81C91.18 190.49 84.88 193.09 84.44 191.75C84.22 191.08 85.74 190.41 85.54 189.61C85.23 188.38 81.02 187.44 77.86 188.93C73.64 190.92 74.52 195.74 71.43 196.96C68.25 198.21 64.72 194.15 57.97 189.18C45.95 180.32 43.52 183.14 39.59 178C35.01 172.01 37.97 161.49 36.05 154.91C35.8 154.07 35.75 152.21 34.46 150.67C33.86 149.95 33.19 149.5 32.48 149.02C30.76 147.87 29.27 147.34 28.46 147.03C24.71 145.61 20.86 143.27 18.81 141.48Z" /></g></g></svg>