<svg id="Capa_1" data-name="Capa 1" xmlns="http://www.w3.org/2000/svg" viewBox="0 0 183.83 92.81"><defs><style>.cls-1{opacity:0.72;}.cls-2{fill:#e5e5e5;}</style></defs><title>leyendas 2 del mapa</title><g class="cls-1"><path class="cls-2" d="M15.38,43.75c2.74-2.27,5.46-4.59,8.34-6.72.72-.54,1.43-1.09,2.16-1.61L28.1,33.9l2.23-1.53,2.29-1.44a83.86,83.86,0,0,1,20-9.28,55.91,55.91,0,0,1,11.27-2.06,42.88,42.88,0,0,1,11.82.7c1,.24,2,.41,2.92.74l2.89.92c.94.37,1.87.77,2.81,1.17S86.1,24,87,24.47a60.17,60.17,0,0,1,9.63,6.69c2.89,2.37,5.52,4.73,8.15,6.69a45.16,45.16,0,0,0,7.88,4.86,45.75,45.75,0,0,0,8.17,3.09,55.94,55.94,0,0,0,8.68,1.84,72.61,72.61,0,0,0,19-.19c6.65-.8,13.45-2.34,20.66-3.75h0a.79.79,0,0,1,.71,1.33,61.94,61.94,0,0,1-18.41,12.61,55,55,0,0,1-22.9,5,43.21,43.21,0,0,1-12.16-1.81l-1.49-.44-1.46-.56c-1-.38-1.94-.76-2.88-1.2s-1.86-1-2.78-1.45-1.77-1.09-2.65-1.63A60.87,60.87,0,0,1,96,47.81c-2.68-2.72-5-5.38-7.4-7.75-4.69-4.74-9.42-8.3-15.38-10.1-5.83-2-12.39-2.07-18.94-1a80.4,80.4,0,0,0-19.44,6.12l-2.39,1.06L30.1,37.29l-2.35,1.17c-.78.4-1.54.84-2.31,1.25-3.12,1.62-6.13,3.45-9.17,5.25l0,0a.75.75,0,0,1-.86-1.23Z"/></g></svg>