<svg id="Capa_1" data-name="Capa 1" xmlns="http://www.w3.org/2000/svg" viewBox="0 0 283.4 222.97"><defs><style>.cls-1{fill:#144920;}.cls-2{fill:#fff;}.cls-3{fill:#c1252d;}.cls-3,.cls-4,.cls-5{stroke:#fff;stroke-miterlimit:10;}.cls-4{fill:#eb1b24;}.cls-5{fill:#f3931f;}</style></defs><title>leyendas 2 del mapa</title><g id="LWPOLYLINE"><path class="cls-1" d="M40.47,186.32a8.43,8.43,0,0,1-5.85-5.51v-90a8.34,8.34,0,0,1,5.85-5.5h89.29a8.33,8.33,0,0,1,5.84,5.5v90a8.42,8.42,0,0,1-5.84,5.51Z"/><path class="cls-2" d="M129.76,187.61H40.46a1.24,1.24,0,0,1-.33,0,9.66,9.66,0,0,1-6.74-6.36,1.12,1.12,0,0,1-.07-.4v-90a1.14,1.14,0,0,1,.07-.41,9.59,9.59,0,0,1,6.75-6.35l89.62,0a9.61,9.61,0,0,1,7.08,6.39,1.4,1.4,0,0,1,.06.41v90a1.39,1.39,0,0,1-.06.4,9.64,9.64,0,0,1-6.75,6.36A1.24,1.24,0,0,1,129.76,187.61ZM40.64,185h88.94a7,7,0,0,0,4.72-4.43V91.05a7.09,7.09,0,0,0-4.86-4.45l-89,0a7,7,0,0,0-4.54,4.41v89.54A7.08,7.08,0,0,0,40.64,185Z"/></g><g id="LWPOLYLINE-2" data-name="LWPOLYLINE"><path class="cls-2" d="M139.44,200.87H29a3,3,0,0,1-.66-.08,13,13,0,0,1-9-8.52,2.75,2.75,0,0,1-.13-.81V80.18a2.87,2.87,0,0,1,.13-.82,12.91,12.91,0,0,1,9.05-8.51,2.82,2.82,0,0,1,.65-.08H139.44a2.82,2.82,0,0,1,.65.08,12.89,12.89,0,0,1,9,8.52,2.8,2.8,0,0,1,.13.81V191.46a2.75,2.75,0,0,1-.13.81,12.93,12.93,0,0,1-9,8.52A3,3,0,0,1,139.44,200.87ZM29.36,195.68H139.08a7.74,7.74,0,0,0,5-4.66V80.62a7.7,7.7,0,0,0-5-4.66H29.36a7.75,7.75,0,0,0-5,4.67V191A7.79,7.79,0,0,0,29.36,195.68Z"/></g><g id="LINE"><path class="cls-2" d="M47.26,159.34a.74.74,0,0,1-.36-.09.78.78,0,0,1-.33-1.05l24.89-47.74a.8.8,0,0,1,1.05-.33.78.78,0,0,1,.33,1.05L48,158.92A.77.77,0,0,1,47.26,159.34Z"/></g><g id="LINE-2" data-name="LINE"><path class="cls-2" d="M47.26,157.79a.69.69,0,0,1-.37-.1.78.78,0,0,1-.32-1.05l24.9-46.19a.77.77,0,0,1,.68-.4h4.76a.78.78,0,1,1,0,1.55H72.62L47.94,157.38A.77.77,0,0,1,47.26,157.79Z"/></g><g id="LINE-3" data-name="LINE"><path class="cls-2" d="M66.22,159.34a.8.8,0,0,1-.36-.09.78.78,0,0,1-.33-1.05L84.1,122.56l-7.82-11.29a.76.76,0,0,1-.15-.45.78.78,0,0,1,1.42-.44l8.1,11.68h0a.72.72,0,0,1,.12.53h0v.07h0a1,1,0,0,1-.07.18l-18.79,36A.76.76,0,0,1,66.22,159.34Z"/></g><g id="LINE-4" data-name="LINE"><path class="cls-2" d="M66.22,159.86a1.3,1.3,0,0,1-1.15-1.9l22.51-43.19a1.3,1.3,0,0,1,2.31,1.2L67.37,159.16A1.3,1.3,0,0,1,66.22,159.86Z"/></g><g id="LINE-5" data-name="LINE"><path class="cls-2" d="M74.53,160.07a.74.74,0,0,1-.36-.09.78.78,0,0,1-.33-1l21.22-40.67a.78.78,0,1,1,1.38.72L75.22,159.65A.78.78,0,0,1,74.53,160.07Z"/></g><g id="LINE-6" data-name="LINE"><path class="cls-2" d="M88.73,116.67a1.32,1.32,0,0,1-.85-.32,1.3,1.3,0,0,1-.12-1.84,4.55,4.55,0,0,1,3-1.53,4.34,4.34,0,0,1,3.68,1.54,1.31,1.31,0,0,1-.14,1.83,1.28,1.28,0,0,1-1.83-.14,2.1,2.1,0,0,0-1.52-.64,1.88,1.88,0,0,0-1.28.66A1.32,1.32,0,0,1,88.73,116.67Z"/></g><g id="LINE-7" data-name="LINE"><path class="cls-2" d="M123.42,159.86a1.31,1.31,0,0,1-1.07-.56L92.43,116.11a1.3,1.3,0,1,1,2.13-1.48l29.92,43.19a1.29,1.29,0,0,1-.32,1.81A1.34,1.34,0,0,1,123.42,159.86Z"/></g><g id="LINE-8" data-name="LINE"><path class="cls-2" d="M124.86,159.34H43.59a.78.78,0,1,1,0-1.56h81.27a.78.78,0,1,1,0,1.56Z"/></g><g id="LINE-9" data-name="LINE"><path class="cls-2" d="M124.86,160.84H43.59a.78.78,0,1,1,0-1.55h81.27a.78.78,0,1,1,0,1.55Z"/></g><g id="LINE-10" data-name="LINE"><path class="cls-2" d="M124.86,161.6H43.59a.78.78,0,1,1,0-1.56h81.27a.78.78,0,1,1,0,1.56Z"/></g><path class="cls-2" d="M72.15,110.82a3.35,3.35,0,0,1,4.76,0L85,122.51h0l-18.79,36h-19"/><path class="cls-2" d="M66.22,159.34h-19a.78.78,0,1,1,0-1.56H65.75L84.1,122.57l-7.82-11.3a2.79,2.79,0,0,0-1.7-.66h0a2.69,2.69,0,0,0-1.83.76.78.78,0,0,1-1.1-1.1,4.2,4.2,0,0,1,2.93-1.22h.08a4.28,4.28,0,0,1,2.86,1.22l8.18,11.8a.75.75,0,0,1,0,.8l-18.79,36A.77.77,0,0,1,66.22,159.34Z"/><polyline class="cls-2" points="123.07 158.06 96.14 119.19 96.14 119.19 75.17 158.06 75.17 158.06 123.07 158.56"/><path class="cls-2" d="M123.07,159.34h0l-47.91-.5a.78.78,0,0,1-.67-1.15l21-38.87a.79.79,0,0,1,.64-.4.87.87,0,0,1,.69.33l26.93,38.87a10.44,10.44,0,0,0,.15.95A.79.79,0,0,1,123.07,159.34Zm-46.6-2.05,45.45.48-25.7-37.09Z"/><path class="cls-3" d="M213.12,95c3.69.45,30.12,3.45,46.14-6.47,9.23-5.71,18.5-17.88,17.11-31.16-1.68-16.06-18.1-25.76-29.55-28.69-18-4.63-38.93,3.61-47.82,16.9-5,7.45-4.92,14.58-14.1,23.8A44.9,44.9,0,0,1,172,78.78c-9.06,4.27-17.29,4.11-29.36,3.74-16.56-.5-25.88-3.38-26.76-1-.82,2.2,6.36,6.64,7,7,2.43,1.51,8.34,4.68,17.79,4.69,11.74,0,17.72-4.83,19.38-2.58,1.53,2.08-2.21,8-6.49,11.58-1.36,1.13-5,3.88-14.33,5.45-11.13,1.88-13-.86-20.05.9-10.49,2.61-18.83,11.75-17.52,14.53.73,1.53,4.16.69,17.46-1,25.72-3.34,27.48-2.11,35.3-5.25,10.57-4.25,16.12-10,17.59-8.51.86.89-2,5.93-7.67,16-2.57,4.52-3.33,5.64-4.77,6.89-5.37,4.67-12.06,4-12.05,5s5.81,2.8,12.16,1.58c10.53-2,16.8-11.44,17.89-13.12,4-6.21,2.38-8.48,7.84-18,2.73-4.77,4.17-7.27,6.91-9.31C198.73,92.59,207,94.26,213.12,95Z"/><path class="cls-4" d="M182.86,98c.31.49,6.69-4.18,14.31-6.81,11.25-3.89,15.93-.14,29.31-1,7.38-.44,27.45-1.64,34.88-14.7,4.69-8.23,2.27-17.51,1.71-19.62C262.34,53.06,259,42,248.19,37.22c-12.31-5.47-24.17,1.59-26.81,3.17a33,33,0,0,0-12.07,12c-3.09,5.55-2.47,8.8-6.25,13.29-2.57,3.07-5.2,4-10.5,6.94-17.6,9.89-23.13,12-22.75,13.41s7.19,1.39,13.2-.2c9.09-2.43,14.55-7.89,15.38-6.95,1,1.14-4,7.5-4.41,8C188.36,94,182.57,97.49,182.86,98Z"/><path class="cls-5" d="M216.93,81.71c11.07,4.31,22.41-4.2,23.4-5,5-3.89,14.11-13.66,10.48-21.87-3-6.89-14.28-7.22-15.79-7.25-6.23-.14-10.81,2.41-14.19,4.29a27.79,27.79,0,0,0-10.9,9.83c-1.66,2.72-3.38,5.54-3,9.08C207.75,77.83,216.21,81.43,216.93,81.71Z"/><path class="cls-3" d="M107.87,65.79c2.25.76,18.38,6,29.66,1.9,6.5-2.38,13.86-8.79,14.71-17.26,1-10.25-8-18.42-14.77-21.73-10.67-5.21-24.79-2.76-32.06,4.4-4.08,4-5,8.47-11.87,13a28.69,28.69,0,0,1-9.29,4.2c-6.22,1.5-11.34.34-18.83-1.44-10.28-2.45-15.73-5.45-16.59-4.07s3.12,5,3.48,5.31a21.25,21.25,0,0,0,10.51,5.22c7.33,1.52,11.69-.74,12.44.88s-2.42,4.74-5.55,6.4c-1,.53-3.64,1.77-9.65,1.56-7.2-.26-8-2.21-12.64-2C40.53,62.47,34.14,67.1,34.6,69c.26,1,2.51,1,11,1.6,16.5,1.23,17.44,2.23,22.73,1.27,7.15-1.29,11.36-4.19,12.08-3,.43.67-2,3.45-6.84,9-2.19,2.5-2.81,3.1-3.87,3.69-4,2.23-8,1-8.17,1.59s3.26,2.5,7.39,2.55c6.84.09,12-5,12.87-5.89,3.29-3.37,2.58-5,7.21-10.23,2.32-2.62,3.54-4,5.52-4.92C99.19,62.43,104.17,64.54,107.87,65.79Z"/><path class="cls-4" d="M88.59,63.73c.13.35,4.72-1.75,9.82-2.41,7.53-1,10,2,18.43,3.19,4.67.67,17.36,2.5,23.68-4.7,4-4.54,3.67-10.64,3.6-12-.1-1.85-.76-9.17-6.9-13.57-7-5-15.3-2.11-17.15-1.47a21,21,0,0,0-9.09,6c-2.65,3.07-2.68,5.18-5.62,7.5-2,1.58-3.76,1.8-7.46,3C85.63,53.1,81.9,53.73,82,54.64s4.31,1.79,8.27,1.57c6-.34,10.11-3.06,10.51-2.36S97.28,58,97,58.29C92.53,62,88.46,63.41,88.59,63.73Z"/><path class="cls-5" d="M112,58c6.35,4.11,14.53.26,15.25-.1,3.65-1.78,10.58-6.71,9.37-12.31-1-4.7-8-6.35-8.94-6.56a17,17,0,0,0-9.41.85,17.66,17.66,0,0,0-8.08,4.74c-1.38,1.48-2.82,3-3,5.28C106.73,54.37,111.55,57.71,112,58Z"/></svg>