<svg id="Capa_1" data-name="Capa 1" xmlns="http://www.w3.org/2000/svg" viewBox="0 0 281.62 235.17"><defs><style>.cls-1{fill:#fff;}.cls-2{fill:#be894a;}.cls-3{fill:#4d1f08;}.cls-4{fill:#26120a;}.cls-5{fill:#a0642f;}.cls-6,.cls-7{fill:none;}.cls-6,.cls-8{stroke:#000;}.cls-6,.cls-7,.cls-8{stroke-miterlimit:10;stroke-width:0.75px;}.cls-7{stroke:#fff;}.cls-8{fill:#603814;}.cls-9{fill:#f7f719;}</style></defs><title>leyendas 2 del mapa</title><path class="cls-1" d="M60.71,128.94c1.71-3.38,2.24-6.9,3.19-13.33a19.16,19.16,0,0,1,.74-3.3,43,43,0,0,1,1.89-4.23,30.23,30.23,0,0,0,1.36-4.56,33.71,33.71,0,0,1,4.34-10.43,42.2,42.2,0,0,1,3.3-4.22c1.72-1.94,2-1.86,2.4-2.62,1.44-2.46,1.12-6.91-1.26-9.12-2.88-2.68-8.76-2-9.35-3.71a5.43,5.43,0,0,1-.22-1.25c0-.68-.09-1.23.25-1.54s.53-.21,1.11-.21a6.19,6.19,0,0,1,1.49.15c2.49.66,6.74,2.71,7.54,1.9.62-.63-.66-3.21-2.19-5-1.12-1.3-2.81-2.46-6.19-4.78C66.69,61.07,68.33,62,67,61.1c-1.06-.74-1.58-1-1.67-1.56A2.12,2.12,0,0,1,66,57.93a2.8,2.8,0,0,1,1.79-1c1,0,1.56,1.07,2.78,2.43,1.79,2,4.3,3.77,4.88,3.34.39-.3-.06-1.68-.56-2.61-1.2-2.22-3-2.39-3.08-3.76a2,2,0,0,1,1.24-1.84c1.06-.35,2.25.75,2.87,1.33,1.79,1.67,1.53,3,2.47,3.19s1.72-1.43,5-3.41c1.57-.95,2-.91,2.23-.85,1.54.41,1.48,3.39,3,3.67a1.61,1.61,0,0,0,1.46-.51c.63-.78-.17-2,.42-2.48.09-.07.19-.12,1.72-.14a6.2,6.2,0,0,1,1.32,0c.72.48-.21,2.45-.52,6a6.45,6.45,0,0,0,.61,4.18c.15.24.77,1.24,1.42,1.16s1-1.21,1.19-1.9c1.3-4.58,2-7.16,1.61-11.23-.14-1.3-.47-3.5.39-3.93a3.7,3.7,0,0,1,1.15-.13,5.86,5.86,0,0,1,1.58,0c.85.46.14,2.68-.06,7.28-.06,1.22,0,1.1-.07,1.8-.31,3.75-1.56,5.5-1.14,5.81s3-2.6,7.73-5.95c4.17-3,5.56-3,6.37-2.54A2.36,2.36,0,0,1,115.06,58c-.11,1-1.22,1.6-4.29,3.31-3.74,2.09-2.88,1.72-4.09,2.33-3.73,1.88-6,2.38-6.28,3.89a1.06,1.06,0,0,0,.13.9c.38.4,1.26,0,2.36-.27a15,15,0,0,1,4.09-.41c1.68,0,3,0,3.47.81a1.7,1.7,0,0,1,0,1.58c-.52,1-1.88,1.16-3.33,1.28-5.19.46-7-.31-7.78.64s.47,2.18,1.1,4.71c1.24,5-1.5,7.11-.72,10.34.85,3.53,4.68,3.39,12.57,8.18,8.28,5,8.37,7.81,15.65,11.15a44.28,44.28,0,0,0,11,3.22c9.87,1.91,14.33.77,27.36.91a168.13,168.13,0,0,1,23.48,1.6,128.66,128.66,0,0,1,21.09,4.56c21.9,6.78,19.4,7,25.31,7.06,2,0,6.76-.14,9.72,3a9.45,9.45,0,0,1,2.25,4.35c1.38,5.13-1.08,9.79-2.39,12.2-1.87,3.42-2.59,2.87-4.79,6.38-2.83,4.53-1.77,5.67-4.56,12.31-2.85,6.81-4.85,7.71-5.36,12.66a37.62,37.62,0,0,0,0,5.93c.35,5.89,1.43,6.47,1,8.86-.79,4.5-4.82,3.67-7.39,9.15-1.34,2.86-1.66,6.16-2.28,12.77-.31,3.22-.22,4.17-1.13,5.13-2.39,2.55-8.49,1.84-12.32-1-1.49-1.11-1.08-1.38-2.74-2.73-4.61-3.76-9.09-2.71-9.58-4.68-.35-1.44,2-1.92,3.65-6a40.28,40.28,0,0,0,1.38-4.19,42.21,42.21,0,0,1,1.36-4.47c1.39-3.88,2.69-6.8,3-11.18.12-1.84,0-2.9-.68-3.87-1.72-2.33-5.88-1.86-7.87-1.71-7.92.56-14.77-1.67-23.25-4.45-4.5-1.47-9.71-3.73-17-4.56a10.09,10.09,0,0,0-5.16.51c-3.21,1.33-4.68,4.3-6.75,8.81s-6.22,13.7-7.47,16.45c-3,6.49-4.88,10-7.33,10.06a6.27,6.27,0,0,1-3.93-1.46c-.86-.78-.74-1.25-1.62-1.79-1.31-.8-2.29-.2-3.51-1a4.2,4.2,0,0,1-1.28-1.62c-1.24-2.58,1.29-6.89,3-9.49,3.72-5.71,4.64-5,8.07-10.41,3.67-5.76,2-5.5,4.16-9.69.22-.42.89-1.66.4-2.62a1.92,1.92,0,0,0-1.09-.88c-1.93-.59-5.26,5.94-11.45,15.39a124.91,124.91,0,0,0-7.36,11.71c-.87,1.72-2.18,4.47-5,5.56a9.16,9.16,0,0,1-4.36.43,11.47,11.47,0,0,1-3.16-1.2c-2.23-1.07-3.34-1.6-3.68-2.22-1-2,2.67-5.76,6.42-9.75a186.14,186.14,0,0,0,13-14.93c4.46-6,8.57-11.5,6.76-15.08-1.42-2.8-5-1.42-10.86-5.22-3.74-2.39-5.88-5.22-8.72-9-5.92-7.81-5.58-11.44-9-12.32-3.77-1-8.12,2.46-11.72,5.3-2.1,1.66-8,6.69-11.4,7.33a7.81,7.81,0,0,1-1.77.15,15.52,15.52,0,0,1-4-.62c-4.65-1.34-5.83-.06-8.41-1.73a5,5,0,0,1-2.37-2.59C57,133.63,59,132.42,60.71,128.94Z"/><path class="cls-2" d="M243.76,129.93c1.6,1.72,1.3,4.24,1,6.51a17.53,17.53,0,0,1-2.57,7,23,23,0,0,1-3.84,4.89,12.1,12.1,0,0,0,.61-3.91,23.56,23.56,0,0,0-4.59-13.12c-.25-.35-.55-.77-1-1.26a9.45,9.45,0,0,1,5-1.69C239.58,128.31,242.15,128.22,243.76,129.93Z"/><path class="cls-3" d="M127.3,197.39c1.55-1.92,3.69-6.51,3.15-6.84a.24.24,0,0,0-.17,0c-.41.11-.49,1.26-.51,1.54C129.6,193.81,128.07,195.71,127.3,197.39Zm89.15-15.95c-.94-1.72-2.37-4.2-4.55-8.07l-3.12.26a2.16,2.16,0,0,0-.61-.79c-1.83-1.5-4.84.57-9.18,1.43-3.82.75-6.94.24-18.59-3.83-18.85-6.58-22.23-9.41-27.43-7.32-3.15,1.26-4.88,3.51-7.82,7.32-1.71,2.22-3.34,4.88-8.8,18.8-3.89,9.92-5,11.81-6.66,11.93a2.39,2.39,0,0,1-2.4-3.74c-.46.55-.87.86-1.13.79s-.6-.46-1.06-.33a.9.9,0,0,0-.21.09c-.63.29-2.48,1.06-3.19.34-.46-.47-.24-1.4.06-2.4a23,23,0,0,1,2.89-6.56c3.15-4.28,4.68-5.5,6.35-7.87a47.48,47.48,0,0,0,5.9-12c1.79-5.47,2.69-8.21,1.52-10.82a4.75,4.75,0,0,0-1-1.48c-1.12-1.2-2.92-1.88-6-3.28-1-.48-2.23-1-3.59-1.7a66.33,66.33,0,0,1-15.08-9.61c-2.36-2.11-4.57-4.86-8.86-10.27-2.4-3-4.5-5.79-6.28-8.19l-.28.2c-9,2.46-14.28,6.12-17.48,9.18-1.58,1.5-4.65,4.75-8.32,4.38-.37,0-3-.31-3.71-2.19a2,2,0,0,1-.11-1,7.65,7.65,0,0,0,1.85-3.4,6.73,6.73,0,0,0-1.64,2.48h0c-2.08,1.05-3.47,1-4.38.64a26.18,26.18,0,0,1-2.32-1.28c.76-.88,1.73-1.88,2.55-2.93,3-3.9,3.47-9.63,4.74-14.27s2.61-9,4.15-13.38c1.25-3.58,2.33-7.83,4.68-10.89a7.35,7.35,0,0,1,2.21-2.06,6.44,6.44,0,0,1,1.79-.7A10.73,10.73,0,0,1,84,88.74c2.72.11,4.92.23,6.72.37,5.64.45,7.36,1,8.71,1.64a22,22,0,0,1,2.24,1.1c2.37,1.29,4.58,3,10.22,7.1,9.77,7.11,14.65,10.66,16.24,11.48,7.9,4.06,13.75,2.82,27.22,2.78s23,1.14,35.25,2.62c30.89,3.77,39.77,10.62,42.87,14.22.42.49.72.91,1,1.26A23.56,23.56,0,0,1,239,144.43a12.1,12.1,0,0,1-.61,3.91,102.81,102.81,0,0,1-4.86,12.27c-5.5,12.37-7.23,14.27-6.33,18.14.94,4.12,3.81,5.95,2.84,9.18-.76,2.55-2.78,2.26-5.25,5.25-3.35,4.06-3.77,9.61-4.15,14.65-.31,4-.08,8.29-1.75,8.86a10.28,10.28,0,0,1-2.95,0c-.73-.07-1-.14-1.1-.33-.36-.66,1.36-2.11,1.2-2.3s-3.25,2.67-4.15,2.08c-.74-.48.28-3.1,1.43-6.56,0,0,1.23-3.77,3.16-11.59,1.49-6,2.24-9,2-11.48C218.29,185.06,218,184.27,216.45,181.44Zm9.79-16.16a5.36,5.36,0,0,0,.08-5.91c-1.22-2-3.89-3.32-6.14-2.37-2.77,1.17-2.8,4.9-2.8,5.25a5.21,5.21,0,0,0,1.24,3.52,4.83,4.83,0,0,0,3.43,1.55A5,5,0,0,0,226.24,165.28Zm-2.3-17.39a5,5,0,0,0-1.06-4.18c-1.4-1.9-4.25-3.31-6.56-2.3a3.9,3.9,0,0,0-2,2c-.73,1.85.62,3.9,2.3,6.4.62.93.85,1.12,1.06,1.24C219.46,152,223.19,150.57,223.94,147.89Zm-14.89-13.63c0-1.54-1.62-2.67-2.19-3.07-3.53-2.44-9.25-1.57-9.94.45-.64,1.85,2.73,5.35,2.73,5.35s.5.28,1.15.58a9.43,9.43,0,0,0,2.13.73C205.48,138.75,209.05,136.53,209.05,134.26Zm-20.12,7.43c.41-2.38-2.6-4.78-5.25-6.89-1.74-1.39-2.87-2.29-4.69-2.73-2.21-.52-3.94,0-6.67.76-4,1.18-7.2,2.13-7.66,4.27-.26,1.23.71,2.57,2.62,5.24s2.86,4,4.06,4.71c4.52,2.75,10.66-.35,13.22-1.64C186.87,144.25,188.65,143.34,188.93,141.69Zm-.54,22.09c.76-.5.43-2.37.11-3.4a6.69,6.69,0,0,0-4.37-4.37,6.89,6.89,0,0,0-6,1.42,3.74,3.74,0,0,0-1.75,2.41c-.13,1.85,2.31,3.85,4.49,3.94,1.69.05,2-1.1,3.93-1S187.66,164.24,188.39,163.78ZM165.32,128.9c.36-1.22-.9-2.57-1.85-3.61s-4.08-4-8.32-3.38c-2.79.39-5.93,2.36-5.79,4,.11,1.35,2.31,2.38,5.36,3.83a16.53,16.53,0,0,0,2.07.88C160.2,131.65,164.74,130.87,165.32,128.9Zm-18.91,20.66c.48-1.73-1.58-3.62-2.29-4.26-.49-.44-4-3.66-7.11-2.08a4.71,4.71,0,0,0-2.52,4.7c.47,2.77,3.91,3.66,4.59,3.83C141.94,152.49,145.85,151.63,146.41,149.56Zm-6.12-11.15c.19-.88-1-2.15-3.39-4.7-2.54-2.71-3.85-4.08-5.57-4.48-.28-.06-3.75-.82-5.47,1.31-1.41,1.73-.69,4.2-.44,5a8.3,8.3,0,0,0,3.82,4.69C133.53,142.63,139.79,140.74,140.29,138.41ZM122.8,121.25a3.92,3.92,0,0,0-.33-3.5c-1.27-1.9-4.09-1.79-7.54-1.64s-4.58,1-5,1.43a3.69,3.69,0,0,0-1.41,2.5c.1,1.8,3.08,3.59,7.54,3.94h1.39C119.93,124.19,122.09,123,122.8,121.25ZM90.54,104.58c0-1.84-1.76-3.33-3.93-3.33s-3.94,1.49-3.94,3.33,1.77,3.33,3.94,3.33S90.54,106.41,90.54,104.58Z"/><path class="cls-4" d="M226.32,159.37a5.36,5.36,0,0,1-.08,5.91,5,5,0,0,1-4.19,2,4.83,4.83,0,0,1-3.43-1.55,5.21,5.21,0,0,1-1.24-3.52c0-.35,0-4.08,2.8-5.25C222.43,156.05,225.1,157.42,226.32,159.37Z"/><path class="cls-5" d="M222.88,143.71a5,5,0,0,1,1.06,4.18c-.75,2.68-4.48,4.14-6.31,3.13-.21-.12-.44-.31-1.06-1.24-1.68-2.5-3-4.55-2.3-6.4a3.9,3.9,0,0,1,2-2C218.63,140.4,221.48,141.81,222.88,143.71Z"/><path class="cls-3" d="M216.45,181.44c-1.76,4.42-3.16,7.88-4.12,10.22-3.34,8.17-4.16,9.85-4.16,13.11,0,2.52.5,5-.43,5.36s-2.49-.93-2.85-2.4a6.48,6.48,0,0,1,.23-2.42c-.19,0-.59,2.05-2.09,2.95s-4.27.46-4.59-.53c-.22-.75.92-1.45,2.19-3,1-1.14,1.64-2.33,3.18-6.67a87.78,87.78,0,0,0,4.26-14.76c.94-5.12,1.46-8.11.71-9.71l3.12-.26C214.08,177.24,215.51,179.72,216.45,181.44Z"/><path class="cls-4" d="M206.86,131.19c.57.4,2.19,1.53,2.19,3.07,0,2.27-3.57,4.49-6.12,4a9.43,9.43,0,0,1-2.13-.73c-.65-.3-1.15-.58-1.15-.58s-3.37-3.5-2.73-5.35C197.61,129.62,203.33,128.75,206.86,131.19Z"/><path class="cls-5" d="M183.68,134.8c2.65,2.11,5.66,4.51,5.25,6.89-.28,1.65-2.06,2.56-4.37,3.72-2.56,1.29-8.7,4.39-13.22,1.64-1.2-.72-2.14-2-4.06-4.71s-2.88-4-2.62-5.24c.46-2.14,3.67-3.09,7.66-4.27,2.73-.8,4.46-1.28,6.67-.76C180.81,132.51,181.94,133.41,183.68,134.8Z"/><path class="cls-4" d="M188.5,160.38c.32,1,.65,2.9-.11,3.4s-1.63-.88-3.61-1-2.24,1-3.93,1c-2.18-.09-4.62-2.09-4.49-3.94a3.74,3.74,0,0,1,1.75-2.41,6.89,6.89,0,0,1,6-1.42A6.69,6.69,0,0,1,188.5,160.38Z"/><path class="cls-5" d="M163.47,125.29c.95,1,2.21,2.39,1.85,3.61-.58,2-5.12,2.75-8.53,1.76a16.53,16.53,0,0,1-2.07-.88c-3.05-1.45-5.25-2.48-5.36-3.83-.14-1.68,3-3.65,5.79-4C159.39,121.3,162.56,124.32,163.47,125.29Z"/><path class="cls-5" d="M144.12,145.3c.71.64,2.77,2.53,2.29,4.26-.56,2.07-4.47,2.93-7.33,2.19-.68-.17-4.12-1.06-4.59-3.83a4.71,4.71,0,0,1,2.52-4.7C140.1,141.64,143.63,144.86,144.12,145.3Z"/><path class="cls-4" d="M136.9,133.71c2.39,2.55,3.58,3.82,3.39,4.7-.5,2.33-6.76,4.22-11,1.86a8.3,8.3,0,0,1-3.82-4.69c-.25-.84-1-3.31.44-5,1.72-2.13,5.19-1.37,5.47-1.31C133.05,129.63,134.36,131,136.9,133.71Z"/><path class="cls-3" d="M131.41,153.88c3.12,1.4,4.92,2.08,6,3.28a110.22,110.22,0,0,0-8.69,11.24c-5.46,8.07-12.18,15.4-16.57,24.1-.38.76-1.54,3.14-3.61,3.52-.8.15-1.93,0-2.2-.57-.58-1.18,2.49-3.64,2.29-3.86s-4.38,3.12-4.68,2.79c-.09-.1.31-.52.17-.73-.3-.47-2.51.84-2.87.41s1.28-2.32,3.12-4.52c3.78-4.5,2.25-2.89,4.67-5.65,3-3.46,3.83-4.16,5.9-6.48,2.39-2.68,4-4.68,7-8.68,3.72-4.81,5.61-7.26,7.21-10.26A46,46,0,0,0,131.41,153.88Z"/><path class="cls-5" d="M117.41,124H116c-4.46-.35-7.44-2.14-7.54-3.94a3.69,3.69,0,0,1,1.41-2.5c.46-.41,1.59-1.29,5-1.43s6.27-.26,7.54,1.64a3.92,3.92,0,0,1,.33,3.5C122.09,123,119.93,124.19,117.41,124Z"/><ellipse cx="86.61" cy="104.58" rx="3.94" ry="3.33"/><path d="M61.13,133.18s0,0,0,0a26.18,26.18,0,0,0,2.32,1.28c.91.33,2.3.41,4.38-.64h0a4.36,4.36,0,0,0-.21.92,5.65,5.65,0,0,1-1.48,1.19,6.78,6.78,0,0,1-4,.71c-1-.12-2-.23-2.29-.82S60.21,134.24,61.13,133.18Z"/><path class="cls-6" d="M97.32,124.31c-9,2.46-14.28,6.12-17.48,9.18-1.58,1.5-4.65,4.75-8.32,4.38-.37,0-3-.31-3.71-2.19a2,2,0,0,1-.11-1,4.36,4.36,0,0,1,.21-.92,6.73,6.73,0,0,1,1.64-2.48,7.65,7.65,0,0,1-1.85,3.4,5.65,5.65,0,0,1-1.48,1.19,6.78,6.78,0,0,1-4,.71c-1-.12-2-.23-2.29-.82s.27-1.55,1.19-2.61c0,0,0,0,0,0,.76-.88,1.73-1.88,2.55-2.93,3-3.9,3.47-9.63,4.74-14.27s2.61-9,4.15-13.38c1.25-3.58,2.33-7.83,4.68-10.89a7.35,7.35,0,0,1,2.21-2.06,6.44,6.44,0,0,1,1.79-.7A10.73,10.73,0,0,1,84,88.74c2.72.11,4.92.23,6.72.37,5.64.45,7.36,1,8.71,1.64a22,22,0,0,1,2.24,1.1c2.37,1.29,4.58,3,10.22,7.1,9.77,7.11,14.65,10.66,16.24,11.48,7.9,4.06,13.75,2.82,27.22,2.78s23,1.14,35.25,2.62c30.89,3.77,39.77,10.62,42.87,14.22.42.49.72.91,1,1.26A23.56,23.56,0,0,1,239,144.43a12.1,12.1,0,0,1-.61,3.91,102.81,102.81,0,0,1-4.86,12.27c-5.5,12.37-7.23,14.27-6.33,18.14.94,4.12,3.81,5.95,2.84,9.18-.76,2.55-2.78,2.26-5.25,5.25-3.35,4.06-3.77,9.61-4.15,14.65-.31,4-.08,8.29-1.75,8.86a10.28,10.28,0,0,1-2.95,0c-.73-.07-1-.14-1.1-.33-.36-.66,1.36-2.11,1.2-2.3s-3.25,2.67-4.15,2.08c-.74-.48.28-3.1,1.43-6.56,0,0,1.23-3.77,3.16-11.59,1.49-6,2.24-9,2-11.48-.16-1.45-.44-2.24-2-5.07-.94-1.72-2.37-4.2-4.55-8.07l-1.21-2.17c-2-3.63-3.21-5.81-4.59-8.85-2.73-6-3.15-8.58-3.28-9.62a22.34,22.34,0,0,1-.2-3.47,21.65,21.65,0,0,1,.86-5.71"/><path class="cls-6" d="M127.29,197.43c-.46.55-.87.86-1.13.79s-.6-.46-1.06-.33a.9.9,0,0,0-.21.09c-.63.29-2.48,1.06-3.19.34-.46-.47-.24-1.4.06-2.4a23,23,0,0,1,2.89-6.56c3.15-4.28,4.68-5.5,6.35-7.87a47.48,47.48,0,0,0,5.9-12c1.79-5.47,2.69-8.21,1.52-10.82a4.75,4.75,0,0,0-1-1.48c-1.12-1.2-2.92-1.88-6-3.28-1-.48-2.23-1-3.59-1.7a66.33,66.33,0,0,1-15.08-9.61c-2.36-2.11-4.57-4.86-8.86-10.27-2.4-3-4.5-5.79-6.28-8.19-1.34-1.78-2.49-3.37-3.45-4.72"/><path class="cls-6" d="M127.3,197.39c.77-1.68,2.3-3.58,2.47-5.31,0-.28.1-1.43.51-1.54a.24.24,0,0,1,.17,0C131,190.88,128.85,195.47,127.3,197.39Z"/><path class="cls-6" d="M127.3,197.39s0,0,0,0"/><path class="cls-6" d="M217.68,178.32c-.43,1.08-.83,2.12-1.23,3.12-1.76,4.42-3.16,7.88-4.12,10.22-3.34,8.17-4.16,9.85-4.16,13.11,0,2.52.5,5-.43,5.36s-2.49-.93-2.85-2.4a6.48,6.48,0,0,1,.23-2.42c-.19,0-.59,2.05-2.09,2.95s-4.27.46-4.59-.53c-.22-.75.92-1.45,2.19-3,1-1.14,1.64-2.33,3.18-6.67a87.78,87.78,0,0,0,4.26-14.76c.94-5.12,1.46-8.11.71-9.71a2.16,2.16,0,0,0-.61-.79c-1.83-1.5-4.84.57-9.18,1.43-3.82.75-6.94.24-18.59-3.83-18.85-6.58-22.23-9.41-27.43-7.32-3.15,1.26-4.88,3.51-7.82,7.32-1.71,2.22-3.34,4.88-8.8,18.8-3.89,9.92-5,11.81-6.66,11.93a2.39,2.39,0,0,1-2.4-3.74"/><path class="cls-6" d="M137.94,156.59c-.17.2-.34.38-.49.57a110.22,110.22,0,0,0-8.69,11.24c-5.46,8.07-12.18,15.4-16.57,24.1-.38.76-1.54,3.14-3.61,3.52-.8.15-1.93,0-2.2-.57-.58-1.18,2.49-3.64,2.29-3.86s-4.38,3.12-4.68,2.79c-.09-.1.31-.52.17-.73-.3-.47-2.51.84-2.87.41s1.28-2.32,3.12-4.52c3.78-4.5,2.25-2.89,4.67-5.65,3-3.46,3.83-4.16,5.9-6.48,2.39-2.68,4-4.68,7-8.68,3.72-4.81,5.61-7.26,7.21-10.26a46,46,0,0,0,2.17-4.59c.14-.36.26-.69.38-1"/><path class="cls-6" d="M151.71,137.15a26,26,0,0,1,2.95,12.23,26.76,26.76,0,0,1-2.46,10.73,27.5,27.5,0,0,1-5.33,7.79"/><path class="cls-6" d="M233,130.38c.12-.09.27-.21.45-.33a9.45,9.45,0,0,1,5-1.69c1.13-.05,3.7-.14,5.31,1.57s1.3,4.24,1,6.51a17.53,17.53,0,0,1-2.57,7,23,23,0,0,1-3.84,4.89c-.19.18-.39.38-.6.56"/><ellipse class="cls-6" cx="86.61" cy="104.58" rx="3.94" ry="3.33"/><path class="cls-6" d="M61.25,133.39a.52.52,0,0,1-.12-.21s0,0,0,0,0,0,.05,0a26.18,26.18,0,0,0,2.32,1.28c.91.33,2.3.41,4.38-.64"/><path class="cls-6" d="M67.89,72.16c2.15.67,5.11,1.6,8.66,2.8,1.11.36,2.36.43,3.24,1.18a2.47,2.47,0,0,1,.39.4c.08.11.14.21.21.32.67,1.15.38,2.56.25,4.33a26.3,26.3,0,0,0,.65,7.72"/><path class="cls-6" d="M79.52,77.66c.19-.17.38-.34.58-.54l.29-.26a31.92,31.92,0,0,0,3.33-3.77,30.58,30.58,0,0,0,3.16-5.31"/><path class="cls-6" d="M78.59,69.84a6.71,6.71,0,0,0-.18-1.38c0-.09-.07-.19-.11-.3-.74-2.1-2.35-3-6.23-5.69-1.22-.84-3-2.18-5.31-3.91"/><path class="cls-6" d="M80.26,77.55c-.05-.13-.11-.27-.16-.43s-.21-.63-.31-1a29.84,29.84,0,0,1-1-4.45c-.12-.83-.16-1.39-.19-1.81"/><path class="cls-6" d="M72.64,55.59c3.63,2.21,4.81,4.42,5.2,6a.44.44,0,0,1,0,.15,33.12,33.12,0,0,1,.3,4.27q.1,1.31.24,2.4c0,.5.12,1,.18,1.38v0c.12.75.22,1.39.33,1.91"/><path class="cls-6" d="M76.91,62.39l1-.6c1.06-.71,2.19-1.5,3.33-2.39s2.14-1.76,3.07-2.6"/><path class="cls-6" d="M90.16,90.5c.19-.47.36-.93.53-1.39,2.16-5.68,3.8-10.62,5-14.57l0-.07c.45-1.46.83-2.78,1.17-4s.66-2.36.92-3.38a55.43,55.43,0,0,0,1.61-8.54,59,59,0,0,0,.33-8.42"/><path class="cls-6" d="M86.23,57.17c1.7,3.11,3.41,6.2,5.11,9.3,1.46,2.67,2.91,5.34,4.38,8l.62,1.13"/><path class="cls-6" d="M92,55.69q-.31,5.37-.63,10.78c-.08,1.23-.14,2.46-.22,3.7"/><path class="cls-6" d="M95.59,68.46c.74-.46,1.49-.9,2.22-1.36l16.31-10"/><path class="cls-6" d="M95.59,70.59l1.3-.11,12.66-1"/><path class="cls-7" d="M116.78,123.87l.63.1c2.52.22,4.68-1,5.39-2.72a3.92,3.92,0,0,0-.33-3.5c-1.27-1.9-4.09-1.79-7.54-1.64s-4.58,1-5,1.43a3.69,3.69,0,0,0-1.41,2.5c.1,1.8,3.08,3.59,7.54,3.94"/><path class="cls-7" d="M129.24,140.27c4.29,2.36,10.55.47,11-1.86.19-.88-1-2.15-3.39-4.7-2.54-2.71-3.85-4.08-5.57-4.48-.28-.06-3.75-.82-5.47,1.31-1.41,1.73-.69,4.2-.44,5A8.3,8.3,0,0,0,129.24,140.27Z"/><path class="cls-7" d="M139.08,151.75c2.86.74,6.77-.12,7.33-2.19.48-1.73-1.58-3.62-2.29-4.26-.49-.44-4-3.66-7.11-2.08a4.71,4.71,0,0,0-2.52,4.7C135,150.69,138.4,151.58,139.08,151.75Z"/><path class="cls-7" d="M156.79,130.66c3.41,1,8,.21,8.53-1.76.36-1.22-.9-2.57-1.85-3.61s-4.08-4-8.32-3.38c-2.79.39-5.93,2.36-5.79,4,.11,1.35,2.31,2.38,5.36,3.83A16.53,16.53,0,0,0,156.79,130.66Z"/><path class="cls-7" d="M171.34,147.05c4.52,2.75,10.66-.35,13.22-1.64,2.31-1.16,4.09-2.07,4.37-3.72.41-2.38-2.6-4.78-5.25-6.89-1.74-1.39-2.87-2.29-4.69-2.73-2.21-.52-3.94,0-6.67.76-4,1.18-7.2,2.13-7.66,4.27-.26,1.23.71,2.57,2.62,5.24S170.14,146.33,171.34,147.05Z"/><path class="cls-7" d="M202.93,138.3c2.55.45,6.12-1.77,6.12-4,0-1.54-1.62-2.67-2.19-3.07-3.53-2.44-9.25-1.57-9.94.45-.64,1.85,2.73,5.35,2.73,5.35s.5.28,1.15.58A9.43,9.43,0,0,0,202.93,138.3Z"/><path class="cls-7" d="M180.85,163.78c1.69.05,2-1.1,3.93-1s2.88,1.44,3.61,1,.43-2.37.11-3.4a6.69,6.69,0,0,0-4.37-4.37,6.89,6.89,0,0,0-6,1.42,3.74,3.74,0,0,0-1.75,2.41C176.23,161.69,178.67,163.69,180.85,163.78Z"/><path class="cls-7" d="M217.63,151c1.83,1,5.56-.45,6.31-3.13a5,5,0,0,0-1.06-4.18c-1.4-1.9-4.25-3.31-6.56-2.3a3.9,3.9,0,0,0-2,2c-.73,1.85.62,3.9,2.3,6.4C217.19,150.71,217.42,150.9,217.63,151Z"/><path class="cls-7" d="M217.38,162.25c0-.35,0-4.08,2.8-5.25,2.25-.95,4.92.42,6.14,2.37a5.36,5.36,0,0,1-.08,5.91,5,5,0,0,1-4.19,2,4.83,4.83,0,0,1-3.43-1.55A5.21,5.21,0,0,1,217.38,162.25Z"/><path class="cls-8" d="M87.75,91.62c-.41-1-2.83-7.21.42-12.6,2.16-3.58,6.75-6.68,9-5.4s1.33,7,1.1,8.3a20.14,20.14,0,0,1-5.81,10.66"/><path class="cls-9" d="M80.85,22.06a18.35,18.35,0,0,1,3.81,5.46,25.1,25.1,0,0,1,1.91,5.84,25.52,25.52,0,0,1,.48,6.13A18.31,18.31,0,0,1,85.63,46l-.39.08c-.47-2-.92-4-1.32-6l-1.27-6-1.13-6c-.39-2-.74-4-1.07-6Z"/><path class="cls-9" d="M106.1,46.69a48,48,0,0,1-.57-11,78.7,78.7,0,0,1,4.12-21,47.81,47.81,0,0,1,4.66-10l.4.07q-.92,5.29-1.93,10.55l-2,10.53-2.12,10.5q-1,5.25-2.18,10.49Z"/><path class="cls-9" d="M126.85,74.62c1.26-4.4,2.62-8.76,3.93-13.15s2.71-8.72,4.11-13.07,2.47-8.82,4.31-13c.88-2.1,1.86-4.18,2.9-6.23a55.07,55.07,0,0,1,3.47-6l.38.14a56.82,56.82,0,0,1-1.21,6.84c-.52,2.24-1.11,4.46-1.78,6.64-1.29,4.39-3.34,8.5-5.06,12.73s-3.46,8.46-5.24,12.67-3.57,8.41-5.43,12.59Z"/><path class="cls-9" d="M152.75,85.9c.59-2.82,1.28-5.61,1.91-8.41s1.37-5.58,2.11-8.35c.36-1.39.65-2.8,1-4.2a25.66,25.66,0,0,1,1.32-4.09A37.73,37.73,0,0,1,161,57a24,24,0,0,1,2.48-3.71l.38.13a23.33,23.33,0,0,1-.19,4.45,37.36,37.36,0,0,1-.77,4.27,25.25,25.25,0,0,1-1.36,4.07c-.57,1.32-1.17,2.63-1.69,4q-1.58,4-3.25,8c-1.14,2.64-2.24,5.29-3.43,7.91Z"/><path class="cls-9" d="M88.24,195.25c1.39-2.52,2.87-5,4.3-7.47s3-4.93,4.47-7.36c.76-1.22,1.46-2.48,2.17-3.72a23.93,23.93,0,0,1,2.47-3.52,35.17,35.17,0,0,1,3-3.16,22.81,22.81,0,0,1,3.46-2.81l.33.23a23.44,23.44,0,0,1-1.49,4.2,36.87,36.87,0,0,1-2,3.85,24.4,24.4,0,0,1-2.5,3.49c-.93,1.09-1.89,2.17-2.78,3.29q-2.68,3.36-5.45,6.66c-1.88,2.18-3.7,4.4-5.62,6.55Z"/><path class="cls-9" d="M171.12,98.6c2.64-4.59,5.37-9.13,8-13.69s5.45-9.08,8.22-13.59,5.23-9.21,8.39-13.47c1.56-2.13,3.15-4.25,4.85-6.3a73.5,73.5,0,0,1,5.37-6l.33.22A73,73,0,0,1,203,53.1c-1.21,2.37-2.53,4.67-3.86,6.95-2.66,4.58-6,8.71-9.06,13s-6.12,8.64-9.22,12.93-6.22,8.57-9.39,12.81Z"/><path class="cls-9" d="M199.49,100.67c.8-2.26,1.7-4.46,2.54-6.69s1.78-4.42,2.71-6.6c.47-1.1.87-2.22,1.29-3.34a17.18,17.18,0,0,1,1.61-3.17,25.87,25.87,0,0,1,2.15-2.9,17.19,17.19,0,0,1,2.7-2.61l.35.18a16.44,16.44,0,0,1-.55,3.72,25.86,25.86,0,0,1-1.09,3.43,17.27,17.27,0,0,1-1.65,3.16c-.66,1-1.34,2-2,3q-1.84,3-3.78,6c-1.32,2-2.6,4-4,6Z"/><path class="cls-9" d="M144.5,210.46c.8-2.26,1.69-4.47,2.53-6.7s1.78-4.41,2.72-6.6c.47-1.09.87-2.22,1.29-3.34a17.13,17.13,0,0,1,1.6-3.17,24.68,24.68,0,0,1,2.16-2.89,16.28,16.28,0,0,1,2.69-2.61l.36.18a16.93,16.93,0,0,1-.55,3.71,24.63,24.63,0,0,1-1.1,3.44,17.44,17.44,0,0,1-1.64,3.15c-.66,1-1.35,2-2,3-1.23,2-2.5,4-3.79,6.06s-2.59,4-4,6Z"/><path class="cls-9" d="M219.8,109.76c1.91-3.11,3.91-6.17,5.86-9.25s4-6.11,6-9.14c1-1.51,2-3.07,3-4.61a39.77,39.77,0,0,1,3.23-4.4c1.18-1.39,2.41-2.75,3.72-4a36.41,36.41,0,0,1,4.22-3.67l.33.24a36.75,36.75,0,0,1-2.28,5.1c-.85,1.64-1.79,3.21-2.78,4.75a41,41,0,0,1-3.26,4.37c-1.19,1.39-2.4,2.75-3.56,4.17q-3.45,4.23-7,8.42c-2.38,2.76-4.71,5.56-7.14,8.3Z"/><path class="cls-9" d="M250.93,126.56c1.64-.69,3.3-1.28,4.95-1.92s3.33-1.19,5-1.73,3.27-1.44,5.05-1.53a13.09,13.09,0,0,1,5.52.62l.08.39a13.07,13.07,0,0,1-4.73,2.9c-1.65.67-3.48.53-5.22.75s-3.5.4-5.26.55-3.53.29-5.31.36Z"/><path class="cls-9" d="M90.55,148.36c-3.72,2.48-7.49,4.87-11.23,7.31S71.78,160.45,68,162.8s-7.41,5-11.43,7c-2,1-4,1.93-6.11,2.79A52.24,52.24,0,0,1,44,174.81l-.2-.35a53.24,53.24,0,0,1,5.22-4.35c1.8-1.35,3.64-2.62,5.52-3.83,3.73-2.45,7.86-4.21,11.83-6.26s7.93-4.09,11.92-6.09,8-4,12-5.92Z"/><path class="cls-9" d="M54,137c-1.79.77-3.6,1.43-5.4,2.15s-3.62,1.33-5.44,2-3.56,1.59-5.49,1.75a15,15,0,0,1-6-.38l-.1-.39A15.16,15.16,0,0,1,36.74,139c1.79-.75,3.78-.69,5.68-1s3.81-.56,5.73-.79,3.84-.44,5.78-.59Z"/><path class="cls-9" d="M26.13,112.88c2.65-.7,5.32-1.29,8-1.94s5.34-1.19,8-1.73c1.34-.28,2.67-.62,4-.95a23.85,23.85,0,0,1,4-.59,33.5,33.5,0,0,1,4.13,0,21.65,21.65,0,0,1,4.22.63l.05.39a21.67,21.67,0,0,1-3.88,1.77,31.8,31.8,0,0,1-4,1.15,22.16,22.16,0,0,1-4,.55c-1.37.06-2.74.09-4.1.2-2.72.21-5.45.4-8.18.54s-5.46.29-8.21.35Z"/><path class="cls-9" d="M35.9,41.83c2.55,3.32,5,6.7,7.51,10.05S48.33,58.63,50.75,62s5.14,6.61,7.18,10.27q1.56,2.72,2.92,5.57a46.43,46.43,0,0,1,2.41,5.9l-.33.22a46.67,46.67,0,0,1-4.43-4.59Q56.43,77,54.58,74.49c-2.53-3.33-4.37-7.11-6.51-10.7S43.82,56.59,41.74,53,37.58,45.72,35.57,42Z"/><path class="cls-9" d="M176.38,184.23c.24,1.16.41,2.31.57,3.47s.29,2.31.38,3.46.54,2.33.17,3.45a6.87,6.87,0,0,1-.71,1.67,6.35,6.35,0,0,1-1.32,1.63l-.4,0a6.19,6.19,0,0,1-1.09-1.79,6.8,6.8,0,0,1-.47-1.75c-.23-1.16.38-2.27.62-3.39s.52-2.26.83-3.38.63-2.25,1-3.37Z"/><path class="cls-9" d="M228.37,206.07c.54,1.35,1,2.73,1.47,4.09s.89,2.74,1.28,4.12,1.14,2.7,1.08,4.15a9.27,9.27,0,0,1-1.1,4.51l-.39.07a9.3,9.3,0,0,1-2.46-3.93c-.53-1.36-.23-2.85-.29-4.29s-.1-2.87-.09-4.31,0-2.89.1-4.35Z"/><path class="cls-9" d="M241,178.1c2.15.66,4.26,1.42,6.39,2.13s4.21,1.51,6.3,2.31c1,.39,2.11.73,3.18,1.08a15.45,15.45,0,0,1,3,1.41,23.25,23.25,0,0,1,2.77,2,15.23,15.23,0,0,1,2.5,2.51l-.17.36a15,15,0,0,1-3.53-.33,22,22,0,0,1-3.28-.89,15.41,15.41,0,0,1-3-1.44c-.95-.6-1.89-1.22-2.86-1.77q-2.91-1.65-5.79-3.39c-1.89-1.2-3.82-2.34-5.7-3.58Z"/></svg>