<svg id="Capa_1" data-name="Capa 1" xmlns="http://www.w3.org/2000/svg" xmlns:xlink="http://www.w3.org/1999/xlink" viewBox="0 0 314.55 445.28"><defs><style>.cls-1{fill:#fff;}.cls-2{fill:url(#Degradado_sin_nombre_84);}.cls-3{fill:#4d9fc1;}.cls-3,.cls-5{stroke:#000;stroke-miterlimit:10;stroke-width:0.5px;}.cls-4{fill:#1a0b78;}.cls-5{fill:#fa3f10;}.cls-6{fill:#fa0f0c;}.cls-7{fill:#26120a;}</style><linearGradient id="Degradado_sin_nombre_84" x1="208.4" y1="165.29" x2="208.4" y2="55.23" gradientUnits="userSpaceOnUse"><stop offset="0.06" stop-color="#144920"/><stop offset="0.21" stop-color="#266e25"/><stop offset="0.35" stop-color="#338929"/><stop offset="0.48" stop-color="#3b992b"/><stop offset="0.58" stop-color="#3e9f2c"/><stop offset="0.64" stop-color="#4fa729"/><stop offset="0.75" stop-color="#6ab423"/><stop offset="0.85" stop-color="#7abc20"/><stop offset="0.93" stop-color="#80bf1f"/></linearGradient></defs><title>leyendas 2 del mapa</title><path class="cls-1" d="M54.84,433.43c8-3.73,14.06-9.75,19.21-17,6.92-9.71,4.57-10.86,9.38-15.63,7.64-7.57,14.44-5.55,20.11-10.73,7.49-6.83,7.75-22.55,4-33.06-1.22-3.43-2.84-6.08-2-9.83,1.07-4.87,5.47-7.78,10.72-11.16,7.89-5.09,9.85-3.85,17-8.49s5.8-6.31,11.83-9.83c9-5.27,12.47-1.86,19.22-6.7,3.32-2.39,5.93-6.81,11.16-15.64,4.81-8.12,4.41-9.13,7.6-13.18,5.05-6.41,8.08-6.47,13-11.39,9.06-9.17,10.77-21.31,11.17-24.13,1.93-13.8-5-15.75-2.69-27.25,2.56-12.93,11.79-13,13.85-25,2.52-14.66-9.29-26-5.8-29,2.6-2.27,8.33,4.88,20.1,7.6,11.41,2.63,16.81-1.59,38-4.47,7.87-1.07,14,.93,23.23-1.79,5-1.49,10.1-3.05,12.06-7.15,2.86-6-2.67-13.64-7.6-21.44-12.49-19.79-5.41-15.61-20.55-41.1a331.36,331.36,0,0,0-30.38-42h0c-8.29-8.3-9.8-8.17-11.92-11.16C232,39,234.16,36,231.2,34.25c-3.45-2-8.54.69-10.17,1.56-7.42,4-9,10.37-13.4,15.64-7.84,9.33-13.71,8.38-25,16.08-13.54,9.22-9.77,13.77-27.25,31.72-10.75,11-14.37,11.58-30.83,28.15-13.37,13.46-15.65,17.81-14.74,21.89,1.82,8.16,15.66,11.69,22.34,13.4,5.4,1.38,8.69,1.47,28.59,2.23,16.15.63,24.27,1,26.36,4.47s.33,7.78-3.13,16.09c-7.36,17.71-14,18.91-15.19,29-1.27,10.9,6,13.12,3.58,22.33-2.28,8.67-9.15,8.33-17.87,20.11-9,12.15-3.87,15.48-11.62,23.68C134,290,126.09,287.05,114.7,299c-4.46,4.68-3,4.88-8,10.28C95,321.8,88.12,319.55,83.43,327.55c-5.43,9.26,2.43,14.52-2.68,28.14-2.06,5.49-3.73,5.69-13.4,18.32-9.53,12.44-14.3,18.66-17.43,25.91-6.17,14.31-7.75,32.61-2.23,35.3C49.27,436,51.15,435.15,54.84,433.43Z"/><path class="cls-2" d="M117.28,144.85a3.08,3.08,0,0,1,0-1.53c.34-1.38,1.57-2.33,2.72-3.16,11.29-8.09,23.29-15.37,33.14-25.27,9.38-9.43,16.94-20.45,25.35-30.7,12.73-15.51,45.84-39.14,66.13-24.2,4.8,3.53,8.29,8.53,11.49,13.55a231.37,231.37,0,0,1,19.24,37.11c5.25,12.83,9.58,26.54,19,36.73,1.86,2,4,4,4.87,6.58,3.35,9.61-13.14,4.07-17.44,4.27a69.35,69.35,0,0,0-9.06,1.25c-13.58,2.33-28.48,9.5-36.46,3.43-2.38-1.81-1.37-2.64-4-4.69-6.24-4.83-14.47-2.27-22.69-1.45-14.15,1.4-12.73-4.08-29.58-3.91-17.7.19-30.8,6.3-35.07.23-.79-1.13-.27-1.24-1.12-2.46C138.39,142.87,118.45,148.64,117.28,144.85Z"/><path d="M117.25,144.86a3.22,3.22,0,0,1,.07-1.82,4.25,4.25,0,0,1,1-1.54,23.12,23.12,0,0,1,2.9-2.24l6-4.2c4-2.77,8-5.54,12-8.44a127.44,127.44,0,0,0,11.31-9.29,118.83,118.83,0,0,0,10-10.66c6.31-7.45,12-15.4,18.23-22.93a85.91,85.91,0,0,1,10.4-10.32A101.23,101.23,0,0,1,201,64.8c2.07-1.29,4.2-2.51,6.38-3.6a65.76,65.76,0,0,1,6.71-3,44.68,44.68,0,0,1,14.29-3.11,26.08,26.08,0,0,1,14.15,3.33c4.28,2.47,7.62,6.23,10.48,10.17,1.43,2,2.76,4,4.05,6.11s2.58,4.15,3.82,6.26q3.7,6.32,7,12.87c2.19,4.36,4.27,8.79,6.19,13.28s3.67,9.06,5.48,13.59,3.7,9,5.95,13.36a60.84,60.84,0,0,0,8.06,12.12c1.55,1.87,3.44,3.48,4.78,5.58a9.58,9.58,0,0,1,1.39,3.46,4.51,4.51,0,0,1,0,1.9,2.8,2.8,0,0,1-1.06,1.62,6.54,6.54,0,0,1-3.59,1.06,22.73,22.73,0,0,1-3.69-.12c-2.44-.25-4.85-.71-7.25-1.06-.6-.08-1.21-.16-1.8-.18a13.61,13.61,0,0,0-1.8.07c-1.21.1-2.41.28-3.62.47-2.4.4-4.82.77-7.19,1.28-4.77,1-9.45,2.42-14.2,3.58a68,68,0,0,1-7.21,1.4,23.36,23.36,0,0,1-7.37-.06,12.42,12.42,0,0,1-3.51-1.23,8.25,8.25,0,0,1-2.88-2.41c-.35-.53-.59-1.09-.93-1.57a7,7,0,0,0-1.21-1.28c-.45-.39-1-.7-1.45-1.05a16.08,16.08,0,0,0-1.6-.82,16.73,16.73,0,0,0-7.05-1.24,55.67,55.67,0,0,0-7.26.67c-4.81.67-9.76,1.38-14.63.48a61.43,61.43,0,0,1-7.05-2,34.63,34.63,0,0,0-7.14-1.43,75.69,75.69,0,0,0-14.59.2c-4.86.47-9.66,1.34-14.51,2a32,32,0,0,1-7.32.29,8.32,8.32,0,0,1-3.49-1.14,5.27,5.27,0,0,1-1.36-1.26,3.4,3.4,0,0,1-.78-1.66,4.15,4.15,0,0,0-.92-1.53,7.33,7.33,0,0,0-1.32-1.23,11.2,11.2,0,0,0-3.27-1.56,28.73,28.73,0,0,0-7.22-1c-2.43-.1-4.88,0-7.32,0-1.22,0-2.44,0-3.66-.1a9.25,9.25,0,0,1-1.81-.3A2,2,0,0,1,117.25,144.86Zm0,0a1.92,1.92,0,0,0,1.39,1,9,9,0,0,0,1.79.3c1.22.1,2.44.1,3.66.09,2.44,0,4.88-.11,7.33,0a29.2,29.2,0,0,1,7.25,1,11.31,11.31,0,0,1,3.31,1.57,7.32,7.32,0,0,1,1.36,1.25,4.39,4.39,0,0,1,1,1.58,3.26,3.26,0,0,0,.76,1.61,5.23,5.23,0,0,0,1.32,1.21,8.06,8.06,0,0,0,3.42,1.1,31.08,31.08,0,0,0,7.27-.32c4.84-.65,9.65-1.53,14.51-2a75.58,75.58,0,0,1,14.66-.26,35.28,35.28,0,0,1,7.2,1.41,61.44,61.44,0,0,0,7,2c4.79.86,9.69.14,14.5-.55a57.61,57.61,0,0,1,7.31-.71,17.37,17.37,0,0,1,7.26,1.26,16.27,16.27,0,0,1,1.66.86c.5.36,1,.68,1.51,1.09a7.73,7.73,0,0,1,1.3,1.38c.36.53.61,1.1.93,1.58a7.89,7.89,0,0,0,2.7,2.25,11.75,11.75,0,0,0,3.37,1.18,22.7,22.7,0,0,0,7.22.06,65,65,0,0,0,7.16-1.38c4.73-1.15,9.42-2.55,14.21-3.57,2.4-.52,4.81-.88,7.22-1.28,1.21-.19,2.42-.38,3.65-.48.62,0,1.22-.09,1.86-.07s1.23.11,1.84.2c2.43.35,4.82.81,7.24,1.06a24.34,24.34,0,0,0,3.62.12,6.24,6.24,0,0,0,3.34-1,3,3,0,0,0,.92-3.11A9.24,9.24,0,0,0,298,152c-1.29-2-3.17-3.65-4.74-5.54a61.12,61.12,0,0,1-8.11-12.21c-2.25-4.35-4.15-8.86-5.95-13.4s-3.53-9.11-5.46-13.59-4-8.91-6.17-13.27-4.52-8.65-7-12.86c-1.23-2.1-2.5-4.19-3.8-6.25s-2.62-4.12-4-6.1c-2.84-3.93-6.15-7.65-10.36-10.1a25.77,25.77,0,0,0-14-3.3,44.54,44.54,0,0,0-14.21,3.07,66.11,66.11,0,0,0-6.68,3c-2.18,1.09-4.3,2.3-6.37,3.58a100.68,100.68,0,0,0-11.83,8.58,86.24,86.24,0,0,0-10.4,10.27c-6.22,7.52-11.94,15.46-18.26,22.91a121.94,121.94,0,0,1-10,10.66,132.44,132.44,0,0,1-11.34,9.27c-3.93,2.9-8,5.66-12,8.42l-6,4.19a21.78,21.78,0,0,0-2.89,2.23,4.17,4.17,0,0,0-1,1.51A3.12,3.12,0,0,0,117.3,144.84Z"/><path class="cls-3" d="M223.55,39.32l-1.33,6.94h-5.48l-.57,2.88,5.69-.1-2,10.64s5.38.4,5.38,0,.86-10.09.86-10.09h5.26c.08-.94.15-1.87.23-2.81l-5.35,0c.39-2.43.79-4.85,1.19-7.28L224,39.32"/><path class="cls-4" d="M215,87c-.33-3.07-2.69-3.79-2.2-5.9.57-2.48,4-2.2,7-6.09.27-.35.69-1,1.15-.88.75.12.76,2,1.67,5.12s1.43,3.14,1.23,4.14c-.42,2.19-3,2-4.84,4.76-.81,1.17-.87,2-1.59,6.61-.39,2.53-.88,5-1.23,7.58a89,89,0,0,1-3.62,15.51c-2.2,6.58-3.31,9.87-5.73,13.05a27,27,0,0,0-4.67,7.93,15.17,15.17,0,0,0-1,4.41,14.87,14.87,0,0,0,1.85,7.49c2.15,4.34,3.25,9.13,4.94,13.67,3.54,9.55,5.31,14.45,5.11,20.4a27.58,27.58,0,0,1-1.19,7.67c-1.36,4.42-3.08,5.86-7.27,13.09-2.67,4.6-4,6.9-4.5,8.86-1.09,4.32-.13,6.83.93,13.88,1.34,9,2,13.43,1.19,18a34.16,34.16,0,0,1-7.54,15.6,49.64,49.64,0,0,1-11.11,9.78A30.92,30.92,0,0,0,177.4,276a27.91,27.91,0,0,0-4.89,6.34c-3.1,5.38-2,7.16-4.63,11.24-.87,1.37-2.78,3.07-6.61,6.48-5.68,5.06-8.52,7.59-11.37,8.86-4.74,2.11-5.49.59-9.52,2.91-3.28,1.88-3.18,3.11-8.2,7a58,58,0,0,1-7.4,4.89c-5.36,2.95-5.94,2-9.92,4.36s-6.64,5.22-9.92,8.86c-2.89,3.21-4.34,4.81-5,6.7-1.42,3.92,0,6.21.53,12.69a56.91,56.91,0,0,1-.53,12.17c-.87,5.49-1.85,11.73-6.52,15.86-1.33,1.17-1,.48-6.88,4.06-5.26,3.21-7.88,4.82-9.17,6.35-2.88,3.42-1.88,5.22-5.29,10.93a48.3,48.3,0,0,1-4.93,6.52c-4.7,5.54-13.73,15.25-15,14.28-.55-.43,1-2.45,3-7.76,1.58-4.11,1.74-5.64,4.41-15.87,2-7.79,3-11.69,3.52-12.51,1.65-2.81,5.71-5.91,13.75-12,5.73-4.33,8.42-6,10.23-10.05a19.44,19.44,0,0,0,1.59-7.05c.34-5.4-1.41-7.22-2.65-14.1-1-5.67-1.62-9-.35-12.87,1.47-4.5,4.65-7.17,8.28-10.23,2.79-2.35,3.08-2,12.7-8.29,6.09-4,7.19-4.93,8.11-6.69,1.72-3.3.76-5.48,3-8.47,1-1.27,2.2-2.31,5.82-4.05,7.54-3.64,9.77-2.82,14.11-5.11,5.91-3.13,8.92-8.43,10-10.41,3.68-6.46,1.61-8.94,5.47-14.63,1.61-2.37,4-4.28,8.81-8.11,8.29-6.6,10.12-6.39,13.4-10.4A26.51,26.51,0,0,0,181,236.11c1.4-7.48-2-9.38-1.41-18.34a33.16,33.16,0,0,1,3.53-13.22c3.67-7.05,7.69-7.75,10.58-15.34,1-2.66,1.95-5.14,1.76-8.46-.38-6.6-4.76-8.14-7.76-17.45a37.31,37.31,0,0,1-1.76-9.52c-.16-3.44-.45-9.59,2.82-15,2.85-4.75,5.41-3.95,9.7-8.95,2.43-2.83,3.89-6.71,6.7-14.37,5.67-15.43,3.46-16.34,7.14-21.5C213.41,92.38,215.37,90,215,87Z"/><path d="M215,87a6.48,6.48,0,0,0-1.26-3.08,7.81,7.81,0,0,1-.86-1.45,2.4,2.4,0,0,1,0-1.67c.38-1.12,1.5-1.68,2.45-2.22a15.94,15.94,0,0,0,2.79-1.86,13.36,13.36,0,0,0,1.19-1.19,10.28,10.28,0,0,1,1.11-1.28.59.59,0,0,1,.8,0,2.09,2.09,0,0,1,.38.76c.16.54.27,1.1.39,1.64.24,1.1.51,2.19.85,3.26.17.54.36,1.06.57,1.58a4.14,4.14,0,0,1,.5,1.62,2.65,2.65,0,0,1-.68,1.53,6.41,6.41,0,0,1-1.36,1,9.11,9.11,0,0,0-2.57,2.13,5.05,5.05,0,0,0-.83,1.44,10.2,10.2,0,0,0-.4,1.63c-.2,1.1-.36,2.22-.54,3.33l-1.07,6.65c-.37,2.22-.66,4.45-1.12,6.65a92.6,92.6,0,0,1-3.61,13c-.73,2.13-1.46,4.26-2.4,6.31a22.36,22.36,0,0,1-1.62,3c-.61.95-1.34,1.81-2,2.71a24.39,24.39,0,0,0-3.28,5.85,14.33,14.33,0,0,0-1.14,6.55,16.71,16.71,0,0,0,2.06,6.35,53.86,53.86,0,0,1,2.42,6.3c.7,2.13,1.35,4.28,2.11,6.4l2.32,6.33c1.48,4.23,2.9,8.58,3,13.12a26.1,26.1,0,0,1-2.85,13.07c-1.1,2-2.38,3.82-3.55,5.74s-2.31,3.85-3.43,5.8a35.75,35.75,0,0,0-3,6,15.31,15.31,0,0,0-.44,6.63c.29,2.22.74,4.43,1.08,6.65l1,6.67c.59,4.43,1.21,9,.15,13.45a33.07,33.07,0,0,1-5.53,12.25,47.5,47.5,0,0,1-9.4,9.65c-.89.69-1.8,1.36-2.74,2s-1.93,1.17-2.88,1.75a22.92,22.92,0,0,0-5.19,4.22A27.05,27.05,0,0,0,170,288.85a14.14,14.14,0,0,1-3,6c-1.54,1.66-3.26,3.12-4.92,4.63L157.05,304a45.85,45.85,0,0,1-5.34,4.14,16.08,16.08,0,0,1-6.36,2.26,11.51,11.51,0,0,0-3.24.76,15.25,15.25,0,0,0-2.9,1.62,18.73,18.73,0,0,0-2.48,2.24c-.78.81-1.6,1.59-2.46,2.33a54.75,54.75,0,0,1-5.39,4.07,50.71,50.71,0,0,1-5.83,3.41,27.68,27.68,0,0,1-3.14,1.3,26.19,26.19,0,0,0-3.14,1.16,27.06,27.06,0,0,0-5.61,3.63,49.42,49.42,0,0,0-4.78,4.71c-1.5,1.67-3,3.32-4.46,5.05a11.58,11.58,0,0,0-1.75,2.81,9.66,9.66,0,0,0-.68,3.22,47.65,47.65,0,0,0,.81,6.66,44.76,44.76,0,0,1,.44,6.75,56.32,56.32,0,0,1-.41,6.74c-.29,2.24-.65,4.46-1.12,6.67A26.23,26.23,0,0,1,97,379.92a14.91,14.91,0,0,1-4.32,5.22c-2,1.06-3.95,2.13-5.87,3.32S83,390.79,81.12,392a27.85,27.85,0,0,0-2.7,2,10.51,10.51,0,0,0-2.09,2.55A14.56,14.56,0,0,0,75,399.6a32.81,32.81,0,0,1-1.21,3.17c-1.83,4.17-4.88,7.61-7.78,11s-6,6.71-9.26,9.82c-.83.77-1.66,1.53-2.57,2.22a6.07,6.07,0,0,1-1.51.89.92.92,0,0,1-.53,0,.52.52,0,0,1-.35-.52,2.64,2.64,0,0,1,.23-.89c.91-2.08,1.89-4.08,2.69-6.18,1.71-4.14,2.56-8.58,3.72-12.92s2.23-8.71,3.43-13.05c.16-.54.31-1.08.48-1.62a5.86,5.86,0,0,1,.69-1.59,14.56,14.56,0,0,1,2.2-2.61A67.07,67.07,0,0,1,70.43,383c3.54-2.77,7.17-5.44,10.73-8.16a20.11,20.11,0,0,0,4.67-4.72,16.28,16.28,0,0,0,2.3-6.19,21.44,21.44,0,0,0,.11-6.64c-.36-2.19-1.16-4.31-1.69-6.5s-.94-4.42-1.32-6.64a26.34,26.34,0,0,1-.46-6.76A14.76,14.76,0,0,1,87,331a23.65,23.65,0,0,1,4.5-5.07,40.08,40.08,0,0,1,5.34-4.17c1.92-1.18,3.84-2.34,5.73-3.55s3.77-2.43,5.64-3.68a34.94,34.94,0,0,0,5.33-4,8.17,8.17,0,0,0,1.6-2.83,21.37,21.37,0,0,0,.76-3.25,9,9,0,0,1,3.55-5.74,35.92,35.92,0,0,1,6-3.18,41.33,41.33,0,0,1,6.4-2.2,22.29,22.29,0,0,0,6.24-2.31,21.86,21.86,0,0,0,5.2-4.13,28.49,28.49,0,0,0,3.94-5.38,21.3,21.3,0,0,0,2.53-6.15c2.44-19.94,30.91-20.71,31.37-41.3a19.28,19.28,0,0,0-.71-6.61,30.75,30.75,0,0,1-1-6.69,35,35,0,0,1,2.29-13.27,28.75,28.75,0,0,1,3.18-6,54.09,54.09,0,0,1,4.38-5.15c3.08-3.28,4.82-7.58,5.87-11.89a13.82,13.82,0,0,0-.26-6.61,24.38,24.38,0,0,0-3.12-5.9,35.9,35.9,0,0,1-5.12-12.44,37.92,37.92,0,0,1-.78-6.71,34.58,34.58,0,0,1,.32-6.74,20.68,20.68,0,0,1,2.08-6.41,15.22,15.22,0,0,1,1.88-2.82,12.26,12.26,0,0,1,2.56-2.21c.93-.63,1.88-1.23,2.76-1.92a20.45,20.45,0,0,0,2.46-2.28,19.86,19.86,0,0,0,3.6-5.64c.93-2,1.73-4.14,2.52-6.25s1.56-4.21,2.29-6.34,1.4-4.27,2-6.43,1.05-4.37,1.57-6.56A14.87,14.87,0,0,1,211,96a24.84,24.84,0,0,1,1.83-2.83,13.16,13.16,0,0,0,1.69-2.9A6.83,6.83,0,0,0,215,87Zm0,0a6.81,6.81,0,0,1-.5,3.31,13.67,13.67,0,0,1-1.68,2.92A20.63,20.63,0,0,0,211.06,96a13.51,13.51,0,0,0-1.15,3.15c-.52,2.18-1,4.39-1.56,6.56s-1.25,4.32-2,6.45-1.5,4.24-2.28,6.34-1.58,4.22-2.51,6.27a19.9,19.9,0,0,1-6.08,8c-.89.7-1.84,1.3-2.77,1.93a12.29,12.29,0,0,0-2.52,2.19,14.85,14.85,0,0,0-1.85,2.79,20.6,20.6,0,0,0-2.05,6.36,33.4,33.4,0,0,0-.3,6.71,36.38,36.38,0,0,0,.79,6.66,35.85,35.85,0,0,0,5.1,12.36,24,24,0,0,1,3.17,6,14.07,14.07,0,0,1,.28,6.73,22.52,22.52,0,0,1-.93,3.26c-.38,1.06-.79,2.11-1.25,3.15a23.22,23.22,0,0,1-1.65,3,25.79,25.79,0,0,1-2.08,2.67,54.12,54.12,0,0,0-4.35,5.13,28.1,28.1,0,0,0-3.13,5.91,34.63,34.63,0,0,0-2.24,13.14,30.83,30.83,0,0,0,1,6.61,19.61,19.61,0,0,1,.74,6.73,25.44,25.44,0,0,1-4.8,12.55,20.4,20.4,0,0,1-4.72,4.87c-1.85,1.3-3.75,2.49-5.56,3.81s-3.59,2.69-5.34,4.09-3.52,2.8-5.15,4.33a19.2,19.2,0,0,0-2.24,2.45A17.91,17.91,0,0,0,152,269a27.55,27.55,0,0,0-1.78,6.43,21.57,21.57,0,0,1-2.58,6.28,28.18,28.18,0,0,1-4,5.47,22.2,22.2,0,0,1-5.32,4.22,22.83,22.83,0,0,1-6.35,2.35,40.21,40.21,0,0,0-6.34,2.18,34.58,34.58,0,0,0-5.9,3.12,8.46,8.46,0,0,0-3.37,5.45c-.37,2.17-.89,4.55-2.48,6.3a36,36,0,0,1-5.41,4.1c-1.88,1.24-3.76,2.47-5.66,3.67S99,320.93,97,322.11a39.17,39.17,0,0,0-5.27,4.12,22.94,22.94,0,0,0-4.42,5,14.3,14.3,0,0,0-2.13,6.22,26.15,26.15,0,0,0,.46,6.65c.38,2.21.74,4.43,1.3,6.59s1.33,4.29,1.7,6.55a21.71,21.71,0,0,1-.11,6.78,17,17,0,0,1-2.37,6.36,20.4,20.4,0,0,1-4.77,4.82c-3.58,2.74-7.2,5.4-10.74,8.16a66.63,66.63,0,0,0-5.12,4.34,14.34,14.34,0,0,0-2.14,2.54,5.12,5.12,0,0,0-.64,1.49c-.17.53-.33,1.07-.48,1.61-1.2,4.32-2.31,8.68-3.44,13s-2,8.79-3.73,13c-.81,2.1-1.81,4.14-2.7,6.17a2.3,2.3,0,0,0-.2.73c0,.1,0,.13.07.14a.6.6,0,0,0,.28,0A5.82,5.82,0,0,0,54,425.5a30.89,30.89,0,0,0,2.54-2.19c3.25-3.09,6.28-6.41,9.24-9.78s5.92-6.81,7.72-10.92a31.25,31.25,0,0,0,1.2-3.14A15.34,15.34,0,0,1,76,396.34a10.59,10.59,0,0,1,2.17-2.64,25.24,25.24,0,0,1,2.74-2c1.89-1.23,3.81-2.39,5.73-3.56s3.91-2.29,5.87-3.32a14.34,14.34,0,0,0,4.19-5.07,25.5,25.5,0,0,0,2.15-6.32c.47-2.19.83-4.41,1.12-6.63a55.71,55.71,0,0,0,.42-6.71,44.06,44.06,0,0,0-.44-6.69c-.14-1.12-.33-2.22-.51-3.33a18.19,18.19,0,0,1-.29-3.39,9.84,9.84,0,0,1,.71-3.34,11.49,11.49,0,0,1,1.8-2.89c1.43-1.75,3-3.39,4.47-5.06a49,49,0,0,1,4.82-4.74,27.49,27.49,0,0,1,5.68-3.68,27,27,0,0,1,3.18-1.17,24.51,24.51,0,0,0,3.09-1.28,50.23,50.23,0,0,0,5.81-3.38,55.36,55.36,0,0,0,5.36-4.05c.85-.73,1.66-1.5,2.44-2.3a18.21,18.21,0,0,1,2.52-2.28,15.4,15.4,0,0,1,3-1.65,11.91,11.91,0,0,1,3.31-.78,15.72,15.72,0,0,0,6.25-2.21,45.53,45.53,0,0,0,5.3-4.11l5-4.47c1.67-1.5,3.39-3,4.91-4.6a13.81,13.81,0,0,0,3-5.91,24.17,24.17,0,0,1,2.5-6.28,29.19,29.19,0,0,1,3.94-5.48,23.41,23.41,0,0,1,5.25-4.26c1-.59,1.95-1.12,2.88-1.75s1.83-1.29,2.72-2a47.27,47.27,0,0,0,9.36-9.59,32.8,32.8,0,0,0,5.5-12.15c1.05-4.39.45-8.94-.14-13.37l-1-6.66c-.34-2.23-.78-4.43-1.07-6.67a15.54,15.54,0,0,1,.45-6.71,36.29,36.29,0,0,1,3-6c1.12-2,2.25-3.9,3.43-5.81s2.47-3.76,3.56-5.72a26,26,0,0,0,2.84-13c-.08-4.5-1.49-8.84-3-13.07l-2.3-6.33c-.77-2.12-1.42-4.27-2.11-6.41a54.19,54.19,0,0,0-2.41-6.28,16.66,16.66,0,0,1-2.06-6.4,14.44,14.44,0,0,1,1.15-6.61,24.06,24.06,0,0,1,3.3-5.87c.67-.91,1.4-1.77,2-2.71a22.59,22.59,0,0,0,1.61-2.94,67.27,67.27,0,0,0,2.4-6.29,92.5,92.5,0,0,0,3.62-13c.46-2.2.76-4.42,1.12-6.64l1.09-6.66c.17-1.11.33-2.22.53-3.33a11.92,11.92,0,0,1,.41-1.64,5.22,5.22,0,0,1,.85-1.46,9.1,9.1,0,0,1,2.59-2.15,6.2,6.2,0,0,0,1.34-1,2.45,2.45,0,0,0,.66-1.49,4.19,4.19,0,0,0-.48-1.58,15.05,15.05,0,0,1-.57-1.59,33.25,33.25,0,0,1-.86-3.26c-.12-.55-.23-1.1-.39-1.64a1.83,1.83,0,0,0-.36-.74.52.52,0,0,0-.72,0,10.28,10.28,0,0,0-1.09,1.26,12.36,12.36,0,0,1-1.2,1.2,15.48,15.48,0,0,1-2.8,1.86c-.95.54-2.06,1.1-2.43,2.19a2.34,2.34,0,0,0,0,1.63,7.51,7.51,0,0,0,.86,1.44A6.5,6.5,0,0,1,215.06,87Z"/><path class="cls-5" d="M220.64,75.06a28.75,28.75,0,0,0-.58-4.67c-.12-.58-.43-1.48-.13-1.67s.41,0,.67-.15.24-.4.3-.39c.22,0-.18,3.21.66,3.53.39.15.71-.43,2.47-1.19,1-.42,1.13-.34,1.15-.31s-.18.16-.21.38.26.42.23.63-.54.38-.79.46a7.56,7.56,0,0,0-1.83,1.09c-1.5,1.09-1.55,3.31-1.81,3.26S220.66,75.59,220.64,75.06Z"/><path class="cls-6" d="M213,100.14c1,.26,2-.9,2.45-1.65a2.8,2.8,0,0,0,.4-2.38c0-.12-.42-1-1.19-1.13a1.68,1.68,0,0,0-1.19.4,3.27,3.27,0,0,0-1.19,1.79,2.66,2.66,0,0,0,0,2.44A1.34,1.34,0,0,0,213,100.14Z"/><path class="cls-6" d="M211.68,107.74c.57.16,1.71.26,2.11-.39s0-1.33-.19-1.62a2.32,2.32,0,0,0-1.13-1.13c-.95-.39-2.31,0-2.58.76a1.7,1.7,0,0,0,.37,1.36A2.49,2.49,0,0,0,211.68,107.74Z"/><path class="cls-6" d="M207.59,121.43a2.4,2.4,0,0,1-1.76-2c0-.12-.14-1.21.48-1.63.25-.17.48-.14,1.37,0,2,.21,2.15.19,2.34.39a2,2,0,0,1,0,2.21,2.36,2.36,0,0,1-1.41,1A2.2,2.2,0,0,1,207.59,121.43Z"/><path class="cls-6" d="M204.59,127.82a2.09,2.09,0,0,1,.36-1.76,2,2,0,0,1,1.94-.62,1.63,1.63,0,0,1,1.1.79c.19.47,0,.94-.49,1.85-.54,1.08-.8,1.62-1.23,1.68C205.56,129.85,204.77,128.79,204.59,127.82Z"/><path class="cls-6" d="M201.33,130.82c1.93-1.61,2.15-1.63,2.29-2.12.19-.67,0-1.58-.44-1.81s-1,.22-1.45.53c-.62.45-1.8,1.22-1.9,2.47,0,.57.13,1.34.53,1.46S200.86,131.21,201.33,130.82Z"/><path class="cls-6" d="M197.23,140.25a2.9,2.9,0,0,0,2.91-1.85,3.14,3.14,0,0,0-.35-2.74,2.85,2.85,0,0,0-2.29-1.32,3,3,0,0,0-2.21,1.5,2.84,2.84,0,0,0-.52,2.29,3.78,3.78,0,0,0,2.46,2.12Z"/><path class="cls-6" d="M191.24,151.62a5.59,5.59,0,0,0,2.47-2.29c.34-.65,1-1.93.44-2.87s-1.82-.93-2.82-1a3.48,3.48,0,0,0-2.51.53,2.89,2.89,0,0,0-1,2.51c.06.49.19.36,1.1,2.16.44.87.56,1.2.93,1.33C190,152.08,190.35,152.13,191.24,151.62Z"/><path class="cls-6" d="M198.86,150.78a4,4,0,0,1-1.32-1.41,3.49,3.49,0,0,1-.44-2.2c.07-.41.16-1,.57-1.19s1.16.23,1.77.66a4.45,4.45,0,0,1,1.06,1,4.16,4.16,0,0,1,.66,1.5,1.5,1.5,0,0,1,0,.88c-.21.53-1,.8-2,.75"/><path class="cls-6" d="M197.37,159.77c.15,0,2.22-.54,2.31-1.58,0-.4-.65-1-2-2.15-.94-.81-1.35-1.06-1.88-1.06a1.91,1.91,0,0,0-1.19.43,3,3,0,0,0,.53,4.23A2.88,2.88,0,0,0,197.37,159.77Z"/><path class="cls-6" d="M196.8,171.94a2.59,2.59,0,0,0,2.65-1,1.82,1.82,0,0,0,.16-1.23c-.16-.64-.71-1-1.48-1.42a2.47,2.47,0,0,0-3.11-.16c-.83.41-1.26.63-1.36,1.05-.12.58.45,1.15.83,1.52a4.46,4.46,0,0,0,1.39.9A4,4,0,0,0,196.8,171.94Z"/><path class="cls-6" d="M204.31,169.62a2.1,2.1,0,0,0,1.52-1.25,2.14,2.14,0,0,0-.1-1.75,2.37,2.37,0,0,0-1.19-1,2.82,2.82,0,0,0-2.15-.23,2,2,0,0,0-1.26,1.06,1.91,1.91,0,0,0,.14,1.48,1.72,1.72,0,0,0,.62.8,4.09,4.09,0,0,0,.57.23c.79.33,1,.71,1.52.73A1.41,1.41,0,0,0,204.31,169.62Z"/><path class="cls-6" d="M201.86,179.61c.48-.1,1.87-.37,2.25-1.52a2.14,2.14,0,0,0-1.46-2.68,2.74,2.74,0,0,0-1.42-.13,2.81,2.81,0,0,0-1.55.89,2.51,2.51,0,0,0-.83,1.75,1.92,1.92,0,0,0,.33,1.09C199.92,180,201.6,179.66,201.86,179.61Z"/><path class="cls-6" d="M198.89,188.6c.78-.27,1.59-1,1.48-1.79-.07-.52-.59-.82-1.65-1.42s-1.49-.85-2-.66a1.87,1.87,0,0,0-.93,1.75,2.24,2.24,0,0,0,.66,1.52A2.39,2.39,0,0,0,198.89,188.6Z"/><path class="cls-6" d="M208.37,187.64c1.27-.07,2.74-.89,2.78-1.85,0-.49-.34-.86-.83-1.36a5.46,5.46,0,0,0-2.74-1.49c-.65-.12-2.43-.46-3,.43s.48,2.42.6,2.58A4,4,0,0,0,208.37,187.64Z"/><path class="cls-6" d="M200.36,195.82c.54-.31,1.12-1,1-1.58-.05-.23-.21-.39-1.41-1-1.8-.94-2.17-1-2.42-1a1.89,1.89,0,0,0-1.59.66,2,2,0,0,0,.53,2.2,2.75,2.75,0,0,0,1.28.66A3.19,3.19,0,0,0,200.36,195.82Z"/><path class="cls-6" d="M191.64,203.93c.28-.08,2.34-.73,2.51-2.29a2,2,0,0,0-1-2c-.46-.19-.88,0-1.58.22a4.52,4.52,0,0,0-2.6,1.89c-.24.41-.73,1.25-.4,1.85C189,204.39,190.68,204.24,191.64,203.93Z"/><path class="cls-6" d="M200.27,205.43A1.86,1.86,0,0,1,199,204a2.61,2.61,0,0,1,.57-1.94,2.81,2.81,0,0,1,1.19-1.23,2.48,2.48,0,0,1,1.63-.13,1.89,1.89,0,0,1,1.24.75,1.73,1.73,0,0,1,.17,1.36c-.16.69-.66,1.08-1.41,1.63C201.45,205.2,200.92,205.59,200.27,205.43Z"/><path class="cls-6" d="M192.65,216.23c1-.24,2.5-1.1,2.6-2.42a2.18,2.18,0,0,0-.66-1.68,2.66,2.66,0,0,0-2.07-.31,3.56,3.56,0,0,0-2.16.8,2.42,2.42,0,0,0-.88,2.42,2,2,0,0,0,1.14,1A3.17,3.17,0,0,0,192.65,216.23Z"/><path class="cls-6" d="M184.23,225.4c1.19,0,3-.55,3.18-1.68a2.41,2.41,0,0,0-.8-1.8,3.48,3.48,0,0,0-1.5-1,3,3,0,0,0-2.77-.09,2.7,2.7,0,0,0-1,2.2,2.37,2.37,0,0,0,.49,1.41A3,3,0,0,0,184.23,225.4Z"/><path class="cls-6" d="M196.09,229a2.67,2.67,0,0,1-2.87-1.68c-.12-.64.24-1.2.71-1.94s.83-1.29,1.58-1.45a2.24,2.24,0,0,1,1.64.4,2.85,2.85,0,0,1,1,1.1,2.62,2.62,0,0,1,.35,1.59A2.69,2.69,0,0,1,196.09,229Z"/><path class="cls-6" d="M188.15,239.41a4.38,4.38,0,0,0,3.44-1.76c.34-.55.74-1.59.31-2.2-.19-.27-.38-.24-1.41-.66-1.24-.52-1.21-.67-1.72-.75a2.65,2.65,0,0,0-2.2.53c-.3.29-.39,1.1-.58,2.68-.14,1.31-.12,1.55,0,1.77C186.48,239.59,187.48,239.49,188.15,239.41Z"/><path class="cls-6" d="M181.06,246.55c1.11.19,2.09-1.82,2.42-2.51s.55-1.15.36-1.67a1.82,1.82,0,0,0-1.81-1c-1,.09-1.52,1.06-1.81,1.59a2.79,2.79,0,0,0-.44,1.85C179.89,245.48,180.35,246.44,181.06,246.55Z"/><path class="cls-6" d="M192.17,248.36c1,.32,1.94-.43,2.77-1.1s1.58-1.27,1.46-2.12-1-1.15-1.46-1.41a3.64,3.64,0,0,0-2.42-.31,2.24,2.24,0,0,0-1.9,2.74A2.64,2.64,0,0,0,192.17,248.36Z"/><path class="cls-6" d="M181.85,256.78a4.42,4.42,0,0,0,2.25-1.06c.37-.37.9-.9.79-1.5s-.65-.83-1.14-1.1a2.27,2.27,0,0,0-1.77-.4c-1,.33-1.18,1.66-1.23,2-.12.75,0,1.89.53,2.11C181.41,256.88,181.54,256.86,181.85,256.78Z"/><path class="cls-6" d="M186.66,262.11a4.25,4.25,0,0,0,3.1-1.06c.08-.07,1.09-1.17.73-1.91s-1.84-.67-2.64-.47a4.11,4.11,0,0,0-2.12,1.46c-.37.43-1,1.19-.79,1.65S185.94,262.15,186.66,262.11Z"/><path class="cls-6" d="M173.9,257.82c.91-.43,1.52-.73,1.78-1.43a2.24,2.24,0,0,0-.3-1.91,2.49,2.49,0,0,0-1.75-1,2.78,2.78,0,0,0-1.78.4,3.59,3.59,0,0,0-1.33,1.42,2.39,2.39,0,0,0-.49,1.92,2,2,0,0,0,1.26,1.12A3.43,3.43,0,0,0,173.9,257.82Z"/><path class="cls-6" d="M169.27,264.79a2.55,2.55,0,0,1,1.06-2,2.79,2.79,0,0,1,2.15-.33,2,2,0,0,1,1.42.7c.31.47,0,.8.36,1.58.26.6.52.64.5,1,0,.66-1.2,1.07-1.46,1.16a3.67,3.67,0,0,1-2.05.1,2.47,2.47,0,0,1-1.25-.53A2.31,2.31,0,0,1,169.27,264.79Z"/><path class="cls-6" d="M158.16,272.29c.79,0,2.17,0,2.55-.76a1.5,1.5,0,0,0-.1-1.22c-.21-.49-.56-.74-1.26-1.22a5.31,5.31,0,0,0-1.42-.8,2.84,2.84,0,0,0-1.92-.16,2.41,2.41,0,0,0-1.29,3c.36.66,1.26.86,2.22,1.06A5.64,5.64,0,0,0,158.16,272.29Z"/><path class="cls-6" d="M171,279.48a3.22,3.22,0,0,0,3.26-1.81,1.72,1.72,0,0,0,.18-1.32c-.21-.54-.8-.76-1.41-1a3.53,3.53,0,0,0-2.78-.18,2.5,2.5,0,0,0-1.54,2.21C168.8,278.59,170.06,279.32,171,279.48Z"/><path class="cls-6" d="M159.55,286.22c.85-.06,2.44-.49,2.65-1.63a1.71,1.71,0,0,0-.71-1.67c-.22-.14-.4-.15-2.2-.05a4.45,4.45,0,0,0-1.24.13,2.07,2.07,0,0,0-1.32,2C157,286,158.61,286.29,159.55,286.22Z"/><path class="cls-6" d="M146.69,290.87c1.28,0,2.12,0,2.68-.59a2.14,2.14,0,0,0,.46-1.59,2.6,2.6,0,0,0-1.49-2,3.12,3.12,0,0,0-2.74.29,3.39,3.39,0,0,0-1.42,1.39c-.19.37-.61,1.16-.3,1.75S145.35,290.85,146.69,290.87Z"/><path class="cls-6" d="M153.7,299.4a3.22,3.22,0,0,0,2.94-.46,2,2,0,0,0,.76-1.49c-.05-1-1.22-1.69-2.11-1.85a3.06,3.06,0,0,0-2.19.53c-.38.25-1.28.83-1.25,1.62C151.89,298.8,153.52,299.34,153.7,299.4Z"/><path class="cls-6" d="M138.56,302c.31-.12,1.56-.62,1.69-1.68a2,2,0,0,0-.7-1.59c-.31-.27-.53-.29-1.65-.56-1.87-.46-2-.59-2.38-.43a2.29,2.29,0,0,0-1,1.72,2.68,2.68,0,0,0,.5,1.92A3.18,3.18,0,0,0,138.56,302Z"/><path class="cls-6" d="M131.65,312.05a3.85,3.85,0,0,0,2.91-1c.17-.12,2-1.54,1.59-2.46-.27-.63-1.4-.7-1.63-.71-.61,0-.73.18-2.16.66-1.25.42-1.62.43-2.16.88-.32.27-.7.59-.71,1C129.48,311.19,130.65,311.9,131.65,312.05Z"/><path class="cls-6" d="M122.31,305.22c1.08.24,3.15.37,3.7-.66.16-.3.08-.82-.09-1.86s-.24-1.47-.61-1.8a1.7,1.7,0,0,0-1.5-.36c-.83.23-.77,1-1.9,2.12-.93.91-1.61,1-1.59,1.41C120.36,304.77,122.13,305.18,122.31,305.22Z"/><path class="cls-6" d="M121.21,319a3.07,3.07,0,0,0,2.55-2.16,2.09,2.09,0,0,0,0-1.89c-.45-.57-1.34-.51-2.29-.44a3.11,3.11,0,0,0-2.25.7,2.33,2.33,0,0,0-.49,2.43A2.53,2.53,0,0,0,121.21,319Z"/><path class="cls-6" d="M110.63,320.47a1.92,1.92,0,0,0,1.23-1.85,1.74,1.74,0,0,0-1.54-1.64c-.5,0-.87.61-1.63,1.77-.47.72-.47.89-.44,1C108.4,320.38,109.65,320.86,110.63,320.47Z"/><path class="cls-6" d="M113.85,325.53a3.15,3.15,0,0,0,3.26-1c.27-.31.63-.71.53-1.1-.18-.67-1.56-.83-2.43-.93a2.57,2.57,0,0,0-1.36,0,1.85,1.85,0,0,0-1.19,1.9C112.82,325.14,113.68,325.47,113.85,325.53Z"/><path class="cls-6" d="M106.33,327.08a2.06,2.06,0,0,0,2.46-.33,1.2,1.2,0,0,0,.37-.94c-.1-.67-1-1-1.59-1.07a2.33,2.33,0,0,0-1.34.29c-.32.18-.66.36-.75.7C105.35,326.25,105.89,326.82,106.33,327.08Z"/><path class="cls-6" d="M97,328.67a2.6,2.6,0,0,0,2.37-.9,1.67,1.67,0,0,0,.5-1.39,1.43,1.43,0,0,0-.75-.9,2.08,2.08,0,0,0-1.59,0,3.13,3.13,0,0,0-1.72,1.2,1.18,1.18,0,0,0-.32.84C95.56,328.2,96.44,328.57,97,328.67Z"/><path class="cls-6" d="M97,334.48c1.26.47,3.21.31,3.7-.84a1.78,1.78,0,0,0-.39-1.89,2.4,2.4,0,0,0-2.21-.27c-1.07.24-2.55,1-2.47,1.86C95.71,334,96.74,334.38,97,334.48Z"/><path class="cls-6" d="M104.24,332.9c1-.16,2.69-.76,2.69-1.64,0-.55-.68-1-1.19-1.19a2.57,2.57,0,0,0-2.34.71c-.52.44-1.25,1.35-1,1.85S103.81,333,104.24,332.9Z"/><path class="cls-6" d="M87.32,346.3c.14.11.32.16,2.15-.23,1.62-.34,1.88-.47,2-.72s-.09-.69-.5-1.43c-.5-.89-.75-1.34-1.19-1.48-.79-.27-1.74.42-2.21,1.05C86.89,344.4,86.72,345.84,87.32,346.3Z"/><path class="cls-6" d="M96.35,345.35a1.16,1.16,0,0,1-.63-.7c-.15-.63.61-.91,1.22-2.35.18-.41.2-.59.4-.69.5-.25,1.51.26,1.82,1.06A2.16,2.16,0,0,1,98.3,345,2.06,2.06,0,0,1,96.35,345.35Z"/><path class="cls-6" d="M94.45,353.61c.62-.28,1.67-.76,1.77-1.67a2.13,2.13,0,0,0-.93-1.68,2.09,2.09,0,0,0-1.67-.48c-.47.11-.52.39-1.41,1.32s-1.43,1.19-1.41,1.63c0,.63.89,1,1,1.1A3.17,3.17,0,0,0,94.45,353.61Z"/><path class="cls-6" d="M91.81,362.91c1.25,0,2.54-1.33,2.33-2.25-.07-.32-.57-.65-1.58-1.32s-1.07-.6-1.24-.53-.26.38-.44,1.37c-.31,1.72-.42,2-.18,2.31A1.41,1.41,0,0,0,91.81,362.91Z"/><path class="cls-6" d="M97.32,361a1.88,1.88,0,0,1-.95-1.71,1.47,1.47,0,0,1,.45-1.1,1.82,1.82,0,0,1,2.14.27,1.77,1.77,0,0,1,.67,1.6,1.54,1.54,0,0,1-.82,1A1.64,1.64,0,0,1,97.32,361Z"/><path class="cls-6" d="M93.11,370.16c1.09,0,2.6-.6,2.71-1.57a1.64,1.64,0,0,0-.42-1.12,2.07,2.07,0,0,0-1.39-.85,2.19,2.19,0,0,0-1.52.55,2.67,2.67,0,0,0-.9,1.15,1.58,1.58,0,0,0-.1,1.32C91.82,370.2,92.74,370.17,93.11,370.16Z"/><path class="cls-6" d="M86,376.65c1-.32,2.16-1.2,2-2-.07-.5-.6-.87-1.2-1.29-.44-.31-.65-.47-.92-.47-.89,0-1.55,1.29-2,2.29-.32.65-.48,1-.35,1.26C83.84,377,85.14,377,86,376.65Z"/><path class="cls-6" d="M91.79,378c.48.15,1.31-.37,2.94-1.42,1-.65,1.24-.85,1.22-1.1,0-.47-1-.73-1.69-.89-1.06-.27-1.93-.49-2.69,0a2.13,2.13,0,0,0-.9,1.7A1.89,1.89,0,0,0,91.79,378Z"/><path class="cls-6" d="M83.93,384.07a2.66,2.66,0,0,0,2.36-2.49,2,2,0,0,0-.62-1.29A2.51,2.51,0,0,0,83.4,380a2.65,2.65,0,0,0-1.76,1.12,2.11,2.11,0,0,0-.23,1.75A2.41,2.41,0,0,0,83.93,384.07Z"/><path class="cls-6" d="M74.62,387.33c.45-.12,2.56-.67,2.6-1.68,0-.47-.43-.85-.88-1.23a2.81,2.81,0,0,0-1.76-.8,2.3,2.3,0,0,0-1.9.8,2.19,2.19,0,0,0,.66,3C73.68,387.57,74,387.49,74.62,387.33Z"/><path class="cls-6" d="M79.34,389.88a1.66,1.66,0,0,1,.13-3.17c.71-.31.83.18,2.86.31a1.76,1.76,0,0,1,1.24.35,1.23,1.23,0,0,1,.31.93c-.16,1.1-2.26,1.54-2.65,1.63A2.72,2.72,0,0,1,79.34,389.88Z"/><path class="cls-6" d="M74.44,395c.38-.46-.07-1.61-.79-2.25a2.72,2.72,0,0,0-2.42-.57c-.68.21-1.58.83-1.55,1.59s1.33,1.4,1.94,1.54a5.55,5.55,0,0,0,1.85,0C74.27,395.12,74.39,395,74.44,395Z"/><path class="cls-6" d="M69.55,402.53a2.39,2.39,0,0,0,1.94,0,1.81,1.81,0,0,0,.84-2,1.87,1.87,0,0,0-1.54-1,2.48,2.48,0,0,0-2.08,1c-.22.27-.64.79-.48,1.28S69,402.39,69.55,402.53Z"/><path class="cls-6" d="M66.64,399.71a2.69,2.69,0,0,1-3.17-1.45,1.8,1.8,0,0,1,0-1.5c.3-.42.74-.32,1.5-1,.35-.3.34-.38.53-.44.49-.15,1,.26,1.72.84s1,.79,1.06,1.19a2,2,0,0,1-.58,1.54A2.45,2.45,0,0,1,66.64,399.71Z"/><path class="cls-6" d="M64,409.14a2.66,2.66,0,0,0,2.47-2.2,2.24,2.24,0,0,0-.44-2c-.74-.65-1.9-.24-2.34-.09A2.49,2.49,0,0,0,62,406.28a2.1,2.1,0,0,0,.22,1.54A2.47,2.47,0,0,0,64,409.14Z"/><path class="cls-6" d="M60.25,416.28c.91-.15,1.92-.87,1.85-1.55,0-.32-.43-.6-1.22-1.16s-1.19-.83-1.49-.72-.46.62-.66,1.58c-.16.8-.24,1.19,0,1.49C59.1,416.48,60.1,416.31,60.25,416.28Z"/><path class="cls-7" d="M218.15,57.7a18.22,18.22,0,0,1-.2,3.21,11.63,11.63,0,0,1-1,3.11,8.21,8.21,0,0,1-2.06,2.6c-.87.73-1.91,1.16-2.71,1.73-1.67,1.1-2.58,3.1-3.26,5a39.91,39.91,0,0,0-1.37,6.19h0c.12-1.06.21-2.12.35-3.18a25.57,25.57,0,0,1,.7-3.12,14.37,14.37,0,0,1,1.23-3,7.22,7.22,0,0,1,2.11-2.39c.89-.6,1.89-1,2.71-1.67a8.44,8.44,0,0,0,2-2.44,13.9,13.9,0,0,0,1.53-6.13Z"/><path class="cls-7" d="M204.79,87.46a12.47,12.47,0,0,0-.52,3.26,11.73,11.73,0,0,0,3.31,8.84,11.29,11.29,0,0,0,5.46,3.28,9.16,9.16,0,0,0,3.19.41,1.58,1.58,0,0,0,1.3-.62,2,2,0,0,0-.09-1.55l.05,0a2.11,2.11,0,0,1,.18,1.63,1.73,1.73,0,0,1-1.4.82,9.12,9.12,0,0,1-3.33-.3,11.41,11.41,0,0,1-5.72-3.31A11.74,11.74,0,0,1,204.16,94a12.34,12.34,0,0,1,.59-6.59Z"/><path class="cls-7" d="M210.93,60.89A21.52,21.52,0,0,0,209,62.8a18.43,18.43,0,0,0-1.67,2.09A21.05,21.05,0,0,0,206,67.18c-.39.78-.68,1.63-1,2.49a44.14,44.14,0,0,1-2.69,4.77A18.56,18.56,0,0,0,201,76.82l-1.19,2.44-.05,0a41.45,41.45,0,0,1,2.15-5,50,50,0,0,0,2.57-4.78c.37-.83.67-1.69,1.09-2.5A17.81,17.81,0,0,1,207,64.66a18.59,18.59,0,0,1,3.86-3.81Z"/><path class="cls-7" d="M195.47,85a16.6,16.6,0,0,1,3.1,4.31,10.23,10.23,0,0,1,.94,5.29c-.12,1.83-.91,3.52-1.13,5.16a4.8,4.8,0,0,0,1.89,4.26,6.92,6.92,0,0,0,2.1,1.29,4.38,4.38,0,0,0,1.18.26c.41,0,.88,0,1.35.13a5.4,5.4,0,0,1,2.56,1.17c.71.63,1.24,1.27,1.91,1.84a18.87,18.87,0,0,0,4.27,2.91,2.26,2.26,0,0,0,2.34,0,2.15,2.15,0,0,0,.71-1,.75.75,0,0,0,0-.59.92.92,0,0,0-.52-.33v0a1,1,0,0,1,.57.34.84.84,0,0,1,.08.66,2.41,2.41,0,0,1-.72,1.11,1.69,1.69,0,0,1-1.24.4,4.33,4.33,0,0,1-1.29-.3,19,19,0,0,1-4.43-2.87c-.69-.55-1.28-1.22-1.93-1.8a5.1,5.1,0,0,0-2.37-1.06,10.18,10.18,0,0,1-2.61-.39,7.3,7.3,0,0,1-2.27-1.36,6.34,6.34,0,0,1-1.61-2.09,4.65,4.65,0,0,1-.4-2.6c.26-1.75,1-3.38,1.2-5.14a10,10,0,0,0-.8-5.14,16.21,16.21,0,0,0-2.9-4.38Z"/><path class="cls-7" d="M196.59,68.82a22.28,22.28,0,0,0-7.19,14.87,20.3,20.3,0,0,0,.08,4.2c.22,1.36.55,2.79.74,4.2s.32,2.84.49,4.26.31,2.84.39,4.26c.05.71.07,1.43.13,2.12a3,3,0,0,0,.63,1.76,3.48,3.48,0,0,0,1.59,1,20.61,20.61,0,0,1,2,.94,16.32,16.32,0,0,1,3.51,2.57,36.64,36.64,0,0,0,3,3,16,16,0,0,0,1.71,1.21c.59.38,1.27.63,1.89,1l3.84,1.82a11.07,11.07,0,0,0,4,1.26,5.31,5.31,0,0,0,2.06-.25.67.67,0,0,0,.35-.31.48.48,0,0,0-.06-.46,2.57,2.57,0,0,0-.73-.74l0,0a2.59,2.59,0,0,1,.77.74.62.62,0,0,1,.08.53.76.76,0,0,1-.4.37,5.24,5.24,0,0,1-2.11.32,11.41,11.41,0,0,1-4.08-1.18l-3.88-1.8c-.64-.31-1.31-.56-1.92-.93a19,19,0,0,1-1.76-1.22,39,39,0,0,1-3.08-3,15.66,15.66,0,0,0-3.45-2.48,19.79,19.79,0,0,0-1.92-.91,3.87,3.87,0,0,1-1.79-1.16,3.44,3.44,0,0,1-.73-2c-.08-.72-.11-1.43-.15-2.14-.08-1.42-.21-2.83-.36-4.25s-.25-2.83-.45-4.24-.48-2.8-.7-4.21a22.73,22.73,0,0,1,2.22-12.46,23.79,23.79,0,0,1,5.24-6.69Z"/></svg>