<svg id="Capa_1" data-name="Capa 1" xmlns="http://www.w3.org/2000/svg" xmlns:xlink="http://www.w3.org/1999/xlink" viewBox="0 0 363.57 296.36"><defs><style>.cls-1,.cls-6{fill:#fff;}.cls-2{fill:#1a1a1a;}.cls-3,.cls-9{fill:#666;}.cls-4{fill:#333;}.cls-5{fill:none;}.cls-5,.cls-6,.cls-8,.cls-9{stroke:#000;stroke-miterlimit:10;stroke-width:0.75px;}.cls-7{fill:url(#Degradado_sin_nombre_57);}.cls-10{fill:#fa0f0c;}.cls-11{fill:url(#Degradado_sin_nombre_57-2);}.cls-12{fill:#b3b3b3;}</style><linearGradient id="Degradado_sin_nombre_57" x1="22.62" y1="129.04" x2="167.64" y2="129.04" gradientUnits="userSpaceOnUse"><stop offset="0" stop-color="#168c43"/><stop offset="0.45" stop-color="#80bf1f"/></linearGradient><linearGradient id="Degradado_sin_nombre_57-2" x1="258.28" y1="275.51" x2="258.28" y2="169.16" xlink:href="#Degradado_sin_nombre_57"/></defs><title>leyendas 2 del mapa</title><path class="cls-1" d="M21.17,157.61c13.13-1.81,19.7-2.72,20.1-2.87,8.5-3.05,15.52-4.32,23.59-5.61,9.65-1.55,16.81-1.66,28.47-1.88a177.45,177.45,0,0,1,19.85.38c9.49.78,9.7,1.69,16.72,2,9.44.42,16.36-.89,23.23-2.24,9.37-1.84,18.64-3.66,19.22-7.74.39-2.75-3.55-3.76-4.49-9.49-.52-3.16.48-4-.25-7.74-.8-4-2.26-4.47-2.75-7-1.1-5.72,5.59-7.65,7.24-15,1.77-7.85-4.77-10.59-2.75-18.23,1.61-6,6-5.6,7.75-12,2.1-7.88-2.82-15.33-3.75-16.73a28.56,28.56,0,0,0-10.74-9.24c-5.78-3.24-8.06-2.42-15-6.49-4.09-2.41-6.16-3.67-7.49-6.25-2.75-5.33.45-10.67-1.5-11.73-1.74-.95-5.74,2.53-8,5.74-3.31,4.74-3.42,9.79-3.49,12.74-.1,4.06-.17,7.47,2,10.48.8,1.11,1.68,1.86,10.23,5.74,6.21,2.82,9.32,4.23,10.74,4.5,6.1,1.13,9.47-.71,11.49,1.75a6.59,6.59,0,0,1-1.25,8.74c-3.37,2.22-7.57-2.93-16-3.5-2.58-.17-4.89.3-9.49,1.25a81.48,81.48,0,0,0-14.23,4.49c-8.81,3.51-8,4.14-13.74,6.25-7.07,2.59-15.65,5.73-21.47,1.74a13.23,13.23,0,0,1-4.74-7,23.1,23.1,0,0,1-.5-4.74c-.31-5.68.26-6.32-.38-8.87-.37-1.48-1.26-5-4-6a4.16,4.16,0,0,0-3.75.38c-.94.69-.94,1.57-1.75,4.49-1,3.82-1.33,3.32-1.74,5.49-.67,3.49,0,4.87-1,5.62s-3.16.24-4.37-.87c-.67-.61-1.22-1.53-1.75-7-.37-3.85-.24-4.9-1-6.87-.34-.87-1.41-3.65-2.74-3.62-.93,0-1.33,1.36-2.88,4.12-2.31,4.14-3,4-4.12,6.49-.7,1.59-.82,2.52-1.49,7.37-1.53,11-1.83,12.3-2.5,14.1a37.25,37.25,0,0,1-3.25,6.62c-2.48,3.84-4.08,4.45-4.62,7.12-.45,2.24,0,5.35,2,7,1.73,1.4,4,1.19,6.12,1,5.63-.52,7.45-3.32,9.61-2.25,1.43.71,1.83,2.85,2.62,7.12s1.24,6.64.75,9.36c-1.05,5.82-5.53,10.83-7.11,10.24-.82-.31-.89-3.29-1-9.24-.08-4.28.07-6.09-.5-6.24-.85-.23-2.52,3.41-3.75,6.11C44.75,126,43,131.83,42.76,131.77s2.06-5.44.75-11.73c-.13-.62-1.06-5-2.49-5-1.23,0-2.25,3.12-3.12,5.87a73.21,73.21,0,0,0-2.25,10.36c-1.52,7.09-6.11,12.44-11,18.11-3.07,3.57-6.39,6.67-5.62,7.86C19.43,157.84,20.68,157.68,21.17,157.61Z"/><path class="cls-2" d="M142.55,108.93c.18.44.38.85.57,1.25l-.08,0c-.46.72-1.15,1.76-2,3-2.7,4-5,7.11-8.2,11.22-7.73,10-6.76,8.25-8.19,10.47-3.93,6-4.66,9.25-7.56,9.7-2.24.37-4.9-1.08-5.29-2.79s1.78-3.11,4-5.94c1.76-2.24,2.84-5.42,5-11.76a144.79,144.79,0,0,0,4-14.21,71.09,71.09,0,0,0,11.56-2.84c2.07-.7,3.79-1.37,5-1.89.05.23.1.47.17.71A21,21,0,0,0,142.55,108.93Z"/><path class="cls-3" d="M128.79,37.94c.08-2.49,1.67-5.06,4.84-10.18.67-1.07,3-4.81,3.57-4.54s-2.26,4.21-1.29,8.25c1.2,5.08,7.82,7.81,12.45,9.71s5.56,1.26,10.21,3.57a31,31,0,0,1,8.07,5.49,21.44,21.44,0,0,1,5.52,7.46,18.17,18.17,0,0,1-1.46,16.49c-1.91,2.84-4.85,5.4-6.26,5.1h0a20.69,20.69,0,0,0-3-3.63c-.29-1.66,3.47-3.16,4.74-6.31a9.78,9.78,0,0,0-1.47-9.06c-2.5-3.22-5.75-2.1-14.39-4.38C145,54.5,139.46,53,134.77,48.64,132.67,46.67,128.61,42.9,128.79,37.94Z"/><path class="cls-4" d="M57.6,52.78c.7-.05,1.43,4.7,2.09,8.89.77,4.92.78,6.89.16,8.41a14.75,14.75,0,0,1,5.64.55,6.57,6.57,0,0,1,1.65.65,6.11,6.11,0,0,1,1.1.78h0a41.6,41.6,0,0,1,1.79-7.69c.6-1.75.52-1.13,1.84-4.64,1.42-3.8,1.76-5.18,2.59-5.28,1.14-.15,2.32,2.27,2.59,2.8,1.53,3.14,1.11,5.67,1.07,12.94,0,4.57.13,5.84,1,7.24a9.77,9.77,0,0,0,4.54,3.66c3.18,1.45,6.43,1.6,14.46.43,6.51-.93,9.76-1.41,13.27-2.47,9.36-2.88,9.59-5.5,18.12-8A40.23,40.23,0,0,1,145,69.34c4.13.37,10.46,1,15.86,5.82l.53.5a.53.53,0,0,0,0,.16,17.8,17.8,0,0,0,1.52,2,10.37,10.37,0,0,0,1.23,1.41l.21.07h0a20.41,20.41,0,0,1,1.74,3.2c3.07,7.27,1.66,16.08-1.94,22.23-2.42,4.13-4.77,5.24-4.86,8.84,0,1.38-.15,5.93,2.59,8.64.6.58,1.48,1.24,1.52,2.26,0,1.26-1.2,2.15-2.06,2.92-1.38,1.21-2.68,3.69-5.29,8.63-2.25,4.27-2.09,5.05-3.66,6.36-1.41,1.18-2.83,1.63-5.18,2.38-1.4.44-5.93,1.88-6.47.86-.43-.78,1.64-2.77,3.24-4.32a26.64,26.64,0,0,0,3.34-3.23,15.67,15.67,0,0,0,1.72-3,45.61,45.61,0,0,0,2.81-7.88,24.28,24.28,0,0,0,.75-3.12c-.09-3-2.72-3.59-6.68-9.07a31.62,31.62,0,0,1-2.89-4.79c-.19-.4-.39-.81-.57-1.25a21,21,0,0,1-1.07-3c-.07-.24-.12-.48-.17-.71-1.22.52-2.94,1.19-5,1.89a71.09,71.09,0,0,1-11.56,2.84c-3.2.55-7.15,1.1-12.07,1.59-11.9,1.2-18.38,1.81-26.25.5l0,.11a10.32,10.32,0,0,0-5.38.36c-.44.15-1,.43-2.15,1-.44.21-2.9,1.39-3.72,1.86-3.4,2-3.16,6.43-6.82,12.23-1.84,2.93-2.19,3.19-4.27,6.22a51.3,51.3,0,0,0-3.15,5.66c-.89,1.71-1.22,2.51-2.19,3.24-1.38,1-3.7,1.64-4.75.67s0-3.84.65-5.61c1.24-3.12,2.48-3.7,3.68-6.47.64-1.53.53-2,1.24-6,1.36-7.75,2.11-7.72,2.2-11.39a33.53,33.53,0,0,0-.85-8.09,28.71,28.71,0,0,0-2.44-6.21,24.4,24.4,0,0,1-4.74,1.89c-1.63.46-10.07,2.81-12.3-.8C39.78,98,42.68,93.29,43,92.75c1.79-2.84,3.35-2.77,4.8-5.73.6-1.17.86-2.78,1.36-5.93.83-5.25.48-5.76,1.13-8.58a46.65,46.65,0,0,1,2.76-8.25c1.74-4,2.87-5,3.71-8.58C57.2,53.92,57.25,52.79,57.6,52.78Z"/><path class="cls-5" d="M64.72,94.86a26.25,26.25,0,0,1-6.27,4.73,24.4,24.4,0,0,1-4.74,1.89c-1.63.46-10.07,2.81-12.3-.8C39.78,98,42.68,93.29,43,92.75c1.79-2.84,3.35-2.77,4.8-5.73.6-1.17.86-2.78,1.36-5.93.83-5.25.48-5.76,1.13-8.58a46.65,46.65,0,0,1,2.76-8.25c1.74-4,2.87-5,3.71-8.58.42-1.76.47-2.89.82-2.9.7-.05,1.43,4.7,2.09,8.89.77,4.92.78,6.89.16,8.41a5.65,5.65,0,0,1-.31.66A8.15,8.15,0,0,1,57,73.49"/><path class="cls-5" d="M59.64,70.09h.21a14.75,14.75,0,0,1,5.64.55,6.57,6.57,0,0,1,1.65.65,6.11,6.11,0,0,1,1.1.78"/><path class="cls-5" d="M164.44,79.29a20.41,20.41,0,0,1,1.74,3.2c3.07,7.27,1.66,16.08-1.94,22.23-2.42,4.13-4.77,5.24-4.86,8.84,0,1.38-.15,5.93,2.59,8.64.6.58,1.48,1.24,1.52,2.26,0,1.26-1.2,2.15-2.06,2.92-1.38,1.21-2.68,3.69-5.29,8.63-2.25,4.27-2.09,5.05-3.66,6.36-1.41,1.18-2.83,1.63-5.18,2.38-1.4.44-5.93,1.88-6.47.86-.43-.78,1.64-2.77,3.24-4.32a26.64,26.64,0,0,0,3.34-3.23,15.67,15.67,0,0,0,1.72-3,45.61,45.61,0,0,0,2.81-7.88,24.28,24.28,0,0,0,.75-3.12c-.09-3-2.72-3.59-6.68-9.07a31.62,31.62,0,0,1-2.89-4.79c-.19-.4-.39-.81-.57-1.25a21,21,0,0,1-1.07-3c-.07-.24-.12-.48-.17-.71a18,18,0,0,1-.38-5.44"/><path class="cls-5" d="M68.11,73.22c0-.4.09-.79.15-1.16a41.6,41.6,0,0,1,1.79-7.69c.6-1.75.52-1.13,1.84-4.64,1.42-3.8,1.76-5.18,2.59-5.28,1.14-.15,2.32,2.27,2.59,2.8,1.53,3.14,1.11,5.67,1.07,12.94,0,4.57.13,5.84,1,7.24a9.77,9.77,0,0,0,4.54,3.66c3.18,1.45,6.43,1.6,14.46.43,6.51-.93,9.76-1.41,13.27-2.47,9.36-2.88,9.59-5.5,18.12-8A40.23,40.23,0,0,1,145,69.34c4.13.37,10.46,1,15.86,5.82l.53.5a20.69,20.69,0,0,1,3,3.63"/><path class="cls-5" d="M141.5,105.12l-.19.08c-1.22.52-2.94,1.19-5,1.89a71.09,71.09,0,0,1-11.56,2.84c-3.2.55-7.15,1.1-12.07,1.59-11.9,1.2-18.38,1.81-26.25.5l-1.58-.28a69.2,69.2,0,0,1-7.24-1.84"/><path class="cls-5" d="M164.44,79.29c1.41.3,4.35-2.26,6.26-5.1a18.17,18.17,0,0,0,1.46-16.49,21.44,21.44,0,0,0-5.52-7.46,31,31,0,0,0-8.07-5.49c-4.65-2.31-5.49-1.61-10.21-3.57s-11.25-4.63-12.45-9.71c-1-4,1.89-8,1.29-8.25s-2.9,3.47-3.57,4.54c-3.17,5.12-4.76,7.69-4.84,10.18-.18,5,3.88,8.73,6,10.7C139.46,53,145,54.5,150.31,55.91c8.64,2.28,11.89,1.16,14.39,4.38a9.78,9.78,0,0,1,1.47,9.06c-1.27,3.15-5,4.65-4.74,6.31a.53.53,0,0,0,0,.16,17.8,17.8,0,0,0,1.52,2,10.37,10.37,0,0,0,1.23,1.41l.21.07Z"/><path class="cls-5" d="M86.4,112.13a10.32,10.32,0,0,0-5.38.36c-.44.15-1,.43-2.15,1-.44.21-2.9,1.39-3.72,1.86-3.4,2-3.16,6.43-6.82,12.23-1.84,2.93-2.19,3.19-4.27,6.22a51.3,51.3,0,0,0-3.15,5.66c-.89,1.71-1.22,2.51-2.19,3.24-1.38,1-3.7,1.64-4.75.67s0-3.84.65-5.61c1.24-3.12,2.48-3.7,3.68-6.47.64-1.53.53-2,1.24-6,1.36-7.75,2.11-7.72,2.2-11.39a33.53,33.53,0,0,0-.85-8.09,28.71,28.71,0,0,0-2.44-6.21"/><path class="cls-5" d="M124.75,109.85s0,.05,0,.08a144.79,144.79,0,0,1-4,14.21c-2.13,6.34-3.21,9.52-5,11.76-2.21,2.83-4.39,4.16-4,5.94s3,3.16,5.29,2.79c2.9-.45,3.63-3.68,7.56-9.7,1.43-2.22.46-.45,8.19-10.47,3.17-4.11,5.5-7.23,8.2-11.22.85-1.26,1.54-2.3,2-3"/><path class="cls-6" d="M57,85.55c-1.43.56-3.68-.86-4.61-2.75-.42-.84-.78-2.19-.33-2.51s1.39.45,3.32,1.94c2.32,1.8,2.44,2.35,2.35,2.67A1.13,1.13,0,0,1,57,85.55Z"/><path class="cls-6" d="M61.56,85c1.07,1.1,3.7.73,5.33-.61.73-.59,1.62-1.67,1.33-2.15s-1.45-.17-3.82.4c-2.85.69-3.19,1.14-3.24,1.47A1.17,1.17,0,0,0,61.56,85Z"/><path class="cls-7" d="M27.76,150.9c2.62-2.78,4-6.16,6.91-12.94a81.32,81.32,0,0,0,3-8c2.16-6.85,2.46-11.25,2.81-11.22s1.12,6-.65,12.73c-.94,3.56-2.34,6.47-3.67,13-.65,3.18-.55,3.63-.43,3.67s.78-2.33,2.37-5a22.12,22.12,0,0,1,3.45-4.21,39.92,39.92,0,0,0,5.94-9.06,27.66,27.66,0,0,0,2.8-12.41,92.62,92.62,0,0,1-4.1,22.33c-.76,2.5-2.16,6.71-1.94,6.8s1.57-4.66,5.29-9.71c1.83-2.48,2.5-2.68,5.5-5.94,6-6.46,8.51-11.31,9.06-11s-1.86,5.17-4.53,14.24c-1.49,5.07-1.69,6.78-1.08,7.12s2-1.25,5.83-4.53c4.76-4.13,5.13-3.66,7.44-6,4.29-4.4,5.67-8.7,6-8.52s-1,4.48-3.23,9.06c-2.79,5.69-5.25,8.4-4.86,8.74s6.14-3.1,8.53-8.09a21.19,21.19,0,0,1,3.66-5.72c.69-.75,1-1,1.41-1.41,3.45-3.57,2.42-9.6,2.59-9.6s2,5.88-.44,11.92c-.86,2.1-2.2,4.11-3.18,8.15-.2.85-.86,3.58-.38,3.78s1.92-2.59,4.59-7c4.11-6.73,4.38-6,5.5-8.47,3.24-7.16,1.27-14.06,2-14.13.47,0,1.42,2.83,1.62,6s-.38,5.91-2.32,11.27c-2.53,7-5,11.79-4.75,11.92S90,136,92.71,132.83c3-3.48,4.13-3,7.07-6,1.72-1.79,5.3-5.53,6.26-10.9.42-2.39.16-4.22,1.51-7.12.84-1.81,2.25-3.93,2.8-3.72.87.33-.66,6.34-1.45,9.06-1.71,5.87-2.82,9.68-5.91,13.52a17.61,17.61,0,0,0-3.32,4.85c-1.07,2.58-1.64,6.14-.65,6.64,1.36.68,5.25-4.53,8.58-9,4.38-5.86,6.56-8.79,7.77-12.79,2.24-7.44.3-13.71.73-13.75s2,5.21,1.62,11.57a47.35,47.35,0,0,1-1.78,9.87c-1.49,5.6-3,8.58-2.59,8.82s3.21-3.28,5.42-7.2c4.07-7.24,5.9-14.78,7-19.26.74-3.17,1.11-5.37,1.37-5.34.5.06-.06,8.17-.32,12-.61,8.91-1.3,13.67-.81,13.76s1.27-2.69,1.86-5c2.47-9.77.92-17.75,1.29-17.8s1.89,5,2.35,12.71c.9,15.14-3.53,24.25-1.37,25.24,1.74.8,6.52-4.34,9-10a33,33,0,0,0,2.42-12s-1.89,7,.73,13.76c1.42,3.67,4.28,7.64,6.15,7.2,1.3-.31,1.39-2.58,2.75-7.77a55.17,55.17,0,0,1,4.37-12s-4.11,6.63-1.94,12.62c1.11,3,3.73,5.58,4.69,5.18.55-.23.2-1.26,1-3.08.7-1.63,1.36-1.72,2.43-3.4,1.65-2.59,1.53-4.7,2.11-4.69s.66,1.64,1.45,3.88c1.21,3.41,2.43,3.91,2.43,4.86,0,3.61-17,9-41.91,9.22-11.08.12-9.52-.92-24.93-1.29-21-.5-31.49-.75-42.23,2.1-9.3,2.47-18.74,4.37-28,7-1.9.53-7.5,2.12-7.93,1.13C22.34,155,25,153.89,27.76,150.9Z"/><path class="cls-5" d="M43.38,102.06a34,34,0,0,0,6.72-2.83,33.31,33.31,0,0,0,6.63-4.86"/><path class="cls-8" d="M43.31,96.62c-.72-.16-1.34.48-1.62.77-.14.14-.95,1-.73,1.74,0,.17.09.14.56.85s.43.72.57.77.32.08,1.5-.81c.8-.61.88-.78.93-.89a1.79,1.79,0,0,0-.16-1.38C44.23,97.4,43.92,96.76,43.31,96.62Z"/><path class="cls-9" d="M52.58,71.63a8.29,8.29,0,0,1,1.21-4.69A20.18,20.18,0,0,0,56,63.78c.59-1.2.62-1.77.89-1.78.6,0,1.62,2.91,1,5.67a7.66,7.66,0,0,1-1.54,3.07"/><path class="cls-9" d="M69.89,72.44a16.12,16.12,0,0,1,1.38-5.5c.14-.3,2-4.24,3.16-4,.47.1.47.77,1.37,4,.72,2.59.91,2.87,1,3.89a9.63,9.63,0,0,1-.56,3.8"/><ellipse class="cls-10" cx="54.55" cy="83.44" rx="0.6" ry="1.21"/><ellipse class="cls-10" cx="64.65" cy="84.08" rx="0.58" ry="1.13"/><path class="cls-1" d="M328.9,279.84c-4.63,2.87-24.33-18.33-34.2-24.35-1.47-.89-3-1.71-3-1.71-3.86-2.06-7.17-3.1-21.51-10.27S255,235.42,244.64,230.4c-16-7.79-15-6.13-27.34-12.36,0,0-12.69-6.4-31.09-22.47-2.16-1.89-6.39-5.67-5.62-9.37.27-1.3,1-2,6.74-6.36,7-5.34,8.12-6,9.37-5.62,3,1,2.54,6.9,4.49,7.12,2.59.28,4.78-10,7.49-9.74,2.17.18,2.54,7,3.93,6.93s4.1-7.82,2.63-16.11c-1.29-7.23-4.43-7.9-4.12-13.67.22-4.24,2-5.12,3-11.61a44.15,44.15,0,0,0,.38-9.17c-.56-13.9-4.91-15.38-3.56-21.92,1.84-8.94,11-11.38,9.55-16.47-.84-2.88-3.84-2.33-8-7.12a28,28,0,0,1-5.62-10.86c-2.44-7.74-.07-9-2.06-15.54-1.7-5.61-4.83-9.38-9.18-14.61-3.5-4.22-5.34-5.42-9.92-11.24-3.74-4.75-6.15-7.85-5.25-9.17.35-.5,1.38-1.07,12,1.87,4.55,1.26,7.6,2.26,10.49,3.18,13.92,4.44,14.26,3.86,16.29,5.43,4.23,3.29,5.43,7.88,7.49,15.73,1.35,5.18,1.14,7.06,3.37,22.1,1.22,8.26,1.78,11.06,3.93,12,2.8,1.2,4.91-2.24,11.61-3.94,1.76-.44,8.2-2,14.8.57,6.88,2.65,10.71,8.53,12.36,11,2.75,4.23,2.17,5.56,5.24,9,1.6,1.8,3.94,3.45,8.61,6.74,1.3.92,3.55,2.3,8.05,5.06,3.88,2.37,4.7,2.81,5.44,2.43,1.93-1-.48-5.61,2.24-10.29,1.52-2.62,2.94-2.33,3.75-4.69,1.05-3.07-1-4.53-1.13-8.42S306.81,82,310,77.4c2.43-3.51,5-7.23,7.49-6.74,1.78.35,2.74,2.68,3.18,3.75,2.08,5-.78,9.1,1.13,10.67,1.18,1,3.57.49,5-.56,3.48-2.46,1.13-7.44,4.69-10.67,1.78-1.63,4.74-2.53,6.55-1.5,2.14,1.21,2.14,4.79,2.06,10.67s-.86,6.9-.94,12c-.07,4.54-.12,8,1.31,12,2.15,5.92,5.05,5.74,7.49,12.36,1.09,2.92,2.21,6.1,1.13,9.74-.11.36-1.67,5.34-6.37,7.49-6.31,2.88-11.46-2.48-15.92.75-1.5,1.09-2.18,3-3.55,6.93-1.05,3-2.55,7.23-1.69,12,.6,3.3,1.71,3.43,3.93,8.24,1.41,3,4.05,8.74,3.94,15.73-.09,5.32-1.74,9.26-3.19,12.74-1,2.34-3,5.37-7.11,11.42-1.53,2.26-2.58,3.7-3.75,3.56-1.34-.17-2.07-2.32-3.18-5.62-.95-2.83-1.59-4.8-.75-6.74.51-1.19,1-1.09,1.68-2.44,1-2,.62-3.75.57-5.61-.12-4.29,1.68-4.73,1.87-8.43s-1.31-9.24-4.5-10.3-5.9,3.29-11.79,3.37a3.89,3.89,0,0,0-2.25.56c-1.72,1.17-1.67,3.76-1.87,5.81-.49,4.77-2.26,5.12-3.37,9.73-1.35,5.54-.07,10.3.93,14.05,1.31,4.89,2.74,12.33,6.37,12.92,1.75.28,2.77-1.21,4.49-.56s2.41,2.74,3.19,5.62c2.05,7.62,2.39,12.32,3.18,12.36s.73-6.55,5.43-10.87c.35-.32,2.77-2.54,3.93-1.87s.35,3.17-.37,9.36c-.48,4.12-.76,8.17-.38,8.24s.93-6.07,5.44-11.61c1.37-1.69,3.42-4.21,4.68-3.74,2.63,1-1.05,14.05-1.31,31.65-.11,6.94-.14,10.48,1,13.43a16.91,16.91,0,0,1,1.76,7.35C330.16,276.83,330.1,279.09,328.9,279.84Z"/><path class="cls-11" d="M324.47,268c-1.27-4.12-1-8.27-.58-16.56a91.84,91.84,0,0,1,.9-9.6c1.21-8,3.09-12.64,2.72-12.78s-4.12,5.53-5.66,13.24c-.82,4.07-.84,7.72-2.7,15-.92,3.55-1.24,4-1.39,3.93s.37-2.74.06-6.21a24.92,24.92,0,0,0-1.42-6,45.08,45.08,0,0,1-1.52-12.14,31.17,31.17,0,0,1,3.31-14,104.43,104.43,0,0,0-6.92,24.69c-.47,2.92-1.13,7.89-1.4,7.86s.72-5.5-.55-12.48c-.63-3.42-1.21-4-2.64-8.75-2.84-9.51-3-15.7-3.74-15.66s-.67,6.17-2.46,16.7c-1,5.88-1.65,7.71-2.44,7.76s-1.45-2.28-3.66-7.49c-2.79-6.55-3.39-6.26-4.56-9.82-2.16-6.59-1.44-11.64-1.9-11.65s-1.21,5-1.21,10.8c0,7.17,1.16,11.13.59,11.28-.75.2-4.7-6.19-4.64-12.44a24.08,24.08,0,0,0-.88-7.62c-.32-1.1-.54-1.53-.73-2.12-1.73-5.34,2.31-10.95,2.14-11s-5,4.94-5.48,12.31c-.16,2.56.2,5.27-.81,9.85-.21,1-.9,4.06-1.49,4s-.66-3.58-1.2-9.34c-.83-8.87-1.48-8.26-1.38-11.32.27-8.87,5.68-14.9,5-15.33-.45-.28-2.85,2.17-4.63,5.32s-2.55,6.19-3.24,12.59c-.91,8.36-.78,14.45-1.1,14.46s-.09-3.49-1.3-8c-1.35-5-2.71-5.07-4.17-9.64-.86-2.67-2.64-8.24-.95-14.16.76-2.64,1.93-4.37,2-8,.05-2.26-.33-5.11-1-5.17-1.05-.09-2.48,6.76-3,9.92-1.18,6.8-2,11.21-.71,16.64.47,2.09,1.12,3.78.95,6.57-.19,3.15-1.37,7-2.63,7.05-1.72,0-3.08-7.19-4.25-13.36-1.53-8.12-2.3-12.18-1.54-16.83,1.42-8.67,6.5-14.06,6.09-14.32s-4.57,4.32-7.38,10.94a52.94,52.94,0,0,0-3.1,10.9c-1.27,6.42-1.18,10.21-1.74,10.23s-1.64-4.91-1.93-10c-.54-9.36,1.34-17.92,2.49-23,.81-3.58,1.54-6,1.26-6.1-.54-.18-4,8.32-5.66,12.4-3.8,9.33-5.46,14.5-6,14.35s0-3.36.6-6c2.35-11.14,7.87-18.47,7.52-18.7s-4.39,4.12-8.69,11.72c-8.42,14.92-8.45,26.36-11.13,26.3-2.17-.05-4.46-7.64-4.13-14.64a37.38,37.38,0,0,1,3.48-13.35s-1.53,8-7.57,13.59c-3.25,3-8.13,5.64-9.81,4.26-1.16-1-.12-3.3,1.06-9.25,1.81-9.05,1.53-14.31,1.51-14.32s.89,8.78-4.29,13.77c-2.64,2.56-6.55,3.82-7.33,2.93-.45-.5.42-1.37.54-3.6.1-2-.53-2.42-.78-4.65-.38-3.46.78-5.54.2-5.81s-1.49,1.34-3.41,3.22c-2.91,2.86-4.4,2.75-4.87,3.72-1.79,3.67,12.8,17.54,38,30.16C238.3,220.86,237.23,219,253,226.3c21.55,9.9,32.33,14.86,41.81,23.09,8.21,7.11,16.85,13.72,25,20.95,1.66,1.48,6.56,5.86,7.48,5.08C327.94,274.87,325.84,272.43,324.47,268Z"/><path d="M345.29,124.76a9.44,9.44,0,0,0,.17-1.84c.53.57.79.92.77,1.34a1.46,1.46,0,0,1-.73,1A3.52,3.52,0,0,0,345.29,124.76Z"/><path d="M345.29,124.76a3.52,3.52,0,0,1,.21.52,1.87,1.87,0,0,1-.39.22C345.18,125.27,345.23,125,345.29,124.76Z"/><path d="M345.29,124.76c-.06.27-.11.51-.18.74a2.52,2.52,0,0,1-.89.24h-.13c.16-.9.14-1.67.48-1.69S345,124.31,345.29,124.76Z"/><path d="M345.24,122.69c.08.08.14.16.22.23a9.44,9.44,0,0,1-.17,1.84c-.25-.45-.52-.72-.72-.7s-.32.79-.48,1.69a2.84,2.84,0,0,1-1.74-.62c-.4-.28-1.22-.84-1.18-1.56,0-.48.39-.81,1-1.36s.83-.71,1.22-.74C344,121.4,344.56,122,345.24,122.69Z"/><path class="cls-3" d="M333,85c1.25-1.55,2.36-2.92,2.58-2.77s-1.23,1.85-1.34,4.56c-.06,1.28.23,1.8-.08,2.88a5.37,5.37,0,0,1-1.69,2.53h0a7.72,7.72,0,0,0-.84-.86,9.42,9.42,0,0,0-2.39-1.47l.11-.24C330.22,88.48,331.45,86.89,333,85Z"/><path class="cls-12" d="M336.35,75.91C337,76,337,80,337,85.3c0,2.35-.06,4.11-1.08,6A9.7,9.7,0,0,1,333.84,94l-.17.09a11.78,11.78,0,0,0-1.24-1.87h0a5.37,5.37,0,0,0,1.69-2.53c.31-1.08,0-1.6.08-2.88.11-2.71,1.6-4.4,1.34-4.56S334.23,83.46,333,85c-1.53,1.88-2.76,3.47-3.67,4.63l-.11.24a12,12,0,0,0-2.2-.66v-.07c.7-.84,1.82-2.13,3.25-3.68a43.76,43.76,0,0,0,3.34-3.65C335.91,78.64,335.82,75.86,336.35,75.91Z"/><path d="M320.93,106.35c.41,0,.78.62.84,1.43s-.2,1.51-.61,1.55-.76-.62-.83-1.43S320.53,106.38,320.93,106.35Z"/><path class="cls-1" d="M321.77,107.78c-.06-.81-.43-1.46-.84-1.43s-.66.73-.6,1.55.44,1.46.83,1.43S321.84,108.6,321.77,107.78Zm-1-1.64c2.3.66,4.15,3,3.71,3.74s-3.56.24-5.7-1.07c-.48-.3-2.13-1.3-1.94-2S319.13,105.69,320.78,106.14Z"/><path class="cls-3" d="M311.77,88.58c.66-1.15,1.92-2.1,2.77-4.52.19-.54.36-1.15.54-1.14s.18,1.53.6,4.08c.19,1.1.33,1.6.49,2.42.05.25.1.58.15,1a21.88,21.88,0,0,1,.18,2.29,3.35,3.35,0,0,0-3,.46,3.2,3.2,0,0,0-1.14,2.44C310.74,91.86,311.09,89.79,311.77,88.58Z"/><path class="cls-12" d="M326.43,183a32.06,32.06,0,0,1-2.95,6.84c-3.11,5.92-4.14,5.71-5.9,10-1,2.43-1.4,4.34-2.14,4.29s-1.1-1.72-1.54-3.44c-.57-2.2-.94-3.62-.19-4.58s1.91-.46,2.62-1.39-.21-2.39-.36-4.49.67-2.49,2.25-6.91c.51-1.39.89-2.63,1.18-3.66.57-.37.94-3.32.83-3.34s-.25,1.22-.83,3.34l-.11,0c-.6,0-1.06-2.72-1.6-4.78a29.42,29.42,0,0,0-6.39-11.53l-.05-.06q.24-.15.48-.33a21.56,21.56,0,0,0,5.49-6.13,16.42,16.42,0,0,0,.91,2.59,18.33,18.33,0,0,0,3.63,5.21c.76.85,5.38,6,5.65,12.21A18.74,18.74,0,0,1,326.43,183Z"/><path class="cls-12" d="M324.49,109.88c.44-.79-1.41-3.08-3.71-3.74-1.65-.45-3.72-.13-3.93.62s1.46,1.75,1.94,2C320.93,110.12,324.05,110.74,324.49,109.88ZM308.51,89c1-4,2.89-6.68,5.35-10,2.17-3,3.25-4.43,4.07-4.18,1.38.45,1.1,5.56.86,9.75-.05.77-.16,2.61-.36,4.79,0,.3-.05.58-.08.85h.06a14.93,14.93,0,0,1,8.59-1,12,12,0,0,1,2.2.66,9.42,9.42,0,0,1,2.39,1.47,7.72,7.72,0,0,1,.84.86,11.78,11.78,0,0,1,1.24,1.87,18.87,18.87,0,0,1,1,2.16c2.06,5.24.44,6.42,1.94,10.61,1,2.76,2.8,5.14,6.41,9.88a10.4,10.4,0,0,1,2.34,4.83,7.06,7.06,0,0,1,.11,1.36c-.08-.07-.14-.15-.22-.23-.68-.73-1.2-1.29-1.86-1.22-.39,0-.67.27-1.22.74s-1,.88-1,1.36c0,.72.78,1.28,1.18,1.56a2.84,2.84,0,0,0,1.74.62h.13a2.52,2.52,0,0,0,.89-.24,1.87,1.87,0,0,0,.39-.22,4.83,4.83,0,0,1,.31,2c-.23,2.85-3.56,5.06-6.26,6-4.08,1.44-6.17-.25-11.74,0a26.5,26.5,0,0,0-3.76.42,16.73,16.73,0,0,0-2.07,3c-3.42,6.2-.49,10-3.11,16.95a22.11,22.11,0,0,1-7.14,9.47q-.24.18-.48.33c-2.87,2-5.82,2.92-9.09,3.91a48.55,48.55,0,0,1-6.31,1.48L293,175.53c-3,7.16-3,7-3.22,7.77-1.43,5.29-1,9.81-.34,16.28.37,3.75.56,5.61,1.2,7.37a46.84,46.84,0,0,0,5.6,9.75c1.56,2.22,3,4,2.57,6.16-.2.92-.79,2-1.19,1.93s-.29-1.17-.92-2.32c-1-1.86-3.36-2.54-3.54-2.29s4.28,3,3.59,5.1a2.16,2.16,0,0,1-1.14,1.19c-.91.34-2-.21-6.19-4-3.56-3.23-4-3.93-4.28-4.79-.65-1.93.12-2.77.19-5.15s-1.39-5.65-4.36-11.89c-1.86-3.91-2.72-5.31-2.3-7.38.34-1.64,1.16-2.13,2.13-4,1.63-3,1.64-5.94,1.64-8.57a21.2,21.2,0,0,0-1.94-8.8,12.65,12.65,0,0,1-1.95.39c-4.3.45-7.64-1.92-10.18-3.24-4.16-2.18-5.81-4.31-15.1-14.75-8.07-9.09-9.37-10.33-11.93-14.09a81.4,81.4,0,0,1-4.35-7.09,18.12,18.12,0,0,1-1.84,3.09,48.1,48.1,0,0,1-5.25,5.28c-5.52,5.13-7,5.38-7.92,7.77-.68,1.83.09,1.94,1.47,10.43s.72,9.25,2.21,11.56c1,1.49,2.35,3,2.23,5.23,0,1.25-.58,2.82-1.41,3a1.47,1.47,0,0,1-1.11-.48,8.78,8.78,0,0,0-2.22-3.39,10.38,10.38,0,0,0,2.22,3.39,1.9,1.9,0,0,1,0,1.39,1.47,1.47,0,0,1-1.23.83c-.53,0-.87-.65-1-.9a30.93,30.93,0,0,1-3.9-12.16C218.56,155,213.16,154.2,215,146c1.26-5.56,3.74-5.35,4.52-10.88s-1.71-6.73-2.94-15.4c-.64-4.49-1.56-11.7,1.69-18.72a20.75,20.75,0,0,1,4.36-6.7c3-3,5.81-3.63,5.71-5.1s-2.55-1.65-5.91-3.45a27.35,27.35,0,0,1-9.21-8.31,28.18,28.18,0,0,1-4.8-11.11c-.83-4.79.53-5.37-.5-9.5-.49-2-1.19-3.31-5.43-9.84-3.81-5.84-5.71-8.77-6.66-10-6-7.68-11.15-10.73-10.48-11.89.48-.81,3.43.07,8,1.57,13.18,4.4,19.78,6.59,22.2,8.76,6,5.36,7.62,12.83,9.17,20,1.51,7,1.06,11.84,4.37,21.17,1.51,4.24,3.16,7.64,6,8.32,2.09.5,3.4-.78,6.67-2.24,1.36-.61,9.86-4.41,16.69-2.29,3.2,1,5.33,3.53,9.71,8.51,5.45,6.17,4.48,7.58,8.93,12.38,3.5,3.75,7.3,5.93,14.87,10.3,7.2,4.14,9,4.2,10.06,3.49,1.55-1.08,0-3,1.68-8.09.87-2.68,5-7.3,5.85-9.14a1.91,1.91,0,0,0,.18-1.24,2.06,2.06,0,0,0-.91-1.11C307.71,94.71,307.86,91.74,308.51,89Zm6-5c-.85,2.42-2.11,3.37-2.77,4.52s-1,3.28.56,7a3.2,3.2,0,0,1,1.14-2.44,3.35,3.35,0,0,1,3-.46,21.88,21.88,0,0,0-.18-2.29c-.05-.42-.1-.75-.15-1-.16-.82-.3-1.32-.49-2.42-.42-2.55-.31-4.06-.6-4.08S314.73,83.52,314.54,84.06Z"/><path class="cls-5" d="M235.4,130c.45.9,1,1.94,1.59,3.07a81.4,81.4,0,0,0,4.35,7.09c2.56,3.76,3.86,5,11.93,14.09,9.29,10.44,10.94,12.57,15.1,14.75,2.54,1.32,5.88,3.69,10.18,3.24a12.65,12.65,0,0,0,1.95-.39,11.73,11.73,0,0,0,1.18-.42"/><path class="cls-5" d="M277.8,148.31a33.45,33.45,0,0,0,.28,17.33,63,63,0,0,0,2.42,6.25,21.2,21.2,0,0,1,1.94,8.8c0,2.63,0,5.54-1.64,8.57-1,1.84-1.79,2.33-2.13,4-.42,2.07.44,3.47,2.3,7.38,3,6.24,4.46,9.4,4.36,11.89s-.84,3.22-.19,5.15c.29.86.72,1.56,4.28,4.79,4.22,3.82,5.28,4.37,6.19,4a2.16,2.16,0,0,0,1.14-1.19c.69-2.09-3.87-4.71-3.59-5.1s2.51.43,3.54,2.29c.63,1.15.52,2.26.92,2.32s1-1,1.19-1.93c.45-2.12-1-3.94-2.57-6.16a46.84,46.84,0,0,1-5.6-9.75c-.64-1.76-.83-3.62-1.2-7.37-.65-6.47-1.09-11,.34-16.28.19-.74.18-.61,3.22-7.77l2.85-6.77c1.71-4.14,1.86-4.72,2-5.35.58-3.2.42-8.38-4.45-15.6"/><path class="cls-5" d="M294,169c.54-.07,1.15-.15,1.81-.26a48.55,48.55,0,0,0,6.31-1.48c3.27-1,6.22-1.9,9.09-3.91q.24-.15.48-.33a22.11,22.11,0,0,0,7.14-9.47c2.62-6.91-.31-10.75,3.11-16.95a16.73,16.73,0,0,1,2.07-3,15.06,15.06,0,0,1,1.26-1.32"/><path class="cls-5" d="M318.68,135.16a28.48,28.48,0,0,1,9.13-1.94c5.57-.21,7.66,1.48,11.74,0,2.7-.94,6-3.15,6.26-6a4.83,4.83,0,0,0-.31-2,3.52,3.52,0,0,0-.21-.52c-.25-.45-.52-.72-.72-.7s-.32.79-.48,1.69a3.72,3.72,0,0,1-.94,2.09c-1.41,1.43-4.11.79-9.95-.68-4.57-1.15-8.16-2.07-10.23-2.61"/><path class="cls-5" d="M318.41,90.2a14.93,14.93,0,0,1,8.59-1,12,12,0,0,1,2.2.66,9.42,9.42,0,0,1,2.39,1.47,7.72,7.72,0,0,1,.84.86,11.78,11.78,0,0,1,1.24,1.87,18.87,18.87,0,0,1,1,2.16c2.06,5.24.44,6.42,1.94,10.61,1,2.76,2.8,5.14,6.41,9.88a10.4,10.4,0,0,1,2.34,4.83,7.06,7.06,0,0,1,.11,1.36,9.44,9.44,0,0,1-.17,1.84c-.06.27-.11.51-.18.74a4.84,4.84,0,0,1-.14.49"/><path class="cls-5" d="M225.37,179a1.47,1.47,0,0,0,1.11.48c.83-.14,1.36-1.71,1.41-3,.12-2.25-1.28-3.74-2.23-5.23-1.49-2.31-.81-3-2.21-11.56s-2.15-8.6-1.47-10.43c.89-2.39,2.4-2.64,7.92-7.77a48.1,48.1,0,0,0,5.25-5.28,18.12,18.12,0,0,0,1.84-3.09c2.32-4.92,2.39-10.43,2.44-15.49a58,58,0,0,0-.79-10"/><path class="cls-5" d="M225.37,179a8.78,8.78,0,0,0-2.22-3.39A10.38,10.38,0,0,0,225.37,179Z"/><path class="cls-5" d="M318.14,92.48c.06-.56.13-1.35.21-2.29,0-.27.06-.55.08-.85.2-2.18.31-4,.36-4.79.24-4.19.52-9.3-.86-9.75-.82-.25-1.9,1.23-4.07,4.18-2.46,3.37-4.38,6-5.35,10-.65,2.71-.8,5.68.34,6.49a2.06,2.06,0,0,1,.91,1.11,1.91,1.91,0,0,1-.18,1.24c-.87,1.84-5,6.46-5.85,9.14-1.64,5.06-.13,7-1.68,8.09-1,.71-2.86.65-10.06-3.49-7.57-4.37-11.37-6.55-14.87-10.3-4.45-4.8-3.48-6.21-8.93-12.38-4.38-5-6.51-7.52-9.71-8.51-6.83-2.12-15.33,1.68-16.69,2.29-3.27,1.46-4.58,2.74-6.67,2.24-2.88-.68-4.53-4.08-6-8.32-3.31-9.33-2.86-14.13-4.37-21.17-1.55-7.21-3.17-14.68-9.17-20-2.42-2.17-9-4.36-22.2-8.76-4.53-1.5-7.48-2.38-8-1.57-.67,1.16,4.47,4.21,10.48,11.89.95,1.2,2.85,4.13,6.66,10,4.24,6.53,4.94,7.87,5.43,9.84,1,4.13-.33,4.71.5,9.5a28.18,28.18,0,0,0,4.8,11.11,27.35,27.35,0,0,0,9.21,8.31c3.36,1.8,5.8,2.08,5.91,3.45s-2.69,2.12-5.71,5.1a20.75,20.75,0,0,0-4.36,6.7c-3.25,7-2.33,14.23-1.69,18.72,1.23,8.67,3.72,9.73,2.94,15.4S216.29,140.4,215,146c-1.87,8.24,3.53,9,4.2,22.15a30.93,30.93,0,0,0,3.9,12.16c.14.25.48.85,1,.9a1.47,1.47,0,0,0,1.23-.83,1.9,1.9,0,0,0,0-1.39"/><path class="cls-5" d="M312.33,95.61c-1.59-3.75-1.24-5.82-.56-7s1.92-2.1,2.77-4.52c.19-.54.36-1.15.54-1.14s.18,1.53.6,4.08c.19,1.1.33,1.6.49,2.42.05.25.1.58.15,1a21.88,21.88,0,0,1,.18,2.29,3.35,3.35,0,0,0-3,.46A3.2,3.2,0,0,0,312.33,95.61Z"/><path class="cls-5" d="M327,89.15c.7-.84,1.82-2.13,3.25-3.68a43.76,43.76,0,0,0,3.34-3.65c2.31-3.18,2.22-6,2.75-5.91S337,80,337,85.3c0,2.35-.06,4.11-1.08,6A9.7,9.7,0,0,1,333.84,94"/><path class="cls-5" d="M329.31,89.64c.91-1.16,2.14-2.75,3.67-4.63,1.25-1.55,2.36-2.92,2.58-2.77s-1.23,1.85-1.34,4.56c-.06,1.28.23,1.8-.08,2.88a5.37,5.37,0,0,1-1.69,2.53"/><path class="cls-5" d="M324.49,109.88c-.44.86-3.56.24-5.7-1.07-.48-.3-2.13-1.3-1.94-2s2.28-1.07,3.93-.62C323.08,106.8,324.93,109.09,324.49,109.88Z"/><path class="cls-5" d="M317.53,102.87a23,23,0,0,1,6.6,3.2,24,24,0,0,1,3,2.5"/><path class="cls-5" d="M329.59,104.77a67,67,0,0,0,3.28,5.86c1,1.56,2,3,3,4.29"/><path class="cls-5" d="M345.46,122.92c-.08-.07-.14-.15-.22-.23-.68-.73-1.2-1.29-1.86-1.22-.39,0-.67.27-1.22.74s-1,.88-1,1.36c0,.72.78,1.28,1.18,1.56a2.84,2.84,0,0,0,1.74.62h.13a2.52,2.52,0,0,0,.89-.24,1.87,1.87,0,0,0,.39-.22,1.46,1.46,0,0,0,.73-1C346.25,123.84,346,123.49,345.46,122.92Z"/><path class="cls-5" d="M321.77,107.78c.07.82-.2,1.51-.61,1.55s-.76-.62-.83-1.43.2-1.52.6-1.55S321.71,107,321.77,107.78Z"/><path class="cls-5" d="M319.4,179.7c-.29,1-.67,2.27-1.18,3.66-1.58,4.42-2.4,4.87-2.25,6.91s1.15,3.41.36,4.49-1.85.41-2.62,1.39-.38,2.38.19,4.58c.44,1.72.87,3.42,1.54,3.44s1.15-1.86,2.14-4.29c1.76-4.29,2.79-4.08,5.9-10a32.06,32.06,0,0,0,2.95-6.84,18.74,18.74,0,0,0,1-6.12c-.27-6.18-4.89-11.36-5.65-12.21a18.33,18.33,0,0,1-3.63-5.21,16.42,16.42,0,0,1-.91-2.59,1.36,1.36,0,0,0,0-.17"/><path class="cls-5" d="M319.4,179.7c.57-.37.94-3.32.83-3.34S320,177.58,319.4,179.7Z"/><path class="cls-5" d="M311.3,163.43A29.42,29.42,0,0,1,317.69,175c.54,2.06,1,4.79,1.6,4.78l.11,0"/><path class="cls-5" d="M325.35,177.63a10.75,10.75,0,0,1,0,2.93,10.45,10.45,0,0,1-1.19,3.5"/></svg>