<svg xmlns="http://www.w3.org/2000/svg" viewBox="0 0 175 369" width="175" height="369">
	<style>
		tspan { white-space:pre }
		.shp0 { fill: #1a0b78 } 
		.shp1 { fill: #000000 } 
		.shp2 { fill: #fa3f10;stroke: #000000;stroke-width: 0.5 } 
		.shp3 { fill: #fa0f0c } 
		.shp4 { fill: #26120a } 
	</style>
	<path id="Layer" class="shp0" d="M164.09 340.35C163.76 343.42 161.4 344.14 161.89 346.25C162.46 348.73 165.89 348.45 168.89 352.34C169.16 352.69 169.58 353.34 170.04 353.22C170.79 353.1 170.8 351.22 171.71 348.1C172.62 344.98 173.14 344.96 172.94 343.96C172.52 341.77 169.94 341.96 168.1 339.2C167.29 338.03 167.23 337.2 166.51 332.59C166.12 330.06 165.63 327.59 165.28 325.01C165.1 323.69 164.88 322.38 164.64 321.08C164.39 319.77 164.12 318.47 163.82 317.17C163.52 315.88 163.19 314.59 162.83 313.31C162.47 312.03 162.08 310.76 161.66 309.5C159.46 302.92 158.35 299.63 155.93 296.45C155.43 295.86 154.96 295.25 154.51 294.63C154.07 294 153.65 293.35 153.26 292.69C152.86 292.02 152.5 291.34 152.17 290.65C151.84 289.95 151.53 289.24 151.26 288.52C151.12 288.17 151 287.81 150.89 287.45C150.78 287.09 150.68 286.72 150.6 286.35C150.51 285.98 150.44 285.61 150.39 285.24C150.33 284.86 150.29 284.49 150.26 284.11C150.25 283.46 150.28 282.81 150.35 282.16C150.42 281.52 150.54 280.87 150.69 280.24C150.85 279.61 151.05 278.99 151.28 278.38C151.52 277.78 151.8 277.19 152.11 276.62C154.26 272.28 155.36 267.49 157.05 262.95C160.59 253.4 162.36 248.5 162.16 242.55C162.15 241.9 162.12 241.25 162.07 240.61C162.01 239.96 161.94 239.31 161.84 238.67C161.74 238.03 161.62 237.39 161.47 236.76C161.33 236.13 161.16 235.5 160.97 234.88C159.61 230.46 157.89 229.02 153.7 221.79C151.03 217.19 149.7 214.89 149.2 212.93C148.11 208.61 149.07 206.1 150.13 199.05C151.47 190.05 152.13 185.62 151.32 181.05C151.04 179.62 150.67 178.2 150.2 176.82C149.74 175.43 149.19 174.08 148.56 172.76C147.92 171.45 147.2 170.18 146.4 168.95C145.61 167.73 144.73 166.56 143.78 165.45C142.98 164.5 142.15 163.59 141.29 162.7C140.42 161.81 139.52 160.96 138.59 160.14C137.66 159.33 136.7 158.54 135.72 157.8C134.73 157.05 133.71 156.34 132.67 155.67C132.11 155.37 131.57 155.06 131.03 154.73C130.49 154.41 129.97 154.06 129.45 153.7C128.93 153.34 128.43 152.96 127.93 152.57C127.44 152.18 126.96 151.77 126.49 151.35C126.01 150.88 125.55 150.4 125.1 149.9C124.65 149.4 124.23 148.89 123.82 148.36C123.41 147.83 123.02 147.28 122.65 146.72C122.28 146.16 121.93 145.59 121.6 145.01C118.5 139.63 119.6 137.85 116.97 133.77C116.1 132.4 114.19 130.7 110.36 127.29C104.68 122.23 101.84 119.7 98.99 118.43C94.25 116.32 93.5 117.84 89.47 115.52C86.19 113.64 86.29 112.41 81.27 108.52C80.69 108.07 80.09 107.62 79.49 107.19C78.89 106.76 78.28 106.34 77.66 105.93C77.05 105.53 76.42 105.13 75.79 104.75C75.16 104.36 74.52 103.99 73.87 103.63C68.51 100.68 67.93 101.63 63.95 99.27C59.97 96.91 57.31 94.05 54.03 90.41C51.14 87.2 49.69 85.6 49.03 83.71C47.61 79.79 49.03 77.5 49.56 71.02C49.63 70 49.66 68.99 49.67 67.97C49.68 66.95 49.67 65.94 49.62 64.92C49.58 63.9 49.51 62.89 49.41 61.88C49.31 60.87 49.18 59.86 49.03 58.85C48.16 53.36 47.18 47.12 42.51 42.99C41.18 41.82 41.51 42.51 35.63 38.93C30.37 35.72 27.75 34.11 26.46 32.58C23.58 29.16 24.58 27.36 21.17 21.65C20.81 21.07 20.43 20.5 20.04 19.94C19.66 19.38 19.26 18.83 18.84 18.29C18.43 17.74 18.01 17.21 17.58 16.68C17.14 16.15 16.7 15.64 16.24 15.13C11.54 9.59 2.51 -0.12 1.24 0.85C0.69 1.28 2.24 3.3 4.24 8.61C5.82 12.72 5.98 14.25 8.65 24.48C10.65 32.27 11.65 36.17 12.17 36.99C13.82 39.8 17.88 42.9 25.92 48.99C31.65 53.32 34.34 54.99 36.15 59.04C36.39 59.6 36.61 60.16 36.79 60.74C36.98 61.31 37.14 61.9 37.28 62.49C37.41 63.08 37.52 63.68 37.59 64.28C37.67 64.88 37.72 65.48 37.74 66.09C38.08 71.49 36.33 73.31 35.09 80.19C34.09 85.86 33.47 89.19 34.74 93.06C36.21 97.56 39.39 100.23 43.02 103.29C45.81 105.64 46.1 105.29 55.72 111.58C61.81 115.58 62.91 116.51 63.83 118.27C65.55 121.57 64.59 123.75 66.83 126.74C67.83 128.01 69.03 129.05 72.65 130.79C80.19 134.43 82.42 133.61 86.76 135.9C92.67 139.03 95.68 144.33 96.76 146.31C100.44 152.77 98.37 155.25 102.23 160.94C103.84 163.31 106.23 165.22 111.04 169.05C119.33 175.65 121.16 175.44 124.44 179.45C125.15 180.3 125.8 181.18 126.4 182.11C126.99 183.04 127.53 184 128 184.99C128.48 185.98 128.89 187.01 129.24 188.05C129.59 189.1 129.87 190.16 130.09 191.24C131.49 198.72 128.09 200.62 128.68 209.58C128.74 210.73 128.86 211.87 129.04 213C129.22 214.14 129.46 215.26 129.76 216.37C130.05 217.48 130.41 218.58 130.82 219.65C131.23 220.72 131.69 221.78 132.21 222.8C135.88 229.85 139.9 230.55 142.79 238.14C143.79 240.8 144.74 243.28 144.55 246.6C144.17 253.2 139.79 254.74 136.79 264.05C136.54 264.82 136.32 265.6 136.12 266.38C135.92 267.17 135.75 267.96 135.6 268.75C135.45 269.55 135.33 270.35 135.24 271.15C135.14 271.96 135.07 272.76 135.03 273.57C134.87 277.01 134.58 283.16 137.85 288.57C140.7 293.32 143.26 292.52 147.55 297.52C149.98 300.35 151.44 304.23 154.25 311.89C159.92 327.32 157.71 328.23 161.39 333.39C162.5 334.97 164.46 337.35 164.09 340.35Z" />
	<path id="Layer" fill-rule="evenodd" class="shp1" d="M157.42 321.6C156.82 319.44 156.15 317.3 155.42 315.17C154.69 313.04 153.92 310.94 153.13 308.83C152.34 306.72 151.54 304.58 150.61 302.58C150.39 302.06 150.15 301.56 149.89 301.06C149.63 300.56 149.35 300.08 149.05 299.61C148.75 299.13 148.43 298.68 148.09 298.23C147.75 297.79 147.39 297.35 147.01 296.94C146.82 296.73 146.63 296.53 146.43 296.33C146.23 296.13 146.03 295.94 145.83 295.75C145.62 295.56 145.41 295.37 145.2 295.19C144.99 295.01 144.77 294.83 144.55 294.66C143.67 293.97 142.72 293.37 141.79 292.74C141.55 292.59 141.32 292.42 141.1 292.26C140.87 292.09 140.65 291.91 140.43 291.72C140.22 291.54 140.01 291.35 139.81 291.15C139.61 290.95 139.42 290.74 139.23 290.53C139.05 290.31 138.87 290.09 138.7 289.87C138.53 289.64 138.37 289.41 138.21 289.17C138.06 288.94 137.9 288.7 137.76 288.45C137.62 288.21 137.48 287.96 137.35 287.71C137.09 287.21 136.85 286.7 136.64 286.18C136.42 285.66 136.22 285.13 136.05 284.59C135.87 284.05 135.72 283.51 135.59 282.96C135.46 282.41 135.36 281.86 135.27 281.3C135.19 280.74 135.12 280.18 135.07 279.62C135.01 279.06 134.97 278.5 134.95 277.94C134.92 277.38 134.91 276.81 134.91 276.25C134.91 275.69 134.92 275.12 134.95 274.56C134.97 274 134.99 273.43 135.03 272.87C135.07 272.31 135.13 271.75 135.19 271.19C135.26 270.63 135.33 270.07 135.42 269.51C135.51 268.96 135.62 268.4 135.73 267.85C135.96 266.75 136.24 265.65 136.56 264.57C136.89 263.49 137.27 262.43 137.7 261.39C138.13 260.35 138.61 259.32 139.14 258.32C139.66 257.33 140.23 256.35 140.85 255.41C141.18 254.96 141.49 254.49 141.78 254.02C142.08 253.54 142.35 253.06 142.61 252.57C142.87 252.07 143.12 251.57 143.34 251.06C143.57 250.55 143.78 250.03 143.97 249.51C144.13 248.98 144.25 248.43 144.34 247.88C144.42 247.33 144.48 246.78 144.5 246.22C144.52 245.66 144.51 245.11 144.47 244.55C144.42 244 144.34 243.45 144.23 242.9C143.18 238.59 141.44 234.29 138.36 231.01C137.97 230.6 137.58 230.19 137.21 229.77C136.83 229.36 136.46 228.93 136.09 228.5C135.73 228.07 135.37 227.64 135.02 227.2C134.66 226.76 134.32 226.31 133.98 225.86C133.66 225.39 133.35 224.92 133.05 224.43C132.76 223.95 132.48 223.46 132.21 222.95C131.95 222.45 131.7 221.94 131.46 221.43C131.23 220.91 131.01 220.39 130.8 219.86C130.4 218.8 130.05 217.73 129.75 216.64C129.45 215.55 129.2 214.45 129.01 213.34C128.82 212.22 128.68 211.1 128.6 209.98C128.51 208.85 128.49 207.72 128.51 206.59C128.53 206.03 128.57 205.46 128.62 204.9C128.67 204.34 128.74 203.78 128.83 203.22C128.91 202.66 129.01 202.1 129.12 201.55C129.24 201 129.37 200.45 129.51 199.9C129.67 199.36 129.8 198.82 129.9 198.28C130.01 197.73 130.09 197.18 130.15 196.63C130.21 196.07 130.25 195.52 130.26 194.96C130.27 194.4 130.26 193.85 130.22 193.29C129.76 172.7 101.29 171.93 98.85 151.99C98.72 151.45 98.57 150.91 98.4 150.38C98.23 149.85 98.04 149.33 97.83 148.82C97.62 148.3 97.38 147.79 97.13 147.3C96.88 146.8 96.61 146.32 96.32 145.84C96.05 145.36 95.76 144.88 95.46 144.41C95.15 143.94 94.84 143.48 94.51 143.03C94.18 142.58 93.84 142.15 93.48 141.72C93.13 141.29 92.76 140.87 92.38 140.46C92 140.05 91.61 139.66 91.2 139.28C90.8 138.9 90.37 138.54 89.94 138.2C89.5 137.85 89.06 137.52 88.6 137.21C88.14 136.9 87.66 136.61 87.18 136.33C86.69 136.06 86.2 135.81 85.69 135.58C85.18 135.35 84.67 135.13 84.15 134.94C83.63 134.75 83.1 134.57 82.56 134.42C82.03 134.27 81.49 134.13 80.94 134.02C80.39 133.88 79.85 133.73 79.31 133.57C78.77 133.41 78.23 133.23 77.7 133.05C77.16 132.87 76.63 132.67 76.11 132.47C75.58 132.26 75.06 132.05 74.54 131.82C74.02 131.6 73.5 131.37 72.99 131.13C72.47 130.89 71.97 130.64 71.47 130.37C70.96 130.11 70.47 129.83 69.98 129.54C69.5 129.25 69.01 128.95 68.54 128.64C68.08 128.3 67.64 127.91 67.25 127.49C66.86 127.07 66.51 126.61 66.21 126.12C65.9 125.62 65.65 125.11 65.44 124.57C65.24 124.03 65.09 123.47 64.99 122.9C64.95 122.62 64.9 122.35 64.85 122.08C64.8 121.8 64.74 121.53 64.67 121.26C64.61 120.99 64.54 120.72 64.47 120.45C64.39 120.18 64.32 119.92 64.23 119.65C64.15 119.39 64.05 119.14 63.94 118.89C63.83 118.64 63.71 118.39 63.57 118.15C63.44 117.92 63.29 117.69 63.14 117.46C62.98 117.24 62.81 117.03 62.63 116.82C62.22 116.45 61.8 116.08 61.37 115.73C60.94 115.37 60.51 115.03 60.06 114.69C59.62 114.36 59.16 114.04 58.7 113.72C58.24 113.41 57.78 113.11 57.3 112.82C55.43 111.57 53.55 110.35 51.66 109.14C49.77 107.93 47.85 106.77 45.93 105.59C45.46 105.28 44.99 104.96 44.53 104.63C44.07 104.3 43.62 103.97 43.17 103.62C42.73 103.27 42.29 102.91 41.86 102.55C41.43 102.18 41.01 101.8 40.59 101.42C40.16 101.05 39.74 100.67 39.33 100.28C38.93 99.88 38.53 99.47 38.16 99.05C37.78 98.62 37.42 98.19 37.08 97.74C36.73 97.29 36.4 96.82 36.09 96.35C35.79 95.87 35.51 95.37 35.26 94.86C35.01 94.35 34.79 93.82 34.6 93.28C34.42 92.75 34.26 92.2 34.14 91.64C34.01 91.09 33.92 90.53 33.86 89.96C33.83 89.39 33.81 88.83 33.81 88.26C33.81 87.7 33.83 87.13 33.87 86.57C33.91 86 33.97 85.44 34.04 84.88C34.12 84.31 34.21 83.76 34.32 83.2C34.7 80.98 35.11 78.75 35.64 76.56C36.17 74.37 36.97 72.25 37.33 70.06C37.41 69.51 37.46 68.96 37.5 68.4C37.53 67.85 37.54 67.29 37.53 66.74C37.53 66.18 37.49 65.63 37.44 65.07C37.39 64.52 37.32 63.97 37.22 63.42C37.14 62.87 37.03 62.33 36.89 61.79C36.75 61.26 36.58 60.73 36.39 60.21C36.2 59.69 35.98 59.18 35.73 58.68C35.49 58.18 35.22 57.7 34.92 57.23C34.6 56.78 34.26 56.33 33.9 55.91C33.55 55.48 33.17 55.07 32.78 54.68C32.39 54.28 31.98 53.9 31.56 53.54C31.14 53.18 30.7 52.84 30.25 52.51C26.69 49.79 23.06 47.12 19.52 44.35C19.07 44.01 18.62 43.67 18.18 43.32C17.74 42.97 17.3 42.62 16.87 42.26C16.43 41.9 16 41.53 15.58 41.16C15.16 40.79 14.74 40.41 14.32 40.03C14.11 39.84 13.91 39.63 13.71 39.43C13.52 39.22 13.33 39.01 13.14 38.79C12.96 38.57 12.78 38.35 12.61 38.12C12.44 37.89 12.28 37.66 12.12 37.42C12.04 37.3 11.97 37.17 11.9 37.04C11.84 36.91 11.77 36.78 11.72 36.65C11.66 36.52 11.61 36.38 11.56 36.25C11.51 36.11 11.47 35.97 11.43 35.83C11.26 35.29 11.11 34.75 10.95 34.21C9.75 29.87 8.68 25.5 7.52 21.16C6.36 16.82 5.51 12.38 3.8 8.24C3 6.14 2.02 4.14 1.11 2.06C1.08 1.99 1.05 1.92 1.02 1.85C1 1.77 0.98 1.7 0.96 1.63C0.94 1.55 0.92 1.48 0.91 1.4C0.9 1.32 0.89 1.25 0.88 1.17C0.88 1.11 0.88 1.06 0.9 1C0.91 0.95 0.94 0.9 0.97 0.85C1 0.8 1.04 0.76 1.08 0.73C1.13 0.7 1.18 0.67 1.23 0.65C1.27 0.64 1.32 0.63 1.36 0.62C1.41 0.61 1.45 0.61 1.5 0.61C1.54 0.61 1.59 0.61 1.63 0.62C1.67 0.63 1.72 0.64 1.76 0.65C1.9 0.71 2.03 0.77 2.16 0.83C2.29 0.9 2.42 0.97 2.55 1.04C2.67 1.11 2.8 1.19 2.92 1.28C3.04 1.36 3.16 1.45 3.27 1.54C4.18 2.23 5.01 2.99 5.84 3.76C9.1 6.87 12.2 10.19 15.1 13.58C18 16.97 21.05 20.41 22.88 24.58C23 24.84 23.11 25.1 23.21 25.36C23.32 25.62 23.43 25.89 23.53 26.15C23.63 26.41 23.73 26.68 23.82 26.95C23.91 27.21 24 27.48 24.09 27.75C24.17 28.02 24.26 28.28 24.36 28.54C24.45 28.8 24.56 29.06 24.67 29.31C24.78 29.57 24.9 29.82 25.02 30.07C25.15 30.32 25.28 30.56 25.42 30.8C25.56 31.04 25.71 31.27 25.87 31.5C26.02 31.72 26.19 31.94 26.37 32.16C26.54 32.37 26.72 32.58 26.91 32.78C27.11 32.98 27.3 33.17 27.51 33.35C27.73 33.53 27.94 33.71 28.16 33.88C28.38 34.05 28.61 34.22 28.83 34.39C29.06 34.56 29.28 34.72 29.51 34.88C29.74 35.04 29.98 35.2 30.21 35.35C32.09 36.56 33.98 37.7 35.9 38.89C37.82 40.08 39.77 41.15 41.77 42.21C42.22 42.55 42.66 42.93 43.07 43.32C43.48 43.71 43.87 44.13 44.23 44.57C44.59 45.01 44.93 45.47 45.24 45.95C45.55 46.42 45.84 46.92 46.09 47.43C46.34 47.94 46.58 48.45 46.8 48.97C47.02 49.49 47.22 50.02 47.4 50.55C47.59 51.09 47.75 51.63 47.9 52.17C48.05 52.72 48.19 53.27 48.3 53.82C48.77 56.03 49.13 58.25 49.42 60.49C49.49 61.05 49.55 61.61 49.6 62.17C49.65 62.73 49.69 63.29 49.73 63.85C49.76 64.42 49.79 64.98 49.8 65.54C49.82 66.1 49.83 66.67 49.83 67.23C49.84 67.79 49.83 68.36 49.82 68.92C49.8 69.49 49.78 70.05 49.74 70.61C49.7 71.18 49.65 71.74 49.6 72.3C49.54 72.86 49.47 73.42 49.39 73.98C49.28 74.53 49.19 75.08 49.1 75.63C49.01 76.19 48.94 76.74 48.87 77.3C48.8 77.85 48.74 78.41 48.7 78.97C48.65 79.52 48.61 80.08 48.58 80.64C48.59 80.92 48.61 81.19 48.65 81.46C48.68 81.74 48.73 82.01 48.78 82.28C48.84 82.55 48.91 82.82 48.99 83.08C49.07 83.34 49.16 83.6 49.26 83.86C49.37 84.11 49.49 84.36 49.62 84.61C49.75 84.85 49.89 85.09 50.04 85.33C50.18 85.56 50.34 85.79 50.5 86.02C50.66 86.24 50.83 86.46 51.01 86.67C52.47 88.4 53.97 90.05 55.47 91.72C55.84 92.14 56.22 92.55 56.61 92.96C56.99 93.36 57.38 93.76 57.78 94.16C58.18 94.55 58.58 94.94 59 95.31C59.41 95.69 59.83 96.07 60.25 96.43C60.68 96.79 61.12 97.13 61.57 97.47C62.02 97.8 62.47 98.12 62.94 98.42C63.41 98.72 63.89 99.01 64.38 99.28C64.86 99.56 65.36 99.82 65.86 100.06C66.12 100.17 66.37 100.28 66.63 100.39C66.89 100.49 67.15 100.59 67.41 100.69C67.67 100.79 67.94 100.88 68.2 100.97C68.47 101.06 68.73 101.14 69 101.22C69.27 101.31 69.54 101.41 69.8 101.51C70.07 101.61 70.33 101.71 70.59 101.82C70.85 101.93 71.11 102.04 71.37 102.16C71.63 102.28 71.89 102.4 72.14 102.52C72.65 102.77 73.14 103.03 73.64 103.3C74.14 103.57 74.63 103.84 75.11 104.13C75.6 104.41 76.08 104.7 76.56 105.01C77.03 105.31 77.5 105.61 77.97 105.93C78.44 106.24 78.91 106.56 79.37 106.88C79.82 107.21 80.28 107.54 80.73 107.88C81.18 108.22 81.62 108.57 82.06 108.92C82.5 109.27 82.93 109.63 83.36 110C84.22 110.74 85.04 111.52 85.82 112.33C86.01 112.53 86.2 112.74 86.4 112.93C86.6 113.13 86.8 113.32 87.01 113.51C87.22 113.69 87.43 113.87 87.64 114.05C87.86 114.23 88.08 114.4 88.3 114.57C88.53 114.73 88.76 114.89 88.99 115.03C89.23 115.18 89.46 115.32 89.71 115.46C89.95 115.59 90.19 115.72 90.44 115.84C90.69 115.97 90.95 116.08 91.2 116.19C91.46 116.29 91.72 116.38 91.99 116.47C92.25 116.55 92.52 116.62 92.79 116.69C93.06 116.75 93.34 116.8 93.61 116.85C93.89 116.89 94.16 116.93 94.44 116.95C95 117.02 95.56 117.13 96.11 117.26C96.66 117.39 97.21 117.55 97.74 117.74C98.28 117.93 98.8 118.15 99.31 118.4C99.82 118.64 100.32 118.91 100.8 119.21C101.27 119.52 101.73 119.84 102.19 120.17C102.65 120.5 103.1 120.84 103.55 121.18C103.99 121.53 104.43 121.88 104.86 122.24C105.3 122.6 105.72 122.97 106.14 123.35L111.17 127.87C112.83 129.38 114.55 130.84 116.09 132.5C116.46 132.93 116.8 133.38 117.11 133.85C117.42 134.33 117.7 134.81 117.95 135.32C118.2 135.82 118.43 136.34 118.62 136.88C118.81 137.41 118.97 137.95 119.09 138.5C119.38 139.58 119.73 140.64 120.14 141.67C120.56 142.71 121.04 143.71 121.58 144.69C122.12 145.66 122.72 146.6 123.38 147.51C124.04 148.41 124.75 149.27 125.51 150.08C125.89 150.49 126.28 150.89 126.69 151.27C127.1 151.66 127.52 152.03 127.95 152.38C128.39 152.73 128.83 153.07 129.29 153.39C129.75 153.71 130.22 154.01 130.7 154.3C131.65 154.88 132.64 155.41 133.58 156.05C134.52 156.69 135.43 157.36 136.32 158.05C137.21 158.74 138.08 159.46 138.92 160.21C139.76 160.95 140.58 161.73 141.36 162.54C142.15 163.35 142.91 164.18 143.63 165.04C144.36 165.9 145.06 166.79 145.72 167.7C146.38 168.61 147 169.56 147.57 170.53C148.13 171.51 148.65 172.51 149.11 173.54C149.58 174.57 149.99 175.62 150.35 176.69C150.7 177.76 151.01 178.85 151.25 179.95C152.31 184.4 151.69 188.97 151.1 193.4L150.1 200.07C149.76 202.29 149.31 204.5 149.02 206.72C148.94 207.27 148.88 207.83 148.86 208.39C148.83 208.94 148.84 209.5 148.88 210.06C148.91 210.62 148.98 211.17 149.08 211.72C149.18 212.27 149.3 212.81 149.46 213.35C149.66 213.87 149.88 214.39 150.1 214.9C150.33 215.41 150.57 215.92 150.82 216.42C151.07 216.92 151.33 217.42 151.61 217.9C151.88 218.39 152.16 218.87 152.46 219.35C153.58 221.3 154.72 223.23 155.89 225.15C157.06 227.07 158.34 228.89 159.44 230.89C159.96 231.89 160.4 232.93 160.79 233.99C161.17 235.05 161.48 236.14 161.72 237.24C161.96 238.34 162.13 239.46 162.22 240.58C162.32 241.7 162.34 242.83 162.29 243.96C162.19 248.5 160.77 252.85 159.29 257.08L156.97 263.41C156.21 265.53 155.56 267.68 154.86 269.81C154.69 270.35 154.52 270.88 154.33 271.41C154.15 271.94 153.95 272.47 153.75 273C153.55 273.52 153.34 274.05 153.12 274.56C152.9 275.08 152.68 275.6 152.44 276.11C152.17 276.6 151.91 277.1 151.69 277.61C151.46 278.12 151.26 278.65 151.09 279.18C150.92 279.71 150.77 280.26 150.65 280.8C150.53 281.35 150.44 281.9 150.38 282.46C150.35 283.02 150.34 283.58 150.38 284.14C150.41 284.69 150.47 285.25 150.57 285.8C150.66 286.35 150.79 286.9 150.95 287.43C151.11 287.97 151.3 288.5 151.52 289.01C151.73 289.53 151.95 290.05 152.19 290.55C152.43 291.06 152.68 291.56 152.96 292.05C153.23 292.54 153.52 293.02 153.83 293.49C154.14 293.95 154.46 294.41 154.8 294.86C155.46 295.76 156.19 296.62 156.8 297.57C156.95 297.81 157.1 298.05 157.25 298.3C157.39 298.54 157.53 298.79 157.67 299.04C157.8 299.29 157.93 299.54 158.06 299.8C158.18 300.05 158.31 300.31 158.42 300.57C159.36 302.62 160.09 304.75 160.82 306.88C161.2 307.94 161.56 309.01 161.9 310.08C162.24 311.15 162.56 312.23 162.86 313.31C163.16 314.4 163.45 315.49 163.71 316.58C163.97 317.68 164.21 318.78 164.43 319.88C164.89 322.08 165.18 324.31 165.55 326.53L166.62 333.18C166.8 334.29 166.96 335.41 167.16 336.51C167.18 336.65 167.21 336.79 167.24 336.92C167.26 337.06 167.29 337.2 167.33 337.33C167.36 337.47 167.4 337.6 167.44 337.74C167.47 337.87 167.52 338.01 167.56 338.14C167.61 338.27 167.66 338.4 167.72 338.52C167.78 338.65 167.85 338.77 167.92 338.89C167.99 339.01 168.06 339.13 168.14 339.25C168.22 339.36 168.3 339.47 168.39 339.58C168.57 339.79 168.76 340 168.96 340.2C169.16 340.4 169.36 340.59 169.58 340.76C169.79 340.94 170.02 341.11 170.25 341.27C170.48 341.43 170.72 341.57 170.96 341.71C171.08 341.78 171.21 341.85 171.33 341.93C171.44 342 171.56 342.08 171.67 342.17C171.79 342.25 171.9 342.34 172.01 342.43C172.11 342.52 172.22 342.61 172.32 342.71C172.42 342.81 172.5 342.93 172.58 343.05C172.66 343.17 172.73 343.29 172.79 343.42C172.84 343.55 172.89 343.68 172.93 343.82C172.96 343.96 172.99 344.1 173 344.24C172.99 344.38 172.97 344.52 172.94 344.66C172.91 344.8 172.88 344.94 172.83 345.08C172.79 345.21 172.74 345.35 172.69 345.48C172.63 345.61 172.57 345.74 172.5 345.86C172.29 346.38 172.1 346.9 171.93 347.44C171.59 348.51 171.32 349.6 171.08 350.7C170.96 351.24 170.85 351.8 170.69 352.34C170.67 352.41 170.65 352.48 170.63 352.54C170.6 352.61 170.57 352.68 170.54 352.74C170.51 352.8 170.47 352.87 170.43 352.93C170.4 352.99 170.36 353.04 170.31 353.1C170.26 353.15 170.19 353.19 170.13 353.22C170.06 353.24 169.98 353.26 169.91 353.26C169.9 353.26 169.88 353.26 169.87 353.25L169.88 353.25C169.95 353.25 170.01 353.24 170.08 353.22C170.14 353.19 170.19 353.16 170.24 353.11C170.28 353.06 170.32 353 170.36 352.94C170.4 352.88 170.43 352.82 170.46 352.76C170.49 352.7 170.52 352.63 170.54 352.57C170.57 352.5 170.59 352.44 170.6 352.37C170.76 351.83 170.87 351.28 170.99 350.73C171.05 350.45 171.11 350.18 171.17 349.91C171.24 349.63 171.31 349.36 171.38 349.09C171.45 348.82 171.53 348.55 171.61 348.28C171.68 348.01 171.77 347.74 171.85 347.47C171.89 347.33 171.93 347.2 171.98 347.07C172.02 346.93 172.07 346.8 172.11 346.67C172.16 346.53 172.21 346.4 172.26 346.27C172.31 346.14 172.37 346.01 172.42 345.88C172.49 345.76 172.55 345.63 172.6 345.5C172.65 345.38 172.7 345.25 172.74 345.11C172.78 344.98 172.81 344.85 172.84 344.71C172.87 344.58 172.89 344.44 172.9 344.3C172.89 344.16 172.87 344.02 172.83 343.89C172.8 343.76 172.75 343.63 172.7 343.5C172.64 343.37 172.58 343.25 172.5 343.13C172.42 343.02 172.34 342.91 172.24 342.81C172.14 342.71 172.04 342.62 171.93 342.53C171.83 342.44 171.72 342.35 171.6 342.26C171.49 342.18 171.38 342.1 171.26 342.03C171.14 341.95 171.02 341.88 170.9 341.81C170.65 341.67 170.41 341.52 170.18 341.37C169.95 341.21 169.72 341.04 169.51 340.86C169.29 340.68 169.08 340.49 168.88 340.29C168.68 340.09 168.49 339.88 168.31 339.66C168.22 339.55 168.14 339.44 168.05 339.32C167.97 339.21 167.9 339.09 167.83 338.96C167.76 338.84 167.69 338.72 167.63 338.59C167.57 338.46 167.51 338.33 167.46 338.2C167.42 338.07 167.38 337.93 167.34 337.8C167.3 337.66 167.26 337.52 167.23 337.39C167.19 337.25 167.16 337.11 167.13 336.98C167.1 336.84 167.08 336.7 167.05 336.56C166.85 335.45 166.69 334.34 166.52 333.23L165.43 326.57C165.07 324.35 164.77 322.13 164.31 319.93C164.09 318.83 163.85 317.73 163.58 316.63C163.32 315.54 163.04 314.45 162.74 313.36C162.44 312.28 162.11 311.2 161.77 310.13C161.43 309.06 161.07 307.99 160.69 306.93C160.52 306.4 160.34 305.86 160.15 305.34C159.96 304.81 159.77 304.28 159.57 303.75C159.37 303.23 159.16 302.71 158.95 302.19C158.74 301.67 158.52 301.15 158.29 300.64C158.18 300.39 158.05 300.13 157.93 299.88C157.8 299.63 157.67 299.39 157.54 299.14C157.41 298.89 157.27 298.65 157.12 298.41C156.98 298.17 156.83 297.93 156.68 297.7C156.08 296.76 155.35 295.9 154.68 294.99C154.34 294.54 154.01 294.08 153.7 293.61C153.39 293.14 153.1 292.66 152.82 292.17C152.55 291.68 152.29 291.18 152.05 290.67C151.81 290.16 151.59 289.64 151.38 289.12C151.16 288.6 150.97 288.07 150.8 287.53C150.64 286.99 150.51 286.44 150.42 285.88C150.32 285.33 150.26 284.77 150.22 284.2C150.19 283.64 150.2 283.07 150.23 282.51C150.29 281.95 150.38 281.39 150.5 280.84C150.62 280.29 150.76 279.74 150.93 279.21C151.11 278.67 151.31 278.14 151.53 277.62C151.76 277.11 152.01 276.6 152.29 276.11C152.52 275.6 152.75 275.09 152.97 274.57C153.18 274.05 153.39 273.53 153.59 273.01C153.79 272.48 153.99 271.96 154.17 271.43C154.36 270.9 154.53 270.37 154.7 269.83C155.39 267.69 156.04 265.54 156.81 263.42L159.11 257.09C160.62 252.86 162.03 248.52 162.11 244.02C162.16 242.9 162.14 241.78 162.04 240.66C161.94 239.54 161.78 238.43 161.54 237.34C161.3 236.24 160.99 235.16 160.61 234.1C160.23 233.05 159.78 232.02 159.27 231.02C158.18 229.06 156.89 227.21 155.71 225.3C154.53 223.39 153.4 221.49 152.28 219.49C151.99 219.01 151.7 218.53 151.43 218.04C151.15 217.56 150.89 217.06 150.64 216.56C150.39 216.06 150.15 215.55 149.93 215.04C149.7 214.53 149.48 214.01 149.28 213.49C149.12 212.95 148.99 212.4 148.89 211.84C148.8 211.28 148.73 210.72 148.69 210.16C148.65 209.6 148.64 209.03 148.67 208.47C148.69 207.9 148.75 207.34 148.83 206.78C149.12 204.54 149.56 202.34 149.9 200.11L150.9 193.45C151.49 189.02 152.09 184.47 151.04 180.08C150.8 178.99 150.5 177.91 150.14 176.85C149.79 175.79 149.38 174.74 148.92 173.72C148.45 172.7 147.94 171.71 147.38 170.74C146.81 169.77 146.2 168.83 145.54 167.93C144.88 167.03 144.19 166.14 143.46 165.29C142.74 164.43 141.99 163.6 141.2 162.8C140.42 162 139.61 161.23 138.77 160.48C137.93 159.74 137.07 159.02 136.18 158.34C135.29 157.63 134.39 156.97 133.46 156.34C132.53 155.71 131.58 155.18 130.58 154.59C130.1 154.3 129.62 153.99 129.16 153.67C128.69 153.35 128.24 153.01 127.8 152.65C127.36 152.29 126.94 151.92 126.52 151.54C126.11 151.15 125.71 150.75 125.33 150.33C124.95 149.91 124.58 149.49 124.23 149.05C123.87 148.61 123.53 148.16 123.2 147.7C122.87 147.25 122.56 146.78 122.26 146.3C121.95 145.83 121.67 145.34 121.39 144.85C121.11 144.36 120.85 143.86 120.6 143.35C120.36 142.84 120.13 142.32 119.92 141.8C119.71 141.27 119.52 140.74 119.35 140.2C119.18 139.66 119.02 139.12 118.89 138.57C118.77 138.03 118.61 137.49 118.42 136.97C118.23 136.44 118 135.93 117.75 135.43C117.5 134.93 117.22 134.45 116.91 133.99C116.59 133.53 116.26 133.08 115.89 132.66C114.37 131.06 112.65 129.56 110.98 128.06L105.98 123.59C105.57 123.22 105.14 122.85 104.71 122.49C104.28 122.13 103.85 121.78 103.41 121.44C102.96 121.09 102.52 120.76 102.06 120.43C101.61 120.11 101.15 119.79 100.68 119.48C100.21 119.19 99.72 118.92 99.22 118.68C98.71 118.44 98.2 118.23 97.67 118.04C97.15 117.86 96.61 117.7 96.07 117.57C95.53 117.44 94.98 117.34 94.43 117.27C94.15 117.24 93.87 117.21 93.58 117.16C93.3 117.12 93.02 117.06 92.75 117C92.47 116.93 92.2 116.86 91.93 116.77C91.65 116.69 91.39 116.59 91.12 116.49C90.86 116.38 90.6 116.26 90.34 116.14C90.08 116.02 89.83 115.89 89.58 115.75C89.32 115.61 89.08 115.47 88.84 115.31C88.59 115.16 88.35 115 88.12 114.84C87.89 114.67 87.67 114.5 87.45 114.31C87.23 114.13 87.02 113.95 86.81 113.76C86.6 113.57 86.39 113.37 86.19 113.17C85.99 112.97 85.79 112.77 85.6 112.56C84.82 111.76 84.01 110.99 83.16 110.26C82.74 109.9 82.3 109.54 81.87 109.19C81.43 108.84 80.99 108.49 80.54 108.15C80.1 107.82 79.64 107.48 79.19 107.16C78.73 106.84 78.27 106.52 77.8 106.21C77.34 105.9 76.87 105.59 76.39 105.29C75.92 104.99 75.44 104.7 74.95 104.42C74.47 104.14 73.98 103.87 73.49 103.6C72.99 103.34 72.49 103.08 71.99 102.83C71.74 102.71 71.49 102.59 71.24 102.47C70.98 102.36 70.73 102.24 70.47 102.14C70.21 102.03 69.95 101.93 69.69 101.83C69.43 101.73 69.17 101.64 68.9 101.55C68.63 101.47 68.36 101.38 68.09 101.3C67.82 101.21 67.56 101.11 67.29 101.01C67.03 100.92 66.76 100.82 66.5 100.71C66.24 100.6 65.98 100.49 65.72 100.38C65.21 100.13 64.71 99.87 64.22 99.59C63.73 99.32 63.24 99.02 62.77 98.72C62.29 98.41 61.83 98.09 61.37 97.75C60.92 97.41 60.47 97.06 60.04 96.7C59.61 96.33 59.19 95.96 58.78 95.58C58.36 95.2 57.95 94.81 57.55 94.41C57.15 94.02 56.75 93.62 56.36 93.21C55.98 92.8 55.59 92.38 55.22 91.96C53.75 90.29 52.18 88.65 50.75 86.9C50.57 86.68 50.39 86.46 50.22 86.23C50.05 86 49.89 85.76 49.74 85.52C49.59 85.28 49.45 85.03 49.32 84.78C49.19 84.53 49.06 84.27 48.95 84.01C48.84 83.74 48.75 83.47 48.66 83.2C48.58 82.93 48.51 82.65 48.45 82.37C48.39 82.09 48.34 81.81 48.31 81.53C48.27 81.24 48.25 80.96 48.24 80.67C48.24 80.39 48.24 80.1 48.25 79.82C48.26 79.53 48.28 79.25 48.31 78.97C48.33 78.69 48.36 78.4 48.4 78.12C48.44 77.84 48.48 77.56 48.53 77.28C48.71 76.17 48.9 75.07 49.04 73.95C49.12 73.4 49.19 72.84 49.25 72.28C49.3 71.73 49.35 71.17 49.39 70.61C49.43 70.06 49.45 69.5 49.47 68.94C49.48 68.38 49.49 67.82 49.48 67.26C49.48 66.7 49.47 66.14 49.45 65.58C49.43 65.02 49.41 64.46 49.37 63.9C49.34 63.34 49.29 62.78 49.24 62.22C49.19 61.66 49.13 61.11 49.06 60.55C48.77 58.33 48.41 56.11 47.94 53.92C47.83 53.37 47.71 52.83 47.56 52.29C47.42 51.75 47.25 51.22 47.07 50.69C46.89 50.16 46.7 49.64 46.48 49.12C46.27 48.61 46.04 48.1 45.79 47.6C45.55 47.1 45.27 46.62 44.97 46.16C44.67 45.69 44.34 45.25 43.99 44.82C43.64 44.4 43.26 43.99 42.86 43.61C42.46 43.22 42.04 42.86 41.6 42.53C39.64 41.5 37.65 40.38 35.73 39.21C33.81 38.04 31.89 36.88 30 35.65C29.76 35.5 29.53 35.34 29.29 35.18C29.06 35.03 28.83 34.86 28.6 34.7C28.37 34.53 28.14 34.36 27.92 34.18C27.7 34.01 27.48 33.83 27.26 33.65C27.05 33.46 26.84 33.26 26.64 33.06C26.44 32.85 26.25 32.64 26.07 32.42C25.89 32.2 25.71 31.97 25.55 31.73C25.39 31.5 25.23 31.26 25.09 31.01C24.95 30.76 24.82 30.51 24.7 30.26C24.58 30 24.46 29.74 24.35 29.48C24.25 29.22 24.14 28.96 24.05 28.69C23.96 28.42 23.87 28.15 23.79 27.88C23.71 27.61 23.62 27.35 23.52 27.08C23.43 26.82 23.33 26.56 23.23 26.29C23.13 26.03 23.03 25.77 22.92 25.51C22.82 25.25 22.71 25 22.59 24.74C20.79 20.63 17.83 17.19 14.87 13.82C11.91 10.45 8.88 7.13 5.63 4.04C5.43 3.85 5.23 3.66 5.02 3.47C4.81 3.28 4.6 3.09 4.39 2.91C4.18 2.73 3.96 2.55 3.75 2.37C3.53 2.19 3.31 2.02 3.09 1.85C2.98 1.76 2.87 1.67 2.75 1.59C2.64 1.51 2.52 1.43 2.4 1.36C2.28 1.28 2.15 1.21 2.03 1.15C1.9 1.09 1.77 1.03 1.64 0.97C1.62 0.96 1.59 0.96 1.57 0.96C1.55 0.95 1.52 0.95 1.5 0.95C1.48 0.95 1.45 0.95 1.43 0.96C1.41 0.96 1.38 0.96 1.36 0.97C1.29 0.98 1.29 1.01 1.29 1.11C1.3 1.17 1.31 1.24 1.32 1.3C1.33 1.36 1.34 1.42 1.36 1.48C1.38 1.54 1.4 1.6 1.42 1.66C1.44 1.72 1.46 1.78 1.49 1.84C2.38 3.87 3.38 5.91 4.19 8.01C5.92 12.22 6.79 16.69 7.92 21.01C9.05 25.33 10.16 29.69 11.36 34.01C11.51 34.55 11.67 35.09 11.84 35.62C11.87 35.75 11.91 35.88 11.96 36.01C12 36.14 12.05 36.27 12.1 36.39C12.16 36.52 12.21 36.64 12.28 36.76C12.34 36.88 12.41 37 12.48 37.11C12.63 37.34 12.79 37.57 12.96 37.79C13.13 38.01 13.3 38.23 13.48 38.44C13.66 38.65 13.84 38.86 14.03 39.06C14.22 39.26 14.42 39.46 14.62 39.65C15.03 40.03 15.44 40.41 15.86 40.78C16.28 41.16 16.7 41.52 17.13 41.88C17.55 42.25 17.98 42.6 18.42 42.95C18.86 43.3 19.3 43.65 19.74 43.99C23.28 46.75 26.9 49.41 30.48 52.15C30.94 52.48 31.39 52.83 31.82 53.2C32.25 53.57 32.67 53.96 33.07 54.36C33.47 54.76 33.85 55.18 34.21 55.62C34.58 56.06 34.92 56.51 35.25 56.97C35.55 57.45 35.83 57.95 36.08 58.46C36.33 58.97 36.56 59.5 36.76 60.03C36.96 60.56 37.13 61.11 37.27 61.66C37.42 62.21 37.53 62.77 37.62 63.33C37.72 63.89 37.79 64.45 37.85 65.02C37.9 65.58 37.93 66.15 37.94 66.72C37.95 67.28 37.94 67.85 37.9 68.42C37.87 68.98 37.81 69.55 37.73 70.11C37.36 72.37 36.59 74.5 36.03 76.66C35.47 78.82 35.11 81.04 34.73 83.25C34.62 83.8 34.53 84.35 34.46 84.9C34.38 85.45 34.33 86 34.29 86.56C34.25 87.12 34.23 87.67 34.23 88.23C34.22 88.79 34.24 89.34 34.27 89.9C34.33 90.45 34.41 91 34.53 91.54C34.65 92.08 34.79 92.61 34.97 93.13C35.15 93.66 35.36 94.17 35.6 94.67C35.84 95.17 36.11 95.65 36.4 96.12C36.71 96.59 37.03 97.04 37.37 97.49C37.7 97.93 38.06 98.36 38.43 98.78C38.8 99.2 39.18 99.6 39.58 99.99C39.98 100.38 40.39 100.76 40.82 101.12C41.23 101.5 41.65 101.87 42.07 102.23C42.5 102.6 42.93 102.95 43.37 103.29C43.81 103.64 44.25 103.97 44.71 104.3C45.16 104.62 45.62 104.94 46.09 105.24C48.09 106.42 50 107.58 51.9 108.78C53.8 109.98 55.68 111.21 57.56 112.45C58.04 112.75 58.52 113.06 58.98 113.38C59.45 113.7 59.91 114.03 60.36 114.37C60.81 114.71 61.26 115.07 61.69 115.43C62.13 115.79 62.55 116.17 62.97 116.55C64.56 118.3 65.08 120.68 65.45 122.85C65.54 123.39 65.68 123.92 65.88 124.43C66.07 124.95 66.31 125.44 66.6 125.91C66.89 126.37 67.22 126.81 67.59 127.21C67.97 127.61 68.38 127.98 68.82 128.3C69.29 128.61 69.76 128.9 70.24 129.19C70.72 129.47 71.2 129.74 71.7 130C72.19 130.26 72.69 130.51 73.19 130.75C73.7 130.98 74.21 131.21 74.72 131.42C75.23 131.65 75.75 131.86 76.27 132.06C76.79 132.27 77.32 132.46 77.85 132.64C78.37 132.82 78.91 133 79.44 133.15C79.98 133.31 80.52 133.46 81.06 133.6C81.62 133.72 82.17 133.85 82.71 134.01C83.25 134.16 83.79 134.34 84.32 134.54C84.85 134.73 85.38 134.95 85.89 135.19C86.41 135.42 86.91 135.68 87.41 135.95C87.9 136.23 88.39 136.53 88.86 136.85C89.33 137.17 89.79 137.5 90.23 137.86C90.68 138.21 91.11 138.58 91.53 138.96C91.94 139.35 92.35 139.75 92.73 140.17C93.12 140.58 93.49 141.01 93.85 141.44C94.21 141.88 94.56 142.33 94.9 142.78C95.23 143.24 95.55 143.71 95.86 144.18C96.16 144.66 96.45 145.15 96.73 145.64C97.03 146.13 97.3 146.62 97.56 147.13C97.82 147.64 98.05 148.15 98.27 148.68C98.49 149.2 98.68 149.74 98.85 150.28C99.03 150.82 99.18 151.37 99.31 151.92C99.39 152.47 99.49 153.02 99.61 153.57C99.72 154.11 99.86 154.65 100.01 155.19C100.15 155.73 100.32 156.26 100.5 156.79C100.68 157.31 100.88 157.83 101.09 158.35C101.21 158.6 101.33 158.84 101.45 159.08C101.58 159.32 101.71 159.55 101.84 159.79C101.98 160.02 102.12 160.25 102.27 160.48C102.41 160.71 102.56 160.93 102.72 161.15C102.89 161.37 103.06 161.59 103.24 161.8C103.42 162.01 103.6 162.22 103.79 162.42C103.97 162.63 104.17 162.83 104.36 163.02C104.56 163.22 104.76 163.41 104.96 163.6C106.59 165.13 108.36 166.53 110.11 167.93C111.86 169.33 113.64 170.7 115.45 172.02C117.26 173.34 119.16 174.53 121.01 175.83C121.47 176.17 121.91 176.52 122.34 176.9C122.77 177.27 123.18 177.66 123.57 178.07C123.97 178.48 124.35 178.9 124.71 179.34C125.07 179.78 125.41 180.23 125.73 180.7C126.4 181.61 127.01 182.57 127.55 183.57C128.09 184.56 128.57 185.59 128.97 186.65C129.38 187.71 129.71 188.8 129.97 189.9C130.23 191 130.42 192.12 130.53 193.25C130.57 193.82 130.58 194.38 130.57 194.95C130.55 195.52 130.52 196.08 130.45 196.65C130.39 197.21 130.31 197.77 130.19 198.33C130.08 198.88 129.95 199.44 129.79 199.98C129.65 200.52 129.52 201.06 129.41 201.61C129.29 202.16 129.19 202.71 129.11 203.26C129.03 203.81 128.96 204.36 128.91 204.92C128.85 205.48 128.81 206.03 128.79 206.59C128.76 207.71 128.79 208.83 128.87 209.94C128.95 211.06 129.08 212.17 129.27 213.27C129.46 214.37 129.7 215.46 130 216.54C130.29 217.62 130.63 218.68 131.03 219.73C131.23 220.25 131.45 220.77 131.68 221.27C131.91 221.78 132.16 222.28 132.42 222.78C132.68 223.27 132.96 223.76 133.25 224.24C133.54 224.71 133.84 225.18 134.16 225.64C134.5 226.09 134.84 226.53 135.19 226.97C135.54 227.41 135.89 227.84 136.26 228.27C136.62 228.7 136.99 229.12 137.36 229.54C137.74 229.96 138.12 230.37 138.51 230.77C138.7 230.98 138.88 231.19 139.06 231.41C139.24 231.63 139.42 231.85 139.59 232.07C139.77 232.29 139.94 232.52 140.1 232.75C140.27 232.98 140.43 233.21 140.59 233.44C140.75 233.68 140.9 233.92 141.04 234.17C141.19 234.41 141.33 234.66 141.47 234.91C141.61 235.16 141.74 235.41 141.87 235.67C142 235.92 142.12 236.18 142.24 236.44C142.7 237.48 143.11 238.53 143.49 239.59C143.59 239.86 143.68 240.12 143.77 240.39C143.86 240.66 143.94 240.93 144.02 241.2C144.1 241.47 144.17 241.75 144.23 242.02C144.3 242.3 144.36 242.57 144.42 242.85C144.53 243.41 144.61 243.97 144.66 244.53C144.7 245.1 144.71 245.67 144.69 246.23C144.67 246.8 144.61 247.36 144.52 247.92C144.42 248.48 144.3 249.04 144.14 249.58C143.95 250.11 143.74 250.64 143.51 251.16C143.28 251.68 143.03 252.19 142.77 252.69C142.5 253.19 142.22 253.69 141.92 254.17C141.62 254.65 141.3 255.12 140.97 255.58C140.36 256.52 139.79 257.48 139.27 258.48C138.74 259.47 138.27 260.48 137.84 261.52C137.41 262.56 137.03 263.61 136.7 264.68C136.38 265.76 136.1 266.84 135.87 267.94C135.75 268.49 135.65 269.04 135.56 269.59C135.47 270.14 135.39 270.7 135.32 271.25C135.26 271.81 135.2 272.36 135.16 272.92C135.12 273.48 135.1 274.04 135.08 274.6C135.05 275.16 135.03 275.72 135.03 276.28C135.03 276.84 135.04 277.4 135.06 277.96C135.09 278.52 135.13 279.08 135.18 279.64C135.23 280.2 135.3 280.76 135.38 281.31C135.46 281.86 135.57 282.41 135.7 282.96C135.82 283.5 135.97 284.04 136.15 284.57C136.32 285.11 136.51 285.63 136.73 286.15C136.94 286.66 137.18 287.17 137.43 287.67C137.56 287.92 137.69 288.16 137.83 288.41C137.97 288.65 138.12 288.88 138.28 289.12C138.43 289.35 138.59 289.58 138.76 289.8C138.93 290.03 139.1 290.25 139.28 290.46C139.46 290.67 139.66 290.87 139.85 291.07C140.05 291.27 140.26 291.46 140.47 291.64C140.68 291.82 140.89 292 141.12 292.17C141.34 292.34 141.57 292.5 141.8 292.65C142.73 293.28 143.68 293.88 144.57 294.58C145.24 295.1 145.87 295.67 146.46 296.27C147.06 296.87 147.61 297.52 148.12 298.19C148.64 298.86 149.11 299.57 149.53 300.3C149.95 301.04 150.33 301.8 150.65 302.58C151.58 304.63 152.38 306.75 153.16 308.85C153.94 310.95 154.69 313.06 155.44 315.19C156.19 317.32 156.88 319.47 157.44 321.64C157.49 321.83 157.54 322.01 157.58 322.2C157.53 322 157.48 321.8 157.42 321.6ZM163.26 336.32C163.13 336.07 163 335.82 162.86 335.58C162.72 335.33 162.57 335.1 162.41 334.86C162.26 334.63 162.09 334.4 161.92 334.18C161.75 333.95 161.59 333.73 161.43 333.5C161.27 333.27 161.11 333.03 160.96 332.8C160.81 332.56 160.66 332.32 160.51 332.08C160.37 331.84 160.23 331.6 160.09 331.35C159.97 331.1 159.86 330.84 159.75 330.58C159.64 330.32 159.54 330.05 159.45 329.79C159.36 329.52 159.27 329.25 159.2 328.98C159.12 328.71 159.05 328.44 158.99 328.16C158.99 328.16 158.99 328.16 158.99 328.16C158.99 328.17 158.99 328.19 159 328.2C159.06 328.47 159.13 328.74 159.21 329.01C159.29 329.28 159.38 329.55 159.48 329.81C159.57 330.07 159.68 330.33 159.79 330.59C159.9 330.85 160.02 331.1 160.15 331.35C160.28 331.59 160.41 331.83 160.55 332.07C160.69 332.3 160.83 332.54 160.98 332.77C161.12 333 161.27 333.23 161.43 333.45C161.59 333.68 161.75 333.9 161.91 334.12C162.08 334.34 162.24 334.57 162.4 334.81C162.55 335.04 162.7 335.28 162.84 335.53C162.98 335.77 163.11 336.02 163.24 336.27C163.27 336.33 163.29 336.38 163.32 336.44C163.3 336.4 163.28 336.36 163.26 336.32ZM158.99 328.16C158.96 328.05 158.93 327.95 158.91 327.83C158.94 327.94 158.97 328.05 158.99 328.16ZM163.32 336.44C163.34 336.48 163.36 336.52 163.38 336.56C163.36 336.52 163.34 336.48 163.32 336.44ZM164.12 339.52C164.12 339.52 164.12 339.51 164.12 339.51C164.12 339.51 164.12 339.51 164.12 339.51C164.12 339.58 164.12 339.65 164.12 339.72C164.12 339.65 164.12 339.59 164.12 339.52ZM164.05 338.69C164.01 338.42 163.95 338.17 163.89 337.91C163.96 338.16 164.01 338.41 164.05 338.66C164.06 338.76 164.07 338.86 164.08 338.96C164.07 338.87 164.06 338.78 164.05 338.69ZM163.89 337.91C163.88 337.89 163.87 337.86 163.87 337.84C163.79 337.57 163.7 337.3 163.59 337.04C163.52 336.88 163.45 336.72 163.38 336.56C163.46 336.73 163.54 336.91 163.61 337.08C163.72 337.34 163.81 337.6 163.88 337.87C163.88 337.88 163.89 337.9 163.89 337.91ZM164.12 339.72C164.12 339.93 164.11 340.14 164.09 340.35C164.11 340.14 164.12 339.93 164.12 339.72ZM164.08 338.96C164.1 339.14 164.12 339.33 164.12 339.51C164.11 339.32 164.1 339.14 164.08 338.96ZM169.87 353.25C169.8 353.25 169.74 353.24 169.69 353.22C169.63 353.19 169.57 353.16 169.52 353.11C169.51 353.11 169.51 353.1 169.51 353.1C169.57 353.15 169.63 353.19 169.7 353.22C169.75 353.24 169.81 353.25 169.87 353.25ZM169.21 352.8C169.18 352.77 169.15 352.73 169.12 352.7C169.16 352.74 169.19 352.77 169.23 352.81C169.31 352.9 169.4 352.99 169.49 353.08C169.4 352.99 169.3 352.89 169.21 352.8ZM168.93 352.48C168.84 352.38 168.75 352.27 168.66 352.16C168.57 352.05 168.48 351.93 168.4 351.82C168.31 351.71 168.21 351.61 168.12 351.51C168.02 351.41 167.92 351.31 167.82 351.21C167.73 351.11 167.62 351.01 167.52 350.91C167.49 350.88 167.45 350.85 167.42 350.82C167.46 350.85 167.5 350.89 167.55 350.93C167.65 351.03 167.75 351.13 167.85 351.23C167.95 351.33 168.05 351.43 168.15 351.53C168.24 351.64 168.34 351.74 168.43 351.85C168.51 351.96 168.6 352.07 168.68 352.18C168.77 352.29 168.86 352.4 168.95 352.5C168.98 352.54 169.01 352.58 169.04 352.61C169 352.57 168.96 352.53 168.93 352.48ZM169.04 352.61C169.07 352.64 169.1 352.67 169.12 352.7C169.1 352.67 169.07 352.64 169.04 352.61ZM167.42 350.82C167.36 350.76 167.29 350.7 167.23 350.65C167.02 350.47 166.8 350.3 166.57 350.13C166.35 349.96 166.12 349.8 165.88 349.64C165.65 349.49 165.41 349.34 165.17 349.2C164.93 349.05 164.68 348.92 164.43 348.79C163.65 348.35 162.77 347.89 162.27 347.15C162.78 347.89 163.66 348.34 164.42 348.77C164.67 348.9 164.91 349.04 165.15 349.18C165.4 349.32 165.63 349.47 165.87 349.63C166.1 349.78 166.33 349.94 166.55 350.11C166.78 350.28 167 350.45 167.21 350.63C167.28 350.69 167.35 350.75 167.42 350.82ZM161.97 346.55C161.92 346.42 161.88 346.28 161.86 346.14C161.83 346 161.82 345.86 161.82 345.72C161.82 345.57 161.83 345.43 161.86 345.29C161.88 345.15 161.92 345.01 161.97 344.88C162.03 344.75 162.09 344.63 162.16 344.5C162.22 344.38 162.29 344.25 162.36 344.13C162.43 344.01 162.51 343.89 162.59 343.77C162.67 343.66 162.75 343.54 162.83 343.43C163 343.21 163.16 342.97 163.29 342.73C163.43 342.48 163.56 342.23 163.66 341.97C163.77 341.71 163.86 341.45 163.93 341.18C164 340.9 164.06 340.63 164.09 340.35L164.15 340.35C164.12 340.64 164.06 340.92 163.99 341.2C163.92 341.48 163.83 341.76 163.72 342.03C163.61 342.29 163.48 342.56 163.34 342.81C163.2 343.06 163.04 343.3 162.86 343.53C162.78 343.64 162.69 343.76 162.62 343.87C162.54 343.99 162.46 344.11 162.39 344.23C162.32 344.35 162.25 344.47 162.19 344.59C162.12 344.72 162.06 344.84 162 344.97C161.95 345.1 161.92 345.23 161.89 345.37C161.87 345.51 161.85 345.65 161.85 345.78C161.85 345.92 161.87 346.06 161.89 346.2C161.92 346.34 161.95 346.47 162 346.6C162.07 346.8 162.16 346.98 162.27 347.15C162.15 346.97 162.05 346.77 161.97 346.55ZM157.58 322.2C158.08 324.06 158.47 325.95 158.91 327.83C158.47 325.96 158.05 324.07 157.58 322.2Z" />
	<path id="Layer" class="shp2" d="M169.73 352.29C169.71 352.68 169.69 353.07 169.66 353.47C169.63 353.86 169.59 354.25 169.54 354.64C169.49 355.03 169.43 355.42 169.37 355.8C169.3 356.19 169.23 356.58 169.15 356.96C169.03 357.54 168.72 358.44 169.02 358.63C169.32 358.82 169.43 358.63 169.69 358.78C169.95 358.93 169.93 359.18 169.99 359.17C170.21 359.17 169.81 355.96 170.65 355.64C171.04 355.49 171.36 356.07 173.12 356.83C174.12 357.25 174.25 357.17 174.27 357.14C174.29 357.11 174.09 356.98 174.06 356.76C174.03 356.54 174.32 356.34 174.29 356.13C174.26 355.92 173.75 355.75 173.5 355.67C173.34 355.6 173.17 355.53 173.02 355.45C172.86 355.37 172.7 355.28 172.55 355.19C172.39 355.1 172.24 355 172.1 354.9C171.95 354.8 171.81 354.69 171.67 354.58C170.17 353.49 170.12 351.27 169.86 351.32C169.6 351.37 169.75 351.76 169.73 352.29Z" />
	<path id="Layer" class="shp3" d="M162.09 327.21C163.09 326.95 164.09 328.11 164.54 328.86C164.66 329.03 164.76 329.21 164.84 329.41C164.92 329.6 164.98 329.8 165.01 330C165.05 330.21 165.06 330.42 165.04 330.63C165.03 330.83 165 331.04 164.94 331.24C164.94 331.36 164.52 332.24 163.75 332.37C163.64 332.38 163.54 332.37 163.43 332.36C163.32 332.34 163.22 332.32 163.12 332.29C163.02 332.25 162.92 332.21 162.82 332.15C162.73 332.1 162.64 332.04 162.56 331.97C162.42 331.86 162.28 331.74 162.15 331.6C162.03 331.47 161.92 331.33 161.81 331.18C161.71 331.02 161.63 330.86 161.55 330.7C161.48 330.53 161.42 330.36 161.37 330.18C161.27 329.99 161.2 329.79 161.15 329.59C161.1 329.38 161.07 329.17 161.07 328.96C161.07 328.75 161.1 328.54 161.15 328.33C161.2 328.13 161.27 327.93 161.37 327.74C161.41 327.68 161.46 327.62 161.51 327.56C161.57 327.51 161.62 327.46 161.69 327.41C161.75 327.37 161.81 327.33 161.88 327.29C161.95 327.26 162.02 327.23 162.09 327.21L162.09 327.21Z" />
	<path id="Layer" class="shp3" d="M160.77 319.61C161.34 319.45 162.48 319.35 162.88 320C163.28 320.65 162.88 321.33 162.69 321.62C162.63 321.74 162.57 321.86 162.49 321.97C162.41 322.08 162.32 322.19 162.23 322.29C162.13 322.38 162.03 322.47 161.91 322.55C161.8 322.62 161.68 322.69 161.56 322.75C160.61 323.14 159.25 322.75 158.98 321.99C158.96 321.87 158.95 321.75 158.96 321.63C158.97 321.51 158.99 321.39 159.02 321.27C159.05 321.15 159.09 321.04 159.15 320.93C159.21 320.82 159.27 320.72 159.35 320.63C159.43 320.51 159.53 320.39 159.63 320.28C159.73 320.18 159.85 320.08 159.97 319.99C160.09 319.9 160.22 319.83 160.35 319.76C160.49 319.7 160.63 319.65 160.77 319.61Z" />
	<path id="Layer" class="shp3" d="M156.68 305.92C156.45 305.98 156.24 306.07 156.04 306.2C155.83 306.32 155.65 306.48 155.5 306.65C155.34 306.83 155.21 307.03 155.12 307.24C155.02 307.46 154.95 307.69 154.92 307.92C154.92 308.04 154.78 309.13 155.4 309.55C155.65 309.72 155.88 309.69 156.77 309.55C158.77 309.34 158.92 309.36 159.11 309.16C159.22 309 159.3 308.82 159.36 308.63C159.42 308.44 159.44 308.25 159.44 308.05C159.44 307.86 159.42 307.67 159.36 307.48C159.3 307.29 159.22 307.11 159.11 306.95C159.03 306.83 158.94 306.71 158.84 306.6C158.73 306.5 158.62 306.4 158.5 306.32C158.38 306.23 158.25 306.16 158.12 306.1C157.98 306.03 157.84 305.99 157.7 305.95C157.62 305.93 157.53 305.91 157.45 305.9C157.36 305.89 157.28 305.88 157.19 305.88C157.11 305.87 157.02 305.88 156.94 305.88C156.85 305.89 156.77 305.9 156.68 305.92Z" />
	<path id="Layer" class="shp3" d="M153.68 299.53C153.64 299.68 153.62 299.83 153.62 299.99C153.62 300.14 153.63 300.3 153.66 300.45C153.69 300.6 153.74 300.75 153.8 300.89C153.87 301.03 153.95 301.17 154.04 301.29C154.16 301.42 154.3 301.54 154.44 301.64C154.59 301.73 154.76 301.81 154.93 301.87C155.1 301.92 155.27 301.95 155.45 301.96C155.63 301.97 155.81 301.95 155.98 301.91C156.1 301.89 156.21 301.85 156.31 301.81C156.42 301.76 156.52 301.7 156.62 301.63C156.71 301.57 156.8 301.49 156.88 301.4C156.95 301.32 157.02 301.22 157.08 301.12C157.27 300.65 157.08 300.18 156.59 299.27C156.05 298.19 155.79 297.65 155.36 297.59C154.65 297.5 153.86 298.56 153.68 299.53Z" />
	<path id="Layer" class="shp3" d="M150.42 296.53C152.35 298.14 152.57 298.16 152.71 298.65C152.9 299.32 152.71 300.23 152.27 300.46C151.83 300.69 151.27 300.24 150.82 299.93C150.2 299.48 149.02 298.71 148.92 297.46C148.92 296.89 149.05 296.12 149.45 296C149.85 295.88 149.95 296.14 150.42 296.53Z" />
	<path id="Layer" class="shp3" d="M146.32 287.1C146.63 287.08 146.94 287.11 147.24 287.18C147.54 287.26 147.82 287.38 148.08 287.55C148.34 287.71 148.57 287.92 148.77 288.16C148.96 288.39 149.12 288.66 149.23 288.95C149.31 289.18 149.36 289.41 149.38 289.65C149.41 289.88 149.4 290.12 149.37 290.36C149.34 290.6 149.29 290.83 149.2 291.05C149.12 291.28 149.01 291.49 148.88 291.69C148.76 291.88 148.61 292.06 148.45 292.22C148.28 292.38 148.1 292.52 147.9 292.63C147.7 292.75 147.49 292.84 147.27 292.9C147.05 292.96 146.82 293 146.59 293.01C146.36 292.98 146.14 292.92 145.92 292.84C145.71 292.76 145.5 292.65 145.31 292.52C145.12 292.39 144.94 292.24 144.79 292.07C144.63 291.9 144.49 291.71 144.38 291.51C144.26 291.35 144.15 291.18 144.07 290.99C143.98 290.81 143.92 290.62 143.87 290.42C143.83 290.22 143.8 290.02 143.8 289.82C143.8 289.62 143.82 289.42 143.86 289.22C143.97 288.96 144.12 288.72 144.28 288.5C144.45 288.27 144.64 288.07 144.85 287.88C145.06 287.7 145.3 287.54 145.54 287.41C145.79 287.28 146.05 287.17 146.32 287.1L146.32 287.1Z" />
	<path id="Layer" class="shp3" d="M140.33 275.73C140.59 275.85 140.84 275.99 141.07 276.15C141.31 276.31 141.53 276.49 141.74 276.68C141.95 276.88 142.15 277.09 142.32 277.31C142.5 277.54 142.66 277.77 142.8 278.02C143.14 278.67 143.8 279.95 143.24 280.89C142.68 281.83 141.42 281.82 140.42 281.89C140.21 281.93 139.99 281.94 139.77 281.94C139.55 281.93 139.33 281.91 139.12 281.86C138.9 281.82 138.69 281.75 138.49 281.67C138.29 281.58 138.09 281.48 137.91 281.36C137.73 281.21 137.57 281.03 137.44 280.84C137.3 280.65 137.19 280.45 137.1 280.23C137.01 280.01 136.95 279.78 136.92 279.55C136.89 279.32 136.89 279.08 136.91 278.85C136.97 278.36 137.1 278.49 138.01 276.69C138.45 275.82 138.57 275.49 138.94 275.36C139.09 275.27 139.44 275.22 140.33 275.73Z" />
	<path id="Layer" class="shp3" d="M147.95 276.57C147.81 276.66 147.68 276.75 147.56 276.86C147.43 276.96 147.32 277.08 147.2 277.19C147.09 277.31 146.99 277.44 146.89 277.57C146.8 277.7 146.71 277.84 146.63 277.98C146.54 278.14 146.45 278.32 146.39 278.5C146.32 278.67 146.27 278.86 146.23 279.04C146.19 279.23 146.17 279.42 146.16 279.61C146.16 279.8 146.17 279.99 146.19 280.18C146.26 280.59 146.35 281.18 146.76 281.37C147.17 281.56 147.92 281.14 148.53 280.71C148.63 280.64 148.73 280.57 148.83 280.49C148.92 280.42 149.01 280.34 149.1 280.25C149.19 280.17 149.28 280.08 149.36 279.99C149.44 279.9 149.52 279.81 149.59 279.71C149.67 279.6 149.74 279.48 149.81 279.36C149.88 279.24 149.94 279.12 150 278.99C150.05 278.87 150.1 278.74 150.14 278.61C150.19 278.48 150.22 278.34 150.25 278.21C150.27 278.14 150.29 278.07 150.3 277.99C150.31 277.92 150.32 277.84 150.32 277.77C150.32 277.7 150.31 277.62 150.3 277.55C150.29 277.47 150.27 277.4 150.25 277.33C150.04 276.8 149.25 276.53 148.25 276.58" />
	<path id="Layer" class="shp3" d="M146.46 267.58C146.61 267.58 148.68 268.12 148.77 269.16C148.77 269.56 148.12 270.16 146.77 271.31C145.83 272.12 145.42 272.37 144.89 272.37C144.78 272.37 144.68 272.36 144.57 272.34C144.46 272.32 144.36 272.29 144.26 272.26C144.16 272.22 144.06 272.17 143.97 272.12C143.87 272.07 143.78 272.01 143.7 271.94C143.46 271.63 143.28 271.27 143.17 270.89C143.06 270.51 143.03 270.11 143.08 269.71C143.13 269.32 143.26 268.94 143.46 268.6C143.65 268.25 143.92 267.95 144.23 267.71C144.4 267.63 144.58 267.56 144.77 267.51C144.95 267.46 145.14 267.43 145.33 267.42C145.52 267.41 145.72 267.42 145.9 267.44C146.09 267.47 146.28 267.52 146.46 267.58L146.46 267.58Z" />
	<path id="Layer" class="shp3" d="M145.89 255.41C146.14 255.36 146.39 255.34 146.64 255.36C146.89 255.37 147.13 255.43 147.36 255.52C147.6 255.6 147.82 255.73 148.02 255.88C148.22 256.03 148.39 256.21 148.54 256.41C148.59 256.5 148.63 256.6 148.66 256.7C148.69 256.8 148.72 256.91 148.73 257.01C148.74 257.12 148.75 257.22 148.74 257.33C148.74 257.43 148.72 257.54 148.7 257.64C148.54 258.28 147.99 258.64 147.22 259.06C147.01 259.25 146.77 259.4 146.51 259.51C146.25 259.61 145.98 259.68 145.69 259.69C145.41 259.71 145.13 259.67 144.86 259.59C144.59 259.51 144.34 259.39 144.11 259.22C143.28 258.81 142.85 258.59 142.75 258.17C142.63 257.59 143.2 257.02 143.58 256.65C143.68 256.55 143.79 256.46 143.9 256.38C144 256.29 144.12 256.21 144.23 256.13C144.35 256.06 144.47 255.99 144.59 255.93C144.72 255.86 144.84 255.8 144.97 255.75C145.04 255.71 145.12 255.68 145.19 255.64C145.27 255.61 145.34 255.58 145.42 255.55C145.5 255.52 145.58 255.5 145.65 255.47C145.73 255.45 145.81 255.43 145.89 255.41L145.89 255.41Z" />
	<path id="Layer" class="shp3" d="M153.4 257.73C153.57 257.76 153.73 257.82 153.89 257.89C154.04 257.97 154.18 258.06 154.32 258.17C154.45 258.27 154.57 258.4 154.67 258.54C154.77 258.67 154.86 258.82 154.92 258.98C154.97 259.12 155.01 259.27 155.04 259.42C155.06 259.56 155.07 259.72 155.06 259.87C155.05 260.02 155.03 260.17 154.99 260.31C154.95 260.46 154.89 260.6 154.82 260.73C154.75 260.84 154.68 260.95 154.59 261.05C154.51 261.15 154.41 261.25 154.31 261.33C154.21 261.42 154.1 261.49 153.99 261.56C153.87 261.63 153.75 261.68 153.63 261.73C153.47 261.82 153.3 261.89 153.12 261.95C152.94 262 152.76 262.04 152.58 262.06C152.39 262.08 152.21 262.08 152.03 262.06C151.84 262.05 151.66 262.01 151.48 261.96C151.34 261.92 151.21 261.87 151.09 261.8C150.96 261.74 150.85 261.66 150.74 261.57C150.63 261.47 150.53 261.37 150.44 261.26C150.36 261.15 150.28 261.03 150.22 260.9C150.18 260.78 150.16 260.65 150.14 260.53C150.13 260.4 150.13 260.27 150.14 260.15C150.15 260.02 150.18 259.89 150.21 259.77C150.25 259.65 150.3 259.53 150.36 259.42C150.39 259.34 150.43 259.26 150.47 259.19C150.51 259.11 150.56 259.04 150.61 258.97C150.66 258.91 150.72 258.84 150.78 258.78C150.84 258.72 150.91 258.67 150.98 258.62C151.03 258.6 151.07 258.58 151.12 258.55C151.17 258.53 151.21 258.51 151.26 258.49C151.31 258.48 151.36 258.46 151.41 258.44C151.45 258.42 151.5 258.41 151.55 258.39C152.34 258.06 152.55 257.68 153.07 257.66C153.1 257.66 153.13 257.67 153.15 257.67C153.18 257.67 153.21 257.68 153.24 257.69C153.27 257.69 153.29 257.7 153.32 257.71C153.35 257.71 153.37 257.72 153.4 257.73Z" />
	<path id="Layer" class="shp3" d="M150.95 247.74C151.43 247.84 152.82 248.11 153.2 249.26C153.28 249.53 153.31 249.82 153.28 250.1C153.25 250.38 153.17 250.66 153.03 250.91C152.9 251.16 152.71 251.38 152.49 251.55C152.27 251.73 152.01 251.86 151.74 251.94C151.63 251.98 151.51 252.02 151.4 252.04C151.28 252.07 151.16 252.09 151.04 252.1C150.92 252.11 150.8 252.11 150.68 252.11C150.56 252.1 150.44 252.09 150.32 252.07C150.17 252.04 150.03 252 149.88 251.95C149.74 251.89 149.6 251.83 149.47 251.75C149.34 251.68 149.22 251.59 149.1 251.49C148.98 251.4 148.87 251.29 148.77 251.18C148.65 251.07 148.54 250.95 148.44 250.81C148.34 250.68 148.25 250.54 148.18 250.39C148.11 250.24 148.05 250.08 148.01 249.92C147.97 249.76 147.95 249.6 147.94 249.43C147.94 249.33 147.95 249.24 147.96 249.14C147.97 249.05 148 248.95 148.02 248.86C148.05 248.77 148.09 248.68 148.13 248.59C148.17 248.5 148.22 248.42 148.27 248.34C149.01 247.35 150.69 247.69 150.95 247.74Z" />
	<path id="Layer" class="shp3" d="M147.98 238.75C148.76 239.02 149.57 239.75 149.46 240.54C149.39 241.06 148.87 241.36 147.81 241.96C146.75 242.56 146.32 242.81 145.81 242.62C145.66 242.53 145.52 242.42 145.4 242.3C145.28 242.17 145.18 242.03 145.1 241.88C145.01 241.72 144.95 241.56 144.92 241.39C144.88 241.22 144.87 241.04 144.88 240.87C144.89 240.73 144.9 240.59 144.93 240.45C144.96 240.31 145.01 240.18 145.07 240.05C145.12 239.92 145.19 239.79 145.27 239.68C145.35 239.56 145.44 239.45 145.54 239.35C145.7 239.19 145.87 239.06 146.06 238.95C146.26 238.84 146.46 238.76 146.68 238.7C146.89 238.65 147.11 238.63 147.33 238.64C147.55 238.64 147.77 238.68 147.98 238.75L147.98 238.75Z" />
	<path id="Layer" class="shp3" d="M157.46 239.71C158.73 239.78 160.2 240.6 160.24 241.56C160.24 242.05 159.9 242.42 159.41 242.92C159.23 243.11 159.03 243.28 158.81 243.44C158.6 243.6 158.38 243.74 158.15 243.86C157.92 243.99 157.68 244.1 157.43 244.19C157.18 244.28 156.93 244.36 156.67 244.41C156.02 244.53 154.24 244.87 153.67 243.98C153.1 243.09 154.15 241.56 154.27 241.4C154.45 241.14 154.66 240.91 154.9 240.71C155.13 240.5 155.39 240.32 155.66 240.17C155.94 240.03 156.23 239.91 156.54 239.84C156.84 239.76 157.15 239.72 157.46 239.71L157.46 239.71Z" />
	<path id="Layer" class="shp3" d="M149.45 231.53C149.99 231.84 150.57 232.53 150.45 233.11C150.4 233.34 150.24 233.5 149.04 234.11C147.24 235.05 146.87 235.11 146.62 235.11C146.47 235.12 146.32 235.12 146.18 235.09C146.03 235.07 145.88 235.03 145.75 234.97C145.61 234.91 145.48 234.84 145.36 234.75C145.24 234.67 145.13 234.56 145.03 234.45C144.96 234.26 144.92 234.07 144.9 233.86C144.89 233.66 144.91 233.46 144.95 233.27C145 233.07 145.08 232.89 145.18 232.71C145.28 232.54 145.41 232.38 145.56 232.25C145.65 232.17 145.75 232.09 145.85 232.02C145.94 231.95 146.05 231.89 146.16 231.83C146.27 231.78 146.38 231.73 146.49 231.69C146.61 231.65 146.72 231.62 146.84 231.59C147.04 231.49 147.26 231.42 147.47 231.37C147.69 231.31 147.92 231.29 148.14 231.28C148.36 231.28 148.59 231.29 148.81 231.34C149.03 231.38 149.24 231.44 149.45 231.53L149.45 231.53Z" />
	<path id="Layer" class="shp3" d="M140.73 223.42C141.01 223.5 143.07 224.15 143.24 225.71C143.27 225.91 143.26 226.11 143.23 226.3C143.2 226.5 143.14 226.69 143.05 226.86C142.96 227.04 142.84 227.2 142.71 227.35C142.57 227.49 142.41 227.61 142.24 227.71C141.78 227.9 141.36 227.71 140.66 227.49C140.4 227.42 140.14 227.32 139.89 227.2C139.64 227.09 139.41 226.95 139.19 226.78C138.97 226.62 138.76 226.44 138.57 226.24C138.38 226.04 138.21 225.83 138.06 225.6C137.82 225.19 137.33 224.35 137.66 223.75C138.09 222.96 139.77 223.11 140.73 223.42Z" />
	<path id="Layer" class="shp3" d="M149.36 221.92C149.2 221.97 149.05 222.04 148.91 222.13C148.77 222.22 148.64 222.33 148.53 222.46C148.42 222.58 148.32 222.72 148.25 222.87C148.18 223.03 148.12 223.19 148.09 223.35C148.07 223.52 148.07 223.7 148.08 223.87C148.1 224.04 148.13 224.21 148.18 224.38C148.23 224.54 148.29 224.7 148.38 224.86C148.46 225.01 148.55 225.16 148.66 225.29C148.73 225.42 148.8 225.54 148.88 225.66C148.97 225.78 149.06 225.89 149.16 226C149.26 226.1 149.37 226.2 149.49 226.29C149.6 226.37 149.72 226.45 149.85 226.52C149.98 226.58 150.11 226.62 150.24 226.66C150.38 226.69 150.52 226.71 150.66 226.72C150.79 226.73 150.93 226.73 151.07 226.72C151.21 226.71 151.35 226.69 151.48 226.65C151.6 226.63 151.72 226.6 151.84 226.56C151.96 226.52 152.07 226.46 152.18 226.4C152.28 226.33 152.38 226.26 152.47 226.18C152.56 226.09 152.65 226 152.72 225.9C152.78 225.8 152.83 225.69 152.87 225.58C152.91 225.47 152.93 225.35 152.95 225.24C152.96 225.12 152.96 225 152.95 224.89C152.95 224.77 152.92 224.65 152.89 224.54C152.73 223.85 152.23 223.46 151.48 222.91C150.54 222.15 150.01 221.76 149.36 221.92Z" />
	<path id="Layer" class="shp3" d="M141.74 211.12C142.74 211.36 144.24 212.22 144.34 213.54C144.35 213.7 144.34 213.85 144.32 214C144.29 214.16 144.25 214.31 144.19 214.45C144.14 214.6 144.06 214.73 143.98 214.86C143.89 214.99 143.79 215.11 143.68 215.22C143.53 215.31 143.37 215.39 143.2 215.45C143.03 215.52 142.86 215.56 142.68 215.59C142.5 215.61 142.32 215.62 142.14 215.61C141.96 215.6 141.78 215.58 141.61 215.53C141.42 215.53 141.22 215.5 141.03 215.47C140.84 215.43 140.65 215.38 140.46 215.31C140.28 215.24 140.1 215.16 139.93 215.06C139.76 214.96 139.6 214.85 139.45 214.73C139.27 214.59 139.11 214.43 138.98 214.24C138.85 214.06 138.74 213.86 138.66 213.65C138.58 213.43 138.54 213.21 138.52 212.98C138.51 212.76 138.52 212.53 138.57 212.31C138.63 212.19 138.7 212.08 138.78 211.98C138.86 211.88 138.95 211.78 139.04 211.7C139.14 211.61 139.25 211.54 139.36 211.47C139.47 211.41 139.59 211.35 139.71 211.31C139.87 211.24 140.03 211.18 140.2 211.14C140.37 211.09 140.54 211.06 140.71 211.05C140.88 211.03 141.06 211.03 141.23 211.04C141.4 211.05 141.57 211.08 141.74 211.12Z" />
	<path id="Layer" class="shp3" d="M133.32 201.95C134.51 201.95 136.32 202.5 136.5 203.63C136.5 203.8 136.48 203.97 136.45 204.13C136.41 204.3 136.36 204.46 136.29 204.62C136.22 204.77 136.14 204.92 136.04 205.05C135.94 205.19 135.83 205.32 135.7 205.43C135.6 205.54 135.49 205.65 135.38 205.75C135.26 205.85 135.14 205.94 135.02 206.03C134.89 206.11 134.76 206.19 134.62 206.26C134.49 206.32 134.35 206.38 134.2 206.43C133.99 206.55 133.77 206.64 133.54 206.7C133.31 206.77 133.07 206.81 132.83 206.81C132.59 206.82 132.35 206.8 132.11 206.75C131.88 206.7 131.65 206.62 131.43 206.52C131.27 206.39 131.12 206.24 130.99 206.07C130.87 205.91 130.76 205.73 130.67 205.54C130.58 205.35 130.52 205.15 130.48 204.94C130.44 204.74 130.42 204.53 130.43 204.32C130.43 204.19 130.44 204.07 130.47 203.94C130.49 203.82 130.52 203.7 130.56 203.58C130.6 203.46 130.65 203.34 130.71 203.23C130.77 203.12 130.84 203.01 130.92 202.91C131.07 202.75 131.24 202.6 131.42 202.47C131.61 202.35 131.81 202.24 132.01 202.16C132.22 202.08 132.43 202.02 132.66 201.98C132.88 201.95 133.1 201.94 133.32 201.95Z" />
	<path id="Layer" class="shp3" d="M145.18 198.35C144.88 198.31 144.58 198.32 144.29 198.37C143.99 198.43 143.71 198.54 143.45 198.69C143.19 198.84 142.96 199.03 142.77 199.26C142.57 199.49 142.42 199.75 142.31 200.03C142.19 200.67 142.55 201.23 143.02 201.97C143.49 202.71 143.85 203.26 144.6 203.42C144.74 203.44 144.89 203.45 145.03 203.44C145.18 203.44 145.32 203.41 145.46 203.38C145.6 203.35 145.74 203.3 145.87 203.24C146 203.18 146.12 203.1 146.24 203.02C146.35 202.95 146.45 202.88 146.54 202.8C146.64 202.72 146.73 202.63 146.81 202.54C146.9 202.44 146.98 202.35 147.05 202.24C147.12 202.14 147.18 202.03 147.24 201.92C147.31 201.8 147.37 201.68 147.42 201.55C147.47 201.42 147.51 201.29 147.54 201.15C147.57 201.02 147.59 200.88 147.6 200.74C147.61 200.61 147.6 200.47 147.59 200.33C147.52 200.06 147.4 199.81 147.25 199.57C147.1 199.34 146.92 199.13 146.7 198.96C146.49 198.78 146.25 198.64 145.99 198.53C145.73 198.43 145.46 198.37 145.18 198.35L145.18 198.35Z" />
	<path id="Layer" class="shp3" d="M137.24 187.94C137.57 187.95 137.91 187.99 138.23 188.07C138.55 188.15 138.87 188.27 139.17 188.42C139.46 188.57 139.74 188.76 140 188.97C140.25 189.19 140.48 189.43 140.68 189.7C141.02 190.25 141.42 191.29 140.99 191.9C140.8 192.17 140.61 192.14 139.58 192.56C138.34 193.08 138.37 193.23 137.86 193.31C137.67 193.35 137.48 193.37 137.28 193.37C137.09 193.36 136.89 193.34 136.7 193.29C136.51 193.25 136.33 193.18 136.15 193.09C135.98 193.01 135.81 192.9 135.66 192.78C135.36 192.49 135.27 191.68 135.08 190.1C134.94 188.79 134.96 188.55 135.08 188.33C135.57 187.76 136.57 187.86 137.24 187.94Z" />
	<path id="Layer" class="shp3" d="M130.15 180.8C131.26 180.61 132.24 182.62 132.57 183.31C132.9 184 133.12 184.46 132.93 184.98C132.85 185.14 132.74 185.3 132.62 185.43C132.49 185.56 132.34 185.67 132.18 185.76C132.02 185.85 131.85 185.91 131.67 185.95C131.49 185.99 131.3 186 131.12 185.98C130.12 185.89 129.6 184.92 129.31 184.39C129.22 184.25 129.15 184.11 129.08 183.96C129.02 183.81 128.97 183.66 128.93 183.5C128.89 183.35 128.87 183.19 128.86 183.02C128.85 182.86 128.85 182.7 128.87 182.54C128.98 181.87 129.44 180.91 130.15 180.8Z" />
	<path id="Layer" class="shp3" d="M141.26 178.99C142.26 178.67 143.2 179.42 144.03 180.09C144.86 180.76 145.61 181.36 145.49 182.21C145.37 183.06 144.49 183.36 144.03 183.62C143.85 183.71 143.65 183.79 143.45 183.85C143.26 183.91 143.05 183.96 142.85 183.98C142.64 184.01 142.43 184.02 142.23 184.01C142.02 184 141.81 183.97 141.61 183.93C141.3 183.89 141 183.79 140.73 183.62C140.46 183.46 140.23 183.24 140.05 182.98C139.87 182.73 139.75 182.43 139.69 182.12C139.63 181.81 139.64 181.5 139.71 181.19C139.73 180.96 139.78 180.72 139.86 180.5C139.94 180.28 140.05 180.07 140.18 179.88C140.32 179.69 140.48 179.51 140.66 179.36C140.84 179.21 141.05 179.09 141.26 178.99Z" />
	<path id="Layer" class="shp3" d="M130.94 170.57C131.15 170.6 131.35 170.65 131.55 170.71C131.76 170.77 131.95 170.85 132.14 170.94C132.33 171.03 132.52 171.13 132.69 171.25C132.87 171.36 133.03 171.49 133.19 171.63C133.56 172 134.09 172.53 133.98 173.13C133.87 173.73 133.33 173.96 132.84 174.23C132.72 174.32 132.58 174.4 132.44 174.47C132.3 174.53 132.15 174.58 132 174.61C131.85 174.65 131.69 174.67 131.54 174.67C131.38 174.67 131.22 174.66 131.07 174.63C130.07 174.3 129.89 172.97 129.84 172.63C129.72 171.88 129.84 170.74 130.37 170.52C130.5 170.47 130.63 170.49 130.94 170.57Z" />
	<path id="Layer" class="shp3" d="M135.75 165.24C136.03 165.22 136.31 165.23 136.59 165.27C136.87 165.3 137.14 165.37 137.41 165.46C137.67 165.55 137.93 165.67 138.17 165.81C138.41 165.95 138.64 166.11 138.85 166.3C138.93 166.37 139.94 167.47 139.58 168.21C139.22 168.95 137.74 168.88 136.94 168.68C136.73 168.62 136.53 168.54 136.33 168.45C136.13 168.35 135.94 168.24 135.76 168.12C135.58 168 135.41 167.86 135.26 167.71C135.1 167.56 134.95 167.39 134.82 167.22C134.45 166.79 133.82 166.03 134.03 165.57C134.24 165.11 135.03 165.2 135.75 165.24Z" />
	<path id="Layer" class="shp3" d="M122.99 169.53C123.9 169.96 124.51 170.26 124.77 170.96C124.82 171.12 124.85 171.28 124.86 171.45C124.87 171.62 124.86 171.78 124.84 171.95C124.81 172.11 124.77 172.28 124.71 172.43C124.64 172.58 124.57 172.73 124.47 172.87C124.37 173.01 124.25 173.14 124.12 173.25C123.99 173.37 123.85 173.47 123.7 173.55C123.55 173.64 123.39 173.71 123.23 173.76C123.06 173.82 122.89 173.85 122.72 173.87C122.57 173.89 122.41 173.89 122.26 173.88C122.1 173.88 121.95 173.85 121.8 173.82C121.65 173.79 121.5 173.74 121.35 173.68C121.21 173.62 121.07 173.55 120.94 173.47C120.8 173.39 120.67 173.29 120.54 173.19C120.41 173.08 120.29 172.97 120.18 172.85C120.07 172.73 119.96 172.6 119.87 172.47C119.77 172.34 119.69 172.2 119.61 172.05C119.5 171.92 119.41 171.77 119.34 171.62C119.26 171.47 119.2 171.31 119.16 171.14C119.12 170.98 119.09 170.81 119.09 170.64C119.08 170.47 119.09 170.3 119.12 170.13C119.18 170 119.25 169.87 119.34 169.75C119.42 169.64 119.52 169.53 119.63 169.43C119.74 169.33 119.85 169.25 119.98 169.18C120.11 169.11 120.24 169.05 120.38 169.01C120.6 168.96 120.83 168.94 121.06 168.94C121.29 168.94 121.51 168.96 121.74 169.01C121.96 169.05 122.18 169.12 122.39 169.21C122.6 169.29 122.8 169.4 122.99 169.53L122.99 169.53Z" />
	<path id="Layer" class="shp3" d="M118.36 162.56C118.37 162.76 118.39 162.95 118.44 163.14C118.49 163.33 118.57 163.51 118.66 163.68C118.75 163.86 118.86 164.02 118.99 164.17C119.12 164.31 119.26 164.45 119.42 164.56C119.58 164.66 119.75 164.74 119.92 164.8C120.1 164.87 120.28 164.91 120.46 164.94C120.65 164.97 120.83 164.98 121.02 164.97C121.21 164.96 121.39 164.94 121.57 164.89C121.71 164.88 121.84 164.86 121.97 164.83C122.1 164.79 122.23 164.75 122.35 164.69C122.48 164.63 122.59 164.55 122.7 164.47C122.8 164.39 122.9 164.29 122.99 164.19C123.3 163.72 122.99 163.39 123.35 162.61C123.61 162.01 123.87 161.97 123.85 161.61C123.85 160.95 122.65 160.54 122.39 160.45C122.23 160.39 122.06 160.35 121.89 160.32C121.72 160.28 121.55 160.26 121.37 160.25C121.2 160.25 121.03 160.25 120.85 160.27C120.68 160.28 120.51 160.31 120.34 160.35C120.23 160.36 120.11 160.39 120 160.42C119.89 160.45 119.78 160.48 119.68 160.53C119.57 160.57 119.47 160.62 119.37 160.68C119.27 160.74 119.18 160.81 119.09 160.88C118.98 160.99 118.87 161.11 118.78 161.23C118.69 161.36 118.62 161.5 118.55 161.64C118.49 161.79 118.44 161.94 118.41 162.09C118.38 162.25 118.36 162.4 118.36 162.56L118.36 162.56Z" />
	<path id="Layer" class="shp3" d="M107.25 155.06C108.04 155.06 109.42 155.06 109.8 155.82C109.84 155.92 109.86 156.02 109.87 156.13C109.89 156.23 109.89 156.34 109.88 156.44C109.87 156.55 109.85 156.65 109.82 156.75C109.79 156.85 109.75 156.95 109.7 157.04C109.49 157.53 109.14 157.78 108.44 158.26C108.33 158.34 108.22 158.42 108.11 158.5C108 158.58 107.88 158.65 107.76 158.71C107.64 158.78 107.52 158.84 107.4 158.9C107.27 158.96 107.15 159.01 107.02 159.06C106.87 159.13 106.72 159.18 106.56 159.22C106.4 159.27 106.24 159.29 106.08 159.31C105.91 159.32 105.75 159.32 105.58 159.31C105.42 159.29 105.26 159.26 105.1 159.22C104.83 159.1 104.58 158.93 104.37 158.71C104.16 158.5 103.99 158.25 103.87 157.97C103.75 157.7 103.69 157.4 103.68 157.1C103.67 156.8 103.71 156.5 103.81 156.22C104.17 155.56 105.07 155.36 106.03 155.16C106.13 155.14 106.23 155.12 106.33 155.11C106.43 155.1 106.54 155.09 106.64 155.08C106.74 155.07 106.84 155.06 106.94 155.06C107.05 155.06 107.15 155.06 107.25 155.06L107.25 155.06Z" />
	<path id="Layer" class="shp3" d="M120.09 147.87C120.42 147.83 120.75 147.85 121.08 147.91C121.41 147.98 121.72 148.09 122.01 148.26C122.3 148.42 122.56 148.62 122.79 148.86C123.02 149.1 123.21 149.38 123.35 149.68C123.41 149.78 123.46 149.88 123.49 149.99C123.53 150.1 123.56 150.21 123.57 150.32C123.59 150.43 123.59 150.55 123.59 150.66C123.58 150.78 123.56 150.89 123.53 151C123.32 151.54 122.73 151.76 122.12 152C121.91 152.11 121.68 152.19 121.45 152.26C121.22 152.32 120.99 152.36 120.75 152.38C120.51 152.39 120.27 152.38 120.04 152.35C119.8 152.32 119.57 152.26 119.34 152.18C119.12 152.09 118.92 151.97 118.73 151.82C118.55 151.67 118.38 151.49 118.25 151.3C118.11 151.11 118 150.89 117.93 150.67C117.85 150.44 117.81 150.21 117.8 149.97C117.89 148.76 119.15 148.03 120.09 147.87Z" />
	<path id="Layer" class="shp3" d="M108.64 141.13C109.49 141.19 111.08 141.62 111.29 142.76C111.32 142.92 111.32 143.08 111.3 143.24C111.28 143.4 111.24 143.55 111.18 143.7C111.11 143.84 111.03 143.98 110.93 144.11C110.83 144.23 110.71 144.34 110.58 144.43C110.36 144.57 110.18 144.58 108.38 144.48C108.28 144.48 108.17 144.48 108.07 144.48C107.96 144.48 107.86 144.47 107.76 144.46C107.65 144.45 107.55 144.43 107.45 144.42C107.34 144.4 107.24 144.38 107.14 144.35C106.94 144.27 106.76 144.17 106.59 144.03C106.42 143.9 106.28 143.74 106.16 143.56C106.04 143.38 105.96 143.19 105.9 142.98C105.84 142.78 105.81 142.56 105.82 142.35C106.09 141.35 107.7 141.06 108.64 141.13Z" />
	<path id="Layer" class="shp3" d="M95.78 136.48C97.06 136.48 97.9 136.48 98.46 137.07C98.55 137.18 98.63 137.3 98.69 137.42C98.76 137.55 98.81 137.68 98.85 137.82C98.89 137.95 98.92 138.09 98.93 138.24C98.94 138.38 98.94 138.52 98.92 138.66C98.89 138.87 98.83 139.09 98.75 139.29C98.67 139.49 98.56 139.68 98.43 139.85C98.3 140.02 98.15 140.18 97.98 140.32C97.81 140.45 97.63 140.57 97.43 140.66C97.21 140.74 96.98 140.8 96.74 140.83C96.5 140.86 96.26 140.86 96.03 140.83C95.79 140.81 95.56 140.76 95.33 140.68C95.11 140.6 94.89 140.5 94.69 140.37C94.54 140.29 94.4 140.2 94.26 140.11C94.13 140.01 94 139.9 93.88 139.78C93.76 139.66 93.65 139.54 93.54 139.4C93.44 139.27 93.35 139.13 93.27 138.98C93.08 138.61 92.66 137.82 92.97 137.23C93.28 136.64 94.44 136.5 95.78 136.48Z" />
	<path id="Layer" class="shp3" d="M102.79 127.95C103.04 127.87 103.29 127.81 103.55 127.79C103.8 127.77 104.06 127.78 104.32 127.82C104.57 127.86 104.82 127.93 105.06 128.03C105.3 128.13 105.52 128.26 105.73 128.41C105.84 128.5 105.95 128.6 106.04 128.71C106.13 128.82 106.21 128.94 106.27 129.07C106.34 129.2 106.39 129.33 106.43 129.47C106.46 129.61 106.49 129.76 106.49 129.9C106.44 130.9 105.27 131.59 104.38 131.75C104.19 131.78 104 131.79 103.81 131.78C103.61 131.77 103.42 131.74 103.24 131.69C103.05 131.65 102.87 131.59 102.69 131.51C102.52 131.43 102.35 131.33 102.19 131.22C101.81 130.97 100.91 130.39 100.94 129.6C100.98 128.55 102.61 128.01 102.79 127.95Z" />
	<path id="Layer" class="shp3" d="M87.65 125.35C87.96 125.47 89.21 125.97 89.34 127.03C89.35 127.18 89.33 127.33 89.31 127.48C89.28 127.62 89.23 127.77 89.17 127.9C89.11 128.04 89.04 128.17 88.95 128.29C88.86 128.41 88.76 128.52 88.64 128.62C88.33 128.89 88.11 128.91 86.99 129.18C85.12 129.64 84.99 129.77 84.61 129.61C84.47 129.51 84.34 129.4 84.22 129.28C84.1 129.15 84 129.01 83.91 128.86C83.83 128.72 83.76 128.56 83.71 128.39C83.66 128.23 83.62 128.06 83.61 127.89C83.59 127.72 83.58 127.55 83.6 127.38C83.61 127.21 83.63 127.05 83.68 126.88C83.72 126.72 83.78 126.56 83.85 126.41C83.92 126.25 84.01 126.11 84.11 125.97C84.34 125.75 84.6 125.56 84.88 125.41C85.17 125.27 85.47 125.17 85.79 125.11C86.1 125.06 86.42 125.05 86.74 125.09C87.05 125.13 87.36 125.22 87.65 125.35L87.65 125.35Z" />
	<path id="Layer" class="shp3" d="M80.74 115.3C81 115.28 81.27 115.28 81.53 115.32C81.79 115.35 82.05 115.41 82.3 115.5C82.55 115.58 82.79 115.69 83.02 115.83C83.24 115.96 83.46 116.12 83.65 116.3C83.82 116.42 85.65 117.84 85.24 118.76C84.97 119.39 83.84 119.46 83.61 119.47C83 119.47 82.88 119.29 81.45 118.81C80.2 118.39 79.83 118.38 79.29 117.93C78.97 117.66 78.59 117.34 78.58 116.93C78.57 116.16 79.74 115.45 80.74 115.3Z" />
	<path id="Layer" class="shp3" d="M71.4 122.13C72.48 121.89 74.55 121.76 75.1 122.79C75.26 123.09 75.18 123.61 75.01 124.65C74.84 125.69 74.77 126.12 74.4 126.45C74.3 126.54 74.19 126.61 74.07 126.67C73.95 126.73 73.82 126.78 73.69 126.81C73.56 126.84 73.43 126.86 73.3 126.86C73.16 126.86 73.03 126.84 72.9 126.81C72.07 126.58 72.13 125.81 71 124.69C70.07 123.78 69.39 123.69 69.41 123.28C69.45 122.58 71.22 122.17 71.4 122.13Z" />
	<path id="Layer" class="shp3" d="M70.3 108.35C70.59 108.39 70.88 108.47 71.15 108.59C71.42 108.7 71.67 108.86 71.9 109.05C72.12 109.24 72.32 109.47 72.48 109.71C72.64 109.96 72.77 110.23 72.85 110.51C72.93 110.66 72.98 110.81 73.02 110.97C73.06 111.13 73.08 111.29 73.08 111.46C73.08 111.62 73.06 111.78 73.02 111.94C72.98 112.1 72.93 112.25 72.85 112.4C72.4 112.97 71.51 112.91 70.56 112.84C70.36 112.86 70.16 112.86 69.96 112.83C69.76 112.81 69.56 112.77 69.37 112.71C69.17 112.65 68.99 112.57 68.81 112.48C68.63 112.38 68.47 112.27 68.31 112.14C68.16 111.98 68.03 111.8 67.93 111.61C67.83 111.42 67.76 111.21 67.72 111C67.67 110.78 67.66 110.56 67.68 110.35C67.7 110.13 67.74 109.91 67.82 109.71C67.94 109.49 68.08 109.28 68.26 109.1C68.43 108.92 68.63 108.77 68.85 108.65C69.07 108.53 69.31 108.44 69.55 108.39C69.8 108.34 70.05 108.33 70.3 108.35L70.3 108.35Z" />
	<path id="Layer" class="shp3" d="M59.72 106.88C59.91 106.95 60.08 107.05 60.23 107.17C60.39 107.3 60.52 107.44 60.63 107.61C60.74 107.77 60.82 107.95 60.88 108.14C60.93 108.33 60.96 108.53 60.95 108.73C60.94 108.93 60.89 109.13 60.81 109.32C60.73 109.51 60.62 109.68 60.48 109.83C60.34 109.98 60.18 110.1 59.99 110.2C59.81 110.29 59.61 110.35 59.41 110.37C58.91 110.37 58.54 109.76 57.78 108.6C57.31 107.88 57.31 107.71 57.34 107.6C57.49 106.97 58.74 106.49 59.72 106.88Z" />
	<path id="Layer" class="shp3" d="M62.94 101.82C63.23 101.74 63.53 101.7 63.83 101.7C64.13 101.71 64.43 101.75 64.72 101.84C65.01 101.93 65.28 102.06 65.53 102.22C65.78 102.39 66.01 102.59 66.2 102.82C66.47 103.13 66.83 103.53 66.73 103.92C66.55 104.59 65.17 104.75 64.3 104.85C64.19 104.88 64.08 104.9 63.96 104.92C63.85 104.93 63.74 104.94 63.62 104.94C63.51 104.94 63.39 104.93 63.28 104.92C63.16 104.9 63.05 104.88 62.94 104.85C62.75 104.78 62.58 104.68 62.42 104.55C62.27 104.42 62.13 104.27 62.03 104.1C61.92 103.93 61.84 103.74 61.79 103.55C61.75 103.35 61.73 103.15 61.75 102.95C61.91 102.21 62.77 101.88 62.94 101.82Z" />
	<path id="Layer" class="shp3" d="M55.42 100.27C55.61 100.16 55.83 100.08 56.04 100.04C56.26 100 56.49 99.99 56.71 100.02C56.93 100.05 57.14 100.12 57.34 100.22C57.54 100.31 57.72 100.44 57.88 100.6C57.94 100.66 58 100.73 58.05 100.8C58.1 100.87 58.14 100.95 58.17 101.03C58.2 101.11 58.22 101.19 58.24 101.28C58.25 101.37 58.26 101.45 58.25 101.54C58.15 102.21 57.25 102.54 56.66 102.61C56.55 102.62 56.43 102.62 56.31 102.61C56.2 102.61 56.08 102.59 55.97 102.57C55.86 102.54 55.74 102.51 55.64 102.47C55.53 102.43 55.42 102.38 55.32 102.32C55 102.14 54.66 101.96 54.57 101.62C54.44 101.1 54.98 100.53 55.42 100.27Z" />
	<path id="Layer" class="shp3" d="M46.09 98.68C46.31 98.65 46.53 98.64 46.75 98.67C46.97 98.69 47.19 98.74 47.39 98.82C47.6 98.9 47.8 99 47.98 99.13C48.16 99.26 48.32 99.41 48.46 99.58C48.55 99.67 48.63 99.77 48.7 99.87C48.77 99.98 48.83 100.1 48.87 100.22C48.92 100.34 48.95 100.46 48.96 100.59C48.98 100.72 48.98 100.84 48.96 100.97C48.93 101.07 48.9 101.16 48.85 101.25C48.8 101.34 48.75 101.42 48.68 101.5C48.62 101.58 48.55 101.65 48.47 101.71C48.39 101.77 48.3 101.83 48.21 101.87C48.09 101.92 47.95 101.96 47.82 101.99C47.69 102.01 47.55 102.03 47.42 102.03C47.28 102.03 47.14 102.01 47.01 101.99C46.88 101.96 46.75 101.92 46.62 101.87C46.45 101.82 46.28 101.76 46.12 101.69C45.96 101.61 45.8 101.52 45.66 101.42C45.51 101.32 45.37 101.2 45.25 101.08C45.12 100.95 45 100.82 44.9 100.67C44.85 100.61 44.8 100.55 44.76 100.49C44.72 100.42 44.69 100.35 44.66 100.28C44.63 100.21 44.61 100.14 44.6 100.06C44.58 99.98 44.58 99.91 44.58 99.83C44.65 99.15 45.53 98.78 46.09 98.68Z" />
	<path id="Layer" class="shp3" d="M46.09 92.87C47.35 92.4 49.3 92.56 49.79 93.71C49.85 93.87 49.89 94.04 49.91 94.21C49.92 94.37 49.91 94.55 49.87 94.71C49.84 94.88 49.78 95.04 49.7 95.19C49.62 95.34 49.52 95.48 49.4 95.6C49.24 95.71 49.07 95.8 48.89 95.87C48.71 95.94 48.52 95.98 48.33 96.01C48.14 96.03 47.94 96.03 47.75 96.01C47.56 95.98 47.37 95.94 47.19 95.87C46.12 95.63 44.64 94.87 44.72 94.01C44.8 93.35 45.83 92.97 46.09 92.87Z" />
	<path id="Layer" class="shp3" d="M53.33 94.45C54.33 94.61 56.02 95.21 56.02 96.09C56.02 96.64 55.34 97.09 54.83 97.28C54.62 97.32 54.41 97.34 54.2 97.33C53.99 97.32 53.77 97.28 53.57 97.22C53.37 97.16 53.17 97.07 52.99 96.96C52.81 96.85 52.64 96.72 52.49 96.57C51.97 96.13 51.24 95.22 51.49 94.72C51.74 94.22 52.9 94.35 53.33 94.45Z" />
	<path id="Layer" class="shp3" d="M36.41 81.05C36.55 80.94 36.73 80.89 38.56 81.28C40.18 81.62 40.44 81.75 40.56 82C40.68 82.25 40.47 82.69 40.06 83.43C39.56 84.32 39.31 84.77 38.87 84.91C38.08 85.18 37.13 84.49 36.66 83.86C35.98 82.95 35.81 81.51 36.41 81.05Z" />
	<path id="Layer" class="shp3" d="M45.44 82C45.37 82.03 45.3 82.07 45.23 82.12C45.17 82.17 45.11 82.22 45.05 82.28C45 82.34 44.95 82.41 44.91 82.48C44.87 82.55 44.84 82.62 44.81 82.7C44.66 83.33 45.42 83.61 46.03 85.05C46.21 85.46 46.23 85.64 46.43 85.74C46.93 85.99 47.94 85.48 48.25 84.68C48.31 84.47 48.33 84.25 48.32 84.02C48.31 83.8 48.27 83.59 48.19 83.38C48.11 83.17 48.01 82.98 47.87 82.8C47.73 82.63 47.57 82.48 47.39 82.35C47.26 82.24 47.11 82.15 46.95 82.08C46.8 82.01 46.63 81.96 46.46 81.93C46.29 81.89 46.12 81.89 45.95 81.9C45.77 81.91 45.6 81.95 45.44 82L45.44 82Z" />
	<path id="Layer" class="shp3" d="M43.54 73.74C44.16 74.02 45.21 74.5 45.31 75.41C45.3 75.58 45.28 75.74 45.23 75.9C45.19 76.06 45.13 76.22 45.05 76.36C44.97 76.51 44.87 76.64 44.76 76.76C44.64 76.89 44.52 77 44.38 77.09C44.27 77.19 44.14 77.27 44.01 77.34C43.88 77.41 43.74 77.47 43.6 77.51C43.45 77.55 43.31 77.58 43.16 77.59C43.01 77.6 42.86 77.59 42.71 77.57C42.24 77.46 42.19 77.18 41.3 76.25C40.41 75.32 39.87 75.06 39.89 74.62C39.89 73.99 40.78 73.62 40.89 73.52C41.11 73.44 41.33 73.39 41.56 73.36C41.78 73.33 42.01 73.32 42.24 73.34C42.47 73.36 42.69 73.4 42.91 73.47C43.13 73.54 43.34 73.63 43.54 73.74Z" />
	<path id="Layer" class="shp3" d="M40.9 64.44C42.15 64.44 43.44 65.77 43.23 66.69C43.16 67.01 42.66 67.34 41.65 68.01C40.64 68.68 40.58 68.61 40.41 68.54C40.24 68.47 40.15 68.16 39.97 67.17C39.66 65.45 39.55 65.17 39.79 64.86C39.86 64.79 39.94 64.72 40.03 64.67C40.11 64.61 40.2 64.56 40.3 64.53C40.4 64.49 40.49 64.47 40.6 64.45C40.7 64.44 40.8 64.43 40.9 64.44L40.9 64.44Z" />
	<path id="Layer" class="shp3" d="M46.41 66.35C46.26 66.43 46.12 66.54 46 66.66C45.88 66.78 45.78 66.92 45.7 67.07C45.61 67.22 45.55 67.38 45.51 67.55C45.47 67.72 45.45 67.89 45.46 68.06C45.46 68.16 45.47 68.26 45.48 68.36C45.5 68.46 45.53 68.56 45.57 68.66C45.61 68.75 45.66 68.84 45.71 68.93C45.77 69.01 45.84 69.09 45.91 69.16C46.08 69.25 46.26 69.32 46.45 69.36C46.64 69.39 46.83 69.4 47.03 69.38C47.22 69.35 47.4 69.3 47.58 69.22C47.75 69.13 47.91 69.02 48.05 68.89C48.17 68.8 48.28 68.69 48.37 68.57C48.46 68.45 48.54 68.32 48.6 68.18C48.65 68.04 48.69 67.89 48.72 67.74C48.74 67.59 48.74 67.44 48.72 67.29C48.69 67.18 48.65 67.08 48.6 66.98C48.55 66.88 48.49 66.79 48.42 66.7C48.35 66.61 48.27 66.54 48.18 66.47C48.1 66.4 48 66.34 47.9 66.29C47.78 66.24 47.66 66.2 47.53 66.17C47.41 66.15 47.28 66.14 47.15 66.14C47.02 66.15 46.89 66.17 46.77 66.2C46.64 66.24 46.52 66.29 46.41 66.35Z" />
	<path id="Layer" class="shp3" d="M42.2 57.19C43.29 57.19 44.8 57.79 44.91 58.76C44.91 58.86 44.9 58.96 44.89 59.06C44.87 59.17 44.84 59.26 44.81 59.36C44.77 59.46 44.73 59.55 44.67 59.63C44.62 59.72 44.56 59.8 44.49 59.88C44.41 59.99 44.32 60.1 44.22 60.19C44.11 60.29 44 60.37 43.88 60.45C43.76 60.52 43.64 60.58 43.51 60.63C43.38 60.68 43.24 60.71 43.1 60.73C42.96 60.73 42.82 60.73 42.69 60.7C42.55 60.68 42.42 60.65 42.29 60.6C42.16 60.55 42.03 60.49 41.91 60.42C41.8 60.35 41.68 60.27 41.58 60.18C41.48 60.11 41.39 60.03 41.3 59.94C41.21 59.86 41.13 59.76 41.05 59.67C40.97 59.57 40.91 59.47 40.84 59.36C40.78 59.26 40.73 59.14 40.68 59.03C40.63 58.93 40.58 58.83 40.55 58.72C40.52 58.61 40.49 58.49 40.49 58.38C40.48 58.27 40.48 58.15 40.5 58.04C40.51 57.93 40.54 57.82 40.58 57.71C40.91 57.15 41.83 57.18 42.2 57.19Z" />
	<path id="Layer" class="shp3" d="M35.09 50.7C36.09 51.02 37.25 51.9 37.09 52.7C37.02 53.2 36.49 53.57 35.89 53.99C35.45 54.3 35.24 54.46 34.97 54.46C34.08 54.46 33.42 53.17 32.97 52.17C32.65 51.52 32.49 51.17 32.62 50.91C32.93 50.35 34.23 50.35 35.09 50.7Z" />
	<path id="Layer" class="shp3" d="M40.88 49.35C41.36 49.2 42.19 49.72 43.82 50.77C44.82 51.42 45.06 51.62 45.04 51.87C45.04 52.34 44.04 52.6 43.35 52.76C42.29 53.03 41.42 53.25 40.66 52.76C40.53 52.66 40.4 52.55 40.29 52.43C40.18 52.3 40.09 52.16 40.01 52.02C39.93 51.87 39.87 51.71 39.83 51.55C39.79 51.39 39.76 51.23 39.76 51.06C39.76 50.88 39.79 50.7 39.84 50.53C39.89 50.36 39.97 50.19 40.07 50.04C40.17 49.89 40.29 49.75 40.43 49.64C40.56 49.52 40.72 49.42 40.88 49.35L40.88 49.35Z" />
	<path id="Layer" class="shp3" d="M33.02 43.28C33.33 43.31 33.63 43.4 33.91 43.54C34.19 43.68 34.44 43.87 34.66 44.09C34.87 44.32 35.04 44.58 35.17 44.87C35.29 45.15 35.36 45.46 35.38 45.77C35.37 45.89 35.35 46.01 35.32 46.13C35.29 46.25 35.24 46.36 35.19 46.47C35.14 46.58 35.07 46.69 35 46.79C34.93 46.88 34.85 46.98 34.76 47.06C34.6 47.17 34.42 47.26 34.24 47.33C34.05 47.41 33.86 47.45 33.66 47.48C33.46 47.5 33.27 47.51 33.07 47.48C32.87 47.46 32.68 47.42 32.49 47.35C32.31 47.32 32.14 47.27 31.97 47.21C31.81 47.15 31.65 47.07 31.5 46.97C31.35 46.87 31.2 46.76 31.08 46.64C30.95 46.51 30.83 46.38 30.73 46.23C30.65 46.1 30.58 45.96 30.53 45.82C30.48 45.68 30.44 45.53 30.42 45.38C30.4 45.23 30.4 45.08 30.41 44.93C30.43 44.77 30.46 44.63 30.5 44.48C30.62 44.26 30.78 44.07 30.96 43.9C31.14 43.73 31.35 43.58 31.57 43.48C31.79 43.37 32.03 43.3 32.28 43.27C32.53 43.23 32.78 43.24 33.02 43.28Z" />
	<path id="Layer" class="shp3" d="M23.71 40.02C24.16 40.14 26.27 40.69 26.31 41.7C26.31 42.17 25.88 42.55 25.43 42.93C25.31 43.05 25.19 43.15 25.05 43.24C24.92 43.34 24.77 43.42 24.62 43.49C24.47 43.55 24.32 43.61 24.16 43.65C24 43.69 23.84 43.72 23.67 43.73C23.49 43.74 23.31 43.73 23.14 43.7C22.96 43.67 22.79 43.62 22.63 43.55C22.46 43.49 22.31 43.4 22.16 43.29C22.02 43.19 21.89 43.07 21.77 42.93C21.62 42.69 21.52 42.42 21.47 42.14C21.42 41.86 21.43 41.57 21.49 41.29C21.55 41.02 21.66 40.75 21.82 40.52C21.99 40.29 22.19 40.09 22.43 39.93C22.77 39.78 23.09 39.86 23.71 40.02Z" />
	<path id="Layer" class="shp3" d="M28.43 37.47C28.1 37.59 27.81 37.81 27.61 38.1C27.41 38.4 27.31 38.75 27.33 39.1C27.34 39.46 27.47 39.8 27.69 40.07C27.91 40.35 28.22 40.55 28.56 40.64C29.27 40.95 29.39 40.46 31.42 40.33C31.53 40.34 31.64 40.34 31.75 40.33C31.86 40.32 31.97 40.3 32.07 40.27C32.18 40.24 32.28 40.2 32.38 40.15C32.48 40.1 32.57 40.05 32.66 39.98C32.72 39.92 32.77 39.85 32.81 39.78C32.85 39.7 32.89 39.63 32.91 39.55C32.94 39.47 32.96 39.39 32.97 39.3C32.98 39.22 32.98 39.13 32.97 39.05C32.81 37.95 30.71 37.51 30.32 37.42C30.17 37.37 30.01 37.33 29.85 37.31C29.69 37.28 29.53 37.27 29.37 37.28C29.21 37.28 29.05 37.3 28.89 37.33C28.73 37.36 28.58 37.41 28.43 37.47L28.43 37.47Z" />
	<path id="Layer" class="shp3" d="M23.53 32.35C23.91 32.81 23.46 33.96 22.74 34.6C22.58 34.74 22.4 34.86 22.2 34.96C22.01 35.05 21.81 35.13 21.6 35.18C21.39 35.23 21.18 35.25 20.96 35.25C20.74 35.25 20.53 35.22 20.32 35.17C19.64 34.96 18.74 34.34 18.77 33.58C18.8 32.82 20.1 32.18 20.71 32.04C20.86 32.01 21.02 31.99 21.17 31.98C21.33 31.97 21.48 31.96 21.64 31.96C21.79 31.96 21.95 31.97 22.1 31.98C22.25 31.99 22.41 32.01 22.56 32.04C23.36 32.23 23.48 32.35 23.53 32.35Z" />
	<path id="Layer" class="shp3" d="M18.64 24.82C18.79 24.75 18.95 24.7 19.12 24.67C19.28 24.63 19.44 24.61 19.61 24.61C19.78 24.61 19.94 24.63 20.11 24.67C20.27 24.7 20.43 24.75 20.58 24.82C20.75 24.92 20.9 25.04 21.03 25.19C21.16 25.34 21.26 25.5 21.33 25.68C21.41 25.86 21.45 26.05 21.47 26.24C21.48 26.44 21.47 26.63 21.42 26.82C21.35 26.96 21.25 27.09 21.15 27.21C21.04 27.33 20.92 27.43 20.78 27.52C20.65 27.61 20.5 27.68 20.35 27.73C20.2 27.78 20.04 27.81 19.88 27.82C19.68 27.83 19.48 27.81 19.28 27.77C19.09 27.73 18.9 27.66 18.72 27.58C18.54 27.49 18.37 27.38 18.21 27.25C18.06 27.13 17.92 26.98 17.8 26.82C17.58 26.55 17.16 26.03 17.32 25.54C17.48 25.05 18.09 24.96 18.64 24.82Z" />
	<path id="Layer" class="shp3" d="M15.73 27.64C15.43 27.55 15.11 27.52 14.79 27.55C14.48 27.57 14.17 27.65 13.88 27.78C13.59 27.91 13.33 28.1 13.1 28.32C12.88 28.54 12.7 28.8 12.56 29.09C12.51 29.21 12.47 29.33 12.44 29.46C12.41 29.58 12.4 29.71 12.4 29.84C12.4 29.97 12.41 30.1 12.44 30.22C12.47 30.35 12.51 30.47 12.56 30.59C12.86 31.01 13.3 30.91 14.06 31.59C14.41 31.89 14.4 31.97 14.59 32.03C15.08 32.18 15.59 31.77 16.31 31.19C17.03 30.61 17.31 30.4 17.37 30C17.38 29.86 17.37 29.72 17.35 29.58C17.33 29.44 17.3 29.3 17.25 29.17C17.2 29.04 17.13 28.91 17.06 28.79C16.98 28.67 16.89 28.56 16.79 28.46C16.72 28.37 16.65 28.28 16.57 28.2C16.49 28.12 16.41 28.05 16.32 27.98C16.23 27.91 16.13 27.84 16.04 27.79C15.94 27.73 15.84 27.68 15.73 27.64Z" />
	<path id="Layer" class="shp3" d="M13.09 18.21C13.39 18.23 13.68 18.29 13.96 18.41C14.23 18.52 14.49 18.68 14.71 18.88C14.93 19.08 15.12 19.31 15.26 19.57C15.41 19.83 15.51 20.12 15.56 20.41C15.61 20.58 15.63 20.76 15.63 20.94C15.64 21.11 15.62 21.29 15.58 21.46C15.54 21.64 15.49 21.8 15.41 21.96C15.33 22.12 15.23 22.27 15.12 22.41C14.38 23.06 13.22 22.65 12.78 22.5C12.6 22.45 12.42 22.39 12.24 22.3C12.07 22.21 11.91 22.11 11.77 21.98C11.62 21.86 11.49 21.72 11.38 21.57C11.26 21.41 11.17 21.25 11.09 21.07C11.06 20.94 11.04 20.81 11.03 20.68C11.03 20.54 11.03 20.41 11.05 20.28C11.07 20.15 11.1 20.02 11.15 19.89C11.19 19.77 11.24 19.65 11.31 19.53C11.4 19.36 11.5 19.2 11.63 19.05C11.75 18.91 11.89 18.77 12.04 18.66C12.2 18.54 12.37 18.45 12.54 18.37C12.72 18.3 12.9 18.24 13.09 18.21Z" />
	<path id="Layer" class="shp3" d="M9.34 11.07C10.25 11.22 11.26 11.94 11.19 12.62C11.19 12.94 10.76 13.22 9.97 13.78C9.18 14.34 8.78 14.61 8.48 14.5C8.18 14.39 8.02 13.88 7.82 12.92C7.66 12.12 7.58 11.73 7.82 11.43C8.19 10.87 9.19 11.04 9.34 11.07Z" />
	<path id="Layer" class="shp4" d="M167.24 369.65C167.25 369.38 167.25 369.11 167.24 368.84C167.24 368.58 167.23 368.31 167.21 368.04C167.2 367.77 167.17 367.51 167.14 367.24C167.12 366.97 167.08 366.71 167.04 366.44C166.99 366.17 166.94 365.9 166.87 365.64C166.81 365.37 166.73 365.11 166.65 364.85C166.57 364.59 166.47 364.33 166.37 364.08C166.27 363.83 166.16 363.58 166.04 363.33C165.92 363.08 165.78 362.84 165.63 362.6C165.48 362.37 165.32 362.14 165.14 361.92C164.97 361.71 164.79 361.5 164.59 361.3C164.4 361.1 164.19 360.91 163.98 360.73C163.11 360 162.07 359.57 161.27 359C159.6 357.9 158.69 355.9 158.01 354C157.86 353.49 157.71 352.99 157.58 352.47C157.44 351.96 157.32 351.45 157.2 350.93C157.09 350.42 156.98 349.9 156.89 349.38C156.8 348.86 156.71 348.33 156.64 347.81L156.64 347.81C156.76 348.87 156.85 349.93 156.99 350.99C157.03 351.25 157.08 351.52 157.13 351.78C157.18 352.04 157.23 352.3 157.29 352.56C157.35 352.82 157.41 353.08 157.48 353.34C157.55 353.6 157.62 353.85 157.69 354.11C157.76 354.37 157.85 354.63 157.93 354.88C158.02 355.14 158.12 355.39 158.22 355.64C158.32 355.9 158.43 356.14 158.55 356.39C158.67 356.63 158.79 356.87 158.92 357.11C159.05 357.35 159.19 357.57 159.35 357.79C159.5 358.01 159.67 358.22 159.84 358.42C160.02 358.62 160.21 358.81 160.41 358.99C160.61 359.17 160.81 359.34 161.03 359.5C161.92 360.1 162.92 360.5 163.74 361.17C163.94 361.34 164.14 361.52 164.33 361.71C164.51 361.89 164.69 362.09 164.86 362.3C165.02 362.5 165.18 362.71 165.33 362.93C165.48 363.15 165.61 363.38 165.74 363.61C165.98 364.08 166.2 364.57 166.39 365.07C166.57 365.56 166.73 366.07 166.86 366.59C166.99 367.1 167.09 367.62 167.16 368.15C167.22 368.68 167.26 369.21 167.27 369.74L167.24 369.65Z" />
	<path id="Layer" class="shp4" d="M153.88 339.89C153.8 339.63 153.73 339.36 153.67 339.09C153.61 338.82 153.56 338.55 153.51 338.28C153.47 338 153.43 337.73 153.41 337.46C153.38 337.18 153.37 336.91 153.36 336.63C153.32 335.82 153.35 335.01 153.48 334.21C153.6 333.41 153.8 332.62 154.09 331.86C154.37 331.1 154.73 330.38 155.17 329.69C155.6 329.01 156.11 328.37 156.67 327.79C157.04 327.39 157.43 327.02 157.85 326.68C158.26 326.34 158.7 326.03 159.16 325.76C159.63 325.48 160.11 325.24 160.6 325.03C161.1 324.82 161.61 324.65 162.13 324.51C162.39 324.43 162.65 324.36 162.91 324.3C163.18 324.24 163.44 324.2 163.71 324.16C163.98 324.13 164.24 324.11 164.51 324.1C164.78 324.09 165.05 324.09 165.32 324.1C165.45 324.1 165.57 324.11 165.69 324.13C165.81 324.16 165.93 324.2 166.05 324.25C166.16 324.31 166.26 324.37 166.36 324.45C166.46 324.53 166.55 324.62 166.62 324.72C166.67 324.85 166.7 324.97 166.72 325.11C166.73 325.24 166.74 325.37 166.73 325.5C166.72 325.64 166.7 325.77 166.67 325.9C166.64 326.03 166.59 326.15 166.53 326.27L166.58 326.27C166.65 326.15 166.71 326.02 166.75 325.88C166.79 325.75 166.82 325.61 166.84 325.47C166.85 325.33 166.85 325.19 166.84 325.05C166.83 324.91 166.8 324.77 166.76 324.64C166.69 324.52 166.6 324.41 166.5 324.31C166.4 324.21 166.28 324.13 166.16 324.06C166.04 323.98 165.91 323.93 165.78 323.89C165.64 323.85 165.5 323.83 165.36 323.82C165.08 323.79 164.8 323.78 164.52 323.78C164.24 323.78 163.96 323.79 163.68 323.82C163.4 323.84 163.13 323.88 162.85 323.93C162.57 323.98 162.3 324.04 162.03 324.12C161.49 324.25 160.95 324.42 160.43 324.62C159.91 324.83 159.41 325.07 158.93 325.35C158.44 325.63 157.98 325.95 157.54 326.29C157.1 326.64 156.69 327.02 156.31 327.43C155.92 327.84 155.56 328.27 155.23 328.73C154.91 329.19 154.61 329.67 154.35 330.17C154.09 330.67 153.87 331.19 153.69 331.72C153.5 332.25 153.36 332.8 153.25 333.35C153.15 333.9 153.09 334.45 153.06 335.01C153.03 335.57 153.05 336.13 153.1 336.69C153.15 337.24 153.23 337.79 153.36 338.34C153.48 338.88 153.64 339.42 153.84 339.94L153.88 339.89Z" />
	<path id="Layer" class="shp4" d="M160.02 366.46C159.85 366.31 159.68 366.16 159.52 366.01C159.35 365.85 159.19 365.69 159.03 365.54C158.86 365.38 158.71 365.21 158.55 365.05C158.39 364.89 158.24 364.72 158.09 364.55C157.94 364.39 157.79 364.22 157.65 364.05C157.5 363.88 157.36 363.71 157.22 363.54C157.08 363.36 156.94 363.18 156.81 363C156.68 362.83 156.55 362.64 156.42 362.46C156.3 362.28 156.18 362.09 156.06 361.9C155.94 361.72 155.83 361.53 155.72 361.34C155.61 361.14 155.5 360.95 155.4 360.76C155.29 360.56 155.19 360.37 155.09 360.17C154.7 359.39 154.41 358.54 154.09 357.68C153.89 357.27 153.69 356.86 153.47 356.46C153.26 356.05 153.04 355.65 152.82 355.25C152.6 354.86 152.37 354.46 152.13 354.07C151.89 353.68 151.65 353.29 151.4 352.91C151.28 352.72 151.16 352.53 151.04 352.33C150.92 352.14 150.81 351.94 150.7 351.74C150.59 351.55 150.49 351.34 150.39 351.14C150.28 350.94 150.19 350.74 150.09 350.53L148.9 348.09L148.85 348.09C149 348.52 149.16 348.94 149.33 349.37C149.49 349.79 149.66 350.21 149.84 350.63C150.02 351.04 150.21 351.46 150.4 351.87C150.6 352.28 150.79 352.69 151 353.09C151.24 353.48 151.47 353.87 151.69 354.26C151.92 354.65 152.14 355.05 152.35 355.45C152.57 355.84 152.77 356.25 152.98 356.65C153.18 357.05 153.38 357.46 153.57 357.87C153.94 358.7 154.24 359.56 154.66 360.37C154.77 360.57 154.87 360.77 154.98 360.97C155.1 361.17 155.21 361.36 155.33 361.56C155.45 361.75 155.57 361.94 155.7 362.13C155.83 362.32 155.96 362.51 156.09 362.69C156.36 363.05 156.65 363.4 156.95 363.75C157.25 364.09 157.56 364.42 157.88 364.74C158.2 365.06 158.54 365.36 158.88 365.66C159.23 365.95 159.59 366.23 159.95 366.5L160.02 366.46Z" />
	<path id="Layer" class="shp4" d="M144.56 342.35C144.87 342.04 145.18 341.71 145.46 341.37C145.75 341.03 146.02 340.68 146.28 340.32C146.54 339.96 146.79 339.59 147.02 339.21C147.25 338.83 147.46 338.44 147.66 338.04C147.85 337.63 148.02 337.21 148.16 336.78C148.3 336.34 148.41 335.9 148.48 335.46C148.56 335.01 148.61 334.56 148.63 334.11C148.65 333.65 148.64 333.2 148.6 332.75C148.48 330.92 147.69 329.23 147.47 327.59C147.43 327.19 147.45 326.78 147.52 326.38C147.58 325.98 147.7 325.59 147.86 325.22C148.03 324.84 148.24 324.5 148.49 324.18C148.75 323.86 149.04 323.57 149.36 323.33C149.51 323.19 149.67 323.06 149.84 322.94C150.01 322.81 150.18 322.7 150.35 322.59C150.53 322.48 150.71 322.38 150.89 322.29C151.08 322.2 151.27 322.12 151.46 322.04C151.56 322 151.65 321.97 151.75 321.94C151.85 321.92 151.94 321.89 152.04 321.87C152.14 321.85 152.24 321.83 152.34 321.81C152.44 321.8 152.54 321.79 152.64 321.78C153.05 321.78 153.52 321.78 153.99 321.65C154.23 321.61 154.46 321.56 154.68 321.49C154.91 321.42 155.13 321.33 155.35 321.23C155.56 321.14 155.77 321.02 155.97 320.9C156.18 320.77 156.37 320.63 156.55 320.48C157.26 319.85 157.79 319.21 158.46 318.64C158.78 318.35 159.11 318.07 159.45 317.8C159.79 317.54 160.14 317.28 160.5 317.04C160.85 316.79 161.22 316.56 161.59 316.35C161.96 316.13 162.34 315.92 162.73 315.73C162.91 315.62 163.1 315.54 163.29 315.49C163.49 315.43 163.7 315.4 163.9 315.4C164.11 315.4 164.31 315.43 164.51 315.49C164.71 315.54 164.9 315.62 165.07 315.73C165.15 315.79 165.23 315.86 165.3 315.94C165.37 316.01 165.44 316.09 165.5 316.18C165.56 316.26 165.61 316.35 165.66 316.44C165.71 316.54 165.75 316.63 165.78 316.73C165.8 316.78 165.82 316.82 165.83 316.87C165.84 316.92 165.84 316.97 165.84 317.02C165.84 317.08 165.84 317.13 165.83 317.18C165.82 317.23 165.8 317.27 165.78 317.32C165.75 317.36 165.71 317.4 165.67 317.43C165.64 317.47 165.59 317.5 165.55 317.53C165.51 317.56 165.46 317.58 165.41 317.6C165.36 317.62 165.31 317.64 165.26 317.65L165.26 317.65C165.32 317.64 165.37 317.62 165.42 317.6C165.48 317.58 165.53 317.56 165.58 317.53C165.62 317.5 165.67 317.47 165.71 317.43C165.76 317.39 165.79 317.35 165.83 317.31C165.86 317.26 165.88 317.21 165.9 317.15C165.92 317.1 165.93 317.04 165.94 316.99C165.95 316.93 165.95 316.87 165.94 316.82C165.94 316.76 165.93 316.7 165.91 316.65C165.88 316.54 165.84 316.44 165.79 316.34C165.74 316.24 165.69 316.14 165.63 316.04C165.57 315.95 165.5 315.86 165.43 315.78C165.35 315.69 165.28 315.61 165.19 315.54C165.11 315.47 165.01 315.4 164.92 315.35C164.82 315.29 164.72 315.25 164.61 315.22C164.5 315.18 164.4 315.16 164.28 315.15C164.17 315.13 164.06 315.13 163.95 315.14C163.84 315.15 163.73 315.16 163.62 315.18C163.51 315.19 163.4 315.22 163.29 315.24C163.19 315.27 163.08 315.29 162.97 315.33C162.87 315.36 162.76 315.4 162.66 315.44C162.26 315.63 161.87 315.83 161.48 316.04C161.09 316.25 160.72 316.48 160.35 316.72C159.98 316.96 159.61 317.21 159.26 317.48C158.91 317.74 158.56 318.02 158.23 318.31C157.54 318.86 156.95 319.53 156.3 320.11C156.13 320.25 155.95 320.37 155.76 320.49C155.58 320.6 155.38 320.7 155.18 320.79C154.98 320.88 154.78 320.96 154.57 321.02C154.36 321.09 154.15 321.13 153.93 321.17C153.71 321.17 153.49 321.19 153.27 321.2C153.05 321.22 152.83 321.25 152.61 321.28C152.4 321.31 152.18 321.35 151.96 321.4C151.75 321.45 151.53 321.5 151.32 321.56C151.11 321.64 150.91 321.72 150.71 321.82C150.51 321.92 150.31 322.02 150.12 322.14C149.93 322.25 149.75 322.37 149.57 322.5C149.39 322.63 149.22 322.77 149.05 322.92C148.88 323.06 148.72 323.22 148.57 323.38C148.42 323.54 148.27 323.7 148.14 323.88C148 324.06 147.88 324.24 147.76 324.43C147.64 324.62 147.54 324.81 147.44 325.01C147.35 325.21 147.27 325.42 147.2 325.63C147.14 325.84 147.09 326.06 147.05 326.28C147.02 326.5 147 326.72 147 326.95C147 327.17 147.01 327.39 147.04 327.61C147.3 329.36 148.04 330.99 148.24 332.75C148.29 333.19 148.31 333.62 148.3 334.06C148.29 334.5 148.25 334.94 148.18 335.37C148.11 335.81 148.02 336.23 147.89 336.66C147.77 337.08 147.62 337.49 147.44 337.89C147.26 338.29 147.06 338.68 146.85 339.07C146.64 339.46 146.41 339.83 146.17 340.2C145.93 340.56 145.67 340.92 145.4 341.27C145.13 341.61 144.84 341.95 144.54 342.27L144.56 342.35Z" />
	<path id="Layer" class="shp4" d="M145.68 358.53C144.64 357.58 143.69 356.53 142.85 355.4C142.01 354.27 141.27 353.06 140.66 351.79C140.04 350.52 139.55 349.19 139.19 347.83C138.82 346.46 138.59 345.07 138.49 343.66C138.46 343.31 138.44 342.96 138.43 342.61C138.42 342.26 138.42 341.91 138.42 341.56C138.43 341.21 138.44 340.86 138.47 340.51C138.49 340.16 138.53 339.81 138.57 339.46C138.79 338.1 139.12 336.67 139.31 335.26C139.5 333.85 139.63 332.42 139.8 331C139.97 329.58 140.11 328.16 140.19 326.74C140.24 326.03 140.26 325.31 140.32 324.62C140.33 324.46 140.34 324.3 140.37 324.15C140.4 323.99 140.44 323.84 140.5 323.69C140.55 323.54 140.61 323.4 140.69 323.26C140.77 323.12 140.85 322.99 140.95 322.86C141.06 322.74 141.17 322.63 141.29 322.53C141.41 322.43 141.54 322.34 141.68 322.25C141.81 322.17 141.95 322.09 142.1 322.03C142.24 321.96 142.39 321.91 142.54 321.86C142.71 321.79 142.88 321.72 143.05 321.65C143.22 321.57 143.39 321.5 143.55 321.42C143.72 321.34 143.89 321.26 144.05 321.18C144.22 321.09 144.38 321.01 144.54 320.92C144.86 320.75 145.17 320.56 145.48 320.37C145.79 320.17 146.09 319.97 146.38 319.75C146.68 319.54 146.96 319.31 147.24 319.08C147.52 318.85 147.79 318.6 148.05 318.35C148.29 318.09 148.53 317.83 148.77 317.57C149.01 317.31 149.26 317.06 149.51 316.81C149.76 316.56 150.01 316.31 150.27 316.07C150.53 315.82 150.79 315.59 151.05 315.35C151.19 315.24 151.32 315.13 151.46 315.03C151.6 314.92 151.74 314.82 151.89 314.72C152.03 314.62 152.17 314.52 152.32 314.42C152.46 314.33 152.61 314.23 152.76 314.14C153.35 313.76 154.03 313.51 154.65 313.14L158.49 311.32C158.8 311.15 159.12 311 159.44 310.86C159.77 310.73 160.1 310.6 160.43 310.5C160.77 310.39 161.11 310.3 161.45 310.23C161.79 310.16 162.14 310.1 162.49 310.06C162.66 310.05 162.84 310.04 163.01 310.05C163.19 310.05 163.36 310.06 163.53 310.08C163.71 310.1 163.88 310.13 164.05 310.17C164.22 310.21 164.39 310.26 164.55 310.31C164.59 310.32 164.62 310.34 164.66 310.36C164.69 310.38 164.72 310.41 164.75 310.43C164.78 310.46 164.81 310.49 164.84 310.52C164.86 310.55 164.88 310.58 164.9 310.62C164.92 310.66 164.93 310.7 164.93 310.74C164.94 310.78 164.94 310.82 164.93 310.86C164.93 310.9 164.91 310.94 164.9 310.97C164.88 311.01 164.86 311.05 164.84 311.08C164.79 311.15 164.74 311.22 164.69 311.29C164.63 311.36 164.58 311.43 164.51 311.49C164.45 311.55 164.39 311.61 164.32 311.66C164.25 311.72 164.18 311.77 164.11 311.82L164.11 311.82C164.19 311.77 164.26 311.72 164.33 311.67C164.4 311.61 164.47 311.55 164.53 311.49C164.6 311.43 164.66 311.36 164.72 311.29C164.78 311.23 164.83 311.15 164.88 311.08C164.91 311.04 164.93 311 164.95 310.96C164.96 310.91 164.97 310.87 164.98 310.82C164.99 310.78 164.99 310.73 164.99 310.69C164.98 310.64 164.97 310.59 164.96 310.55C164.94 310.51 164.92 310.47 164.89 310.43C164.86 310.39 164.83 310.36 164.8 310.33C164.76 310.3 164.72 310.27 164.68 310.24C164.65 310.22 164.6 310.2 164.56 310.18C164.39 310.12 164.22 310.06 164.05 310.02C163.88 309.97 163.7 309.94 163.52 309.91C163.35 309.88 163.17 309.87 162.99 309.86C162.81 309.85 162.63 309.85 162.45 309.86C162.1 309.89 161.74 309.94 161.39 310.01C161.04 310.08 160.7 310.16 160.36 310.26C160.01 310.36 159.68 310.47 159.35 310.6C159.01 310.73 158.69 310.88 158.37 311.04L154.49 312.84C153.85 313.15 153.18 313.4 152.57 313.77C152.42 313.86 152.27 313.96 152.12 314.06C151.97 314.15 151.82 314.25 151.67 314.36C151.53 314.46 151.38 314.56 151.24 314.67C151.09 314.77 150.95 314.88 150.81 314.99C150.54 315.23 150.27 315.46 150.01 315.71C149.75 315.95 149.49 316.2 149.23 316.45C148.97 316.7 148.72 316.95 148.47 317.21C148.22 317.47 147.97 317.73 147.73 317.99C147.47 318.23 147.21 318.47 146.93 318.7C146.66 318.92 146.38 319.14 146.09 319.35C145.8 319.55 145.51 319.75 145.2 319.94C144.9 320.13 144.59 320.3 144.28 320.47C144.13 320.55 143.97 320.64 143.81 320.72C143.65 320.8 143.49 320.87 143.33 320.95C143.17 321.03 143.01 321.1 142.85 321.17C142.69 321.24 142.52 321.31 142.36 321.38C142.19 321.43 142.02 321.5 141.86 321.57C141.69 321.65 141.54 321.74 141.38 321.83C141.23 321.93 141.09 322.04 140.95 322.16C140.82 322.28 140.69 322.4 140.57 322.54C140.46 322.68 140.36 322.83 140.27 322.99C140.18 323.15 140.11 323.31 140.05 323.48C139.99 323.65 139.94 323.83 139.9 324C139.87 324.18 139.85 324.36 139.84 324.54C139.76 325.26 139.73 325.97 139.69 326.68C139.61 328.1 139.48 329.51 139.33 330.93C139.18 332.35 139.08 333.76 138.88 335.17C138.68 336.58 138.4 337.97 138.18 339.38C138.07 340.44 138.03 341.51 138.07 342.58C138.11 343.65 138.22 344.71 138.41 345.77C138.59 346.82 138.86 347.86 139.19 348.87C139.52 349.89 139.93 350.88 140.4 351.84C140.73 352.47 141.09 353.08 141.48 353.68C141.87 354.28 142.28 354.86 142.72 355.42C143.16 355.98 143.62 356.52 144.11 357.04C144.6 357.56 145.11 358.06 145.64 358.53L145.68 358.53Z" />
</svg>