<svg id="Capa_1" data-name="Capa 1" xmlns="http://www.w3.org/2000/svg" viewBox="0 0 163.4 289.43"><defs><style>.cls-1,.cls-5{fill:#fff;}.cls-2{fill:#a0642f;}.cls-3{fill:none;}.cls-3,.cls-5,.cls-6,.cls-8{stroke:#000;stroke-miterlimit:10;stroke-width:0.75px;}.cls-4{fill:#26120a;}.cls-6{fill:#be894a;}.cls-7{fill:#beac83;}.cls-8{fill:#633011;}</style></defs><title>leyendas 2 del mapa</title><path class="cls-1" d="M32,136.79A63.74,63.74,0,0,0,36.43,148a70.88,70.88,0,0,0,5.14,8.28c3.61,5.19,5.42,7.79,7.61,9.4,5.08,3.74,8.82,2.56,10.3,5.82.91,2-.06,3.38-.67,7.39s-.26,7,.45,12.76c.34,2.8.86,5.25,5.15,18.13,2.23,6.7,4,13.55,6.49,20.15,2,5.37,3.66,8.9,2.46,13.21-.5,1.8-.87,1.49-3.36,7.16-2.07,4.73-2,5.49-3.58,8.28-1.84,3.37-2.36,3.16-4,6.27-2.07,3.87-3.7,6.9-2.68,9.4,1.26,3.1,6,3.81,8.95,4.25a28.13,28.13,0,0,0,16.56-2.91c4.32-2.12,10.28-5.07,11.87-10.74.34-1.22.08-1.15.45-11.86.09-2.73.14-4.09.22-5.6.29-5.16.69-7.6,1.12-11.87.62-6.11.76-10.75.9-15.22a101.48,101.48,0,0,0,0-11.64c-.5-5.44-1.55-8.95-.9-9.18s2.41,3.11,3.58,5.38a59.37,59.37,0,0,1,4.93,11.41c2.36,7.66,1.62,9.5,3.8,20.15,2.54,12.34,4.52,14.59,6.27,15.89,3.76,2.79,8.31,2.54,9.63,2.47,4.75-.27,7.82-2.55,12.53-6,4.35-3.23,7.56-5.61,8.06-9.4.37-2.82-1.19-3.14-1.12-6.49.13-5.9,5-8.2,3.81-11.19-.88-2.15-4.16-2.81-5.82-3.14-4.84-1-7.48,1.31-8.73,0-1.41-1.46,1.35-4.86,2.24-10.07.72-4.32-.51-5.84-2-13.43-3-15.31.52-16.54-3.13-23.51-1.86-3.53-4.22-6-4.26-10.52,0-2,.41-3.1,1.57-6.71,2.6-8.16,3.9-12.23,4.25-15,.4-3.18,1.08-8.53-1.56-13.66-2.29-4.44-4.6-3.91-7.39-8.73s-1.36-6.62-3.36-12.31c-1.92-5.49-5-8.81-9.85-14.1-6.15-6.69-9.23-10-13.88-11.19a22.48,22.48,0,0,1-7.61-2.91c-1.79-1.15-3.94-2.56-4-4.71a5.15,5.15,0,0,1,2.69-4.25c2.18-1.27,3.74-.07,6.94-.67a12.91,12.91,0,0,0,6-3.13c3-2.57,3.9-5.75,5.15-10.3,1.6-5.81,2.52-9.18,1.57-13.66-1.27-5.93-5-9.64-6.94-11.64a30.88,30.88,0,0,0-11-6.94,38.92,38.92,0,0,0-19.48-2.46,33.57,33.57,0,0,0-17,6.72c-2.5,2-7.12,5.61-9,11.64-.74,2.44-.39,3.19-1.57,7.83C42.87,50.26,42,50.63,41.35,54a26.24,26.24,0,0,0,.9,13.21,23.9,23.9,0,0,0,6,10.52c2.3,2.22,4.21,3,4,4.25-.24,1.67-3.76,2-8.06,3.58a35.14,35.14,0,0,0-11.64,6.94c-5.24,5.13-5.43,12.72-5.6,19.7C26.83,120.24,28.65,126.12,32,136.79Z"/><path class="cls-2" d="M95.6,47.41c.2,5.06.2,7.16-.5,8.92a14.74,14.74,0,0,1-1,2,7.07,7.07,0,0,1-3.57,3.33c-.7.26-1.45.36-2.15.65-2.32,1-2.66,3.59-3.74,5.55A11.38,11.38,0,0,1,81.75,71c-.67.53-1.4,1-2.1,1.52a66,66,0,0,0-5.28,4.15c-3.57,3-4.78,4.29-7.33,4.72a11.44,11.44,0,0,1-4.63-.29,17.83,17.83,0,0,1-5.77-2.34,36.86,36.86,0,0,1-3.19-2.19,24.87,24.87,0,0,1-5.93-5.53c-3.4-4.75-6-13.07-2.9-18.28.87-1.5,2.32-2.8,2.8-5.55.36-2.05-.12-2.87.2-4.51.24-1.16.94-3.21,5-6.18a31.27,31.27,0,0,1,15.63-6.49c4.73-.53,8.71.56,16.67,2.7,1.77.49,3.6,1.06,4.83,2.73,2.1,2.8,1.13,6.87.92,7.84a24.59,24.59,0,0,1-2,4.92,5.27,5.27,0,0,1-.31.63c-.56.7-1.09,1.37-1.62,2.07-.24.34-.36,1,0,1,.53-1,1.08-2,1.57-3.06l1.54-2a1.2,1.2,0,0,1,.48-.46,2.7,2.7,0,0,1,.85-.31c.48-.19.79-1.3,1.23-2s1.69-1.45,2.34-1.21S95.46,44.25,95.6,47.41Z"/><path class="cls-2" d="M86.7,51c.53-.7,1.06-1.37,1.62-2.07-.49,1-1,2-1.57,3.06C86.34,51.94,86.46,51.29,86.7,51Z"/><path class="cls-2" d="M89.47,264.59a12.73,12.73,0,0,0,.78-2.51A22.7,22.7,0,0,0,89.47,264.59ZM64,158.07l.29,0a21.55,21.55,0,0,0-.51-8.33c-.14-.53-.43-1.42-.79-2.84-.58-2.37-.8-4-1-5.38-.53-3.43-1.13-5.43-1.49-7.05-1.57-7-3.31-29.26-3.93-30.25a.13.13,0,0,0-.12-.1c-.34-.07-.9,1.21-1.52,2.65-.32.73-3.26,7.8-.22,14.79a35.36,35.36,0,0,1,2.56,6.18,27.88,27.88,0,0,1,.72,3.14c.94,5.91-2.17,7.72-1.42,12,.62,3.5,2.84,3.36,5.52,9.41A33.2,33.2,0,0,1,64,158.07Zm6.23,116A5.93,5.93,0,0,1,66,272.21c-1,.63-2.49,1.33-3.28.77-1.11-.79-.7-3.79.58-5.88s2.58-2,4.07-3.94c1.93-2.46,1.26-4.56,2.13-8,1.16-4.54,3.83-6.64,5.28-8.74,4-5.88-.09-14.3-4.94-29-5.92-17.95-8.83-26.93-8.45-37.21a87.66,87.66,0,0,1,1.28-10.66h0a45,45,0,0,1-10.91-6.83c-9.62-8.2-13-18.24-16.07-27.74-4.72-14.55-9.41-29-2.41-37.49S47.52,87.26,47.52,87.26c2.29-.55,6.25-1,8.06-4a7.08,7.08,0,0,0,.89-4.12l.17-.32a17.83,17.83,0,0,0,5.77,2.34,11.44,11.44,0,0,0,4.63.29c2.55-.43,3.76-1.73,7.33-4.72a66,66,0,0,1,5.28-4.15c.7-.49,1.43-1,2.1-1.52l0,0a25.47,25.47,0,0,0,7.46,7c4.24,2.56,6.22,1.91,10.68,4.06,5.26,2.53,8.33,6.17,11.61,10.1a39.27,39.27,0,0,1,7.7,12.67c1.66,4.7.69,5.26,2.26,9.51,2.68,7.21,5.89,6.65,8.3,12.49,4,9.75-.89,20.87-1.45,22.1s-1.64,3.31-3.76,7.31c-.7,1.33-1.28,2.39-1.76,3.28l.34.2c1,2,2,4.19,2.92,6.41,9.19,22.2,8.49,44.37,5.35,61.64a24,24,0,0,0,1.11-3c.39-1.33.49-2,1.06-2.37a3.1,3.1,0,0,1,2.8,0,.07.07,0,0,1,0-.07,4.45,4.45,0,0,1,3.5-1.55,4.83,4.83,0,0,1,2.26.63,2.3,2.3,0,0,1,.7-.48,4,4,0,0,1,2.61.22c1,.31,1.52.48,1.78.91.58,1-.7,2.27-1.93,5.29a27.08,27.08,0,0,0-1.23,4c-.6,3,.27,4.61-.17,6.15-1.93,7-9.38,10.33-10.54,10.86-2.29,1-7.86,3.57-12.52,1.2-2.24-1.13-4.25-3.4-6.63-12.2-3.86-14.33-1.21-18.24-5.29-29.41a41.92,41.92,0,0,0-8.3-12.81c-1-1.09-3.3-3.55-4.2-3-.67.36-.26,2.17-.16,2.7,1.06,5.19-.29,10.57-.29,15.85,0,17.21-1.26,16.12-.46,23.36.38,3.4.91,5.86.29,9.5-.9,5.38-1.33,8.09-1.5,8.45a3.15,3.15,0,0,0-.29,2.22c.27.87.94,1.06,1.45,1.81.82,1.2.39,2.84.1,3.95-.75,2.87-2.9,4.3-4.68,5.48-.75.51-1.14.65-1.36.51s-.24-.73-.12-1.36a15.45,15.45,0,0,1-2.7,4.52c-.5.58-3,3.47-4.65,2.72-.87-.38-1.16-1.59-1.26-2.46a.53.53,0,0,1-.12.15c-1.88,2.14-3.18,3.57-4.7,3.37a3.17,3.17,0,0,1-1.84-1.08A5.64,5.64,0,0,1,70.25,274Z"/><path class="cls-3" d="M88.32,48.88c-.56.7-1.09,1.37-1.62,2.07-.24.34-.36,1,0,1C87.28,50.93,87.83,49.92,88.32,48.88Z"/><path class="cls-3" d="M88.32,48.88a5.27,5.27,0,0,0,.31-.63,24.59,24.59,0,0,0,2-4.92c.21-1,1.18-5-.92-7.84-1.23-1.67-3.06-2.24-4.83-2.73-8-2.14-11.94-3.23-16.67-2.7a31.27,31.27,0,0,0-15.63,6.49c-4,3-4.75,5-5,6.18-.32,1.64.16,2.46-.2,4.51-.48,2.75-1.93,4-2.8,5.55-3.13,5.21-.5,13.53,2.9,18.28a24.87,24.87,0,0,0,5.93,5.53,36.86,36.86,0,0,0,3.19,2.19,17.83,17.83,0,0,0,5.77,2.34,11.44,11.44,0,0,0,4.63.29c2.55-.43,3.76-1.73,7.33-4.72a66,66,0,0,1,5.28-4.15c.7-.49,1.43-1,2.1-1.52a11.38,11.38,0,0,0,2.9-3.21c1.08-2,1.42-4.59,3.74-5.55.7-.29,1.45-.39,2.15-.65a7.07,7.07,0,0,0,3.57-3.33,14.74,14.74,0,0,0,1-2c.7-1.76.7-3.86.5-8.92-.14-3.16-.22-4.2-.84-4.47s-1.84.44-2.34,1.21-.75,1.79-1.23,2a2.7,2.7,0,0,0-.85.31,1.2,1.2,0,0,0-.48.46l-1.54,2"/><path class="cls-3" d="M56.47,79.11a7.08,7.08,0,0,1-.89,4.12c-1.81,3-5.77,3.48-8.06,4,0,0-7.26,1.74-14.26,10.26S31,120.46,35.67,135c3.09,9.5,6.45,19.54,16.07,27.74a45,45,0,0,0,10.91,6.83"/><path class="cls-3" d="M65.52,271.73c.09.09.24.26.48.48A5.93,5.93,0,0,0,70.25,274a5.64,5.64,0,0,0,4-2.17c.34-.34.65-.68,1-1a15.45,15.45,0,0,0,3.33-6.18"/><path class="cls-3" d="M73.86,271.41c.1.15.22.29.34.44A3.17,3.17,0,0,0,76,272.93c1.52.2,2.82-1.23,4.7-3.37a.53.53,0,0,0,.12-.15,27.36,27.36,0,0,0,3.07-4.17"/><path class="cls-3" d="M89.47,264.63c-.12.63-.14,1.19.12,1.36s.61,0,1.36-.51c1.78-1.18,3.93-2.61,4.68-5.48.29-1.11.72-2.75-.1-3.95-.51-.75-1.18-.94-1.45-1.81a3.15,3.15,0,0,1,.29-2.22c.17-.36.6-3.07,1.5-8.45.62-3.64.09-6.1-.29-9.5-.8-7.24.46-6.15.46-23.36,0-5.28,1.35-10.66.29-15.85-.1-.53-.51-2.34.16-2.7.9-.53,3.21,1.93,4.2,3A41.92,41.92,0,0,1,109,208c4.08,11.17,1.43,15.08,5.29,29.41,2.38,8.8,4.39,11.07,6.63,12.2,4.66,2.37,10.23-.16,12.52-1.2,1.16-.53,8.61-3.91,10.54-10.86.44-1.54-.43-3.16.17-6.15a27.08,27.08,0,0,1,1.23-4c1.23-3,2.51-4.32,1.93-5.29-.26-.43-.77-.6-1.78-.91a4,4,0,0,0-2.61-.22,2.3,2.3,0,0,0-.7.48,5.37,5.37,0,0,0-.94,1.67,17.61,17.61,0,0,0-1.25,6.24"/><path class="cls-3" d="M90.25,262.08a22.7,22.7,0,0,0-.78,2.51"/><path class="cls-3" d="M89.47,264.59a12.73,12.73,0,0,0,.78-2.51.11.11,0,0,0,0-.07.1.1,0,0,0,0-.05"/><path class="cls-3" d="M89.47,264.59v0"/><path class="cls-3" d="M80.81,268.54a6.87,6.87,0,0,0,0,.87c.1.87.39,2.08,1.26,2.46,1.64.75,4.15-2.14,4.65-2.72a15.45,15.45,0,0,0,2.7-4.52"/><path class="cls-3" d="M142.7,221.72a2.3,2.3,0,0,0-.49-.32,4.83,4.83,0,0,0-2.26-.63,4.45,4.45,0,0,0-3.5,1.55.07.07,0,0,0,0,.07c-.38.56-.43,1.16-.48,3.64v3.79"/><path class="cls-3" d="M136.81,222.54l-.39-.15a3.1,3.1,0,0,0-2.8,0c-.57.41-.67,1-1.06,2.37a24,24,0,0,1-1.11,3l-.29.66"/><path class="cls-3" d="M131,230.45c.17-.87.33-1.74.5-2.66,3.14-17.27,3.84-39.44-5.35-61.64-.92-2.22-1.88-4.36-2.92-6.41"/><path class="cls-3" d="M89.84,96c.09,9,2.67,14.55,5.13,18,2.13,2.92,4.37,4.58,6.64,9.24,1.45,3,1.23,3.69,3.16,9.74,3.21,10,4.46,9.58,4.37,13-.08,4.13-1.64,7.48-4.51,13.73-2.8,6.08-4.44,7.63-4.69,11.75s1.16,8.11,1.45,8.08-.12-1.52.15-3.78a14,14,0,0,1,2.41-6.71,10.32,10.32,0,0,0-1.28,5.88c.46,3.21,3,5.63,3.55,5.36s-.75-2.1-.46-5.14,1.86-5.11,2-5-2,3.38-.75,6.25a20.35,20.35,0,0,0,2.72,3.47c1.6,1.88,1.81,1.93,1.89,1.88.26-.16-1.31-2.24-1.81-5.28s.17-6.25.89-6.32,1.45,1.83,1.66,3.62c.27,2.44-.87,3.26-.31,5.11s2,3,2.58,2.73-.48-2.39-.17-5.89c.2-1.95.82-4.22,1.45-4.22.36,0,.41.82,1.64,3.33.58,1.16.8,1.4,1.38,2.63s.65,1.59.74,1.59c.46-.07-1.88-7.07.39-14,.39-1.28.55-1.28,2.75-5.34.48-.89,1.06-1.95,1.76-3.28,2.12-4,3.19-6,3.76-7.31s5.48-12.35,1.45-22.1c-2.41-5.84-5.62-5.28-8.3-12.49-1.57-4.25-.6-4.81-2.26-9.51a39.27,39.27,0,0,0-7.7-12.67c-3.28-3.93-6.35-7.57-11.61-10.1-4.46-2.15-6.44-1.5-10.68-4.06a25.47,25.47,0,0,1-7.46-7"/><path class="cls-3" d="M72.2,264.68a14,14,0,0,1-5.28,6.93l-.92.6c-1,.63-2.49,1.33-3.28.77-1.11-.79-.7-3.79.58-5.88s2.58-2,4.07-3.94c1.93-2.46,1.26-4.56,2.13-8,1.16-4.54,3.83-6.64,5.28-8.74,4-5.88-.09-14.3-4.94-29-5.92-17.95-8.83-26.93-8.45-37.21a87.66,87.66,0,0,1,1.28-10.66c.51-2.94,1-6.32,1.54-10.64,0-.27.08-.53.1-.84a21.55,21.55,0,0,0-.51-8.33c-.14-.53-.43-1.42-.79-2.84-.58-2.37-.8-4-1-5.38-.53-3.43-1.13-5.43-1.49-7.05-1.57-7-3.31-29.26-3.93-30.25a.13.13,0,0,0-.12-.1c-.34-.07-.9,1.21-1.52,2.65-.32.73-3.26,7.8-.22,14.79a35.36,35.36,0,0,1,2.56,6.18,27.88,27.88,0,0,1,.72,3.14c.94,5.91-2.17,7.72-1.42,12,.62,3.5,2.84,3.36,5.52,9.41A33.2,33.2,0,0,1,64,158.07"/><path class="cls-4" d="M88.32,56.1a7.51,7.51,0,0,1,1.39-4.32,8.76,8.76,0,0,1,1.56-1.73,2.59,2.59,0,0,1,.54-.33.87.87,0,0,1,.78,0,1.73,1.73,0,0,1,.6,1.19,15.83,15.83,0,0,1-.14,4.62A32.25,32.25,0,0,1,92,60l-.08,0c.07-1.52.27-3,.4-4.52A24.73,24.73,0,0,0,92.59,51a1.33,1.33,0,0,0-.29-.82c-.11-.12-.47,0-.75.22A8.49,8.49,0,0,0,90,52a7.32,7.32,0,0,0-1.61,4.1Z"/><path class="cls-5" d="M49.33,46.77c.05,1,2.87,2.28,4.81.87.12-.09,1.18-.87,1.09-1.59S53.67,45,53,44.92a3.29,3.29,0,0,0-2.56.53C49.93,45.81,49.3,46.26,49.33,46.77Z"/><path class="cls-5" d="M64.32,45.16c-.06,1,2.61,2.6,4.71,1.42.12-.07,1.27-.72,1.27-1.44s-1.44-1.2-2.1-1.38a3.25,3.25,0,0,0-2.61.22C65,44.28,64.36,44.65,64.32,45.16Z"/><path class="cls-3" d="M53,52.5a4.55,4.55,0,0,0-1.81,3.2A3.33,3.33,0,0,0,52,58.38a3,3,0,0,0,2.56.83A8.47,8.47,0,0,0,56.69,58a18,18,0,0,0,1.77-1.24,7.19,7.19,0,0,0,1.17-1.1,5.74,5.74,0,0,0,.83-1.28"/><path class="cls-6" d="M44.66,63.26l.15-.1a5.39,5.39,0,0,1,1.67-.51c3.87-.73,8-1.63,11.89-.37a2,2,0,0,1,1.09.68A1.9,1.9,0,0,1,59,65.14a9.45,9.45,0,0,1-4.63,2.65c-2.38.7-4.77,1.26-7.12,2.07a.71.71,0,0,1-.38.06c-.27,0-.4-.34-.49-.6-.39-1.08-.83-2.15-1.32-3.2-.27-.58-1-1.5-.89-2.15A1.06,1.06,0,0,1,44.66,63.26Z"/><path class="cls-3" d="M45.73,67a21.94,21.94,0,0,0,10.88-3.25"/><path class="cls-7" d="M131.91,232.1a9.17,9.17,0,0,1,2.18,3,8.26,8.26,0,0,1,.66,3.74,6.85,6.85,0,0,1-1.2,3.66,6.76,6.76,0,0,1-3,2.38l0-.06a11.72,11.72,0,0,0,2.37-2.73,7.94,7.94,0,0,0-1.07-10Z"/><path class="cls-8" d="M48.7,39.87c-.16-.18-.12-.65,1.66-3.16,2.88-4.08,4.81-6.81,8.29-9.2A31.41,31.41,0,0,1,65,24.25c.8-.33,1.66-.66,2.59-1a32.65,32.65,0,0,1,11-2,31.41,31.41,0,0,1,14.77,3.92,26.64,26.64,0,0,1,8.55,6.67,19.37,19.37,0,0,1,3.27,7.68c.32,1.37.57,2.76.82,4.14a9.77,9.77,0,0,1,.32,4,29.79,29.79,0,0,1-1.83,5.34c-.71,1.58-1.65,2.94-2.46,4.45-1.19,2.25-2.23,4.22-4,4.75a3,3,0,0,1-3.19-.74,2.4,2.4,0,0,1-.3-1.65c.34-3.65,1-5.67,1.08-8.09a27.87,27.87,0,0,0-.16-3.16c-.26-3.56-.4-5.34-1-5.51-.94-.23-1.67,3.13-5.14,5-.42.22-2.34,1.33-2.93.55A2.17,2.17,0,0,1,86,47.56c-.33-3.51.27-7.06-.19-10.55a4.09,4.09,0,0,0-1.09-2.59,4.38,4.38,0,0,0-1.42-.74,47.83,47.83,0,0,0-12.61-2.77,17.82,17.82,0,0,0-7.31.61c-2.76,1-4.68,3-7,4.66C55.81,36.63,49.45,40.75,48.7,39.87Z"/><path class="cls-7" d="M103.27,41.94q-.64,4.43-1.35,8.84c-.23,1.48-.41,3-.73,4.41a44,44,0,0,1-1.14,4.34H100c.06-1.51.27-3,.47-4.46s.57-2.93.88-4.39c.6-2.92,1.23-5.83,1.87-8.74Z"/><path class="cls-7" d="M101.66,33.8l.73,3.75c.13.62.25,1.25.4,1.86.07.31.14.62.23.91a3.44,3.44,0,0,0,.14.42s0,.07,0,.07h0s-.1-.1-.18-.06a.19.19,0,0,0-.19.1h0l0-.07c.1-1.16-.06-2.49,0-3.74A37.92,37.92,0,0,1,103,33.2h.07a28.77,28.77,0,0,1,.49,3.81,19,19,0,0,1-.14,3.89.41.41,0,0,1,0,.16l0,.1a.39.39,0,0,1-.29.17.43.43,0,0,1-.28-.13l-.06-.09c0-.07,0-.1-.07-.15s-.1-.34-.14-.5c-.07-.32-.13-.63-.18-1-.11-.63-.2-1.27-.29-1.9l-.43-3.8Z"/><path class="cls-7" d="M94.32,30.46q.71,2.51,1.32,5c.18.85.37,1.69.49,2.56a5.06,5.06,0,0,1,.05.68,1.27,1.27,0,0,1-.07.43.37.37,0,0,1-.39.23.39.39,0,0,1-.19-.07l-.1-.08a6.54,6.54,0,0,1-.77-1.14c-.87-1.5-1.75-3-2.57-4.49s-1.65-3-2.36-4.62l.07,0a48.32,48.32,0,0,1,3,4.27c.9,1.48,1.64,3.05,2.43,4.58a7.15,7.15,0,0,0,.63,1h0s0,0,0,0a.2.2,0,0,0-.15.07.66.66,0,0,0,0-.21,4.33,4.33,0,0,0,0-.62c-.07-.84-.22-1.69-.37-2.53-.3-1.7-.65-3.39-1-5.08Z"/><path class="cls-7" d="M98.75,34.29a37.6,37.6,0,0,1,.91,7.34,23.09,23.09,0,0,1-.09,3.72A17.49,17.49,0,0,1,98.75,49l-.08,0c0-1.24.1-2.46.16-3.68s.19-2.43.23-3.65a45,45,0,0,0-.39-7.33Z"/><path class="cls-7" d="M88.17,44.17a14.55,14.55,0,0,1,.45-1.56,2.8,2.8,0,0,1,.89-1.46.65.65,0,0,1,.56,0,1,1,0,0,1,.38.32,4.11,4.11,0,0,1,.43.75c.23.51.41,1,.62,1.5a3.32,3.32,0,0,0,.35.65.53.53,0,0,0,.17.17s0,0,0,0a1.29,1.29,0,0,0,.34-.47,5.42,5.42,0,0,0,.32-.69c.41-1,.75-2,1.19-3l.07,0a12,12,0,0,1-.56,3.24,2.78,2.78,0,0,1-1,1.55.78.78,0,0,1-.74,0,1.21,1.21,0,0,1-.38-.41,4,4,0,0,1-.35-.8c-.19-.52-.33-1-.51-1.53s-.45-1.07-.75-.9a2.7,2.7,0,0,0-.86,1.2c-.22.49-.4,1-.58,1.5Z"/><path class="cls-7" d="M99.2,52.14c0,.73-.11,1.45-.2,2.17a3.84,3.84,0,0,1-.15,1.07,2.92,2.92,0,0,1-.55,1h-.08a3,3,0,0,1-.1-1.13,4.26,4.26,0,0,1,.3-1c.21-.69.45-1.37.71-2.06Z"/><path class="cls-7" d="M76.37,23.55a18.11,18.11,0,0,0-7.29,1.89,25.16,25.16,0,0,0-3.13,2,34.83,34.83,0,0,0-2.9,2.45l0,0a11.28,11.28,0,0,1,2.48-3,13.38,13.38,0,0,1,3.34-2,17.31,17.31,0,0,1,7.55-1.43Z"/><path class="cls-7" d="M82.13,26.05a18.26,18.26,0,0,1,3.08,4.15,11.28,11.28,0,0,1,1.05,2.39,8.18,8.18,0,0,1,.32,2.6h-.07c-.36-.8-.65-1.59-1-2.37s-.55-1.58-.88-2.36a21.1,21.1,0,0,0-2.6-4.37Z"/><path class="cls-7" d="M77.82,25.05a18.85,18.85,0,0,1-4.34,2.54,11,11,0,0,1-2.4.82,8.38,8.38,0,0,1-2.55.11v-.07c.81-.3,1.6-.53,2.38-.77s1.59-.4,2.37-.65a23.12,23.12,0,0,0,4.51-2Z"/><path class="cls-7" d="M63.2,26.78c-.32.53-.65,1.06-1,1.56a3.15,3.15,0,0,1-.55.75,2.24,2.24,0,0,1-.86.48l0-.05a2.2,2.2,0,0,1,.34-.92,3.69,3.69,0,0,1,.66-.65c.46-.42.92-.83,1.41-1.22Z"/><path class="cls-7" d="M63.82,57.43A12.31,12.31,0,0,0,65.51,61c.38.54.84,1,1.23,1.54s.81,1,1.21,1.61l0,.06a5.33,5.33,0,0,1-1.72-1.18A6.75,6.75,0,0,1,65,61.35a10.7,10.7,0,0,1-1.26-3.9Z"/><path class="cls-7" d="M67.44,57.66a7.25,7.25,0,0,0,1.35,2.92c.33.42.74.77,1.09,1.16S70.6,62.52,71,63l0,.06a3.79,3.79,0,0,1-1.56-.76,4.55,4.55,0,0,1-1.06-1.37,6.57,6.57,0,0,1-.94-3.25Z"/><path class="cls-7" d="M69.55,50.12a9.68,9.68,0,0,0,1,3.49c.27.53.64,1,.93,1.52s.63,1,.93,1.59l-.05.06a4.4,4.4,0,0,1-1.49-1.22A5.58,5.58,0,0,1,70,53.84a8.65,8.65,0,0,1-.52-3.72Z"/><path class="cls-7" d="M74,51.86a5.66,5.66,0,0,0,1.69,2.46,11.46,11.46,0,0,0,1.24.76l1.34.75,0,.07a2.88,2.88,0,0,1-1.64-.14,3.74,3.74,0,0,1-1.33-1,5.31,5.31,0,0,1-1.35-2.88Z"/><path class="cls-7" d="M73.62,72.35a11.68,11.68,0,0,0,.47-3.74,17.71,17.71,0,0,0-.28-1.82l-.16-.92c-.06-.3-.14-.61-.18-1l.07,0a4.37,4.37,0,0,1,1,1.73,5.21,5.21,0,0,1,.15,2,10.14,10.14,0,0,1-1,3.77Z"/><path class="cls-7" d="M79.74,68.88a11.28,11.28,0,0,0-.48-4c-.21-.63-.51-1.21-.76-1.82s-.53-1.2-.79-1.86l.06,0a5.05,5.05,0,0,1,1.4,1.58,6.38,6.38,0,0,1,.67,2,10,10,0,0,1,0,4.14Z"/><path class="cls-7" d="M84.92,52.49a4.79,4.79,0,0,0-.82,5.81,8.61,8.61,0,0,0,1.19,1.75l0,.06a3.63,3.63,0,0,1-1.8-1.44,3.88,3.88,0,0,1-.56-2.27,5.3,5.3,0,0,1,.57-2.23,6.05,6.05,0,0,1,1.4-1.73Z"/><path class="cls-7" d="M78.58,35.85c.66.41,1.33.8,2,1.15a6.94,6.94,0,0,1,1,.51,3.39,3.39,0,0,1,.88.82l0,.07a3.41,3.41,0,0,1-1.2-.23,3.89,3.89,0,0,1-1-.66,12.63,12.63,0,0,1-1.74-1.61Z"/><path class="cls-7" d="M75.05,36.5a6.84,6.84,0,0,0,2.23,2.42,13.46,13.46,0,0,0,1.45.66c.49.21,1,.38,1.56.59v.08a3.21,3.21,0,0,1-1.79,0,3.89,3.89,0,0,1-1.57-.89,6.31,6.31,0,0,1-2-2.87Z"/><path class="cls-7" d="M77.45,42.18c.94.81,1.87,1.62,2.84,2.36a15.68,15.68,0,0,0,1.46.92,2.18,2.18,0,0,0,.24.09s0,.05.09-.06a3.46,3.46,0,0,0,.13-.86l.08,0a1.82,1.82,0,0,1,.3,1,.64.64,0,0,1-.45.62,1.15,1.15,0,0,1-.66-.05A4.71,4.71,0,0,1,79.9,45a28.41,28.41,0,0,1-2.5-2.77Z"/><path class="cls-7" d="M76.7,46.26a9.14,9.14,0,0,0,2.57,2.28c.49.29,1,.48,1.52.73s1,.51,1.54.82v.07A4.16,4.16,0,0,1,80.5,50,5.43,5.43,0,0,1,78.93,49a8.14,8.14,0,0,1-2.29-2.74Z"/><path class="cls-7" d="M72.51,47.44a5.17,5.17,0,0,0,1.56,2.16c.35.27.74.44,1.1.68s.74.46,1.15.75v.07A2.5,2.5,0,0,1,74.83,51,3.25,3.25,0,0,1,73.66,50a4.78,4.78,0,0,1-1.23-2.58Z"/><path class="cls-7" d="M65.77,69.64a14.08,14.08,0,0,1,1.33,3.82,7.68,7.68,0,0,1,.24,2,5.89,5.89,0,0,1-.43,2h-.08c-.13-.69-.18-1.34-.24-2s0-1.3-.08-2a18,18,0,0,0-.8-3.87Z"/><path class="cls-7" d="M61.4,67.59A5.29,5.29,0,0,1,62.57,72a3.55,3.55,0,0,1-1.21,2.1,3.46,3.46,0,0,1-2.25.74v-.08a7.29,7.29,0,0,0,1.77-1.22A4.47,4.47,0,0,0,62,71.82a5.21,5.21,0,0,0-.65-4.18Z"/><path class="cls-7" d="M38.78,109.4a29.72,29.72,0,0,0-1.07,9.6,42.52,42.52,0,0,0,.63,4.78c.26,1.59.66,3.15,1,4.74l-.07,0a19.44,19.44,0,0,1-1.71-4.62,22,22,0,0,1-.5-4.91,28,28,0,0,1,1.6-9.65Z"/><path class="cls-7" d="M45.21,141.53A11.56,11.56,0,0,1,42,138.68a10.8,10.8,0,0,1-1.86-4,9.52,9.52,0,0,1,1.76-8.33l.07,0a16.54,16.54,0,0,0-1.2,4,12.44,12.44,0,0,0,0,4.13,10.88,10.88,0,0,0,4.54,6.86Z"/><path class="cls-7" d="M55.47,156.91a16.65,16.65,0,0,1-5.61-3.55,12.74,12.74,0,0,1-2.18-2.56,10,10,0,0,1-1.28-3.1l.07,0c.61.94,1.19,1.85,1.84,2.72a30,30,0,0,0,2,2.55,17.89,17.89,0,0,0,5.21,3.9Z"/><path class="cls-7" d="M49.49,120.09l.53,5.84c.14,1.95.41,3.89.61,5.83s.49,3.88.62,5.83.24,3.9.2,5.87h-.07c-.4-1.93-.63-3.87-.88-5.81s-.33-3.9-.47-5.85-.32-3.9-.39-5.86l-.22-5.86Z"/><path class="cls-7" d="M54.12,127.78a42.52,42.52,0,0,1-.19,6.28,20.6,20.6,0,0,1-.46,3.12,15,15,0,0,1-1.06,3l-.08,0c.08-1,.25-2.08.4-3.1s.42-2,.6-3.05a56,56,0,0,0,.71-6.2Z"/><path class="cls-7" d="M41.45,97.44a13.13,13.13,0,0,0-1.32,6.46,17.45,17.45,0,0,0,.62,3.22,23.15,23.15,0,0,0,1.1,3.15l-.07,0a8.76,8.76,0,0,1-1.75-3,10,10,0,0,1-.5-3.43,12.59,12.59,0,0,1,1.85-6.52Z"/><path class="cls-7" d="M43.56,94.72a10.85,10.85,0,0,0,.53,6.16,12.49,12.49,0,0,0,1.58,2.63,18.19,18.19,0,0,0,2.1,2.32l0,.07A7.14,7.14,0,0,1,45.09,104a8.07,8.07,0,0,1-1.57-2.89,10.56,10.56,0,0,1,0-6.39Z"/><path class="cls-7" d="M50.9,90.89a10.23,10.23,0,0,0,1.2,5.52,9.85,9.85,0,0,0,1.76,2.15,14.53,14.53,0,0,0,2.24,1.74l0,.07a6,6,0,0,1-2.72-1.25,6.74,6.74,0,0,1-1.8-2.43,10,10,0,0,1-.74-5.81Z"/><path class="cls-7" d="M57.84,87.07a12,12,0,0,0,1.49,5.8,16.65,16.65,0,0,0,1.75,2.41,25,25,0,0,0,2.07,2.21l0,.06a7.66,7.66,0,0,1-2.59-1.77,9,9,0,0,1-1.73-2.63,11.57,11.57,0,0,1-1-6.08Z"/><path class="cls-7" d="M61.76,86.47a11,11,0,0,0,.8,6.23,15,15,0,0,0,1.67,2.63,20.45,20.45,0,0,0,2.13,2.36l0,.06a7.46,7.46,0,0,1-2.66-1.94A8.76,8.76,0,0,1,62,92.92a10.66,10.66,0,0,1-.33-6.46Z"/><path class="cls-7" d="M68.79,99.32A30.39,30.39,0,0,0,73,105.86c.84,1,1.79,1.87,2.69,2.79s1.87,1.79,2.82,2.71l0,.07a16.22,16.22,0,0,1-3.28-2.23,20.1,20.1,0,0,1-2.65-3,27.73,27.73,0,0,1-3.83-6.89Z"/><path class="cls-7" d="M78.64,87.88a24.64,24.64,0,0,0,.52,7.67c.29,1.25.73,2.45,1.14,3.66s.89,2.4,1.35,3.62l-.06,0a14.44,14.44,0,0,1-2-3.39,16.92,16.92,0,0,1-1-3.81,22.7,22.7,0,0,1,0-7.8Z"/><path class="cls-7" d="M82.86,87.55A10.4,10.4,0,0,0,86,91a14.77,14.77,0,0,0,2,1c.69.32,1.41.57,2.18.84v.08a5.41,5.41,0,0,1-2.43-.21,6.49,6.49,0,0,1-2.12-1.26,9.7,9.7,0,0,1-2.82-3.88Z"/><path class="cls-7" d="M96.14,97.92a20.44,20.44,0,0,0,4.26,10.81,28.72,28.72,0,0,0,4.13,4.12,34.17,34.17,0,0,0,4.85,3.34l0,.06a18.52,18.52,0,0,1-5.28-2.81,20.39,20.39,0,0,1-4.15-4.35,19.67,19.67,0,0,1-2.78-5.31,21.28,21.28,0,0,1-1.08-5.85Z"/><path class="cls-7" d="M103.86,95.68a27,27,0,0,1,5.59,5.76,20.36,20.36,0,0,1,2.09,3.47,16.26,16.26,0,0,1,1.18,3.86l-.07,0c-.61-1.2-1.15-2.4-1.79-3.55s-1.2-2.34-1.91-3.46a29.6,29.6,0,0,0-5.14-6Z"/><path class="cls-7" d="M113.43,120.09a16.27,16.27,0,0,0,.45,4.52,15.55,15.55,0,0,0,1.64,4.2,18.85,18.85,0,0,0,2.74,3.53,23.87,23.87,0,0,0,3.44,2.95l0,.06a12.5,12.5,0,0,1-3.92-2.47,13.34,13.34,0,0,1-2.75-3.79,16.18,16.18,0,0,1-1.64-9Z"/><path class="cls-7" d="M126.09,131a22.71,22.71,0,0,1-1.85,9A18.55,18.55,0,0,1,122,144a16.39,16.39,0,0,1-3.29,3.26l0-.06c1-1.2,1.9-2.38,2.73-3.64a35.13,35.13,0,0,0,2.33-3.87A24.16,24.16,0,0,0,126,131Z"/><path class="cls-7" d="M105.16,170.56a10.24,10.24,0,0,1,.52-5.93,6.74,6.74,0,0,1,1.72-2.54,5.92,5.92,0,0,1,2.71-1.37l0,.07a14,14,0,0,0-2.23,1.84,10.5,10.5,0,0,0-1.69,2.26,10.68,10.68,0,0,0-1,5.66Z"/><path class="cls-7" d="M108.53,169.24a11.27,11.27,0,0,1,1.51-5.48,8.56,8.56,0,0,1,1.81-2.29,7.07,7.07,0,0,1,2.53-1.4l0,.06c-.72.63-1.42,1.23-2,1.89a16.18,16.18,0,0,0-1.81,2.06,11.91,11.91,0,0,0-2,5.17Z"/><path class="cls-7" d="M113.5,167.37a22,22,0,0,1,2.06-4.69,12.44,12.44,0,0,1,1.46-2.14,9,9,0,0,1,2-1.67l.05,0c-.45.74-1,1.41-1.44,2.1s-1,1.3-1.53,2a26.84,26.84,0,0,0-2.5,4.4Z"/><path class="cls-7" d="M111.36,140a22.06,22.06,0,0,1,2.83,6.48,16.21,16.21,0,0,1,.6,3.52,12.87,12.87,0,0,1-.36,3.55h-.07c-.11-1.18-.19-2.34-.32-3.49s-.22-2.29-.43-3.44a24.4,24.4,0,0,0-2.32-6.57Z"/><path class="cls-7" d="M100.16,114.51a32.56,32.56,0,0,0,1.14,5.62,24.72,24.72,0,0,0,2.15,5.27,15.25,15.25,0,0,0,3.56,4.29,10.52,10.52,0,0,0,5.07,2.27V132a8.66,8.66,0,0,1-5.53-1.76,12.78,12.78,0,0,1-3.63-4.6,29.09,29.09,0,0,1-2.84-11.17Z"/><path class="cls-7" d="M80.4,121.14c.85,2.85,1.79,5.69,2.83,8.48a83.48,83.48,0,0,0,3.48,8.21,26.1,26.1,0,0,0,5,7.21,4.28,4.28,0,0,0,3.76,1.38,6.81,6.81,0,0,0,3.44-2.53l.06.05a6.51,6.51,0,0,1-3.37,3,4,4,0,0,1-2.38-.11,6.61,6.61,0,0,1-2-1.21c-2.33-2.08-3.71-4.84-5-7.52a101.14,101.14,0,0,1-5.84-16.93Z"/><path class="cls-7" d="M84.32,116.62a16.11,16.11,0,0,0,2.92,7.16A16.94,16.94,0,0,0,90,126.49a20.39,20.39,0,0,0,3.25,2.16l0,.07a9.92,9.92,0,0,1-3.67-1.63,11.23,11.23,0,0,1-2.75-3,15.37,15.37,0,0,1-2.5-7.5Z"/><path class="cls-7" d="M70.9,123.24a22.66,22.66,0,0,1,2.37,9.09,18,18,0,0,1-.29,4.74,15.65,15.65,0,0,1-1.63,4.45l-.07,0a43.6,43.6,0,0,0,1-4.56,30.48,30.48,0,0,0,.42-4.59,23.71,23.71,0,0,0-1.84-9.07Z"/><path class="cls-7" d="M73.77,143.46a10.33,10.33,0,0,0,3,5.71A11.6,11.6,0,0,0,79.44,151a16.61,16.61,0,0,0,3,1.21v.07a7.33,7.33,0,0,1-3.35-.6,8.14,8.14,0,0,1-2.77-2,10.24,10.24,0,0,1-2.66-6.12Z"/><path class="cls-7" d="M75,156.89a10.82,10.82,0,0,0,.19,3.11,8.61,8.61,0,0,0,1.07,2.85A8.48,8.48,0,0,0,78.29,165,11.64,11.64,0,0,0,81,166.5l0,.07a6,6,0,0,1-3.1-.94,6.35,6.35,0,0,1-2.15-2.48,9.89,9.89,0,0,1-.81-6.27Z"/><path class="cls-7" d="M70.59,164.29a8,8,0,0,0-1.12,6.53A9,9,0,0,0,71,173.74a12.85,12.85,0,0,0,2.42,2.41l0,.07A6.91,6.91,0,0,1,68.89,171a8,8,0,0,1,.07-3.58,8.44,8.44,0,0,1,1.57-3.14Z"/><path class="cls-7" d="M85.23,155.21a79.08,79.08,0,0,1,3.22,9.53,48.57,48.57,0,0,1,1.15,4.91,35.08,35.08,0,0,1,.45,5H90c-.43-1.63-.75-3.27-1.12-4.89s-.63-3.28-1-4.91q-1.11-4.87-2.71-9.64Z"/><path class="cls-7" d="M92.92,151.31a8.89,8.89,0,0,0-.22,2.76,7.2,7.2,0,0,0,.63,2.64,8.43,8.43,0,0,0,1.54,2.16,12.12,12.12,0,0,0,2.1,1.75l0,.07a5.49,5.49,0,0,1-2.6-1.28,5.91,5.91,0,0,1-1.57-2.48,8.46,8.46,0,0,1,.08-5.64Z"/><path class="cls-7" d="M69.29,179.44a26.68,26.68,0,0,0,4.47,11.05,23.09,23.09,0,0,0,4.13,4.25,23.63,23.63,0,0,0,5,3.17l0,.07a15.45,15.45,0,0,1-5.49-2.65,17.64,17.64,0,0,1-4.16-4.5,25.7,25.7,0,0,1-4-11.38Z"/><path class="cls-7" d="M79.94,176.41A16,16,0,0,1,83,184.05a8.83,8.83,0,0,1-.51,4.19,7.54,7.54,0,0,1-2.56,3.3l0,0A11.37,11.37,0,0,0,81.8,188a11.09,11.09,0,0,0,.61-3.89,13.86,13.86,0,0,0-.79-4,18,18,0,0,0-1.74-3.69Z"/><path class="cls-7" d="M69.5,194.94a16.17,16.17,0,0,0-.19,5.46A13.43,13.43,0,0,0,71,205.5a13.67,13.67,0,0,0,3.7,3.84,16.8,16.8,0,0,0,4.88,2.34v.07A11.63,11.63,0,0,1,74.32,210a11.5,11.5,0,0,1-3.8-4.16,13.78,13.78,0,0,1-1.58-5.36,16.52,16.52,0,0,1,.48-5.52Z"/><path class="cls-7" d="M87.28,189.48a11.74,11.74,0,0,1,1.87,6.41,8.88,8.88,0,0,1-.58,3.38,8,8,0,0,1-1.89,2.82l-.06-.05a20.54,20.54,0,0,0,1.24-3,14,14,0,0,0,.69-3.14,12.17,12.17,0,0,0-1.33-6.35Z"/><path class="cls-7" d="M82,229a11.13,11.13,0,0,1-5.41-3.15,9,9,0,0,1-1.83-2.65,7.66,7.66,0,0,1-.62-3.12l.07,0a22.43,22.43,0,0,0,1.23,2.82,15.53,15.53,0,0,0,1.6,2.57,11.54,11.54,0,0,0,5,3.48Z"/><path class="cls-7" d="M81.61,216.13a36.56,36.56,0,0,0,2.51,6.53c.53,1,1.14,2,1.69,3s1.13,2,1.67,3.08l-.06.05a15.19,15.19,0,0,1-2.25-2.75,18.79,18.79,0,0,1-1.59-3.17,31,31,0,0,1-2-6.76Z"/><path class="cls-7" d="M86.58,214.24a6.86,6.86,0,0,0,.64,4,6.3,6.3,0,0,0,1.29,1.48,10.33,10.33,0,0,0,1.67,1.19l0,.07a3.63,3.63,0,0,1-2.12-.67,4,4,0,0,1-1.35-1.81,6.5,6.5,0,0,1-.18-4.3Z"/><path class="cls-7" d="M89.5,205.4a11,11,0,0,0-.33,6.12,12.23,12.23,0,0,0,1.15,2.8,18.5,18.5,0,0,0,1.68,2.6l0,.05a7.16,7.16,0,0,1-2.28-2.27,8,8,0,0,1-1.09-3.06,10.76,10.76,0,0,1,.85-6.27Z"/><path class="cls-7" d="M122.27,231.55a12.76,12.76,0,0,1-3.94-2.87,12.5,12.5,0,0,1-2.53-4.22,11.11,11.11,0,0,1-.64-4.92,10.63,10.63,0,0,1,1.66-4.62l.07,0a16.57,16.57,0,0,0-1,4.66,13.69,13.69,0,0,0,.46,4.67,12.5,12.5,0,0,0,5.93,7.21Z"/><path class="cls-7" d="M124.27,180.58a13.22,13.22,0,0,0-2.14,3.21,10.88,10.88,0,0,0-1.06,3.64,11.61,11.61,0,0,0,.32,3.72,14.81,14.81,0,0,0,1.38,3.56l-.06,0a8.33,8.33,0,0,1-2-3.4,8.87,8.87,0,0,1-.19-4,12.33,12.33,0,0,1,3.75-6.82Z"/><path class="cls-7" d="M116.83,203.05a11.23,11.23,0,0,1-2.38-3.35,7.35,7.35,0,0,1-.7-2,5.65,5.65,0,0,1,0-2.09h.08c.24.66.41,1.3.6,1.93s.31,1.28.52,1.91a13.35,13.35,0,0,0,1.88,3.53Z"/><path class="cls-7" d="M126.54,198.67a12.53,12.53,0,0,0-1.71,5.6,17.7,17.7,0,0,0,.17,2.91,28.06,28.06,0,0,0,.49,2.91l-.07,0a7.57,7.57,0,0,1-1.16-2.83,9.31,9.31,0,0,1,0-3.07,11.81,11.81,0,0,1,2.25-5.59Z"/><path class="cls-7" d="M107.47,197.45a19.08,19.08,0,0,0-1.92-6.66,29.2,29.2,0,0,0-1.83-2.92c-.65-.94-1.37-1.84-2.12-2.76l.05-.06a11,11,0,0,1,2.67,2.37,13.54,13.54,0,0,1,1.78,3.11,17.79,17.79,0,0,1,1.44,6.91Z"/><path class="cls-7" d="M95.63,174.54a20.19,20.19,0,0,0-.87,3.65,14.93,14.93,0,0,0-.14,3.71,10.22,10.22,0,0,0,1,3.47,8.18,8.18,0,0,0,2.26,2.84l0,.07a5.54,5.54,0,0,1-1.65-1A7.1,7.1,0,0,1,95,185.72a8,8,0,0,1-.93-3.78,17.77,17.77,0,0,1,1.54-7.43Z"/><path class="cls-7" d="M126.49,240.15a17.37,17.37,0,0,1-4.13-2.23,9.48,9.48,0,0,1-1.82-1.52,7.76,7.76,0,0,1-1.3-2l.06,0c.64.49,1.2,1,1.77,1.51s1.08,1.08,1.66,1.58a21.34,21.34,0,0,0,3.79,2.63Z"/><path class="cls-7" d="M123.83,216.73a14.68,14.68,0,0,1,1.87,4.42,9.23,9.23,0,0,1,.36,2.4,7.3,7.3,0,0,1-.42,2.4h-.08c-.11-.81-.17-1.59-.25-2.36s-.09-1.54-.2-2.32a17.15,17.15,0,0,0-1.35-4.5Z"/><path class="cls-7" d="M119.6,219.92a6,6,0,0,0,0,3.64,9,9,0,0,0,.83,1.57,16.75,16.75,0,0,0,1,1.53l0,.07a3.53,3.53,0,0,1-1.61-1.17,4.17,4.17,0,0,1-.8-1.84,5.63,5.63,0,0,1,.52-3.82Z"/><path class="cls-7" d="M114.46,205.32a9.93,9.93,0,0,1,3,1.6,9.35,9.35,0,0,1,2.24,2.61,8,8,0,0,1,1.12,3.29,7.25,7.25,0,0,1-.52,3.4h-.08a15,15,0,0,0-.15-3.3,11.18,11.18,0,0,0-.9-3.09,9.42,9.42,0,0,0-4.73-4.43Z"/><path class="cls-3" d="M75.49,263.08a14.57,14.57,0,0,0,1.61-5.52,14.94,14.94,0,0,0,0-2.32"/><path class="cls-7" d="M80.59,262.45a13.93,13.93,0,0,0,3-4.1,23.19,23.19,0,0,0,.86-2.37c.27-.79.49-1.6.75-2.45h.08a6.9,6.9,0,0,1-.11,2.64,8.27,8.27,0,0,1-1,2.44,12.62,12.62,0,0,1-3.48,3.89Z"/><path class="cls-7" d="M89.63,259.05a15.9,15.9,0,0,0,.86-5.4,27.14,27.14,0,0,0-.28-2.7c-.1-.9-.25-1.79-.38-2.73l.07,0a8.1,8.1,0,0,1,1,2.63,10,10,0,0,1,.14,2.84,14.43,14.43,0,0,1-1.39,5.42Z"/><path class="cls-7" d="M80.65,234.45a13.74,13.74,0,0,0-.51,6,19.17,19.17,0,0,0,.75,2.89c.29.95.67,1.87,1.06,2.84l-.06,0a8.23,8.23,0,0,1-1.71-2.63,9.84,9.84,0,0,1-.64-3.08,13,13,0,0,1,1-6.09Z"/><path class="cls-7" d="M88.49,234.13a17,17,0,0,1,.5,6.23,11.87,11.87,0,0,1-.64,3.11,9.76,9.76,0,0,1-1.57,2.75l-.06,0c.31-1,.65-2,.92-3s.58-1.94.76-2.95a18.6,18.6,0,0,0,0-6.14Z"/><path class="cls-7" d="M84.07,233a32.11,32.11,0,0,0-.82,5.29,9.26,9.26,0,0,0,.25,2.52,1.37,1.37,0,0,0,.6.86,2.32,2.32,0,0,0,1.23.13l0,.07a1.89,1.89,0,0,1-1.42.29,1.71,1.71,0,0,1-1.13-1.09,5.59,5.59,0,0,1-.14-2.83A24.76,24.76,0,0,1,84,233Z"/><path class="cls-7" d="M65.93,116.33a10.83,10.83,0,0,1-1.48,4.72,7,7,0,0,1-1.58,2,5.85,5.85,0,0,1-2.24,1.16l0-.06c.62-.57,1.21-1.09,1.76-1.65A17.78,17.78,0,0,0,64,120.72a11.69,11.69,0,0,0,1.9-4.41Z"/><path class="cls-7" d="M59.64,103.53A14.79,14.79,0,0,1,62,109.15a10.68,10.68,0,0,1,.24,3.09,8.76,8.76,0,0,1-.78,3h-.07c0-1,.11-2,.11-3a29.07,29.07,0,0,0-.09-3,16.09,16.09,0,0,0-1.82-5.68Z"/><path class="cls-7" d="M62.8,132.68A6.86,6.86,0,0,0,65,128.91a4.7,4.7,0,0,0-.2-2A5.85,5.85,0,0,0,63.71,125l0-.06a3.15,3.15,0,0,1,1.72,1.65,3.72,3.72,0,0,1,.09,2.44,6.63,6.63,0,0,1-2.71,3.7Z"/><path class="cls-7" d="M66.88,132.39a13.87,13.87,0,0,1,.88,6.61,11,11,0,0,1-.8,3.29,9.28,9.28,0,0,1-1.89,2.8l-.06,0c.46-1,.9-2,1.25-3a20.88,20.88,0,0,0,.9-3.11,14.42,14.42,0,0,0-.35-6.49Z"/><ellipse cx="52.15" cy="46.69" rx="0.98" ry="1.58"/><ellipse cx="67.14" cy="45.52" rx="0.79" ry="1.48"/></svg>