<svg id="Capa_1" data-name="Capa 1" xmlns="http://www.w3.org/2000/svg" viewBox="0 0 224.68 223.95"><defs><style>.cls-1{fill:#144920;}.cls-2{fill:#fff;}.cls-3{fill:#be894a;}.cls-4{fill:#c20c0d;}.cls-5{fill:#80bf1f;}.cls-6{fill:#4d1f08;}.cls-7{fill:none;stroke:#000;stroke-miterlimit:10;stroke-width:0.75px;}</style></defs><title>leyendas 2 del mapa</title><g id="LWPOLYLINE"><path class="cls-1" d="M108.38,186a7.88,7.88,0,0,1-5.49-5.18V96.31a7.9,7.9,0,0,1,5.49-5.18h83.91a7.89,7.89,0,0,1,5.5,5.18v84.54a7.87,7.87,0,0,1-5.5,5.18Z"/><path class="cls-2" d="M192.29,187.28H108.38a1.22,1.22,0,0,1-.32,0,9.1,9.1,0,0,1-6.35-6,1,1,0,0,1-.07-.39V96.31a1,1,0,0,1,.07-.39,9.06,9.06,0,0,1,6.36-6,1.1,1.1,0,0,1,.31,0h83.91a1.06,1.06,0,0,1,.31,0,9.06,9.06,0,0,1,6.37,6,1,1,0,0,1,.07.39v84.54a1,1,0,0,1-.07.39,9.1,9.1,0,0,1-6.36,6A1.12,1.12,0,0,1,192.29,187.28Zm-83.74-2.5h83.57a6.59,6.59,0,0,0,4.42-4.13V96.52a6.61,6.61,0,0,0-4.41-4.14H108.55a6.61,6.61,0,0,0-4.41,4.14v84.13A6.6,6.6,0,0,0,108.55,184.78Z"/></g><g id="LWPOLYLINE-2" data-name="LWPOLYLINE"><path class="cls-2" d="M201.4,199.78H97.6a2.35,2.35,0,0,1-.64-.09,12.2,12.2,0,0,1-8.53-8.05,3,3,0,0,1-.12-.78V86.29a2.6,2.6,0,0,1,.13-.78,12.21,12.21,0,0,1,8.53-8,2.72,2.72,0,0,1,.63-.08H201.4a2.72,2.72,0,0,1,.63.08,12.23,12.23,0,0,1,8.53,8,2.6,2.6,0,0,1,.13.78V190.86a3,3,0,0,1-.12.78,12.26,12.26,0,0,1-8.53,8.05A2.35,2.35,0,0,1,201.4,199.78ZM98,194.78h103.1a7.24,7.24,0,0,0,4.65-4.35V86.72a7.33,7.33,0,0,0-4.65-4.33H97.94a7.22,7.22,0,0,0-4.64,4.33V190.43A7.22,7.22,0,0,0,98,194.78Z"/></g><path class="cls-2" d="M196,168.73H102.89a2.5,2.5,0,1,1,0-5H196a2.5,2.5,0,0,1,0,5Z"/><path class="cls-2" d="M115,163.92c.75,0,5.25-9.47,6.24-11s3.24-8.47,3.49-10-.49-4.48,0-6.47-.25-2.84,1.75-4.79a7.75,7.75,0,0,0,2.24-5.44c0-1,.25-5.48,1.25-6.23s3-4.74,4.23-4,6.24-.43,7-.09,5.74,9.32,5.74,9.32V133c0,1-1.74,7.24,0,9a34.78,34.78,0,0,1,4.74,7.64v3.08a48.42,48.42,0,0,1,2.49,4.24c.25.75,1,5.75,1,5.75v3.54H115Z"/><path class="cls-2" d="M155.13,166.73H115a.49.49,0,0,1-.49-.5v-2.31a.49.49,0,0,1,.34-.47c.59-.52,2.68-4.57,4-7,.89-1.74,1.66-3.23,2-3.78.94-1.4,3.18-8.33,3.42-9.78a11.92,11.92,0,0,0-.06-2.41,13.42,13.42,0,0,1,.07-4.11,8.79,8.79,0,0,0,.21-1.47,4.57,4.57,0,0,1,1.67-3.54,7.33,7.33,0,0,0,2.09-5.09c0-.06.09-5.6,1.45-6.63a9.17,9.17,0,0,0,1.16-1.43c1.13-1.55,2.4-3.32,3.63-2.58.59.35,2.75.1,4.16-.06a7.07,7.07,0,0,1,2.77-.07c.78.36,4.07,6.13,6,9.54a.48.48,0,0,1,.06.24V133a11.89,11.89,0,0,1-.22,1.49c-.35,1.94-1.09,6,.07,7.14,1.71,1.7,4.89,7.36,4.89,8v2.94a39.49,39.49,0,0,1,2.46,4.22c.26.77.94,5.32,1,5.84v3.61A.5.5,0,0,1,155.13,166.73Zm-39.65-1h39.15v-3c-.3-1.92-.8-5.08-1-5.59a44.36,44.36,0,0,0-2.44-4.13.5.5,0,0,1-.08-.27v-3.08c-.14-.46-3-5.68-4.59-7.29s-.79-5.59-.35-8c.1-.58.2-1.13.2-1.31v-7.59c-2.31-4.15-5-8.63-5.48-9a13.27,13.27,0,0,0-2.2.18c-2.29.25-4,.4-4.79-.09l-.1,0c-.51,0-1.69,1.62-2.21,2.34a9.24,9.24,0,0,1-1.37,1.64c-.64.48-1.05,4.1-1.05,5.83a8.19,8.19,0,0,1-2.39,5.8,3.61,3.61,0,0,0-1.38,2.9,8.85,8.85,0,0,1-.23,1.65,12.51,12.51,0,0,0,0,3.78,12.75,12.75,0,0,1,0,2.66c-.24,1.44-2.49,8.55-3.58,10.17-.32.49-1.12,2-2,3.68-2.59,5-3.58,6.74-4.18,7.29Z"/><path class="cls-2" d="M182.3,164.67s-5-10.72-5-12.46,3.49-1.76,0-5.74-3.49-4.08-3.49-5.41a41.33,41.33,0,0,0-1.25-5.81v-3.54l-5-5.68s-3.49-2.25-3.49-1.25-1.74,4.39-1.49,6.93-2,8.06-2,8.67a11.07,11.07,0,0,1,0,4.21,22.39,22.39,0,0,1-2.24,5s-2,2.59-1.74,3.33-2.33,2.54-2.33,2.54l-.5.78,1.33,5v5h28Z"/><path class="cls-2" d="M183.13,166.73h-28a.5.5,0,0,1-.5-.5v-4.9l-1.31-4.93a.55.55,0,0,1,.06-.4l.5-.77a.29.29,0,0,1,.13-.14,6.9,6.9,0,0,0,2.13-2c-.28-.81,1-2.69,1.83-3.74h0a22,22,0,0,0,2.16-4.83,8.35,8.35,0,0,0,.06-3.41,5.69,5.69,0,0,1-.07-.69,8.36,8.36,0,0,1,.5-1.81c.62-1.92,1.66-5.14,1.49-6.81a13.89,13.89,0,0,1,1-5.32,8.55,8.55,0,0,0,.47-1.66.69.69,0,0,1,.37-.65c.59-.31,1.88.19,3.88,1.48a.48.48,0,0,1,.11.09l5,5.69a.53.53,0,0,1,.12.32v3.47a39.51,39.51,0,0,1,1.24,5.88c0,1.16,0,1.23,3.37,5.08,2.46,2.81,1.75,4,.73,5.07-.37.39-.61.65-.61,1,0,1.18,3,8.13,4.94,12.24l.82,1.55a.5.5,0,0,1,0,.49A.5.5,0,0,1,183.13,166.73Zm-27.5-1H182.3l-.43-.83,0,0c-.52-1.11-5-10.87-5-12.67a2.42,2.42,0,0,1,.88-1.69c.73-.77,1.3-1.37-.76-3.72-3.48-4-3.61-4.19-3.61-5.74a38.44,38.44,0,0,0-1.23-5.67.68.68,0,0,1,0-.14V131.9l-4.81-5.49a13.22,13.22,0,0,0-2.69-1.37,10.93,10.93,0,0,1-.5,1.72,13.34,13.34,0,0,0-1,4.91c.18,1.87-.85,5.08-1.54,7.2-.21.64-.45,1.37-.46,1.52a3.36,3.36,0,0,0,.07.53,9.35,9.35,0,0,1-.08,3.79,22.86,22.86,0,0,1-2.3,5.16,8.7,8.7,0,0,0-1.7,2.94c.3.87-1.14,2.12-2.44,3l-.32.5,1.27,4.78a.69.69,0,0,1,0,.13Z"/><path class="cls-2" d="M48.79,191.57a30.05,30.05,0,0,1-7.86.63,15.94,15.94,0,0,1-7-1.63,7.48,7.48,0,0,1-4-5.64c-.21-2.4,1.45-5,3.84-5.32a25,25,0,0,1,3.34.14,2.83,2.83,0,0,0,2.77-1.5c.4-1.14-.45-2.36-1.46-3a27.68,27.68,0,0,1-3.13-1.81,5.89,5.89,0,0,1-1.67-5A24,24,0,0,1,35,163.14c2.46-7.61,2.56-15.72,2.16-23.64-.18-3.65,1-11.82-2-14.65-1.57-1.51-2.61-.67-8.56-1.76A47.49,47.49,0,0,1,12.05,118c-4.39-2.47-6.58-3.7-7.4-5.77-1.78-4.54,3.05-7.27,5-18.71a19.37,19.37,0,0,1,1.56-6.05c1.24-2.52,2.87-4.06,6.84-7.39,5.33-4.48,8-6.71,8.63-6.95,5.62-2.09,9.42.83,15.4-2.35,1.83-1,2.15-1.6,2.19-2.08.17-2.21-5.8-2.28-10.09-7.33-2.55-3-2.52-5.44-5.6-7-2-1-2.84-.34-4.37-1C19.58,51.36,19,41.53,19.78,35A28.53,28.53,0,0,1,29,18c9.92-8.59,24.62-8.5,35-3.36C71.24,18.27,79.35,25.9,80.28,35,80.46,36.7,81,42,78.1,46.7c-1.31,2.16-1.85,1.77-3.87,4.46-4.5,6-2.71,9.15-6.27,11.88-3,2.26-6.24,1.67-6.95,4a3.24,3.24,0,0,0,.4,2.74c2.51,3.33,11.61-3.66,22.91-.5a19.33,19.33,0,0,1,5.4,2.33c4.23,2.67,5.61,6,10.59,13.61,0,0,2.46,3.78,5.3,7.73,7.59,10.59,10.59,12.16,10.42,16-.11,2.48-2.15,4.62-6.22,8.9-3.63,3.83-9.44,9.94-18.24,12.11-2.57.63-3.49.45-4.7,1.51-3.91,3.4-1.22,11.6-.65,15.85,1,7.45,1.69,15,1,22.51-.26,3-.84,6.18-2.94,8.32-1.09,1.12-2.54,1.9-3.37,3.22,1.76.88,3.9,0,5.83.35,2.66.51,4.36,3.53,3.92,6.2a8.21,8.21,0,0,1-5.11,5.87,17.05,17.05,0,0,1-8,.88,38.89,38.89,0,0,1-7.09-1.26,7.46,7.46,0,0,1-2.94-1.35,6.14,6.14,0,0,1-1.66-5.29c.19-1.91.86-3.75,1.15-5.65a3.21,3.21,0,0,0-.5-2.73c-.65-.69-1.73-.76-2.53-1.28-1.89-1.24-1.32-4.1-.65-6.26a55.91,55.91,0,0,0,.42-31.22L59,154.46c-1.25,3.83-2.51,7.83-1.93,11.82.24,1.65.79,3.25.92,4.91a5.35,5.35,0,0,1-1.52,4.57c-.75.62-1.73.93-2.41,1.61-1.35,1.35-1.09,3.59-.56,5.42s1.23,3.84.46,5.58-2.74,2.61-4.6,3.08Z"/><path d="M88.41,186.05c.58,2.29-1.52,4.94-3.75,6-1.64.81-2.54.37-10.57-.53-3.27-.35-3.72-.25-4.38-.74-3.21-2.44-.81-10.48,0-12.94v-.35c1.35,0,3.08,0,5.24.07,1.67,0,3,.09,3.92.12l0,.22c-.27,3.63.53,4.8,1.25,5.2,1.29.73,2.61-.79,4.89-.21A4.77,4.77,0,0,1,88.41,186.05Z"/><path class="cls-3" d="M93.56,126.51c-1.77,1.22-4.24,1.73-5.23-.48-.33-.76-.45-1.6-.82-2.36-.53-1.11-1.49-1.91-1.82-3.13a1.56,1.56,0,0,1-.06-.74.84.84,0,0,1,.3-.55,1.8,1.8,0,0,1,1-.19,6.49,6.49,0,0,0,2.5-.58,3.81,3.81,0,0,1,2.4-.69c.69.18,1.33.83,2.11.49s1.16-1.14,1.64-1.71a22,22,0,0,1,3.37-3.32c1.45-1.09,3.28-2.15,4.22-4.27a1.8,1.8,0,0,0,.19-.53c.27-1.64-1.85-3.28-4.24-5.54a64.77,64.77,0,0,1-8.34-9.76c1.5-.88,4.5-1.68,6.31-2.86,2.56,2.66,4.4,4.5,5.65,5.74,0,0,1.27,1.27,3.3,3.39.78.81,1.36,1.41,2.07,2.24s1.22,1.43,1.83,2.22a33.25,33.25,0,0,1,2.49,3.58c1.22,2.4-6.9,10.33-18.8,19.08Z"/><path class="cls-4" d="M83.46,138.64c.83,21.64,4.38,36.41-1,39.13-.48.23-.46.1-3.58,0-1,0-2.25-.08-3.92-.12-2.16,0-3.89,0-5.24-.07-3-.07-4.28-.27-4.91-1.25-.94-1.42.09-3.45.79-5.21,1.52-3.76,1.68-8.17,2-17,.4-11.38-3.89-22.26-5.53-22.06-.79.09-.49,2.8-1.53,9.48-2.47,15.78-6.83,17.68-5.3,25.68.51,2.7,1.54,5.21.14,7.06a6.47,6.47,0,0,1-3.81,2.08,17.72,17.72,0,0,1-3.55.46,13.6,13.6,0,0,1-2.28-.11,19.45,19.45,0,0,1-3.21-.72c-2.66-.81-5.5-2.31-6.41-4.66s.41-4.34,1.47-6.92c1.57-3.81,1.64-9.42,1.77-20.65.1-8.95-.6-11.83.37-19.66,0-.36.08-.71.12-1a79.82,79.82,0,0,1,14.46-.4c2.41.16,4.62.42,13.15,1.76,3.91.64,9.33,1.52,15.86,2.63C83.27,130.48,83.3,134.38,83.46,138.64Z"/><path class="cls-3" d="M30.56,50.1c-2-6.3-1.71-13.49,1.86-19.24a20.69,20.69,0,0,1,12.95-9,20,20,0,0,1,14.41,2.78c6.16,3.85,8.45,9.78,9.42,12.41a27.54,27.54,0,0,1,2.07,11.11,19.24,19.24,0,0,1-1.49,6.56A20.45,20.45,0,0,1,57.52,65.81a18,18,0,0,1-2.44.69,17.71,17.71,0,0,1-6.53,0c-8.07-1.39-13.33-7.84-13.77-8.4A25.68,25.68,0,0,1,30.56,50.1ZM60.59,40a3,3,0,1,0-3,3A3,3,0,0,0,60.59,40ZM44.86,40a2.87,2.87,0,0,0-2.65-3,3.06,3.06,0,0,0,0,6.07A2.87,2.87,0,0,0,44.86,40Z"/><path d="M57.57,36.93a3,3,0,1,1-3,3A3,3,0,0,1,57.57,36.93Z"/><path d="M45.72,176.67a13.6,13.6,0,0,0,2.28.11,17.72,17.72,0,0,0,3.55-.46l.07.27c.62,2.5,2.45,10.71-.92,12.9-.69.44-1.13.32-4.41.44-8.08.34-9,.72-10.59-.21-2.14-1.25-4-4.06-3.32-6.29A4.77,4.77,0,0,1,36,180.56c2.3-.43,3.52,1.18,4.84.54.76-.35,1.62-1.44,1.62-5.1l0-.05A19.45,19.45,0,0,0,45.72,176.67Z"/><ellipse cx="42.21" cy="39.97" rx="2.65" ry="3.04"/><path class="cls-5" d="M54.29,122.63a79.82,79.82,0,0,0-14.46.4c.26-1.82.51-3.32.72-4.36l.16-.3a1.06,1.06,0,0,0,.35.09,3.12,3.12,0,0,0,1.13-.19c7.14-2.21,14.66-1,21.87.08,3.66.53,16.28,3.43,19.51-.38,0,.54,0,1.13-.07,1.74-.11,2.12-.18,4.58-.2,7.31-6.53-1.11-12-2-15.86-2.63C58.91,123.05,56.7,122.79,54.29,122.63Z"/><path class="cls-3" d="M35.66,121.73c-1.3,1.23-3.47.7-3.93.58v0c-14.48-3.82-25-8-24.75-10.31a42.17,42.17,0,0,1,.92-4.27c.16-.59.32-1.13.47-1.68,0,0,.57-1.87,1.4-3.95a116.78,116.78,0,0,1,5.14-10.65L15,91.4c1.55,1.33,4.16,2.42,5.33,4.24.19.3.39.62.62.93-1.33,3.45-2.53,6.16-3.41,8.09-1.57,3.44-2.49,5-1.76,6.07.86,1.25,2.75,0,6,1.09,3.92,1.27,5.3,4.33,7.18,3.66.87-.34.55-1,2-2s4-1.74,5-.74a.41.41,0,0,1,.1.13c.2.28.34.88.34,3.37v0c0,3,.14,4.06-.23,4.82A2.74,2.74,0,0,1,35.66,121.73Z"/><path class="cls-6" d="M32.42,30.86c-3.57,5.75-3.87,12.94-1.86,19.24-1.32,2-2.26,2.08-2.7,2C26,52,25,48.23,23.89,44.2c-.85-3.05-1.27-4.57-1.09-6.62.07-1,.33-3,2.86-7.5A36.09,36.09,0,0,1,31,22.14c7.79-8.14,20.49-6.92,21.18-6.85,6.39.71,11,3.65,14.34,5.75A26.61,26.61,0,0,1,72,25.46a20.2,20.2,0,0,1,5.3,8.82c.7,2.61,1.76,6.5-.45,9.92a10,10,0,0,1-5.57,4A27.54,27.54,0,0,0,69.2,37.05c-1-2.63-3.26-8.56-9.42-12.41a20,20,0,0,0-14.41-2.78A20.69,20.69,0,0,0,32.42,30.86Z"/><path class="cls-4" d="M35.13,86.58c-4,3-6.56,7.49-10.5,10.49a3,3,0,0,1-1.9.79,2.55,2.55,0,0,1-1.82-1.29c-.23-.31-.43-.63-.62-.93-1.17-1.82-3.78-2.91-5.33-4.24-1.22-1-1.78-2.19-.48-3.93,1.82-2.42,4.66-3.87,6.87-5.87,2.61-2.36,4.16-4,6.65-5.33a26.15,26.15,0,0,1,5-2.06c2.68-.78,3.46-.51,8.08-1.18,3.83-.55,5.4-.76,6.48-2a5.91,5.91,0,0,0,1-4.45,17.71,17.71,0,0,0,6.53,0,18,18,0,0,0,2.44-.69c-.41,1.43-.69,3.42.35,4.87,2.26,3.19,10.24,1.83,13.54,1.68,4.92-.22,10.08-.5,14.65,1.65,5,2.35,8.36,7.15,11.47,11.74a4.83,4.83,0,0,1,1,2.26c.08.92-.54,1.64-1.5,2.28-1.81,1.18-4.81,2-6.31,2.86a2.49,2.49,0,0,0-.48.33c-1,.83-2.35,1.56-3.55,1.08-2.86-1.15-4.22-8.6-5.21-11.15-1.8,9.77.73,19.76,2.6,29.54a7.94,7.94,0,0,1,.05,4,2.83,2.83,0,0,1-.58,1c-3.23,3.81-15.85.91-19.51.38-7.21-1-14.73-2.29-21.87-.08a3.12,3.12,0,0,1-1.13.19,1.06,1.06,0,0,1-.35-.09c-.77-.28-1-1.2-1-2.19a6.57,6.57,0,0,1,.23-1.69c2.4-8.76,3.58-18.59-.79-26.55-.57-1-1.49-2.15-2.65-2A3,3,0,0,0,35.13,86.58Z"/><path class="cls-7" d="M71.27,48.16A27.54,27.54,0,0,0,69.2,37.05c-1-2.63-3.26-8.56-9.42-12.41a20,20,0,0,0-14.41-2.78,20.69,20.69,0,0,0-12.95,9c-3.57,5.75-3.87,12.94-1.86,19.24a25.68,25.68,0,0,0,4.22,8c.44.56,5.7,7,13.77,8.4a17.71,17.71,0,0,0,6.53,0,18,18,0,0,0,2.44-.69A20.45,20.45,0,0,0,69.78,54.72,19.24,19.24,0,0,0,71.27,48.16Z"/><path class="cls-7" d="M40.55,118.67c-.21,1-.46,2.54-.72,4.36,0,.32-.09.67-.12,1-1,7.83-.27,10.71-.37,19.66-.13,11.23-.2,16.84-1.77,20.65-1.06,2.58-2.35,4.66-1.47,6.92s3.75,3.85,6.41,4.66a19.45,19.45,0,0,0,3.21.72,13.6,13.6,0,0,0,2.28.11,17.72,17.72,0,0,0,3.55-.46,6.47,6.47,0,0,0,3.81-2.08c1.4-1.85.37-4.36-.14-7.06-1.53-8,2.83-9.9,5.3-25.68,1-6.68.74-9.39,1.53-9.48,1.64-.2,5.93,10.68,5.53,22.06-.32,8.83-.48,13.24-2,17-.7,1.76-1.73,3.79-.79,5.21.63,1,1.92,1.18,4.91,1.25,1.35,0,3.08,0,5.24.07,1.67,0,3,.09,3.92.12,3.12.14,3.1.27,3.58,0,5.4-2.72,1.85-17.49,1-39.13-.16-4.26-.19-8.16-.16-11.62,0-2.73.09-5.19.2-7.31,0-.61,0-1.2.07-1.74v-.07"/><path class="cls-7" d="M42.49,176c0,3.66-.86,4.75-1.62,5.1-1.32.64-2.54-1-4.84-.54a4.77,4.77,0,0,0-3.65,2.87c-.72,2.23,1.18,5,3.32,6.29,1.59.93,2.51.55,10.59.21,3.28-.12,3.72,0,4.41-.44,3.37-2.19,1.54-10.4.92-12.9"/><path class="cls-7" d="M78.84,178c-.27,3.63.53,4.8,1.25,5.2,1.29.73,2.61-.79,4.89-.21a4.77,4.77,0,0,1,3.43,3.11c.58,2.29-1.52,4.94-3.75,6-1.64.81-2.54.37-10.57-.53-3.27-.35-3.72-.25-4.38-.74-3.21-2.44-.81-10.48,0-12.94"/><path class="cls-7" d="M14.91,91.47a116.78,116.78,0,0,0-5.14,10.65c-.83,2.08-1.4,3.95-1.4,3.95-.15.55-.31,1.09-.47,1.68A42.17,42.17,0,0,0,7,112c-.25,2.27,10.27,6.49,24.75,10.31.17,0,.37.08.54.14"/><path class="cls-7" d="M21,96.29l-.1.28c-1.33,3.45-2.53,6.16-3.41,8.09-1.57,3.44-2.49,5-1.76,6.07.86,1.25,2.75,0,6,1.09,3.92,1.27,5.3,4.33,7.18,3.66.87-.34.55-1,2-2s4-1.74,5-.74a.41.41,0,0,1,.1.13c.2.28.34.88.34,3.37v0c0,3,.14,4.06-.23,4.82a2.74,2.74,0,0,1-.5.64c-1.3,1.23-3.47.7-3.93.58"/><path class="cls-7" d="M96.61,89.83c.14.16.3.3.44.46,2.56,2.66,4.4,4.5,5.65,5.74,0,0,1.27,1.27,3.3,3.39.78.81,1.36,1.41,2.07,2.24s1.22,1.43,1.83,2.22a33.25,33.25,0,0,1,2.49,3.58c1.22,2.4-6.9,10.33-18.8,19.08-.15.13-.31.23-.47.36"/><path class="cls-7" d="M90.35,92.62a6,6,0,0,0,.39.53,64.77,64.77,0,0,0,8.34,9.76c2.39,2.26,4.51,3.9,4.24,5.54a1.8,1.8,0,0,1-.19.53c-.94,2.12-2.77,3.18-4.22,4.27a22,22,0,0,0-3.37,3.32c-.48.57-.92,1.4-1.64,1.71s-1.42-.31-2.11-.49a3.81,3.81,0,0,0-2.4.69,6.49,6.49,0,0,1-2.5.58,1.8,1.8,0,0,0-1,.19.84.84,0,0,0-.3.55,1.56,1.56,0,0,0,.06.74c.33,1.22,1.29,2,1.82,3.13.37.76.49,1.6.82,2.36,1,2.21,3.46,1.7,5.23.48"/><path class="cls-7" d="M31,49.5a6.9,6.9,0,0,1-.39.6c-1.32,2-2.26,2.08-2.7,2C26,52,25,48.23,23.89,44.2c-.85-3.05-1.27-4.57-1.09-6.62.07-1,.33-3,2.86-7.5A36.09,36.09,0,0,1,31,22.14c7.79-8.14,20.49-6.92,21.18-6.85,6.39.71,11,3.65,14.34,5.75A26.61,26.61,0,0,1,72,25.46a20.2,20.2,0,0,1,5.3,8.82c.7,2.61,1.76,6.5-.45,9.92a10,10,0,0,1-5.57,4c-.45.12-.8.19-1,.24"/><ellipse class="cls-7" cx="42.21" cy="39.97" rx="2.65" ry="3.04"/><path class="cls-7" d="M60.59,40a3,3,0,1,1-3-3A3,3,0,0,1,60.59,40Z"/><path class="cls-7" d="M48.51,48.58c.89,2.72,2.56,4,3.64,3.32.74-.51,1.16-1.94,1.11-3.67"/><path class="cls-7" d="M41.12,57.12c.4.32,7,5.12,14.4,2.21a14.77,14.77,0,0,0,7.66-7.2"/><path class="cls-7" d="M39.6,123.07l.23,0a79.82,79.82,0,0,1,14.46-.4c2.41.16,4.62.42,13.15,1.76,3.91.64,9.33,1.52,15.86,2.63a.07.07,0,0,0,.06,0"/><path class="cls-7" d="M48.46,66a4.68,4.68,0,0,1,.09.56,5.91,5.91,0,0,1-1,4.45c-1.08,1.29-2.65,1.5-6.48,2-4.62.67-5.4.4-8.08,1.18a26.15,26.15,0,0,0-5,2.06c-2.49,1.36-4,3-6.65,5.33-2.21,2-5.05,3.45-6.87,5.87-1.3,1.74-.74,2.91.48,3.93,1.55,1.33,4.16,2.42,5.33,4.24.19.3.39.62.62.93a2.55,2.55,0,0,0,1.82,1.29,3,3,0,0,0,1.9-.79c3.94-3,6.52-7.54,10.5-10.49A3,3,0,0,1,36.46,86c1.16-.16,2.08,1,2.65,2,4.37,8,3.19,17.79.79,26.55a6.57,6.57,0,0,0-.23,1.69c0,1,.27,1.91,1,2.19a1.06,1.06,0,0,0,.35.09,3.12,3.12,0,0,0,1.13-.19c7.14-2.21,14.66-1,21.87.08,3.66.53,16.28,3.43,19.51-.38a2.83,2.83,0,0,0,.58-1,7.94,7.94,0,0,0-.05-4c-1.87-9.78-4.4-19.77-2.6-29.54,1,2.55,2.35,10,5.21,11.15,1.2.48,2.56-.25,3.55-1.08a2.49,2.49,0,0,1,.48-.33c1.5-.88,4.5-1.68,6.31-2.86,1-.64,1.58-1.36,1.5-2.28a4.83,4.83,0,0,0-1-2.26C94.42,81.16,91.09,76.36,86.06,74c-4.57-2.15-9.73-1.87-14.65-1.65-3.3.15-11.28,1.51-13.54-1.68-1-1.45-.76-3.44-.35-4.87,0-.14.08-.29.12-.43"/></svg>