<svg id="Capa_1" data-name="Capa 1" xmlns="http://www.w3.org/2000/svg" viewBox="0 0 165.17 269.62"><defs><style>.cls-1,.cls-6{fill:#fff;}.cls-2,.cls-4,.cls-5,.cls-6{stroke:#000;stroke-miterlimit:10;}.cls-3,.cls-5{fill:#beac83;}.cls-4{fill:none;}</style></defs><title>leyendas 2 del mapa</title><path class="cls-1" d="M26.6,127.41c-.12,2.61.47,4,1.28,4.79,1.22,1.28,3,1.45,4.64,1.6s2.35-.07,5.92-.48c5.17-.59,5.68-.33,5.92,0,.71,1-.94,2.66-2.08,5.92-.61,1.74-.39,2-1,8.16-.9,9.66-1.46,9.49-1.28,13.12a15.37,15.37,0,0,1-.16,4.48c-.56,2.67-1.56,3.17-1.76,5.28a7.22,7.22,0,0,0,1.6,5.44c2.16,2.34,5.64,1.95,7.36,1.76s4.66-.52,5.59-2.4-1.2-3.68-1.59-7.68c-.18-1.77.3-3.55,1.28-7,1.65-5.93,4.3-11.65,5.11-17.76.4-2.93.48-5.86,2.4-6.88a21.4,21.4,0,0,1,4.16-.64c2.58-.29,2.92-.24,3.2,0,.87.76.23,2.6-.48,5.6-.54,2.33-.82,4.7-1.28,7a72.92,72.92,0,0,0-1.12,11.2c-.3,5.87,0,9.69,0,12.16.17,8.35-1.79,9.49-4.64,25a196.14,196.14,0,0,0-3,25.11c-.51,10.95.76,9.55-.16,14.88-.46,2.73-1.2,5.51.32,8,1.37,2.24,3.85,3.09,5.12,3.52a14.68,14.68,0,0,0,8.8,0,46.57,46.57,0,0,0,8.32-3.68c1.92-1,3.27-1.82,4-1.28s.47,1.71.16,3.84c-.41,2.87-.92,3.08-1,4.8,0,.59-.08,3.77,1.76,5,.94.6,1.55.17,3,.64,2,.62,1.94,2.27,3.36,2.4.79.07.86-.37,2.51-.64a12.15,12.15,0,0,1,2.34-.11c2.67,0,3.17.46,4,0a3.14,3.14,0,0,0,1.28-2.24c0-.51,0-1.54-2.35-4.37-2.1-2.52-2.6-2.33-3.41-3.84a30.09,30.09,0,0,1-1.17-4.37c-.61-2.54-.73-3.41-.22-4a12.72,12.72,0,0,1,1.6-1c1.48-.84,1.69-1,1.92-.86.46.18.49,1,.64,2.56,0,0,.21,2.14.54,4.27s.49,3.21,1.06,3.73c.9.82,1.66.28,3.52,1.28,1.13.61,1.07.92,2,1.39a7.44,7.44,0,0,0,4,.53c2.46-.13,4.22-.22,5.33-1.6a3.79,3.79,0,0,0,.74-3.52c-.46-1.19-1.48-1.08-4.15-3s-3-3-3-3.31a12.47,12.47,0,0,1,.43-2.35c.36-1.88.34-2,.53-2.24.79-.85,2.68,0,4.91.54,2.58.59,2.51,0,8.21.21,1.87.08,3.81.26,7.68.64,5.73.56,6.94.83,8.64,0a8.42,8.42,0,0,0,3.73-3.95c1.7-3.8-.33-7.7-2.35-12.8-2.13-5.38-3.24-11.12-5-16.63-3.48-10.86-2.8-10.44-5.55-19-4-12.54-5.21-12.64-10.88-29.11-5.78-16.82-3.74-14.4-5.44-17.28-.88-1.51-3-4.84-1.81-6.62a2.31,2.31,0,0,1,2.45-.95c1,.37,1.09,1.81,1.39,3.09.47,2,1,2.14,3.52,6.61,3.89,6.87,2.79,6.74,5.33,10.45s3.82,4.05,4.59,6.83,0,3.93,1.28,5.65c1.71,2.37,5,2.62,5.65,2.67.33,0,5,.29,7.57-3.2a5.36,5.36,0,0,0,1.39-3.63c-.25-2.94-3.89-3.35-4.48-6.61-.31-1.72.63-2,.64-4.48,0-1.79-.48-3.3-1.92-6.19-3.29-6.58-5.76-8.7-5-9.81s3.1.67,7-.27c2.14-.51,3.51-1.57,6.24-3.67,3.53-2.72,5.39-4.16,6.72-6.56,2.11-3.81,1.64-7.75,1.28-10.4-.8-6-3.18-9-8.16-17.6-1.72-3-5.53-9.73-8.95-17-4.06-8.56-3.47-9.16-7.52-17.76-2.87-6.06-5.34-11.31-9.76-17.59A86.82,86.82,0,0,0,106.27,26c-6.06-5.35-9.09-8-14.24-9.6a29.22,29.22,0,0,0-17.44.32c-6.73,2.28-11.47,7.76-21,18.72a81.23,81.23,0,0,0-8.8,11.67,79,79,0,0,0-6.56,14.56A102.76,102.76,0,0,0,34.6,74.29a77.82,77.82,0,0,0-2.08,17.92c0,3.76.31,3.16.32,7,0,7.41,0,12-1.92,17C29.09,120.86,26.82,122.65,26.6,127.41Z"/><path class="cls-2" d="M65.36,132.55c-10.72,0-12.87-2.18-25.24-1.61-6.21.3-8.56,1-10-.53C27,127.07,35,120,36.6,107.21c1-7.93-1.73-7.5-1.57-17.31.26-15.78,8.29-32.54,16.57-46.18A73.82,73.82,0,0,1,64.18,27.65a43.26,43.26,0,0,1,14.67-9.14c4.68-1.67,9.66-.63,14,1.49,9.07,4.43,15.57,12.58,21.62,19.93,14.62,17.72,8,20.07,25.83,49.79,6.72,11.19,13.74,21,9.59,29.62-2.35,4.89-7.43,7.65-7.83,7.85-5.78,3.06-11.41,2.07-18.59,1.43a208.16,208.16,0,0,0-35,.54C74.57,130.56,75.52,132.53,65.36,132.55Z"/><path class="cls-3" d="M68.94,93.07A42.57,42.57,0,0,0,81.32,77.52c2.3-5.13,1.92-7.51,1.47-8.83-.9-2.69-3.18-2.73-5.45-6.87A14.19,14.19,0,0,1,75.48,56c-.07-1.21.06-2,.78-5.14,2-8.45,2.66-9.65,3.93-10.27a5.6,5.6,0,0,1,3.34-.29c.87.11,9,2.27,11.88,10.28.16.44,2.72,7.9-.78,12.39-.88,1.14-1.63,1.41-2.41,2.93-1.61,3.14-.7,6.55-.44,7.56.7,2.67,2,3.74,5,7.71,3.95,5.2,5.91,7.81,5.6,9.1-.6,2.49-7,4.56-31.53,3.37"/><path class="cls-4" d="M107.44,85.78A76,76,0,0,1,102,73.45c-5.15-15-3-24-10.37-31-1.33-1.27-4.81-4.54-8.45-3.82-6.27,1.22-8.6,13.37-9,15.68C72,65.09,75.83,69.4,73,77.76a26.94,26.94,0,0,1-7.83,11.35"/><path class="cls-5" d="M43.67,162.72a1.81,1.81,0,0,0-.14.41c-.52,1.92-1.45,3-2.73,5.85-1,2.21-1,2.68-.88,3a3.8,3.8,0,0,0,2.13,2.13,8,8,0,0,0,4.79.67c1.54-.13,2.5-.21,3.1-1a4,4,0,0,0,.51-2.65,8.13,8.13,0,0,0-.37-2.28c-1.56-5-1.12-7.41-2.65-8A3.52,3.52,0,0,0,43.67,162.72Z"/><path class="cls-5" d="M131.07,151.86a2,2,0,0,0,0,.43c.21,2-.26,3.36-.45,6.44-.15,2.43.06,2.85.26,3.14a3.81,3.81,0,0,0,2.76,1.22,8,8,0,0,0,4.71-1.09c1.39-.67,2.25-1.09,2.54-2a3.9,3.9,0,0,0-.47-2.66,8.15,8.15,0,0,0-1.16-2c-3.26-4.1-3.71-6.51-5.33-6.47A3.49,3.49,0,0,0,131.07,151.86Z"/><path class="cls-5" d="M82.72,235.06c-.86,2.91,1.9,4.1,2.51,8.77.69,5.33-2.31,8.43-.52,10.16,1.37,1.34,3.48-.16,5.89,1.77a6.56,6.56,0,0,0,2,1.38,1.05,1.05,0,0,0,.43.07,1.9,1.9,0,0,0,.38-.13,6,6,0,0,1,3.41-.44,2.82,2.82,0,0,0,.76.09c2.27-.11-.62-4-1.23-4.66-1.28-1.3-3-2.06-4.21-3.38-1.58-1.69-.86-3.95-.88-7.44,0-.77-.07-9.17-3-10.16C86.46,230.48,83.45,232.56,82.72,235.06Z"/><path class="cls-5" d="M98,231.31c-.92,1.81,1.2,2.72,1.9,6.71a20.06,20.06,0,0,1,.12,4.14c-.09,3-.49,3.84.14,4.47,1,1,2.75-.47,4.3.69a5.65,5.65,0,0,0,2.47,1.32,10.22,10.22,0,0,0,1.8-.22,10.1,10.1,0,0,0,2.11-.42l.07-.05c.09-.06,1.15-.75,1.26-1.24s-.92-1.19-3.06-2.6a26,26,0,0,1-2.64-1.88c-1.45-1.39-.58-3-.38-5.58,0-.57.55-6.78-2.32-7.78C102,228.26,98.85,229.53,98,231.31Z"/><path class="cls-5" d="M86.07,52.6c1.27,3.23,1.1,4.34.63,4.72-.23.18-.55.2-.83.54a2.22,2.22,0,0,0-.19,1.91"/><path class="cls-5" d="M82,48.13c0,.11-.64,1.32-1.69,1.32a2,2,0,0,1-1.52-1"/><path class="cls-5" d="M92.2,46.37c0,.11-.64,1.31-1.69,1.32a2,2,0,0,1-1.52-1"/><path class="cls-6" d="M61.39,243.54c3,2.35,7.44,1,11-.59,6.31-2.73,12.59-5.61,19.2-7.51a69.76,69.76,0,0,1,33-1.35c2.55.52,5.13,1.18,7.72.93s5.26-1.62,6.2-4.05a9.55,9.55,0,0,0,.08-5.17c-1.31-7.19-3.92-14.06-6.44-20.91q-14.4-39.16-25.67-79.4c-1.08-3.86-2.15-7.85-1.66-11.82A167.25,167.25,0,0,1,124.25,148c1.55,3.66,4,8.08,8,7.72,3.09-.28,5.1-3.67,5.08-6.77s-1.5-6-2.77-8.81c-6.59-14.73-8.37-31.42-16.28-45.47-2-3.47-4.44-6.88-8.07-8.49-3.38-1.5-7.25-1.23-10.93-.92-9.44.78-19.14,1-28.5,2.36-5.22.77-13.38,2.85-14.12,9.2-.35,3,.48,5.94.38,8.91-.17,5.1-3,9.65-5.25,14.23-6.15,12.58-8.1,26.73-10,40.6-.25,1.87-.35,4.12,1.17,5.23,1.37,1,3.41.4,4.56-.84a10.69,10.69,0,0,0,2.09-4.57,384.65,384.65,0,0,1,17.5-49.2c-3.55,7.61,2.81,16.16,2.82,24.56,0,3.66-1.22,7.19-1.94,10.78-1.25,6.27-1,12.72-1.19,19.11-.74,23.17-7.79,45.81-8.22,69C58.52,237.78,58.8,241.46,61.39,243.54Z"/><path class="cls-5" d="M94.75,252.39,97,255.58"/><path class="cls-5" d="M92.57,254.23,94.49,256"/><path class="cls-5" d="M91.37,254.48l1.92,1.79"/><path class="cls-5" d="M93.53,253.45c.56.76,1.13,1.52,1.69,2.29"/><path class="cls-5" d="M107.48,244.2l3,2.49"/><path class="cls-5" d="M105.86,246.55l2.32,1.22"/><path class="cls-5" d="M106.58,245.54l2.23,1.76"/></svg>