<svg id="Capa_1" data-name="Capa 1" xmlns="http://www.w3.org/2000/svg" xmlns:xlink="http://www.w3.org/1999/xlink" viewBox="0 0 326.65 273.85"><defs><style>.cls-1{fill:#fff;}.cls-13,.cls-16,.cls-17,.cls-18,.cls-2,.cls-3,.cls-4,.cls-5,.cls-6{stroke:#000;}.cls-12,.cls-13,.cls-16,.cls-17,.cls-18,.cls-2,.cls-3,.cls-4,.cls-5,.cls-6{stroke-miterlimit:10;stroke-width:0.75px;}.cls-2{fill:url(#Degradado_sin_nombre_49);}.cls-3,.cls-9{fill:gray;}.cls-4{fill:#666;}.cls-5{fill:#4d4d4d;}.cls-6{fill:#999;}.cls-7{fill:#633011;}.cls-8{opacity:0.48;}.cls-10{fill:#452f27;}.cls-11{fill:#1c2086;}.cls-12,.cls-16{fill:none;}.cls-12{stroke:#fff;}.cls-13{fill:#333;}.cls-14{fill:#80bf1f;}.cls-15,.cls-17{fill:#beac83;}.cls-18{fill:#6a1580;}</style><radialGradient id="Degradado_sin_nombre_49" cx="-76.47" cy="-1392.28" r="102.51" gradientTransform="matrix(0.83, 0.72, -0.73, 0.85, -790.08, 1345.3)" gradientUnits="userSpaceOnUse"><stop offset="0.41" stop-color="#1c2086"/><stop offset="0.58" stop-color="#1d2388"/><stop offset="0.73" stop-color="#202e8c"/><stop offset="0.87" stop-color="#254094"/><stop offset="1" stop-color="#2b589f"/></radialGradient></defs><title>leyendas 2 del mapa</title><path class="cls-1" d="M25.37,166.13c.93-.93,2.82-.91,6.6-.88,4.05,0,6.07.64,10.56,1.32,4.77.72,11.76,1.78,12.32.22.27-.74-1.23-1.23-2.42-3.3-2.6-4.52-.16-10.41.44-11.88.89-2.16,1.79-4.33,4-5.94,5.15-3.81,11,.36,14.3-3.08,1.36-1.42.59-2.36,1.76-7.92,1-5,1.83-8.7,4.18-11.87,4.27-5.79,10.55-5.49,10.78-9.24.08-1.37-.75-1.38-2.42-5.72-1.18-3.08-1.77-4.61-1.76-6.6,0-3.54,1.86-6.17,3.08-7.92,1.44-2.07,2.91-4.18,5.5-5.06,1.47-.51,2.07-.19,8.58,1.1,6.81,1.35,7.92,1.36,11.21,2.42,2.74.88,2.57,1.07,4,1.32,1.1.2,6.57,1,10.12-2,2.61-2.22,1.36-4.12,4-7.26,1.44-1.73,2.87-2.43,8.58-4.84,10.31-4.36,9.71-3.82,12.76-5.28,7.45-3.57,8-5.31,11.72-5.44s6.78,1.56,10.06,3.46a48.8,48.8,0,0,1,10.56,8.74c3.24,3.49,3.79,5,5.61,5.12,2.63.2,4.06-2.73,8.08-6.27,3.55-3.12,6.74-4.63,10.56-6.44,5.82-2.75,8.94-2.55,18.64-4.45a135.07,135.07,0,0,0,16.83-4.12c5.08-1.72,6.55-2.94,29.87-18C279,42.73,285.05,39.84,290.5,36c5.87-4.18,9.35-7.38,13-6.27,2.18.65,3.49,2.8,6.1,7.09,3.05,5,4.94,8.12,4.13,11.72-.7,3.08-3,4.94-5.28,6.76-4,3.18-7.23,3.85-11.39,5.45-3.79,1.45-7.47,3.77-14.85,8.41-8.82,5.56-9.47,7.06-16.33,10.89a97.59,97.59,0,0,1-12.37,5.77c-11.26,4.48-13.87,3.55-27.39,7.76a102.4,102.4,0,0,0-22.44,9.73c-8,4.73-11,8.09-11.88,12-.11.49,0,.23.17,8.74.13,6.1.12,8.23.66,11.55s.83,5.19,1.81,6.76c2,3.25,4.93,3.79,9.08,6.11a45.61,45.61,0,0,1,10.23,8.41c3.26,3.61,8.6,9.52,7.91,17-.44,4.77-3.15,8.13-5.11,10.55-2.46,3.05-5.58,6.91-10.06,7.26-2.36.19-4.68-.62-5.43.57-.52.81.26,1.67.15,3.23-.15,2-1.62,3.42-3,4.62a93,93,0,0,1-13.15,9.45c-4.9,2.84-7.35,4.26-9.13,5.07-3.24,1.48-4.8,1.86-6.76,3.63-2.86,2.57-2,3.91-4.29,6.1-3.41,3.2-8.72,3.52-13.2,3.8s-6.29-.36-7.26,1c-1.42,2,1.69,4.82.33,7.75-1.2,2.6-5,3.23-7.42,3.63-2.09.35-6.92,1.14-10.56-1.65-2.23-1.71-3.08-4.16-4.79-9.07-2.14-6.18-1.76-8.63-3.63-9.41-1.64-.69-2.76.87-7.75,3-3.59,1.51-7.18,3-11.38,2.64-1.26-.11-6.47-.58-8.58-4.12-1.77-3,.39-5.1-1.32-7.26-2-2.56-5.65-.29-11.33-3a11.89,11.89,0,0,1-5.5-4.29c-2.93-4.78.83-9.58-1.65-12.1-1.4-1.42-3.14-.46-9.46-.11-7.34.4-6.34-.82-16.83-.88-5.27,0-7.47.26-9.79-1.43-2-1.47-2.79-3.48-3.63-5.72C26.34,174.12,23.93,167.57,25.37,166.13Z"/><path class="cls-2" d="M304.61,32.82c-3.68-2.33-9.92,4-28.35,15.53-12.88,8-23.45,17.49-38.65,21.1C228.28,71.66,218.42,72,209.67,76c-13.41,6.13-21.55,20.83-35.17,26.2-10.65,4.2-22.89-.58-33.8,2.83-6.39,2-11.63,6.57-16.65,11-13.34,11.84-27.69,25.65-28.8,43.33-.59,9.28-5.23,9.32-13.21,8.13-9.33-1.39-18.8,1.35-28.24,2.09a66.54,66.54,0,0,1-22.19-2c-1.43-.37-3.47-.48-3.89,1a2.79,2.79,0,0,0,.29,1.78l6.4,16.13a7.74,7.74,0,0,0,2.57,3.9,7.67,7.67,0,0,0,3.65.89c18.86,1.39,38.13,1.44,56.47-3.66,5.26-1.46,10.59-3.36,16-2.86a18.26,18.26,0,0,1,14.84,10.8c1.14,2.67,1.87,5.91,4.43,7.25s5.61.15,8.25-1c13-5.85,26.19-12.17,36.44-22.18,8.53-8.32,15-19.79,15.25-31.83.29-11.64-6.37-23.61-1.59-35.1,2.34-5.63,7.23-9.87,12.5-12.94,13.14-7.67,28.5-9.28,42.73-13.83,14.64-4.69,25.3-15.34,38.79-22.38,13.74-7.17,27-11.87,26.49-17.39-.11-1.2-1.22-3.4-3.44-7.8C306,34.9,305.16,33.17,304.61,32.82Z"/><path class="cls-1" d="M111.43,165.22a2.1,2.1,0,0,1-.25-1.16.55.55,0,0,1,.41-.43,1.4,1.4,0,0,1,.61,0,1.85,1.85,0,0,1,1,.55,1.21,1.21,0,0,1,.27,1.15,1.92,1.92,0,0,1-1.76,1.43,2.73,2.73,0,0,1-2.18-.86,2.2,2.2,0,0,1-.37-2.29,2.84,2.84,0,0,1,1.64-1.7,3.66,3.66,0,0,1,2.38,0,4.36,4.36,0,0,1,1.94,1.39,4.06,4.06,0,0,1,.91,2.21,3.58,3.58,0,0,1-.62,2.31,5.16,5.16,0,0,1-4.11,2.22,6.4,6.4,0,0,1-4.39-1.74,5,5,0,0,1-1.68-4.39,6.44,6.44,0,0,1,2.49-4,6.27,6.27,0,0,1,4.6-1.2,9.87,9.87,0,0,1,4.46,1.71,7.76,7.76,0,0,1,3,3.76,7.35,7.35,0,0,1-.07,4.79,8.45,8.45,0,0,1-2.85,3.87,6.9,6.9,0,0,1-4.59,1.42,9.57,9.57,0,0,1-4.55-1.56,11.17,11.17,0,0,1-5.25-7.81,8.33,8.33,0,0,1,.81-4.78,9.62,9.62,0,0,1,3.29-3.56,12.41,12.41,0,0,1,9.3-1.82,9.71,9.71,0,0,1,4.34,2.15,12.06,12.06,0,0,1,3,3.8,10.51,10.51,0,0,1-.16,9.4,13.09,13.09,0,0,1-7,6.27,11.39,11.39,0,0,1-9.3-.53,12.84,12.84,0,0,1-5.85-7.22l.07,0a12.71,12.71,0,0,0,5.93,7,11,11,0,0,0,9,.38,12.51,12.51,0,0,0,6.65-6.09,10.11,10.11,0,0,0,1-4.41,10,10,0,0,0-1-4.39,11.25,11.25,0,0,0-2.8-3.56,8.86,8.86,0,0,0-4-2,11.65,11.65,0,0,0-8.73,1.72,8.73,8.73,0,0,0-3.07,3.26,7.57,7.57,0,0,0-.77,4.37,10.53,10.53,0,0,0,4.9,7.38,9.07,9.07,0,0,0,4.26,1.5,6.41,6.41,0,0,0,4.24-1.29,7.81,7.81,0,0,0,2.68-3.6,6.76,6.76,0,0,0,.09-4.46,7.14,7.14,0,0,0-2.76-3.54,9.35,9.35,0,0,0-4.24-1.66,5.85,5.85,0,0,0-4.31,1.09,6,6,0,0,0-2.36,3.78,4.71,4.71,0,0,0,1.54,4.09,6.17,6.17,0,0,0,4.15,1.68,4.89,4.89,0,0,0,3.9-2.06,3.3,3.3,0,0,0,.59-2.15,3.7,3.7,0,0,0-.84-2.09,4.12,4.12,0,0,0-1.83-1.33,3.4,3.4,0,0,0-2.25,0,2.66,2.66,0,0,0-1.55,1.58,2.06,2.06,0,0,0,.33,2.13,2.6,2.6,0,0,0,2.06.83,1.8,1.8,0,0,0,1.66-1.33,1.08,1.08,0,0,0-.23-1.05,1.65,1.65,0,0,0-1-.52c-.35-.07-.85,0-.92.38a2.09,2.09,0,0,0,.24,1.11Z"/><path class="cls-1" d="M73,172a56.18,56.18,0,0,0,11.38-.22c1.88-.24,3.73-.62,5.58-1s3.69-.83,5.56-1.27l0,.07a28.81,28.81,0,0,1-5.41,1.93,34.13,34.13,0,0,1-5.69.85,50.28,50.28,0,0,1-11.44-.3Z"/><path class="cls-1" d="M76.94,176.44a33,33,0,0,0,9.2-.11c1.51-.24,3-.63,4.48-1s2.94-.83,4.44-1.26l0,.07A19.48,19.48,0,0,1,90.82,176a22.52,22.52,0,0,1-4.6.88,30.12,30.12,0,0,1-9.29-.41Z"/><path class="cls-1" d="M80.83,181.51l5-.65c1.65-.19,3.31-.39,4.94-.7s3.26-.66,4.9-.93,3.28-.55,5-.73v.07a38.49,38.49,0,0,1-4.82,1.4c-1.63.37-3.3.57-5,.78s-3.32.37-5,.49l-5,.34Z"/><path class="cls-1" d="M85.85,186.53A65,65,0,0,0,95.28,185c1.55-.37,3.07-.84,4.6-1.24s3.06-.85,4.63-1.23l0,.07a27.84,27.84,0,0,1-4.44,1.87,34.4,34.4,0,0,1-4.69,1.12,55,55,0,0,1-9.56,1Z"/><path class="cls-1" d="M94.81,166.6a1.82,1.82,0,0,0,.32,1.3,1.46,1.46,0,0,0,.55.38,1.14,1.14,0,0,1,.51.57c.12.5.22.92.37,1.37a2.22,2.22,0,0,0,.27.6.86.86,0,0,0,.49.3l.35.09a.54.54,0,0,1,.38.37,1,1,0,0,1-.27.81c-.13.19-.18.35-.13.45s.22.16.45.26a1.48,1.48,0,0,1,1,1.26,1.2,1.2,0,0,0,.53,1c.31.24.8.29,1.28.72a1.36,1.36,0,0,1,.4.84,3.72,3.72,0,0,0,0,.66,1,1,0,0,0,.22.45,3.77,3.77,0,0,1,.52.56,1.93,1.93,0,0,1,.27.85c0,.31-.05.57,0,.69,0,.28.2.39.76.52a1.73,1.73,0,0,1,1.17,1.12,2,2,0,0,0,.68,1.09,5.38,5.38,0,0,0,1.12.82l0,.07a4.76,4.76,0,0,1-1.31-.62,3.29,3.29,0,0,1-.56-.5,2.43,2.43,0,0,1-.39-.67,1.23,1.23,0,0,0-.86-.69,2.56,2.56,0,0,1-.77-.22,1.17,1.17,0,0,1-.55-.84c0-.35,0-.55,0-.72a1.11,1.11,0,0,0-.17-.48,3.82,3.82,0,0,0-.44-.48,1.8,1.8,0,0,1-.37-.82,2.92,2.92,0,0,1,0-.75.69.69,0,0,0-.18-.41c-.21-.25-.71-.37-1.16-.7a1.81,1.81,0,0,1-.71-1.44,1,1,0,0,0-.64-.86c-.17-.1-.51-.15-.68-.53a.93.93,0,0,1,.2-.86c.14-.2.27-.39.24-.47s-.19-.12-.45-.2a1.31,1.31,0,0,1-.66-.46,2.4,2.4,0,0,1-.27-.71c-.13-.45-.22-1-.3-1.38a.91.91,0,0,0-.39-.48A1.9,1.9,0,0,1,95,168a2,2,0,0,1-.28-1.4Z"/><path class="cls-1" d="M96.3,166.35a1.82,1.82,0,0,0,.32,1.3,1.43,1.43,0,0,0,.56.38,1.18,1.18,0,0,1,.51.57,13,13,0,0,0,.37,1.37,1.94,1.94,0,0,0,.26.6,1,1,0,0,0,.49.3l.35.09a.54.54,0,0,1,.38.36,1,1,0,0,1-.27.81c-.13.2-.18.36-.13.46s.22.16.45.26a1.47,1.47,0,0,1,1,1.26,1.2,1.2,0,0,0,.53,1c.31.24.81.29,1.28.71a1.39,1.39,0,0,1,.4.85,5.11,5.11,0,0,0,0,.66,1.12,1.12,0,0,0,.22.45,3.3,3.3,0,0,1,.52.56,2,2,0,0,1,.28.84c0,.31-.05.58,0,.7,0,.28.2.39.76.52a1.73,1.73,0,0,1,1.17,1.12,2,2,0,0,0,.68,1.09,5.38,5.38,0,0,0,1.12.82l0,.07a5,5,0,0,1-1.3-.62,3.85,3.85,0,0,1-.57-.5,2.71,2.71,0,0,1-.39-.67,1.23,1.23,0,0,0-.86-.69,2.51,2.51,0,0,1-.76-.22A1.15,1.15,0,0,1,103,180c0-.36,0-.55,0-.72a1.11,1.11,0,0,0-.17-.48,3.82,3.82,0,0,0-.44-.48,1.85,1.85,0,0,1-.37-.82,2.92,2.92,0,0,1,0-.75.69.69,0,0,0-.18-.41c-.21-.25-.71-.37-1.15-.7a1.8,1.8,0,0,1-.72-1.44,1,1,0,0,0-.64-.86c-.17-.11-.51-.15-.68-.53a.92.92,0,0,1,.2-.86c.15-.2.27-.39.24-.47s-.19-.13-.45-.2a1.27,1.27,0,0,1-.66-.47,2.25,2.25,0,0,1-.27-.7c-.13-.45-.22-1-.3-1.38a.94.94,0,0,0-.39-.49,1.75,1.75,0,0,1-.58-.45,2,2,0,0,1-.28-1.4Z"/><path class="cls-1" d="M97.62,165.78a1.88,1.88,0,0,0,.33,1.3,1.46,1.46,0,0,0,.55.38A1.18,1.18,0,0,1,99,168c.12.5.22.92.37,1.37a2.21,2.21,0,0,0,.26.6.92.92,0,0,0,.5.3l.35.09a.53.53,0,0,1,.37.37c.08.41-.17.62-.26.81s-.19.35-.13.45.21.16.45.26a1.51,1.51,0,0,1,1,1.26,1.19,1.19,0,0,0,.52,1,8.18,8.18,0,0,1,1.29.72,1.36,1.36,0,0,1,.4.84,3.72,3.72,0,0,0,0,.66,1,1,0,0,0,.22.45,3.34,3.34,0,0,1,.51.56,1.79,1.79,0,0,1,.28.85c0,.3,0,.57,0,.69,0,.28.2.39.75.52a1.76,1.76,0,0,1,1.18,1.12,2,2,0,0,0,.68,1.09,5.13,5.13,0,0,0,1.12.82l0,.07a4.63,4.63,0,0,1-1.31-.62,3.29,3.29,0,0,1-.56-.5,2.2,2.2,0,0,1-.39-.67,1.25,1.25,0,0,0-.86-.69,2.48,2.48,0,0,1-.77-.22,1.21,1.21,0,0,1-.56-.84c0-.35,0-.55,0-.72a1.13,1.13,0,0,0-.18-.48,4.44,4.44,0,0,0-.43-.48,1.61,1.61,0,0,1-.37-.82,3.68,3.68,0,0,1,0-.75.67.67,0,0,0-.17-.41c-.21-.25-.72-.37-1.16-.7a1.75,1.75,0,0,1-.71-1.44,1,1,0,0,0-.65-.86c-.17-.11-.5-.15-.67-.53a.91.91,0,0,1,.2-.86c.14-.2.27-.39.23-.47s-.18-.12-.44-.2a1.27,1.27,0,0,1-.66-.46,2.44,2.44,0,0,1-.28-.71c-.12-.45-.22-1-.29-1.38a.89.89,0,0,0-.4-.48,1.86,1.86,0,0,1-.57-.45,2,2,0,0,1-.28-1.4Z"/><path class="cls-1" d="M44.07,175.71a30.42,30.42,0,0,0,8.16,3,15.1,15.1,0,0,0,8.48-.57c1.32-.53,2.62-1.24,4-1.76A27.53,27.53,0,0,1,69,175.09a29.09,29.09,0,0,1,8.77-.53v.07a43.35,43.35,0,0,0-8.6,1.19A42.1,42.1,0,0,0,65,177.05c-1.37.46-2.65,1.12-4.06,1.64a15.69,15.69,0,0,1-8.77.37A30.71,30.71,0,0,1,44,175.77Z"/><path class="cls-1" d="M59.33,183.47a22.46,22.46,0,0,0,5.37.1,10.2,10.2,0,0,0,4.91-1.75c.69-.51,1.31-1.2,2.09-1.74a7.6,7.6,0,0,1,2.56-1.16,9.56,9.56,0,0,1,5.46.39l0,.07a12.44,12.44,0,0,0-5.24.27,8.85,8.85,0,0,0-2.35,1c-.73.44-1.36,1.08-2.15,1.61a10.71,10.71,0,0,1-5.23,1.63,22.76,22.76,0,0,1-5.41-.39Z"/><path class="cls-1" d="M69.79,186.19c1.81.22,3.62.42,5.44.51.91.05,1.81.08,2.71,0a5.72,5.72,0,0,0,2.51-.51c.31-.24.33-.36.18-.88a1.21,1.21,0,0,1,.13-.9,1.53,1.53,0,0,1,.61-.6,6.31,6.31,0,0,1,2.83-.6,24.5,24.5,0,0,1,5.48.63V184c-1.83,0-3.65-.08-5.44.05a7,7,0,0,0-2.49.49c-.33.19-.52.39-.45.74a1.81,1.81,0,0,1,0,.8,1.2,1.2,0,0,1-.56.71,3.48,3.48,0,0,1-1.42.41,9.39,9.39,0,0,1-1.4.08c-.92,0-1.84-.07-2.75-.15-1.82-.2-3.63-.5-5.42-.82Z"/><path class="cls-3" d="M64.65,169.31c-2-.74-7-2.58-9-7.43a11.67,11.67,0,0,1-.7-5.51c.08-.77.64-5.49,4.25-8.16,1.49-1.1,2.78-1.32,6.78-1.9,7.39-1.08,11.08-1.62,12.62-1.76,6.28-.53,4.89,0,13.16-.45,5.81-.33,8.09-.7,8.77.54.78,1.42-1.66,2.8-2.88,7.78-.62,2.52-.21,3.05-1,7.22-.56,2.85-.84,4.28-1.3,5.09-.88,1.58-2.89,3.35-14.84,4.65C72.45,170.26,68.35,170.67,64.65,169.31Z"/><path class="cls-4" d="M98.52,145.55c-1.23.74-3.63,1.77-11.07.44-7.15-1.29-10.72-1.93-12.18-4.46-1.71-3-.27-6.69,1.46-11.16A29.16,29.16,0,0,1,86,117.56a23.69,23.69,0,0,1,11.76-5.41c2.38-.33,7.57-1.05,12,1.71,2.77,1.75,3.44,3.78,7.68,5.77,1.75.81,2.54.89,2.8,1.65.63,1.91-3.6,3.81-9,9.57-3.69,3.91-8.65,10.39-8.94,10.76C100.44,143.89,99.89,144.73,98.52,145.55Z"/><path class="cls-3" d="M101.34,114c-.63-2.74,1.82-5.5,5-9.1a24.9,24.9,0,0,1,8.87-6.66c3.74-1.6,4-.5,7.6-2.17,4.72-2.21,5.71-4.86,8.39-4.52,1.29.16,2.39,1.21,4.58,3.32,1.71,1.66,1.72,2.09,4.65,5.68,2.7,3.3,3.35,3.75,3.18,4.66-.19,1.06-1.33,1.71-6.08,3.73-5.69,2.42-5.29,2-6.37,2.61-5.71,3.17-5.34,8.07-9.89,9.56-1.53.51-3.16.18-6.42-.48C109.52,119.56,102.28,118.11,101.34,114Z"/><path class="cls-5" d="M107.31,125.73c5,.52,7.42.79,9.58.3,2.58-.58,10.73-2.41,12.59-8.34.12-.38,1.29-4.32-1-7.07a6.76,6.76,0,0,0-4.28-2.22c-.74-.09-2.68-.21-7.7,2.91-2.94,1.82-6.36,4-9.11,8.1-.82,1.23-2.8,4.18-1.82,5.57A2.3,2.3,0,0,0,107.31,125.73Z"/><path class="cls-6" d="M190.15,92.49c.21-1.9-1.22-2.89-7.36-8.74-5.55-5.29-7.43-7.39-11.65-10.08-2.41-1.54-3.65-2.31-5.27-2.53-4-.54-5.76,2-11.54,4.71-6.7,3.09-8.1,1.38-15.21,4.93-3.81,1.91-6.89,3.5-7.49,6.36-.32,1.53.25,2.57,3.54,8,5.71,9.34,6.83,10.84,9.06,11.56,2,.65,3,0,7-.57,10.21-1.61,11,1.17,18.26-.42,4.72-1,8-3.16,14.69-7.4C189.18,95.07,190,93.76,190.15,92.49Z"/><path class="cls-3" d="M190,142.6c1-.37,1.81.15,9.79,6.11,6,4.51,9,6.76,9.5,7.21,3.47,3.42,10.41,10.27,9.14,18.56-1,6.67-6.84,10.89-8.92,12.4s-5.15,3.74-9.25,4c-4.46.27-8.19-2.48-15.65-8-5.75-4.23-6.35-5.71-6.44-6.93-.22-3.2,3.14-4.74,5.94-8.39C191.81,157.62,185.85,144.19,190,142.6Z"/><path class="cls-4" d="M169.8,180.53c2.8-3.89,3.19-6.06,5.68-6.75,1.19-.33,3.72-.56,14.16,8.54,6.54,5.7,9.81,8.61,9.67,11.41-.17,3.53-3.58,6-10.18,10.81a46.06,46.06,0,0,1-11.34,6.4c-4.14,1.57-5.43,1.3-8.42,3-4.27,2.46-3.76,4.23-7.54,7.17-4.51,3.51-6.26,1.78-21.29,6.42-2.17.66-2.94.95-4.09.69C131,227,127.26,215.84,130.29,207a16.24,16.24,0,0,1,4.33-6.91c4.62-4.25,8.3-2.08,15.93-4.81A43,43,0,0,0,169.8,180.53Z"/><path class="cls-7" d="M161.72,188.46a17,17,0,0,1,1,7.9,16.49,16.49,0,0,1-2.81,7.49,3.58,3.58,0,0,0-.09,3.52c.49,1.19,1.1,2.39,1.65,3.59a25.47,25.47,0,0,0,4.29,6.6l0,.06a19.14,19.14,0,0,1-2.79-2.9,23.28,23.28,0,0,1-2.12-3.43,36.84,36.84,0,0,1-1.67-3.66,5.79,5.79,0,0,1-.4-2.08,3.51,3.51,0,0,1,.68-2,16,16,0,0,0,2.94-7.21,16.67,16.67,0,0,0-.7-7.83Z"/><path class="cls-5" d="M75.61,206.52c4.15,4,10.31,3.46,15,3A48.05,48.05,0,0,0,108,204.13a44.12,44.12,0,0,1-6.42,2.73c-4.25,1.5-6.64,1.85-8.62,4.21a5.79,5.79,0,0,0-1.3,2.17c-1,3.45,2.13,8.19,6,9.57,4.06,1.45,8.53-1,12.75-3.25,5.1-2.75,7.48-5.62,9.12-4.7,1,.58.77,2.06,1.3,5a29.67,29.67,0,0,0,3.39,9c2.11,4.09,4.42,8.54,8.94,9.77,3.08.84,7.37.24,8.79-2.2a5.89,5.89,0,0,0,.45-3.59c-.24-2.6-1.36-3.33-2.24-5.74-1.34-3.64.32-4.47-.89-8.45-.76-2.52-1.4-2.14-2.95-5.6-1.63-3.66-1.32-5-2.59-8.59-.31-.86-.75-2-4.16-7.82-4-6.85-6-10.29-7.43-11.34-.4-.29-5.63-4.05-11.7-2.76-2.82.6-2.93,1.67-6.13,3-5.38,2.18-7.36.06-15.37.9-4.74.5-9.74,1-13.37,4.82a11.35,11.35,0,0,0-3.39,7.46A10.85,10.85,0,0,0,75.61,206.52Z"/><g class="cls-8"><path class="cls-9" d="M123,208.05a26.31,26.31,0,0,1-6.72-4.39,15.13,15.13,0,0,1-4.47-6.71l-.24-1c-.07-.34-.09-.68-.13-1a12.32,12.32,0,0,1,.9-6,3,3,0,0,1,1.48-1.41,3.1,3.1,0,0,1,2,0,13.82,13.82,0,0,1,3.57,1.87,11.22,11.22,0,0,1,2.92,2.83,31.36,31.36,0,0,1,2.09,3.45c.32.59.63,1.19.9,1.82a5.4,5.4,0,0,1,.52,2.08,3,3,0,0,1-.9,2,4,4,0,0,1-1.87,1.11,5.16,5.16,0,0,1-4.1-.82,8.64,8.64,0,0,1-2.83-3,7.44,7.44,0,0,1-.75-1.93,2.6,2.6,0,0,1,0-1.08A1.42,1.42,0,0,1,116,195a2.83,2.83,0,0,1,2.07-.21,6.58,6.58,0,0,1,1.87.74l0,.07A6.71,6.71,0,0,0,118,195a2.78,2.78,0,0,0-1.82.29,1.43,1.43,0,0,0-.31,1.61,7.57,7.57,0,0,0,.79,1.74,7.93,7.93,0,0,0,2.69,2.68,4.63,4.63,0,0,0,3.52.7,2.9,2.9,0,0,0,2.2-2.43,9.09,9.09,0,0,0-1.26-3.56c-1.22-2.35-2.46-4.73-4.62-6.28a12.4,12.4,0,0,0-3.42-1.95,2.88,2.88,0,0,0-1.88,0,2.71,2.71,0,0,0-1.33,1.32,8.7,8.7,0,0,0-.75,3.82,10.65,10.65,0,0,0,.14,2c.06.32.09.64.17,1l.27.93a16.16,16.16,0,0,0,4.28,6.47,33.39,33.39,0,0,0,6.35,4.75Z"/></g><g class="cls-8"><path class="cls-9" d="M103.36,194.72A34.79,34.79,0,0,1,90.68,198c-2.22.09-4.38-.2-6.55,0-1.09.05-2.17.18-3.26.3-.54.05-1.08.12-1.64.14a1.28,1.28,0,0,1-.92-.22.49.49,0,0,1-.11-.33.67.67,0,0,1,.09-.26,2.12,2.12,0,0,1,.26-.38,10.41,10.41,0,0,1,2.75-1.9,11.71,11.71,0,0,1,3.17-1.11,54.11,54.11,0,0,1,6.57-.5c1.09,0,2.18-.09,3.27-.11a24.26,24.26,0,0,0,3.21-.22,19.74,19.74,0,0,0,6.08-2.16l0,.07a17.33,17.33,0,0,1-6,2.67,52.21,52.21,0,0,1-6.56.52l-3.26.16a28.34,28.34,0,0,0-3.22.27,12.22,12.22,0,0,0-3,.94,10.66,10.66,0,0,0-2.71,1.66c-.17.15-.32.43-.27.44a1.31,1.31,0,0,0,.65.14c.53,0,1.08,0,1.62-.08l3.26-.3c1.09-.09,2.18-.16,3.28-.2s2.17-.05,3.25-.16a54.7,54.7,0,0,0,12.69-2.74Z"/></g><g class="cls-8"><path class="cls-9" d="M112.75,206a49.57,49.57,0,0,1-4.83,2.67c-.83.38-1.69.72-2.5,1.15a23.47,23.47,0,0,0-2.34,1.46,11.4,11.4,0,0,1-2.46,1.39,7.58,7.58,0,0,1-2.82.52,9.29,9.29,0,0,1-5.28-1.85l0-.07a13.49,13.49,0,0,0,5.24,1.12,8.78,8.78,0,0,0,2.59-.38,22.18,22.18,0,0,0,2.48-1.08c.82-.41,1.64-.84,2.43-1.32l2.33-1.5a24.63,24.63,0,0,1,5.09-2.18Z"/></g><g class="cls-8"><path class="cls-10" d="M130.44,234.62c-.56-1.56-1-3.12-1.46-4.7-.19-.79-.34-1.6-.59-2.38a15.58,15.58,0,0,0-1-2.26c-1.52-2.91-3.1-5.72-4.6-8.67l.06,0a21.83,21.83,0,0,1,2.93,4,26.6,26.6,0,0,1,2,4.54c.26.79.51,1.57.82,2.33s.67,1.52,1,2.29a17.51,17.51,0,0,1,.94,4.87Z"/></g><g class="cls-8"><path class="cls-10" d="M126.65,216.81a15,15,0,0,0,3.18,5.83,7.34,7.34,0,0,0,2.73,1.88,4.87,4.87,0,0,0,1.62.36c.26,0,.59-.07.54-.18a1.74,1.74,0,0,0-.4-.62c-.77-.82-1.56-1.68-2.27-2.57a20.59,20.59,0,0,1-2-2.81,7.82,7.82,0,0,1-1-3.38,9.3,9.3,0,0,1,.41-3.45h.07a10,10,0,0,0,1.26,6.42c1.15,1.89,2.61,3.67,3.94,5.53a1.76,1.76,0,0,1,.4.87.46.46,0,0,1-.4.41,1.5,1.5,0,0,1-.47,0,7.65,7.65,0,0,1-1.7-.4,8.51,8.51,0,0,1-3.07-1.66,9.79,9.79,0,0,1-2.82-6.27Z"/></g><g class="cls-8"><path class="cls-9" d="M184.83,89.46a16.79,16.79,0,0,1-5.37-2.63l-2.31-1.89c-.77-.62-1.57-1.21-2.35-1.85a11.9,11.9,0,0,1-3.6-4.81,9.94,9.94,0,0,0-3.65-4.38l0-.06a7.9,7.9,0,0,1,4.35,4.1,14.53,14.53,0,0,0,1.34,2.57,18.75,18.75,0,0,0,1.82,2.28,14.28,14.28,0,0,0,2.21,2c.81.57,1.68,1,2.52,1.57,1.65,1.06,3.32,2.07,5,3.07Z"/></g><g class="cls-8"><path class="cls-9" d="M162.06,79.54a12.39,12.39,0,0,1,5.85,2.23,17.46,17.46,0,0,1,2.31,2.15,31,31,0,0,1,2,2.41,32.47,32.47,0,0,1,3.24,5.37,26.64,26.64,0,0,1,1.94,6l-.07,0c-.85-1.91-1.68-3.8-2.59-5.64s-1.88-3.67-2.86-5.49a11.1,11.1,0,0,0-1.85-2.46,14.65,14.65,0,0,0-2.49-1.81A29.32,29.32,0,0,0,162,79.61Z"/></g><g class="cls-8"><path class="cls-9" d="M169.66,95.93a12.34,12.34,0,0,1-1.8-2.87c-.21-.53-.38-1.08-.61-1.59a10.27,10.27,0,0,0-.86-1.47,27.53,27.53,0,0,1-1.73-2.91,20.32,20.32,0,0,1-1.26-3.17l.07,0a18.58,18.58,0,0,1,1.9,2.82,26.9,26.9,0,0,1,1.39,3.1,10.22,10.22,0,0,0,.7,1.54c.29.49.65.94.95,1.42a11.88,11.88,0,0,1,1.32,3.13Z"/></g><g class="cls-8"><path class="cls-9" d="M154.58,78.57c.75,1.82,1.43,3.63,2.08,5.46.31.92.59,1.86,1,2.75A19.3,19.3,0,0,0,159,89.35a28.3,28.3,0,0,1,2.72,5.24,24.49,24.49,0,0,1,1.44,5.72h-.07c-.69-1.84-1.36-3.65-2.11-5.44s-1.52-3.55-2.34-5.34c-.4-.89-.81-1.78-1.25-2.65s-.93-1.74-1.34-2.63a21.49,21.49,0,0,1-1.57-5.68Z"/></g><g class="cls-8"><path class="cls-9" d="M152.7,82.19a17.64,17.64,0,0,0-.06,3.7,28.66,28.66,0,0,0,.73,3.62,14.22,14.22,0,0,1,0,3.8,4.22,4.22,0,0,1-.52,1.84,1.87,1.87,0,0,1-.75.67,2.26,2.26,0,0,1-1,.21,7.71,7.71,0,0,1-3.62-1.29A11.76,11.76,0,0,1,146,93.51c-.46-.4-.93-.8-1.41-1.19a22.92,22.92,0,0,0-3-2.17,6.84,6.84,0,0,0-3.51-.81v-.07a6,6,0,0,1,3.77.36,17.19,17.19,0,0,1,3.2,2.07c.49.39,1,.8,1.44,1.24a12.2,12.2,0,0,0,1.34,1.21,8.55,8.55,0,0,0,3.26,1.47,1.54,1.54,0,0,0,1.5-.61,3.39,3.39,0,0,0,.5-1.72,12,12,0,0,0-.38-3.65,14.24,14.24,0,0,1-.69-3.72,10.51,10.51,0,0,1,.55-3.74Z"/></g><g class="cls-8"><path class="cls-9" d="M148.4,100.4c-.87-1-1.68-2-2.51-3A13.32,13.32,0,0,0,144.65,96a7.89,7.89,0,0,0-1.58-1.11A40.18,40.18,0,0,0,135.94,92v-.07a10.45,10.45,0,0,1,3.91.59,11.71,11.71,0,0,1,3.44,2c.5.43,1,.86,1.51,1.27s1.06.79,1.54,1.24a8.74,8.74,0,0,1,2.12,3.33Z"/></g><g class="cls-8"><path class="cls-9" d="M89.6,116.89a10.59,10.59,0,0,1,5.75-2,13.88,13.88,0,0,1,5.86,1.65l5.39,2.69,5.4,2.67,0,.07a29.92,29.92,0,0,1-5.72-2,41.37,41.37,0,0,1-5.24-3,7.44,7.44,0,0,0-5.63-1.39A22.72,22.72,0,0,0,89.63,117Z"/></g><g class="cls-8"><path class="cls-9" d="M96.78,133.94a20.83,20.83,0,0,1-4.37-1.07c-.7-.27-1.38-.6-2.09-.85a18.28,18.28,0,0,0-2.17-.58,22.41,22.41,0,0,0-4.31-.75,7.41,7.41,0,0,0-4.1,1.14l0-.05a5.56,5.56,0,0,1,4.15-1.89A11.94,11.94,0,0,1,88.27,131a16.72,16.72,0,0,0,2.12.75c.73.2,1.47.31,2.2.49a21.42,21.42,0,0,1,4.21,1.59Z"/></g><g class="cls-8"><path class="cls-9" d="M65.57,149.7a6.6,6.6,0,0,1,2.29-.15,10.66,10.66,0,0,0,1.13.19,4,4,0,0,0,1.14-.13,19.45,19.45,0,0,1,2.24-.39,11.78,11.78,0,0,1,2.3,0l0,.07a7,7,0,0,1-2.22.72,9,9,0,0,1-2.32,0A6.35,6.35,0,0,0,69,150c-.39,0-.77.14-1.16.19a4.9,4.9,0,0,1-2.28-.4Z"/></g><g class="cls-8"><path class="cls-9" d="M69.78,156a12.59,12.59,0,0,1,5.33-.9c1.82.16,3.56.65,5.34.86a29.3,29.3,0,0,0,5.27.35,43.53,43.53,0,0,0,5.3-.44l0,.07a15.7,15.7,0,0,1-5.29,1.17,16.51,16.51,0,0,1-5.38-.74,15.18,15.18,0,0,0-2.61-.61,14.77,14.77,0,0,0-2.66,0c-1.76,0-3.51.16-5.3.34Z"/></g><g class="cls-8"><path class="cls-9" d="M75.62,161.14a19.73,19.73,0,0,1-4.21.77c-.72,0-1.44,0-2.15.06a15.25,15.25,0,0,0-2.11.36,8.65,8.65,0,0,1-4.38.1,7.48,7.48,0,0,1-3.65-2.38l.05-.05A13.34,13.34,0,0,0,63,161.66a13,13,0,0,0,4.11.26,19.11,19.11,0,0,0,2.14-.19c.7-.11,1.4-.3,2.1-.44a19.74,19.74,0,0,1,4.28-.23Z"/></g><path class="cls-1" d="M132.35,181.22a32.92,32.92,0,0,0,26-7.68,29.41,29.41,0,0,0,8.19-11,27.49,27.49,0,0,0,2-13.62h.07a25,25,0,0,1-1.4,13.91,27.27,27.27,0,0,1-3.55,6.15,31.18,31.18,0,0,1-5,5.05,34.1,34.1,0,0,1-12.42,6.53,33.58,33.58,0,0,1-14,.77Z"/><path class="cls-11" d="M164.91,152.36a20.41,20.41,0,0,1-5.18,12.33,21.35,21.35,0,0,1-9.85,5.83,25.12,25.12,0,0,1-8.85,1.1"/><path class="cls-1" d="M165,152.37a21.2,21.2,0,0,1-2.15,8.25,19.33,19.33,0,0,1-5.46,6.63A23.14,23.14,0,0,1,141,171.66v-.08a29.18,29.18,0,0,0,8.34-1.3,25.25,25.25,0,0,0,7.61-3.51,18.63,18.63,0,0,0,5.48-6.32,20.8,20.8,0,0,0,2.41-8.09Z"/><path class="cls-11" d="M154.49,158.05a15.06,15.06,0,0,1-7.22,6.36,14.28,14.28,0,0,1-5.69,1"/><path class="cls-1" d="M154.52,158.07a15,15,0,0,1-5.32,5.72,11.36,11.36,0,0,1-3.66,1.58,10.36,10.36,0,0,1-4,.1v-.07a23.09,23.09,0,0,0,3.77-.76,18.18,18.18,0,0,0,3.55-1.36,15.67,15.67,0,0,0,5.56-5.24Z"/><path class="cls-1" d="M139.05,190.92q4.62-2.08,9.39-3.79c1.6-.56,3.21-1.08,4.81-1.6a12.25,12.25,0,0,0,4.35-2.31,19.42,19.42,0,0,0,3.3-3.7c1-1.36,1.92-2.76,2.88-4.14,1.94-2.75,3.72-5.6,5.5-8.47l.07,0a69.81,69.81,0,0,1-4.95,8.86c-.93,1.4-1.87,2.81-2.9,4.16a19.78,19.78,0,0,1-3.53,3.73,13.33,13.33,0,0,1-2.17,1.39,15.21,15.21,0,0,1-2.4.92c-1.62.49-3.23,1-4.83,1.49q-4.81,1.56-9.49,3.5Z"/><path class="cls-1" d="M186.37,133.49a44.67,44.67,0,0,0-2.22,9.23,37.44,37.44,0,0,0-.31,4.73,43,43,0,0,1-.11,4.8,10.16,10.16,0,0,1-1.72,4.57,36.73,36.73,0,0,1-3.33,3.46,19.57,19.57,0,0,0-4.39,8.22h-.07a16.78,16.78,0,0,1,3.9-8.71c1.07-1.25,2.41-2.16,3.29-3.39a9.5,9.5,0,0,0,1.72-4.22,41,41,0,0,0,.22-4.73,38.08,38.08,0,0,1,.43-4.77,44.38,44.38,0,0,1,2.52-9.21Z"/><path class="cls-1" d="M156.09,112.67a32.36,32.36,0,0,0,14.29.09,32.7,32.7,0,0,0,12.8-6.25,66,66,0,0,0,5.53-4.59c1.77-1.61,3.43-3.36,5.2-5a56.18,56.18,0,0,1,5.67-4.55c2-1.39,4.12-2.53,6.18-3.78l0,.07-3,2c-1,.67-2,1.34-2.94,2.09a59.25,59.25,0,0,0-5.46,4.67c-1.75,1.64-3.42,3.38-5.21,5a70.48,70.48,0,0,1-5.69,4.52,33.18,33.18,0,0,1-13.07,6.14,32.51,32.51,0,0,1-14.39-.39Z"/><path class="cls-12" d="M246,80.28A43.89,43.89,0,0,0,231.84,79a36.55,36.55,0,0,0-10.93,2.54c-3.56,1.47-7.56,3.85-7.2,4.59.44.91,4.91,1,7.95-1.06,1.52-1.06,2.82-2.78,2.44-3.26s-3.65.92-4.29,1.23c-.22.1-3.89,1.89-3.6,2.51.19.41,2.17.34,3.64-.53a4.76,4.76,0,0,0,1.77-1.89"/><path class="cls-1" d="M234.06,82.14a30.64,30.64,0,0,0,8.68,1,20,20,0,0,0,8.4-2.08,18.61,18.61,0,0,0,6.36-5.8,10,10,0,0,0,1-1.88,6.22,6.22,0,0,0,.32-1,4.38,4.38,0,0,0,.07-1,3.09,3.09,0,0,0-.67-1.87,4.72,4.72,0,0,0-1.64-1.24,10.23,10.23,0,0,0-8.24-.11,3.28,3.28,0,0,0-1.49,1.24,2.36,2.36,0,0,0-.21,1.85,5,5,0,0,0,2.54,3,3.71,3.71,0,0,0,1.92.44,4.35,4.35,0,0,0,1.93-.59,1.88,1.88,0,0,0,1-1.51,2.49,2.49,0,0,0-.73-1.77,2.22,2.22,0,0,0-1.79-.71,2.47,2.47,0,0,0-1.77.86.68.68,0,0,0,.07.84,2,2,0,0,0,.81.63.9.9,0,0,0,1-.05,1.5,1.5,0,0,0,.35-1H252a1.6,1.6,0,0,1-.33,1.07,1.08,1.08,0,0,1-1.13.14,2.19,2.19,0,0,1-.94-.65,1.24,1.24,0,0,1-.28-.56.91.91,0,0,1,.13-.63,2.82,2.82,0,0,1,2-1.11,2.67,2.67,0,0,1,2.19.77,2.93,2.93,0,0,1,1,2.16,2.52,2.52,0,0,1-1.25,2,5,5,0,0,1-2.22.73,4.4,4.4,0,0,1-2.32-.46,5.69,5.69,0,0,1-2.92-3.53,3.07,3.07,0,0,1,.29-2.4A4,4,0,0,1,248,67.41a10.84,10.84,0,0,1,8.82.24,5.35,5.35,0,0,1,1.82,1.43,3.74,3.74,0,0,1,.77,2.2,5.53,5.53,0,0,1-.1,1.15,7.73,7.73,0,0,1-.36,1.09,10.51,10.51,0,0,1-1.09,2,19,19,0,0,1-6.58,5.85,20.25,20.25,0,0,1-8.57,2,30.49,30.49,0,0,1-8.71-1.1Z"/><path class="cls-1" d="M295.21,46a17.84,17.84,0,0,0-9.06,2.27,10.7,10.7,0,0,0-3.35,3.21,24.8,24.8,0,0,1-3,3.77,28,28,0,0,1-3.64,3.15c-1.31.94-2.67,1.75-4.05,2.56a44.18,44.18,0,0,1-8.76,3.81l0-.07a75.2,75.2,0,0,0,8.4-4.39,39.37,39.37,0,0,0,7.64-5.48,23.52,23.52,0,0,0,3-3.64A11.2,11.2,0,0,1,286,48a18.1,18.1,0,0,1,9.26-2Z"/><path class="cls-1" d="M277.29,63.94A50.59,50.59,0,0,1,284,58.68a40.75,40.75,0,0,1,7.59-3.86c2.65-1,5.33-2,7.49-3.65a12.17,12.17,0,0,0,4.27-6.94h.08a11.07,11.07,0,0,1-3.88,7.51c-2.26,1.91-5.11,2.71-7.75,3.63A45,45,0,0,0,277.34,64Z"/><path class="cls-13" d="M97.36,123.35c-.88-.76-2-1.25-2.88-2a6.8,6.8,0,0,1-2.36-3.73,24.89,24.89,0,0,1-.38-3.35,7.23,7.23,0,0,0-1.83-4c-.92-1.11-2-2.25-2.15-3.78a14.24,14.24,0,0,0-.05-2.17c-.28-1.14-1.4-1.93-1.63-3.08a4.2,4.2,0,0,1,.67-2.63A35.73,35.73,0,0,1,90.43,93a3.79,3.79,0,0,1,1.32-1.2c1.08-.5,2.31,0,3.34.61a6.82,6.82,0,0,1-2.9-1.17c2.4-1.18,5.25-.3,7.62.85s4.77,2.6,7.42,2.53c1.37,0,2.78-.49,4.09-.09.87.27,1.58.89,2.42,1.24,1.29.53,2.84.4,4,1.19.72.5,1.17,1.31,1.88,1.82,2,1.41,4.89.1,7,1.18a.53.53,0,0,1,.21.18c.08.18-.07.37-.21.5-.92.86-2.09,1.42-3,2.3-1.2,1.16-1.84,2.78-2.84,4.12-2,2.66-5.12,4.07-8.06,5.55-3.32,1.67-6.62,3.62-8.95,6.53a25.2,25.2,0,0,0-3.44,6.35c-.19.46-.6,2.36-1.38,1.83-.55-.38-.22-1.45-.35-2A3.77,3.77,0,0,0,97.36,123.35Z"/><path class="cls-14" d="M143.29,167.1c-.82,1.23-2.07,3.11-2.81,2.89-.42-.11-.79-.94-.45-6.4.45-6.67,1.12-7.06.87-9-.31-2.5-1.66-3.93-8.52-10-10.49-9.27-10.16-8.38-12.44-11-4.38-5-4.39-6.93-8.67-10.08l-.19-.13a23.31,23.31,0,0,1,9.45-10c1.7,1.12,3.24.91,5.32,1.44,4.22,1.08,6.72,4.21,9.26,7.35,4.11,5.16,2.29,6.57,8,17.65a80.33,80.33,0,0,0,5.41,9.18c1.27,1.86,2.67,3.67,4.29,5.79,2.88,3.75,4.56,4.47,4.22,5.38-.76,2.07-9.16-.61-11.75,3.2C144.64,164.28,144.63,165.09,143.29,167.1Z"/><path class="cls-15" d="M120.09,113.09c.14.12.3.22.44.32a23.31,23.31,0,0,0-9.45,10c-1.65-1.22-2.19-1.28-7-4.53-3.89-2.62-6.14-4.26-7.07-7.08a8,8,0,0,1-.41-2.15c.1-.25.19-.47.28-.72l7.38-9.6c6-1.77,8.54-.81,9.76.38s.84,2.26,2.64,7.19C117.81,110.1,118.46,111.81,120.09,113.09Z"/><path class="cls-16" d="M111.08,123.43c-1.65-1.22-2.19-1.28-7-4.53-3.89-2.62-6.14-4.26-7.07-7.08a8,8,0,0,1-.41-2.15c.1-.25.19-.47.28-.72l7.38-9.6c6-1.77,8.54-.81,9.76.38s.84,2.26,2.64,7.19c1.16,3.18,1.81,4.89,3.44,6.17.14.12.3.22.44.32,1.7,1.12,3.24.91,5.32,1.44,4.22,1.08,6.72,4.21,9.26,7.35,4.11,5.16,2.29,6.57,8,17.65a80.33,80.33,0,0,0,5.41,9.18c1.27,1.86,2.67,3.67,4.29,5.79,2.88,3.75,4.56,4.47,4.22,5.38-.76,2.07-9.16-.61-11.75,3.2-.6.88-.61,1.69-2,3.7-.82,1.23-2.07,3.11-2.81,2.89-.42-.11-.79-.94-.45-6.4.45-6.67,1.12-7.06.87-9-.31-2.5-1.66-3.93-8.52-10-10.49-9.27-10.16-8.38-12.44-11-4.38-5-4.39-6.93-8.67-10.08Z"/><path class="cls-16" d="M120.63,113.34l-.1.07a23.31,23.31,0,0,0-9.45,10,1.3,1.3,0,0,0-.08.17"/><path class="cls-17" d="M96.68,110.26a8.92,8.92,0,0,0,.41,2.89c.6,2.54,1,2.48,1.33,4.12.51,2.65-.55,2.93.08,5.54.3,1.25.73,2,.32,2.8s-1.6,1.15-1.56,1.76c0,.38.53.63,1.52,1.15.76.39,1.14.59,1.41.52,1-.25,1.6-2.49,1.1-4.28-.17-.63-.3-.52-.4-1.05-.26-1.4.62-2.13.56-3.74a5.06,5.06,0,0,0-.27-1.34c-.59-2-1.71-2.59-2.82-4.32A17.89,17.89,0,0,1,96.68,110.26Z"/><path class="cls-17" d="M112.45,98.55a9.07,9.07,0,0,1,2.39,1.63c2,1.66,1.77,2,3.1,3,2.13,1.63,2.83.78,4.89,2.49,1,.82,1.43,1.52,2.35,1.52,1.08,0,1.72-1,2.24-.66.33.19.34.75.37,1.88,0,.87,0,1.3-.15,1.52-.65.79-2.91.38-4.28-.85-.49-.44-.34-.51-.76-.83-1.13-.84-2.17-.36-3.58-1.12a5.07,5.07,0,0,1-1.07-.82c-1.53-1.41-1.57-2.69-2.62-4.47A18.47,18.47,0,0,0,112.45,98.55Z"/><path class="cls-18" d="M106.13,107.51c1.39.64,1.87,4,.35,6.15a4.88,4.88,0,0,1-5.51,2c-1.71-.67-3-2.6-2.62-4.1.25-.94,1.66-1.63,4.47-3S105.91,107.41,106.13,107.51Z"/><path class="cls-18" d="M106.48,107.09c.27,1.53,3.36,2.81,5.84,1.85a4.94,4.94,0,0,0,3.22-4.9c-.23-1.83-1.77-3.58-3.3-3.56-1,0-2,1.22-3.95,3.64S106.44,106.86,106.48,107.09Z"/><path class="cls-17" d="M103.51,96.46c1.6,2.11.78,5.08.38,6.5a6.7,6.7,0,0,1-2.21,4,6.2,6.2,0,0,1-4.11,1A9.2,9.2,0,0,1,92,105.82c-.06-.06-.1-.08-.13-.12a5.14,5.14,0,0,1-.56-6.29c.58-.78,1-.64,3.34-1.69,4.1-1.84,5-3.25,6.72-2.82A3.86,3.86,0,0,1,103.51,96.46Z"/><ellipse cx="94.92" cy="102.8" rx="0.91" ry="0.71" transform="translate(-43.67 122.04) rotate(-55.19)"/><path d="M99.52,98.63a.78.78,0,0,1-1,.28.83.83,0,0,1,.93-1.36A.77.77,0,0,1,99.52,98.63Z"/><path d="M101.72,102.06a4.65,4.65,0,0,1-1.51,2.72,3.33,3.33,0,0,1-1.4.83,2.68,2.68,0,0,1-1.61-.08v-.08c.5-.2,1-.36,1.37-.55a9.82,9.82,0,0,0,1.27-.6,4.76,4.76,0,0,0,1.8-2.26Z"/><path class="cls-16" d="M98,100.19c-.45,1-.38,1.31-.24,1.46s.73,0,1.27.27a1.46,1.46,0,0,1,.62.68"/><path class="cls-17" d="M97.68,117.33a3.33,3.33,0,0,1-.89,1.07,3.44,3.44,0,0,1-1,.57"/><path class="cls-17" d="M100,117.54c-.08.24-.16.49-.23.75s-.14.46-.2.69"/><path class="cls-17" d="M126.45,102.83A3.19,3.19,0,0,1,125,103a3.14,3.14,0,0,1-1.39-.55"/><path class="cls-17" d="M124.48,103.62l1.53.47"/></svg>