<svg id="Capa_1" data-name="Capa 1" xmlns="http://www.w3.org/2000/svg" viewBox="0 0 191.26 312.87"><defs><style>.cls-1{fill:#fff;}.cls-2{fill:#4d4d4d;}.cls-2,.cls-5{stroke:#26120a;stroke-linecap:round;stroke-linejoin:round;}.cls-2,.cls-5,.cls-6{stroke-width:2px;}.cls-3{fill:#f04b31;}.cls-4{fill:#beac83;}.cls-5,.cls-6{fill:none;}.cls-6{stroke:#000;stroke-miterlimit:10;}</style></defs><title>leyendas 2 del mapa</title><path class="cls-1" d="M144,284.61c-4.17,8.75-21.6,4.85-47.68,8.39-24.47,3.32-38.66,10.91-50.83,2.83a17.24,17.24,0,0,1-4.71-4.41c-5-7.21-1.3-15.31,2.62-33,3-13.29,4.19-26.9,6.29-40.35.75-4.77.61-9.67,1.57-14.41.69-3.35,1.69-7.07.23-11.26a15.1,15.1,0,0,0-2.32-4.19c-6-8.4,4.25-22.66-.53-35.63-2.5-6.8-5.7-5.1-11-14.15-1.35-2.31-5.38-9.66-6.81-26.72-1.13-13.52-2.56-30.62,5.76-49.78C40.37,53.26,44.79,43.1,56,35.74c2.94-1.93,14.41-9,29.34-7.34,15.63,1.72,25.4,11.89,35.11,22,6.61,6.89,16.88,17.2,21.48,33.53,1.5,5.32,1.31,7.42,2.62,29.86.63,10.84,1.46,21.66,2.09,32.49,2.35,40.38,3.53,60.57,4.72,66.54,3.76,18.9,10.86,40.73,3.14,49.78a40.92,40.92,0,0,0-6.81,9.95C144.67,278.85,145.41,281.69,144,284.61Z"/><path class="cls-2" d="M49.72,145.52c-12.68-6.09-14-27.67-14.83-41-.62-10.08-1.78-28.9,10.2-47.09C49.32,51,59,36.4,74.38,33.9c28.81-4.66,53.53,36.84,55.07,39.49,10.81,18.64,8.62,29.24,12.61,82.33,5.13,68.29,12.73,103.55,1.36,107.91-4.19,1.6-9.21-1.66-12.36-3.71-12-7.82-14.77-23.1-17.06-38.81-6.18-42.44,4.49-62.4-7.66-71.94-3.73-2.92-8.81-3.48-19-4.58C65.34,142.21,58.84,149.89,49.72,145.52Z"/><path class="cls-2" d="M54.17,52.81A73.63,73.63,0,0,0,39.53,80.26c-6.32,22.41.12,41.31,2.78,48"/><path class="cls-2" d="M52.13,64.31a80.54,80.54,0,0,0-3.7,65.26"/><path class="cls-2" d="M48.61,98.43a133.94,133.94,0,0,0,1.86,14.83c.69,3.84,1.52,7.44,2.41,10.75"/><path class="cls-2" d="M71.23,53.56a126.22,126.22,0,0,1,37.08,40.79,127.56,127.56,0,0,1,16.32,67.3"/><path class="cls-2" d="M75.87,45c25.42,15.34,37.54,33.7,43,43.75,8.41,15.45,10.9,29.21,14.46,48.95a303.74,303.74,0,0,1,4.83,57.85"/><path class="cls-2" d="M130.19,144.78c-.21,12.51-.9,25.7-2.22,39.49q-.81,8.44-1.86,16.5"/><path class="cls-2" d="M103.86,55.47a48.7,48.7,0,0,1,14.59,12.61,50.27,50.27,0,0,1,10.14,29.17"/><path class="cls-2" d="M74.69,40a46.7,46.7,0,0,1,13,2.23,47.27,47.27,0,0,1,16.19,9"/><path class="cls-2" d="M133.72,199.85a58.46,58.46,0,0,1,1.85,32.81,56,56,0,0,1-6.49,15.76"/><path class="cls-2" d="M62.67,57.62a80.8,80.8,0,0,0,18.82,11,80.43,80.43,0,0,0,16.29,4.82"/><path class="cls-2" d="M63.81,49.48a48.65,48.65,0,0,1,32.82,20"/><path class="cls-3" d="M81.3,106c.28,0,.57-.09.86-.12,3-.39,10.13-1.29,16.32,1.67,9.7,4.63,12.36,16.42,14.46,25.77,1.75,7.73,5,22.31-1.48,27.07a6.09,6.09,0,0,1-2.87,1.16c-4.24.61-9.79-2.47-19.75-2.27a50.45,50.45,0,0,0-21.32,5.37l-1.28-.23c.14-.77.32-1.55.53-2.36,3.36-12.65,11-10.87,15-25.22,1.16-4.14,3.44-12.71-.92-20.21-1.89-3.23-5.42-7-8.94-7.9A36.71,36.71,0,0,1,81.3,106Z"/><path class="cls-3" d="M108.59,161.52c1.5,7.17,4,18.35,7.88,31.89,5.26,18.52,8.7,27.48,12.23,38.32,13,39.93,13.31,44,10.76,47.84-4.82,7.2-13.32,3.66-44.87,7.79-31.2,4.08-43.78,10.26-49.69,3.33-2.4-2.81-2-5.8.37-21.87.69-4.69,1.29-8.65,1.94-13C49,243.65,51,231.55,54.54,207.26c.51-3.53,1.31-9.07,2.25-16,1.58-.39,3.27-2.81,4.42-4.44,5.52-7.86,3.43-14,5-22.48l1.28.23a50.45,50.45,0,0,1,21.32-5.37c10-.2,15.51,2.88,19.75,2.27Z"/><path class="cls-3" d="M71.93,108.69c3.52.92,7,4.67,8.94,7.9,4.36,7.5,2.08,16.07.92,20.21-4,14.35-11.66,12.57-15,25.22-.21.81-.39,1.59-.53,2.36-1.6,8.45.49,14.62-5,22.48-1.15,1.63-2.84,4-4.42,4.44a1.67,1.67,0,0,1-.77,0c-4.6-1.05-2.85-23.57-1.85-36.34,0,0,1.06-13.68,8.15-36,1.25-3.91,2.65-7.9,5.17-9.62a5.22,5.22,0,0,1,1.7-.76A5.54,5.54,0,0,1,71.93,108.69Z"/><path class="cls-4" d="M68.61,101.59a11.55,11.55,0,0,1-6-.85c-3.49-1.53-5.21-4.42-6.5-6.58-.76-1.28-1.87-3.13-1.2-4.08.87-1.25,4.25-.24,4.33-.62s-3-.5-4.15-2.35c-1.68-2.71,1.69-7.67,1.12-8-.37-.2-1.78,2.08-2.23,1.85s.27-2.17.84-4.35c.47-1.78.46-3.56.82-5.35.84-4.26,3.72-8.71,8.31-9.42,2.85-.43,5.7.67,8.27,1.78,1.22.54,2.43,1.11,3.64,1.67C81.11,67.79,85,69.62,88.47,74c1.87,2.32,6.39,8,5.09,14.73-.06.34-1.5,7.51-5.83,8.73-1.87.51-3.57-.27-5.29,1.11a5.34,5.34,0,0,0-1.76,3A6.45,6.45,0,0,0,81.3,106a36.71,36.71,0,0,0-9.37,2.73,5.54,5.54,0,0,0-2.74-.07,5.22,5.22,0,0,0-1.7.76C67.87,106.79,68.24,104.18,68.61,101.59Z"/><path class="cls-5" d="M71.93,108.69c3.52.92,7,4.67,8.94,7.9,4.36,7.5,2.08,16.07.92,20.21-4,14.35-11.66,12.57-15,25.22-.21.81-.39,1.59-.53,2.36-1.6,8.45.49,14.62-5,22.48-1.15,1.63-2.84,4-4.42,4.44a1.67,1.67,0,0,1-.77,0c-4.6-1.05-2.85-23.57-1.85-36.34,0,0,1.06-13.68,8.15-36,1.25-3.91,2.65-7.9,5.17-9.62a5.22,5.22,0,0,1,1.7-.76A5.54,5.54,0,0,1,71.93,108.69Z"/><path class="cls-5" d="M67.52,164.61a50.45,50.45,0,0,1,21.32-5.37c10-.2,15.51,2.88,19.75,2.27a6.09,6.09,0,0,0,2.87-1.16c6.51-4.76,3.23-19.34,1.48-27.07-2.1-9.35-4.76-21.14-14.46-25.77-6.19-3-13.27-2.06-16.32-1.67-.29,0-.58.07-.86.12a36.71,36.71,0,0,0-9.37,2.73c-.67.29-1.28.58-1.82.86"/><path class="cls-5" d="M108.59,161.52c1.5,7.17,4,18.35,7.88,31.89,5.26,18.52,8.7,27.48,12.23,38.32,13,39.93,13.31,44,10.76,47.84-4.82,7.2-13.32,3.66-44.87,7.79-31.2,4.08-43.78,10.26-49.69,3.33-2.4-2.81-2-5.8.37-21.87.69-4.69,1.29-8.65,1.94-13C49,243.65,51,231.55,54.54,207.26c.51-3.53,1.31-9.07,2.25-16,.05-.37.11-.73.16-1.1"/><path class="cls-5" d="M67.43,109.82l.06-.44c.38-2.59.75-5.2,1.12-7.79,0,0,0-.07,0-.11"/><path class="cls-5" d="M75.39,99.07a16.14,16.14,0,0,1-6.78,2.52,11.55,11.55,0,0,1-6-.85c-3.49-1.53-5.21-4.42-6.5-6.58-.76-1.28-1.87-3.13-1.2-4.08.87-1.25,4.25-.24,4.33-.62s-3-.5-4.15-2.35c-1.68-2.71,1.69-7.67,1.12-8-.37-.2-1.78,2.08-2.23,1.85s.27-2.17.84-4.35c.47-1.78.46-3.56.82-5.35.84-4.26,3.72-8.71,8.31-9.42,2.85-.43,5.7.67,8.27,1.78,1.22.54,2.43,1.11,3.64,1.67C81.11,67.79,85,69.62,88.47,74c1.87,2.32,6.39,8,5.09,14.73-.06.34-1.5,7.51-5.83,8.73-1.87.51-3.57-.27-5.29,1.11a5.34,5.34,0,0,0-1.76,3A6.45,6.45,0,0,0,81.3,106c.14.25.25.43.31.52"/><path d="M57.7,72c.95.64,2.26-.19,2.84-.56.39-.25,1.28-.81,1.17-1.36s-1.22-.75-1.54-.8c-.9-.15-2.79-.15-3.15.92A1.68,1.68,0,0,0,57.7,72Z"/><path class="cls-6" d="M84,79.39c.37-.36,1.63-1.52,2.91-1.24,2.2.48,2.46,4.74,2.47,4.95.14,2.66-1.12,4.78-2.1,6.43a18.43,18.43,0,0,1-2,2.78"/></svg>