<svg id="Capa_1" data-name="Capa 1" xmlns="http://www.w3.org/2000/svg" viewBox="0 0 192.32 161.36"><defs><style>.cls-1{fill:#fff;}.cls-2,.cls-3{fill:#603814;}.cls-2{stroke:#42210b;stroke-miterlimit:10;stroke-width:3px;}.cls-4{fill:#42210b;}</style></defs><title>leyendas 2 del mapa</title><path class="cls-1" d="M33.56,96.14c-1-7.7-2.74-22.5,4.14-39.25,3.45-8.39,10.85-26.41,29.93-33.71C85,16.56,103.29,22.08,114,29.49c6.72,4.65,5.65,6.73,15.11,13.69,13.77,10.13,19.57,8.31,27.4,15.55,11.41,10.55,12.34,26.63,12.59,31.11.79,13.65-3.57,32.75-17.33,42.6-18,12.87-31.25-5-67.47,4.8-5.49,1.49-14.87,4.53-24.81.74-7.77-3-12.42-8.76-15.11-12.21C36.18,115.29,34.6,104.16,33.56,96.14Z"/><path class="cls-2" d="M96.51,30.22a24.92,24.92,0,0,0-10.44-.4C66.81,32.31,52.4,50.75,46.89,66.51c-6.53,18.66-6.62,50.75,13.33,60.73,18.9,9.46,45-5.7,55.55-24.44C130.63,76.39,118.33,36.19,96.51,30.22Z"/><path class="cls-3" d="M95.22,44.46c1.11,5.75,1.59,13.67-2.66,20.22C87.42,72.58,79.48,72.17,74,78.24c-4.66,5.13-7.9,15.18-1.36,36.88"/><path class="cls-4" d="M95.37,44.43A26.86,26.86,0,0,1,97,54.84a21.79,21.79,0,0,1-.9,5.35,16,16,0,0,1-2.37,4.94A17.67,17.67,0,0,1,89.9,69a32,32,0,0,1-4.59,2.69c-3.09,1.56-6.3,3-8.74,5.24a18.44,18.44,0,0,0-5,8.16,34.54,34.54,0,0,0-1.09,9.72c0,6.66,1.2,13.39,2.21,20.25l-.29.09a59.68,59.68,0,0,1-3.51-9.84,48.63,48.63,0,0,1-1.62-10.45A29.43,29.43,0,0,1,68.92,84.2a19.24,19.24,0,0,1,2.63-4.84,16.84,16.84,0,0,1,4-3.72c3-2,6.34-3.08,9.29-4.79a18.2,18.2,0,0,0,4-3.08,21.38,21.38,0,0,0,2.82-4,25.93,25.93,0,0,0,3.06-9.18,59.52,59.52,0,0,0,.39-10.14Z"/><path class="cls-2" d="M122.28,53.78c-13.81,3.8-21,25.5-18.11,42.29,2.66,15.53,15.3,35.19,31.75,34,15.77-1.12,26.8-20.83,26.44-36.92C161.85,70.5,138.61,49.3,122.28,53.78Z"/><path class="cls-3" d="M126.88,63.44c2.9,3.28,6.24,8.2,6,14-.3,7-5.57,9.81-6.81,15.83-1,5.07.7,12.78,13.18,24.26"/><path class="cls-4" d="M127,63.34a18.75,18.75,0,0,1,5.27,6,14,14,0,0,1,1.87,8,13.29,13.29,0,0,1-1.12,4,25.61,25.61,0,0,1-2,3.47,24.42,24.42,0,0,0-3.54,6.72,14.05,14.05,0,0,0,.08,7,27.67,27.67,0,0,0,3,6.54c2.49,4.25,5.73,8.17,8.84,12.37l-.21.23a37.72,37.72,0,0,1-11.35-10.92,21.22,21.22,0,0,1-3-7.63,14.14,14.14,0,0,1-.11-4.21,12.53,12.53,0,0,1,1.27-4c1.27-2.44,3-4.38,4.24-6.61a12.12,12.12,0,0,0,1.28-3.5,15.94,15.94,0,0,0,.19-3.57,21.73,21.73,0,0,0-1.48-7,56.18,56.18,0,0,0-3.38-6.77Z"/></svg>