<svg xmlns="http://www.w3.org/2000/svg" viewBox="0 0 209 208" width="256" height="255"><style>tspan { white-space:pre }.shp0 { fill: #ffffff } .shp1 { fill: #006837 } </style><g ></g><g ><g ><g ><g ><g ><path fill-rule="evenodd" class="shp0" d="M208.47 15.01L208.47 192.74C208.47 193.19 208.4 193.64 208.32 194.01C206.08 200.73 200.71 205.8 193.84 207.67C193.47 207.74 193.17 207.74 192.8 207.74L16.42 207.74C16.05 207.74 15.67 207.74 15.37 207.67C8.5 205.8 3.13 200.73 0.89 194.01C0.74 193.64 0.67 193.19 0.67 192.74L0.67 15.01C0.67 14.56 0.74 14.11 0.89 13.67C3.13 6.95 8.5 1.87 15.37 0.08C15.74 0.01 16.04 0.01 16.42 0.01L192.8 0.01C193.17 0.01 193.47 0.01 193.84 0.08C200.71 1.87 206.08 6.95 208.32 13.74C208.4 14.12 208.47 14.56 208.47 15.01ZM200.19 191.99L200.19 15.68C198.85 12.1 195.94 9.41 192.2 8.29L16.94 8.29C13.28 9.34 10.37 12.1 9.03 15.68L9.03 191.99C10.37 195.65 13.28 198.33 17.02 199.45L192.2 199.45C195.93 198.34 198.84 195.65 200.19 191.99Z" /><path fill-rule="evenodd" class="shp0" d="M188.77 32.03L188.77 175.72C188.77 175.94 188.7 176.17 188.62 176.39C186.98 181.39 182.95 185.2 177.87 186.54C177.72 186.54 177.5 186.61 177.35 186.61L34.7 186.61C34.55 186.61 34.33 186.54 34.18 186.54C29.1 185.2 25.07 181.39 23.43 176.39C23.36 176.17 23.28 175.94 23.28 175.72L23.28 32.03C23.28 31.81 23.35 31.58 23.43 31.36C25.07 26.36 29.1 22.55 34.18 21.21L177.35 21.14C182.95 22.56 186.98 26.37 188.62 31.37C188.69 31.58 188.77 31.81 188.77 32.03ZM186.68 175.72L186.68 32.03C185.26 27.7 181.75 24.34 177.35 23.22L34.7 23.22C30.3 24.34 26.79 27.7 25.37 32.03L25.37 175.72C26.79 180.05 30.3 183.33 34.7 184.53L177.34 184.53C181.75 183.33 185.26 180.05 186.68 175.72Z" /><path fill-rule="evenodd" class="shp0" d="M186.68 32.03L186.68 175.72C185.26 180.05 181.75 183.33 177.35 184.53L34.7 184.53C30.3 183.34 26.79 180.05 25.37 175.72L25.37 32.03C26.79 27.7 30.3 24.34 34.7 23.22L177.34 23.22C181.75 24.34 185.26 27.7 186.68 32.03ZM184.59 175.35L184.59 32.4C183.32 28.89 180.41 26.13 176.83 25.23L34.7 25.31C31.56 26.21 28.73 28.82 27.46 32.4L27.46 175.34C28.65 178.85 31.49 181.46 35 182.43L177.05 182.43C180.56 181.47 183.39 178.85 184.59 175.35Z" /><path class="shp1" d="M184.59 143.77L184.59 175.34C183.4 178.85 180.56 181.46 177.05 182.43L35 182.43C31.49 181.46 28.66 178.85 27.46 175.34L27.46 143.77L38.43 143.77C38.43 144.52 39.03 145.04 39.7 145.04L169.5 145.04C170.17 145.04 170.77 144.52 170.77 143.77L184.59 143.77Z" /><path class="shp1" d="M184.59 32.4L184.59 143.77L170.78 143.77C170.78 143.55 170.71 143.32 170.63 143.17C170.7 143.02 170.78 142.8 170.78 142.57C170.78 141.97 170.33 141.53 169.74 141.45C170.34 141.3 170.78 140.78 170.78 140.18C170.78 139.51 170.18 138.91 169.51 138.91L168.84 138.91L121.14 70.01C121.07 69.86 120.92 69.71 120.77 69.64C120.17 68.89 118.31 67.18 115.1 67.4C113.53 67.47 111.96 68.15 110.77 69.42C110.62 69.49 110.47 69.64 110.32 69.87L110.25 69.87C110.18 69.94 110.1 70.02 110.1 70.09C110.03 70.16 110.03 70.16 110.03 70.24C109.96 70.17 109.96 70.24 109.96 70.24L109.89 70.46L105.19 79.42L94.14 63.52L93.84 63.07C93.77 63 93.69 62.92 93.54 62.85C92.87 62.18 91.38 61.13 89.29 61.13C89.22 61.13 89.22 61.13 89.14 61.13C86.98 61.13 85.48 62.1 84.74 62.85C84.67 62.85 84.59 62.92 84.52 63.07C84.45 63.07 84.45 63.07 84.45 63.07C84.38 63.14 84.3 63.29 84.23 63.37C84.23 63.44 84.23 63.44 84.16 63.52L83.71 64.42L44.52 137.12C44.15 137.72 44.37 138.39 44.97 138.69L44.9 138.91L39.75 138.91C39.08 138.91 38.48 139.51 38.48 140.18C38.48 140.78 38.93 141.3 39.53 141.45C38.93 141.52 38.48 141.97 38.48 142.57C38.48 142.79 38.55 143.02 38.63 143.17C38.56 143.32 38.48 143.54 38.48 143.77L27.46 143.77L27.46 32.4C28.73 28.82 31.57 26.2 34.7 25.31L176.82 25.24C180.41 26.13 183.32 28.9 184.59 32.4Z" /><path class="shp0" d="M170.78 142.58C170.78 142.8 170.71 143.03 170.63 143.18C170.41 142.81 169.96 142.58 169.51 142.58L89.12 142.58C89.57 142.58 90.02 142.36 90.24 141.91L90.46 141.46L165.55 141.46C166 141.98 166.52 142.28 167.19 142.28C167.64 142.28 168.01 142.13 168.38 141.91C168.53 141.76 168.68 141.61 168.75 141.46L169.5 141.46C169.57 141.46 169.65 141.46 169.72 141.46C170.33 141.53 170.78 141.98 170.78 142.58Z" /><path class="shp0" d="M170.63 143.17C170.7 143.32 170.78 143.54 170.78 143.77C170.78 144.52 170.18 145.04 169.51 145.04L39.71 145.04C39.04 145.04 38.44 144.52 38.44 143.77C38.44 143.55 38.51 143.32 38.59 143.17C38.81 143.54 39.26 143.84 39.71 143.84L169.51 143.84C169.96 143.85 170.41 143.55 170.63 143.17Z" /><path class="shp0" d="M169.51 138.92C170.18 138.92 170.78 139.52 170.78 140.19C170.78 140.79 170.33 141.31 169.74 141.46C169.67 141.39 169.59 141.39 169.52 141.39L168.85 141.39C169.45 140.72 169.45 139.75 168.92 139L168.85 138.93L169.51 138.93L169.51 138.92Z" /><path class="shp0" d="M169.51 142.58C169.96 142.58 170.41 142.8 170.63 143.18C170.41 143.55 169.96 143.85 169.51 143.85L39.71 143.85C39.26 143.85 38.81 143.55 38.59 143.18C38.81 142.81 39.26 142.58 39.71 142.58L89.12 142.58L169.51 142.58Z" /><path class="shp0" d="M169.51 141.38C169.58 141.38 169.66 141.38 169.73 141.45C169.66 141.45 169.58 141.45 169.51 141.45L168.76 141.45L168.83 141.38L169.51 141.38Z" /><path class="shp0" d="M168.91 138.99C169.43 139.74 169.43 140.71 168.84 141.38L167.12 141.38C167.57 141.16 167.87 140.71 167.87 140.19C167.87 140.04 167.87 139.89 167.87 139.82C167.94 139.52 167.94 139.15 167.8 138.92L168.84 138.92L168.91 138.99Z" /><path class="shp0" d="M121.14 70.02L168.84 138.92L167.8 138.92C167.8 138.85 167.73 138.77 167.65 138.7L124.66 76.6C124.51 76.38 124.36 76.3 124.21 76.23C124.21 75.86 123.99 75.48 123.61 75.33C123.01 74.96 122.27 75.18 121.89 75.85L121.14 77.34L117.86 72.56C118.61 73.46 119.88 73.53 120.77 72.78C121.51 72.11 121.74 70.84 121.14 70.02Z" /><path class="shp0" d="M168.84 141.38L168.77 141.45L166.68 141.45C166.83 141.45 166.98 141.45 167.13 141.38L168.84 141.38Z" /><path class="shp0" d="M168.76 141.46C168.69 141.61 168.54 141.76 168.39 141.91C168.02 142.13 167.64 142.28 167.2 142.28C166.53 142.28 166.01 141.98 165.56 141.46L166.68 141.46L168.76 141.46Z" /><path class="shp0" d="M167.79 138.92C167.94 139.14 167.94 139.52 167.86 139.82C167.86 139.89 167.86 140.04 167.86 140.19C167.86 140.71 167.56 141.16 167.11 141.38L165.47 141.38L164.65 140.19L166.67 140.19L166.67 139.37L166.37 138.92L167.79 138.92L167.79 138.92Z" /><path class="shp0" d="M167.79 138.92L166.37 138.92L123.82 77.64L124.12 76.97C124.27 76.75 124.27 76.45 124.19 76.22C124.34 76.29 124.49 76.37 124.64 76.59L167.63 138.69C167.72 138.77 167.79 138.84 167.79 138.92Z" /><path class="shp0" d="M167.12 141.38C166.97 141.45 166.82 141.45 166.67 141.45L165.55 141.45L165.48 141.38L167.12 141.38Z" /><path class="shp0" d="M166.67 139.37L166.67 140.19L164.66 140.19L163.76 138.92L164.81 138.92L166.37 138.92L166.67 139.37Z" /><path class="shp0" d="M166.37 138.92L164.81 138.92L123.75 79.73L123.31 80.55L122.71 79.65L123.83 77.64L166.37 138.92Z" /><path class="shp0" d="M165.48 141.38L165.55 141.46L159.73 141.38L165.48 141.38Z" /><path class="shp0" d="M165.55 141.46L90.46 141.46L90.54 141.38L159.73 141.38L165.55 141.46Z" /><path class="shp0" d="M164.66 140.19L165.48 141.38L159.73 141.38L90.91 140.64L91.58 139.37L164.66 140.19Z" /><path class="shp0" d="M123.75 79.73L164.81 138.92L163.76 138.92L123.31 80.55L123.75 79.73Z" /><path class="shp0" d="M163.76 138.92L164.66 140.19L91.58 139.37L91.81 138.92L163.76 138.92Z" /><path class="shp0" d="M123.31 80.55L163.76 138.92L92.25 138.17L123.31 80.55Z" /><path class="shp0" d="M163.76 138.92L91.81 138.92L122.71 79.65L123.31 80.55L92.25 138.17L163.76 138.92Z" /><path class="shp0" d="M159.73 141.38L90.54 141.38L90.91 140.64L159.73 141.38Z" /><path class="shp0" d="M124.2 76.22C124.27 76.44 124.27 76.74 124.13 76.97L123.83 77.64L123.61 77.34L122.49 79.36L121.74 78.24L122.56 76.75C122.71 76.38 123.16 76.08 123.53 76.08C123.75 76.07 123.98 76.07 124.2 76.22Z" /><path class="shp0" d="M124.2 76.22C123.98 76.07 123.75 76.07 123.53 76.07C123.16 76.07 122.71 76.37 122.56 76.74L121.74 78.23L121.14 77.33L121.89 75.84C122.26 75.17 123.01 74.94 123.61 75.32C123.98 75.47 124.2 75.85 124.2 76.22Z" /><path class="shp0" d="M123.83 77.64L122.71 79.65L122.48 79.35L123.6 77.34L123.83 77.64Z" /><path class="shp0" d="M122.48 79.35L122.71 79.65L91.81 138.92L90.39 138.92L122.48 79.35Z" /><path class="shp0" d="M121.74 78.23L122.49 79.35L90.39 138.92L89.05 138.92C89.05 138.92 89.05 138.85 89.05 138.77L89.27 138.4L121.74 78.23Z" /><path class="shp0" d="M121.14 77.34L121.74 78.23L89.27 138.4L121.14 77.34Z" /><path class="shp0" d="M121.14 70.02C121.74 70.84 121.51 72.11 120.77 72.78C119.87 73.53 118.61 73.45 117.86 72.56L117.71 72.41C117.71 72.41 117.71 72.34 117.64 72.34C117.04 71.37 117.27 70.18 118.24 69.5C119.06 68.9 120.11 68.98 120.78 69.65C120.92 69.73 121.07 69.87 121.14 70.02Z" /><path class="shp1" d="M121.14 77.34L89.27 138.4L89.05 138.77L88.98 138.92L78.89 138.92L113.45 72.56C113.45 72.41 113.52 72.34 113.67 72.26C113.97 71.96 114.64 71.59 115.39 71.51C116.44 71.44 117.26 72.03 117.63 72.33C117.7 72.33 117.7 72.4 117.7 72.4L117.85 72.55L121.14 77.34Z" /><path class="shp0" d="M120.77 69.65C120.1 68.98 119.05 68.9 118.23 69.5C117.26 70.17 117.04 71.37 117.63 72.34C117.26 72.04 116.44 71.44 115.39 71.52C114.64 71.59 113.97 71.97 113.67 72.27L113.67 72.2C114.19 71.15 113.74 69.89 112.77 69.36C112.17 68.99 111.35 69.06 110.75 69.43C111.94 68.16 113.51 67.49 115.08 67.41C118.3 67.19 120.17 68.9 120.77 69.65Z" /><path class="shp0" d="M112.78 69.35C113.75 69.87 114.2 71.14 113.68 72.19L113.68 72.26C113.53 72.33 113.46 72.41 113.46 72.56C113.39 72.49 113.39 72.56 113.39 72.56C112.94 73.01 112.42 73.31 111.82 73.31C111.3 73.31 110.85 73.09 110.48 72.79C109.81 72.19 109.58 71.3 109.88 70.48C109.88 70.41 109.95 70.33 110.03 70.26C110.03 70.19 110.03 70.19 110.1 70.11C110.17 69.89 110.25 69.81 110.32 69.89C110.47 69.67 110.62 69.52 110.77 69.44C111.36 69.05 112.18 68.98 112.78 69.35Z" /><path class="shp0" d="M113.45 72.56L78.89 138.92L77.92 138.92L106.96 83.16C106.96 83.09 107.03 83.01 107.03 82.94C107.1 82.87 107.1 82.79 107.1 82.79L107.1 82.72C107.1 82.57 107.1 82.5 107.03 82.35C107.03 82.2 106.96 82.05 106.88 81.9L105.16 79.44L109.86 70.48C109.56 71.3 109.79 72.2 110.46 72.79C110.83 73.09 111.28 73.31 111.8 73.31C112.4 73.31 112.92 73.01 113.37 72.56C113.38 72.56 113.38 72.49 113.45 72.56Z" /><path class="shp0" d="M110.32 69.87C110.25 69.8 110.17 69.87 110.1 70.09C110.1 70.02 110.17 69.94 110.25 69.87L110.32 69.87Z" /><path class="shp0" d="M110.02 70.25C109.95 70.32 109.87 70.4 109.87 70.47L109.94 70.25C109.94 70.25 109.94 70.17 110.02 70.25Z" /><path class="shp0" d="M107.03 82.34C107.1 82.49 107.1 82.56 107.1 82.71C107.11 82.56 107.11 82.49 107.03 82.34Z" /><path class="shp0" d="M107.11 82.71L107.11 82.78C107.11 82.78 107.11 82.85 107.04 82.93C107.03 82.86 107.11 82.79 107.11 82.71Z" /><path class="shp0" d="M107.03 82.34C107.1 82.49 107.1 82.56 107.1 82.71C107.1 82.78 107.03 82.86 107.03 82.93C107.03 83 106.96 83.08 106.96 83.15L77.92 138.91L76.5 138.91L105.83 82.63C105.38 81.96 104.93 81.36 104.49 80.69L105.16 79.42L106.88 81.88C106.96 82.04 107.03 82.19 107.03 82.34Z" /><path class="shp0" d="M104.5 80.7C104.95 81.37 105.4 81.97 105.84 82.64L76.5 138.92L75.16 138.92L104.42 82.71L103.9 81.89L104.5 80.7Z" /><path class="shp0" d="M94.12 63.53L105.17 79.43L104.5 80.7C100.92 75.4 97.26 70.18 93.6 64.95C93.97 64.73 94.2 64.43 94.2 63.98C94.19 63.83 94.19 63.68 94.12 63.53Z" /><path class="shp0" d="M93.6 64.95C97.26 70.18 100.92 75.4 104.5 80.7L103.9 81.89L92.25 65.17L92.92 65.17C93.15 65.17 93.45 65.1 93.6 64.95Z" /><path class="shp0" d="M103.9 81.89L104.42 82.71L75.09 138.92L74.19 138.92L103.9 81.89Z" /><path class="shp0" d="M104.42 82.71L75.16 138.92L75.09 138.92L104.42 82.71Z" /><path class="shp0" d="M103.9 81.89L74.19 138.92L47.62 138.92L85.91 65.47L86.06 65.17L92.25 65.17L103.9 81.89Z" /><path class="shp0" d="M94.12 63.53C94.19 63.68 94.19 63.83 94.19 63.98C94.19 64.43 93.97 64.73 93.59 64.95C93.37 64.65 93.14 64.28 92.92 63.98C92.77 63.83 92.47 63.53 92.02 63.23C92.09 63.08 92.17 63.01 92.24 62.93C92.46 62.78 92.69 62.71 92.91 62.71C93.13 62.71 93.28 62.78 93.51 62.86C93.66 62.93 93.73 63.01 93.81 63.08L94.12 63.53Z" /><path class="shp0" d="M92.93 63.98C93.15 64.28 93.38 64.65 93.6 64.95C93.45 65.1 93.15 65.17 92.93 65.17L92.26 65.17L91.89 64.65C91.74 64.43 91.67 64.2 91.67 63.98C91.67 63.68 91.74 63.38 91.97 63.23L92.04 63.23C92.48 63.53 92.78 63.83 92.93 63.98Z" /><path class="shp0" d="M93.52 62.86C93.3 62.79 93.15 62.71 92.92 62.71L90.9 62.71C90.38 62.49 89.85 62.34 89.18 62.34C88.51 62.34 87.84 62.49 87.31 62.71L85.29 62.71C85.07 62.71 84.92 62.78 84.69 62.86C85.44 62.11 86.93 61.14 89.09 61.14C89.16 61.14 89.16 61.14 89.24 61.14C91.36 61.14 92.85 62.19 93.52 62.86Z" /><path class="shp0" d="M92.93 62.71C92.71 62.71 92.48 62.78 92.26 62.93C92.19 63 92.11 63.08 92.04 63.23L91.97 63.23C91.67 63.01 91.3 62.86 90.92 62.71L92.93 62.71Z" /><path class="shp0" d="M91.88 64.65L92.25 65.17L86.05 65.17L86.27 64.8L86.34 64.73C86.79 64.36 87.76 63.61 89.1 63.61L89.17 63.61C90.76 63.6 91.81 64.57 91.88 64.65Z" /><path class="shp0" d="M91.66 63.98C91.66 64.2 91.73 64.43 91.88 64.65C91.81 64.58 90.76 63.6 89.19 63.6L89.12 63.6C87.78 63.6 86.81 64.35 86.36 64.72L86.43 64.5C86.65 64.05 86.58 63.53 86.28 63.23C86.58 63.01 86.95 62.78 87.33 62.71L90.91 62.71C91.28 62.86 91.66 63.01 91.96 63.23C91.73 63.38 91.66 63.68 91.66 63.98Z" /><path class="shp0" d="M91.81 138.92L91.58 139.37L90.16 139.37L90.39 138.92L91.81 138.92Z" /><path class="shp0" d="M91.58 139.37L90.91 140.64L90.16 140.64C89.71 140.64 89.26 140.42 89.11 140.04C88.81 139.74 88.81 139.29 88.96 138.92L89.03 138.92L90.37 138.92L90.15 139.37L91.58 139.37Z" /><path class="shp0" d="M90.91 140.64L90.54 141.39L87.85 141.39C87.85 141.24 87.92 141.02 88 140.79L88.97 138.92C88.82 139.29 88.82 139.74 89.12 140.04C89.27 140.41 89.72 140.64 90.17 140.64L90.91 140.64Z" /><path class="shp0" d="M90.91 62.71L87.33 62.71C87.85 62.49 88.52 62.34 89.2 62.34C89.87 62.34 90.39 62.48 90.91 62.71Z" /><path class="shp0" d="M90.54 141.38L90.46 141.46L87.85 141.46L87.85 141.38L90.54 141.38Z" /><path class="shp0" d="M90.46 141.46L90.24 141.91C90.02 142.36 89.57 142.58 89.12 142.58C88.9 142.58 88.75 142.58 88.52 142.43C88.15 142.21 87.92 141.83 87.85 141.46L90.46 141.46L90.46 141.46Z" /><path class="shp0" d="M89.12 142.58L39.71 142.58C39.26 142.58 38.81 142.8 38.59 143.18C38.52 143.03 38.44 142.81 38.44 142.58C38.44 141.98 38.89 141.54 39.49 141.46C39.56 141.46 39.64 141.46 39.71 141.46L45.46 141.46C45.53 141.46 45.53 141.46 45.61 141.46L74.27 141.46C74.42 141.76 74.64 141.91 74.87 142.06C75.17 142.21 75.54 142.28 75.84 142.28C76.44 142.28 77.11 141.98 77.48 141.46L87.86 141.46C87.93 141.83 88.16 142.21 88.53 142.43C88.75 142.58 88.89 142.58 89.12 142.58Z" /><path class="shp0" d="M88.97 138.92L89.04 138.77C89.04 138.84 89.04 138.92 89.04 138.92L88.97 138.92Z" /><path class="shp0" d="M88.97 138.92L88 140.79C87.93 141.01 87.85 141.24 87.85 141.39L77.55 141.39C77.62 141.32 77.62 141.24 77.7 141.17L78.89 138.93L88.97 138.93L88.97 138.92Z" /><path class="shp0" d="M87.85 141.38L87.85 141.45L77.47 141.45C77.47 141.45 77.54 141.45 77.54 141.38L87.85 141.38Z" /><path class="shp0" d="M85.31 62.71L87.33 62.71C86.96 62.78 86.58 63.01 86.28 63.23C86.21 63.08 86.06 62.93 85.91 62.86C85.76 62.78 85.54 62.71 85.31 62.71Z" /><path class="shp0" d="M86.28 63.23C86.58 63.53 86.65 64.05 86.43 64.5L86.36 64.72L86.29 64.79C86.22 64.79 86.22 64.79 86.22 64.79C85.77 65.24 85.25 65.31 84.8 65.01L85.32 63.96C85.39 63.83 85.76 63.53 86.28 63.23Z" /><path class="shp0" d="M85.91 62.86C86.06 62.93 86.21 63.08 86.28 63.23C85.76 63.53 85.38 63.83 85.31 63.98L84.79 65.03C84.64 64.96 84.49 64.88 84.42 64.81C84.12 64.51 83.97 63.99 84.12 63.54C84.19 63.47 84.19 63.47 84.19 63.39C84.26 63.24 84.34 63.17 84.49 63.09C84.56 63.02 84.64 62.94 84.71 62.87C84.93 62.8 85.08 62.72 85.31 62.72C85.54 62.72 85.76 62.78 85.91 62.86Z" /><path class="shp0" d="M86.28 64.8L86.06 65.17L85.91 65.47L46.65 138.32C46.58 138.39 46.58 138.47 46.5 138.47L84.79 65.02C85.24 65.32 85.76 65.24 86.21 64.8C86.21 64.8 86.21 64.8 86.28 64.8Z" /><path class="shp0" d="M85.91 65.47L47.62 138.92L46.28 138.92L46.5 138.47C46.57 138.47 46.57 138.4 46.65 138.32L85.91 65.47Z" /><path class="shp0" d="M84.79 65.02L46.5 138.47C46.28 138.77 45.98 138.92 45.6 138.92L45.53 138.92C45.38 138.92 45.16 138.92 45.01 138.77C45.01 138.77 44.94 138.77 44.94 138.7L83.68 64.43L84.13 63.53C83.98 63.98 84.13 64.5 84.43 64.8C84.49 64.87 84.64 64.95 84.79 65.02Z" /><path class="shp0" d="M84.71 62.86C84.64 62.93 84.56 63.01 84.49 63.08C84.57 62.93 84.64 62.86 84.71 62.86Z" /><path class="shp0" d="M84.49 63.08C84.34 63.15 84.27 63.23 84.19 63.38C84.26 63.31 84.34 63.16 84.41 63.08C84.42 63.08 84.42 63.08 84.49 63.08Z" /><path class="shp0" d="M83.67 64.43L44.93 138.7C44.33 138.4 44.11 137.73 44.48 137.13L83.67 64.43Z" /><path class="shp0" d="M78.89 138.92L77.7 141.16C77.63 141.23 77.63 141.31 77.55 141.38L76.06 141.38C76.43 141.38 76.73 141.08 76.96 140.78L77.93 138.91L78.89 138.91L78.89 138.92Z" /><path class="shp0" d="M77.92 138.92L76.95 140.79C76.73 141.09 76.43 141.39 76.05 141.39L75.6 141.39C75.53 141.39 75.38 141.39 75.3 141.32C74.85 141.1 74.63 140.65 74.63 140.2L75.82 140.2L76.49 138.93L77.92 138.93L77.92 138.92Z" /><path class="shp0" d="M77.55 141.38C77.55 141.45 77.48 141.45 77.48 141.45L75.84 141.45C75.91 141.45 75.99 141.45 76.06 141.38L77.55 141.38Z" /><path class="shp0" d="M75.83 141.46L77.47 141.46C77.1 141.98 76.42 142.28 75.83 142.28C75.53 142.28 75.16 142.21 74.86 142.06C74.64 141.91 74.41 141.76 74.26 141.46L75.83 141.46Z" /><path class="shp0" d="M76.5 138.92L75.83 140.19L74.64 140.19C74.64 140.04 74.64 139.82 74.79 139.59L75.09 138.92L75.16 138.92L76.5 138.92L76.5 138.92Z" /><path class="shp0" d="M76.06 141.38C75.99 141.45 75.91 141.45 75.84 141.45C75.77 141.45 75.69 141.45 75.62 141.38L76.06 141.38Z" /><path class="shp0" d="M75.83 141.46L74.26 141.46L74.19 141.39L75.61 141.39C75.68 141.46 75.76 141.46 75.83 141.46Z" /><path class="shp0" d="M75.61 141.38L74.19 141.38C73.97 141.08 73.82 140.63 73.82 140.19L74.64 140.19C74.64 140.64 74.86 141.09 75.31 141.31C75.38 141.38 75.53 141.38 75.61 141.38Z" /><path class="shp0" d="M75.09 138.92L74.79 139.59C74.64 139.81 74.64 140.04 74.64 140.19L73.82 140.19C73.82 139.89 73.89 139.52 74.04 139.22L74.19 138.92L75.09 138.92L75.09 138.92Z" /><path class="shp0" d="M74.26 141.46L45.6 141.46C45.67 141.46 45.67 141.46 45.75 141.39L74.19 141.39L74.26 141.46Z" /><path class="shp0" d="M74.19 138.92L74.04 139.22C73.89 139.52 73.82 139.89 73.82 140.19L46.95 140.19L47.62 138.92L74.19 138.92Z" /><path class="shp0" d="M74.19 141.38L45.75 141.38C46.12 141.38 46.42 141.08 46.65 140.78L46.95 140.18L73.82 140.18C73.82 140.64 73.97 141.08 74.19 141.38Z" /><path class="shp0" d="M47.62 138.92L46.95 140.19L45.6 140.19L46.27 138.92L47.62 138.92Z" /><path class="shp0" d="M46.95 140.19L46.65 140.79C46.43 141.09 46.13 141.39 45.75 141.39L45.3 141.39C45.23 141.39 45.08 141.39 45 141.32C44.85 141.25 44.7 141.17 44.63 141.02C44.56 140.95 44.48 140.87 44.48 140.72C44.41 140.57 44.33 140.42 44.33 140.2C44.33 139.98 44.4 139.75 44.48 139.6C44.7 139.23 45.08 138.93 45.53 138.93L45.6 138.93L46.27 138.93L45.6 140.2L46.95 140.2L46.95 140.19Z" /><path class="shp0" d="M46.5 138.47L46.28 138.92L45.6 138.92C45.98 138.92 46.27 138.77 46.5 138.47Z" /><path class="shp0" d="M45.75 141.38C45.68 141.45 45.68 141.45 45.6 141.45C45.52 141.45 45.53 141.45 45.45 141.45C45.38 141.45 45.38 141.45 45.3 141.38L45.75 141.38Z" /><path class="shp0" d="M45.53 138.92L44.86 138.92L44.93 138.7C44.93 138.77 45 138.77 45 138.77C45.15 138.92 45.38 138.92 45.53 138.92Z" /><path class="shp0" d="M44.86 138.92L45.53 138.92C45.08 138.92 44.71 139.22 44.48 139.59L44.86 138.92Z" /><path class="shp0" d="M45.45 141.46L39.7 141.46C39.63 141.46 39.55 141.46 39.48 141.46C39.55 141.39 39.63 141.39 39.7 141.39L45.07 141.39C45.14 141.39 45.22 141.39 45.29 141.39C45.38 141.46 45.38 141.46 45.45 141.46Z" /><path class="shp0" d="M45.3 141.38C45.23 141.38 45.15 141.38 45.08 141.38C45.08 141.31 45.01 141.31 45.01 141.31C45.08 141.38 45.23 141.38 45.3 141.38Z" /><path class="shp0" d="M45.08 141.38L39.71 141.38C39.64 141.38 39.56 141.38 39.49 141.45C38.89 141.3 38.44 140.78 38.44 140.18C38.44 139.51 39.04 138.91 39.71 138.91L44.86 138.91L44.49 139.58C44.42 139.73 44.34 139.95 44.34 140.18C44.34 140.4 44.41 140.55 44.49 140.7C44.49 140.77 44.56 140.92 44.64 141C44.71 141.15 44.86 141.22 45.01 141.3C45 141.31 45.08 141.31 45.08 141.38Z" /><path class="shp0" d="M44.48 140.71C44.48 140.86 44.55 140.93 44.63 141.01C44.56 140.93 44.48 140.79 44.48 140.71Z" /></g></g></g></g></g></svg>