<svg xmlns="http://www.w3.org/2000/svg" viewBox="0 0 209 209" width="256" height="256"><style>tspan { white-space:pre }.shp0 { fill: #006837;stroke: #ffffff;stroke-width: 0.5 } .shp1 { fill: #ffffff } .shp2 { fill: #006837 } </style><g ></g><g ><g ><g ><g ><path class="shp0" d="M34.25 184.97C29.83 183.8 26.3 180.5 24.89 176.14L24.89 31.94C26.3 27.6 29.83 24.26 34.25 23.11L177.38 23.11C181.81 24.26 185.33 27.61 186.76 31.94L186.76 176.14C185.33 180.5 181.81 183.81 177.38 184.97L34.25 184.97Z" /></g></g><g ><g ><path class="shp1" d="M45.62 143.7L45.52 120.86L48.64 115.6L48.76 108.33L53.39 93.49L59.88 85.58L71.37 76.01L83.49 64.31L88.5 58.7L103.12 55.22L112.24 57.52L118 61.02L123.62 60.67L128.37 62.32L132.37 66.29L141.24 66.96L148.74 70.23L152.86 75.2L156.37 80.46L157.61 90.53L158.73 97.95L158.1 105.37L161.22 115.26L164.23 129.11L165.14 143.7" /><path class="shp1" d="M165.14 144.58C164.68 144.58 164.29 144.22 164.26 143.75L163.35 129.17L160.36 115.45L157.26 105.64C157.23 105.53 157.22 105.41 157.23 105.3L157.86 97.89L156.75 90.67L155.52 80.78L152.13 75.7L148.2 70.96L141.02 67.83L132.3 67.17C132.09 67.16 131.9 67.07 131.75 66.92L127.88 63.09L123.5 61.56L118.05 61.9C117.84 61.95 117.7 61.87 117.54 61.78L111.89 58.35L103.1 56.14L88.96 59.5L84.14 64.9L71.98 76.64L60.44 86.25L54.17 93.91L49.63 108.47L49.5 115.61C49.5 115.76 49.46 115.91 49.38 116.04L46.39 121.09L46.48 143.69C46.49 144.18 46.09 144.57 45.6 144.58L45.6 144.58C45.12 144.58 44.72 144.19 44.72 143.7L44.62 120.86C44.62 120.7 44.65 120.54 44.74 120.41L47.74 115.35L47.87 108.32C47.87 108.24 47.88 108.16 47.9 108.08L52.52 93.24C52.55 93.13 52.61 93.03 52.68 92.94L59.17 85.03L70.78 75.34L82.86 63.68L87.82 58.12C87.94 57.98 88.1 57.89 88.27 57.85L102.89 54.37C103.03 54.34 103.17 54.34 103.31 54.37L112.43 56.67C112.52 56.69 112.59 56.73 112.67 56.77L118.2 60.12L123.55 59.78C123.65 59.73 123.78 59.79 123.89 59.83L128.64 61.48C128.76 61.52 128.87 61.59 128.97 61.68L132.74 65.42L141.28 66.07C141.37 66.08 141.47 66.1 141.56 66.14L149.06 69.42C149.19 69.48 149.3 69.56 149.39 69.66L153.51 74.63L157.07 79.96C157.15 80.08 157.2 80.2 157.22 80.34L158.47 90.41L159.58 97.81L158.98 105.25L162.05 114.98L165.08 128.91L166.01 143.62C166.04 144.11 165.67 144.52 165.18 144.55C165.18 144.58 165.16 144.58 165.14 144.58Z" /></g></g><g ><g ><g ><path class="shp2" d="M139.76 143.5C139.83 144.98 138.73 146.24 137.32 146.31C137.25 146.31 137.17 146.31 137.1 146.31C135.7 146.31 134.59 145.28 134.44 143.87L134.44 143.72L137.1 143.72L136.58 136.77L134.81 129.53L129.56 114.97L130.15 108.24L122.39 107.8L117.73 103.81L112.48 104.11L103.68 99.45L102.94 99.3C102.94 99.3 100.87 99.74 100.8 99.74L87.12 111.27C87.12 111.27 76.92 118.66 76.92 118.74L76.62 119.55L76.4 130.56L73.52 134.77L73.59 143.72L76.18 143.72C76.18 145.12 75.07 146.31 73.59 146.31C72.11 146.31 70.93 145.13 70.93 143.72L70.86 134.77C70.86 134.25 71.08 133.74 71.38 133.29L73.75 129.74L73.97 119.54C73.97 119.24 74.04 118.95 74.12 118.65L74.42 117.84C74.49 117.62 74.64 117.4 74.79 117.17C75.09 116.73 75.09 116.73 85.58 109.19L99.11 97.66C99.63 97.29 100.22 97.07 100.81 97.07L102.44 96.7C102.81 96.63 103.18 96.63 103.55 96.7L104.29 96.85L113.09 101.36L117.67 101.14C118.34 101.14 119 101.36 119.52 101.81L123.44 105.21L130.39 105.65C131.06 105.65 131.72 106.02 132.16 106.54C132.68 107.13 132.9 107.8 132.83 108.54L132.24 114.6L137.34 128.65L139.19 136.19L139.76 143.5Z" /><path class="shp2" d="M136.58 136.78L137.1 143.73L134.44 143.73L134 137L132.23 130.2L127.06 115.86C126.91 115.49 126.84 115.12 126.91 114.75L127.28 110.76L122.18 110.39C121.66 110.39 121.07 110.17 120.63 109.8L116.86 106.47L112.65 106.69C112.21 106.69 111.69 106.62 111.32 106.39L102.89 101.95C102.52 102.02 102.3 102.1 102.08 102.17L88.85 113.33C88.7 113.4 81.53 118.58 79.24 120.28L79.02 130.63C79.02 131.15 78.87 131.66 78.58 132.11L76.21 135.58L76.21 143.71L73.62 143.71L73.55 134.76L76.43 130.55L76.65 119.54L76.95 118.73C76.95 118.66 87.15 111.26 87.15 111.26L100.83 99.73C100.9 99.73 102.97 99.29 102.97 99.29L103.71 99.44L112.51 104.1L117.76 103.8L122.42 107.79L130.18 108.23L129.59 114.96L134.84 129.52L136.58 136.78Z" /><path class="shp2" d="M133.99 137L134.43 143.73L76.18 143.73L76.18 135.6L78.55 132.13C78.85 131.69 78.99 131.17 78.99 130.65L79.21 120.3C81.5 118.6 88.67 113.42 88.82 113.35L102.05 102.19C102.27 102.12 102.49 102.04 102.86 101.97L111.29 106.41C111.66 106.63 112.18 106.71 112.62 106.71L116.83 106.49L120.6 109.82C121.04 110.19 121.63 110.41 122.15 110.41L127.25 110.78L126.88 114.77C126.81 115.14 126.88 115.51 127.03 115.88L132.2 130.22L133.99 137Z" /></g></g></g><g ><g ><path fill-rule="evenodd" class="shp1" d="M192.91 208.14L15.85 208.14C15.51 208.14 15.16 208.09 14.83 208.01C8.06 206.2 2.71 201.14 0.5 194.47C0.37 194.07 0.3 193.65 0.3 193.23L0.3 14.84C0.3 14.41 0.37 13.99 0.51 13.59C2.73 6.92 8.08 1.87 14.85 0.1C15.18 0.01 15.52 -0.03 15.86 -0.03L192.92 -0.03C193.26 -0.03 193.6 0.02 193.93 0.1C200.71 1.88 206.08 6.93 208.28 13.6C208.41 14 208.48 14.42 208.48 14.84L208.48 193.22C208.48 193.64 208.41 194.05 208.28 194.45C206.1 201.13 200.74 206.19 193.95 208.01C193.59 208.09 193.25 208.14 192.91 208.14ZM16.4 200.21L192.36 200.21C196.14 199.05 199.14 196.23 200.54 192.54L200.54 15.52C199.14 11.83 196.14 9.03 192.36 7.89L16.4 7.89C12.64 9.02 9.64 11.83 8.22 15.52L8.22 192.54C9.63 196.23 12.63 199.05 16.4 200.21Z" /></g></g><g ><g ><path class="shp1" d="M177.95 147.66L30.81 147.66C28.63 147.66 26.85 145.88 26.85 143.7C26.85 141.51 28.63 139.74 30.81 139.74L177.95 139.74C180.13 139.74 181.91 141.52 181.91 143.7C181.91 145.88 180.13 147.66 177.95 147.66Z" /></g></g></g></g></svg>