<svg xmlns="http://www.w3.org/2000/svg" viewBox="0 0 212 212" width="256" height="256"><style>tspan { white-space:pre }.shp0 { fill: #006837 } .shp1 { fill: #ffffff } </style><g ></g><g ><g ><g ><g ><path class="shp0" d="M34.76 188.03C30.28 186.85 26.71 183.49 25.27 179.08L25.27 33.03C26.71 28.65 30.28 25.26 34.76 24.1L179.71 24.1C184.19 25.26 187.77 28.66 189.21 33.03L189.21 179.08C187.77 183.49 184.19 186.84 179.71 188.03L34.76 188.03Z" /><path fill-rule="evenodd" class="shp1" d="M179.71 190.18L34.76 190.18C34.57 190.18 34.39 190.15 34.2 190.11C29 188.73 24.89 184.86 23.22 179.75C23.14 179.54 23.11 179.31 23.11 179.08L23.11 33.03C23.11 32.8 23.14 32.58 23.22 32.36C24.9 27.23 29.01 23.36 34.22 22.01C34.4 21.96 34.57 21.94 34.76 21.94L179.71 21.94C179.9 21.94 180.07 21.97 180.25 22.01C185.45 23.36 189.57 27.23 191.26 32.36C191.34 32.58 191.37 32.81 191.37 33.03L191.37 179.08C191.37 179.31 191.34 179.53 191.26 179.75C189.59 184.86 185.48 188.73 180.27 190.11C180.08 190.16 179.9 190.18 179.71 190.18ZM35.06 185.87L179.42 185.87C182.99 184.84 185.81 182.19 187.06 178.72L187.06 33.39C185.81 29.9 182.98 27.26 179.43 26.25L35.05 26.25C31.5 27.26 28.68 29.9 27.43 33.39L27.43 178.72C28.67 182.2 31.49 184.84 35.06 185.87Z" /></g></g><g ><g ><path fill-rule="evenodd" class="shp1" d="M195.44 211.77L16.13 211.77C15.76 211.77 15.39 211.72 15.03 211.63C8.05 209.79 2.54 204.59 0.29 197.71C0.16 197.28 0.08 196.83 0.08 196.37L0.08 15.73C0.08 15.27 0.16 14.82 0.3 14.38C2.57 7.5 8.08 2.31 15.05 0.5C15.4 0.41 15.77 0.36 16.14 0.36L195.45 0.36C195.82 0.36 196.18 0.41 196.54 0.5C203.51 2.32 209.02 7.51 211.28 14.39C211.42 14.82 211.5 15.28 211.5 15.74L211.5 196.38C211.5 196.83 211.42 197.29 211.29 197.72C209.04 204.59 203.53 209.79 196.55 211.64C196.18 211.72 195.81 211.77 195.44 211.77ZM16.73 203.15L194.84 203.15C198.54 202.01 201.48 199.25 202.86 195.63L202.86 16.47C201.47 12.9 198.47 10.09 194.84 8.98L16.72 8.98C13.04 10.1 10.1 12.85 8.7 16.47L8.7 195.63C10.09 199.25 13.04 202.01 16.73 203.15Z" /></g></g><g ><path class="shp1" d="M186.14 158.14L25.27 158.14C22.89 158.14 20.96 156.21 20.96 153.83C20.96 151.45 22.89 149.52 25.27 149.52L186.14 149.52C188.52 149.52 190.45 151.45 190.45 153.83C190.46 156.21 188.53 158.14 186.14 158.14Z" /></g><g ><path class="shp1" d="M46.16 149.83C47.46 149.83 55.22 133.46 56.93 130.87C58.66 128.29 62.54 116.24 62.97 113.64C63.39 111.06 62.11 105.9 62.97 102.45C63.83 99 62.54 97.55 65.99 94.19C69.43 90.83 69.86 86.52 69.86 84.78C69.86 83.07 70.3 75.32 72.02 74.02C73.74 72.72 77.19 65.84 79.34 67.14C81.5 68.42 90.11 66.38 91.4 66.97C92.7 67.56 101.31 83.07 101.31 83.07C101.31 83.07 101.31 94.66 101.31 96.4C101.31 98.14 98.29 108.91 101.31 111.92C104.32 114.93 109.49 124.52 109.49 125.11C109.49 125.7 109.49 130.44 109.49 130.44C109.49 130.44 113.36 136.46 113.79 137.76C114.22 139.05 115.52 147.69 115.52 147.69L115.52 153.82L46.16 153.82L46.16 149.83Z" /><path fill-rule="evenodd" class="shp1" d="M115.51 154.69L46.16 154.69C45.68 154.69 45.3 154.3 45.3 153.83L45.3 149.84C45.3 149.45 45.55 149.13 45.9 149.02C46.92 148.13 50.53 141.13 52.71 136.93C54.25 133.94 55.59 131.35 56.2 130.41C57.83 127.99 61.7 116.02 62.11 113.52C62.27 112.53 62.14 110.98 62.01 109.35C61.82 107.02 61.6 104.37 62.13 102.26C62.37 101.29 62.42 100.49 62.48 99.71C62.62 97.81 62.74 96.16 65.37 93.59C68.73 90.32 68.99 86.04 68.99 84.8C68.99 84.7 69.13 75.12 71.48 73.35C71.95 72.99 72.73 71.91 73.49 70.87C75.44 68.18 77.63 65.13 79.76 66.41C80.77 67.01 84.5 66.58 86.94 66.31C89.6 66.01 91.02 65.86 91.73 66.19C93.08 66.81 98.76 76.77 102.04 82.66C102.11 82.79 102.14 82.93 102.14 83.08L102.14 96.41C102.14 96.89 101.99 97.72 101.76 98.98C101.15 102.34 99.88 109.31 101.89 111.32C104.84 114.26 110.33 124.03 110.33 125.12L110.33 130.2C111.1 131.4 114.18 136.24 114.59 137.5C115.03 138.82 116.22 146.69 116.35 147.58L116.36 153.83C116.37 154.3 115.99 154.69 115.51 154.69ZM114.65 152.96L114.65 147.7C114.14 144.38 113.26 138.93 112.97 138.04C112.68 137.17 110.23 133.21 108.76 130.92C108.67 130.78 108.63 130.62 108.63 130.45L108.63 125.12C108.38 124.33 103.48 115.32 100.7 112.54C98.06 109.9 99.33 102.87 100.09 98.68C100.27 97.68 100.44 96.73 100.44 96.41L100.44 83.3C96.45 76.14 91.84 68.4 90.96 67.72C90.64 67.6 88.62 67.85 87.16 68.02C83.2 68.47 80.3 68.72 78.89 67.88C78.84 67.85 78.78 67.83 78.71 67.83C77.83 67.83 75.8 70.63 74.9 71.87C73.99 73.12 73.21 74.19 72.53 74.7C71.42 75.54 70.71 81.79 70.71 84.78C70.71 86.58 70.31 91.16 66.58 94.8C64.41 96.91 64.32 98.06 64.2 99.81C64.14 100.62 64.07 101.54 63.8 102.65C63.35 104.49 63.56 106.98 63.73 109.18C63.87 110.92 64.01 112.57 63.81 113.77C63.4 116.27 59.52 128.54 57.64 131.34C57.08 132.2 55.69 134.87 54.24 137.7C49.75 146.37 48.05 149.35 47.02 150.29L47.02 152.96L114.65 152.96Z" /></g><g ><path class="shp1" d="M162.46 151.12C162.46 151.12 153.85 132.6 153.85 129.59C153.85 126.56 159.88 126.56 153.85 119.68C147.82 112.79 147.82 112.64 147.82 110.34C147.82 108.05 145.66 100.3 145.66 100.3L145.66 94.19L137.05 84.37C137.05 84.37 131.02 80.48 131.02 82.21C131.02 83.93 128.01 89.8 128.44 94.19C128.87 98.57 124.99 108.11 124.99 109.16C124.99 110.2 125.85 112.77 124.99 116.43C124.13 120.1 121.11 125.11 121.11 125.11C121.11 125.11 117.67 129.59 118.1 130.86C118.53 132.16 114.07 135.26 114.07 135.26L113.22 136.6L115.51 145.22L115.51 150.39L115.51 153.81L163.89 153.81L162.46 151.12Z" /><path fill-rule="evenodd" class="shp1" d="M163.89 154.69L115.51 154.69C115.03 154.69 114.65 154.3 114.65 153.83L114.65 145.35L112.38 136.84C112.32 136.6 112.35 136.36 112.49 136.15L113.34 134.81C113.4 134.71 113.47 134.63 113.57 134.57C115.44 133.27 117.19 131.6 117.26 131.06C116.77 129.66 119.03 126.41 120.42 124.6C120.42 124.6 123.33 119.73 124.14 116.25C124.75 113.66 124.45 111.68 124.25 110.36C124.17 109.86 124.12 109.46 124.12 109.17C124.12 108.75 124.33 108.06 124.99 106.03C126.06 102.71 127.86 97.16 127.58 94.28C127.28 91.26 128.47 87.69 129.35 85.08C129.76 83.85 130.16 82.68 130.16 82.21C130.16 81.71 130.39 81.3 130.8 81.08C131.82 80.56 134.06 81.41 137.51 83.64C137.58 83.68 137.64 83.74 137.7 83.8L146.31 93.62C146.44 93.78 146.52 93.98 146.52 94.19L146.52 100.18C146.8 101.19 148.68 108.09 148.68 110.34C148.68 112.34 148.68 112.46 154.5 119.11C158.74 123.96 157.51 126.01 155.75 127.86C155.11 128.54 154.71 128.98 154.71 129.59C154.71 131.64 159.94 143.64 163.24 150.74L164.65 153.42C164.79 153.69 164.78 154.01 164.63 154.27C164.47 154.53 164.19 154.69 163.89 154.69ZM162.46 152.96L161.7 151.53C161.69 151.52 161.68 151.5 161.67 151.49C160.78 149.58 152.98 132.71 152.98 129.6C152.98 128.27 153.79 127.43 154.5 126.68C155.76 125.36 156.75 124.32 153.19 120.26C147.18 113.39 146.95 113.02 146.95 110.35C146.95 108.57 145.42 102.66 144.82 100.54C144.8 100.46 144.79 100.39 144.79 100.31L144.79 94.53L136.47 85.04C134.64 83.87 132.68 82.89 131.83 82.68C131.72 83.4 131.39 84.38 130.97 85.64C130.15 88.1 129.02 91.47 129.29 94.12C129.61 97.36 127.82 102.9 126.63 106.57C126.27 107.67 125.86 108.92 125.84 109.2C125.84 109.41 125.9 109.72 125.96 110.11C126.16 111.47 126.51 113.74 125.83 116.65C124.95 120.41 121.97 125.37 121.85 125.58C120.2 127.74 118.86 130.06 118.93 130.65C119.44 132.16 116.95 134.32 114.71 135.9L114.15 136.78L116.35 145.04C116.37 145.12 116.38 145.19 116.38 145.26L116.38 152.96L162.46 152.96Z" /></g></g></g></svg>