<svg xmlns="http://www.w3.org/2000/svg" viewBox="0 0 212 212" width="256" height="256"><style>tspan { white-space:pre }.shp0 { fill: #2e3192 } .shp1 { fill: #ffffff } </style><g ></g><g ><g ><g ><g ><g ><path class="shp0" d="M179.72 125.26L179.56 125.18C179.56 125.18 178.99 124.36 177.68 123.3C176.38 122.32 174.34 120.77 171.4 119.96C168.63 119.06 164.96 118.57 161.12 119.23C159.16 119.56 157.29 119.88 155.17 120.94L147.67 112.7C147.83 112.62 147.91 112.37 147.83 112.21L147.75 111.88C147.75 111.96 147.42 111.06 146.53 109.76C145.63 108.54 143.92 106.82 141.39 105.76L142.45 99.64C146.28 100.13 150.93 100.05 155.34 98.82C158.28 97.84 160.8 96.7 163.5 96.45C166.19 96.04 168.72 96.12 170.84 96.45C175.16 97.1 177.77 98.57 177.77 98.57C177.85 98.57 177.93 98.65 178.1 98.57C178.18 98.49 178.26 98.41 178.26 98.33L188.46 98.33L188.46 125.41L179.73 125.41C179.72 125.34 179.72 125.34 179.72 125.26Z" /><path class="shp1" d="M134.78 95C136.08 94.84 137.88 94.51 140.08 94.1C142.12 93.69 144.32 93.2 146.52 92.71C148.72 92.14 151.01 91.73 153.04 91C153.61 90.92 154.18 90.76 154.67 90.59L157.04 89.94C159.16 89.29 160.87 89.45 162.59 89.37C166.1 89.45 169.28 90.35 171.64 91.65C174.09 92.87 175.8 94.5 176.78 95.73C177.76 96.95 178.08 97.93 178.08 97.85L178.24 98.18C178.24 98.26 178.24 98.26 178.24 98.34C178.24 98.42 178.16 98.5 178.08 98.58C177.92 98.66 177.84 98.58 177.75 98.58C177.75 98.58 175.14 97.11 170.82 96.46C168.7 96.13 166.17 96.05 163.48 96.46C160.79 96.7 158.26 97.85 155.32 98.83C150.92 100.05 146.27 100.13 142.43 99.65L142.43 99.57C141.21 99.41 139.98 99.16 138.92 98.92C134.52 97.78 131.99 96.07 131.99 96.07C131.83 95.99 131.75 95.74 131.91 95.58C131.91 95.5 132.07 95.42 132.15 95.42L132.39 95.34C132.41 95.33 133.23 95.25 134.78 95Z" /><path class="shp1" d="M135.11 127.22C139.92 126.73 145.79 125.51 150.77 123.14C151.42 122.81 152.07 122.57 152.65 122.24L153.95 121.51L155.17 120.94C157.29 119.88 159.17 119.55 161.12 119.23C164.95 118.58 168.62 119.07 171.4 119.96C174.34 120.78 176.38 122.33 177.68 123.3C178.98 124.36 179.56 125.18 179.56 125.18L179.72 125.26C179.72 125.34 179.72 125.34 179.72 125.42C179.72 125.5 179.72 125.58 179.64 125.66C179.56 125.74 179.4 125.74 179.31 125.66C179.31 125.66 176.21 124.03 171.07 123.62C168.54 123.38 165.52 123.54 162.42 124.35C160.95 124.76 159.32 125.33 157.93 126.06C156.38 126.88 154.99 127.85 153.36 128.67C146.92 131.61 139.58 131.85 134.44 130.79C129.22 129.81 126.2 128.02 126.2 128.02C126.04 127.94 126.04 127.69 126.12 127.61C126.12 127.45 126.28 127.45 126.36 127.45L126.44 127.45C126.44 127.45 127.42 127.45 129.05 127.45C130.54 127.62 132.74 127.38 135.11 127.22Z" /><path class="shp1" d="M132.33 82.69C134.37 82.53 136.49 81.96 138.37 80.9C138.86 80.74 139.35 80.49 139.84 80.25L141.72 79.27C143.43 78.54 144.82 78.13 146.37 77.88C149.47 77.39 152.32 78.29 154.44 79.18C156.56 80.16 157.87 81.71 158.68 82.61C159.5 83.59 159.74 84.32 159.82 84.24L159.82 84.4C159.9 84.48 159.82 84.56 159.74 84.64C159.66 84.64 159.58 84.64 159.5 84.56C159.5 84.56 159.01 84.15 158.11 83.5C157.13 82.85 155.66 82.03 153.79 81.54C151.83 80.97 149.47 80.81 147.1 81.3C144.65 81.71 142.53 83.26 140.09 84.56C135.11 87.01 129.16 86.52 125.49 84.72C123.61 83.9 122.23 82.93 121.33 82.19C120.43 81.46 119.94 80.97 119.94 80.97C119.86 80.97 119.86 80.81 119.86 80.73C119.94 80.65 120.02 80.65 120.1 80.65L120.18 80.73C120.18 80.73 120.83 80.97 121.97 81.38C123.03 81.79 124.74 82.11 126.46 82.52C128.25 82.93 130.29 82.77 132.33 82.69Z" /><path class="shp1" d="M131.68 104.62C135.35 103.97 138.86 104.54 141.39 105.76C143.92 106.82 145.63 108.53 146.53 109.76C147.43 111.06 147.75 111.96 147.75 111.88L147.83 112.21C147.91 112.37 147.83 112.62 147.67 112.7C147.51 112.7 147.43 112.7 147.34 112.62C147.34 112.62 144.97 110.99 140.82 110.58C138.78 110.42 136.33 110.58 133.97 111.48C132.75 111.89 131.52 112.46 130.46 113.19C129.32 113.92 128.34 114.9 127.03 115.64C121.89 118.66 115.69 118.98 111.53 117.84C109.41 117.27 107.78 116.54 106.64 115.96C105.5 115.31 104.93 114.9 104.93 114.9C104.77 114.82 104.77 114.57 104.85 114.41C104.93 114.33 105.01 114.25 105.09 114.25L105.33 114.25C105.33 114.25 106.23 114.17 107.7 114.01C109 113.77 110.8 113.44 112.59 113.03C114.47 112.54 116.26 111.89 117.97 111.15C119.68 110.33 121.31 109.68 122.86 108.62C123.19 108.46 123.68 108.21 124 107.97L124.33 107.81L125.15 107.24L126.05 106.67C128.09 105.44 129.89 105.11 131.68 104.62Z" /><path class="shp1" d="M87.15 103.65C89.03 103.16 90.82 102.51 92.53 101.77C94.24 100.95 95.96 100.3 97.42 99.24C97.83 99.08 98.24 98.83 98.56 98.59L98.89 98.43L99.71 97.86L100.61 97.29C102.73 96.07 104.44 95.74 106.32 95.25C109.91 94.6 113.42 95.17 115.94 96.39C118.47 97.53 120.18 99.16 121.08 100.39C121.98 101.69 122.3 102.59 122.3 102.59L122.38 102.92C122.46 103.08 122.38 103.25 122.22 103.33C122.06 103.33 121.98 103.33 121.89 103.25C121.89 103.25 119.52 101.7 115.37 101.29C113.33 101.05 110.88 101.29 108.52 102.11C107.3 102.52 106.15 103.09 105.01 103.82C103.87 104.55 102.89 105.53 101.58 106.27C96.44 109.29 90.24 109.61 86.08 108.47C83.96 107.9 82.33 107.17 81.19 106.59C80.13 105.94 79.56 105.61 79.56 105.61C79.32 105.45 79.32 105.2 79.4 105.04C79.48 104.96 79.56 104.88 79.73 104.88L79.97 104.88C79.97 104.88 80.79 104.8 82.25 104.64C83.56 104.38 85.35 104.05 87.15 103.65Z" /><path class="shp1" d="M83.97 84.23C85.52 84.07 87.07 83.66 88.46 82.84C88.79 82.76 89.19 82.68 89.52 82.43L91.07 81.78C92.46 81.29 93.6 81.05 94.82 80.88C97.27 80.55 99.47 81.37 101.1 82.1C102.81 82.83 103.79 84.14 104.44 84.87C105.09 85.69 105.26 86.26 105.26 86.26L105.34 86.34C105.34 86.42 105.34 86.58 105.18 86.58C105.18 86.58 105.1 86.58 105.02 86.58C105.02 86.58 103.47 85.11 100.53 84.38C99.06 84.05 97.27 83.97 95.47 84.3C93.59 84.63 91.96 85.69 90.01 86.58C86.1 88.29 81.61 87.88 78.75 86.74C75.81 85.6 74.35 84.05 74.35 84.05C74.27 83.97 74.27 83.89 74.35 83.81C74.43 83.73 74.43 83.73 74.51 83.73L74.59 83.73C74.59 83.73 75.16 83.89 76.14 84.06C76.96 84.3 78.26 84.3 79.65 84.47C80.95 84.64 82.5 84.32 83.97 84.23Z" /><path class="shp1" d="M89.68 129.99C87.97 130.81 86.42 131.87 84.62 132.6C77.52 135.62 69.61 135.78 63.99 134.72C58.36 133.74 54.94 131.95 54.94 131.95C54.86 131.87 54.78 131.62 54.86 131.54C54.94 131.38 55.02 131.38 55.1 131.38L55.18 131.38C55.18 131.38 55.42 131.38 55.75 131.38C56.24 131.38 56.97 131.38 57.95 131.38C59.58 131.54 61.95 131.22 64.64 131.14C69.86 130.65 76.47 129.51 82.26 126.98C82.91 126.65 83.65 126.41 84.3 126.08L85.77 125.35L87.07 124.78C89.44 123.72 91.39 123.39 93.51 123.07C94.73 122.91 95.88 122.83 97.02 122.83C99.79 122.83 102.32 123.24 104.44 123.89C107.54 124.71 109.74 126.26 111.21 127.23C112.76 128.21 113.41 129.11 113.41 129.02L113.49 129.18C113.57 129.26 113.57 129.51 113.49 129.59C113.41 129.67 113.25 129.67 113.16 129.59C113.16 129.59 109.73 127.96 104.11 127.55C101.34 127.31 98.07 127.47 94.65 128.28C93.02 128.69 91.31 129.26 89.68 129.99Z" /><path class="shp1" d="M82.91 94.51C82.99 94.59 82.99 94.67 82.91 94.75C82.83 94.75 82.75 94.75 82.67 94.75C82.67 94.75 80.3 93.28 76.31 92.55C74.27 92.22 71.91 92.14 69.38 92.47C66.85 92.8 64.4 93.86 61.71 94.84C56.41 96.47 50.62 96.14 46.62 95C42.62 93.86 40.34 92.23 40.34 92.23C40.26 92.23 40.18 92.07 40.26 91.99C40.34 91.91 40.42 91.91 40.5 91.91C40.5 91.91 41.23 91.99 42.46 92.24C43.6 92.48 45.4 92.48 47.27 92.65C49.15 92.89 51.43 92.49 53.71 92.41C55.91 92.25 58.36 91.76 60.56 90.94C61.13 90.78 61.7 90.7 62.27 90.45L64.31 89.8C66.02 89.31 67.41 89.15 68.88 88.98C71.9 88.74 74.59 89.55 76.71 90.2C78.91 90.93 80.46 92.16 81.44 92.97C82.42 93.79 82.83 94.44 82.91 94.44L82.91 94.51Z" /><path class="shp1" d="M70.1 112.05C72.71 113.19 74.34 114.82 75.24 116.13C76.22 117.35 76.46 118.25 76.46 118.25L76.54 118.58C76.62 118.74 76.54 118.91 76.38 118.99C76.22 118.99 76.14 118.99 76.05 118.99C76.05 118.99 73.68 117.36 69.53 116.95C67.49 116.71 65.13 116.95 62.68 117.77C61.54 118.18 60.31 118.75 59.17 119.48C58.03 120.21 57.05 121.19 55.74 121.93C50.6 124.95 44.4 125.27 40.24 124.13C38.12 123.56 36.49 122.83 35.35 122.25C34.29 121.68 33.72 121.27 33.72 121.27C33.56 121.19 33.48 121.03 33.48 120.94C33.48 120.85 33.56 120.86 33.56 120.78C33.64 120.62 33.72 120.62 33.89 120.62L34.13 120.54C34.13 120.54 34.95 120.46 36.41 120.3C37.71 120.14 39.51 119.73 41.3 119.32C43.18 118.83 44.97 118.18 46.68 117.53C48.39 116.63 50.11 115.98 51.57 114.92C51.98 114.76 52.39 114.51 52.71 114.27L53.04 114.11L53.86 113.54L54.84 112.97C56.88 111.75 58.59 111.42 60.47 111.01C64.07 110.25 67.57 110.82 70.1 112.05Z" /><path class="shp0" d="M150.76 123.14C145.78 125.51 139.91 126.73 135.1 127.22C132.73 127.38 130.53 127.63 129.06 127.46C127.43 127.46 126.45 127.46 126.45 127.46L126.37 127.46C126.29 127.46 126.13 127.46 126.13 127.62C126.05 127.7 126.05 127.95 126.21 128.03C126.21 128.03 129.23 129.82 134.45 130.8C139.59 131.86 146.93 131.62 153.37 128.68C155 127.86 156.39 126.89 157.94 126.07C159.33 125.34 160.96 124.77 162.43 124.36C165.53 123.54 168.55 123.38 171.08 123.63C176.22 124.04 179.32 125.67 179.32 125.67C179.4 125.75 179.56 125.75 179.65 125.67C179.74 125.59 179.73 125.51 179.73 125.43L188.46 125.43L188.46 178.77C187.24 182.36 184.38 185.05 180.71 186.11L36.01 186.11C32.34 185.05 29.49 182.36 28.26 178.77L28.26 120.94L33.48 120.94C33.48 121.02 33.56 121.18 33.72 121.27C33.72 121.27 34.29 121.68 35.35 122.25C36.49 122.82 38.12 123.55 40.24 124.13C44.4 125.27 50.6 124.95 55.74 121.93L55.74 131.39C55.41 131.39 55.17 131.39 55.17 131.39L55.09 131.39C55.01 131.39 54.93 131.39 54.85 131.55C54.77 131.63 54.85 131.88 54.93 131.96C54.93 131.96 58.36 133.75 63.98 134.73C69.61 135.79 77.52 135.63 84.61 132.61C86.4 131.88 87.95 130.82 89.67 130C91.3 129.27 93.01 128.7 94.65 128.29C98.08 127.47 101.34 127.31 104.11 127.56C109.74 127.97 113.16 129.6 113.16 129.6C113.24 129.68 113.4 129.68 113.49 129.6C113.57 129.52 113.57 129.27 113.49 129.19L113.41 129.03C113.41 129.11 112.76 128.21 111.21 127.24C109.74 126.26 107.54 124.71 104.44 123.9C102.32 123.25 99.79 122.84 97.02 122.84L104.93 114.93C104.93 114.93 105.5 115.34 106.64 115.99C107.78 116.56 109.41 117.29 111.53 117.87C115.69 119.01 121.89 118.69 127.03 115.67C128.33 114.94 129.31 113.96 130.46 113.22C131.52 112.49 132.74 111.92 133.97 111.51C136.34 110.61 138.78 110.45 140.82 110.61C144.98 111.02 147.34 112.65 147.34 112.65C147.42 112.73 147.5 112.73 147.67 112.73L155.17 120.97L153.95 121.54L152.65 122.27C152.07 122.57 151.42 122.81 150.76 123.14Z" /><path fill-rule="evenodd" class="shp0" d="M85.76 125.34L84.29 126.07C83.64 126.4 82.9 126.64 82.25 126.97C76.46 129.5 69.85 130.64 64.63 131.13C61.94 131.21 59.57 131.54 57.94 131.37C56.96 131.37 56.23 131.37 55.74 131.37L55.74 121.91C57.04 121.18 58.02 120.2 59.17 119.46C60.31 118.73 61.54 118.16 62.68 117.75C65.13 116.93 67.49 116.69 69.53 116.93C73.69 117.34 76.05 118.97 76.05 118.97C76.13 118.97 76.21 118.97 76.38 118.97C76.54 118.89 76.62 118.73 76.54 118.56L76.46 118.23C76.46 118.23 76.22 117.33 75.24 116.11C74.34 114.81 72.71 113.17 70.1 112.03C67.57 110.81 64.06 110.24 60.48 110.97C58.6 111.38 56.89 111.7 54.85 112.93L53.87 113.5L53.05 114.07L52.72 114.23C52.39 114.47 51.99 114.72 51.58 114.88C50.11 115.94 48.4 116.59 46.69 117.49C44.98 118.14 43.18 118.79 41.31 119.28C39.52 119.69 37.72 120.1 36.42 120.26C34.95 120.42 34.14 120.5 34.14 120.5L33.9 120.58C33.74 120.58 33.66 120.58 33.57 120.74C33.57 120.82 33.49 120.82 33.49 120.9L28.27 120.9L28.27 33.1C29.49 29.51 32.35 26.82 36.02 25.84L180.79 25.84C184.38 26.82 187.23 29.51 188.46 33.1L188.46 98.35L178.26 98.35C178.26 98.27 178.26 98.27 178.26 98.19L178.1 97.86C178.1 97.94 177.77 96.96 176.8 95.74C175.82 94.52 174.11 92.89 171.66 91.66C169.29 90.36 166.11 89.46 162.61 89.38C160.9 89.46 159.18 89.3 157.06 89.95L154.69 90.6C154.2 90.76 153.63 90.93 153.06 91.01C151.02 91.74 148.74 92.15 146.54 92.72C144.34 93.21 142.14 93.7 140.1 94.11C137.9 94.52 136.1 94.84 134.8 95.01C133.25 95.25 132.43 95.34 132.43 95.34L132.19 95.42C132.11 95.42 131.95 95.5 131.95 95.58C131.79 95.74 131.87 95.99 132.03 96.07C132.03 96.07 134.56 97.78 138.96 98.92C140.02 99.16 141.24 99.41 142.47 99.57L142.47 99.65L141.41 105.77C138.88 104.55 135.37 103.98 131.7 104.63C129.91 105.12 128.11 105.45 126.07 106.67L125.17 107.24L124.35 107.81L124.02 107.97C123.69 108.21 123.2 108.46 122.88 108.62C121.33 109.68 119.7 110.33 117.99 111.15C116.28 111.88 114.48 112.54 112.61 113.03C110.82 113.44 109.02 113.76 107.72 114.01C106.25 114.17 105.35 114.25 105.35 114.25L105.11 114.25C105.03 114.25 104.95 114.33 104.87 114.41C104.79 114.57 104.79 114.82 104.95 114.9L97.04 122.81C95.9 122.81 94.76 122.89 93.53 123.05C91.41 123.38 89.45 123.7 87.09 124.76L85.76 125.34ZM82.91 94.76C82.99 94.68 82.99 94.6 82.91 94.52L82.91 94.44C82.83 94.44 82.42 93.79 81.44 92.97C80.46 92.15 78.91 90.93 76.71 90.2C74.59 89.55 71.9 88.73 68.88 88.98C67.41 89.14 66.03 89.31 64.31 89.8L62.27 90.45C61.7 90.69 61.13 90.78 60.56 90.94C58.36 91.76 55.91 92.24 53.71 92.41C51.43 92.49 49.14 92.9 47.27 92.65C45.39 92.49 43.6 92.49 42.46 92.24C41.24 92 40.5 91.91 40.5 91.91C40.42 91.91 40.34 91.91 40.26 91.99C40.18 92.07 40.26 92.23 40.34 92.23C40.34 92.23 42.62 93.86 46.62 95C50.62 96.14 56.41 96.47 61.71 94.84C64.4 93.86 66.85 92.8 69.38 92.47C71.91 92.14 74.27 92.23 76.31 92.55C80.31 93.28 82.67 94.75 82.67 94.75C82.74 94.76 82.82 94.76 82.91 94.76ZM138.37 80.89C136.49 81.95 134.37 82.52 132.33 82.68C130.29 82.76 128.25 82.92 126.46 82.52C124.75 82.11 123.03 81.79 121.97 81.38C120.83 80.97 120.18 80.73 120.18 80.73L120.1 80.65C120.02 80.65 119.94 80.65 119.86 80.73C119.86 80.81 119.86 80.97 119.94 80.97C119.94 80.97 120.43 81.46 121.33 82.19C122.23 82.92 123.61 83.9 125.49 84.72C129.16 86.51 135.11 87 140.09 84.56C142.54 83.26 144.66 81.71 147.1 81.3C149.47 80.81 151.83 80.97 153.79 81.54C155.67 82.03 157.13 82.84 158.11 83.5C159.01 84.15 159.5 84.56 159.5 84.56C159.58 84.64 159.66 84.64 159.74 84.64C159.82 84.56 159.9 84.48 159.82 84.4L159.82 84.24C159.74 84.32 159.49 83.59 158.68 82.61C157.86 81.71 156.56 80.16 154.44 79.18C152.32 78.28 149.46 77.39 146.37 77.88C144.82 78.12 143.43 78.53 141.72 79.27L139.84 80.25C139.35 80.48 138.86 80.73 138.37 80.89ZM92.53 101.77C90.82 102.5 89.02 103.16 87.15 103.65C85.36 104.06 83.56 104.38 82.26 104.63C80.79 104.79 79.98 104.87 79.98 104.87L79.74 104.87C79.58 104.87 79.5 104.95 79.41 105.03C79.33 105.19 79.33 105.44 79.57 105.6C79.57 105.6 80.14 105.93 81.2 106.58C82.34 107.15 83.97 107.88 86.09 108.46C90.25 109.6 96.45 109.28 101.59 106.26C102.89 105.53 103.87 104.55 105.02 103.81C106.16 103.08 107.3 102.51 108.53 102.1C110.9 101.28 113.34 101.04 115.38 101.28C119.54 101.69 121.9 103.24 121.9 103.24C121.98 103.32 122.06 103.32 122.23 103.32C122.39 103.24 122.47 103.08 122.39 102.91L122.31 102.58C122.31 102.58 121.98 101.68 121.09 100.38C120.19 99.16 118.48 97.53 115.95 96.38C113.42 95.16 109.91 94.59 106.33 95.24C104.45 95.73 102.74 96.06 100.62 97.28L99.72 97.85L98.9 98.42L98.57 98.58C98.24 98.82 97.84 99.07 97.43 99.23C95.96 100.3 94.24 100.95 92.53 101.77ZM88.45 82.85C87.06 83.67 85.51 84.07 83.96 84.24C82.49 84.32 80.94 84.65 79.64 84.48C78.25 84.32 76.95 84.32 76.13 84.07C75.15 83.91 74.58 83.74 74.58 83.74L74.5 83.74C74.42 83.74 74.42 83.74 74.34 83.82C74.26 83.9 74.26 83.98 74.34 84.06C74.34 84.06 75.81 85.61 78.74 86.75C81.59 87.89 86.08 88.3 90 86.59C91.96 85.69 93.59 84.63 95.46 84.31C97.25 83.98 99.05 84.07 100.52 84.39C103.46 85.12 105.01 86.59 105.01 86.59C105.09 86.59 105.17 86.59 105.17 86.59C105.33 86.59 105.33 86.43 105.33 86.35L105.25 86.27C105.25 86.27 105.09 85.7 104.43 84.88C103.78 84.15 102.8 82.84 101.09 82.11C99.46 81.38 97.26 80.56 94.81 80.89C93.59 81.05 92.44 81.3 91.06 81.79L89.51 82.44C89.19 82.69 88.78 82.77 88.45 82.85Z" /><path fill-rule="evenodd" class="shp1" d="M190.48 32.69L190.48 179.17C189.09 183.57 185.5 186.92 181.02 188.14L35.68 188.14C31.19 186.92 27.61 183.57 26.22 179.17L26.22 32.69C27.61 28.37 31.2 24.94 35.68 23.8L181.02 23.8C185.51 24.94 189.09 28.37 190.48 32.69ZM180.7 186.1C184.37 185.04 187.22 182.35 188.45 178.76L188.45 33.1C187.23 29.51 184.37 26.82 180.78 25.84L36.01 25.84C32.34 26.82 29.49 29.51 28.26 33.1L28.26 178.77C29.48 182.36 32.34 185.05 36.01 186.11L180.7 186.11L180.7 186.1Z" /><path fill-rule="evenodd" class="shp1" d="M181.51 21.76C186.73 23.15 190.81 26.98 192.44 32.12C192.52 32.28 192.52 32.53 192.52 32.69L192.52 179.17C192.52 179.33 192.52 179.58 192.44 179.74C190.81 184.88 186.73 188.71 181.51 190.1C181.35 190.1 181.18 190.18 181.02 190.18L35.68 190.18C35.52 190.18 35.35 190.1 35.19 190.1C29.97 188.71 25.89 184.88 24.26 179.74C24.18 179.58 24.18 179.33 24.18 179.17L24.18 32.69C24.18 32.53 24.18 32.28 24.26 32.12C25.97 26.98 30.05 23.15 35.19 21.76C35.35 21.76 35.52 21.76 35.68 21.76C35.85 21.76 181.35 21.76 181.51 21.76ZM181.02 188.14C185.51 186.92 189.09 183.57 190.48 179.17L190.48 32.69C189.09 28.37 185.5 24.94 181.02 23.8L35.68 23.8C31.19 24.94 27.61 28.37 26.22 32.69L26.22 179.17C27.61 183.57 31.2 186.92 35.68 188.14L181.02 188.14Z" /><path fill-rule="evenodd" class="shp1" d="M211.36 14.09C211.52 14.5 211.52 14.91 211.52 15.39L211.52 196.45C211.52 196.86 211.52 197.35 211.36 197.75C209.16 204.52 203.69 209.66 196.76 211.53C196.43 211.61 196.03 211.61 195.7 211.61L15.95 211.61C15.62 211.61 15.3 211.61 14.89 211.53C7.96 209.65 2.57 204.52 0.37 197.66C0.21 197.25 0.13 196.84 0.13 196.44L0.13 15.4C0.13 14.91 0.21 14.5 0.37 14.1C2.57 7.33 8.04 2.11 14.97 0.32C15.3 0.24 15.62 0.24 15.95 0.24L195.7 0.24C196.03 0.24 196.43 0.24 196.76 0.32C203.62 2.1 209.08 7.24 211.36 14.09ZM203.37 195.81L203.37 16.05C201.98 12.3 198.97 9.53 195.13 8.38L16.52 8.38C12.69 9.52 9.67 12.29 8.28 16.05L8.28 195.81C9.67 199.48 12.68 202.33 16.52 203.48L195.14 203.48C198.97 202.33 201.98 199.48 203.37 195.81Z" /></g></g></g></g></g></svg>