<svg xmlns="http://www.w3.org/2000/svg" viewBox="0 0 210 209" width="256" height="255"><style>tspan { white-space:pre }.shp0 { fill: #ffffff } .shp1 { fill: #2e3192 } </style><g ></g><g ><g ><g ><g ><g ><path fill-rule="evenodd" class="shp0" d="M189.27 32.4L189.27 176.17C189.27 176.43 189.27 176.69 189.18 176.86C187.53 181.9 183.45 185.72 178.33 187.1C178.16 187.19 177.98 187.19 177.72 187.19L35.08 187.19C34.82 187.19 34.65 187.19 34.47 187.1C29.35 185.71 25.27 181.89 23.62 176.86C23.53 176.69 23.53 176.43 23.53 176.17L23.53 32.4C23.53 32.14 23.53 31.97 23.62 31.71C25.27 26.67 29.35 22.85 34.47 21.55C34.64 21.46 34.82 21.46 35.08 21.46L177.73 21.46C177.99 21.46 178.16 21.46 178.34 21.55C183.46 22.85 187.54 26.67 189.19 31.71C189.27 31.97 189.27 32.14 189.27 32.4ZM187.1 176.17L187.1 32.4C185.71 28.06 182.15 24.76 177.72 23.63L35.08 23.63C30.65 24.76 27.09 28.06 25.7 32.4L25.7 176.17C27.09 180.51 30.65 183.81 35.08 185.03L177.73 185.03C182.15 183.81 185.71 180.52 187.1 176.17Z" /><path fill-rule="evenodd" class="shp0" d="M187.1 32.4L187.1 176.17C185.71 180.51 182.15 183.81 177.72 185.03L35.08 185.03C30.65 183.81 27.09 180.52 25.7 176.17L25.7 32.4C27.09 28.06 30.65 24.76 35.08 23.63L177.73 23.63C182.15 24.76 185.71 28.06 187.1 32.4ZM184.93 175.83L184.93 32.75C183.71 29.36 180.85 26.76 177.46 25.8L35.34 25.8C31.87 26.76 29.09 29.36 27.87 32.75L27.87 175.83C29.09 179.22 31.86 181.82 35.34 182.86L177.46 182.86C180.94 181.82 183.72 179.21 184.93 175.83Z" /><path class="shp1" d="M184.93 32.75L184.93 175.83C183.71 179.22 180.94 181.82 177.46 182.86L35.34 182.86C31.87 181.82 29.09 179.21 27.87 175.83L27.87 32.75C29.09 29.36 31.86 26.76 35.34 25.8L177.46 25.8C180.85 26.76 183.72 29.36 184.93 32.75Z" /></g></g></g><g ><g ><path fill-rule="evenodd" class="shp0" d="M193.2 208.54L16.66 208.54C16.29 208.54 15.91 208.49 15.55 208.4C8.64 206.57 3.2 201.42 0.98 194.63C0.84 194.19 0.77 193.74 0.77 193.28L0.77 15.41C0.77 14.95 0.85 14.49 0.99 14.05C3.22 7.25 8.67 2.12 15.57 0.33C15.93 0.24 16.3 0.19 16.66 0.19L193.2 0.19C193.56 0.19 193.94 0.24 194.29 0.33C201.18 2.12 206.63 7.25 208.88 14.05C209.02 14.49 209.1 14.95 209.1 15.41L209.1 193.28C209.1 193.74 209.02 194.2 208.88 194.63C206.66 201.43 201.21 206.57 194.31 208.39C193.95 208.49 193.58 208.54 193.2 208.54ZM17.27 199.86L192.6 199.86C196.2 198.75 199.08 196.06 200.43 192.53L200.43 16.16C199.06 12.64 196.2 9.97 192.61 8.87L17.26 8.87C13.72 9.96 10.79 12.69 9.44 16.16L9.44 192.54C10.8 196.06 13.66 198.74 17.27 199.86Z" /></g></g><g ><g ><path class="shp0" d="M90.49 180.34C90.12 180.34 89.74 180.33 89.33 180.31C85.16 180.1 81.69 177.86 78.34 175.68C74.27 173.05 70.81 170.77 66.39 171.98C63.22 172.86 62.37 173.89 61.38 175.07C59.3 177.58 57.18 179.31 49.15 179.03C35.34 178.52 31.11 172.57 30.67 171.89L35.04 169.07L35.04 169.07C35.04 169.07 38.29 173.42 49.33 173.83C55.46 174.07 56.22 173.13 57.38 171.74C58.6 170.28 60.26 168.29 65 166.97C71.59 165.13 76.69 168.42 81.18 171.32C84.08 173.2 86.83 174.97 89.59 175.11C93.37 175.28 94.65 174.44 96.69 173.01C98.32 171.87 100.34 170.45 103.89 169.46C107.89 168.35 110.27 168.92 113.58 169.7C117.42 170.61 123.22 171.99 136.34 171.99C144.8 171.99 151.39 169.42 156.49 164.14C171.05 149.05 169.86 115.23 168.99 90.53C168.69 82.1 168.44 74.82 168.84 69.43C169.2 64.74 173.44 62.93 175.62 62.63L176.33 67.79L175.97 65.21L176.36 67.79C175.99 67.85 174.15 68.23 174.02 69.83C173.65 74.92 173.9 82.07 174.19 90.35C175.1 115.98 176.34 151.08 160.23 167.76C154.18 174.02 146.14 177.2 136.33 177.2C122.59 177.2 116.44 175.74 112.36 174.77C109.26 174.04 107.98 173.72 105.26 174.48C102.58 175.22 101.16 176.22 99.66 177.27C97.52 178.79 95.3 180.34 90.49 180.34Z" /></g><g ><path class="shp0" d="M91.15 169.51C90.82 169.51 90.48 169.5 90.12 169.48C86.06 169.28 82.69 167.31 79.44 165.4C75.84 163.28 72.23 161.11 67.25 161.24C63.3 161.36 61.72 162.65 59.89 164.13C57.53 166.05 54.84 168.2 47.38 167.94C34.03 167.44 33.29 162.79 33.28 161.87L35.74 161.84C35.88 162.68 38.25 165.14 47.47 165.49C54.13 165.71 56.12 164.02 58.34 162.23C60.33 160.61 62.39 158.94 67.18 158.79C72.62 158.62 76.77 160.99 80.69 163.29C83.83 165.13 86.79 166.86 90.25 167.03C94.8 167.23 96.49 165.83 98.3 164.33C99.57 163.27 100.89 162.18 103.04 161.66C105.26 161.11 107.1 161.47 110.15 162.06C114.31 162.87 121.28 164.22 135.61 164.39C142.79 164.48 148.53 162.38 152.75 157.98C164.41 145.86 163.02 118.6 161.8 94.55C161.44 87.47 161.1 80.79 161.1 74.77C161.1 58.69 176.59 55.08 176.75 55.04L177.28 57.44C176.71 57.57 163.55 60.68 163.55 74.77C163.55 80.73 163.89 87.39 164.25 94.43C165.5 118.98 166.91 146.81 154.52 159.69C149.95 164.45 143.73 166.85 136.02 166.85C135.88 166.85 135.72 166.85 135.57 166.85C121.03 166.68 113.92 165.3 109.68 164.48C106.76 163.91 105.31 163.63 103.61 164.05C102.02 164.44 101.02 165.27 99.87 166.22C98 167.77 95.9 169.51 91.15 169.51Z" /></g><g ><path class="shp0" d="M134.91 160.78C122.93 160.78 114.2 157.16 108.96 150.03C99.24 136.8 105.43 116.56 105.7 115.7L110.67 117.26C110.61 117.45 105.01 135.87 113.16 146.96C117.37 152.68 124.69 155.58 134.91 155.58C138.92 155.58 142.08 154.31 144.58 151.7C153.61 142.24 152.42 116.82 151.47 96.4C150.87 83.43 150.35 72.24 152.12 65.38C156.3 49.17 174.5 45.1 175.28 44.93L176.37 50.03C176.21 50.06 160.52 53.62 157.15 66.69C155.58 72.79 156.11 84.15 156.67 96.17C157.72 118.7 158.91 144.23 148.34 155.31C144.86 158.93 140.34 160.78 134.91 160.78Z" /></g><g ><path class="shp0" d="M132.23 152.23C129.56 152.23 126.74 151.65 124.01 150.43C115.22 146.52 107.13 135.57 113.28 117.59L115.6 118.39C110 134.8 117.17 144.69 125.01 148.19C132.2 151.38 139.92 149.63 142.98 144.12C146.42 137.92 145.97 117.94 145.53 98.62C145.29 88.1 145.05 77.22 145.45 68.62C146.66 42.22 176 37.76 176.29 37.72L176.63 40.15C175.51 40.31 149.02 44.39 147.9 68.73C147.51 77.26 147.75 88.09 147.98 98.57C148.45 119.12 148.89 138.53 145.12 145.32C142.66 149.77 137.73 152.23 132.23 152.23Z" /></g><g ><path class="shp0" d="M131.07 145.24C128.53 145.24 125.94 144.38 123.69 142.71C120.93 140.66 114.81 134.29 117.42 119.33L122.56 120.23C120.45 132.34 124.82 137.06 126.8 138.53C128.96 140.13 131.56 140.48 133.59 139.45C135.51 138.49 136.57 136.47 136.57 133.78C136.57 127.71 136.6 119.01 136.63 108.98C136.67 95.34 136.72 79.23 136.72 63.96C136.72 35.62 173.07 28.71 174.61 28.43L175.54 33.56C175.2 33.62 141.92 39.97 141.92 63.96C141.92 79.24 141.87 95.35 141.83 109C141.8 119.03 141.77 127.72 141.77 133.78C141.77 138.47 139.64 142.24 135.93 144.11C134.4 144.86 132.74 145.24 131.07 145.24Z" /></g></g></g></g></svg>